<?xml version="1.0" standalone="no"?>
<!DOCTYPE svg PUBLIC "-//W3C//DTD SVG 1.1//EN" "http://www.w3.org/Graphics/SVG/1.1/DTD/svg11.dtd" >
<svg xmlns="http://www.w3.org/2000/svg" xmlns:xlink="http://www.w3.org/1999/xlink" version="1.1">
<metadata>
Created by FontForge 20170731 at Mon Jan 25 11:36:06 2016
 By Aleksey,,,
Copyright (c) 2013-2016, Sorkin Type Co (www.sorkintype.com) with Reserved Font Name 'Merriweather'
</metadata>
<defs>
<font id="MerriweatherSans-LightItalic" horiz-adv-x="1378" >
  <font-face 
    font-family="Merriweather Sans Light"
    font-weight="300"
    font-style="italic"
    font-stretch="normal"
    units-per-em="2048"
    panose-1="0 0 4 0 0 0 0 0 0 0"
    ascent="1638"
    descent="-410"
    x-height="1140"
    cap-height="1530"
    bbox="-341 -560 2559 2100"
    underline-thickness="137"
    underline-position="-415"
    slope="-7.5"
    unicode-range="U+000D-FB02"
  />
<missing-glyph horiz-adv-x="1845" 
d="M1625 1416v-1416h-1405v1416h1405zM920 595l351 -364l115 116l-355 362l355 351l-121 119l-342 -362l-346 363l-116 -119l351 -356l-350 -335l121 -138z" />
    <glyph glyph-name="fi" unicode="fi" horiz-adv-x="1259" 
d="M152 1021l22 118l146 1l18 124q16 124 67.5 217t136 145t196.5 52q44 0 80.5 -5.5t70.5 -20.5l-38 -121q-47 32 -132 31q-61 0 -109.5 -35t-79.5 -94t-40 -131l-21 -162h243l-9 -119h-250l-138 -1021h-148l137 1021h-152zM1131 1144l-155 -1144h-148l154 1144h149z
M1027.5 1582q15.5 28 41 44.5t54.5 16.5q42 0 67 -24.5t25 -63.5q0 -34 -16 -63t-43 -46t-58 -17q-37 0 -61.5 25.5t-24.5 65.5q0 34 15.5 62z" />
    <glyph glyph-name="fl" unicode="fl" horiz-adv-x="1258" 
d="M152 1021l22 118l146 1l18 124q16 124 67.5 217t136 145t196.5 52q44 0 80.5 -5.5t70.5 -20.5l-38 -121q-47 32 -132 31q-61 0 -109.5 -35t-79.5 -94t-40 -131l-21 -162h243l-9 -119h-250l-138 -1021h-148l137 1021h-152zM1199 1637l-222 -1634h-149l223 1634h148z" />
    <glyph glyph-name="f_f" unicode="ff" horiz-adv-x="1390" 
d="M152 1021l22 118l146 1l18 124q16 124 67.5 217t136 145t196.5 52q44 0 80.5 -5.5t70.5 -20.5l-38 -121q-47 32 -132 31q-61 0 -109.5 -35t-79.5 -94t-40 -131l-21 -162h243l-9 -119h-250l-138 -1021h-148l137 1021h-152zM847 1021l22 118l146 1l18 124q16 124 67.5 217
t136 145t196.5 52q44 0 80.5 -5.5t70.5 -20.5l-38 -121q-47 32 -132 31q-61 0 -109.5 -35t-79.5 -94t-40 -131l-21 -162h243l-9 -119h-250l-138 -1021h-148l137 1021h-152z" />
    <glyph glyph-name="f_f_i" unicode="ffi" horiz-adv-x="1954" 
d="M152 1021l22 118l146 1l18 124q16 124 67.5 217t136 145t196.5 52q44 0 80.5 -5.5t70.5 -20.5l-38 -121q-47 32 -132 31q-61 0 -109.5 -35t-79.5 -94t-40 -131l-21 -162h243l-9 -119h-250l-138 -1021h-148l137 1021h-152zM847 1021l22 118l146 1l18 124q16 124 67.5 217
t136 145t196.5 52q44 0 80.5 -5.5t70.5 -20.5l-38 -121q-47 32 -132 31q-61 0 -109.5 -35t-79.5 -94t-40 -131l-21 -162h243l-9 -119h-250l-138 -1021h-148l137 1021h-152zM1826 1144l-155 -1144h-148l154 1144h149zM1722.5 1582q15.5 28 41 44.5t54.5 16.5q42 0 67 -24.5
t25 -63.5q0 -34 -16 -63t-43 -46t-58 -17q-37 0 -61.5 25.5t-24.5 65.5q0 34 15.5 62z" />
    <glyph glyph-name="f_f_l" unicode="ffl" horiz-adv-x="1953" 
d="M152 1021l22 118l146 1l18 124q16 124 67.5 217t136 145t196.5 52q44 0 80.5 -5.5t70.5 -20.5l-38 -121q-47 32 -132 31q-61 0 -109.5 -35t-79.5 -94t-40 -131l-21 -162h243l-9 -119h-250l-138 -1021h-148l137 1021h-152zM847 1021l22 118l146 1l18 124q16 124 67.5 217
t136 145t196.5 52q44 0 80.5 -5.5t70.5 -20.5l-38 -121q-47 32 -132 31q-61 0 -109.5 -35t-79.5 -94t-40 -131l-21 -162h243l-9 -119h-250l-138 -1021h-148l137 1021h-152zM1894 1637l-222 -1634h-149l223 1634h148z" />
    <glyph glyph-name=".notdef" horiz-adv-x="1845" 
d="M1625 1416v-1416h-1405v1416h1405zM920 595l351 -364l115 116l-355 362l355 351l-121 119l-342 -362l-346 363l-116 -119l351 -356l-350 -335l121 -138z" />
    <glyph glyph-name=".null" horiz-adv-x="0" 
 />
    <glyph glyph-name="nonmarkingreturn" unicode="&#xd;" horiz-adv-x="0" 
 />
    <glyph glyph-name="NULL" horiz-adv-x="0" 
 />
    <glyph glyph-name="NULL" horiz-adv-x="0" 
 />
    <glyph glyph-name="space" unicode=" " horiz-adv-x="485" 
 />
    <glyph glyph-name="exclam" unicode="!" horiz-adv-x="621" 
d="M571 1778l-215 -1290h-120l163 1290h172zM335.5 181q22.5 -22 22.5 -60q0 -13 -1 -20q-8 -55 -46 -86.5t-90 -31.5q-39 0 -64.5 22.5t-25.5 62.5q0 38 19 69t50.5 48.5t66.5 17.5q46 0 68.5 -22z" />
    <glyph glyph-name="quotedbl" unicode="&#x22;" horiz-adv-x="1003" 
d="M502 1687l-154 -721h-108l88 721h174zM981 1687l-154 -721h-108l88 721h174z" />
    <glyph glyph-name="numbersign" unicode="#" horiz-adv-x="1393" 
d="M112 365l6 98h224l72 463h-222l6 98h232l53 333h126l-51 -333h388l56 333h127l-55 -333h233l-6 -98h-242l-74 -463h230l-6 -98h-239l-57 -365h-123l53 365h-390l-62 -365h-124l59 365h-214zM930 926h-388l-73 -463h389z" />
    <glyph glyph-name="dollar" unicode="$" horiz-adv-x="1204" 
d="M610 1409.5q-70 -20.5 -120.5 -74t-52.5 -146.5q-3 -86 29.5 -147.5t86.5 -106t157 -112.5q96 -64 159 -116.5t107 -129.5t44 -176q0 -123 -56 -213t-156 -142t-230 -64l-35 -212h-137l34 211q-102 8 -191 34.5t-121 52.5l42 123q19 -20 72.5 -42.5t124 -37t139.5 -14.5
q96 0 177.5 30t131 92.5t49.5 154.5q0 99 -58.5 173.5t-184.5 155.5q-102 66 -170 122.5t-116.5 140.5t-48.5 194q0 112 52.5 196t145 131.5t211.5 55.5l30 186h137l-30 -188q167 -14 258 -80l-48 -115q-41 40 -121.5 62t-166.5 22q-74 0 -144 -20.5z" />
    <glyph glyph-name="percent" unicode="%" horiz-adv-x="1911" 
d="M1484 1530l-947 -1530h-123l947 1530h123zM254.5 1259.5q53.5 98.5 147.5 159.5t209 61q142 0 211 -79.5t69 -215.5q0 -111 -50.5 -212.5t-144 -164.5t-214.5 -63q-89 0 -152.5 40t-96 110.5t-32.5 159.5q0 106 53.5 204.5zM717 1330.5q-44 55.5 -127 55.5
q-79 0 -140 -51t-93.5 -128t-32.5 -151q0 -97 47.5 -157t132.5 -60q80 0 138.5 53.5t88.5 133t30 153.5q0 96 -44 151.5zM1658 719.5q69 -79.5 69 -215.5q0 -111 -50.5 -212.5t-144 -164.5t-214.5 -63q-89 0 -152.5 40t-96 110.5t-32.5 159.5q0 106 53.5 204.5t147.5 159.5
t209 61q142 0 211 -79.5zM1478.5 211.5q58.5 53.5 88.5 133t30 153.5q0 96 -44 151.5t-127 55.5q-79 0 -140 -51t-93.5 -128t-32.5 -151q0 -97 47.5 -157t132.5 -60q80 0 138.5 53.5z" />
    <glyph glyph-name="ampersand" unicode="&#x26;" horiz-adv-x="1534" 
d="M1435 694h-181q14 -49 14 -108q0 -139 -44.5 -251t-128.5 -190q53 -34 114.5 -49t139.5 -13q13 -1 28.5 0t25.5 4l-15 -93q-58 -14 -146 -14q-66 0 -138 21.5t-124 62.5q-151 -81 -358 -81q-142 0 -258.5 39t-187.5 124.5t-71 218.5q0 91 44 164t115 129t174 113
q-41 86 -68 186t-27 180q0 119 53 212.5t146.5 145.5t211.5 52q108 0 184.5 -45.5t115 -115t38.5 -141.5q0 -115 -61.5 -201.5t-149.5 -145.5t-235 -137l-41 -22q190 -327 395 -516q62 60 96 143.5t34 186.5q0 74 -23 141q-38 -1 -72 -7t-51 -15l9 105q12 12 48.5 20.5
t87.5 8.5l314 -1zM501.5 975.5q21.5 -80.5 52.5 -142.5q133 70 211.5 120.5t131.5 119.5t53 156q0 95 -50.5 155.5t-150.5 60.5q-80 0 -141 -40.5t-94.5 -110t-33.5 -153.5q0 -85 21.5 -165.5zM310 212.5q50 -62.5 134.5 -92t190.5 -29.5q142 0 254 55q-131 126 -218 245.5
t-181 282.5q-110 -67 -170 -139t-60 -166t50 -156.5z" />
    <glyph glyph-name="quotesingle" unicode="'" horiz-adv-x="524" 
d="M502 1687l-154 -721h-108l88 721h174z" />
    <glyph glyph-name="parenleft" unicode="(" horiz-adv-x="854" 
d="M391.5 1204q120.5 219 252 359t201.5 178l67 -46q-62 -40 -167.5 -165t-205.5 -325t-141 -444q-18 -136 -18 -251q0 -206 48 -369t112 -265.5t117 -146.5l-82 -48h-14q-56 38 -134.5 139.5t-142 277t-63.5 407.5q0 104 15 219q35 261 155.5 480z" />
    <glyph glyph-name="parenright" unicode=")" horiz-adv-x="854" 
d="M472.5 224q-120.5 -219 -252 -359t-201.5 -178l-67 46q62 40 167.5 165t205.5 325t141 444q18 136 18 251q0 206 -48 369t-112 265.5t-117 146.5l82 48h14q56 -38 134.5 -139.5t142 -277t63.5 -407.5q0 -103 -15 -219q-35 -261 -155.5 -480z" />
    <glyph glyph-name="asterisk" unicode="*" horiz-adv-x="1366" 
d="M526 1090l146 57l-134 58l-260 139l87 127l233 -176l109 -95l-6 150l7 303h148l-51 -303l-37 -150l129 95l267 172l59 -128l-284 -135l-145 -58l129 -58l254 -135l-88 -126l-227 172l-105 97l9 -146l-7 -303l-151 1l52 302l36 146l-128 -95l-269 -170l-59 129z" />
    <glyph glyph-name="plus" unicode="+" horiz-adv-x="1366" 
d="M629 717l-161 -5h-225l14 121h226l158 -9l17 181l27 230h136l-26 -230l-30 -180l135 8h255l-14 -121h-256l-131 5q-2 -48 -10 -120l-5 -61l-29 -241h-138l29 241z" />
    <glyph glyph-name="comma" unicode="," horiz-adv-x="503" 
d="M96 168l79 97q90 -40 129 -122.5t39 -173.5q0 -110 -39 -204t-109 -162t-162 -104l-55 67l2 18q87 43 145.5 131.5t58.5 203.5q0 76 -26.5 132.5t-67.5 75.5z" />
    <glyph glyph-name="hyphen" unicode="-" horiz-adv-x="1266" 
d="M1071 833l-14 -121h-837l14 121h837z" />
    <glyph glyph-name="period" unicode="." horiz-adv-x="503" 
d="M289.5 179q21.5 -24 21.5 -65q0 -63 -32.5 -97t-88.5 -34q-38 0 -63.5 24.5t-25.5 65.5q0 55 33.5 92.5t87.5 37.5q46 0 67.5 -24z" />
    <glyph glyph-name="slash" unicode="/" horiz-adv-x="854" 
d="M787 1597h133l-863 -1959h-132z" />
    <glyph glyph-name="zero" unicode="0" horiz-adv-x="1278" 
d="M1054 1029q103 -127 103 -341q0 -187 -81 -349t-222.5 -258.5t-314.5 -96.5q-144 0 -240.5 64t-142 170.5t-45.5 234.5q0 197 84.5 358t227.5 253t311 92q217 0 320 -127zM799 175.5q99 84.5 149.5 218.5t50.5 281q0 375 -284 375q-146 0 -247 -88t-150.5 -223
t-49.5 -275q0 -103 32 -187.5t98 -135t164 -50.5q138 0 237 84.5z" />
    <glyph glyph-name="one" unicode="1" horiz-adv-x="911" 
d="M460 947q-75 -30 -133.5 -50.5t-125.5 -34.5l-18 98q97 21 210 78.5t206 123.5l68 -19l-165 -1143h-153l137 958z" />
    <glyph glyph-name="two" unicode="2" horiz-adv-x="1249" 
d="M456.5 325.5q181.5 119.5 296 246t114.5 239.5q0 111 -61 169t-185 58q-107 0 -196 -47t-172 -116l-56 87q45 48 115 93t161 75t190 30q125 0 208.5 -45.5t123.5 -121t40 -166.5q0 -201 -214 -380.5t-544 -343.5l781 29l-21 -132h-950l-25 102q213 104 394.5 223.5z" />
    <glyph glyph-name="three" unicode="3" horiz-adv-x="1100" 
d="M470 -165q127 45 204.5 130t77.5 198q0 112 -71.5 177.5t-227.5 66.5q-20 -9 -124 -36l-54 -15l13 131q220 53 351.5 139.5t131.5 224.5q0 75 -56 121.5t-154 46.5q-104 0 -187 -36.5t-168 -98.5l-47 112q38 37 105.5 74.5t158 63.5t190.5 26q89 0 163 -30.5t119 -93.5
t45 -157q0 -87 -51.5 -165t-135.5 -138t-181 -95q114 0 194 -41.5t120 -111t40 -152.5q0 -148 -103.5 -262.5t-269 -177.5t-343.5 -63q-71 0 -168 12l13 115q85 -10 144 -10q144 0 271 45z" />
    <glyph glyph-name="four" unicode="4" horiz-adv-x="1240" 
d="M767 1256l106 -68l-577 -929l-108 -158l524 13l64 507l147 28l-67 -527l263 11l-16 -133h-263l-47 -375h-145l49 375h-647l-27 72q360 563 706 1184h38z" />
    <glyph glyph-name="five" unicode="5" horiz-adv-x="1104" 
d="M451.5 -183q142.5 48 230.5 141.5t88 223.5q0 133 -68.5 205.5t-203.5 72.5q-72 0 -147.5 -20.5t-136.5 -48.5l-58 58l154 695h582l19 16h128l-31 -144h-581l-120 -488q53 20 124 34.5t136 14.5q191 0 284.5 -98t93.5 -269q0 -161 -106.5 -288t-285 -197.5t-384.5 -70.5
q-81 0 -130 17l18 108q47 -10 92 -10q160 0 302.5 48z" />
    <glyph glyph-name="six" unicode="6" horiz-adv-x="1244" 
d="M1029 1484q-158 -55 -290 -150t-227 -220.5t-144 -269.5q159 142 374 142q124 0 204 -53t116 -139t36 -189q0 -151 -65 -294.5t-189.5 -235t-291.5 -91.5q-132 0 -222.5 67.5t-135.5 181.5t-45 255q0 249 108.5 472t301.5 383.5t437 228.5zM785.5 167.5
q81.5 77.5 121.5 192t40 224.5q0 138 -65 212t-176 74q-220 0 -378 -168q-14 -61 -21 -113.5t-7 -114.5q0 -175 73 -279.5t213 -104.5q118 0 199.5 77.5z" />
    <glyph glyph-name="seven" unicode="7" horiz-adv-x="1063" 
d="M98 1021l26 123h883l26 -35l-618 -1424l-137 51l584 1288z" />
    <glyph glyph-name="eight" unicode="8" horiz-adv-x="1249" 
d="M356.5 980q-60.5 83 -60.5 191q0 125 60.5 215t165.5 136.5t236 46.5q106 0 191 -39.5t134 -113.5t49 -173q0 -96 -49.5 -183t-134 -152.5t-186.5 -102.5q134 -92 217 -190t83 -214q0 -127 -69.5 -222t-187 -145.5t-259.5 -50.5q-107 0 -204.5 41.5t-159.5 124t-62 199.5
q0 105 57 197t147 161.5t193 113.5q-100 77 -160.5 160zM949 1362.5q-33 53.5 -88 80.5t-120 27q-80 0 -147 -34.5t-106 -96.5t-39 -141q0 -99 62 -177.5t172 -156.5q75 34 143 87t112 125t44 156q0 77 -33 130.5zM734 123q75 36 120 101t45 149q0 106 -79 200t-223 190
q-78 -37 -149 -95.5t-118.5 -136t-48.5 -164.5q0 -80 35 -143.5t101 -100t156 -36.5q86 0 161 36z" />
    <glyph glyph-name="nine" unicode="9" horiz-adv-x="1244" 
d="M521 151q-132 0 -217.5 54t-125 142t-39.5 193q0 151 64.5 294.5t188.5 235t291 91.5q131 0 222.5 -67.5t137 -182t45.5 -254.5q0 -249 -109 -473t-302.5 -385t-437.5 -229l-34 89q158 54 290.5 150t228 222.5t145.5 269.5q-145 -150 -348 -150zM716.5 297.5
q70.5 30.5 112 66.5t79.5 79q15 64 22.5 115.5t7.5 112.5q0 175 -74 279.5t-215 104.5q-118 0 -199 -77.5t-120.5 -192t-39.5 -224.5q0 -142 72 -218t194 -76q90 0 160.5 30.5z" />
    <glyph glyph-name="colon" unicode=":" horiz-adv-x="503" 
d="M273.5 179q21.5 -24 21.5 -65q0 -63 -32.5 -97t-88.5 -34q-38 0 -63.5 24.5t-25.5 65.5q0 55 33.5 92.5t87.5 37.5q46 0 67.5 -24zM370.5 1011q21.5 -24 21.5 -65q0 -63 -32.5 -97t-88.5 -34q-38 0 -63.5 24.5t-25.5 65.5q0 55 33.5 92.5t87.5 37.5q46 0 67.5 -24z" />
    <glyph glyph-name="semicolon" unicode=";" horiz-adv-x="503" 
d="M96 168l79 97q90 -40 129 -122.5t39 -173.5q0 -110 -39 -204t-109 -162t-162 -104l-55 67l2 18q87 43 145.5 131.5t58.5 203.5q0 76 -26.5 132.5t-67.5 75.5zM372.5 1011q21.5 -24 21.5 -65q0 -63 -32.5 -97t-88.5 -34q-38 0 -63.5 24.5t-25.5 65.5q0 55 33.5 92.5
t87.5 37.5q46 0 67.5 -24z" />
    <glyph glyph-name="less" unicode="&#x3c;" horiz-adv-x="1368" 
d="M1220 1324l-19 -149l-833 -432l732 -432l-15 -135l-888 526l12 98z" />
    <glyph glyph-name="equal" unicode="=" horiz-adv-x="1063" 
d="M997 987l-14 -120h-814l13 120h815zM927 478l-14 -120h-814l13 120h815z" />
    <glyph glyph-name="greater" unicode="&#x3e;" horiz-adv-x="1368" 
d="M250 179l19 149l833 432l-732 432l15 135l888 -526l-12 -98z" />
    <glyph glyph-name="question" unicode="?" horiz-adv-x="1020" 
d="M314 801.5q33 50.5 95.5 95.5t162.5 98q111 57 181 108t85 108q12 39 12 98q0 118 -53 196t-137.5 114.5t-180.5 36.5q-63 0 -112 -9.5t-103 -29.5l22 109q21 22 82 37.5t121 15.5q182 0 294 -65.5t159 -167.5t47 -219q0 -111 -47 -187.5t-113 -123.5t-172 -103
q-79 -42 -124.5 -72t-75.5 -71t-30 -94q0 -39 12 -75t36 -94l-98 -38l-13 1q-35 35 -59 94.5t-24 125.5q0 61 33 111.5zM540.5 179.5q21.5 -23.5 21.5 -62.5q0 -65 -31.5 -99.5t-88.5 -34.5q-39 0 -64 24t-25 64q0 56 33 94t87 38q46 0 67.5 -23.5z" />
    <glyph glyph-name="at" unicode="@" horiz-adv-x="1968" 
d="M1550 1464.5q154 -80.5 236.5 -228.5t82.5 -347q0 -260 -90.5 -461t-228 -310.5t-272.5 -109.5q-44 0 -65.5 27.5t-27.5 70t-6 107.5q0 39 9 107.5t23 140.5q-81 -195 -180 -325.5t-207 -130.5q-70 0 -134.5 45.5t-105.5 138.5t-41 228q0 158 60.5 314t183 258.5
t299.5 102.5q51 0 123 -14.5t110 -39.5l128 24q-30 -114 -62 -287.5t-52 -328.5q-9 -72 -14 -139t-5 -102q0 -27 9 -45.5t30 -18.5q89 0 182.5 104.5t154.5 272.5t61 347q0 304 -160 441.5t-430 137.5q-269 0 -479.5 -145.5t-327 -387.5t-116.5 -520q0 -244 89.5 -406.5
t241 -240t340.5 -77.5q68 0 146 13.5t144 33.5t99 38l26 -76q-69 -52 -183.5 -84t-242.5 -32q-226 0 -402 96.5t-275.5 280t-99.5 436.5q0 352 142 618.5t386 410t540 143.5q207 0 361 -80.5zM1005 254q88 132 165 323t112 349q-26 31 -88.5 50t-113.5 19
q-123 0 -213.5 -83.5t-138 -211t-47.5 -256.5q0 -151 44 -236t122 -86q70 0 158 132z" />
    <glyph glyph-name="A" unicode="A" horiz-adv-x="1265" 
d="M926 431h-614l-201 -431h-161l745 1530h168l289 -1530h-150zM906 546l-129 734l-15 115l-55 -119l-341 -730h540z" />
    <glyph glyph-name="B" unicode="B" horiz-adv-x="1240" 
d="M974.5 749q70.5 -41 113 -108t43.5 -151q3 -175 -82.5 -287.5t-237.5 -164.5t-353 -52q-30 0 -76 3t-63 4q-82 7 -128 7h-70l193 1530h68q46 0 148 8q104 8 161 8q243 0 345.5 -94.5t102.5 -243.5q0 -155 -85.5 -260.5t-234.5 -147.5q85 -10 155.5 -51zM378 848
q28 -2 92 -2l142 1q106 0 191.5 41t135 119.5t49.5 187.5q0 122 -77.5 184t-254.5 62q-29 0 -96 -4t-109 -9zM840.5 182q130.5 88 130.5 284q0 134 -92.5 203.5t-252.5 69.5q-158 0 -262 -6l-78 -619q28 -8 98 -14t107 -6q219 0 349.5 88z" />
    <glyph glyph-name="C" unicode="C" horiz-adv-x="1141" 
d="M969.5 1534q59.5 -12 126.5 -34l51 -16l-53 -126q-8 3 -45.5 20.5t-97.5 29.5t-133 12q-181 0 -306.5 -112.5t-186.5 -286.5t-61 -358q0 -156 40 -282t126.5 -201t218.5 -75q76 0 149 17t129 41.5t88 47.5l23 -128q-157 -98 -416 -98q-184 0 -298.5 96t-164 246.5
t-49.5 324.5q0 262 94 465.5t257 316t363 112.5q86 0 145.5 -12z" />
    <glyph glyph-name="D" unicode="D" horiz-adv-x="1377" 
d="M1200.5 432.5q-97.5 -212.5 -274.5 -333.5t-404 -115q-64 2 -113 7q-35 3 -102.5 6t-108.5 3h-77l193 1530h72q48 0 162 8q120 8 174 8q297 0 436.5 -170.5t139.5 -470.5q0 -260 -97.5 -472.5zM868.5 212q135.5 113 204.5 295.5t69 390.5q0 189 -46.5 306t-148 173.5
t-268.5 56.5q-93 0 -230 -19l-162 -1290q150 -26 255 -26q191 0 326.5 113z" />
    <glyph glyph-name="E" unicode="E" horiz-adv-x="1138" 
d="M1070 1530l-6 -120l-614 7l-73 -579l474 6l-9 -127l-479 11l-78 -614l737 13l-11 -127h-890l193 1530h756z" />
    <glyph glyph-name="F" unicode="F" horiz-adv-x="1057" 
d="M1093 1530l-11 -120l-632 7l-73 -582l508 8l-10 -130l-512 12l-92 -725h-150l193 1530h779z" />
    <glyph glyph-name="G" unicode="G" horiz-adv-x="1340" 
d="M802 729h430l-82 -635q-26 -3 -56 -10.5t-81 -22.5l-31 -9q-104 -32 -188 -50.5t-178 -18.5q-170 0 -282.5 92.5t-165.5 238.5t-56 313q-5 268 91.5 477.5t265.5 325.5t376 116q121 0 204 -15.5t159 -39.5l39 -12l-48 -137q-56 33 -145 57.5t-211 24.5
q-184 0 -315 -111.5t-197 -288.5t-66 -369q0 -146 38 -271t122.5 -204t217.5 -79q79 0 176.5 24t195.5 61l53 421l-281 1z" />
    <glyph glyph-name="H" unicode="H" horiz-adv-x="1410" 
d="M1340 1530l-192 -1530h-151l90 714h-726l-90 -714h-150l193 1530h150l-88 -701h726l88 701h150z" />
    <glyph glyph-name="I" unicode="I" horiz-adv-x="572" 
d="M489 1530l-193 -1530h-151l193 1530h151z" />
    <glyph glyph-name="J" unicode="J" horiz-adv-x="584" 
d="M501 1530q-54 -506 -111.5 -945t-79.5 -510q-39 -131 -105.5 -213t-151 -124t-194.5 -61l-28 68q93 25 163 79t112.5 122t57.5 139q42 198 75.5 463t75.5 660l35 322h151z" />
    <glyph glyph-name="K" unicode="K" horiz-adv-x="1245" 
d="M861 509q-8 14 93 -164l21 -37q72 -126 111.5 -191.5t76.5 -116.5h-181q-9 10 -43 70.5t-76 137.5l-74 136l-43 79q-128 236 -181 326l-231 -252l-63 -497h-150l193 1530h150l-104 -827l745 827h178l-622 -676q72 -116 200 -345z" />
    <glyph glyph-name="L" unicode="L" horiz-adv-x="978" 
d="M464 1530l-177 -1404l593 4l-16 -130h-743l193 1530h150z" />
    <glyph glyph-name="M" unicode="M" horiz-adv-x="1791" 
d="M646 1530l173 -1068l31 -236l92 234l460 1070h218l-44 -1530h-153l49 1022l24 409l-158 -361l-466 -1074l-107 -14l-170 1063l-50 386l-77 -394l-243 -1037h-153l380 1530h194z" />
    <glyph glyph-name="N" unicode="N" horiz-adv-x="1402" 
d="M472 1530l491 -1127l72 -207l21 238l134 1096h143l-193 -1530h-149l-494 1122l-72 239l-29 -288l-134 -1073h-141l193 1530h158z" />
    <glyph glyph-name="O" unicode="O" 
d="M204 1101.5q92 207.5 252.5 326.5t356.5 119q158 0 268 -87t164.5 -236t54.5 -332q0 -253 -89 -460.5t-247.5 -328t-358.5 -120.5q-157 0 -268.5 85t-168 233.5t-56.5 336.5q0 256 92 463.5zM1055 1284.5q-88 142.5 -266 142.5q-147 0 -266 -105t-186.5 -281t-67.5 -381
q0 -280 92.5 -420.5t267.5 -140.5q147 0 264.5 103t183.5 279t66 384q0 277 -88 419.5z" />
    <glyph glyph-name="P" unicode="P" horiz-adv-x="1180" 
d="M402 1530q55 0 155 8q98 8 152 8q224 0 340.5 -100t116.5 -305q0 -188 -78 -327t-217.5 -213.5t-318.5 -74.5q-107 0 -212 14l-69 -540h-150l193 1530h88zM895.5 774.5q118.5 129.5 118.5 373.5q0 141 -82 213t-246 72q-81 0 -237 -20l-94 -751q31 -6 89.5 -11.5
t103.5 -5.5q229 0 347.5 129.5z" />
    <glyph glyph-name="Q" unicode="Q" 
d="M775 -176.5q87 -43.5 224 -43.5q51 0 113 9t105 26v-117q-39 -26 -127.5 -41.5t-177.5 -15.5q-91 0 -167.5 33t-123 100t-46.5 162q0 22 3 48q-149 7 -254 93.5t-158.5 232t-53.5 328.5q0 256 92 463.5t252.5 326.5t356.5 119q158 0 268 -87t164.5 -235.5t54.5 -331.5
q0 -236 -77.5 -433.5t-217 -322t-318.5 -149.5q1 -121 88 -164.5zM361.5 239.5q92.5 -140.5 267.5 -140.5q147 0 264.5 103t183.5 279t66 384q0 277 -88 419.5t-266 142.5q-147 0 -266 -105t-186.5 -281t-67.5 -381q0 -280 92.5 -420.5z" />
    <glyph glyph-name="R" unicode="R" horiz-adv-x="1256" 
d="M898.5 530.5q54.5 -107.5 87.5 -193.5l32 -74q56 -131 81 -184t45 -80l-172 2q-36 57 -113 257q-61 175 -121.5 286t-122.5 112l-262 2l-82 -658h-151l192 1530h76q55 0 153 8t157 8q230 0 350.5 -93t120.5 -272q0 -122 -45 -225.5t-129 -175.5t-196 -102
q45 -40 99.5 -147.5zM832.5 827.5q83.5 50.5 128.5 141t45 206.5q0 255 -329 255q-36 0 -111.5 -5.5t-117.5 -10.5l-80 -635q34 -2 170 -2h98q113 0 196.5 50.5z" />
    <glyph glyph-name="S" unicode="S" horiz-adv-x="1044" 
d="M143.5 153q53.5 -22 124 -36.5t139.5 -14.5q97 0 178 29t130.5 90t49.5 153q0 99 -58.5 173.5t-184.5 155.5q-101 66 -169.5 122.5t-117 141t-48.5 193.5q0 120 59.5 207.5t163.5 133.5t235 46q226 0 346 -85l-48 -116q-41 41 -121.5 63t-166.5 22q-124 0 -220.5 -55.5
t-96.5 -196.5q0 -82 33 -142t86.5 -104t153.5 -110q96 -63 159 -115.5t107.5 -129.5t44.5 -176q0 -134 -67 -228t-184.5 -142t-266.5 -48q-80 0 -158 14t-135.5 35t-81.5 40l42 123q19 -21 72.5 -43z" />
    <glyph glyph-name="T" unicode="T" horiz-adv-x="1122" 
d="M138 1410l17 120h1044l-17 -120l-443 9l-179 -1419h-150l179 1419z" />
    <glyph glyph-name="U" unicode="U" horiz-adv-x="1360" 
d="M285 1530h150l-115 -911q-12 -97 -12 -174q0 -162 78.5 -250.5t236.5 -88.5q125 0 212 53t142 170.5t80 310.5l112 890h147l-114 -903q-30 -234 -105.5 -375.5t-197 -205t-297.5 -63.5q-219 0 -333.5 117.5t-114.5 333.5q0 49 12 159z" />
    <glyph glyph-name="V" unicode="V" horiz-adv-x="1169" 
d="M304 1530l168 -1096l39 -282l115 282l478 1096h160l-695 -1534l-161 -1l-254 1535h150z" />
    <glyph glyph-name="W" unicode="W" horiz-adv-x="1770" 
d="M1867 1530l-647 -1540h-154l-89 860l-18 236l-84 -236l-340 -860h-155l-231 1540h150l146 -1096l40 -268l86 259l353 879l-24 226h144l109 -1096l20 -268l99 259l443 1105h152z" />
    <glyph glyph-name="X" unicode="X" horiz-adv-x="1147" 
d="M197 1530h166l255 -635l424 635h170l-536 -772l348 -758h-172l-274 656l-430 -656h-183l555 788z" />
    <glyph glyph-name="Y" unicode="Y" horiz-adv-x="1083" 
d="M105 1530h161l261 -710l41 -103l55 102l428 711h162l-592 -945l-75 -585h-144l76 585z" />
    <glyph glyph-name="Z" unicode="Z" horiz-adv-x="1157" 
d="M837 1227l151 186l-744 -11l16 128h903l19 -66l-843 -1195l-124 -148l812 9l-21 -130h-970l-21 70z" />
    <glyph glyph-name="bracketleft" unicode="[" horiz-adv-x="854" 
d="M435 1635q18 40 52.5 57.5t95.5 17.5q68 0 229 -29q14 -2 27.5 -4.5t22.5 -3.5l-9 -66h-292l-230 -1675l296 -2l-7 -66q-69 -16 -148.5 -26t-147.5 -10q-72 0 -101 23.5t-29 84.5q0 38 3 85q7 117 41 356t94 632q63 414 75 510q10 76 28 116z" />
    <glyph glyph-name="backslash" unicode="\" horiz-adv-x="854" 
d="M178 1597h-132l576 -1959h133z" />
    <glyph glyph-name="bracketright" unicode="]" horiz-adv-x="854" 
d="M482 -79q-18 -40 -52.5 -57.5t-95.5 -17.5q-68 0 -229 29q-14 2 -27.5 4.5t-22.5 3.5l9 66h292l230 1675l-296 2l7 66q69 16 148.5 26t147.5 10q72 0 101 -23.5t29 -84.5q0 -38 -3 -85q-7 -117 -41 -356t-94 -632q-63 -414 -75 -510q-10 -76 -28 -116z" />
    <glyph glyph-name="asciicircum" unicode="^" horiz-adv-x="1358" 
d="M857 1530l267 -1020h-131l-226 875l-446 -875h-135l518 1020h153z" />
    <glyph glyph-name="underscore" unicode="_" horiz-adv-x="1335" 
d="M1267 -338h-1378l15 115h1378z" />
    <glyph glyph-name="grave" unicode="`" horiz-adv-x="541" 
d="M187 1701l294 -397l-65 -55q-48 33 -119 97.5t-134 134t-91 116.5z" />
    <glyph glyph-name="a" unicode="a" horiz-adv-x="1130" 
d="M1041 1156l-157 -1156h-131l19 202v3q-63 -91 -161 -156t-212 -65q-158 0 -238 115.5t-80 315.5q0 169 70.5 340.5t213.5 286t349 114.5q47 0 105 -10t109 -26zM574 143.5q72 43.5 127 105.5t90 123l20 185l64 451q-39 18 -88 28t-97 10q-143 0 -246 -93t-156 -235
t-53 -285q0 -166 48 -249.5t141 -83.5q78 0 150 43.5z" />
    <glyph glyph-name="b" unicode="b" horiz-adv-x="1159" 
d="M980 1040q80 -116 80 -317q0 -168 -72.5 -339.5t-217.5 -285.5t-351 -114q-55 0 -122.5 13t-117.5 31l-84 -26l218 1635h141l-58 -490l-35 -208q65 89 165.5 153t215.5 64q158 0 238 -116zM695 189q105 95 158 237.5t53 279.5q0 166 -48.5 250t-141.5 84
q-76 0 -147.5 -40t-128 -98.5t-92.5 -116.5l-88 -656q38 -16 87 -25.5t96 -9.5q147 0 252 95z" />
    <glyph glyph-name="c" unicode="c" horiz-adv-x="911" 
d="M783 1145.5q60 -10.5 100 -30.5l-39 -128q-36 29 -86.5 43t-107.5 14q-107 0 -201 -82t-151 -219.5t-57 -294.5q0 -179 60.5 -264.5t181.5 -85.5q80 0 146.5 37.5t139.5 109.5l50 -82q-51 -67 -144.5 -123t-213.5 -56q-180 0 -276 119t-96 330q0 166 67.5 334t198 278.5
t309.5 110.5q59 0 119 -10.5z" />
    <glyph glyph-name="d" unicode="d" horiz-adv-x="1149" 
d="M1114 1637l-224 -1637h-132l20 208q-64 -92 -165 -158t-216 -66q-158 0 -238 116t-80 316q0 168 72 340t217 286t351 114q77 0 177 -25l70 506h148zM570.5 141.5q71.5 41.5 127.5 101.5t93 120l89 648q-40 17 -88.5 26.5t-95.5 9.5q-146 0 -251 -95.5t-158.5 -238
t-53.5 -279.5q0 -166 49 -250t141 -84q76 0 147.5 41.5z" />
    <glyph glyph-name="e" unicode="e" horiz-adv-x="1031" 
d="M834.5 1123.5q62.5 -32.5 93.5 -89t31 -128.5q0 -152 -121 -254t-286.5 -152t-304.5 -57q-1 -11 -1 -33q0 -130 57.5 -219t192.5 -89q84 0 174.5 43t173.5 127l43 -86q-32 -44 -92.5 -91t-143 -79t-172.5 -32q-137 0 -225.5 65t-127.5 168.5t-36 223.5q5 199 81 362
t208.5 258t300.5 95q92 0 154.5 -32.5zM767.5 1006q-42.5 37 -119.5 37q-106 0 -192.5 -73.5t-139.5 -187.5t-64 -232q119 4 250 47.5t219.5 120t88.5 175.5q0 76 -42.5 113z" />
    <glyph glyph-name="f" unicode="f" horiz-adv-x="695" 
d="M152 1021l22 118l146 1l18 124q16 124 67.5 217t136 145t196.5 52q44 0 80.5 -5.5t70.5 -20.5l-38 -121q-47 32 -132 31q-61 0 -109.5 -35t-79.5 -94t-40 -131l-21 -162h243l-9 -119h-250l-138 -1021h-148l137 1021h-152z" />
    <glyph glyph-name="g" unicode="g" horiz-adv-x="1149" 
d="M1055 1156l-176 -1245q-21 -148 -102 -241.5t-188.5 -134t-217.5 -40.5q-65 0 -145.5 11t-110.5 24l38 126q46 -21 111 -34.5t135 -13.5q137 0 221 77.5t110 222.5l48 300q-64 -92 -165 -158t-216 -66q-158 0 -238 116t-80 316q0 168 72 340t217 286t351 114
q49 0 109 -10.5t111 -25.5zM884 1010q-40 17 -90 26.5t-98 9.5q-146 0 -251 -95.5t-158.5 -237.5t-53.5 -279q0 -166 49 -250t141 -84q74 0 145 40t126.5 98.5t93.5 119.5z" />
    <glyph glyph-name="h" unicode="h" horiz-adv-x="1198" 
d="M1007.5 1087q54.5 -69 54.5 -213q0 -47 -11 -134.5t-31 -226.5q-7 -50 -56 -368l-22 -145h-149q8 60 50 336q20 123 27 176q21 143 31 221t10 129q0 83 -31 119.5t-108 36.5q-63 0 -142.5 -42t-155.5 -110.5t-131 -144.5l-98 -721h-148l211 1637h148l-55 -479l-44 -288
q95 122 223.5 204t251.5 82q121 0 175.5 -69z" />
    <glyph glyph-name="i" unicode="i" horiz-adv-x="564" 
d="M436 1144l-155 -1144h-148l154 1144h149zM332.5 1582q15.5 28 41 44.5t54.5 16.5q42 0 67 -24.5t25 -63.5q0 -34 -16 -63t-43 -46t-58 -17q-37 0 -61.5 25.5t-24.5 65.5q0 34 15.5 62z" />
    <glyph glyph-name="j" unicode="j" horiz-adv-x="576" 
d="M444 1144l-153 -1139q-33 -249 -135.5 -384.5t-263.5 -135.5q-45 0 -80 11t-56 27l40 86q10 -8 32.5 -14t42.5 -6q90 0 145 59t84 159t49 252l146 1085h149zM321.5 1582q15.5 28 41 44.5t54.5 16.5q42 0 67 -24.5t25 -63.5q0 -34 -16 -63t-43 -46t-58 -17
q-37 0 -61.5 25.5t-24.5 65.5q0 34 15.5 62z" />
    <glyph glyph-name="k" unicode="k" horiz-adv-x="1023" 
d="M453 1637l-207 -1637h-149l208 1637h148zM732.5 720.5q-95.5 -70.5 -185.5 -114.5l420 -603h-173l-419 625l1 1h-1q111 63 193.5 120.5t140.5 126.5q106 121 151 264h143q-11 -129 -112 -264q-63 -85 -158.5 -155.5z" />
    <glyph glyph-name="l" unicode="l" horiz-adv-x="563" 
d="M504 1637l-222 -1634h-149l223 1634h148z" />
    <glyph glyph-name="m" unicode="m" horiz-adv-x="1782" 
d="M1593 1089.5q56 -66.5 56 -217.5q0 -92 -42 -360q-12 -90 -43 -284l-34 -225h-150q14 100 49 328q28 179 28 181q40 255 40 351q0 82 -30.5 118.5t-105.5 36.5q-74 0 -172 -65.5t-177 -161.5q-7 -74 -33 -250l-4 -28q-4 -32 -58 -388l-19 -122h-149q17 124 51 341l25 168
q21 141 31 220.5t10 130.5q0 83 -30.5 119.5t-104.5 36.5q-58 0 -130.5 -41.5t-142 -109t-119.5 -142.5l-98 -723h-148l155 1137h141l-28 -253q87 116 203 192.5t228 76.5q107 0 161.5 -56.5t62.5 -173.5q86 101 193 165.5t212 64.5q116 0 172 -66.5z" />
    <glyph glyph-name="n" unicode="n" horiz-adv-x="1194" 
d="M1005.5 1087.5q54.5 -68.5 54.5 -211.5q0 -48 -11 -136t-31 -227q-15 -107 -43 -286l-34 -224h-149q17 124 51 341l25 168q21 141 31 220.5t10 130.5q0 83 -31.5 119t-108.5 36q-64 0 -144 -43t-156.5 -112.5t-130.5 -146.5l-97 -713h-148l154 1137h141l-29 -265
q95 121 222 201t249 80q121 0 175.5 -68.5z" />
    <glyph glyph-name="o" unicode="o" horiz-adv-x="1135" 
d="M940.5 1033q94.5 -123 94.5 -351q0 -179 -71 -340t-197.5 -259.5t-285.5 -98.5q-188 0 -285.5 123.5t-97.5 350.5q0 179 72.5 340t201 259.5t287.5 98.5q187 0 281.5 -123zM706.5 184.5q84.5 87.5 128.5 222.5t44 274q0 176 -58.5 269.5t-185.5 93.5q-118 0 -205 -87
t-132.5 -222t-45.5 -274q0 -176 63 -270t190 -94q117 0 201.5 87.5z" />
    <glyph glyph-name="p" unicode="p" horiz-adv-x="1162" 
d="M977 1040q80 -116 80 -317q0 -170 -72 -341t-217.5 -284.5t-351.5 -113.5q-73 0 -173 25l-69 -524h-148l219 1655h134l-22 -205q64 90 165 155.5t217 65.5q158 0 238 -116zM688 186.5q105 92.5 159.5 234.5t54.5 285q0 169 -50 251.5t-139 82.5q-76 0 -148 -40.5
t-128 -100t-92 -119.5l-86 -650q39 -17 87 -26.5t94 -9.5q143 0 248 92.5z" />
    <glyph glyph-name="q" unicode="q" horiz-adv-x="1146" 
d="M1043 1160l-221 -1667h-148l78 580l24 132q-65 -91 -164.5 -156t-214.5 -65q-158 0 -238 116t-80 316q0 168 72 340t217 286t351 114q46 0 100.5 -9.5t103.5 -23.5zM573 143q73 43 130 105t92 122l8 88q5 59 8 84l63 469q-38 16 -85 25.5t-93 9.5q-143 0 -248 -92.5
t-160 -234.5t-55 -285q0 -169 50.5 -251.5t139.5 -82.5q77 0 150 43z" />
    <glyph glyph-name="r" unicode="r" horiz-adv-x="778" 
d="M806 1143l-33 -158q-27 13 -92 13q-56 0 -123 -40.5t-128 -113t-98 -164.5l-91 -680h-148l153 1140h140l-26 -251q30 60 87 122t134 103.5t161 41.5q50 0 64 -13z" />
    <glyph glyph-name="s" unicode="s" horiz-adv-x="872" 
d="M187.5 122.5q72.5 -25.5 159.5 -25.5q104 0 169 44t65 131q0 47 -21.5 85t-53 67.5t-87.5 72.5q-10 7 -30 23q-71 56 -114 97.5t-72.5 100.5t-29.5 136q0 96 51 164t136.5 103t189.5 35q83 0 153.5 -14t100.5 -30l-29 -140q-8 11 -38 28t-79 30.5t-108 13.5
q-108 0 -171 -46.5t-63 -124.5q0 -52 21 -93t52.5 -70t82.5 -68l18 -14l17 -13q65 -49 110.5 -91t78.5 -102t33 -133q0 -98 -50 -167t-138.5 -103.5t-201.5 -34.5q-94 0 -180 19.5t-114 44.5l28 130q42 -30 114.5 -55.5z" />
    <glyph glyph-name="t" unicode="t" horiz-adv-x="739" 
d="M271 1021h-135l31 118l127 1l56 279h126l-36 -279h291l-18 -119h-290l-87 -659l-5 -34q-1 -10 -6 -48.5t-5 -60.5q0 -52 17 -84t62 -32q43 0 111.5 35t107.5 66l20 -84q-21 -26 -71.5 -58t-111.5 -55t-114 -23q-84 0 -129.5 43.5t-45.5 128.5q0 37 12 134z" />
    <glyph glyph-name="u" unicode="u" horiz-adv-x="1173" 
d="M1070 1140l-152 -1140h-138l29 262q-87 -121 -204.5 -201t-236.5 -80q-130 0 -192.5 66t-62.5 219q0 40 6.5 100t19.5 168q28 218 85 606h149l-25 -181q-47 -336 -59 -426t-18 -150.5t-6 -106.5q0 -65 18 -101t51.5 -50t87.5 -14q62 0 137 43t145.5 113t121.5 148l95 725
h149z" />
    <glyph glyph-name="v" unicode="v" horiz-adv-x="1007" 
d="M114 1140h165l82 -786l22 -238l167 209q74 106 121.5 187.5t83 174.5t55.5 205q9 53 17.5 123.5t8.5 106.5q0 13 -1 18h142q4 -44 4 -76q0 -16 -2 -60q-14 -201 -119.5 -409t-257.5 -389l-181 -210l-135 -10l-58 368z" />
    <glyph glyph-name="w" unicode="w" horiz-adv-x="1633" 
d="M1583 1082q0 -11 -2 -63q-9 -143 -59.5 -297.5t-130.5 -297.5t-178 -253l-153 -175l-136 -10l-57 368l-37 253q-52 -123 -116.5 -236t-136.5 -195l-150 -180l-135 -10l-57 368l-117 786h166l84 -786l21 -237l135 177q210 290 270 560l-42 286h163l86 -786l23 -238
l136 174q110 146 169 285t81 317l6 42q1 12 10 81t9 107q0 13 -1 18h146q3 -30 3 -58z" />
    <glyph glyph-name="x" unicode="x" horiz-adv-x="949" 
d="M538 573l283 -570h-174l-202 472l-328 -472h-160l437 588l-261 549h178l176 -449l316 449h163z" />
    <glyph glyph-name="y" unicode="y" horiz-adv-x="1048" 
d="M986 1067q0 -17 -2 -61q-10 -177 -84 -382t-183 -408q-57 -105 -128 -216t-135 -189q-70 -89 -133 -152.5t-157.5 -112t-213.5 -48.5q-36 0 -77 9t-73 21l43 124l22 -11t47 -15t63 -6q106 0 207.5 73t222.5 251h-93l-62 355l-127 841h164l109 -841l43 -301l131 225
q115 192 182 392.5t81 389.5q3 53 3 91l-1 44h147q4 -42 4 -73z" />
    <glyph glyph-name="z" unicode="z" horiz-adv-x="963" 
d="M170 119h642l-11 -119h-776l-46 46l621 792l168 183h-584l17 119h723l36 -41l-648 -828z" />
    <glyph glyph-name="braceleft" unicode="{" horiz-adv-x="1024" 
d="M335 657q-73 44 -173 71l14 97q134 35 199 65q71 31 79 78l82 551q12 77 31 117.5t53 57t95 16.5q40 0 98.5 -8t105.5 -16.5t60 -11.5q-2 -8 -6 -33t-4 -34h-276l-96 -638q-6 -40 -32.5 -70.5t-75.5 -54.5q-29 -14 -88 -39.5t-74 -28.5q107 -49 155 -88q55 -42 55 -95
q0 -11 -1 -17l-94 -631h275q-2 -15 -5 -37t-4 -31q-81 -19 -140 -27.5t-134 -8.5q-50 0 -77.5 10t-40 33.5t-11.5 67.5q0 13 38 272.5t52 354.5q3 41 -60 78z" />
    <glyph glyph-name="bar" unicode="|" horiz-adv-x="854" 
d="M506 1780v-1966h-131v1966h131z" />
    <glyph glyph-name="braceright" unicode="}" horiz-adv-x="1024" 
d="M737 889q73 -44 173 -71l-14 -97q-134 -35 -199 -65q-71 -31 -79 -78l-82 -551q-12 -77 -31 -117.5t-53 -57t-95 -16.5q-40 0 -98.5 8t-105.5 16.5t-60 11.5q2 8 6 33t4 34h276l96 638q6 40 32.5 70.5t75.5 54.5q29 14 88 39.5t74 28.5q-107 49 -155 88q-55 42 -55 95
q0 11 1 17l94 631h-275q2 15 5 37t4 31q81 19 140 27.5t134 8.5q50 0 77.5 -10t40 -33.5t11.5 -67.5q0 -13 -38 -272.5t-52 -354.5q-3 -41 60 -78z" />
    <glyph glyph-name="asciitilde" unicode="~" horiz-adv-x="1137" 
d="M198 932q44 46 108 77.5t136 31.5q53 0 95.5 -24t96.5 -70q48 -40 80.5 -59.5t71.5 -19.5q69 0 121.5 37t88.5 93l56 -57q-15 -48 -57 -94.5t-104 -76t-134 -29.5q-54 0 -96 24t-97 71q-48 40 -80.5 59.5t-70.5 19.5q-66 0 -122 -33.5t-96 -94.5l-55 57q14 42 58 88z" />
    <glyph glyph-name="uni00A0" unicode="&#xa0;" horiz-adv-x="485" 
 />
    <glyph glyph-name="exclamdown" unicode="&#xa1;" horiz-adv-x="621" 
d="M319.5 1163q-22.5 22 -22.5 60q0 13 1 20q8 55 46 86.5t90 31.5q39 0 64.5 -22.5t25.5 -62.5q0 -38 -19 -69t-50.5 -48.5t-66.5 -17.5q-46 0 -68.5 22zM84 -434l215 1290h120l-163 -1290h-172z" />
    <glyph glyph-name="cent" unicode="&#xa2;" horiz-adv-x="1057" 
d="M500 962q-94 -82 -151 -219.5t-57 -294.5q0 -179 60.5 -264.5t181.5 -85.5q80 0 146.5 37.5t139.5 109.5l50 -82q-50 -64 -139 -119t-204 -60l-37 -199h-115l39 209q-133 31 -203.5 145t-70.5 294q0 152 56.5 307.5t167.5 268.5t264 140l50 209h116l-50 -203
q52 -2 103.5 -12t86.5 -28l-39 -128q-36 29 -86.5 43t-107.5 14q-107 0 -201 -82z" />
    <glyph glyph-name="sterling" unicode="&#xa3;" horiz-adv-x="1368" 
d="M1220.5 467.5q36.5 -69.5 36.5 -149.5q0 -139 -98 -241t-352 -102q-123 0 -225 24t-225 67l-81 27q-34 -43 -92.5 -75.5t-109.5 -32.5q-60 0 -60 54q0 12 1 18q4 28 38.5 60t81.5 54t87 22q45 36 74.5 120t43.5 175l44 263h-187l14 100h190l22 129q23 153 88.5 280.5
t176.5 206t265 78.5q95 0 155 -16.5t105 -64.5l-71 -107q-21 30 -77 55t-133 25q-76 0 -146.5 -47t-126 -149t-81.5 -259l-23 -131h328l-13 -100h-333l-20 -112q-20 -122 -37 -197t-43 -137t-69 -124q29 -8 85 -28q96 -33 172 -51.5t163 -18.5q161 0 236.5 60.5t75.5 168.5
q0 55 -28 106.5t-68 77.5l119 91q61 -50 97.5 -119.5z" />
    <glyph glyph-name="currency" unicode="&#xa4;" horiz-adv-x="1514" 
d="M1183 550q-23 -67 -65 -123l192 -192l-87 -86l-191 191q-57 -42 -124.5 -65t-141.5 -23q-70 0 -136 21.5t-122 60.5l-191 -191l-87 86l190 190q-45 57 -69.5 126.5t-24.5 144.5t24 143.5t68 124.5l-191 191l87 87l192 -193q55 41 121.5 63t138.5 22q76 0 145 -24.5
t127 -68.5l187 188l87 -87l-189 -189q40 -55 61.5 -120.5t21.5 -136.5q0 -73 -23 -140zM930 399.5q75 45.5 118.5 122.5t43.5 168t-43.5 168t-118.5 122.5t-164 45.5q-88 0 -163 -45.5t-119 -122.5t-44 -168t44 -168t119 -122.5t163 -45.5q89 0 164 45.5z" />
    <glyph glyph-name="yen" unicode="&#xa5;" horiz-adv-x="1483" 
d="M896 837h377l-13 -101h-427l-30 -254h425l-12 -100h-424l-45 -382h-134l44 382h-420l13 100h418l29 254h-415l13 101h369l-337 693h147l272 -574l49 -118l75 124l393 568h149z" />
    <glyph glyph-name="brokenbar" unicode="&#xa6;" horiz-adv-x="854" 
d="M506 1780v-894h-131v894h131zM506 708v-894h-131v894h131z" />
    <glyph glyph-name="section" unicode="&#xa7;" horiz-adv-x="1194" 
d="M1044 182q0 -118 -71.5 -201t-193.5 -125t-271 -42q-82 0 -160.5 20t-136.5 48t-83 53l43 116q24 -28 78 -55.5t124 -45t137 -17.5q161 0 269.5 51.5t108.5 169.5q0 52 -35.5 94t-101.5 78.5t-172 77.5q-169 67 -273 164t-104 247q0 163 186 251q-146 120 -146 281
q0 103 67 177t180 111.5t249 37.5q129 0 216 -31.5t136 -73.5l-48 -116q-40 50 -133 77.5t-181 27.5q-86 0 -160 -23t-119.5 -68t-48.5 -108q-3 -77 32.5 -128.5t96 -87.5t179.5 -91q5 -2 12 -5.5t16 -7.5q161 -72 258 -161t97 -218q0 -90 -36.5 -159.5t-105.5 -123.5
q95 -84 95 -194zM392 703.5q35 -52.5 96.5 -89t180.5 -90.5q112 -44 175 -78q41 34 65.5 82.5t24.5 110.5q0 55 -27.5 100.5t-89.5 89t-168 90.5q-95 41 -167 82q-54 -27 -86.5 -70t-34.5 -97q-4 -78 31 -130.5z" />
    <glyph glyph-name="dieresis" unicode="&#xa8;" horiz-adv-x="809" 
d="M110.5 1562q15.5 28 41.5 44.5t55 16.5q41 0 66 -24.5t25 -63.5q0 -52 -34.5 -88.5t-82.5 -36.5q-36 0 -61 25.5t-25 64.5q0 34 15.5 62zM531.5 1562q15.5 28 41.5 44.5t55 16.5q41 0 66 -24.5t25 -63.5q0 -52 -34.5 -88.5t-82.5 -36.5q-36 0 -61 25.5t-25 64.5
q0 34 15.5 62z" />
    <glyph glyph-name="copyright" unicode="&#xa9;" horiz-adv-x="2061" 
d="M1459.5 1670q192.5 -113 305 -307t112.5 -425t-112.5 -425.5t-305.5 -308.5t-423 -114t-422.5 114t-305 308.5t-112.5 425.5t112 425t305 307t423 113q231 0 423.5 -113zM1407.5 290.5q167.5 100.5 263.5 272t96 375.5q0 203 -96 375t-263.5 272.5t-371.5 100.5
t-371 -100.5t-263 -272.5t-96 -375q0 -204 96 -375.5t263 -272t371 -100.5t371.5 100.5zM1317 1362l-27 -125q-40 25 -96 40t-123 15q-99 0 -170 -46t-108.5 -125.5t-37.5 -177.5q0 -113 38.5 -193t105.5 -121t153 -41q73 0 140 19t115 48l36 -95q-49 -41 -133 -67t-178 -26
q-129 0 -225.5 63.5t-148 170t-51.5 231.5q-1 137 55 246t164.5 172t258.5 63q127 0 232 -51z" />
    <glyph glyph-name="ordfeminine" unicode="&#xaa;" horiz-adv-x="854" 
d="M855 1569l-146 -826h-128l27 140q-51 -61 -114.5 -100.5t-150.5 -39.5q-117 0 -178 78.5t-61 218.5q0 129 66.5 253.5t182 204t255.5 79.5q42 0 87.5 -8.5t81.5 -20.5zM506 873q58 39 107 92l85 494q-21 18 -51.5 28.5t-56.5 10.5q-100 0 -180.5 -66.5t-126 -170.5
t-45.5 -210t36.5 -161.5t120.5 -55.5q53 0 111 39z" />
    <glyph glyph-name="guillemotleft" unicode="&#xab;" horiz-adv-x="1878" 
d="M960 1086l29 -89l-556 -383l452 -377l-53 -85l-583 399l16 120zM1636 1086l29 -89l-556 -383l452 -377l-53 -85l-583 399l16 120z" />
    <glyph glyph-name="logicalnot" unicode="&#xac;" horiz-adv-x="1370" 
d="M1186 835l-60 -513h-134l47 396h-826l13 117h960z" />
    <glyph glyph-name="registered" unicode="&#xae;" horiz-adv-x="2061" 
d="M1459.5 1670q192.5 -113 305 -307t112.5 -425t-112.5 -425.5t-305.5 -308.5t-423 -114t-422.5 114t-305 308.5t-112.5 425.5t112 425t305 307t423 113q231 0 423.5 -113zM1407.5 290.5q167.5 100.5 263.5 272t96 375.5q0 203 -96 375t-263.5 272.5t-371.5 100.5
t-371 -100.5t-263 -272.5t-96 -375q0 -204 96 -375.5t263 -272t371 -100.5t371.5 100.5zM792 1404q50 0 112 3q126 3 142 3q116 0 194.5 -34t116 -93.5t37.5 -134.5q0 -113 -50.5 -189t-162.5 -101q43 -30 73.5 -77t70.5 -124q7 -12 19 -36q29 -53 94 -154l-156 1
q-20 27 -36 57t-39 80q-35 74 -55.5 111.5t-52.5 73t-73 49.5q-19 -1 -158 -1v-371h-136v937h60zM1253 1131q0 84 -51.5 130.5t-177.5 46.5q-93 0 -156 -9v-359q14 -1 73 -2t93 -1q219 1 219 194z" />
    <glyph glyph-name="macron" unicode="&#xaf;" horiz-adv-x="614" 
d="M560 1548l-5 -114h-509l4 114h510z" />
    <glyph glyph-name="degree" unicode="&#xb0;" horiz-adv-x="899" 
d="M190.5 1439.5q43.5 74.5 120 117.5t171.5 43q90 0 163 -42t114.5 -114.5t41.5 -158.5q0 -93 -44.5 -168.5t-121.5 -118.5t-172 -43q-88 0 -160.5 43t-114 116t-41.5 159q0 92 43.5 166.5zM664.5 1398q-28.5 51 -77.5 80t-109 29q-64 0 -115 -30.5t-79.5 -84t-28.5 -119.5
q0 -62 28 -113.5t77 -81.5t108 -30q65 0 116.5 31t80 85t28.5 121q0 62 -28.5 113z" />
    <glyph glyph-name="plusminus" unicode="&#xb1;" horiz-adv-x="1366" 
d="M629 717l-161 -5h-225l14 121h225l159 -9q8 84 9 93q2 21 4.5 44t3.5 44l27 230h136l-26 -230l-30 -180l133 8h256l-14 -121h-256l-130 5q-1 -20 -7 -90q-6 -55 -8 -91l-29 -241h-138l29 241zM1054 145l-13 -115h-869l13 115h869z" />
    <glyph glyph-name="acute" unicode="&#xb4;" horiz-adv-x="559" 
d="M366 1704l115 -104q-20 -34 -84.5 -105.5t-141.5 -141.5t-134 -104l-63 55z" />
    <glyph glyph-name="uni00B5" unicode="&#xb5;" horiz-adv-x="1354" 
d="M130 -372l188 1266q5 33 5 55q0 59 -30 59q-48 0 -105 -57l-50 88q12 17 43 42.5t79.5 47t105.5 21.5q51 0 81.5 -34.5t30.5 -102.5q0 -22 -3 -46q-6 -49 -41 -300t-48 -340q-1 -10 -1 -29q0 -96 54 -139.5t137 -43.5q56 0 115 28.5t109 70.5t83 83l118 843h148
l-124 -915q-3 -22 -3 -41q0 -32 10 -51t30 -19q54 0 124 82l49 -85q-12 -18 -44 -48.5t-80 -56t-102 -25.5q-61 0 -97 38.5t-35 116.5q-70 -72 -147.5 -113.5t-194.5 -41.5q-40 1 -81.5 15.5t-72.5 41.5t-40 62l-70 -472h-141z" />
    <glyph glyph-name="paragraph" unicode="&#xb6;" horiz-adv-x="1364" 
d="M338 818.5q-84 41.5 -130.5 120.5t-46.5 190q0 208 134 325t417 117q118 0 244 -12q82 -7 132 -7h240l-8 -80l-170 -25q-26 -225 -91 -730q-56 -432 -90 -717h-145l178 1446q-16 1 -114 3t-123 1l-188 -1450h-147l104 774q-112 3 -196 44.5z" />
    <glyph glyph-name="periodcentered" unicode="&#xb7;" horiz-adv-x="686" 
d="M431.5 826q21.5 -24 21.5 -65q0 -63 -32.5 -97t-88.5 -34q-38 0 -63.5 24.5t-25.5 65.5q0 55 33.5 92.5t87.5 37.5q46 0 67.5 -24z" />
    <glyph glyph-name="cedilla" unicode="&#xb8;" horiz-adv-x="479" 
d="M365 22q47 -74 47 -203q0 -151 -72 -217.5t-191 -66.5q-41 0 -85.5 8.5t-60.5 20.5l20 115q34 -18 88 -18q170 0 170 193q0 116 -16 168l59 4z" />
    <glyph glyph-name="ordmasculine" unicode="&#xba;" horiz-adv-x="854" 
d="M165 1359.5q64 111.5 164.5 170.5t204.5 59q99 0 173 -47t114 -131t40 -192q0 -149 -61.5 -259.5t-160.5 -168.5t-210 -58q-91 0 -166 45t-118.5 128.5t-43.5 193.5q0 148 64 259.5zM671.5 1418q-47.5 80 -140.5 80q-89 0 -155 -56.5t-100.5 -145t-34.5 -183.5
q0 -86 24 -150t67 -99t99 -35q95 0 160 53t96.5 138.5t31.5 185.5q0 132 -47.5 212z" />
    <glyph glyph-name="guillemotright" unicode="&#xbb;" horiz-adv-x="1878" 
d="M255 152l-29 89l556 383l-452 377l53 85l583 -399l-16 -120zM931 152l-29 89l556 383l-452 377l53 85l583 -399l-16 -120z" />
    <glyph glyph-name="onequarter" unicode="&#xbc;" horiz-adv-x="2513" 
d="M743 1628l-138 -992h-142l115 819q-12 -9 -111.5 -36.5t-115.5 -31.5l-63 -18l-5 95q65 17 150 52t157 71.5t97 57.5zM1498 1530l-681 -1530h-123l681 1530h123zM2263 171h-265l-47 -348h-156l49 348h-525l-28 74l610 867h38l101 -78l-583 -754l404 12l39 280l155 18
l-40 -293l263 8z" />
    <glyph glyph-name="onehalf" unicode="&#xbd;" horiz-adv-x="2513" 
d="M466.5 1418.5q-99.5 -27.5 -115.5 -31.5l-63 -18l-5 95q65 17 150 52t157 71.5t97 57.5l56 -17l-138 -992h-142l115 819q-12 -9 -111.5 -36.5zM1498 1530l-681 -1530h-123l681 1530h123zM1676 203.5q140 91.5 262 215.5t122 238q0 85 -60 131.5t-163 46.5
q-94 0 -180 -40.5t-155 -111.5l-54 72q33 45 94 90.5t143 76t173 30.5q111 0 190 -39t118.5 -98t39.5 -118q0 -130 -76 -237.5t-188 -190.5t-302 -199l-50 -31l602 25l-5 -122h-782l-35 75q166 95 306 186.5z" />
    <glyph glyph-name="threequarters" unicode="&#xbe;" horiz-adv-x="2513" 
d="M825 689.5q-73 -79.5 -186 -119t-236 -39.5q-62 0 -145 18.5t-136 52.5l14 84q49 -27 118.5 -41t126.5 -14q86 0 169 26t138.5 83.5t55.5 146.5q0 47 -23 85.5t-67.5 62t-106.5 23.5q-15 -4 -39 -10l-48 -12l-96 -24l16 111q168 40 267 104.5t99 172.5q0 63 -42.5 99.5
t-137.5 36.5q-84 0 -157 -26.5t-144 -73.5l-35 87q175 121 385 121q93 0 161 -28t103.5 -76t35.5 -106q0 -106 -74 -184.5t-191 -122.5q96 0 152.5 -39.5t79 -95.5t20.5 -108q-4 -115 -77 -194.5zM1534 1530l-681 -1530h-123l681 1530h123zM2263 171h-265l-47 -348h-156
l49 348h-525l-28 74l610 867h38l101 -78l-583 -754l404 12l39 280l155 18l-40 -293l263 8z" />
    <glyph glyph-name="questiondown" unicode="&#xbf;" horiz-adv-x="1028" 
d="M550.5 1395.5q31.5 34.5 88.5 34.5q39 0 64 -24t25 -65q0 -56 -33 -93.5t-87 -37.5q-45 0 -67 23.5t-22 63.5q0 64 31.5 98.5zM715 -233.5q49 9.5 102 29.5l-22 -109q-21 -22 -82 -37.5t-121 -15.5q-182 0 -294 65.5t-159 167t-47 218.5q0 111 47 187.5t113.5 124
t171.5 102.5q80 43 125 72.5t75 70.5t30 95q0 38 -12.5 75.5t-35.5 93.5l98 38l14 -1q35 -35 59 -95t24 -125q0 -61 -33 -111.5t-96 -95.5t-163 -98q-110 -56 -180.5 -107.5t-85.5 -108.5q-12 -39 -12 -98q0 -118 53 -196t137.5 -114.5t180.5 -36.5q64 0 113 9.5z" />
    <glyph glyph-name="Agrave" unicode="&#xc0;" horiz-adv-x="1265" 
d="M926 431h-614l-201 -431h-161l745 1530h168l289 -1530h-150zM906 546l-129 734l-15 115l-55 -119l-341 -730h540zM604 2000l273 -349l-56 -50q-76 46 -171 136.5t-140 165.5z" />
    <glyph glyph-name="Aacute" unicode="&#xc1;" horiz-adv-x="1265" 
d="M926 431h-614l-201 -431h-161l745 1530h168l289 -1530h-150zM906 546l-129 734l-15 115l-55 -119l-341 -730h540zM1019 2000l95 -97q-44 -74 -140.5 -163t-175.5 -137l-57 51z" />
    <glyph glyph-name="Acircumflex" unicode="&#xc2;" horiz-adv-x="1265" 
d="M926 431h-614l-201 -431h-161l745 1530h168l289 -1530h-150zM906 546l-129 734l-15 115l-55 -119l-341 -730h540zM802 2000h136l205 -348l-73 -53l-219 265l-330 -270l-59 59z" />
    <glyph glyph-name="Atilde" unicode="&#xc3;" horiz-adv-x="1265" 
d="M926 431h-614l-201 -431h-161l745 1530h168l289 -1530h-150zM906 546l-129 734l-15 115l-55 -119l-341 -730h540zM498.5 1878q43.5 38 97.5 62t105 24q53 0 89 -22t78 -63q33 -32 56.5 -47.5t53.5 -15.5q37 0 65.5 19t45 40.5t43.5 61.5l66 -70q-16 -47 -55 -87
t-90.5 -63.5t-103.5 -23.5q-56 0 -92 21t-78 61q-35 33 -59.5 48.5t-58.5 16.5q-37 0 -65.5 -16t-43.5 -32t-51 -59l-67 65q21 42 64.5 80z" />
    <glyph glyph-name="Adieresis" unicode="&#xc4;" horiz-adv-x="1265" 
d="M926 431h-614l-201 -431h-161l745 1530h168l289 -1530h-150zM906 546l-129 734l-15 115l-55 -119l-341 -730h540zM519.5 1874q16.5 28 42 44.5t51.5 16.5q43 0 67.5 -25t24.5 -65q0 -34 -16.5 -62.5t-43.5 -45t-57 -16.5q-36 0 -60.5 26t-24.5 66q0 33 16.5 61zM939 1876
q17 27 43 43t52 16q42 0 66.5 -24t24.5 -63q0 -52 -34 -89.5t-83 -37.5q-37 0 -61.5 27t-24.5 69q0 32 17 59z" />
    <glyph glyph-name="Aring" unicode="&#xc5;" horiz-adv-x="1265" 
d="M926 431h-614l-201 -431h-161l728 1494q-87 22 -133.5 82t-46.5 152q0 89 50.5 150.5t129 91.5t162.5 30q125 0 197.5 -67t72.5 -184q0 -108 -66.5 -173t-173.5 -85l282 -1491h-150zM627.5 1642q22.5 -36 63 -56.5t92.5 -20.5q218 0 218 197q0 69 -47 111.5t-126 42.5
q-92 0 -157.5 -45t-65.5 -148q0 -45 22.5 -81zM906 546l-129 734l-15 115l-55 -119l-341 -730h540z" />
    <glyph glyph-name="AE" unicode="&#xc6;" horiz-adv-x="1781" 
d="M1097 1417l-74 -579l475 6l-9 -127l-479 11l-78 -614l737 13l-11 -127h-890l58 459h-519l-252 -459h-162l806 1436l-298 17l11 77h1305l-6 -120zM947 1420l-111 5l-466 -850h471z" />
    <glyph glyph-name="Ccedilla" unicode="&#xc7;" horiz-adv-x="1141" 
d="M511.5 1307.5q-125.5 -112.5 -186.5 -286.5t-61 -358q0 -156 40 -282t126.5 -201t218.5 -75q76 0 149 17t129 41.5t88 47.5l23 -128q-135 -84 -343 -96q28 -68 28 -166q0 -151 -72 -217.5t-191 -66.5q-41 0 -85.5 8.5t-60.5 20.5l20 115q34 -18 88 -18q170 0 170 193
q0 78 -8 130q-170 11 -276 108.5t-152 244t-46 313.5q0 262 94 465.5t257 316t363 112.5q86 0 145.5 -12t126.5 -34l51 -16l-53 -126q-8 3 -45.5 20.5t-97.5 29.5t-133 12q-181 0 -306.5 -112.5z" />
    <glyph glyph-name="Egrave" unicode="&#xc8;" horiz-adv-x="1138" 
d="M522 2000l273 -349l-56 -50q-76 46 -171 136.5t-140 165.5zM1070 1530l-6 -120l-614 7l-73 -579l474 6l-9 -127l-479 11l-78 -614l737 13l-11 -127h-890l193 1530h756z" />
    <glyph glyph-name="Eacute" unicode="&#xc9;" horiz-adv-x="1138" 
d="M937 2000l95 -97q-44 -74 -140.5 -163t-175.5 -137l-57 51zM1070 1530l-6 -120l-614 7l-73 -579l474 6l-9 -127l-479 11l-78 -614l737 13l-11 -127h-890l193 1530h756z" />
    <glyph glyph-name="Ecircumflex" unicode="&#xca;" horiz-adv-x="1138" 
d="M1070 1530l-6 -120l-614 7l-73 -579l474 6l-9 -127l-479 11l-78 -614l737 13l-11 -127h-890l193 1530h756zM720 2000h136l205 -348l-73 -53l-219 265l-330 -270l-59 59z" />
    <glyph glyph-name="Edieresis" unicode="&#xcb;" horiz-adv-x="1138" 
d="M436.5 1874q16.5 28 42 44.5t51.5 16.5q43 0 67.5 -25t24.5 -65q0 -34 -16.5 -62.5t-43.5 -45t-57 -16.5q-36 0 -60.5 26t-24.5 66q0 33 16.5 61zM856 1876q17 27 43 43t52 16q42 0 66.5 -24t24.5 -63q0 -52 -34 -89.5t-83 -37.5q-37 0 -61.5 27t-24.5 69q0 32 17 59z
M1070 1530l-6 -120l-614 7l-73 -579l474 6l-9 -127l-479 11l-78 -614l737 13l-11 -127h-890l193 1530h756z" />
    <glyph glyph-name="Igrave" unicode="&#xcc;" horiz-adv-x="572" 
d="M489 1530l-193 -1530h-151l193 1530h151zM240 2000l273 -349l-56 -50q-76 46 -171 136.5t-140 165.5z" />
    <glyph glyph-name="Iacute" unicode="&#xcd;" horiz-adv-x="572" 
d="M489 1530l-193 -1530h-151l193 1530h151zM655 2000l95 -97q-44 -74 -140.5 -163t-175.5 -137l-57 51z" />
    <glyph glyph-name="Icircumflex" unicode="&#xce;" horiz-adv-x="572" 
d="M489 1530l-193 -1530h-151l193 1530h151zM438 2000h136l205 -348l-73 -53l-219 265l-330 -270l-59 59z" />
    <glyph glyph-name="Idieresis" unicode="&#xcf;" horiz-adv-x="572" 
d="M489 1530l-193 -1530h-151l193 1530h151zM155.5 1874q16.5 28 42 44.5t51.5 16.5q43 0 67.5 -25t24.5 -65q0 -34 -16.5 -62.5t-43.5 -45t-57 -16.5q-36 0 -60.5 26t-24.5 66q0 33 16.5 61zM575 1876q17 27 43 43t52 16q42 0 66.5 -24t24.5 -63q0 -52 -34 -89.5t-83 -37.5
q-37 0 -61.5 27t-24.5 69q0 32 17 59z" />
    <glyph glyph-name="Eth" unicode="&#xd0;" horiz-adv-x="1376" 
d="M1200.5 433.5q-97.5 -212.5 -274.5 -333.5t-404 -115q-64 2 -113 7q-35 3 -102.5 6t-108.5 3h-77l92 732h-161l12 100h162l88 698h72q48 0 162 8q120 8 174 8q297 0 436.5 -170.5t139.5 -470.5q0 -260 -97.5 -472.5zM868.5 213q135.5 113 204.5 295.5t69 390.5
q0 189 -46.5 306t-148 173.5t-268.5 56.5q-93 0 -230 -19l-73 -583h427l-12 -100h-428l-76 -607q150 -26 255 -26q191 0 326.5 113z" />
    <glyph glyph-name="Ntilde" unicode="&#xd1;" horiz-adv-x="1402" 
d="M562.5 1878q43.5 38 97.5 62t105 24q53 0 89 -22t78 -63q33 -32 56.5 -47.5t53.5 -15.5q37 0 65.5 19t45 40.5t43.5 61.5l66 -70q-16 -47 -55 -87t-90.5 -63.5t-103.5 -23.5q-56 0 -92 21t-78 61q-35 33 -59.5 48.5t-58.5 16.5q-37 0 -65.5 -16t-43.5 -32t-51 -59l-67 65
q21 42 64.5 80zM472 1530l491 -1127l72 -207l21 238l134 1096h143l-193 -1530h-149l-494 1122l-72 239l-29 -288l-134 -1073h-141l193 1530h158z" />
    <glyph glyph-name="Ograve" unicode="&#xd2;" 
d="M644 2000l273 -349l-56 -50q-76 46 -171 136.5t-140 165.5zM204 1101.5q92 207.5 252.5 326.5t356.5 119q158 0 268 -87t164.5 -236t54.5 -332q0 -253 -89 -460.5t-247.5 -328t-358.5 -120.5q-157 0 -268.5 85t-168 233.5t-56.5 336.5q0 256 92 463.5zM1055 1284.5
q-88 142.5 -266 142.5q-147 0 -266 -105t-186.5 -281t-67.5 -381q0 -280 92.5 -420.5t267.5 -140.5q147 0 264.5 103t183.5 279t66 384q0 277 -88 419.5z" />
    <glyph glyph-name="Oacute" unicode="&#xd3;" 
d="M1059 2000l95 -97q-44 -74 -140.5 -163t-175.5 -137l-57 51zM204 1101.5q92 207.5 252.5 326.5t356.5 119q158 0 268 -87t164.5 -236t54.5 -332q0 -253 -89 -460.5t-247.5 -328t-358.5 -120.5q-157 0 -268.5 85t-168 233.5t-56.5 336.5q0 256 92 463.5zM1055 1284.5
q-88 142.5 -266 142.5q-147 0 -266 -105t-186.5 -281t-67.5 -381q0 -280 92.5 -420.5t267.5 -140.5q147 0 264.5 103t183.5 279t66 384q0 277 -88 419.5z" />
    <glyph glyph-name="Ocircumflex" unicode="&#xd4;" 
d="M204 1101.5q92 207.5 252.5 326.5t356.5 119q158 0 268 -87t164.5 -236t54.5 -332q0 -253 -89 -460.5t-247.5 -328t-358.5 -120.5q-157 0 -268.5 85t-168 233.5t-56.5 336.5q0 256 92 463.5zM1055 1284.5q-88 142.5 -266 142.5q-147 0 -266 -105t-186.5 -281t-67.5 -381
q0 -280 92.5 -420.5t267.5 -140.5q147 0 264.5 103t183.5 279t66 384q0 277 -88 419.5zM842 2000h136l205 -348l-73 -53l-219 265l-330 -270l-59 59z" />
    <glyph glyph-name="Otilde" unicode="&#xd5;" 
d="M538.5 1878q43.5 38 97.5 62t105 24q53 0 89 -22t78 -63q33 -32 56.5 -47.5t53.5 -15.5q37 0 65.5 19t45 40.5t43.5 61.5l66 -70q-16 -47 -55 -87t-90.5 -63.5t-103.5 -23.5q-56 0 -92 21t-78 61q-35 33 -59.5 48.5t-58.5 16.5q-37 0 -65.5 -16t-43.5 -32t-51 -59l-67 65
q21 42 64.5 80zM204 1101.5q92 207.5 252.5 326.5t356.5 119q158 0 268 -87t164.5 -236t54.5 -332q0 -253 -89 -460.5t-247.5 -328t-358.5 -120.5q-157 0 -268.5 85t-168 233.5t-56.5 336.5q0 256 92 463.5zM1055 1284.5q-88 142.5 -266 142.5q-147 0 -266 -105t-186.5 -281
t-67.5 -381q0 -280 92.5 -420.5t267.5 -140.5q147 0 264.5 103t183.5 279t66 384q0 277 -88 419.5z" />
    <glyph glyph-name="Odieresis" unicode="&#xd6;" 
d="M558.5 1874q16.5 28 42 44.5t51.5 16.5q43 0 67.5 -25t24.5 -65q0 -34 -16.5 -62.5t-43.5 -45t-57 -16.5q-36 0 -60.5 26t-24.5 66q0 33 16.5 61zM978 1876q17 27 43 43t52 16q42 0 66.5 -24t24.5 -63q0 -52 -34 -89.5t-83 -37.5q-37 0 -61.5 27t-24.5 69q0 32 17 59z
M204 1101.5q92 207.5 252.5 326.5t356.5 119q158 0 268 -87t164.5 -236t54.5 -332q0 -253 -89 -460.5t-247.5 -328t-358.5 -120.5q-157 0 -268.5 85t-168 233.5t-56.5 336.5q0 256 92 463.5zM1055 1284.5q-88 142.5 -266 142.5q-147 0 -266 -105t-186.5 -281t-67.5 -381
q0 -280 92.5 -420.5t267.5 -140.5q147 0 264.5 103t183.5 279t66 384q0 277 -88 419.5z" />
    <glyph glyph-name="multiply" unicode="&#xd7;" horiz-adv-x="1370" 
d="M637 765l-309 339l101 95l293 -358l382 363l79 -94l-393 -346l310 -340l-101 -95l-294 359l-382 -360l-79 95z" />
    <glyph glyph-name="Oslash" unicode="&#xd8;" 
d="M1263.5 1172q36.5 -128 36.5 -279q0 -253 -89 -460.5t-247.5 -328t-358.5 -120.5q-98 0 -178.5 33.5t-141.5 96.5l-160 -236l-70 39l178 261q-60 87 -90.5 205t-30.5 256q0 256 92 463.5t252.5 326.5t356.5 119q168 0 285 -101l144 212l70 -38l-158 -232
q73 -89 109.5 -217zM523 1323q-119 -105 -186.5 -281t-67.5 -381q0 -219 59 -357l688 1033q-86 91 -227 91q-147 0 -266 -105zM893.5 203q117.5 103 183.5 279t66 384q0 260 -78 401l-693 -1041q92 -126 257 -126q147 0 264.5 103z" />
    <glyph glyph-name="Ugrave" unicode="&#xd9;" horiz-adv-x="1360" 
d="M625 2000l273 -349l-56 -50q-76 46 -171 136.5t-140 165.5zM285 1530h150l-115 -911q-12 -97 -12 -174q0 -162 78.5 -250.5t236.5 -88.5q125 0 212 53t142 170.5t80 310.5l112 890h147l-114 -903q-30 -234 -105.5 -375.5t-197 -205t-297.5 -63.5q-219 0 -333.5 117.5
t-114.5 333.5q0 49 12 159z" />
    <glyph glyph-name="Uacute" unicode="&#xda;" horiz-adv-x="1360" 
d="M1040 2000l95 -97q-44 -74 -140.5 -163t-175.5 -137l-57 51zM285 1530h150l-115 -911q-12 -97 -12 -174q0 -162 78.5 -250.5t236.5 -88.5q125 0 212 53t142 170.5t80 310.5l112 890h147l-114 -903q-30 -234 -105.5 -375.5t-197 -205t-297.5 -63.5q-219 0 -333.5 117.5
t-114.5 333.5q0 49 12 159z" />
    <glyph glyph-name="Ucircumflex" unicode="&#xdb;" horiz-adv-x="1360" 
d="M285 1530h150l-115 -911q-12 -97 -12 -174q0 -162 78.5 -250.5t236.5 -88.5q125 0 212 53t142 170.5t80 310.5l112 890h147l-114 -903q-30 -234 -105.5 -375.5t-197 -205t-297.5 -63.5q-219 0 -333.5 117.5t-114.5 333.5q0 49 12 159zM823 2000h136l205 -348l-73 -53
l-219 265l-330 -270l-59 59z" />
    <glyph glyph-name="Udieresis" unicode="&#xdc;" horiz-adv-x="1360" 
d="M539.5 1874q16.5 28 42 44.5t51.5 16.5q43 0 67.5 -25t24.5 -65q0 -34 -16.5 -62.5t-43.5 -45t-57 -16.5q-36 0 -60.5 26t-24.5 66q0 33 16.5 61zM959 1876q17 27 43 43t52 16q42 0 66.5 -24t24.5 -63q0 -52 -34 -89.5t-83 -37.5q-37 0 -61.5 27t-24.5 69q0 32 17 59z
M285 1530h150l-115 -911q-12 -97 -12 -174q0 -162 78.5 -250.5t236.5 -88.5q125 0 212 53t142 170.5t80 310.5l112 890h147l-114 -903q-30 -234 -105.5 -375.5t-197 -205t-297.5 -63.5q-219 0 -333.5 117.5t-114.5 333.5q0 49 12 159z" />
    <glyph glyph-name="Yacute" unicode="&#xdd;" horiz-adv-x="1083" 
d="M105 1530h161l261 -710l41 -103l55 102l428 711h162l-592 -945l-75 -585h-144l76 585zM907 2000l95 -97q-44 -74 -140.5 -163t-175.5 -137l-57 51z" />
    <glyph glyph-name="Thorn" unicode="&#xde;" horiz-adv-x="1195" 
d="M1048 563.5q-78 -133.5 -217.5 -205.5t-320.5 -72q-117 0 -202 11l-37 -297h-150l193 1530h150l-33 -264q20 1 64 5q116 10 181 10q222 0 336 -102t114 -303q0 -179 -78 -312.5zM896 1092q-78 75 -244 75q-37 0 -115 -6.5t-121 -12.5l-92 -729q32 -6 86.5 -10.5
t104.5 -4.5q225 2 342 125.5t117 350.5q0 137 -78 212z" />
    <glyph glyph-name="germandbls" unicode="&#xdf;" horiz-adv-x="1180" 
d="M330 1352.5q92 145.5 203.5 190.5t244.5 45q92 0 162 -33.5t109 -98t39 -155.5q0 -72 -24 -130.5t-57.5 -99.5t-85.5 -94q-51 -50 -75 -83t-24 -70q0 -28 18.5 -57t58.5 -77q23 -27 49 -61q58 -79 91.5 -152.5t33.5 -168.5q0 -97 -48 -170.5t-137 -113.5t-209 -40
q-70 0 -142 16.5t-108 36.5l20 144q33 -30 90.5 -55t124.5 -25q128 0 190 46.5t62 153.5q0 114 -97 249q-64 78 -102.5 139.5t-38.5 114.5q0 58 22 97.5t68 89.5q56 57 90 100.5t55 94.5t21 110q0 79 -49 131.5t-149 52.5q-98 0 -172.5 -48.5t-131.5 -179.5t-89 -368
l-110 -881h-148l117 926q36 278 128 423.5z" />
    <glyph glyph-name="agrave" unicode="&#xe0;" horiz-adv-x="1130" 
d="M1041 1156l-157 -1156h-131l19 202v3q-63 -91 -161 -156t-212 -65q-158 0 -238 115.5t-80 315.5q0 169 70.5 340.5t213.5 286t349 114.5q47 0 105 -10t109 -26zM574 143.5q72 43.5 127 105.5t90 123l20 185l64 451q-39 18 -88 28t-97 10q-143 0 -246 -93t-156 -235
t-53 -285q0 -166 48 -249.5t141 -83.5q78 0 150 43.5zM470 1703l294 -397l-65 -55q-48 33 -119 97.5t-134 134t-91 116.5z" />
    <glyph glyph-name="aacute" unicode="&#xe1;" horiz-adv-x="1130" 
d="M1041 1156l-157 -1156h-131l19 202v3q-63 -91 -161 -156t-212 -65q-158 0 -238 115.5t-80 315.5q0 169 70.5 340.5t213.5 286t349 114.5q47 0 105 -10t109 -26zM574 143.5q72 43.5 127 105.5t90 123l20 185l64 451q-39 18 -88 28t-97 10q-143 0 -246 -93t-156 -235
t-53 -285q0 -166 48 -249.5t141 -83.5q78 0 150 43.5zM925 1706l115 -104q-20 -34 -84.5 -105.5t-141.5 -141.5t-134 -104l-63 55z" />
    <glyph glyph-name="acircumflex" unicode="&#xe2;" horiz-adv-x="1130" 
d="M1041 1156l-157 -1156h-131l19 202v3q-63 -91 -161 -156t-212 -65q-158 0 -238 115.5t-80 315.5q0 169 70.5 340.5t213.5 286t349 114.5q47 0 105 -10t109 -26zM574 143.5q72 43.5 127 105.5t90 123l20 185l64 451q-39 18 -88 28t-97 10q-143 0 -246 -93t-156 -235
t-53 -285q0 -166 48 -249.5t141 -83.5q78 0 150 43.5zM740 1712h137l203 -377l-73 -53l-218 294l-333 -299l-59 59z" />
    <glyph glyph-name="atilde" unicode="&#xe3;" horiz-adv-x="1130" 
d="M1041 1156l-157 -1156h-131l19 202v3q-63 -91 -161 -156t-212 -65q-158 0 -238 115.5t-80 315.5q0 169 70.5 340.5t213.5 286t349 114.5q47 0 105 -10t109 -26zM574 143.5q72 43.5 127 105.5t90 123l20 185l64 451q-39 18 -88 28t-97 10q-143 0 -246 -93t-156 -235
t-53 -285q0 -166 48 -249.5t141 -83.5q78 0 150 43.5zM401 1563q43 38 96 62t103 24q53 0 89.5 -21t79.5 -61q34 -32 57.5 -47t53.5 -15q47 0 79 27.5t51.5 55t24.5 34.5l66 -70q-16 -46 -55.5 -85t-91 -62.5t-103.5 -23.5q-39 0 -69 11.5t-51 27t-50 42.5q-35 32 -60 47.5
t-60 16.5q-44 0 -74.5 -24t-68.5 -68q1 2 -13 -16l-68 65q21 42 64 80z" />
    <glyph glyph-name="adieresis" unicode="&#xe4;" horiz-adv-x="1130" 
d="M1041 1156l-157 -1156h-131l19 202v3q-63 -91 -161 -156t-212 -65q-158 0 -238 115.5t-80 315.5q0 169 70.5 340.5t213.5 286t349 114.5q47 0 105 -10t109 -26zM574 143.5q72 43.5 127 105.5t90 123l20 185l64 451q-39 18 -88 28t-97 10q-143 0 -246 -93t-156 -235
t-53 -285q0 -166 48 -249.5t141 -83.5q78 0 150 43.5zM437.5 1564q15.5 28 41.5 44.5t55 16.5q41 0 66 -24.5t25 -63.5q0 -52 -34.5 -88.5t-82.5 -36.5q-36 0 -61 25.5t-25 64.5q0 34 15.5 62zM858.5 1564q15.5 28 41.5 44.5t55 16.5q41 0 66 -24.5t25 -63.5
q0 -52 -34.5 -88.5t-82.5 -36.5q-36 0 -61 25.5t-25 64.5q0 34 15.5 62z" />
    <glyph glyph-name="aring" unicode="&#xe5;" horiz-adv-x="1130" 
d="M1041 1156l-157 -1156h-131l19 202v3q-63 -91 -161 -156t-212 -65q-158 0 -238 115.5t-80 315.5q0 169 70.5 340.5t213.5 286t349 114.5q47 0 105 -10t109 -26zM574 143.5q72 43.5 127 105.5t90 123l20 185l64 451q-39 18 -88 28t-97 10q-143 0 -246 -93t-156 -235
t-53 -285q0 -166 48 -249.5t141 -83.5q78 0 150 43.5zM506.5 1658.5q50.5 62.5 129.5 93.5t162 31q125 0 197.5 -66t72.5 -184q0 -89 -46 -150.5t-121.5 -92t-165.5 -30.5q-133 0 -206 65t-73 182q0 89 50.5 151.5zM912 1657q-47 42 -126 42q-57 0 -107.5 -19t-83 -63
t-32.5 -115q0 -45 22.5 -81.5t62.5 -57t93 -20.5q96 0 157 47t61 156q0 69 -47 111z" />
    <glyph glyph-name="ae" unicode="&#xe6;" horiz-adv-x="1624" 
d="M1263.5 145q90.5 43 173.5 128l43 -87q-32 -44 -92.5 -91t-143 -79t-172.5 -32q-151 0 -242.5 77.5t-126.5 204.5q-62 -121 -147.5 -201.5t-197.5 -80.5q-277 0 -277 431q0 169 70.5 340.5t213.5 286t349 114.5q74 0 141 -16t143 -62q126 78 275 78q92 0 154.5 -32.5
t93.5 -89t31 -128.5q0 -152 -121 -254t-286.5 -152t-304.5 -57l-1 -30q0 -131 57 -221t193 -90q84 0 174.5 43zM738 742q55 148 154 250q-48 25 -100 39.5t-102 14.5q-143 0 -246 -93t-156 -235t-53 -285q0 -169 38.5 -251t117.5 -82q82 0 154 80t139 203q-1 13 -1 41
q0 170 55 318zM1360.5 1006q-42.5 37 -119.5 37q-107 0 -193.5 -73.5t-139 -187.5t-63.5 -232q119 4 250 47.5t219.5 120t88.5 175.5q0 76 -42.5 113z" />
    <glyph glyph-name="ccedilla" unicode="&#xe7;" horiz-adv-x="911" 
d="M449 962q-94 -82 -151 -219.5t-57 -294.5q0 -179 60.5 -264.5t181.5 -85.5q80 0 146.5 37.5t139.5 109.5l50 -82q-44 -57 -121.5 -109t-176.5 -66q28 -68 28 -166q0 -151 -72 -217.5t-191 -66.5q-41 0 -85.5 8.5t-60.5 20.5l20 115q34 -18 88 -18q170 0 170 193
q0 78 -8 130q-156 16 -238.5 133t-82.5 313q0 166 67.5 334t198 278.5t309.5 110.5q59 0 119 -10.5t100 -30.5l-39 -128q-36 29 -86.5 43t-107.5 14q-107 0 -201 -82z" />
    <glyph glyph-name="egrave" unicode="&#xe8;" horiz-adv-x="1031" 
d="M834.5 1123.5q62.5 -32.5 93.5 -89t31 -128.5q0 -152 -121 -254t-286.5 -152t-304.5 -57q-1 -11 -1 -33q0 -130 57.5 -219t192.5 -89q84 0 174.5 43t173.5 127l43 -86q-32 -44 -92.5 -91t-143 -79t-172.5 -32q-137 0 -225.5 65t-127.5 168.5t-36 223.5q5 199 81 362
t208.5 258t300.5 95q92 0 154.5 -32.5zM767.5 1006q-42.5 37 -119.5 37q-106 0 -192.5 -73.5t-139.5 -187.5t-64 -232q119 4 250 47.5t219.5 120t88.5 175.5q0 76 -42.5 113zM402 1704l294 -397l-65 -55q-48 33 -119 97.5t-134 134t-91 116.5z" />
    <glyph glyph-name="eacute" unicode="&#xe9;" horiz-adv-x="1031" 
d="M857 1704l115 -104q-20 -34 -84.5 -105.5t-141.5 -141.5t-134 -104l-63 55zM834.5 1123.5q62.5 -32.5 93.5 -89t31 -128.5q0 -152 -121 -254t-286.5 -152t-304.5 -57q-1 -11 -1 -33q0 -130 57.5 -219t192.5 -89q84 0 174.5 43t173.5 127l43 -86q-32 -44 -92.5 -91
t-143 -79t-172.5 -32q-137 0 -225.5 65t-127.5 168.5t-36 223.5q5 199 81 362t208.5 258t300.5 95q92 0 154.5 -32.5zM767.5 1006q-42.5 37 -119.5 37q-106 0 -192.5 -73.5t-139.5 -187.5t-64 -232q119 4 250 47.5t219.5 120t88.5 175.5q0 76 -42.5 113z" />
    <glyph glyph-name="ecircumflex" unicode="&#xea;" horiz-adv-x="1031" 
d="M673 1710h137l203 -377l-73 -53l-218 294l-333 -299l-59 59zM834.5 1123.5q62.5 -32.5 93.5 -89t31 -128.5q0 -152 -121 -254t-286.5 -152t-304.5 -57q-1 -11 -1 -33q0 -130 57.5 -219t192.5 -89q84 0 174.5 43t173.5 127l43 -86q-32 -44 -92.5 -91t-143 -79t-172.5 -32
q-137 0 -225.5 65t-127.5 168.5t-36 223.5q5 199 81 362t208.5 258t300.5 95q92 0 154.5 -32.5zM767.5 1006q-42.5 37 -119.5 37q-106 0 -192.5 -73.5t-139.5 -187.5t-64 -232q119 4 250 47.5t219.5 120t88.5 175.5q0 76 -42.5 113z" />
    <glyph glyph-name="edieresis" unicode="&#xeb;" horiz-adv-x="1031" 
d="M370.5 1562q15.5 28 41.5 44.5t55 16.5q41 0 66 -24.5t25 -63.5q0 -52 -34.5 -88.5t-82.5 -36.5q-36 0 -61 25.5t-25 64.5q0 34 15.5 62zM791.5 1562q15.5 28 41.5 44.5t55 16.5q41 0 66 -24.5t25 -63.5q0 -52 -34.5 -88.5t-82.5 -36.5q-36 0 -61 25.5t-25 64.5
q0 34 15.5 62zM834.5 1123.5q62.5 -32.5 93.5 -89t31 -128.5q0 -152 -121 -254t-286.5 -152t-304.5 -57q-1 -11 -1 -33q0 -130 57.5 -219t192.5 -89q84 0 174.5 43t173.5 127l43 -86q-32 -44 -92.5 -91t-143 -79t-172.5 -32q-137 0 -225.5 65t-127.5 168.5t-36 223.5
q5 199 81 362t208.5 258t300.5 95q92 0 154.5 -32.5zM767.5 1006q-42.5 37 -119.5 37q-106 0 -192.5 -73.5t-139.5 -187.5t-64 -232q119 4 250 47.5t219.5 120t88.5 175.5q0 76 -42.5 113z" />
    <glyph glyph-name="igrave" unicode="&#xec;" horiz-adv-x="564" 
d="M436 1144l-155 -1144h-148l154 1144h149zM153 1704l294 -397l-65 -55q-48 33 -119 97.5t-134 134t-91 116.5z" />
    <glyph glyph-name="iacute" unicode="&#xed;" horiz-adv-x="564" 
d="M608 1704l115 -104q-20 -34 -84.5 -105.5t-141.5 -141.5t-134 -104l-63 55zM436 1144l-155 -1144h-148l154 1144h149z" />
    <glyph glyph-name="icircumflex" unicode="&#xee;" horiz-adv-x="564" 
d="M423 1710h137l203 -377l-73 -53l-218 294l-333 -299l-59 59zM436 1144l-155 -1144h-148l154 1144h149z" />
    <glyph glyph-name="idieresis" unicode="&#xef;" horiz-adv-x="564" 
d="M120.5 1562q15.5 28 41.5 44.5t55 16.5q41 0 66 -24.5t25 -63.5q0 -52 -34.5 -88.5t-82.5 -36.5q-36 0 -61 25.5t-25 64.5q0 34 15.5 62zM541.5 1562q15.5 28 41.5 44.5t55 16.5q41 0 66 -24.5t25 -63.5q0 -52 -34.5 -88.5t-82.5 -36.5q-36 0 -61 25.5t-25 64.5
q0 34 15.5 62zM436 1144l-155 -1144h-148l154 1144h149z" />
    <glyph glyph-name="eth" unicode="&#xf0;" horiz-adv-x="1162" 
d="M991.5 1250q73.5 -172 73.5 -382q0 -244 -67 -445.5t-197.5 -320.5t-311.5 -119q-129 0 -219.5 66.5t-135.5 171t-45 216.5q0 217 78 380.5t205.5 250.5t272.5 87q89 0 165 -29.5t111 -84.5q-21 144 -78 248t-163 198l-160 -179l-82 68l164 172q-68 48 -135 83t-119 46
l34 92q57 -13 138.5 -52t152.5 -85q39 43 90.5 104t67.5 80l76 -69q-16 -19 -61 -71t-91 -104l7 -6q156 -144 229.5 -316zM897 637q2 16 7.5 65t7.5 83.5t1 52.5q-5 36 -36.5 85t-91.5 86.5t-145 37.5q-119 0 -208 -86t-136 -228t-47 -304q0 -90 30.5 -168t89.5 -125.5
t141 -47.5q94 0 175 70t135 190.5t74 266.5z" />
    <glyph glyph-name="ntilde" unicode="&#xf1;" horiz-adv-x="1194" 
d="M1005.5 1087.5q54.5 -68.5 54.5 -211.5q0 -48 -11 -136t-31 -227q-15 -107 -43 -286l-34 -224h-149q17 124 51 341l25 168q21 141 31 220.5t10 130.5q0 83 -31.5 119t-108.5 36q-64 0 -144 -43t-156.5 -112.5t-130.5 -146.5l-97 -713h-148l154 1137h141l-29 -265
q95 121 222 201t249 80q121 0 175.5 -68.5zM357 1564q43 38 96 62t103 24q53 0 89.5 -21t79.5 -61q34 -32 57.5 -47t53.5 -15q47 0 79 27.5t51.5 55t24.5 34.5l66 -70q-16 -46 -55.5 -85t-91 -62.5t-103.5 -23.5q-39 0 -69 11.5t-51 27t-50 42.5q-35 32 -60 47.5t-60 16.5
q-44 0 -74.5 -24t-68.5 -68q1 2 -13 -16l-68 65q21 42 64 80z" />
    <glyph glyph-name="ograve" unicode="&#xf2;" horiz-adv-x="1135" 
d="M940.5 1033q94.5 -123 94.5 -351q0 -179 -71 -340t-197.5 -259.5t-285.5 -98.5q-188 0 -285.5 123.5t-97.5 350.5q0 179 72.5 340t201 259.5t287.5 98.5q187 0 281.5 -123zM706.5 184.5q84.5 87.5 128.5 222.5t44 274q0 176 -58.5 269.5t-185.5 93.5q-118 0 -205 -87
t-132.5 -222t-45.5 -274q0 -176 63 -270t190 -94q117 0 201.5 87.5zM424 1704l294 -397l-65 -55q-48 33 -119 97.5t-134 134t-91 116.5z" />
    <glyph glyph-name="oacute" unicode="&#xf3;" horiz-adv-x="1135" 
d="M879 1704l115 -104q-20 -34 -84.5 -105.5t-141.5 -141.5t-134 -104l-63 55zM940.5 1033q94.5 -123 94.5 -351q0 -179 -71 -340t-197.5 -259.5t-285.5 -98.5q-188 0 -285.5 123.5t-97.5 350.5q0 179 72.5 340t201 259.5t287.5 98.5q187 0 281.5 -123zM706.5 184.5
q84.5 87.5 128.5 222.5t44 274q0 176 -58.5 269.5t-185.5 93.5q-118 0 -205 -87t-132.5 -222t-45.5 -274q0 -176 63 -270t190 -94q117 0 201.5 87.5z" />
    <glyph glyph-name="ocircumflex" unicode="&#xf4;" horiz-adv-x="1135" 
d="M694 1710h137l203 -377l-73 -53l-218 294l-333 -299l-59 59zM940.5 1033q94.5 -123 94.5 -351q0 -179 -71 -340t-197.5 -259.5t-285.5 -98.5q-188 0 -285.5 123.5t-97.5 350.5q0 179 72.5 340t201 259.5t287.5 98.5q187 0 281.5 -123zM706.5 184.5q84.5 87.5 128.5 222.5
t44 274q0 176 -58.5 269.5t-185.5 93.5q-118 0 -205 -87t-132.5 -222t-45.5 -274q0 -176 63 -270t190 -94q117 0 201.5 87.5z" />
    <glyph glyph-name="otilde" unicode="&#xf5;" horiz-adv-x="1135" 
d="M940.5 1033q94.5 -123 94.5 -351q0 -179 -71 -340t-197.5 -259.5t-285.5 -98.5q-188 0 -285.5 123.5t-97.5 350.5q0 179 72.5 340t201 259.5t287.5 98.5q187 0 281.5 -123zM706.5 184.5q84.5 87.5 128.5 222.5t44 274q0 176 -58.5 269.5t-185.5 93.5q-118 0 -205 -87
t-132.5 -222t-45.5 -274q0 -176 63 -270t190 -94q117 0 201.5 87.5zM355 1564q43 38 96 62t103 24q53 0 89.5 -21t79.5 -61q34 -32 57.5 -47t53.5 -15q47 0 79 27.5t51.5 55t24.5 34.5l66 -70q-16 -46 -55.5 -85t-91 -62.5t-103.5 -23.5q-39 0 -69 11.5t-51 27t-50 42.5
q-35 32 -60 47.5t-60 16.5q-44 0 -74.5 -24t-68.5 -68q1 2 -13 -16l-68 65q21 42 64 80z" />
    <glyph glyph-name="odieresis" unicode="&#xf6;" horiz-adv-x="1135" 
d="M391.5 1562q15.5 28 41.5 44.5t55 16.5q41 0 66 -24.5t25 -63.5q0 -52 -34.5 -88.5t-82.5 -36.5q-36 0 -61 25.5t-25 64.5q0 34 15.5 62zM812.5 1562q15.5 28 41.5 44.5t55 16.5q41 0 66 -24.5t25 -63.5q0 -52 -34.5 -88.5t-82.5 -36.5q-36 0 -61 25.5t-25 64.5
q0 34 15.5 62zM940.5 1033q94.5 -123 94.5 -351q0 -179 -71 -340t-197.5 -259.5t-285.5 -98.5q-188 0 -285.5 123.5t-97.5 350.5q0 179 72.5 340t201 259.5t287.5 98.5q187 0 281.5 -123zM706.5 184.5q84.5 87.5 128.5 222.5t44 274q0 176 -58.5 269.5t-185.5 93.5
q-118 0 -205 -87t-132.5 -222t-45.5 -274q0 -176 63 -270t190 -94q117 0 201.5 87.5z" />
    <glyph glyph-name="divide" unicode="&#xf7;" horiz-adv-x="1338" 
d="M644.5 1205.5q20.5 30.5 51.5 47.5t63 17q46 0 68.5 -22t22.5 -60q0 -41 -19.5 -72.5t-50.5 -48.5t-64 -17q-39 0 -65.5 23t-26.5 64q0 38 20.5 68.5zM1126 836l-14 -122h-869l14 122h869zM549 431.5q20 30.5 51.5 48t63.5 17.5q45 0 67.5 -22t22.5 -60q0 -41 -19 -72.5
t-50 -48.5t-64 -17q-40 0 -66 23t-26 64q0 37 20 67.5z" />
    <glyph glyph-name="oslash" unicode="&#xf8;" horiz-adv-x="1134" 
d="M1005.5 906q29.5 -95 29.5 -222q0 -179 -71 -340t-197.5 -259.5t-285.5 -98.5q-143 0 -236 74l-129 -186l-69 38l142 207q-91 123 -91 341q0 179 72.5 340t201 259.5t287.5 98.5q115 0 197 -48l131 188l69 -38l-138 -199q58 -60 87.5 -155zM430 959q-87 -87 -132.5 -222
t-45.5 -274q0 -132 34 -216l489 756q-55 43 -140 43q-118 0 -205 -87zM706.5 186.5q84.5 87.5 128.5 222.5t44 274q0 168 -51 258l-497 -769q62 -73 174 -73q117 0 201.5 87.5z" />
    <glyph glyph-name="ugrave" unicode="&#xf9;" horiz-adv-x="1173" 
d="M1070 1140l-152 -1140h-138l29 262q-87 -121 -204.5 -201t-236.5 -80q-130 0 -192.5 66t-62.5 219q0 40 6.5 100t19.5 168q28 218 85 606h149l-25 -181q-47 -336 -59 -426t-18 -150.5t-6 -106.5q0 -65 18 -101t51.5 -50t87.5 -14q62 0 137 43t145.5 113t121.5 148l95 725
h149zM427 1704l294 -397l-65 -55q-48 33 -119 97.5t-134 134t-91 116.5z" />
    <glyph glyph-name="uacute" unicode="&#xfa;" horiz-adv-x="1173" 
d="M882 1704l115 -104q-20 -34 -84.5 -105.5t-141.5 -141.5t-134 -104l-63 55zM1070 1140l-152 -1140h-138l29 262q-87 -121 -204.5 -201t-236.5 -80q-130 0 -192.5 66t-62.5 219q0 40 6.5 100t19.5 168q28 218 85 606h149l-25 -181q-47 -336 -59 -426t-18 -150.5t-6 -106.5
q0 -65 18 -101t51.5 -50t87.5 -14q62 0 137 43t145.5 113t121.5 148l95 725h149z" />
    <glyph glyph-name="ucircumflex" unicode="&#xfb;" horiz-adv-x="1173" 
d="M697 1710h137l203 -377l-73 -53l-218 294l-333 -299l-59 59zM1070 1140l-152 -1140h-138l29 262q-87 -121 -204.5 -201t-236.5 -80q-130 0 -192.5 66t-62.5 219q0 40 6.5 100t19.5 168q28 218 85 606h149l-25 -181q-47 -336 -59 -426t-18 -150.5t-6 -106.5q0 -65 18 -101
t51.5 -50t87.5 -14q62 0 137 43t145.5 113t121.5 148l95 725h149z" />
    <glyph glyph-name="udieresis" unicode="&#xfc;" horiz-adv-x="1173" 
d="M394.5 1562q15.5 28 41.5 44.5t55 16.5q41 0 66 -24.5t25 -63.5q0 -52 -34.5 -88.5t-82.5 -36.5q-36 0 -61 25.5t-25 64.5q0 34 15.5 62zM815.5 1562q15.5 28 41.5 44.5t55 16.5q41 0 66 -24.5t25 -63.5q0 -52 -34.5 -88.5t-82.5 -36.5q-36 0 -61 25.5t-25 64.5
q0 34 15.5 62zM1070 1140l-152 -1140h-138l29 262q-87 -121 -204.5 -201t-236.5 -80q-130 0 -192.5 66t-62.5 219q0 40 6.5 100t19.5 168q28 218 85 606h149l-25 -181q-47 -336 -59 -426t-18 -150.5t-6 -106.5q0 -65 18 -101t51.5 -50t87.5 -14q62 0 137 43t145.5 113
t121.5 148l95 725h149z" />
    <glyph glyph-name="yacute" unicode="&#xfd;" horiz-adv-x="1048" 
d="M986 1067q0 -17 -2 -61q-10 -177 -84 -382t-183 -408q-57 -105 -128 -216t-135 -189q-70 -89 -133 -152.5t-157.5 -112t-213.5 -48.5q-36 0 -77 9t-73 21l43 124l22 -11t47 -15t63 -6q106 0 207.5 73t222.5 251h-93l-62 355l-127 841h164l109 -841l43 -301l131 225
q115 192 182 392.5t81 389.5q3 53 3 91l-1 44h147q4 -42 4 -73zM779 1707l115 -104q-20 -34 -84.5 -105.5t-141.5 -141.5t-134 -104l-63 55z" />
    <glyph glyph-name="thorn" unicode="&#xfe;" horiz-adv-x="1159" 
d="M980 1040q80 -116 80 -317q0 -168 -72.5 -339.5t-217.5 -285.5t-351 -114q-82 0 -177 25l-15 -109l-62 -416h-145l75 518l218 1635h141l-58 -490l-35 -208q65 89 165.5 153t215.5 64q158 0 238 -116zM695 189q105 95 158 237.5t53 279.5q0 166 -48.5 250t-141.5 84
q-76 0 -147.5 -40t-128 -98.5t-92.5 -116.5l-88 -656q38 -16 87 -25.5t96 -9.5q147 0 252 95z" />
    <glyph glyph-name="ydieresis" unicode="&#xff;" horiz-adv-x="1048" 
d="M986 1067q0 -17 -2 -61q-10 -177 -84 -382t-183 -408q-57 -105 -128 -216t-135 -189q-70 -89 -133 -152.5t-157.5 -112t-213.5 -48.5q-36 0 -77 9t-73 21l43 124l22 -11t47 -15t63 -6q106 0 207.5 73t222.5 251h-93l-62 355l-127 841h164l109 -841l43 -301l131 225
q115 192 182 392.5t81 389.5q3 53 3 91l-1 44h147q4 -42 4 -73zM291.5 1565q15.5 28 41.5 44.5t55 16.5q41 0 66 -24.5t25 -63.5q0 -52 -34.5 -88.5t-82.5 -36.5q-36 0 -61 25.5t-25 64.5q0 34 15.5 62zM712.5 1565q15.5 28 41.5 44.5t55 16.5q41 0 66 -24.5t25 -63.5
q0 -52 -34.5 -88.5t-82.5 -36.5q-36 0 -61 25.5t-25 64.5q0 34 15.5 62z" />
    <glyph glyph-name="Amacron" unicode="&#x100;" horiz-adv-x="1265" 
d="M926 431h-614l-201 -431h-161l745 1530h168l289 -1530h-150zM906 546l-129 734l-15 115l-55 -119l-341 -730h540zM1039 1862l-5 -114h-509l4 114h510z" />
    <glyph glyph-name="amacron" unicode="&#x101;" horiz-adv-x="1130" 
d="M1041 1156l-157 -1156h-131l19 202v3q-63 -91 -161 -156t-212 -65q-158 0 -238 115.5t-80 315.5q0 169 70.5 340.5t213.5 286t349 114.5q47 0 105 -10t109 -26zM574 143.5q72 43.5 127 105.5t90 123l20 185l64 451q-39 18 -88 28t-97 10q-143 0 -246 -93t-156 -235
t-53 -285q0 -166 48 -249.5t141 -83.5q78 0 150 43.5zM957 1550l-5 -114h-509l4 114h510z" />
    <glyph glyph-name="Abreve" unicode="&#x102;" horiz-adv-x="1265" 
d="M926 431h-614l-201 -431h-161l745 1530h168l289 -1530h-150zM906 546l-129 734l-15 115l-55 -119l-341 -730h540zM507 1980h103q0 -15 3 -30q10 -84 56 -142.5t138 -58.5q68 0 117 37.5t76 90.5t36 103h101v-8q0 -8 -2 -24q-8 -75 -52 -147t-117.5 -118t-163.5 -46
q-99 0 -165.5 45.5t-98.5 119t-32 157.5q0 15 1 21z" />
    <glyph glyph-name="abreve" unicode="&#x103;" horiz-adv-x="1130" 
d="M1041 1156l-157 -1156h-131l19 202v3q-63 -91 -161 -156t-212 -65q-158 0 -238 115.5t-80 315.5q0 169 70.5 340.5t213.5 286t349 114.5q47 0 105 -10t109 -26zM574 143.5q72 43.5 127 105.5t90 123l20 185l64 451q-39 18 -88 28t-97 10q-143 0 -246 -93t-156 -235
t-53 -285q0 -166 48 -249.5t141 -83.5q78 0 150 43.5zM417 1650h103q0 -15 3 -30q10 -84 56 -142.5t138 -58.5q68 0 117 37.5t76 90.5t36 103h101v-8q0 -8 -2 -24q-8 -75 -52 -147t-117.5 -118t-163.5 -46q-99 0 -165.5 45.5t-98.5 119t-32 157.5q0 15 1 21z" />
    <glyph glyph-name="Aogonek" unicode="&#x104;" horiz-adv-x="1265" 
d="M1176 -342q-45 -38 -107 -66t-139 -28q-64 0 -106.5 24t-62 58.5t-19.5 66.5q0 91 77.5 160.5t182.5 127.5l-76 430h-614l-201 -431h-161l745 1530h168l289 -1530h-28q-67 -44 -112.5 -77t-83.5 -77.5t-38 -87.5q0 -38 24.5 -59t63.5 -21q83 0 158 58zM906 546l-129 734
l-15 115l-55 -119l-341 -730h540z" />
    <glyph glyph-name="aogonek" unicode="&#x105;" horiz-adv-x="1152" 
d="M897 -263l40 -78q-44 -38 -106.5 -66t-140.5 -28q-64 0 -106 23.5t-61.5 58t-19.5 67.5q0 64 43 119.5t97 93t122 76.5l19 199v3q-63 -91 -161 -156t-212 -65q-158 0 -238 115.5t-80 315.5q0 169 70.5 340.5t213.5 286t349 114.5q47 0 105 -10t109 -26l113 36l-157 -1156
h-12q-69 -45 -113 -77.5t-82 -77t-38 -87.5q0 -38 24.5 -59t63.5 -21q82 0 158 59zM586 143.5q72 43.5 127 105.5t90 123l20 185l64 451q-39 18 -88 28t-97 10q-143 0 -246 -93t-156 -235t-53 -285q0 -166 48 -249.5t141 -83.5q78 0 150 43.5z" />
    <glyph glyph-name="Cacute" unicode="&#x106;" horiz-adv-x="1141" 
d="M969.5 1534q59.5 -12 126.5 -34l51 -16l-53 -126q-8 3 -45.5 20.5t-97.5 29.5t-133 12q-181 0 -306.5 -112.5t-186.5 -286.5t-61 -358q0 -156 40 -282t126.5 -201t218.5 -75q76 0 149 17t129 41.5t88 47.5l23 -128q-157 -98 -416 -98q-184 0 -298.5 96t-164 246.5
t-49.5 324.5q0 262 94 465.5t257 316t363 112.5q86 0 145.5 -12zM1037 2000l95 -97q-44 -74 -140.5 -163t-175.5 -137l-57 51z" />
    <glyph glyph-name="cacute" unicode="&#x107;" horiz-adv-x="911" 
d="M873 1704l115 -104q-20 -34 -84.5 -105.5t-141.5 -141.5t-134 -104l-63 55zM783 1145.5q60 -10.5 100 -30.5l-39 -128q-36 29 -86.5 43t-107.5 14q-107 0 -201 -82t-151 -219.5t-57 -294.5q0 -179 60.5 -264.5t181.5 -85.5q80 0 146.5 37.5t139.5 109.5l50 -82
q-51 -67 -144.5 -123t-213.5 -56q-180 0 -276 119t-96 330q0 166 67.5 334t198 278.5t309.5 110.5q59 0 119 -10.5z" />
    <glyph glyph-name="Ccircumflex" unicode="&#x108;" horiz-adv-x="1141" 
d="M969.5 1534q59.5 -12 126.5 -34l51 -16l-53 -126q-8 3 -45.5 20.5t-97.5 29.5t-133 12q-181 0 -306.5 -112.5t-186.5 -286.5t-61 -358q0 -156 40 -282t126.5 -201t218.5 -75q76 0 149 17t129 41.5t88 47.5l23 -128q-157 -98 -416 -98q-184 0 -298.5 96t-164 246.5
t-49.5 324.5q0 262 94 465.5t257 316t363 112.5q86 0 145.5 -12zM820 2000h136l205 -348l-73 -53l-219 265l-330 -270l-59 59z" />
    <glyph glyph-name="ccircumflex" unicode="&#x109;" horiz-adv-x="911" 
d="M688 1710h137l203 -377l-73 -53l-218 294l-333 -299l-59 59zM783 1145.5q60 -10.5 100 -30.5l-39 -128q-36 29 -86.5 43t-107.5 14q-107 0 -201 -82t-151 -219.5t-57 -294.5q0 -179 60.5 -264.5t181.5 -85.5q80 0 146.5 37.5t139.5 109.5l50 -82q-51 -67 -144.5 -123
t-213.5 -56q-180 0 -276 119t-96 330q0 166 67.5 334t198 278.5t309.5 110.5q59 0 119 -10.5z" />
    <glyph glyph-name="Cdotaccent" unicode="&#x10a;" horiz-adv-x="1141" 
d="M747 1858.5q16 28.5 41.5 45t52.5 16.5q42 0 66.5 -24t24.5 -64q0 -34 -16 -63t-43 -45.5t-58 -16.5q-36 0 -60 25.5t-24 64.5q0 33 16 61.5zM969.5 1534q59.5 -12 126.5 -34l51 -16l-53 -126q-8 3 -45.5 20.5t-97.5 29.5t-133 12q-181 0 -306.5 -112.5t-186.5 -286.5
t-61 -358q0 -156 40 -282t126.5 -201t218.5 -75q76 0 149 17t129 41.5t88 47.5l23 -128q-157 -98 -416 -98q-184 0 -298.5 96t-164 246.5t-49.5 324.5q0 262 94 465.5t257 316t363 112.5q86 0 145.5 -12z" />
    <glyph glyph-name="cdotaccent" unicode="&#x10b;" horiz-adv-x="911" 
d="M783 1145.5q60 -10.5 100 -30.5l-39 -128q-36 29 -86.5 43t-107.5 14q-107 0 -201 -82t-151 -219.5t-57 -294.5q0 -179 60.5 -264.5t181.5 -85.5q80 0 146.5 37.5t139.5 109.5l50 -82q-51 -67 -144.5 -123t-213.5 -56q-180 0 -276 119t-96 330q0 166 67.5 334t198 278.5
t309.5 110.5q59 0 119 -10.5zM597.5 1582q15.5 28 41 44.5t54.5 16.5q42 0 67 -24.5t25 -63.5q0 -34 -16 -63t-43 -46t-58 -17q-37 0 -61.5 25.5t-24.5 65.5q0 34 15.5 62z" />
    <glyph glyph-name="Ccaron" unicode="&#x10c;" horiz-adv-x="1141" 
d="M969.5 1534q59.5 -12 126.5 -34l51 -16l-53 -126q-8 3 -45.5 20.5t-97.5 29.5t-133 12q-181 0 -306.5 -112.5t-186.5 -286.5t-61 -358q0 -156 40 -282t126.5 -201t218.5 -75q76 0 149 17t129 41.5t88 47.5l23 -128q-157 -98 -416 -98q-184 0 -298.5 96t-164 246.5
t-49.5 324.5q0 262 94 465.5t257 316t363 112.5q86 0 145.5 -12zM560 2000l244 -270l321 270l63 -67l-322 -319h-135l-238 319z" />
    <glyph glyph-name="ccaron" unicode="&#x10d;" horiz-adv-x="911" 
d="M440 1680l249 -279l333 279l63 -67l-335 -328h-135l-242 328zM783 1145.5q60 -10.5 100 -30.5l-39 -128q-36 29 -86.5 43t-107.5 14q-107 0 -201 -82t-151 -219.5t-57 -294.5q0 -179 60.5 -264.5t181.5 -85.5q80 0 146.5 37.5t139.5 109.5l50 -82q-51 -67 -144.5 -123
t-213.5 -56q-180 0 -276 119t-96 330q0 166 67.5 334t198 278.5t309.5 110.5q59 0 119 -10.5z" />
    <glyph glyph-name="Dcaron" unicode="&#x10e;" horiz-adv-x="1377" 
d="M522 2000l244 -270l321 270l63 -67l-322 -319h-135l-238 319zM1200.5 432.5q-97.5 -212.5 -274.5 -333.5t-404 -115q-64 2 -113 7q-35 3 -102.5 6t-108.5 3h-77l193 1530h72q48 0 162 8q120 8 174 8q297 0 436.5 -170.5t139.5 -470.5q0 -260 -97.5 -472.5zM868.5 212
q135.5 113 204.5 295.5t69 390.5q0 189 -46.5 306t-148 173.5t-268.5 56.5q-93 0 -230 -19l-162 -1290q150 -26 255 -26q191 0 326.5 113z" />
    <glyph glyph-name="dcaron" unicode="&#x10f;" horiz-adv-x="1429" 
d="M1114 1637l-224 -1637h-132l20 208q-64 -92 -165 -158t-216 -66q-158 0 -238 116t-80 316q0 168 72 340t217 286t351 114q77 0 177 -25l70 506h148zM570.5 141.5q71.5 41.5 127.5 101.5t93 120l89 648q-40 17 -88.5 26.5t-95.5 9.5q-146 0 -251 -95.5t-158.5 -238
t-53.5 -279.5q0 -166 49 -250t141 -84q76 0 147.5 41.5zM1297 1426q0 59 -8 105.5t-21 66.5l7 25l133 35q29 -57 29 -180q0 -33 -1 -50q-4 -107 -39.5 -221.5t-88.5 -190.5l-78 30l-4 20q71 198 71 360z" />
    <glyph glyph-name="Dcroat" unicode="&#x110;" horiz-adv-x="1376" 
d="M1200.5 433.5q-97.5 -212.5 -274.5 -333.5t-404 -115q-64 2 -113 7q-35 3 -102.5 6t-108.5 3h-77l92 732h-160l12 100h161l88 698h72q48 0 162 8q120 8 174 8q297 0 436.5 -170.5t139.5 -470.5q0 -260 -97.5 -472.5zM868.5 213q135.5 113 204.5 295.5t69 390.5
q0 189 -46.5 306t-148 173.5t-268.5 56.5q-93 0 -230 -19l-73 -583h428l-12 -100h-429l-76 -607q150 -26 255 -26q191 0 326.5 113z" />
    <glyph glyph-name="dcroat" unicode="&#x111;" horiz-adv-x="1149" 
d="M1211 1292h-144l-177 -1292h-132l20 208q-64 -92 -165 -158t-216 -66q-158 0 -238 116t-80 316q0 168 72 340t217 286t351 114q77 0 177 -25l23 161h-290l13 100h290l34 245h148l-34 -245h144zM570.5 141.5q71.5 41.5 127.5 101.5t93 120l89 648q-40 17 -88.5 26.5
t-95.5 9.5q-146 0 -251 -95.5t-158.5 -238t-53.5 -279.5q0 -166 49 -250t141 -84q76 0 147.5 41.5z" />
    <glyph glyph-name="Emacron" unicode="&#x112;" horiz-adv-x="1138" 
d="M957 1862l-5 -114h-509l4 114h510zM1070 1530l-6 -120l-614 7l-73 -579l474 6l-9 -127l-479 11l-78 -614l737 13l-11 -127h-890l193 1530h756z" />
    <glyph glyph-name="emacron" unicode="&#x113;" horiz-adv-x="1031" 
d="M834.5 1123.5q62.5 -32.5 93.5 -89t31 -128.5q0 -152 -121 -254t-286.5 -152t-304.5 -57q-1 -11 -1 -33q0 -130 57.5 -219t192.5 -89q84 0 174.5 43t173.5 127l43 -86q-32 -44 -92.5 -91t-143 -79t-172.5 -32q-137 0 -225.5 65t-127.5 168.5t-36 223.5q5 199 81 362
t208.5 258t300.5 95q92 0 154.5 -32.5zM767.5 1006q-42.5 37 -119.5 37q-106 0 -192.5 -73.5t-139.5 -187.5t-64 -232q119 4 250 47.5t219.5 120t88.5 175.5q0 76 -42.5 113zM889 1551l-5 -114h-509l4 114h510z" />
    <glyph glyph-name="Ebreve" unicode="&#x114;" horiz-adv-x="1138" 
d="M425 1980h103q0 -15 3 -30q10 -84 56 -142.5t138 -58.5q68 0 117 37.5t76 90.5t36 103h101v-8q0 -8 -2 -24q-8 -75 -52 -147t-117.5 -118t-163.5 -46q-99 0 -165.5 45.5t-98.5 119t-32 157.5q0 15 1 21zM1070 1530l-6 -120l-614 7l-73 -579l474 6l-9 -127l-479 11
l-78 -614l737 13l-11 -127h-890l193 1530h756z" />
    <glyph glyph-name="ebreve" unicode="&#x115;" horiz-adv-x="1031" 
d="M834.5 1123.5q62.5 -32.5 93.5 -89t31 -128.5q0 -152 -121 -254t-286.5 -152t-304.5 -57q-1 -11 -1 -33q0 -130 57.5 -219t192.5 -89q84 0 174.5 43t173.5 127l43 -86q-32 -44 -92.5 -91t-143 -79t-172.5 -32q-137 0 -225.5 65t-127.5 168.5t-36 223.5q5 199 81 362
t208.5 258t300.5 95q92 0 154.5 -32.5zM767.5 1006q-42.5 37 -119.5 37q-106 0 -192.5 -73.5t-139.5 -187.5t-64 -232q119 4 250 47.5t219.5 120t88.5 175.5q0 76 -42.5 113zM349 1651h103q0 -15 3 -30q10 -84 56 -142.5t138 -58.5q68 0 117 37.5t76 90.5t36 103h101v-8
q0 -8 -2 -24q-8 -75 -52 -147t-117.5 -118t-163.5 -46q-99 0 -165.5 45.5t-98.5 119t-32 157.5q0 15 1 21z" />
    <glyph glyph-name="Edotaccent" unicode="&#x116;" horiz-adv-x="1138" 
d="M646 1858.5q16 28.5 41.5 45t52.5 16.5q42 0 66.5 -24t24.5 -64q0 -34 -16 -63t-43 -45.5t-58 -16.5q-36 0 -60 25.5t-24 64.5q0 33 16 61.5zM1070 1530l-6 -120l-614 7l-73 -579l474 6l-9 -127l-479 11l-78 -614l737 13l-11 -127h-890l193 1530h756z" />
    <glyph glyph-name="edotaccent" unicode="&#x117;" horiz-adv-x="1031" 
d="M834.5 1123.5q62.5 -32.5 93.5 -89t31 -128.5q0 -152 -121 -254t-286.5 -152t-304.5 -57q-1 -11 -1 -33q0 -130 57.5 -219t192.5 -89q84 0 174.5 43t173.5 127l43 -86q-32 -44 -92.5 -91t-143 -79t-172.5 -32q-137 0 -225.5 65t-127.5 168.5t-36 223.5q5 199 81 362
t208.5 258t300.5 95q92 0 154.5 -32.5zM767.5 1006q-42.5 37 -119.5 37q-106 0 -192.5 -73.5t-139.5 -187.5t-64 -232q119 4 250 47.5t219.5 120t88.5 175.5q0 76 -42.5 113zM581.5 1582q15.5 28 41 44.5t54.5 16.5q42 0 67 -24.5t25 -63.5q0 -34 -16 -63t-43 -46t-58 -17
q-37 0 -61.5 25.5t-24.5 65.5q0 34 15.5 62z" />
    <glyph glyph-name="Eogonek" unicode="&#x118;" horiz-adv-x="1138" 
d="M450 1417l-73 -579l474 6l-9 -127l-479 11l-78 -614l737 13l-11 -127h-64l-20 -13q-62 -40 -106 -73t-78.5 -74.5t-34.5 -81.5q0 -38 24.5 -59t63.5 -21q84 0 159 58l39 -78q-43 -37 -105.5 -65.5t-140.5 -28.5q-64 0 -106.5 24t-62 58.5t-19.5 66.5q0 63 43.5 118
t98.5 93.5t122 75.5h-703l193 1530h756l-6 -120z" />
    <glyph glyph-name="eogonek" unicode="&#x119;" horiz-adv-x="1042" 
d="M670.5 145q90.5 43 173.5 127l43 -86q-28 -37 -63 -67l4 2q-17 -17 -62 -57q-115 -105 -186 -181.5t-71 -124.5q0 -38 24.5 -59t63.5 -21q82 0 158 59l40 -78q-44 -38 -106 -66t-140 -28q-64 0 -106.5 23.5t-62 58t-19.5 67.5q0 78 74 152t171 135q-62 -17 -127 -17
q-137 0 -225.5 65t-127.5 168.5t-36 223.5q5 199 81 362t208.5 258t300.5 95q92 0 154.5 -32.5t93.5 -89t31 -128.5q0 -152 -121 -254t-286.5 -152t-304.5 -57q-1 -11 -1 -33q0 -130 57.5 -219t192.5 -89q84 0 174.5 43zM455.5 969.5q-86.5 -73.5 -139.5 -187.5t-64 -232
q119 4 250 47.5t219.5 120t88.5 175.5q0 76 -42.5 113t-119.5 37q-106 0 -192.5 -73.5z" />
    <glyph glyph-name="Ecaron" unicode="&#x11a;" horiz-adv-x="1138" 
d="M460 2000l244 -270l321 270l63 -67l-322 -319h-135l-238 319zM1070 1530l-6 -120l-614 7l-73 -579l474 6l-9 -127l-479 11l-78 -614l737 13l-11 -127h-890l193 1530h756z" />
    <glyph glyph-name="ecaron" unicode="&#x11b;" horiz-adv-x="1031" 
d="M425 1680l249 -279l333 279l63 -67l-335 -328h-135l-242 328zM834.5 1123.5q62.5 -32.5 93.5 -89t31 -128.5q0 -152 -121 -254t-286.5 -152t-304.5 -57q-1 -11 -1 -33q0 -130 57.5 -219t192.5 -89q84 0 174.5 43t173.5 127l43 -86q-32 -44 -92.5 -91t-143 -79t-172.5 -32
q-137 0 -225.5 65t-127.5 168.5t-36 223.5q5 199 81 362t208.5 258t300.5 95q92 0 154.5 -32.5zM767.5 1006q-42.5 37 -119.5 37q-106 0 -192.5 -73.5t-139.5 -187.5t-64 -232q119 4 250 47.5t219.5 120t88.5 175.5q0 76 -42.5 113z" />
    <glyph glyph-name="Gcircumflex" unicode="&#x11c;" horiz-adv-x="1340" 
d="M802 729h430l-82 -635q-26 -3 -56 -10.5t-81 -22.5l-31 -9q-104 -32 -188 -50.5t-178 -18.5q-170 0 -282.5 92.5t-165.5 238.5t-56 313q-5 268 91.5 477.5t265.5 325.5t376 116q121 0 204 -15.5t159 -39.5l39 -12l-48 -137q-56 33 -145 57.5t-211 24.5
q-184 0 -315 -111.5t-197 -288.5t-66 -369q0 -146 38 -271t122.5 -204t217.5 -79q79 0 176.5 24t195.5 61l53 421l-281 1zM852 2000h136l205 -348l-73 -53l-219 265l-330 -270l-59 59z" />
    <glyph glyph-name="gcircumflex" unicode="&#x11d;" horiz-adv-x="1149" 
d="M744 1710h137l203 -377l-73 -53l-218 294l-333 -299l-59 59zM1055 1156l-176 -1245q-21 -148 -102 -241.5t-188.5 -134t-217.5 -40.5q-65 0 -145.5 11t-110.5 24l38 126q46 -21 111 -34.5t135 -13.5q137 0 221 77.5t110 222.5l48 300q-64 -92 -165 -158t-216 -66
q-158 0 -238 116t-80 316q0 168 72 340t217 286t351 114q49 0 109 -10.5t111 -25.5zM884 1010q-40 17 -90 26.5t-98 9.5q-146 0 -251 -95.5t-158.5 -237.5t-53.5 -279q0 -166 49 -250t141 -84q74 0 145 40t126.5 98.5t93.5 119.5z" />
    <glyph glyph-name="Gbreve" unicode="&#x11e;" horiz-adv-x="1340" 
d="M557 1980h103q0 -15 3 -30q10 -84 56 -142.5t138 -58.5q68 0 117 37.5t76 90.5t36 103h101v-8q0 -8 -2 -24q-8 -75 -52 -147t-117.5 -118t-163.5 -46q-99 0 -165.5 45.5t-98.5 119t-32 157.5q0 15 1 21zM802 729h430l-82 -635q-26 -3 -56 -10.5t-81 -22.5l-31 -9
q-104 -32 -188 -50.5t-178 -18.5q-170 0 -282.5 92.5t-165.5 238.5t-56 313q-5 268 91.5 477.5t265.5 325.5t376 116q121 0 204 -15.5t159 -39.5l39 -12l-48 -137q-56 33 -145 57.5t-211 24.5q-184 0 -315 -111.5t-197 -288.5t-66 -369q0 -146 38 -271t122.5 -204t217.5 -79
q79 0 176.5 24t195.5 61l53 421l-281 1z" />
    <glyph glyph-name="gbreve" unicode="&#x11f;" horiz-adv-x="1149" 
d="M1055 1156l-176 -1245q-21 -148 -102 -241.5t-188.5 -134t-217.5 -40.5q-65 0 -145.5 11t-110.5 24l38 126q46 -21 111 -34.5t135 -13.5q137 0 221 77.5t110 222.5l48 300q-64 -92 -165 -158t-216 -66q-158 0 -238 116t-80 316q0 168 72 340t217 286t351 114
q49 0 109 -10.5t111 -25.5zM884 1010q-40 17 -90 26.5t-98 9.5q-146 0 -251 -95.5t-158.5 -237.5t-53.5 -279q0 -166 49 -250t141 -84q74 0 145 40t126.5 98.5t93.5 119.5zM421 1651h103q0 -15 3 -30q10 -84 56 -142.5t138 -58.5q68 0 117 37.5t76 90.5t36 103h101v-8
q0 -8 -2 -24q-8 -75 -52 -147t-117.5 -118t-163.5 -46q-99 0 -165.5 45.5t-98.5 119t-32 157.5q0 15 1 21z" />
    <glyph glyph-name="Gdotaccent" unicode="&#x120;" horiz-adv-x="1340" 
d="M778 1858.5q16 28.5 41.5 45t52.5 16.5q42 0 66.5 -24t24.5 -64q0 -34 -16 -63t-43 -45.5t-58 -16.5q-36 0 -60 25.5t-24 64.5q0 33 16 61.5zM802 729h430l-82 -635q-26 -3 -56 -10.5t-81 -22.5l-31 -9q-104 -32 -188 -50.5t-178 -18.5q-170 0 -282.5 92.5t-165.5 238.5
t-56 313q-5 268 91.5 477.5t265.5 325.5t376 116q121 0 204 -15.5t159 -39.5l39 -12l-48 -137q-56 33 -145 57.5t-211 24.5q-184 0 -315 -111.5t-197 -288.5t-66 -369q0 -146 38 -271t122.5 -204t217.5 -79q79 0 176.5 24t195.5 61l53 421l-281 1z" />
    <glyph glyph-name="gdotaccent" unicode="&#x121;" horiz-adv-x="1149" 
d="M1055 1156l-176 -1245q-21 -148 -102 -241.5t-188.5 -134t-217.5 -40.5q-65 0 -145.5 11t-110.5 24l38 126q46 -21 111 -34.5t135 -13.5q137 0 221 77.5t110 222.5l48 300q-64 -92 -165 -158t-216 -66q-158 0 -238 116t-80 316q0 168 72 340t217 286t351 114
q49 0 109 -10.5t111 -25.5zM884 1010q-40 17 -90 26.5t-98 9.5q-146 0 -251 -95.5t-158.5 -237.5t-53.5 -279q0 -166 49 -250t141 -84q74 0 145 40t126.5 98.5t93.5 119.5zM653.5 1582q15.5 28 41 44.5t54.5 16.5q42 0 67 -24.5t25 -63.5q0 -34 -16 -63t-43 -46t-58 -17
q-37 0 -61.5 25.5t-24.5 65.5q0 34 15.5 62z" />
    <glyph glyph-name="Gcommaaccent" unicode="&#x122;" horiz-adv-x="1340" 
d="M543 -143l94 91q55 -18 87 -78t32 -132q0 -77 -27.5 -141.5t-68 -105t-78.5 -51.5l-61 39l2 20q40 27 64 75t24 116q0 42 -20.5 77.5t-51.5 48.5zM802 729h430l-82 -635q-26 -3 -56 -10.5t-81 -22.5l-31 -9q-104 -32 -188 -50.5t-178 -18.5q-170 0 -282.5 92.5
t-165.5 238.5t-56 313q-5 268 91.5 477.5t265.5 325.5t376 116q121 0 204 -15.5t159 -39.5l39 -12l-48 -137q-56 33 -145 57.5t-211 24.5q-184 0 -315 -111.5t-197 -288.5t-66 -369q0 -146 38 -271t122.5 -204t217.5 -79q79 0 176.5 24t195.5 61l53 421l-281 1z" />
    <glyph glyph-name="gcommaaccent" unicode="&#x123;" horiz-adv-x="1149" 
d="M626 1295.5q-31 33.5 -47 81t-15 96.5q2 76 33 138.5t76 101.5t86 49l61 -39l-2 -20q-103 -61 -108 -182q-2 -46 22.5 -86.5t63.5 -49.5l-5 -40l-94 -92q-40 9 -71 42.5zM1055 1156l-176 -1245q-21 -148 -102 -241.5t-188.5 -134t-217.5 -40.5q-65 0 -145.5 11t-110.5 24
l38 126q46 -21 111 -34.5t135 -13.5q137 0 221 77.5t110 222.5l48 300q-64 -92 -165 -158t-216 -66q-158 0 -238 116t-80 316q0 168 72 340t217 286t351 114q49 0 109 -10.5t111 -25.5zM884 1010q-40 17 -90 26.5t-98 9.5q-146 0 -251 -95.5t-158.5 -237.5t-53.5 -279
q0 -166 49 -250t141 -84q74 0 145 40t126.5 98.5t93.5 119.5z" />
    <glyph glyph-name="Hcircumflex" unicode="&#x124;" horiz-adv-x="1410" 
d="M1340 1530l-192 -1530h-151l90 714h-726l-90 -714h-150l193 1530h150l-88 -701h726l88 701h150zM842 2000h136l205 -348l-73 -53l-219 265l-330 -270l-59 59z" />
    <glyph glyph-name="hcircumflex" unicode="&#x125;" horiz-adv-x="1198" 
d="M1007.5 1087q54.5 -69 54.5 -213q0 -47 -11 -134.5t-31 -226.5q-7 -50 -56 -368l-22 -145h-149q8 60 50 336q20 123 27 176q21 143 31 221t10 129q0 83 -31 119.5t-108 36.5q-63 0 -142.5 -42t-155.5 -110.5t-131 -144.5l-98 -721h-148l211 1637h148l-21 -179l335 341
h136l205 -348l-73 -53l-219 265l-330 -270l-55 55l-33 -290l-44 -288q95 122 223.5 204t251.5 82q121 0 175.5 -69z" />
    <glyph glyph-name="Hbar" unicode="&#x126;" horiz-adv-x="1410" 
d="M1505 1036h-227l-130 -1036h-151l77 610h-726l-77 -610h-150l131 1036h-196l11 115h199l48 379h150l-48 -379h726l48 379h150l-48 -379h224zM1128 1036h-726l-40 -311h726z" />
    <glyph glyph-name="hbar" unicode="&#x127;" horiz-adv-x="1198" 
d="M1007.5 1087q54.5 -69 54.5 -213q0 -47 -11 -134.5t-31 -226.5q-7 -50 -56 -368l-22 -145h-149q8 60 50 336q20 123 27 176q21 143 31 221t10 129q0 83 -31 119.5t-108 36.5q-63 0 -142.5 -42t-155.5 -110.5t-131 -144.5l-98 -721h-148l167 1292h-131l13 100h130l32 245
h148l-28 -245h300l-13 -100h-299l-15 -134l-44 -288q95 122 223.5 204t251.5 82q121 0 175.5 -69z" />
    <glyph glyph-name="Itilde" unicode="&#x128;" horiz-adv-x="572" 
d="M489 1530l-193 -1530h-151l193 1530h151zM134.5 1878q43.5 38 97.5 62t105 24q53 0 89 -22t78 -63q33 -32 56.5 -47.5t53.5 -15.5q37 0 65.5 19t45 40.5t43.5 61.5l66 -70q-16 -47 -55 -87t-90.5 -63.5t-103.5 -23.5q-56 0 -92 21t-78 61q-35 33 -59.5 48.5t-58.5 16.5
q-37 0 -65.5 -16t-43.5 -32t-51 -59l-67 65q21 42 64.5 80z" />
    <glyph glyph-name="itilde" unicode="&#x129;" horiz-adv-x="564" 
d="M436 1144l-155 -1144h-148l154 1144h149zM84 1564q43 38 96 62t103 24q53 0 89.5 -21t79.5 -61q34 -32 57.5 -47t53.5 -15q47 0 79 27.5t51.5 55t24.5 34.5l66 -70q-16 -46 -55.5 -85t-91 -62.5t-103.5 -23.5q-39 0 -69 11.5t-51 27t-50 42.5q-35 32 -60 47.5t-60 16.5
q-44 0 -74.5 -24t-68.5 -68q1 2 -13 -16l-68 65q21 42 64 80z" />
    <glyph glyph-name="Imacron" unicode="&#x12a;" horiz-adv-x="572" 
d="M489 1530l-193 -1530h-151l193 1530h151zM675 1862l-5 -114h-509l4 114h510z" />
    <glyph glyph-name="imacron" unicode="&#x12b;" horiz-adv-x="564" 
d="M436 1144l-155 -1144h-148l154 1144h149zM640 1551l-5 -114h-509l4 114h510z" />
    <glyph glyph-name="Ibreve" unicode="&#x12c;" horiz-adv-x="572" 
d="M489 1530l-193 -1530h-151l193 1530h151zM143 1980h103q0 -15 3 -30q10 -84 56 -142.5t138 -58.5q68 0 117 37.5t76 90.5t36 103h101v-8q0 -8 -2 -24q-8 -75 -52 -147t-117.5 -118t-163.5 -46q-99 0 -165.5 45.5t-98.5 119t-32 157.5q0 15 1 21z" />
    <glyph glyph-name="ibreve" unicode="&#x12d;" horiz-adv-x="564" 
d="M436 1144l-155 -1144h-148l154 1144h149zM100 1651h103q0 -15 3 -30q10 -84 56 -142.5t138 -58.5q68 0 117 37.5t76 90.5t36 103h101v-8q0 -8 -2 -24q-8 -75 -52 -147t-117.5 -118t-163.5 -46q-99 0 -165.5 45.5t-98.5 119t-32 157.5q0 15 1 21z" />
    <glyph glyph-name="Iogonek" unicode="&#x12e;" horiz-adv-x="572" 
d="M272 -264l40 -78q-45 -38 -107.5 -66t-139.5 -28q-64 0 -106 24t-61.5 58t-19.5 67q0 64 44 119.5t99.5 94t123.5 75.5l193 1528h151l-193 -1530h-31q-74 -48 -117.5 -79t-82.5 -75.5t-39 -87.5q0 -38 24.5 -59t63.5 -21q83 0 158 58z" />
    <glyph glyph-name="iogonek" unicode="&#x12f;" horiz-adv-x="606" 
d="M501 1615.5q25 -24.5 25 -63.5q0 -34 -16 -63t-43 -46t-58 -17q-37 0 -61.5 25.5t-24.5 65.5q0 34 15.5 62t41 44.5t54.5 16.5q42 0 67 -24.5zM156 -77.5q-44 -32.5 -82 -77t-38 -87.5q0 -38 24 -59t63 -21q84 0 159 58l40 -77q-44 -38 -106.5 -66t-140.5 -28
q-64 0 -106.5 23.5t-62 58t-19.5 66.5q0 91 77.5 160t184.5 129l154 1142h149l-155 -1144h-28q-69 -45 -113 -77.5z" />
    <glyph glyph-name="Idotaccent" unicode="&#x130;" horiz-adv-x="572" 
d="M489 1530l-193 -1530h-151l193 1530h151zM364 1858.5q16 28.5 41.5 45t52.5 16.5q42 0 66.5 -24t24.5 -64q0 -34 -16 -63t-43 -45.5t-58 -16.5q-36 0 -60 25.5t-24 64.5q0 33 16 61.5z" />
    <glyph glyph-name="dotlessi" unicode="&#x131;" horiz-adv-x="564" 
d="M436 1144l-155 -1144h-148l154 1144h149z" />
    <glyph glyph-name="IJ" unicode="&#x132;" horiz-adv-x="1156" 
d="M489 1530l-193 -1530h-151l193 1530h151zM1073 1530q-54 -506 -111.5 -945t-79.5 -510q-39 -131 -105.5 -213t-151 -124t-194.5 -61l-28 68q93 25 163 79t112.5 122t57.5 139q42 198 75.5 463t75.5 660l35 322h151z" />
    <glyph glyph-name="ij" unicode="&#x133;" horiz-adv-x="1140" 
d="M436 1144l-155 -1144h-148l154 1144h149zM332.5 1582q15.5 28 41 44.5t54.5 16.5q42 0 67 -24.5t25 -63.5q0 -34 -16 -63t-43 -46t-58 -17q-37 0 -61.5 25.5t-24.5 65.5q0 34 15.5 62zM1008 1144l-153 -1139q-33 -249 -135.5 -384.5t-263.5 -135.5q-45 0 -80 11t-56 27
l40 86q10 -8 32.5 -14t42.5 -6q90 0 145 59t84 159t49 252l146 1085h149zM885.5 1582q15.5 28 41 44.5t54.5 16.5q42 0 67 -24.5t25 -63.5q0 -34 -16 -63t-43 -46t-58 -17q-37 0 -61.5 25.5t-24.5 65.5q0 34 15.5 62z" />
    <glyph glyph-name="Jcircumflex" unicode="&#x134;" horiz-adv-x="584" 
d="M501 1530q-54 -506 -111.5 -945t-79.5 -510q-39 -131 -105.5 -213t-151 -124t-194.5 -61l-28 68q93 25 163 79t112.5 122t57.5 139q42 198 75.5 463t75.5 660l35 322h151zM448 2000h136l205 -348l-73 -53l-219 265l-330 -270l-59 59z" />
    <glyph glyph-name="jcircumflex" unicode="&#x135;" horiz-adv-x="576" 
d="M444 1144l-153 -1139q-33 -249 -135.5 -384.5t-263.5 -135.5q-45 0 -80 11t-56 27l40 86q10 -8 32.5 -14t42.5 -6q90 0 145 59t84 159t49 252l146 1085h149zM412 1713h137l203 -377l-73 -53l-218 294l-333 -299l-59 59z" />
    <glyph glyph-name="Kcommaaccent" unicode="&#x136;" horiz-adv-x="1245" 
d="M528 -141l94 91q55 -18 87 -78t32 -132q0 -77 -27.5 -141.5t-68 -105t-78.5 -51.5l-61 39l2 20q40 27 64 75t24 116q0 42 -20.5 77.5t-51.5 48.5zM861 509q-8 14 93 -164l21 -37q72 -126 111.5 -191.5t76.5 -116.5h-181q-9 10 -43 70.5t-76 137.5l-74 136l-43 79
q-128 236 -181 326l-231 -252l-63 -497h-150l193 1530h150l-104 -827l745 827h178l-622 -676q72 -116 200 -345z" />
    <glyph glyph-name="kcommaaccent" unicode="&#x137;" horiz-adv-x="1023" 
d="M375 -143l94 91q55 -18 87 -78t32 -132q0 -77 -27.5 -141.5t-68 -105t-78.5 -51.5l-61 39l2 20q40 27 64 75t24 116q0 42 -20.5 77.5t-51.5 48.5zM453 1637l-207 -1637h-149l208 1637h148zM732.5 720.5q-95.5 -70.5 -185.5 -114.5l420 -603h-173l-419 625l1 1h-1
q111 63 193.5 120.5t140.5 126.5q106 121 151 264h143q-11 -129 -112 -264q-63 -85 -158.5 -155.5z" />
    <glyph glyph-name="kgreenlandic" unicode="&#x138;" horiz-adv-x="1023" 
d="M384 1151l-153 -1151h-148l154 1151h147zM854.5 835q-73.5 -79 -156 -138.5t-151.5 -93.5l420 -603h-173l-419 625l1 1h-1q309 175 427 374q43 70 63 151h142q-5 -79 -41 -151q-38 -86 -111.5 -165z" />
    <glyph glyph-name="Lacute" unicode="&#x139;" horiz-adv-x="978" 
d="M660 2002l95 -97q-44 -74 -140.5 -163t-175.5 -137l-57 51zM464 1530l-177 -1404l593 4l-16 -130h-743l193 1530h150z" />
    <glyph glyph-name="lacute" unicode="&#x13a;" horiz-adv-x="563" 
d="M662 2000l95 -97q-44 -74 -140.5 -163t-175.5 -137l-57 51zM490 1524l-208 -1524h-149l209 1524h148z" />
    <glyph glyph-name="Lcommaaccent" unicode="&#x13b;" horiz-adv-x="978" 
d="M427 -141l94 91q55 -18 87 -78t32 -132q0 -77 -27.5 -141.5t-68 -105t-78.5 -51.5l-61 39l2 20q40 27 64 75t24 116q0 42 -20.5 77.5t-51.5 48.5zM464 1530l-177 -1404l593 4l-16 -130h-743l193 1530h150z" />
    <glyph glyph-name="lcommaaccent" unicode="&#x13c;" horiz-adv-x="563" 
d="M101 -143l94 91q55 -18 87 -78t32 -132q0 -77 -27.5 -141.5t-68 -105t-78.5 -51.5l-61 39l2 20q40 27 64 75t24 116q0 42 -20.5 77.5t-51.5 48.5zM504 1637l-222 -1634h-149l223 1634h148z" />
    <glyph glyph-name="Lcaron" unicode="&#x13d;" horiz-adv-x="978" 
d="M464 1530l-177 -1404l593 4l-16 -130h-743l193 1530h150zM864 1385q0 59 -8 105.5t-21 66.5l7 25l133 35q29 -57 29 -180q0 -33 -1 -50q-4 -107 -39.5 -221.5t-88.5 -190.5l-78 30l-4 20q71 198 71 360z" />
    <glyph glyph-name="lcaron" unicode="&#x13e;" horiz-adv-x="793" 
d="M504 1637l-222 -1634h-149l223 1634h148zM730 1426q0 59 -8 105.5t-21 66.5l7 25l133 35q29 -57 29 -180q0 -33 -1 -50q-4 -107 -39.5 -221.5t-88.5 -190.5l-78 30l-4 20q71 198 71 360z" />
    <glyph glyph-name="Ldot" unicode="&#x13f;" horiz-adv-x="1066" 
d="M464 1530l-177 -1404l593 4l-16 -130h-743l193 1530h150zM984.5 968q21.5 -24 21.5 -65q0 -63 -32.5 -97t-88.5 -34q-38 0 -63.5 24.5t-25.5 65.5q0 55 33.5 92.5t87.5 37.5q46 0 67.5 -24z" />
    <glyph glyph-name="ldot" unicode="&#x140;" horiz-adv-x="846" 
d="M504 1637l-222 -1634h-149l223 1634h148zM815.5 845q21.5 -24 21.5 -65q0 -63 -32.5 -97t-88.5 -34q-38 0 -63.5 24.5t-25.5 65.5q0 55 33.5 92.5t87.5 37.5q46 0 67.5 -24z" />
    <glyph glyph-name="Lslash" unicode="&#x141;" horiz-adv-x="978" 
d="M880 131l-16 -130h-743l75 592l-197 -83l-28 91l239 103l104 827h150l-96 -759l428 185l27 -98l-469 -199l-67 -533z" />
    <glyph glyph-name="lslash" unicode="&#x142;" horiz-adv-x="563" 
d="M595 1048l-181 -71l-132 -974h-149l124 912l-196 -78v105l212 87l83 608h148l-74 -544l165 68v-113z" />
    <glyph glyph-name="Nacute" unicode="&#x143;" horiz-adv-x="1402" 
d="M1083 2000l95 -97q-44 -74 -140.5 -163t-175.5 -137l-57 51zM472 1530l491 -1127l72 -207l21 238l134 1096h143l-193 -1530h-149l-494 1122l-72 239l-29 -288l-134 -1073h-141l193 1530h158z" />
    <glyph glyph-name="nacute" unicode="&#x144;" horiz-adv-x="1194" 
d="M881 1704l115 -104q-20 -34 -84.5 -105.5t-141.5 -141.5t-134 -104l-63 55zM1005.5 1087.5q54.5 -68.5 54.5 -211.5q0 -48 -11 -136t-31 -227q-15 -107 -43 -286l-34 -224h-149q17 124 51 341l25 168q21 141 31 220.5t10 130.5q0 83 -31.5 119t-108.5 36q-64 0 -144 -43
t-156.5 -112.5t-130.5 -146.5l-97 -713h-148l154 1137h141l-29 -265q95 121 222 201t249 80q121 0 175.5 -68.5z" />
    <glyph glyph-name="Ncommaaccent" unicode="&#x145;" horiz-adv-x="1402" 
d="M529 -143l94 91q55 -18 87 -78t32 -132q0 -77 -27.5 -141.5t-68 -105t-78.5 -51.5l-61 39l2 20q40 27 64 75t24 116q0 42 -20.5 77.5t-51.5 48.5zM472 1530l491 -1127l72 -207l21 238l134 1096h143l-193 -1530h-149l-494 1122l-72 239l-29 -288l-134 -1073h-141l193 1530
h158z" />
    <glyph glyph-name="ncommaaccent" unicode="&#x146;" horiz-adv-x="1194" 
d="M384 -143l94 91q55 -18 87 -78t32 -132q0 -77 -27.5 -141.5t-68 -105t-78.5 -51.5l-61 39l2 20q40 27 64 75t24 116q0 42 -20.5 77.5t-51.5 48.5zM1005.5 1087.5q54.5 -68.5 54.5 -211.5q0 -48 -11 -136t-31 -227q-15 -107 -43 -286l-34 -224h-149q17 124 51 341l25 168
q21 141 31 220.5t10 130.5q0 83 -31.5 119t-108.5 36q-64 0 -144 -43t-156.5 -112.5t-130.5 -146.5l-97 -713h-148l154 1137h141l-29 -265q95 121 222 201t249 80q121 0 175.5 -68.5z" />
    <glyph glyph-name="Ncaron" unicode="&#x147;" horiz-adv-x="1402" 
d="M606 2000l244 -270l321 270l63 -67l-322 -319h-135l-238 319zM472 1530l491 -1127l72 -207l21 238l134 1096h143l-193 -1530h-149l-494 1122l-72 239l-29 -288l-134 -1073h-141l193 1530h158z" />
    <glyph glyph-name="ncaron" unicode="&#x148;" horiz-adv-x="1194" 
d="M449 1680l249 -279l333 279l63 -67l-335 -328h-135l-242 328zM1005.5 1087.5q54.5 -68.5 54.5 -211.5q0 -48 -11 -136t-31 -227q-15 -107 -43 -286l-34 -224h-149q17 124 51 341l25 168q21 141 31 220.5t10 130.5q0 83 -31.5 119t-108.5 36q-64 0 -144 -43t-156.5 -112.5
t-130.5 -146.5l-97 -713h-148l154 1137h141l-29 -265q95 121 222 201t249 80q121 0 175.5 -68.5z" />
    <glyph glyph-name="Eng" unicode="&#x14a;" horiz-adv-x="1488" 
d="M1333 1530l-193 -1530h-3q-89 -253 -436 -315l-28 68q114 32 196.5 101.5t116.5 157.5l-489 1110l-72 239l-29 -288l-134 -1073h-141l193 1530h158l491 -1127l72 -207l21 238l134 1096h143z" />
    <glyph glyph-name="eng" unicode="&#x14b;" horiz-adv-x="1194" 
d="M1006 1086q55 -70 55 -223q-2 -92 -28 -274t-76 -487l-17 -102q-41 -258 -153 -388t-282 -130q-48 0 -89.5 11t-57.5 29l27 62q16 -9 46 -15t48 -6q139 0 211.5 132.5t108.5 353.5l22 133q42 258 65 419t23 254q0 84 -30.5 124t-103.5 40q-64 0 -145.5 -43.5t-159.5 -114
t-132 -148.5l-97 -713h-148l155 1140h141l-30 -268q96 121 225.5 202.5t251.5 81.5q115 0 170 -70z" />
    <glyph glyph-name="Omacron" unicode="&#x14c;" 
d="M1079 1862l-5 -114h-509l4 114h510zM204 1101.5q92 207.5 252.5 326.5t356.5 119q158 0 268 -87t164.5 -236t54.5 -332q0 -253 -89 -460.5t-247.5 -328t-358.5 -120.5q-157 0 -268.5 85t-168 233.5t-56.5 336.5q0 256 92 463.5zM1055 1284.5q-88 142.5 -266 142.5
q-147 0 -266 -105t-186.5 -281t-67.5 -381q0 -280 92.5 -420.5t267.5 -140.5q147 0 264.5 103t183.5 279t66 384q0 277 -88 419.5z" />
    <glyph glyph-name="omacron" unicode="&#x14d;" horiz-adv-x="1135" 
d="M910 1548l-5 -114h-509l4 114h510zM940.5 1033q94.5 -123 94.5 -351q0 -179 -71 -340t-197.5 -259.5t-285.5 -98.5q-188 0 -285.5 123.5t-97.5 350.5q0 179 72.5 340t201 259.5t287.5 98.5q187 0 281.5 -123zM706.5 184.5q84.5 87.5 128.5 222.5t44 274
q0 176 -58.5 269.5t-185.5 93.5q-118 0 -205 -87t-132.5 -222t-45.5 -274q0 -176 63 -270t190 -94q117 0 201.5 87.5z" />
    <glyph glyph-name="Obreve" unicode="&#x14e;" 
d="M546 1980h103q0 -15 3 -30q10 -84 56 -142.5t138 -58.5q68 0 117 37.5t76 90.5t36 103h101v-8q0 -8 -2 -24q-8 -75 -52 -147t-117.5 -118t-163.5 -46q-99 0 -165.5 45.5t-98.5 119t-32 157.5q0 15 1 21zM204 1101.5q92 207.5 252.5 326.5t356.5 119q158 0 268 -87
t164.5 -236t54.5 -332q0 -253 -89 -460.5t-247.5 -328t-358.5 -120.5q-157 0 -268.5 85t-168 233.5t-56.5 336.5q0 256 92 463.5zM1055 1284.5q-88 142.5 -266 142.5q-147 0 -266 -105t-186.5 -281t-67.5 -381q0 -280 92.5 -420.5t267.5 -140.5q147 0 264.5 103t183.5 279
t66 384q0 277 -88 419.5z" />
    <glyph glyph-name="obreve" unicode="&#x14f;" horiz-adv-x="1135" 
d="M940.5 1033q94.5 -123 94.5 -351q0 -179 -71 -340t-197.5 -259.5t-285.5 -98.5q-188 0 -285.5 123.5t-97.5 350.5q0 179 72.5 340t201 259.5t287.5 98.5q187 0 281.5 -123zM706.5 184.5q84.5 87.5 128.5 222.5t44 274q0 176 -58.5 269.5t-185.5 93.5q-118 0 -205 -87
t-132.5 -222t-45.5 -274q0 -176 63 -270t190 -94q117 0 201.5 87.5zM371 1651h103q0 -15 3 -30q10 -84 56 -142.5t138 -58.5q68 0 117 37.5t76 90.5t36 103h101v-8q0 -8 -2 -24q-8 -75 -52 -147t-117.5 -118t-163.5 -46q-99 0 -165.5 45.5t-98.5 119t-32 157.5q0 15 1 21z
" />
    <glyph glyph-name="Ohungarumlaut" unicode="&#x150;" 
d="M204 1101.5q92 207.5 252.5 326.5t356.5 119q158 0 268 -87t164.5 -236t54.5 -332q0 -253 -89 -460.5t-247.5 -328t-358.5 -120.5q-157 0 -268.5 85t-168 233.5t-56.5 336.5q0 256 92 463.5zM1055 1284.5q-88 142.5 -266 142.5q-147 0 -266 -105t-186.5 -281t-67.5 -381
q0 -280 92.5 -420.5t267.5 -140.5q147 0 264.5 103t183.5 279t66 384q0 277 -88 419.5zM1283 1996l103 -90q-28 -50 -91 -116t-137 -126t-130 -93l-57 50zM870 1994l101 -89q-36 -73 -138.5 -168.5t-202.5 -167.5l-72 50z" />
    <glyph glyph-name="ohungarumlaut" unicode="&#x151;" horiz-adv-x="1135" 
d="M622 1706l110 -88q-41 -89 -125.5 -202t-150.5 -166l-72 42zM1057 1706l110 -89q-25 -52 -77.5 -128t-110.5 -143t-97 -96l-73 42zM940.5 1033q94.5 -123 94.5 -351q0 -179 -71 -340t-197.5 -259.5t-285.5 -98.5q-188 0 -285.5 123.5t-97.5 350.5q0 179 72.5 340
t201 259.5t287.5 98.5q187 0 281.5 -123zM706.5 184.5q84.5 87.5 128.5 222.5t44 274q0 176 -58.5 269.5t-185.5 93.5q-118 0 -205 -87t-132.5 -222t-45.5 -274q0 -176 63 -270t190 -94q117 0 201.5 87.5z" />
    <glyph glyph-name="OE" unicode="&#x152;" horiz-adv-x="2125" 
d="M1438 1417l-73 -579l474 6l-9 -127l-479 11l-78 -614l737 13l-11 -127h-890l39 308q-92 -153 -230.5 -239t-307.5 -86q-159 0 -271.5 85t-169.5 233.5t-57 336.5q0 256 92.5 463.5t254 326.5t359.5 119q170 0 280.5 -98t159.5 -268l44 349h756l-6 -120zM902 202.5
q119 103.5 185.5 280t66.5 385.5q0 559 -360 559q-149 0 -269 -105t-188 -281t-68 -381q0 -281 93 -421t272 -140q149 0 268 103.5z" />
    <glyph glyph-name="oe" unicode="&#x153;" horiz-adv-x="1767" 
d="M1407 145q90 43 174 127l42 -86q-32 -44 -92.5 -91t-143 -79t-172.5 -32q-124 0 -208.5 53.5t-129.5 145.5q-75 -94 -174 -146.5t-214 -52.5q-191 0 -291 123.5t-100 349.5q0 178 72 339.5t201 260.5t289 99q122 0 208 -52.5t130 -154.5q79 98 186 152.5t232 54.5
q92 0 155 -32.5t94 -89t31 -128.5q0 -152 -121 -254t-286.5 -152t-304.5 -57q-1 -11 -1 -34q0 -130 57 -218.5t192 -88.5q85 0 175 43zM700.5 177.5q80.5 81.5 126.5 211.5q-1 17 -1 52q5 155 51 287q0 8 -0.5 19t-2.5 27q-28 269 -238 269q-119 0 -206 -87.5t-132.5 -222.5
t-45.5 -273q0 -176 65 -270t195 -94q108 0 188.5 81.5zM1191 969.5q-87 -73.5 -139.5 -187.5t-63.5 -232q119 4 250 47.5t219.5 120t88.5 175.5q0 76 -42.5 113t-119.5 37q-106 0 -193 -73.5z" />
    <glyph glyph-name="Racute" unicode="&#x154;" horiz-adv-x="1256" 
d="M898.5 530.5q54.5 -107.5 87.5 -193.5l32 -74q56 -131 81 -184t45 -80l-172 2q-36 57 -113 257q-61 175 -121.5 286t-122.5 112l-262 2l-82 -658h-151l192 1530h76q55 0 153 8t157 8q230 0 350.5 -93t120.5 -272q0 -122 -45 -225.5t-129 -175.5t-196 -102
q45 -40 99.5 -147.5zM832.5 827.5q83.5 50.5 128.5 141t45 206.5q0 255 -329 255q-36 0 -111.5 -5.5t-117.5 -10.5l-80 -635q34 -2 170 -2h98q113 0 196.5 50.5zM984 2000l95 -97q-44 -74 -140.5 -163t-175.5 -137l-57 51z" />
    <glyph glyph-name="racute" unicode="&#x155;" horiz-adv-x="778" 
d="M564 1704l115 -104q-20 -34 -84.5 -105.5t-141.5 -141.5t-134 -104l-63 55zM806 1143l-33 -158q-27 13 -92 13q-56 0 -123 -40.5t-128 -113t-98 -164.5l-91 -680h-148l153 1140h140l-26 -251q30 60 87 122t134 103.5t161 41.5q50 0 64 -13z" />
    <glyph glyph-name="Rcommaaccent" unicode="&#x156;" horiz-adv-x="1256" 
d="M511 -143l94 91q55 -18 87 -78t32 -132q0 -77 -27.5 -141.5t-68 -105t-78.5 -51.5l-61 39l2 20q40 27 64 75t24 116q0 42 -20.5 77.5t-51.5 48.5zM898.5 530.5q54.5 -107.5 87.5 -193.5l32 -74q56 -131 81 -184t45 -80l-172 2q-36 57 -113 257q-61 175 -121.5 286
t-122.5 112l-262 2l-82 -658h-151l192 1530h76q55 0 153 8t157 8q230 0 350.5 -93t120.5 -272q0 -122 -45 -225.5t-129 -175.5t-196 -102q45 -40 99.5 -147.5zM832.5 827.5q83.5 50.5 128.5 141t45 206.5q0 255 -329 255q-36 0 -111.5 -5.5t-117.5 -10.5l-80 -635
q34 -2 170 -2h98q113 0 196.5 50.5z" />
    <glyph glyph-name="rcommaaccent" unicode="&#x157;" horiz-adv-x="778" 
d="M37 -143l94 91q55 -18 87 -78t32 -132q0 -77 -27.5 -141.5t-68 -105t-78.5 -51.5l-61 39l2 20q40 27 64 75t24 116q0 42 -20.5 77.5t-51.5 48.5zM806 1143l-33 -158q-27 13 -92 13q-56 0 -123 -40.5t-128 -113t-98 -164.5l-91 -680h-148l153 1140h140l-26 -251
q30 60 87 122t134 103.5t161 41.5q50 0 64 -13z" />
    <glyph glyph-name="Rcaron" unicode="&#x158;" horiz-adv-x="1256" 
d="M507 2000l244 -270l321 270l63 -67l-322 -319h-135l-238 319zM898.5 530.5q54.5 -107.5 87.5 -193.5l32 -74q56 -131 81 -184t45 -80l-172 2q-36 57 -113 257q-61 175 -121.5 286t-122.5 112l-262 2l-82 -658h-151l192 1530h76q55 0 153 8t157 8q230 0 350.5 -93
t120.5 -272q0 -122 -45 -225.5t-129 -175.5t-196 -102q45 -40 99.5 -147.5zM832.5 827.5q83.5 50.5 128.5 141t45 206.5q0 255 -329 255q-36 0 -111.5 -5.5t-117.5 -10.5l-80 -635q34 -2 170 -2h98q113 0 196.5 50.5z" />
    <glyph glyph-name="rcaron" unicode="&#x159;" horiz-adv-x="778" 
d="M132 1680l249 -279l333 279l63 -67l-335 -328h-135l-242 328zM806 1143l-33 -158q-27 13 -92 13q-56 0 -123 -40.5t-128 -113t-98 -164.5l-91 -680h-148l153 1140h140l-26 -251q30 60 87 122t134 103.5t161 41.5q50 0 64 -13z" />
    <glyph glyph-name="Sacute" unicode="&#x15a;" horiz-adv-x="1044" 
d="M143.5 153q53.5 -22 124 -36.5t139.5 -14.5q97 0 178 29t130.5 90t49.5 153q0 99 -58.5 173.5t-184.5 155.5q-101 66 -169.5 122.5t-117 141t-48.5 193.5q0 120 59.5 207.5t163.5 133.5t235 46q226 0 346 -85l-48 -116q-41 41 -121.5 63t-166.5 22q-124 0 -220.5 -55.5
t-96.5 -196.5q0 -82 33 -142t86.5 -104t153.5 -110q96 -63 159 -115.5t107.5 -129.5t44.5 -176q0 -134 -67 -228t-184.5 -142t-266.5 -48q-80 0 -158 14t-135.5 35t-81.5 40l42 123q19 -21 72.5 -43zM907 2000l95 -97q-44 -74 -140.5 -163t-175.5 -137l-57 51z" />
    <glyph glyph-name="sacute" unicode="&#x15b;" horiz-adv-x="872" 
d="M758 1704l115 -104q-20 -34 -84.5 -105.5t-141.5 -141.5t-134 -104l-63 55zM187.5 122.5q72.5 -25.5 159.5 -25.5q104 0 169 44t65 131q0 47 -21.5 85t-53 67.5t-87.5 72.5q-10 7 -30 23q-71 56 -114 97.5t-72.5 100.5t-29.5 136q0 96 51 164t136.5 103t189.5 35
q83 0 153.5 -14t100.5 -30l-29 -140q-8 11 -38 28t-79 30.5t-108 13.5q-108 0 -171 -46.5t-63 -124.5q0 -52 21 -93t52.5 -70t82.5 -68l18 -14l17 -13q65 -49 110.5 -91t78.5 -102t33 -133q0 -98 -50 -167t-138.5 -103.5t-201.5 -34.5q-94 0 -180 19.5t-114 44.5l28 130
q42 -30 114.5 -55.5z" />
    <glyph glyph-name="Scircumflex" unicode="&#x15c;" horiz-adv-x="1044" 
d="M143.5 153q53.5 -22 124 -36.5t139.5 -14.5q97 0 178 29t130.5 90t49.5 153q0 99 -58.5 173.5t-184.5 155.5q-101 66 -169.5 122.5t-117 141t-48.5 193.5q0 120 59.5 207.5t163.5 133.5t235 46q226 0 346 -85l-48 -116q-41 41 -121.5 63t-166.5 22q-124 0 -220.5 -55.5
t-96.5 -196.5q0 -82 33 -142t86.5 -104t153.5 -110q96 -63 159 -115.5t107.5 -129.5t44.5 -176q0 -134 -67 -228t-184.5 -142t-266.5 -48q-80 0 -158 14t-135.5 35t-81.5 40l42 123q19 -21 72.5 -43zM690 2000h136l205 -348l-73 -53l-219 265l-330 -270l-59 59z" />
    <glyph glyph-name="scircumflex" unicode="&#x15d;" horiz-adv-x="872" 
d="M573 1710h137l203 -377l-73 -53l-218 294l-333 -299l-59 59zM187.5 122.5q72.5 -25.5 159.5 -25.5q104 0 169 44t65 131q0 47 -21.5 85t-53 67.5t-87.5 72.5q-10 7 -30 23q-71 56 -114 97.5t-72.5 100.5t-29.5 136q0 96 51 164t136.5 103t189.5 35q83 0 153.5 -14
t100.5 -30l-29 -140q-8 11 -38 28t-79 30.5t-108 13.5q-108 0 -171 -46.5t-63 -124.5q0 -52 21 -93t52.5 -70t82.5 -68l18 -14l17 -13q65 -49 110.5 -91t78.5 -102t33 -133q0 -98 -50 -167t-138.5 -103.5t-201.5 -34.5q-94 0 -180 19.5t-114 44.5l28 130q42 -30 114.5 -55.5
z" />
    <glyph glyph-name="Scedilla" unicode="&#x15e;" horiz-adv-x="1044" 
d="M434.5 1375.5q-96.5 -55.5 -96.5 -196.5q0 -82 33 -142t86.5 -104t153.5 -110q97 -64 159.5 -116.5t107 -129.5t44.5 -176q0 -122 -56 -211t-155 -139.5t-228 -62.5q29 -68 29 -169q0 -151 -72 -217.5t-191 -66.5q-41 0 -85.5 8.5t-60.5 20.5l20 115q34 -18 88 -18
q170 0 170 193q0 79 -8 131q-75 2 -146 16.5t-123.5 34t-74.5 37.5l42 123q19 -21 72.5 -43t124 -36.5t139.5 -14.5q97 0 178 29t130.5 90t49.5 153q0 99 -58.5 173.5t-184.5 155.5q-101 66 -169.5 122.5t-117 141t-48.5 193.5q0 120 59.5 207.5t163.5 133.5t235 46
q226 0 346 -85l-48 -116q-41 41 -121.5 63t-166.5 22q-124 0 -220.5 -55.5z" />
    <glyph glyph-name="scedilla" unicode="&#x15f;" horiz-adv-x="872" 
d="M703.5 1142q70.5 -14 100.5 -30l-29 -140q-8 11 -38 28t-79 30.5t-108 13.5q-108 0 -171 -46.5t-63 -124.5q0 -52 21 -93t52.5 -70t82.5 -68l18 -14l17 -13q65 -49 110.5 -91t78.5 -102t33 -133q0 -126 -80.5 -202.5t-216.5 -96.5q29 -66 29 -168q0 -151 -72 -217.5
t-191 -66.5q-41 0 -85.5 8.5t-60.5 20.5l20 115q34 -18 88 -18q170 0 170 193q0 74 -7 127q-91 2 -171.5 21t-106.5 43l28 130q42 -30 114.5 -55.5t159.5 -25.5q104 0 169 44t65 131q0 47 -21.5 85t-53 67.5t-87.5 72.5q-10 7 -30 23q-71 56 -114 97.5t-72.5 100.5
t-29.5 136q0 96 51 164t136.5 103t189.5 35q83 0 153.5 -14z" />
    <glyph glyph-name="Scaron" unicode="&#x160;" horiz-adv-x="1044" 
d="M143.5 153q53.5 -22 124 -36.5t139.5 -14.5q97 0 178 29t130.5 90t49.5 153q0 99 -58.5 173.5t-184.5 155.5q-101 66 -169.5 122.5t-117 141t-48.5 193.5q0 120 59.5 207.5t163.5 133.5t235 46q226 0 346 -85l-48 -116q-41 41 -121.5 63t-166.5 22q-124 0 -220.5 -55.5
t-96.5 -196.5q0 -82 33 -142t86.5 -104t153.5 -110q96 -63 159 -115.5t107.5 -129.5t44.5 -176q0 -134 -67 -228t-184.5 -142t-266.5 -48q-80 0 -158 14t-135.5 35t-81.5 40l42 123q19 -21 72.5 -43zM430 2000l244 -270l321 270l63 -67l-322 -319h-135l-238 319z" />
    <glyph glyph-name="scaron" unicode="&#x161;" horiz-adv-x="872" 
d="M326 1680l249 -279l333 279l63 -67l-335 -328h-135l-242 328zM187.5 122.5q72.5 -25.5 159.5 -25.5q104 0 169 44t65 131q0 47 -21.5 85t-53 67.5t-87.5 72.5q-10 7 -30 23q-71 56 -114 97.5t-72.5 100.5t-29.5 136q0 96 51 164t136.5 103t189.5 35q83 0 153.5 -14
t100.5 -30l-29 -140q-8 11 -38 28t-79 30.5t-108 13.5q-108 0 -171 -46.5t-63 -124.5q0 -52 21 -93t52.5 -70t82.5 -68l18 -14l17 -13q65 -49 110.5 -91t78.5 -102t33 -133q0 -98 -50 -167t-138.5 -103.5t-201.5 -34.5q-94 0 -180 19.5t-114 44.5l28 130q42 -30 114.5 -55.5
z" />
    <glyph glyph-name="uni0162" unicode="&#x162;" horiz-adv-x="1122" 
d="M1199 1530l-17 -120l-443 9l-179 -1419h-33q35 -72 35 -181q0 -151 -72 -217.5t-191 -66.5q-41 0 -85.5 8.5t-60.5 20.5l20 115q34 -18 88 -18q170 0 170 193q0 91 -11 146h-10l179 1419l-451 -9l17 120h1044z" />
    <glyph glyph-name="uni0163" unicode="&#x163;" horiz-adv-x="739" 
d="M336 362l-5 -34q-1 -10 -6 -48.5t-5 -60.5q0 -52 17 -84t62 -32q43 0 111.5 35t107.5 66l20 -84q-19 -24 -64.5 -54t-102 -53t-107.5 -28q27 -65 27 -163q0 -151 -72 -217.5t-191 -66.5q-41 0 -85.5 8.5t-60.5 20.5l20 115q34 -18 88 -18q170 0 170 193q0 86 -10 145
q-84 39 -84 154q0 37 12 134l93 731h-135l31 118l127 1l56 279h126l-36 -279h291l-18 -119h-290z" />
    <glyph glyph-name="Tcaron" unicode="&#x164;" horiz-adv-x="1122" 
d="M477 2000l244 -270l321 270l63 -67l-322 -319h-135l-238 319zM138 1410l17 120h1044l-17 -120l-443 9l-179 -1419h-150l179 1419z" />
    <glyph glyph-name="tcaron" unicode="&#x165;" horiz-adv-x="739" 
d="M271 1021h-135l31 118l127 1l56 279h126l-36 -279h291l-18 -119h-290l-87 -659l-5 -34q-1 -10 -6 -48.5t-5 -60.5q0 -52 17 -84t62 -32q43 0 111.5 35t107.5 66l20 -84q-21 -26 -71.5 -58t-111.5 -55t-114 -23q-84 0 -129.5 43.5t-45.5 128.5q0 37 12 134zM720 1658
q0 59 -8 105.5t-21 66.5l7 25l133 35q29 -57 29 -180q0 -33 -1 -50q-4 -107 -39.5 -221.5t-88.5 -190.5l-78 30l-4 20q71 198 71 360z" />
    <glyph glyph-name="Tbar" unicode="&#x166;" horiz-adv-x="1122" 
d="M739 1419l-74 -586h309l-13 -100h-309l-92 -733h-150l92 733h-283l13 100h283l74 586l-451 -9l17 120h1044l-17 -120z" />
    <glyph glyph-name="tbar" unicode="&#x167;" horiz-adv-x="739" 
d="M423 1021l-37 -284h291l-12 -100h-293l-36 -275l-5 -34q-1 -10 -6 -48.5t-5 -60.5q0 -52 17 -84t62 -32q43 0 111.5 35t107.5 66l20 -84q-21 -26 -71.5 -58t-111.5 -55t-114 -23q-84 0 -129.5 43.5t-45.5 128.5q0 37 12 134l44 347h-139l12 100h140l36 284h-135l31 118
l127 1l56 279h126l-36 -279h291l-18 -119h-290z" />
    <glyph glyph-name="Utilde" unicode="&#x168;" horiz-adv-x="1360" 
d="M519.5 1878q43.5 38 97.5 62t105 24q53 0 89 -22t78 -63q33 -32 56.5 -47.5t53.5 -15.5q37 0 65.5 19t45 40.5t43.5 61.5l66 -70q-16 -47 -55 -87t-90.5 -63.5t-103.5 -23.5q-56 0 -92 21t-78 61q-35 33 -59.5 48.5t-58.5 16.5q-37 0 -65.5 -16t-43.5 -32t-51 -59l-67 65
q21 42 64.5 80zM285 1530h150l-115 -911q-12 -97 -12 -174q0 -162 78.5 -250.5t236.5 -88.5q125 0 212 53t142 170.5t80 310.5l112 890h147l-114 -903q-30 -234 -105.5 -375.5t-197 -205t-297.5 -63.5q-219 0 -333.5 117.5t-114.5 333.5q0 49 12 159z" />
    <glyph glyph-name="utilde" unicode="&#x169;" horiz-adv-x="1173" 
d="M1070 1140l-152 -1140h-138l29 262q-87 -121 -204.5 -201t-236.5 -80q-130 0 -192.5 66t-62.5 219q0 40 6.5 100t19.5 168q28 218 85 606h149l-25 -181q-47 -336 -59 -426t-18 -150.5t-6 -106.5q0 -65 18 -101t51.5 -50t87.5 -14q62 0 137 43t145.5 113t121.5 148l95 725
h149zM358 1564q43 38 96 62t103 24q53 0 89.5 -21t79.5 -61q34 -32 57.5 -47t53.5 -15q47 0 79 27.5t51.5 55t24.5 34.5l66 -70q-16 -46 -55.5 -85t-91 -62.5t-103.5 -23.5q-39 0 -69 11.5t-51 27t-50 42.5q-35 32 -60 47.5t-60 16.5q-44 0 -74.5 -24t-68.5 -68q1 2 -13 -16
l-68 65q21 42 64 80z" />
    <glyph glyph-name="Umacron" unicode="&#x16a;" horiz-adv-x="1360" 
d="M1060 1862l-5 -114h-509l4 114h510zM285 1530h150l-115 -911q-12 -97 -12 -174q0 -162 78.5 -250.5t236.5 -88.5q125 0 212 53t142 170.5t80 310.5l112 890h147l-114 -903q-30 -234 -105.5 -375.5t-197 -205t-297.5 -63.5q-219 0 -333.5 117.5t-114.5 333.5q0 49 12 159z
" />
    <glyph glyph-name="umacron" unicode="&#x16b;" horiz-adv-x="1173" 
d="M1070 1140l-152 -1140h-138l29 262q-87 -121 -204.5 -201t-236.5 -80q-130 0 -192.5 66t-62.5 219q0 40 6.5 100t19.5 168q28 218 85 606h149l-25 -181q-47 -336 -59 -426t-18 -150.5t-6 -106.5q0 -65 18 -101t51.5 -50t87.5 -14q62 0 137 43t145.5 113t121.5 148l95 725
h149zM914 1551l-5 -114h-509l4 114h510z" />
    <glyph glyph-name="Ubreve" unicode="&#x16c;" horiz-adv-x="1360" 
d="M527 1980h103q0 -15 3 -30q10 -84 56 -142.5t138 -58.5q68 0 117 37.5t76 90.5t36 103h101v-8q0 -8 -2 -24q-8 -75 -52 -147t-117.5 -118t-163.5 -46q-99 0 -165.5 45.5t-98.5 119t-32 157.5q0 15 1 21zM285 1530h150l-115 -911q-12 -97 -12 -174q0 -162 78.5 -250.5
t236.5 -88.5q125 0 212 53t142 170.5t80 310.5l112 890h147l-114 -903q-30 -234 -105.5 -375.5t-197 -205t-297.5 -63.5q-219 0 -333.5 117.5t-114.5 333.5q0 49 12 159z" />
    <glyph glyph-name="ubreve" unicode="&#x16d;" horiz-adv-x="1173" 
d="M1070 1140l-152 -1140h-138l29 262q-87 -121 -204.5 -201t-236.5 -80q-130 0 -192.5 66t-62.5 219q0 40 6.5 100t19.5 168q28 218 85 606h149l-25 -181q-47 -336 -59 -426t-18 -150.5t-6 -106.5q0 -65 18 -101t51.5 -50t87.5 -14q62 0 137 43t145.5 113t121.5 148l95 725
h149zM374 1651h103q0 -15 3 -30q10 -84 56 -142.5t138 -58.5q68 0 117 37.5t76 90.5t36 103h101v-8q0 -8 -2 -24q-8 -75 -52 -147t-117.5 -118t-163.5 -46q-99 0 -165.5 45.5t-98.5 119t-32 157.5q0 15 1 21z" />
    <glyph glyph-name="Uring" unicode="&#x16e;" horiz-adv-x="1360" 
d="M285 1530h150l-115 -911q-12 -97 -12 -174q0 -162 78.5 -250.5t236.5 -88.5q125 0 212 53t142 170.5t80 310.5l112 890h147l-114 -903q-30 -234 -105.5 -375.5t-197 -205t-297.5 -63.5q-219 0 -333.5 117.5t-114.5 333.5q0 49 12 159zM569.5 1978.5q50.5 61.5 129 91.5
t162.5 30q125 0 197.5 -67t72.5 -184q0 -89 -45.5 -149t-121.5 -88.5t-166 -28.5q-133 0 -206 64.5t-73 180.5q0 89 50.5 150.5zM975 1973.5q-47 42.5 -126 42.5q-92 0 -157.5 -45t-65.5 -148q0 -45 22.5 -81t63 -56.5t92.5 -20.5q218 0 218 197q0 69 -47 111.5z" />
    <glyph glyph-name="uring" unicode="&#x16f;" horiz-adv-x="1173" 
d="M463.5 1656.5q50.5 62.5 129.5 93.5t162 31q125 0 197.5 -66t72.5 -184q0 -89 -46 -150.5t-121.5 -92t-165.5 -30.5q-133 0 -206 65t-73 182q0 89 50.5 151.5zM869 1655q-47 42 -126 42q-57 0 -107.5 -19t-83 -63t-32.5 -115q0 -45 22.5 -81.5t62.5 -57t93 -20.5
q96 0 157 47t61 156q0 69 -47 111zM1070 1140l-152 -1140h-138l29 262q-87 -121 -204.5 -201t-236.5 -80q-130 0 -192.5 66t-62.5 219q0 40 6.5 100t19.5 168q28 218 85 606h149l-25 -181q-47 -336 -59 -426t-18 -150.5t-6 -106.5q0 -65 18 -101t51.5 -50t87.5 -14
q62 0 137 43t145.5 113t121.5 148l95 725h149z" />
    <glyph glyph-name="Uhungarumlaut" unicode="&#x170;" horiz-adv-x="1360" 
d="M285 1530h150l-115 -911q-12 -97 -12 -174q0 -162 78.5 -250.5t236.5 -88.5q125 0 212 53t142 170.5t80 310.5l112 890h147l-114 -903q-30 -234 -105.5 -375.5t-197 -205t-297.5 -63.5q-219 0 -333.5 117.5t-114.5 333.5q0 49 12 159zM1264 1996l103 -90
q-28 -50 -91 -116t-137 -126t-130 -93l-57 50zM851 1994l101 -89q-36 -73 -138.5 -168.5t-202.5 -167.5l-72 50z" />
    <glyph glyph-name="uhungarumlaut" unicode="&#x171;" horiz-adv-x="1173" 
d="M1070 1140l-152 -1140h-138l29 262q-87 -121 -204.5 -201t-236.5 -80q-130 0 -192.5 66t-62.5 219q0 40 6.5 100t19.5 168q28 218 85 606h149l-25 -181q-47 -336 -59 -426t-18 -150.5t-6 -106.5q0 -65 18 -101t51.5 -50t87.5 -14q62 0 137 43t145.5 113t121.5 148l95 725
h149zM625 1709l110 -88q-41 -89 -125.5 -202t-150.5 -166l-72 42zM1060 1709l110 -89q-25 -52 -77.5 -128t-110.5 -143t-97 -96l-73 42z" />
    <glyph glyph-name="Uogonek" unicode="&#x172;" horiz-adv-x="1360" 
d="M1316 1530l-114 -903q-34 -264 -126 -412t-249 -200q-94 -81 -154.5 -147.5t-60.5 -109.5q0 -38 24 -59t63 -21q83 0 159 59l39 -78q-42 -38 -105 -66t-141 -28q-64 0 -106.5 23.5t-62 58t-19.5 67.5q0 78 72.5 145.5t175.5 130.5q-49 -7 -109 -7q-219 0 -333.5 117.5
t-114.5 333.5q0 49 12 159l119 937h150l-115 -911q-12 -97 -12 -174q0 -162 78.5 -250.5t236.5 -88.5q125 0 212 53t142 170.5t80 310.5l112 890h147z" />
    <glyph glyph-name="uogonek" unicode="&#x173;" horiz-adv-x="1180" 
d="M910 -263l39 -78q-42 -38 -105 -66t-141 -28q-64 0 -106.5 23.5t-62 58t-19.5 67.5q0 91 78 160.5t186 128.5l1 1l29 258q-87 -121 -204.5 -201t-236.5 -80q-130 0 -192.5 66t-62.5 219q0 40 6.5 100t19.5 168q28 218 85 606h149l-25 -181q-47 -336 -59 -426t-18 -150.5
t-6 -106.5q0 -65 18 -101t51.5 -50t87.5 -14q62 0 137 43t145.5 113t121.5 148l95 725h149l-152 -1140h-21q-70 -46 -113.5 -78t-82 -76.5t-38.5 -87.5q0 -38 24.5 -59t63.5 -21q83 0 159 59z" />
    <glyph glyph-name="Wcircumflex" unicode="&#x174;" horiz-adv-x="1770" 
d="M1867 1530l-647 -1540h-154l-89 860l-18 236l-84 -236l-340 -860h-155l-231 1540h150l146 -1096l40 -268l86 259l353 879l-24 226h144l109 -1096l20 -268l99 259l443 1105h152zM1055 2000h136l205 -348l-73 -53l-219 265l-330 -270l-59 59z" />
    <glyph glyph-name="wcircumflex" unicode="&#x175;" horiz-adv-x="1633" 
d="M951 1710h137l203 -377l-73 -53l-218 294l-333 -299l-59 59zM1583 1082q0 -11 -2 -63q-9 -143 -59.5 -297.5t-130.5 -297.5t-178 -253l-153 -175l-136 -10l-57 368l-37 253q-52 -123 -116.5 -236t-136.5 -195l-150 -180l-135 -10l-57 368l-117 786h166l84 -786l21 -237
l135 177q210 290 270 560l-42 286h163l86 -786l23 -238l136 174q110 146 169 285t81 317l6 42q1 12 10 81t9 107q0 13 -1 18h146q3 -30 3 -58z" />
    <glyph glyph-name="Ycircumflex" unicode="&#x176;" horiz-adv-x="1083" 
d="M105 1530h161l261 -710l41 -103l55 102l428 711h162l-592 -945l-75 -585h-144l76 585zM690 2000h136l205 -348l-73 -53l-219 265l-330 -270l-59 59z" />
    <glyph glyph-name="ycircumflex" unicode="&#x177;" horiz-adv-x="1048" 
d="M986 1067q0 -17 -2 -61q-10 -177 -84 -382t-183 -408q-57 -105 -128 -216t-135 -189q-70 -89 -133 -152.5t-157.5 -112t-213.5 -48.5q-36 0 -77 9t-73 21l43 124l22 -11t47 -15t63 -6q106 0 207.5 73t222.5 251h-93l-62 355l-127 841h164l109 -841l43 -301l131 225
q115 192 182 392.5t81 389.5q3 53 3 91l-1 44h147q4 -42 4 -73zM594 1713h137l203 -377l-73 -53l-218 294l-333 -299l-59 59z" />
    <glyph glyph-name="Ydieresis" unicode="&#x178;" horiz-adv-x="1083" 
d="M105 1530h161l261 -710l41 -103l55 102l428 711h162l-592 -945l-75 -585h-144l76 585zM407.5 1874q16.5 28 42 44.5t51.5 16.5q43 0 67.5 -25t24.5 -65q0 -34 -16.5 -62.5t-43.5 -45t-57 -16.5q-36 0 -60.5 26t-24.5 66q0 33 16.5 61zM827 1876q17 27 43 43t52 16
q42 0 66.5 -24t24.5 -63q0 -52 -34 -89.5t-83 -37.5q-37 0 -61.5 27t-24.5 69q0 32 17 59z" />
    <glyph glyph-name="Zacute" unicode="&#x179;" horiz-adv-x="1157" 
d="M837 1227l151 186l-744 -11l16 128h903l19 -66l-843 -1195l-124 -148l812 9l-21 -130h-970l-21 70zM974 2000l95 -97q-44 -74 -140.5 -163t-175.5 -137l-57 51z" />
    <glyph glyph-name="zacute" unicode="&#x17a;" horiz-adv-x="963" 
d="M788 1704l115 -104q-20 -34 -84.5 -105.5t-141.5 -141.5t-134 -104l-63 55zM170 119h642l-11 -119h-776l-46 46l621 792l168 183h-584l17 119h723l36 -41l-648 -828z" />
    <glyph glyph-name="Zdotaccent" unicode="&#x17b;" horiz-adv-x="1157" 
d="M683 1858.5q16 28.5 41.5 45t52.5 16.5q42 0 66.5 -24t24.5 -64q0 -34 -16 -63t-43 -45.5t-58 -16.5q-36 0 -60 25.5t-24 64.5q0 33 16 61.5zM837 1227l151 186l-744 -11l16 128h903l19 -66l-843 -1195l-124 -148l812 9l-21 -130h-970l-21 70z" />
    <glyph glyph-name="zdotaccent" unicode="&#x17c;" horiz-adv-x="963" 
d="M170 119h642l-11 -119h-776l-46 46l621 792l168 183h-584l17 119h723l36 -41l-648 -828zM512.5 1582q15.5 28 41 44.5t54.5 16.5q42 0 67 -24.5t25 -63.5q0 -34 -16 -63t-43 -46t-58 -17q-37 0 -61.5 25.5t-24.5 65.5q0 34 15.5 62z" />
    <glyph glyph-name="Zcaron" unicode="&#x17d;" horiz-adv-x="1157" 
d="M497 2000l244 -270l321 270l63 -67l-322 -319h-135l-238 319zM837 1227l151 186l-744 -11l16 128h903l19 -66l-843 -1195l-124 -148l812 9l-21 -130h-970l-21 70z" />
    <glyph glyph-name="zcaron" unicode="&#x17e;" horiz-adv-x="963" 
d="M376 1680l249 -279l333 279l63 -67l-335 -328h-135l-242 328zM170 119h642l-11 -119h-776l-46 46l621 792l168 183h-584l17 119h723l36 -41l-648 -828z" />
    <glyph glyph-name="florin" unicode="&#x192;" horiz-adv-x="1059" 
d="M196 1033l11 79l250 40l10 76q18 146 79 247.5t145.5 152t175.5 50.5q60 0 99.5 -5.5t51.5 -11.5l-9 -129q-54 27 -146 27q-69 0 -116.5 -25t-79 -88t-46.5 -175l-16 -119h297l-12 -119h-301l-182 -1389h-150l184 1389h-245z" />
    <glyph glyph-name="uni01C4" unicode="&#x1c4;" horiz-adv-x="2534" 
d="M1200.5 432.5q-97.5 -212.5 -274.5 -333.5t-404 -115q-64 2 -113 7q-35 3 -102.5 6t-108.5 3h-77l193 1530h72q48 0 162 8q120 8 174 8q297 0 436.5 -170.5t139.5 -470.5q0 -260 -97.5 -472.5zM868.5 212q135.5 113 204.5 295.5t69 390.5q0 189 -46.5 306t-148 173.5
t-268.5 56.5q-93 0 -230 -19l-162 -1290q150 -26 255 -26q191 0 326.5 113zM2214 1227l151 186l-744 -11l16 128h903l19 -66l-843 -1195l-124 -148l812 9l-21 -130h-970l-21 70zM1874 2000l244 -270l321 270l63 -67l-322 -319h-135l-238 319z" />
    <glyph glyph-name="uni01C5" unicode="&#x1c5;" horiz-adv-x="2340" 
d="M1200.5 432.5q-97.5 -212.5 -274.5 -333.5t-404 -115q-64 2 -113 7q-35 3 -102.5 6t-108.5 3h-77l193 1530h72q48 0 162 8q120 8 174 8q297 0 436.5 -170.5t139.5 -470.5q0 -260 -97.5 -472.5zM868.5 212q135.5 113 204.5 295.5t69 390.5q0 189 -46.5 306t-148 173.5
t-268.5 56.5q-93 0 -230 -19l-162 -1290q150 -26 255 -26q191 0 326.5 113zM1547 119h642l-11 -119h-776l-46 46l621 792l168 183h-584l17 119h723l36 -41l-648 -828zM1733 1683l249 -279l333 279l63 -67l-335 -328h-135l-242 328z" />
    <glyph glyph-name="uni01C6" unicode="&#x1c6;" horiz-adv-x="2112" 
d="M1114 1637l-224 -1637h-132l20 208q-64 -92 -165 -158t-216 -66q-158 0 -238 116t-80 316q0 168 72 340t217 286t351 114q77 0 177 -25l70 506h148zM570.5 141.5q71.5 41.5 127.5 101.5t93 120l89 648q-40 17 -88.5 26.5t-95.5 9.5q-146 0 -251 -95.5t-158.5 -238
t-53.5 -279.5q0 -166 49 -250t141 -84q76 0 147.5 41.5zM1319 119h642l-11 -119h-776l-46 46l621 792l168 183h-584l17 119h723l36 -41l-648 -828zM1505 1683l249 -279l333 279l63 -67l-335 -328h-135l-242 328z" />
    <glyph glyph-name="uni01C7" unicode="&#x1c7;" horiz-adv-x="1562" 
d="M464 1530l-177 -1404l593 4l-16 -130h-743l193 1530h150zM1479 1530q-54 -506 -111.5 -945t-79.5 -510q-39 -131 -105.5 -213t-151 -124t-194.5 -61l-28 68q93 25 163 79t112.5 122t57.5 139q42 198 75.5 463t75.5 660l35 322h151z" />
    <glyph glyph-name="uni01C8" unicode="&#x1c8;" horiz-adv-x="1554" 
d="M464 1530l-177 -1404l593 4l-16 -130h-743l193 1530h150zM1422 1144l-153 -1139q-33 -249 -135.5 -384.5t-263.5 -135.5q-45 0 -80 11t-56 27l40 86q10 -8 32.5 -14t42.5 -6q90 0 145 59t84 159t49 252l146 1085h149zM1299.5 1582q15.5 28 41 44.5t54.5 16.5
q42 0 67 -24.5t25 -63.5q0 -34 -16 -63t-43 -46t-58 -17q-37 0 -61.5 25.5t-24.5 65.5q0 34 15.5 62z" />
    <glyph glyph-name="uni01C9" unicode="&#x1c9;" horiz-adv-x="1139" 
d="M504 1637l-222 -1634h-149l223 1634h148zM1007 1144l-153 -1139q-33 -249 -135.5 -384.5t-263.5 -135.5q-45 0 -80 11t-56 27l40 86q10 -8 32.5 -14t42.5 -6q90 0 145 59t84 159t49 252l146 1085h149zM884.5 1582q15.5 28 41 44.5t54.5 16.5q42 0 67 -24.5t25 -63.5
q0 -34 -16 -63t-43 -46t-58 -17q-37 0 -61.5 25.5t-24.5 65.5q0 34 15.5 62z" />
    <glyph glyph-name="uni01CA" unicode="&#x1ca;" horiz-adv-x="1986" 
d="M472 1530l491 -1127l72 -207l21 238l134 1096h143l-193 -1530h-149l-494 1122l-72 239l-29 -288l-134 -1073h-141l193 1530h158zM1903 1530q-54 -506 -111.5 -945t-79.5 -510q-39 -131 -105.5 -213t-151 -124t-194.5 -61l-28 68q93 25 163 79t112.5 122t57.5 139
q42 198 75.5 463t75.5 660l35 322h151z" />
    <glyph glyph-name="uni01CB" unicode="&#x1cb;" horiz-adv-x="1978" 
d="M472 1530l491 -1127l72 -207l21 238l134 1096h143l-193 -1530h-149l-494 1122l-72 239l-29 -288l-134 -1073h-141l193 1530h158zM1846 1144l-153 -1139q-33 -249 -135.5 -384.5t-263.5 -135.5q-45 0 -80 11t-56 27l40 86q10 -8 32.5 -14t42.5 -6q90 0 145 59t84 159
t49 252l146 1085h149zM1723.5 1582q15.5 28 41 44.5t54.5 16.5q42 0 67 -24.5t25 -63.5q0 -34 -16 -63t-43 -46t-58 -17q-37 0 -61.5 25.5t-24.5 65.5q0 34 15.5 62z" />
    <glyph glyph-name="uni01CC" unicode="&#x1cc;" horiz-adv-x="1770" 
d="M1005.5 1087.5q54.5 -68.5 54.5 -211.5q0 -48 -11 -136t-31 -227q-15 -107 -43 -286l-34 -224h-149q17 124 51 341l25 168q21 141 31 220.5t10 130.5q0 83 -31.5 119t-108.5 36q-64 0 -144 -43t-156.5 -112.5t-130.5 -146.5l-97 -713h-148l154 1137h141l-29 -265
q95 121 222 201t249 80q121 0 175.5 -68.5zM1638 1144l-153 -1139q-33 -249 -135.5 -384.5t-263.5 -135.5q-45 0 -80 11t-56 27l40 86q10 -8 32.5 -14t42.5 -6q90 0 145 59t84 159t49 252l146 1085h149zM1515.5 1582q15.5 28 41 44.5t54.5 16.5q42 0 67 -24.5t25 -63.5
q0 -34 -16 -63t-43 -46t-58 -17q-37 0 -61.5 25.5t-24.5 65.5q0 34 15.5 62z" />
    <glyph glyph-name="uni01CD" unicode="&#x1cd;" horiz-adv-x="1265" 
d="M926 431h-614l-201 -431h-161l745 1530h168l289 -1530h-150zM906 546l-129 734l-15 115l-55 -119l-341 -730h540zM802 2000h136l205 -348l-73 -53l-219 265l-330 -270l-59 59z" />
    <glyph glyph-name="uni01CE" unicode="&#x1ce;" horiz-adv-x="1130" 
d="M1041 1156l-157 -1156h-131l19 202v3q-63 -91 -161 -156t-212 -65q-158 0 -238 115.5t-80 315.5q0 169 70.5 340.5t213.5 286t349 114.5q47 0 105 -10t109 -26zM574 143.5q72 43.5 127 105.5t90 123l20 185l64 451q-39 18 -88 28t-97 10q-143 0 -246 -93t-156 -235
t-53 -285q0 -166 48 -249.5t141 -83.5q78 0 150 43.5zM493 1682l249 -279l333 279l63 -67l-335 -328h-135l-242 328z" />
    <glyph glyph-name="uni01CF" unicode="&#x1cf;" horiz-adv-x="572" 
d="M489 1530l-193 -1530h-151l193 1530h151zM178 2000l244 -270l321 270l63 -67l-322 -319h-135l-238 319z" />
    <glyph glyph-name="uni01D0" unicode="&#x1d0;" horiz-adv-x="564" 
d="M436 1144l-155 -1144h-148l154 1144h149zM176 1683l249 -279l333 279l63 -67l-335 -328h-135l-242 328z" />
    <glyph glyph-name="uni01D1" unicode="&#x1d1;" 
d="M204 1101.5q92 207.5 252.5 326.5t356.5 119q158 0 268 -87t164.5 -236t54.5 -332q0 -253 -89 -460.5t-247.5 -328t-358.5 -120.5q-157 0 -268.5 85t-168 233.5t-56.5 336.5q0 256 92 463.5zM1055 1284.5q-88 142.5 -266 142.5q-147 0 -266 -105t-186.5 -281t-67.5 -381
q0 -280 92.5 -420.5t267.5 -140.5q147 0 264.5 103t183.5 279t66 384q0 277 -88 419.5zM582 2000l244 -270l321 270l63 -67l-322 -319h-135l-238 319z" />
    <glyph glyph-name="uni01D2" unicode="&#x1d2;" horiz-adv-x="1135" 
d="M940.5 1033q94.5 -123 94.5 -351q0 -179 -71 -340t-197.5 -259.5t-285.5 -98.5q-188 0 -285.5 123.5t-97.5 350.5q0 179 72.5 340t201 259.5t287.5 98.5q187 0 281.5 -123zM706.5 184.5q84.5 87.5 128.5 222.5t44 274q0 176 -58.5 269.5t-185.5 93.5q-118 0 -205 -87
t-132.5 -222t-45.5 -274q0 -176 63 -270t190 -94q117 0 201.5 87.5zM447 1683l249 -279l333 279l63 -67l-335 -328h-135l-242 328z" />
    <glyph glyph-name="uni01D3" unicode="&#x1d3;" horiz-adv-x="1360" 
d="M285 1530h150l-115 -911q-12 -97 -12 -174q0 -162 78.5 -250.5t236.5 -88.5q125 0 212 53t142 170.5t80 310.5l112 890h147l-114 -903q-30 -234 -105.5 -375.5t-197 -205t-297.5 -63.5q-219 0 -333.5 117.5t-114.5 333.5q0 49 12 159zM563 2000l244 -270l321 270l63 -67
l-322 -319h-135l-238 319z" />
    <glyph glyph-name="uni01D4" unicode="&#x1d4;" horiz-adv-x="1173" 
d="M1070 1140l-152 -1140h-138l29 262q-87 -121 -204.5 -201t-236.5 -80q-130 0 -192.5 66t-62.5 219q0 40 6.5 100t19.5 168q28 218 85 606h149l-25 -181q-47 -336 -59 -426t-18 -150.5t-6 -106.5q0 -65 18 -101t51.5 -50t87.5 -14q62 0 137 43t145.5 113t121.5 148l95 725
h149zM450 1683l249 -279l333 279l63 -67l-335 -328h-135l-242 328z" />
    <glyph glyph-name="Gcaron" unicode="&#x1e6;" horiz-adv-x="1340" 
d="M802 729h430l-82 -635q-26 -3 -56 -10.5t-81 -22.5l-31 -9q-104 -32 -188 -50.5t-178 -18.5q-170 0 -282.5 92.5t-165.5 238.5t-56 313q-5 268 91.5 477.5t265.5 325.5t376 116q121 0 204 -15.5t159 -39.5l39 -12l-48 -137q-56 33 -145 57.5t-211 24.5
q-184 0 -315 -111.5t-197 -288.5t-66 -369q0 -146 38 -271t122.5 -204t217.5 -79q79 0 176.5 24t195.5 61l53 421l-281 1zM592 2000l244 -270l321 270l63 -67l-322 -319h-135l-238 319z" />
    <glyph glyph-name="gcaron" unicode="&#x1e7;" horiz-adv-x="1149" 
d="M1055 1156l-176 -1245q-21 -148 -102 -241.5t-188.5 -134t-217.5 -40.5q-65 0 -145.5 11t-110.5 24l38 126q46 -21 111 -34.5t135 -13.5q137 0 221 77.5t110 222.5l48 300q-64 -92 -165 -158t-216 -66q-158 0 -238 116t-80 316q0 168 72 340t217 286t351 114
q49 0 109 -10.5t111 -25.5zM884 1010q-40 17 -90 26.5t-98 9.5q-146 0 -251 -95.5t-158.5 -237.5t-53.5 -279q0 -166 49 -250t141 -84q74 0 145 40t126.5 98.5t93.5 119.5zM497 1683l249 -279l333 279l63 -67l-335 -328h-135l-242 328z" />
    <glyph glyph-name="uni01F1" unicode="&#x1f1;" horiz-adv-x="2534" 
d="M1200.5 432.5q-97.5 -212.5 -274.5 -333.5t-404 -115q-64 2 -113 7q-35 3 -102.5 6t-108.5 3h-77l193 1530h72q48 0 162 8q120 8 174 8q297 0 436.5 -170.5t139.5 -470.5q0 -260 -97.5 -472.5zM868.5 212q135.5 113 204.5 295.5t69 390.5q0 189 -46.5 306t-148 173.5
t-268.5 56.5q-93 0 -230 -19l-162 -1290q150 -26 255 -26q191 0 326.5 113zM2214 1227l151 186l-744 -11l16 128h903l19 -66l-843 -1195l-124 -148l812 9l-21 -130h-970l-21 70z" />
    <glyph glyph-name="uni01F2" unicode="&#x1f2;" horiz-adv-x="2340" 
d="M1200.5 432.5q-97.5 -212.5 -274.5 -333.5t-404 -115q-64 2 -113 7q-35 3 -102.5 6t-108.5 3h-77l193 1530h72q48 0 162 8q120 8 174 8q297 0 436.5 -170.5t139.5 -470.5q0 -260 -97.5 -472.5zM868.5 212q135.5 113 204.5 295.5t69 390.5q0 189 -46.5 306t-148 173.5
t-268.5 56.5q-93 0 -230 -19l-162 -1290q150 -26 255 -26q191 0 326.5 113zM1547 119h642l-11 -119h-776l-46 46l621 792l168 183h-584l17 119h723l36 -41l-648 -828z" />
    <glyph glyph-name="uni01F3" unicode="&#x1f3;" horiz-adv-x="2112" 
d="M1114 1637l-224 -1637h-132l20 208q-64 -92 -165 -158t-216 -66q-158 0 -238 116t-80 316q0 168 72 340t217 286t351 114q77 0 177 -25l70 506h148zM570.5 141.5q71.5 41.5 127.5 101.5t93 120l89 648q-40 17 -88.5 26.5t-95.5 9.5q-146 0 -251 -95.5t-158.5 -238
t-53.5 -279.5q0 -166 49 -250t141 -84q76 0 147.5 41.5zM1319 119h642l-11 -119h-776l-46 46l621 792l168 183h-584l17 119h723l36 -41l-648 -828z" />
    <glyph glyph-name="uni01F4" unicode="&#x1f4;" horiz-adv-x="1340" 
d="M802 729h430l-82 -635q-26 -3 -56 -10.5t-81 -22.5l-31 -9q-104 -32 -188 -50.5t-178 -18.5q-170 0 -282.5 92.5t-165.5 238.5t-56 313q-5 268 91.5 477.5t265.5 325.5t376 116q121 0 204 -15.5t159 -39.5l39 -12l-48 -137q-56 33 -145 57.5t-211 24.5
q-184 0 -315 -111.5t-197 -288.5t-66 -369q0 -146 38 -271t122.5 -204t217.5 -79q79 0 176.5 24t195.5 61l53 421l-281 1zM1069 2000l95 -97q-44 -74 -140.5 -163t-175.5 -137l-57 51z" />
    <glyph glyph-name="AEacute" unicode="&#x1fc;" horiz-adv-x="1781" 
d="M1289 2000l95 -97q-44 -74 -140.5 -163t-175.5 -137l-57 51zM1097 1417l-74 -579l475 6l-9 -127l-479 11l-78 -614l737 13l-11 -127h-890l58 459h-519l-252 -459h-162l806 1436l-298 17l11 77h1305l-6 -120zM947 1420l-111 5l-466 -850h471z" />
    <glyph glyph-name="aeacute" unicode="&#x1fd;" horiz-adv-x="1624" 
d="M1127 1704l115 -104q-20 -34 -84.5 -105.5t-141.5 -141.5t-134 -104l-63 55zM1263.5 145q90.5 43 173.5 128l43 -87q-32 -44 -92.5 -91t-143 -79t-172.5 -32q-151 0 -242.5 77.5t-126.5 204.5q-62 -121 -147.5 -201.5t-197.5 -80.5q-277 0 -277 431q0 169 70.5 340.5
t213.5 286t349 114.5q74 0 141 -16t143 -62q126 78 275 78q92 0 154.5 -32.5t93.5 -89t31 -128.5q0 -152 -121 -254t-286.5 -152t-304.5 -57l-1 -30q0 -131 57 -221t193 -90q84 0 174.5 43zM738 742q55 148 154 250q-48 25 -100 39.5t-102 14.5q-143 0 -246 -93t-156 -235
t-53 -285q0 -169 38.5 -251t117.5 -82q82 0 154 80t139 203q-1 13 -1 41q0 170 55 318zM1360.5 1006q-42.5 37 -119.5 37q-107 0 -193.5 -73.5t-139 -187.5t-63.5 -232q119 4 250 47.5t219.5 120t88.5 175.5q0 76 -42.5 113z" />
    <glyph glyph-name="Oslashacute" unicode="&#x1fe;" 
d="M1263.5 1172q36.5 -128 36.5 -279q0 -253 -89 -460.5t-247.5 -328t-358.5 -120.5q-98 0 -178.5 33.5t-141.5 96.5l-160 -236l-70 39l178 261q-60 87 -90.5 205t-30.5 256q0 256 92 463.5t252.5 326.5t356.5 119q168 0 285 -101l144 212l70 -38l-158 -232
q73 -89 109.5 -217zM523 1323q-119 -105 -186.5 -281t-67.5 -381q0 -219 59 -357l688 1033q-86 91 -227 91q-147 0 -266 -105zM893.5 203q117.5 103 183.5 279t66 384q0 260 -78 401l-693 -1041q92 -126 257 -126q147 0 264.5 103zM1019 2000l95 -97q-44 -74 -140.5 -163
t-175.5 -137l-57 51z" />
    <glyph glyph-name="oslashacute" unicode="&#x1ff;" horiz-adv-x="1134" 
d="M1005.5 906q29.5 -95 29.5 -222q0 -179 -71 -340t-197.5 -259.5t-285.5 -98.5q-143 0 -236 74l-129 -186l-69 38l142 207q-91 123 -91 341q0 179 72.5 340t201 259.5t287.5 98.5q115 0 197 -48l131 188l69 -38l-138 -199q58 -60 87.5 -155zM430 959q-87 -87 -132.5 -222
t-45.5 -274q0 -132 34 -216l489 756q-55 43 -140 43q-118 0 -205 -87zM706.5 186.5q84.5 87.5 128.5 222.5t44 274q0 168 -51 258l-497 -769q62 -73 174 -73q117 0 201.5 87.5zM867 1704l115 -104q-20 -34 -84.5 -105.5t-141.5 -141.5t-134 -104l-63 55z" />
    <glyph glyph-name="Scommaaccent" unicode="&#x218;" horiz-adv-x="1044" 
d="M301 -143l94 91q55 -18 87 -78t32 -132q0 -77 -27.5 -141.5t-68 -105t-78.5 -51.5l-61 39l2 20q40 27 64 75t24 116q0 42 -20.5 77.5t-51.5 48.5zM143.5 153q53.5 -22 124 -36.5t139.5 -14.5q97 0 178 29t130.5 90t49.5 153q0 99 -58.5 173.5t-184.5 155.5
q-101 66 -169.5 122.5t-117 141t-48.5 193.5q0 120 59.5 207.5t163.5 133.5t235 46q226 0 346 -85l-48 -116q-41 41 -121.5 63t-166.5 22q-124 0 -220.5 -55.5t-96.5 -196.5q0 -82 33 -142t86.5 -104t153.5 -110q96 -63 159 -115.5t107.5 -129.5t44.5 -176q0 -134 -67 -228
t-184.5 -142t-266.5 -48q-80 0 -158 14t-135.5 35t-81.5 40l42 123q19 -21 72.5 -43z" />
    <glyph glyph-name="scommaaccent" unicode="&#x219;" horiz-adv-x="872" 
d="M250 -143l94 91q55 -18 87 -78t32 -132q0 -77 -27.5 -141.5t-68 -105t-78.5 -51.5l-61 39l2 20q40 27 64 75t24 116q0 42 -20.5 77.5t-51.5 48.5zM187.5 122.5q72.5 -25.5 159.5 -25.5q104 0 169 44t65 131q0 47 -21.5 85t-53 67.5t-87.5 72.5q-10 7 -30 23
q-71 56 -114 97.5t-72.5 100.5t-29.5 136q0 96 51 164t136.5 103t189.5 35q83 0 153.5 -14t100.5 -30l-29 -140q-8 11 -38 28t-79 30.5t-108 13.5q-108 0 -171 -46.5t-63 -124.5q0 -52 21 -93t52.5 -70t82.5 -68l18 -14l17 -13q65 -49 110.5 -91t78.5 -102t33 -133
q0 -98 -50 -167t-138.5 -103.5t-201.5 -34.5q-94 0 -180 19.5t-114 44.5l28 130q42 -30 114.5 -55.5z" />
    <glyph glyph-name="uni021A" unicode="&#x21a;" horiz-adv-x="1122" 
d="M351 -143l94 91q55 -18 87 -78t32 -132q0 -77 -27.5 -141.5t-68 -105t-78.5 -51.5l-61 39l2 20q40 27 64 75t24 116q0 42 -20.5 77.5t-51.5 48.5zM138 1410l17 120h1044l-17 -120l-443 9l-179 -1419h-150l179 1419z" />
    <glyph glyph-name="uni021B" unicode="&#x21b;" horiz-adv-x="739" 
d="M180 -143l94 91q55 -18 87 -78t32 -132q0 -77 -27.5 -141.5t-68 -105t-78.5 -51.5l-61 39l2 20q40 27 64 75t24 116q0 42 -20.5 77.5t-51.5 48.5zM271 1021h-135l31 118l127 1l56 279h126l-36 -279h291l-18 -119h-290l-87 -659l-5 -34q-1 -10 -6 -48.5t-5 -60.5
q0 -52 17 -84t62 -32q43 0 111.5 35t107.5 66l20 -84q-21 -26 -71.5 -58t-111.5 -55t-114 -23q-84 0 -129.5 43.5t-45.5 128.5q0 37 12 134z" />
    <glyph glyph-name="uni0237" unicode="&#x237;" horiz-adv-x="576" 
d="M444 1144l-153 -1139q-33 -249 -135.5 -384.5t-263.5 -135.5q-45 0 -80 11t-56 27l40 86q10 -8 32.5 -14t42.5 -6q90 0 145 59t84 159t49 252l146 1085h149z" />
    <glyph glyph-name="circumflex" unicode="&#x2c6;" horiz-adv-x="795" 
d="M440 1710h137l203 -377l-73 -53l-218 294l-333 -299l-59 59z" />
    <glyph glyph-name="caron" unicode="&#x2c7;" horiz-adv-x="795" 
d="M147 1680l249 -279l333 279l63 -67l-335 -328h-135l-242 328z" />
    <glyph glyph-name="uni02C9" unicode="&#x2c9;" horiz-adv-x="614" 
d="M573 1862l-5 -114h-509l4 114h510z" />
    <glyph glyph-name="breve" unicode="&#x2d8;" horiz-adv-x="717" 
d="M53 1648h103q0 -15 3 -30q10 -84 56 -142.5t138 -58.5q68 0 117 37.5t76 90.5t36 103h101v-8q0 -8 -2 -24q-8 -75 -52 -147t-117.5 -118t-163.5 -46q-99 0 -165.5 45.5t-98.5 119t-32 157.5q0 15 1 21z" />
    <glyph glyph-name="dotaccent" unicode="&#x2d9;" horiz-adv-x="387" 
d="M76.5 1579q15.5 28 41 44.5t54.5 16.5q42 0 67 -24.5t25 -63.5q0 -34 -16 -63t-43 -46t-58 -17q-37 0 -61.5 25.5t-24.5 65.5q0 34 15.5 62z" />
    <glyph glyph-name="ring" unicode="&#x2da;" horiz-adv-x="723" 
d="M149.5 1656.5q50.5 62.5 129.5 93.5t162 31q125 0 197.5 -66t72.5 -184q0 -89 -46 -150.5t-121.5 -92t-165.5 -30.5q-133 0 -206 65t-73 182q0 89 50.5 151.5zM555 1655q-47 42 -126 42q-57 0 -107.5 -19t-83 -63t-32.5 -115q0 -45 22.5 -81.5t62.5 -57t93 -20.5
q96 0 157 47t61 156q0 69 -47 111z" />
    <glyph glyph-name="ogonek" unicode="&#x2db;" horiz-adv-x="487" 
d="M342 46l45 -46q-94 -62 -161.5 -124t-67.5 -121q0 -37 21.5 -54.5t53.5 -17.5q83 0 159 59l39 -78q-42 -38 -105 -66t-141 -28q-60 0 -99.5 21.5t-57.5 54t-18 64.5q0 90 76.5 161.5t178.5 128.5z" />
    <glyph glyph-name="tilde" unicode="&#x2dc;" horiz-adv-x="815" 
d="M73 1561q43 38 96 62t103 24q53 0 89.5 -21t79.5 -61q34 -32 57.5 -47t53.5 -15q47 0 79 27.5t51.5 55t24.5 34.5l66 -70q-16 -46 -55.5 -85t-91 -62.5t-103.5 -23.5q-39 0 -69 11.5t-51 27t-50 42.5q-35 32 -60 47.5t-60 16.5q-44 0 -74.5 -24t-68.5 -68q1 2 -13 -16
l-68 65q21 42 64 80z" />
    <glyph glyph-name="hungarumlaut" unicode="&#x2dd;" horiz-adv-x="918" 
d="M287 1706l110 -88q-41 -89 -125.5 -202t-150.5 -166l-72 42zM722 1706l110 -89q-25 -52 -77.5 -128t-110.5 -143t-97 -96l-73 42z" />
    <glyph glyph-name="uni0326" unicode="&#x326;" horiz-adv-x="0" 
d="M-319 -143l94 91q55 -18 87 -78t32 -132q0 -77 -27.5 -141.5t-68 -105t-78.5 -51.5l-61 39l2 20q40 27 64 75t24 116q0 42 -20.5 77.5t-51.5 48.5z" />
    <glyph glyph-name="uni0394" unicode="&#x394;" horiz-adv-x="1407" 
d="M763 1508l556 -1482l-17 -26h-1310l-12 22l753 1486h30zM731 1184l-513 -1054h890z" />
    <glyph glyph-name="uni03A9" unicode="&#x3a9;" horiz-adv-x="1657" 
d="M1471 638q-58 -156 -158 -294.5t-219 -220.5h415l-10 -123h-578l-16 107q119 65 228 191.5t177 288t68 324.5q0 170 -71.5 286.5t-186.5 173t-245 56.5q-165 0 -295.5 -75t-206 -223.5t-75.5 -359.5q0 -145 53 -281t132 -236t155 -145l-31 -107h-537l14 116h394
q-76 55 -152.5 160.5t-126 237.5t-49.5 259q0 248 95.5 422t263 262.5t380.5 88.5q178 0 324 -77.5t231 -218.5t85 -325q0 -131 -58 -287z" />
    <glyph glyph-name="uni03BC" unicode="&#x3bc;" horiz-adv-x="1354" 
d="M130 -372l188 1266q5 33 5 55q0 59 -30 59q-48 0 -105 -57l-50 88q12 17 43 42.5t79.5 47t105.5 21.5q51 0 81.5 -34.5t30.5 -102.5q0 -22 -3 -46q-6 -49 -41 -300t-48 -340q-1 -10 -1 -29q0 -96 54 -139.5t137 -43.5q56 0 115 28.5t109 70.5t83 83l118 843h148
l-124 -915q-3 -22 -3 -41q0 -32 10 -51t30 -19q54 0 124 82l49 -85q-12 -18 -44 -48.5t-80 -56t-102 -25.5q-61 0 -97 38.5t-35 116.5q-70 -72 -147.5 -113.5t-194.5 -41.5q-40 1 -81.5 15.5t-72.5 41.5t-40 62l-70 -472h-141z" />
    <glyph glyph-name="pi" unicode="&#x3c0;" horiz-adv-x="1556" 
d="M1163.5 138q38.5 23 72.5 63.5t52 90.5l84 -36q-12 -65 -57.5 -128t-116.5 -103.5t-154 -40.5q-90 0 -138 47.5t-48 136.5q0 27 4 51q8 43 62 415q41 286 54 367l-358 1l-86 -571q-10 -111 -31.5 -182t-53 -116t-80.5 -87q-56 -49 -147 -69l-101 93q22 4 56.5 20t67.5 40
q50 36 77.5 84t41 106.5t25.5 154.5l92 527h-70q-85 0 -141 -33.5t-83 -90.5l-87 42q26 116 107 169t228 53h730q69 0 103.5 16t48.5 57h108q-9 -116 -73 -165t-190 -49h-46l-39 -302q-8 -63 -32 -249t-32 -227l-1 -18q0 -90 80 -90q33 0 71.5 23z" />
    <glyph glyph-name="uni1E02" unicode="&#x1e02;" horiz-adv-x="1240" 
d="M607 1858.5q16 28.5 41.5 45t52.5 16.5q42 0 66.5 -24t24.5 -64q0 -34 -16 -63t-43 -45.5t-58 -16.5q-36 0 -60 25.5t-24 64.5q0 33 16 61.5zM974.5 749q70.5 -41 113 -108t43.5 -151q3 -175 -82.5 -287.5t-237.5 -164.5t-353 -52q-30 0 -76 3t-63 4q-82 7 -128 7h-70
l193 1530h68q46 0 148 8q104 8 161 8q243 0 345.5 -94.5t102.5 -243.5q0 -155 -85.5 -260.5t-234.5 -147.5q85 -10 155.5 -51zM378 848q28 -2 92 -2l142 1q106 0 191.5 41t135 119.5t49.5 187.5q0 122 -77.5 184t-254.5 62q-29 0 -96 -4t-109 -9zM840.5 182
q130.5 88 130.5 284q0 134 -92.5 203.5t-252.5 69.5q-158 0 -262 -6l-78 -619q28 -8 98 -14t107 -6q219 0 349.5 88z" />
    <glyph glyph-name="uni1E03" unicode="&#x1e03;" horiz-adv-x="1159" 
d="M980 1040q80 -116 80 -317q0 -168 -72.5 -339.5t-217.5 -285.5t-351 -114q-55 0 -122.5 13t-117.5 31l-84 -26l218 1635h141l-58 -490l-35 -208q65 89 165.5 153t215.5 64q158 0 238 -116zM695 189q105 95 158 237.5t53 279.5q0 166 -48.5 250t-141.5 84
q-76 0 -147.5 -40t-128 -98.5t-92.5 -116.5l-88 -656q38 -16 87 -25.5t96 -9.5q147 0 252 95zM749.5 1582q15.5 28 41 44.5t54.5 16.5q42 0 67 -24.5t25 -63.5q0 -34 -16 -63t-43 -46t-58 -17q-37 0 -61.5 25.5t-24.5 65.5q0 34 15.5 62z" />
    <glyph glyph-name="uni1E0A" unicode="&#x1e0a;" horiz-adv-x="1377" 
d="M708 1858.5q16 28.5 41.5 45t52.5 16.5q42 0 66.5 -24t24.5 -64q0 -34 -16 -63t-43 -45.5t-58 -16.5q-36 0 -60 25.5t-24 64.5q0 33 16 61.5zM1200.5 432.5q-97.5 -212.5 -274.5 -333.5t-404 -115q-64 2 -113 7q-35 3 -102.5 6t-108.5 3h-77l193 1530h72q48 0 162 8
q120 8 174 8q297 0 436.5 -170.5t139.5 -470.5q0 -260 -97.5 -472.5zM868.5 212q135.5 113 204.5 295.5t69 390.5q0 189 -46.5 306t-148 173.5t-268.5 56.5q-93 0 -230 -19l-162 -1290q150 -26 255 -26q191 0 326.5 113z" />
    <glyph glyph-name="uni1E0B" unicode="&#x1e0b;" horiz-adv-x="1149" 
d="M1114 1637l-224 -1637h-132l20 208q-64 -92 -165 -158t-216 -66q-158 0 -238 116t-80 316q0 168 72 340t217 286t351 114q77 0 177 -25l70 506h148zM570.5 141.5q71.5 41.5 127.5 101.5t93 120l89 648q-40 17 -88.5 26.5t-95.5 9.5q-146 0 -251 -95.5t-158.5 -238
t-53.5 -279.5q0 -166 49 -250t141 -84q76 0 147.5 41.5zM405.5 1582q15.5 28 41 44.5t54.5 16.5q42 0 67 -24.5t25 -63.5q0 -34 -16 -63t-43 -46t-58 -17q-37 0 -61.5 25.5t-24.5 65.5q0 34 15.5 62z" />
    <glyph glyph-name="uni1E1E" unicode="&#x1e1e;" horiz-adv-x="1057" 
d="M637 1858.5q16 28.5 41.5 45t52.5 16.5q42 0 66.5 -24t24.5 -64q0 -34 -16 -63t-43 -45.5t-58 -16.5q-36 0 -60 25.5t-24 64.5q0 33 16 61.5zM1093 1530l-11 -120l-632 7l-73 -582l508 8l-10 -130l-512 12l-92 -725h-150l193 1530h779z" />
    <glyph glyph-name="uni1E1F" unicode="&#x1e1f;" horiz-adv-x="695" 
d="M368.5 1877q15.5 28 41 44.5t54.5 16.5q42 0 67 -24.5t25 -63.5q0 -34 -16 -63t-43 -46t-58 -17q-37 0 -61.5 25.5t-24.5 65.5q0 34 15.5 62zM152 1021l22 118l146 1l18 124q16 124 67.5 217t136 145t196.5 52q44 0 80.5 -5.5t70.5 -20.5l-38 -121q-47 32 -132 31
q-61 0 -109.5 -35t-79.5 -94t-40 -131l-21 -162h243l-9 -119h-250l-138 -1021h-148l137 1021h-152z" />
    <glyph glyph-name="uni1E20" unicode="&#x1e20;" horiz-adv-x="1340" 
d="M802 729h430l-82 -635q-26 -3 -56 -10.5t-81 -22.5l-31 -9q-104 -32 -188 -50.5t-178 -18.5q-170 0 -282.5 92.5t-165.5 238.5t-56 313q-5 268 91.5 477.5t265.5 325.5t376 116q121 0 204 -15.5t159 -39.5l39 -12l-48 -137q-56 33 -145 57.5t-211 24.5
q-184 0 -315 -111.5t-197 -288.5t-66 -369q0 -146 38 -271t122.5 -204t217.5 -79q79 0 176.5 24t195.5 61l53 421l-281 1zM1089 1862l-5 -114h-509l4 114h510z" />
    <glyph glyph-name="uni1E21" unicode="&#x1e21;" horiz-adv-x="1149" 
d="M1055 1156l-176 -1245q-21 -148 -102 -241.5t-188.5 -134t-217.5 -40.5q-65 0 -145.5 11t-110.5 24l38 126q46 -21 111 -34.5t135 -13.5q137 0 221 77.5t110 222.5l48 300q-64 -92 -165 -158t-216 -66q-158 0 -238 116t-80 316q0 168 72 340t217 286t351 114
q49 0 109 -10.5t111 -25.5zM884 1010q-40 17 -90 26.5t-98 9.5q-146 0 -251 -95.5t-158.5 -237.5t-53.5 -279q0 -166 49 -250t141 -84q74 0 145 40t126.5 98.5t93.5 119.5zM961 1551l-5 -114h-509l4 114h510z" />
    <glyph glyph-name="uni1E40" unicode="&#x1e40;" horiz-adv-x="1791" 
d="M975 1858.5q16 28.5 41.5 45t52.5 16.5q42 0 66.5 -24t24.5 -64q0 -34 -16 -63t-43 -45.5t-58 -16.5q-36 0 -60 25.5t-24 64.5q0 33 16 61.5zM646 1530l173 -1068l31 -236l92 234l460 1070h218l-44 -1530h-153l49 1022l24 409l-158 -361l-466 -1074l-107 -14l-170 1063
l-50 386l-77 -394l-243 -1037h-153l380 1530h194z" />
    <glyph glyph-name="uni1E41" unicode="&#x1e41;" horiz-adv-x="1782" 
d="M1593 1089.5q56 -66.5 56 -217.5q0 -92 -42 -360q-12 -90 -43 -284l-34 -225h-150q14 100 49 328q28 179 28 181q40 255 40 351q0 82 -30.5 118.5t-105.5 36.5q-74 0 -172 -65.5t-177 -161.5q-7 -74 -33 -250l-4 -28q-4 -32 -58 -388l-19 -122h-149q17 124 51 341l25 168
q21 141 31 220.5t10 130.5q0 83 -30.5 119.5t-104.5 36.5q-58 0 -130.5 -41.5t-142 -109t-119.5 -142.5l-98 -723h-148l155 1137h141l-28 -253q87 116 203 192.5t228 76.5q107 0 161.5 -56.5t62.5 -173.5q86 101 193 165.5t212 64.5q116 0 172 -66.5zM926.5 1582
q15.5 28 41 44.5t54.5 16.5q42 0 67 -24.5t25 -63.5q0 -34 -16 -63t-43 -46t-58 -17q-37 0 -61.5 25.5t-24.5 65.5q0 34 15.5 62z" />
    <glyph glyph-name="uni1E44" unicode="&#x1e44;" horiz-adv-x="1402" 
d="M472 1530l491 -1127l72 -207l21 238l134 1096h143l-193 -1530h-149l-494 1122l-72 239l-29 -288l-134 -1073h-141l193 1530h158zM792 1858.5q16 28.5 41.5 45t52.5 16.5q42 0 66.5 -24t24.5 -64q0 -34 -16 -63t-43 -45.5t-58 -16.5q-36 0 -60 25.5t-24 64.5q0 33 16 61.5
z" />
    <glyph glyph-name="uni1E45" unicode="&#x1e45;" horiz-adv-x="1194" 
d="M1005.5 1087.5q54.5 -68.5 54.5 -211.5q0 -48 -11 -136t-31 -227q-15 -107 -43 -286l-34 -224h-149q17 124 51 341l25 168q21 141 31 220.5t10 130.5q0 83 -31.5 119t-108.5 36q-64 0 -144 -43t-156.5 -112.5t-130.5 -146.5l-97 -713h-148l154 1137h141l-29 -265
q95 121 222 201t249 80q121 0 175.5 -68.5zM605.5 1582q15.5 28 41 44.5t54.5 16.5q42 0 67 -24.5t25 -63.5q0 -34 -16 -63t-43 -46t-58 -17q-37 0 -61.5 25.5t-24.5 65.5q0 34 15.5 62z" />
    <glyph glyph-name="uni1E56" unicode="&#x1e56;" horiz-adv-x="1180" 
d="M697 1858.5q16 28.5 41.5 45t52.5 16.5q42 0 66.5 -24t24.5 -64q0 -34 -16 -63t-43 -45.5t-58 -16.5q-36 0 -60 25.5t-24 64.5q0 33 16 61.5zM402 1530q55 0 155 8q98 8 152 8q224 0 340.5 -100t116.5 -305q0 -188 -78 -327t-217.5 -213.5t-318.5 -74.5q-107 0 -212 14
l-69 -540h-150l193 1530h88zM895.5 774.5q118.5 129.5 118.5 373.5q0 141 -82 213t-246 72q-81 0 -237 -20l-94 -751q31 -6 89.5 -11.5t103.5 -5.5q229 0 347.5 129.5z" />
    <glyph glyph-name="uni1E57" unicode="&#x1e57;" horiz-adv-x="1162" 
d="M977 1040q80 -116 80 -317q0 -170 -72 -341t-217.5 -284.5t-351.5 -113.5q-73 0 -173 25l-69 -524h-148l219 1655h134l-22 -205q64 90 165 155.5t217 65.5q158 0 238 -116zM688 186.5q105 92.5 159.5 234.5t54.5 285q0 169 -50 251.5t-139 82.5q-76 0 -148 -40.5
t-128 -100t-92 -119.5l-86 -650q39 -17 87 -26.5t94 -9.5q143 0 248 92.5zM649.5 1582q15.5 28 41 44.5t54.5 16.5q42 0 67 -24.5t25 -63.5q0 -34 -16 -63t-43 -46t-58 -17q-37 0 -61.5 25.5t-24.5 65.5q0 34 15.5 62z" />
    <glyph glyph-name="uni1E60" unicode="&#x1e60;" horiz-adv-x="1044" 
d="M617 1858.5q16 28.5 41.5 45t52.5 16.5q42 0 66.5 -24t24.5 -64q0 -34 -16 -63t-43 -45.5t-58 -16.5q-36 0 -60 25.5t-24 64.5q0 33 16 61.5zM143.5 153q53.5 -22 124 -36.5t139.5 -14.5q97 0 178 29t130.5 90t49.5 153q0 99 -58.5 173.5t-184.5 155.5
q-101 66 -169.5 122.5t-117 141t-48.5 193.5q0 120 59.5 207.5t163.5 133.5t235 46q226 0 346 -85l-48 -116q-41 41 -121.5 63t-166.5 22q-124 0 -220.5 -55.5t-96.5 -196.5q0 -82 33 -142t86.5 -104t153.5 -110q96 -63 159 -115.5t107.5 -129.5t44.5 -176q0 -134 -67 -228
t-184.5 -142t-266.5 -48q-80 0 -158 14t-135.5 35t-81.5 40l42 123q19 -21 72.5 -43z" />
    <glyph glyph-name="uni1E61" unicode="&#x1e61;" horiz-adv-x="872" 
d="M187.5 122.5q72.5 -25.5 159.5 -25.5q104 0 169 44t65 131q0 47 -21.5 85t-53 67.5t-87.5 72.5q-10 7 -30 23q-71 56 -114 97.5t-72.5 100.5t-29.5 136q0 96 51 164t136.5 103t189.5 35q83 0 153.5 -14t100.5 -30l-29 -140q-8 11 -38 28t-79 30.5t-108 13.5
q-108 0 -171 -46.5t-63 -124.5q0 -52 21 -93t52.5 -70t82.5 -68l18 -14l17 -13q65 -49 110.5 -91t78.5 -102t33 -133q0 -98 -50 -167t-138.5 -103.5t-201.5 -34.5q-94 0 -180 19.5t-114 44.5l28 130q42 -30 114.5 -55.5zM482.5 1582q15.5 28 41 44.5t54.5 16.5
q42 0 67 -24.5t25 -63.5q0 -34 -16 -63t-43 -46t-58 -17q-37 0 -61.5 25.5t-24.5 65.5q0 34 15.5 62z" />
    <glyph glyph-name="uni1E6A" unicode="&#x1e6a;" horiz-adv-x="1122" 
d="M663 1858.5q16 28.5 41.5 45t52.5 16.5q42 0 66.5 -24t24.5 -64q0 -34 -16 -63t-43 -45.5t-58 -16.5q-36 0 -60 25.5t-24 64.5q0 33 16 61.5zM138 1410l17 120h1044l-17 -120l-443 9l-179 -1419h-150l179 1419z" />
    <glyph glyph-name="uni1E6B" unicode="&#x1e6b;" horiz-adv-x="739" 
d="M271 1021h-135l31 118l127 1l56 279h126l-36 -279h291l-18 -119h-290l-87 -659l-5 -34q-1 -10 -6 -48.5t-5 -60.5q0 -52 17 -84t62 -32q43 0 111.5 35t107.5 66l20 -84q-21 -26 -71.5 -58t-111.5 -55t-114 -23q-84 0 -129.5 43.5t-45.5 128.5q0 37 12 134zM353.5 1687
q15.5 28 41 44.5t54.5 16.5q42 0 67 -24.5t25 -63.5q0 -34 -16 -63t-43 -46t-58 -17q-37 0 -61.5 25.5t-24.5 65.5q0 34 15.5 62z" />
    <glyph glyph-name="Wgrave" unicode="&#x1e80;" horiz-adv-x="1770" 
d="M858 2000l273 -349l-56 -50q-76 46 -171 136.5t-140 165.5zM1867 1530l-647 -1540h-154l-89 860l-18 236l-84 -236l-340 -860h-155l-231 1540h150l146 -1096l40 -268l86 259l353 879l-24 226h144l109 -1096l20 -268l99 259l443 1105h152z" />
    <glyph glyph-name="wgrave" unicode="&#x1e81;" horiz-adv-x="1633" 
d="M1583 1082q0 -11 -2 -63q-9 -143 -59.5 -297.5t-130.5 -297.5t-178 -253l-153 -175l-136 -10l-57 368l-37 253q-52 -123 -116.5 -236t-136.5 -195l-150 -180l-135 -10l-57 368l-117 786h166l84 -786l21 -237l135 177q210 290 270 560l-42 286h163l86 -786l23 -238
l136 174q110 146 169 285t81 317l6 42q1 12 10 81t9 107q0 13 -1 18h146q3 -30 3 -58zM681 1704l294 -397l-65 -55q-48 33 -119 97.5t-134 134t-91 116.5z" />
    <glyph glyph-name="Wacute" unicode="&#x1e82;" horiz-adv-x="1770" 
d="M1272 2000l95 -97q-44 -74 -140.5 -163t-175.5 -137l-57 51zM1867 1530l-647 -1540h-154l-89 860l-18 236l-84 -236l-340 -860h-155l-231 1540h150l146 -1096l40 -268l86 259l353 879l-24 226h144l109 -1096l20 -268l99 259l443 1105h152z" />
    <glyph glyph-name="wacute" unicode="&#x1e83;" horiz-adv-x="1633" 
d="M1136 1704l115 -104q-20 -34 -84.5 -105.5t-141.5 -141.5t-134 -104l-63 55zM1583 1082q0 -11 -2 -63q-9 -143 -59.5 -297.5t-130.5 -297.5t-178 -253l-153 -175l-136 -10l-57 368l-37 253q-52 -123 -116.5 -236t-136.5 -195l-150 -180l-135 -10l-57 368l-117 786h166
l84 -786l21 -237l135 177q210 290 270 560l-42 286h163l86 -786l23 -238l136 174q110 146 169 285t81 317l6 42q1 12 10 81t9 107q0 13 -1 18h146q3 -30 3 -58z" />
    <glyph glyph-name="Wdieresis" unicode="&#x1e84;" horiz-adv-x="1770" 
d="M772.5 1874q16.5 28 42 44.5t51.5 16.5q43 0 67.5 -25t24.5 -65q0 -34 -16.5 -62.5t-43.5 -45t-57 -16.5q-36 0 -60.5 26t-24.5 66q0 33 16.5 61zM1192 1876q17 27 43 43t52 16q42 0 66.5 -24t24.5 -63q0 -52 -34 -89.5t-83 -37.5q-37 0 -61.5 27t-24.5 69q0 32 17 59z
M1867 1530l-647 -1540h-154l-89 860l-18 236l-84 -236l-340 -860h-155l-231 1540h150l146 -1096l40 -268l86 259l353 879l-24 226h144l109 -1096l20 -268l99 259l443 1105h152z" />
    <glyph glyph-name="wdieresis" unicode="&#x1e85;" horiz-adv-x="1633" 
d="M648.5 1562q15.5 28 41.5 44.5t55 16.5q41 0 66 -24.5t25 -63.5q0 -52 -34.5 -88.5t-82.5 -36.5q-36 0 -61 25.5t-25 64.5q0 34 15.5 62zM1069.5 1562q15.5 28 41.5 44.5t55 16.5q41 0 66 -24.5t25 -63.5q0 -52 -34.5 -88.5t-82.5 -36.5q-36 0 -61 25.5t-25 64.5
q0 34 15.5 62zM1583 1082q0 -11 -2 -63q-9 -143 -59.5 -297.5t-130.5 -297.5t-178 -253l-153 -175l-136 -10l-57 368l-37 253q-52 -123 -116.5 -236t-136.5 -195l-150 -180l-135 -10l-57 368l-117 786h166l84 -786l21 -237l135 177q210 290 270 560l-42 286h163l86 -786
l23 -238l136 174q110 146 169 285t81 317l6 42q1 12 10 81t9 107q0 13 -1 18h146q3 -30 3 -58z" />
    <glyph glyph-name="uni1E8E" unicode="&#x1e8e;" horiz-adv-x="1083" 
d="M105 1530h161l261 -710l41 -103l55 102l428 711h162l-592 -945l-75 -585h-144l76 585zM616 1858.5q16 28.5 41.5 45t52.5 16.5q42 0 66.5 -24t24.5 -64q0 -34 -16 -63t-43 -45.5t-58 -16.5q-36 0 -60 25.5t-24 64.5q0 33 16 61.5z" />
    <glyph glyph-name="uni1E8F" unicode="&#x1e8f;" horiz-adv-x="1048" 
d="M986 1067q0 -17 -2 -61q-10 -177 -84 -382t-183 -408q-57 -105 -128 -216t-135 -189q-70 -89 -133 -152.5t-157.5 -112t-213.5 -48.5q-36 0 -77 9t-73 21l43 124l22 -11t47 -15t63 -6q106 0 207.5 73t222.5 251h-93l-62 355l-127 841h164l109 -841l43 -301l131 225
q115 192 182 392.5t81 389.5q3 53 3 91l-1 44h147q4 -42 4 -73zM503.5 1582q15.5 28 41 44.5t54.5 16.5q42 0 67 -24.5t25 -63.5q0 -34 -16 -63t-43 -46t-58 -17q-37 0 -61.5 25.5t-24.5 65.5q0 34 15.5 62z" />
    <glyph glyph-name="uni1E9E" unicode="&#x1e9e;" horiz-adv-x="1456" 
d="M324.5 1174.5q89.5 175.5 238 269.5t351.5 94q103 0 173 -17t145 -46q39 -15 62 -22t46 -7l-12 -77l-368 -493q99 0 192 -46t151.5 -133.5t58.5 -206.5q0 -138 -60.5 -255t-176 -187.5t-274.5 -70.5q-146 0 -230.5 22.5t-146.5 63.5l80 124q41 -37 119.5 -61.5
t174.5 -24.5q91 0 173 43t132.5 127t50.5 201q0 155 -104.5 234t-331.5 79v47l382 520q-45 28 -110.5 46.5t-137.5 18.5q-132 0 -244.5 -65.5t-188.5 -196t-97 -317.5l-113 -838h-154l101 753q29 246 118.5 421.5z" />
    <glyph glyph-name="Ygrave" unicode="&#x1ef2;" horiz-adv-x="1083" 
d="M105 1530h161l261 -710l41 -103l55 102l428 711h162l-592 -945l-75 -585h-144l76 585zM492 2000l273 -349l-56 -50q-76 46 -171 136.5t-140 165.5z" />
    <glyph glyph-name="ygrave" unicode="&#x1ef3;" horiz-adv-x="1048" 
d="M986 1067q0 -17 -2 -61q-10 -177 -84 -382t-183 -408q-57 -105 -128 -216t-135 -189q-70 -89 -133 -152.5t-157.5 -112t-213.5 -48.5q-36 0 -77 9t-73 21l43 124l22 -11t47 -15t63 -6q106 0 207.5 73t222.5 251h-93l-62 355l-127 841h164l109 -841l43 -301l131 225
q115 192 182 392.5t81 389.5q3 53 3 91l-1 44h147q4 -42 4 -73zM324 1704l294 -397l-65 -55q-48 33 -119 97.5t-134 134t-91 116.5z" />
    <glyph glyph-name="endash" unicode="&#x2013;" horiz-adv-x="1535" 
d="M1340 833l-23 -121h-1097l23 121h1097z" />
    <glyph glyph-name="emdash" unicode="&#x2014;" horiz-adv-x="2028" 
d="M1833 833l-23 -121h-1590l22 121h1591z" />
    <glyph glyph-name="quoteleft" unicode="&#x2018;" horiz-adv-x="651" 
d="M285 1554.5q93 122.5 217 185.5l58 -85l-2 -16q-45 -24 -91 -75t-78 -126.5t-32 -167.5q0 -65 26 -128t76 -98l-4 -31l-93 -87q-42 17 -81.5 65t-64 114t-24.5 135q0 192 93 314.5z" />
    <glyph glyph-name="quoteright" unicode="&#x2019;" horiz-adv-x="667" 
d="M553 1102.5q-93 -122.5 -217 -185.5l-58 85l2 16q45 24 91 75t78 126.5t32 167.5q0 65 -26 128t-76 98l4 31l93 87q42 -17 81.5 -65t64 -114t24.5 -135q0 -192 -93 -314.5z" />
    <glyph glyph-name="quotesinglbase" unicode="&#x201a;" horiz-adv-x="638" 
d="M413 -336.5q-93 -122.5 -217 -185.5l-58 85l2 16q45 24 91 75t78 126.5t32 167.5q0 65 -26 128t-76 98l4 31l93 87q42 -17 81.5 -65t64 -114t24.5 -135q0 -192 -93 -314.5z" />
    <glyph glyph-name="quotereversed" unicode="&#x201b;" horiz-adv-x="651" 
d="M261.5 1576.5q40.5 58.5 90 95.5t94.5 43l66 -108l-4 -32q-57 -23 -97.5 -77.5t-55.5 -117.5q-12 -48 -12 -105q0 -97 37 -177.5t85 -122.5l-3 -16l-78 -67q-82 70 -140 175.5t-58 240.5q0 73 18 144q17 66 57.5 124.5z" />
    <glyph glyph-name="quotedblleft" unicode="&#x201c;" horiz-adv-x="1130" 
d="M764 1554.5q93 122.5 217 185.5l58 -85l-2 -16q-45 -24 -91 -75t-78 -126.5t-32 -167.5q0 -65 26 -128t76 -98l-4 -31l-93 -87q-42 17 -81.5 65t-64 114t-24.5 135q0 192 93 314.5zM285 1554.5q93 122.5 217 185.5l58 -85l-2 -16q-45 -24 -91 -75t-78 -126.5t-32 -167.5
q0 -65 26 -128t76 -98l-4 -31l-93 -87q-42 17 -81.5 65t-64 114t-24.5 135q0 192 93 314.5z" />
    <glyph glyph-name="quotedblright" unicode="&#x201d;" horiz-adv-x="1128" 
d="M586 1102.5q-93 -122.5 -217 -185.5l-58 85l2 16q45 24 91 75t78 126.5t32 167.5q0 65 -26 128t-76 98l4 31l93 87q42 -17 81.5 -65t64 -114t24.5 -135q0 -192 -93 -314.5zM1065 1102.5q-93 -122.5 -217 -185.5l-58 85l2 16q45 24 91 75t78 126.5t32 167.5q0 65 -26 128
t-76 98l4 31l93 87q42 -17 81.5 -65t64 -114t24.5 -135q0 -192 -93 -314.5z" />
    <glyph glyph-name="quotedblbase" unicode="&#x201e;" horiz-adv-x="1117" 
d="M413 -336.5q-93 -122.5 -217 -185.5l-58 85l2 16q45 24 91 75t78 126.5t32 167.5q0 65 -26 128t-76 98l4 31l93 87q42 -17 81.5 -65t64 -114t24.5 -135q0 -192 -93 -314.5zM892 -336.5q-93 -122.5 -217 -185.5l-58 85l2 16q45 24 91 75t78 126.5t32 167.5q0 65 -26 128
t-76 98l4 31l93 87q42 -17 81.5 -65t64 -114t24.5 -135q0 -192 -93 -314.5z" />
    <glyph glyph-name="dagger" unicode="&#x2020;" horiz-adv-x="815" 
d="M437 1146h-299l16 114h316l11 209l26 177h144l-29 -177l-56 -209h307l-16 -114h-291l-12 -138l-158 -857h-90l104 857z" />
    <glyph glyph-name="daggerdbl" unicode="&#x2021;" horiz-adv-x="815" 
d="M373 649l-242 1l18 114h251l8 217l39 165h-271l16 114h287l9 209l26 177h144l-28 -177l-55 -209h294l-17 -114h-277l-12 -165l-54 -217h248l-16 -114l-240 -1l-13 -139l-108 -561h-88l52 561z" />
    <glyph glyph-name="bullet" unicode="&#x2022;" horiz-adv-x="858" 
d="M308 786q26 46 71 75.5t98 29.5q59 0 97.5 -37.5t38.5 -95.5q0 -48 -24.5 -94.5t-69 -76.5t-100.5 -30q-38 0 -69.5 18.5t-49.5 49.5t-18 68q0 47 26 93z" />
    <glyph glyph-name="ellipsis" unicode="&#x2026;" horiz-adv-x="1509" 
d="M296.5 181q22.5 -22 22.5 -60q0 -42 -18.5 -73.5t-48 -48t-62.5 -16.5q-38 0 -61 21.5t-23 61.5q0 39 17 70t45 49t60 18q46 0 68.5 -22zM799.5 181q22.5 -22 22.5 -60q0 -42 -18.5 -73.5t-48 -48t-63.5 -16.5q-38 0 -60.5 21t-22.5 61q0 39 17 70.5t45 49.5t60 18
q46 0 68.5 -22zM1302 181q22 -22 22 -60q0 -42 -18 -73.5t-47.5 -48t-63.5 -16.5q-38 0 -61 21.5t-23 61.5q0 12 1 19q7 52 42 85t80 33q46 0 68 -22z" />
    <glyph glyph-name="perthousand" unicode="&#x2030;" horiz-adv-x="2701" 
d="M1484 1530l-947 -1530h-123l947 1530h123zM254.5 1259.5q53.5 98.5 147.5 159.5t209 61q142 0 211 -79.5t69 -215.5q0 -111 -50.5 -212.5t-144 -164.5t-214.5 -63q-89 0 -152.5 40t-96 110.5t-32.5 159.5q0 106 53.5 204.5zM717 1330.5q-44 55.5 -127 55.5
q-79 0 -140 -51t-93.5 -128t-32.5 -151q0 -97 47.5 -157t132.5 -60q80 0 138.5 53.5t88.5 133t30 153.5q0 96 -44 151.5zM1658 719.5q69 -79.5 69 -215.5q0 -111 -50.5 -212.5t-144 -164.5t-214.5 -63q-89 0 -152.5 40t-96 110.5t-32.5 159.5q0 106 53.5 204.5t147.5 159.5
t209 61q142 0 211 -79.5zM2448.5 719.5q68.5 -79.5 68.5 -215.5q0 -111 -50.5 -212.5t-144 -164.5t-214.5 -63q-89 0 -152.5 40t-96 110.5t-32.5 159.5q0 106 53.5 204.5t148 159.5t209.5 61q142 0 210.5 -79.5zM1478.5 211.5q58.5 53.5 88.5 133t30 153.5q0 96 -44 151.5
t-127 55.5q-79 0 -140 -51t-93.5 -128t-32.5 -151q0 -97 47.5 -157t132.5 -60q80 0 138.5 53.5zM2268.5 211.5q58.5 53.5 88.5 133t30 153.5q0 96 -44 151.5t-126 55.5q-80 0 -141 -51t-93.5 -128t-32.5 -151q0 -97 47.5 -157t132.5 -60q80 0 138.5 53.5z" />
    <glyph glyph-name="minute" unicode="&#x2032;" horiz-adv-x="623" 
d="M591 1782l-184 -592h-106l134 592h156z" />
    <glyph glyph-name="second" unicode="&#x2033;" horiz-adv-x="1011" 
d="M591 1782l-184 -592h-106l134 592h156zM979 1782l-184 -592h-106l134 592h156z" />
    <glyph glyph-name="guilsinglleft" unicode="&#x2039;" horiz-adv-x="1190" 
d="M948 1086l29 -89l-556 -383l452 -377l-53 -85l-583 399l16 120z" />
    <glyph glyph-name="guilsinglright" unicode="&#x203a;" horiz-adv-x="1190" 
d="M222 152l-29 89l556 383l-452 377l53 85l583 -399l-16 -120z" />
    <glyph glyph-name="exclamdbl" unicode="&#x203c;" horiz-adv-x="1198" 
d="M1146 1778l-215 -1290h-120l163 1290h172zM910.5 181q22.5 -22 22.5 -60q0 -13 -1 -20q-8 -55 -46 -86.5t-90 -31.5q-39 0 -64.5 22.5t-25.5 62.5q0 38 19 69t50.5 48.5t66.5 17.5q46 0 68.5 -22zM571 1778l-215 -1290h-120l163 1290h172zM335.5 181q22.5 -22 22.5 -60
q0 -13 -1 -20q-8 -55 -46 -86.5t-90 -31.5q-39 0 -64.5 22.5t-25.5 62.5q0 38 19 69t50.5 48.5t66.5 17.5q46 0 68.5 -22z" />
    <glyph glyph-name="fraction" unicode="&#x2044;" horiz-adv-x="1026" 
d="M962 1530l-681 -1530h-123l681 1530h123z" />
    <glyph glyph-name="colonmonetary" unicode="&#x20a1;" horiz-adv-x="1327" 
d="M698 -16h9l-67 -338h90l67 342q128 10 229 43.5t146 79.5l-43 97q-129 -86 -309 -106l261 1318q53 -8 92.5 -21.5t58.5 -27.5l49 121q-91 30 -178 43l56 280h-90l-54 -271q-38 2 -58 2q-46 0 -107 -7l55 276h-91l-59 -295q-172 -46 -303.5 -165t-204.5 -299t-73 -403
q0 -126 30.5 -245.5t95 -216.5t163.5 -151l-78 -394h91l71 359q73 -21 151 -21zM931 1432q22 0 62 -2l-264 -1333h-9q-82 0 -149 29l256 1297q50 9 104 9zM490 178q-79 71 -117.5 196t-38.5 284q0 191 48 341.5t137 252t212 146.5z" />
    <glyph glyph-name="franc" unicode="&#x20a3;" horiz-adv-x="1170" 
d="M196 0h150l43 339h272l14 121h-271l34 265l512 -12l10 130l-508 -8l73 582l632 -7l11 120h-779l-135 -1070h-226l-14 -121h225z" />
    <glyph glyph-name="lira" unicode="&#x20a4;" horiz-adv-x="1474" 
d="M415 701h-262l-15 -106h259l-18 -107q-13 -94 -39 -176.5t-71 -118.5q-100 -20 -160.5 -61.5t-60.5 -86.5q0 -30 19.5 -45t46.5 -15q50 0 108.5 32t93.5 76q45 -9 135 -40q116 -38 204 -58t192 -20q187 0 294 53t146.5 131t39.5 164q0 81 -37 150.5t-98 120.5l-119 -91
q40 -24 68 -76t28 -108q0 -109 -82 -172.5t-259 -63.5q-91 0 -171.5 18t-184.5 50q-28 10 -71 22q59 86 91 180t57 242h390l15 106h-386l29 168h400l14 106h-395l1 7q43 250 132 352.5t223 102.5q75 0 133.5 -24.5t83.5 -51.5l63 104q-42 46 -112 63t-145 17
q-154 0 -266 -78.5t-177.5 -206t-88.5 -280.5l-1 -5h-252l-14 -106h248z" />
    <glyph glyph-name="uni20A6" unicode="&#x20a6;" horiz-adv-x="1818" 
d="M358 617h-277l-16 -112h278l-69 -505h142l68 505h541l274 -505h130l68 505h274l15 112h-274l40 293h290l15 112h-290l69 502h-141l-68 -502h-540l-271 502h-134l-69 -502h-268l-15 -112h268zM554 1022l38 293l145 -280l7 -13h-190zM964 617h-465l40 293h266zM1372 617
h-265l-159 293h464zM1167 505h190l-4 -32l-37 -280l-117 254z" />
    <glyph glyph-name="peseta" unicode="&#x20a7;" horiz-adv-x="1442" 
d="M223 1h151l68 540q134 -13 227 -13q153 0 277.5 54t207.5 156t113 244h218l15 113h-219q2 40 2 63q-3 196 -120 293t-337 97q-53 0 -159 -8q-95 -9 -163 -9h-88l-55 -436h-217l-15 -113h217zM1131 1152q0 -21 -2 -57h-618l40 319q175 20 252 20q328 0 328 -282zM1113 982
q-37 -164 -147 -249t-292 -87q-47 0 -117 5.5t-100 11.5l40 319h616z" />
    <glyph glyph-name="uni20A9" unicode="&#x20a9;" horiz-adv-x="1920" 
d="M377 507h-328l-13 -100h356l63 -417h155l165 417h323l43 -417h154l175 417h378l12 100h-348l107 254h273l13 101h-244l281 668h-152l-268 -668h-337l-66 668h-144l23 -226l-177 -442h-358l-89 668h-150l100 -668h-230l-13 -101h258zM954 862l80 224l17 -224h-97zM679 507
h-169l-34 254h305zM1087 507h-273l101 254h146zM1380 507h-160l-25 254h287zM560 166l-36 241h116zM1248 166l-18 241h110z" />
    <glyph glyph-name="uni20AA" unicode="&#x20aa;" horiz-adv-x="1839" 
d="M904 1407q88 0 137 -20.5t69 -60.5t20 -103q0 -34 -7 -94l-104 -762h141l100 735q9 77 9 128q0 136 -64 214t-231 78h-554l-191 -1522h132l177 1407h366zM1092 111q-113 0 -183 17t-103 54.5t-33 99.5q0 9 2 31l113 853h-142l-106 -840q-3 -27 -3 -50q0 -142 97 -209
t265 -67h477l191 1522h-130q-27 -226 -77 -621q-68 -540 -96 -790h-272z" />
    <glyph glyph-name="dong" unicode="&#x20ab;" horiz-adv-x="1331" 
d="M1135 1408h235l17 113h-237l23 173h-145l-24 -173h-268l-17 -113h270l-7 -54l-21 -148q-84 42 -192 42q-174 0 -304.5 -80.5t-199.5 -216.5t-69 -299q0 -118 48 -199.5t130 -121.5t185 -40q199 0 316 109q-10 -79 -10 -87q0 -11 3 -16.5t13 -5.5h107zM396.5 902
q45.5 101 135.5 162t217 61q74 0 124 -12t65 -25l-73 -564q-3 -3 -30 -32t-96.5 -52t-161.5 -23q-105 0 -165.5 67.5t-60.5 199.5q0 117 45.5 218zM1158 135h-1082l-20 -135h1081z" />
    <glyph glyph-name="Euro" unicode="&#x20ac;" horiz-adv-x="1381" 
d="M616 1324.5q-114 -107.5 -171 -299.5h583l-15 -108h-594q-22 -113 -25 -247h585l-15 -108h-568q10 -214 91.5 -339.5t239.5 -125.5q119 0 208.5 32t163.5 86l43 -104q-48 -55 -168.5 -91t-268.5 -36t-249 81t-154 211.5t-65 285.5h-211l16 108h192q1 131 27 247h-186
l16 108h198q52 161 147.5 278.5t223.5 180t275 62.5q97 0 163 -14t146 -40l-49 -121q-32 23 -112 42t-189 19q-164 0 -278 -107.5z" />
    <glyph glyph-name="uni20B1" unicode="&#x20b1;" horiz-adv-x="1441" 
d="M340 928h-199l-12 -82h200l-106 -845h151l68 540q134 -13 227 -13q191 0 335.5 83t216.5 235h251l12 82h-231q28 94 30 210h219l12 82h-235q-21 165 -136 246.5t-317 81.5q-53 0 -159 -8q-95 -9 -163 -9h-88l-39 -311h-206l-12 -82h207zM1125 1220h-599l25 194
q175 20 252 20q283 0 322 -214zM516 1138h615q-3 -119 -33 -210h-608zM1062 846q-109 -196 -388 -200q-47 0 -117 5.5t-100 11.5l23 183h582z" />
    <glyph glyph-name="uni20B2" unicode="&#x20b2;" horiz-adv-x="1489" 
d="M796 -10q71 8 135 24.5t138 40.5l21 6q39 12 75 21t62 12l82 635h-429l-15 -121l281 -1l-54 -421q-227 -85 -372 -85q-132 0 -217 79t-123 204.5t-38 270.5q0 192 66 369t197.5 288.5t315.5 111.5q122 0 211 -24.5t145 -57.5l47 137l-38 12q-64 20 -132 34t-165 19
l29 218h-135l-29 -220q-190 -19 -344 -139t-240 -322t-81 -454q3 -161 53 -304t155.5 -236.5t264.5 -102.5l-34 -242h135z" />
    <glyph glyph-name="uni20B5" unicode="&#x20b5;" horiz-adv-x="1352" 
d="M972 24q118 35 170 87l-43 97q-73 -48 -164 -77t-211 -34l200 1335q101 -2 178.5 -21t107.5 -40l48 121q-152 51 -317 54l41 269h-113l-42 -275q-197 -24 -352 -140.5t-242.5 -309.5t-87.5 -437q0 -158 46.5 -301.5t147.5 -243t255 -119.5l-51 -343h113l51 339
q147 4 265 39zM612 104q-158 31 -232.5 179t-74.5 370q0 219 61.5 385.5t175 265.5t268.5 121z" />
    <glyph glyph-name="uni20B9" unicode="&#x20b9;" horiz-adv-x="1388" 
d="M1030 799q94 88 125 234h194l17 121h-197v8q0 143 -72 246h263l17 122h-1127l-16 -122h678q53 -30 79 -89t26 -127q0 -14 -2 -38h-775l-17 -121h769q-47 -138 -171.5 -213t-297.5 -75h-92q-185 0 -248 7l-14 -125q25 -3 85.5 -6t134.5 -3q138 0 269 15
q47 -40 86.5 -135.5t90.5 -255.5q40 -125 64.5 -183.5t46.5 -58.5h177q-33 43 -62 112.5t-69 187.5q-53 150 -90.5 236t-87.5 132q122 43 216 131z" />
    <glyph glyph-name="uni20BA" unicode="&#x20ba;" horiz-adv-x="1464" 
d="M618 656l513 211l18 129l-514 -211l34 260l530 219l19 135l-531 -220l47 359h-156l-56 -427l-308 -127l-19 -135l309 128l-34 -260l-300 -123l-17 -128l300 123l-77 -589h156q214 0 401 81.5t309.5 234.5t149.5 358l7 45h-158q-25 -196 -126 -327.5t-249 -194.5t-316 -63
z" />
    <glyph glyph-name="uni2113" unicode="&#x2113;" horiz-adv-x="1206" 
d="M718 143.5q54 36.5 93.5 109.5t56.5 177l124 -19q-39 -186 -139.5 -306.5t-262.5 -120.5q-84 0 -149 51.5t-105 148.5q-85 -75 -164 -136l-96 83q118 96 222 192q-15 84 -15 189q0 275 80.5 547t218.5 446.5t302 174.5q84 0 132.5 -62.5t48.5 -164.5q0 -289 -170 -593.5
t-456 -580.5q24 -87 67 -129.5t98 -42.5q60 0 114 36.5zM637.5 1384q-100.5 -161 -162.5 -403.5t-62 -467.5q0 -28 2 -76q253 259 387 511t134 480q0 49 -24 83t-65 34q-109 0 -209.5 -161z" />
    <glyph glyph-name="uni2116" unicode="&#x2116;" horiz-adv-x="2486" 
d="M2240 1483q84 -49 128 -140.5t44 -217.5q0 -41 -4 -77q-16 -160 -90 -267.5t-177 -159t-208 -51.5q-117 0 -201 50t-128 142.5t-44 218.5q0 41 4 77q16 160 89.5 266.5t177 157t208.5 50.5q117 0 201 -49zM507 1530l475 -1093l86 -235l25 267l131 1061h143l-194 -1530
h-146l-496 1122l-70 235l-28 -284l-132 -1073h-142l191 1530h157zM2160.5 768.5q86.5 88.5 104.5 271.5q4 33 4 72q0 143 -63.5 227t-177.5 84q-128 0 -215.5 -87t-105.5 -271q-4 -33 -4 -72q0 -144 63.5 -228.5t177.5 -84.5q130 0 216.5 88.5zM2275 121l-11 -121h-760
l11 121h760z" />
    <glyph glyph-name="trademark" unicode="&#x2122;" horiz-adv-x="2111" 
d="M178 1419l17 111h666l-13 -111h-273l-90 -665l-131 -1l90 666h-266zM1277 1530l120 -472l38 -147l292 619h218l-32 -776h-133l27 484l14 220l-54 -107l-303 -605h-98l-148 547l-44 167l-31 -174l-102 -532h-124l152 776h208z" />
    <glyph glyph-name="uni2126" unicode="&#x2126;" horiz-adv-x="1659" 
d="M1473 638q-58 -156 -158 -294.5t-219 -220.5h415l-10 -123h-578l-16 107q119 65 228 191.5t177 288t68 324.5q0 170 -71.5 286.5t-186.5 173t-245 56.5q-165 0 -295.5 -75t-206 -223.5t-75.5 -359.5q0 -145 53 -281t132 -236t155 -145l-31 -107h-537l14 116h394
q-76 55 -152.5 160.5t-126 237.5t-49.5 259q0 248 95.5 422t263 262.5t380.5 88.5q178 0 324 -77.5t231 -218.5t85 -325q0 -131 -58 -287z" />
    <glyph glyph-name="estimated" unicode="&#x212e;" horiz-adv-x="1372" 
d="M340 631v-365q63 -98 168.5 -145t244.5 -47q99 0 206.5 30t168.5 65l30 -87q-61 -44 -186 -71t-236 -27q-195 0 -335 82t-214 236.5t-74 368.5q0 199 71 352.5t212 241.5t344 91q145 3 266 -60.5t194 -183.5t78 -280q0 -80 -2 -123.5t-9 -77.5h-927zM504 1215.5
q-101 -50.5 -164 -151.5v-327h726v380q-104 149 -336 149q-125 0 -226 -50.5z" />
    <glyph glyph-name="partialdiff" unicode="&#x2202;" horiz-adv-x="1367" 
d="M903 1020q70 -30 145 -79q-9 270 -126 444t-373 174q-75 0 -150 -20.5t-126 -51.5l-56 95q66 50 167.5 76t195.5 26q230 0 372 -120t202.5 -306t60.5 -397q0 -242 -54.5 -438t-183.5 -317.5t-339 -121.5q-132 0 -236 59.5t-165 166t-66 241.5l-1 33q0 174 76.5 302.5
t207.5 196t291 67.5q88 0 158 -30zM908.5 899.5q-75.5 33.5 -176.5 33.5q-107 0 -198.5 -52t-147 -150.5t-55.5 -231.5q0 -177 77.5 -284t243.5 -107q217 0 304 205t97 498q-69 55 -144.5 88.5z" />
    <glyph glyph-name="uni2206" unicode="&#x2206;" horiz-adv-x="1407" 
d="M763 1508l556 -1482l-17 -26h-1310l-12 22l753 1486h30zM731 1184l-513 -1054h890z" />
    <glyph glyph-name="product" unicode="&#x220f;" horiz-adv-x="1609" 
d="M139 1396v126h1369v-126h-196v-1566h-170v1566h-637v-1566h-170v1566h-196z" />
    <glyph glyph-name="summation" unicode="&#x2211;" horiz-adv-x="1529" 
d="M228 1459l23 63h1036v-126h-840l517 -714l-505 -733h843v-119h-1055l-20 42l561 806z" />
    <glyph glyph-name="minus" unicode="&#x2212;" horiz-adv-x="1266" 
d="M1071 833l-14 -121h-837l14 121h837z" />
    <glyph glyph-name="uni2215" unicode="&#x2215;" horiz-adv-x="854" 
d="M787 1597h133l-863 -1959h-132z" />
    <glyph glyph-name="uni2219" unicode="&#x2219;" horiz-adv-x="686" 
d="M431.5 826q21.5 -24 21.5 -65q0 -63 -32.5 -97t-88.5 -34q-38 0 -63.5 24.5t-25.5 65.5q0 55 33.5 92.5t87.5 37.5q46 0 67.5 -24z" />
    <glyph glyph-name="radical" unicode="&#x221a;" horiz-adv-x="1572" 
d="M269 714h141l356 -871l649 2027h161l-735 -2224h-135l-410 925l-142 -81l-68 112z" />
    <glyph glyph-name="infinity" unicode="&#x221e;" horiz-adv-x="1804" 
d="M130 819.5q56 91.5 151.5 138t212.5 46.5q137 0 233 -75.5t178 -202.5q76 116 189 197t240 81q131 0 220.5 -51t133 -134t43.5 -181q0 -123 -53.5 -215.5t-151 -143t-227.5 -50.5q-134 0 -225.5 73.5t-171.5 199.5q-75 -114 -183.5 -192.5t-234.5 -79.5q-125 -2 -218 49
t-142.5 136.5t-49.5 184.5q0 128 56 219.5zM736 741.5q-42 55.5 -100 96.5t-128 41q-88 0 -152 -37.5t-97.5 -99t-33.5 -133.5q0 -70 29.5 -129.5t91.5 -96.5t155 -37q87 0 171.5 70t154.5 189q-49 81 -91 136.5zM1463 385.5q58 40.5 87.5 105t29.5 133.5q0 70 -29.5 128
t-90.5 92.5t-152 34.5q-94 0 -178.5 -75.5t-147.5 -181.5q73 -120 155.5 -198.5t187.5 -78.5q80 0 138 40.5z" />
    <glyph glyph-name="integral" unicode="&#x222b;" horiz-adv-x="1042" 
d="M609 -310.5q66 82.5 66 281.5q0 92 -28 190t-69 187.5t-110 224.5q-72 142 -114 234.5t-71 196t-29 202.5q0 142 46 250t139 168.5t230 60.5q102 0 177.5 -31.5t117.5 -96.5l-87 -87q-26 42 -80.5 66t-131.5 24q-134 0 -196.5 -94t-62.5 -260q0 -92 28 -189.5
t68.5 -186.5t109.5 -224q71 -138 113.5 -232t72 -198t29.5 -204q0 -226 -94 -358t-299 -132q-96 0 -184.5 33.5t-138.5 89.5l64 103q35 -37 95 -69t144 -32q129 0 195 82.5z" />
    <glyph glyph-name="approxequal" unicode="&#x2248;" horiz-adv-x="1063" 
d="M125 497q44 46 108 77.5t136 31.5q53 0 95.5 -24t96.5 -70q48 -40 80.5 -59.5t71.5 -19.5q69 0 121.5 37t88.5 93l56 -57q-15 -48 -57 -94.5t-104 -76t-134 -29.5q-54 0 -96 24t-97 71q-48 40 -80.5 59.5t-70.5 19.5q-66 0 -122 -33.5t-96 -94.5l-55 57q14 42 58 88z
M178 943q44 46 108 77.5t136 31.5q53 0 95.5 -24t96.5 -70q48 -40 80.5 -59.5t71.5 -19.5q69 0 121.5 37t88.5 93l56 -57q-15 -48 -57 -94.5t-104 -76t-134 -29.5q-54 0 -96 24t-97 71q-48 40 -80.5 59.5t-70.5 19.5q-66 0 -122 -33.5t-96 -94.5l-55 57q14 42 58 88z" />
    <glyph glyph-name="notequal" unicode="&#x2260;" horiz-adv-x="1063" 
d="M696 867l-179 -389h410l-14 -120h-452l-165 -358h-121l165 358h-241l13 120h284l179 389h-406l13 120h448l156 337h121l-156 -337h246l-14 -120h-287z" />
    <glyph glyph-name="lessequal" unicode="&#x2264;" horiz-adv-x="1368" 
d="M1204 1204l-16 -141l-770 -336l691 -342l-16 -139l-894 454l6 59zM1101 113l-14 -114h-948l14 114h948z" />
    <glyph glyph-name="greaterequal" unicode="&#x2265;" horiz-adv-x="1368" 
d="M1211 758l-887 446l-19 -137l688 -333l-777 -339l-19 -149l1006 453zM1104 113h-948l-15 -114h948z" />
    <glyph glyph-name="lozenge" unicode="&#x25ca;" horiz-adv-x="1175" 
d="M57 773l531 743h8l532 -743v-13l-531 -760h-11l-529 760v13zM964 767v3l-371 528h-3l-368 -528v-6l368 -543h3z" />
    <glyph glyph-name="i.cy" horiz-adv-x="564" 
d="M436 1144l-155 -1144h-148l154 1144h149zM332.5 1582q15.5 28 41 44.5t54.5 16.5q42 0 67 -24.5t25 -63.5q0 -34 -16 -63t-43 -46t-58 -17q-37 0 -61.5 25.5t-24.5 65.5q0 34 15.5 62z" />
    <glyph glyph-name="IJ_acutecomb" horiz-adv-x="1156" 
d="M655 2000l95 -97q-44 -74 -140.5 -163t-175.5 -137l-57 51zM1222 1996l95 -97q-44 -74 -140.5 -163t-175.5 -137l-57 51zM489 1530l-193 -1530h-151l193 1530h151zM1073 1530q-54 -506 -111.5 -945t-79.5 -510q-39 -131 -105.5 -213t-151 -124t-194.5 -61l-28 68
q93 25 163 79t112.5 122t57.5 139q42 198 75.5 463t75.5 660l35 322h151z" />
    <glyph glyph-name="ij_acutecomb" horiz-adv-x="1140" 
d="M608 1707l115 -104q-20 -34 -84.5 -105.5t-141.5 -141.5t-134 -104l-63 55zM1182 1704l115 -104q-20 -34 -84.5 -105.5t-141.5 -141.5t-134 -104l-63 55zM436 1144l-155 -1144h-148l154 1144h149zM1008 1144l-153 -1139q-33 -249 -135.5 -384.5t-263.5 -135.5
q-45 0 -80 11t-56 27l40 86q10 -8 32.5 -14t42.5 -6q90 0 145 59t84 159t49 252l146 1085h149z" />
    <glyph glyph-name="one.numr" horiz-adv-x="969" 
d="M441.5 1418.5q-99.5 -27.5 -115.5 -31.5l-63 -18l-5 95q65 17 150 52t157 71.5t97 57.5l56 -17l-138 -992h-142l115 819q-12 -9 -111.5 -36.5z" />
    <glyph glyph-name="two.numr" horiz-adv-x="1168" 
d="M483 898.5q140 91.5 262 215.5t122 238q0 85 -60 131.5t-163 46.5q-94 0 -180 -40.5t-155 -111.5l-54 72q33 45 94 90.5t143 76t173 30.5q111 0 190 -39t118.5 -98t39.5 -118q0 -130 -76 -237.5t-188 -190.5t-302 -199l-50 -31l602 25l-5 -122h-782l-35 75
q166 95 306 186.5z" />
    <glyph glyph-name="three.numr" horiz-adv-x="1065" 
d="M264.5 645q69.5 -14 126.5 -14q86 0 169 26t138.5 83.5t55.5 146.5q0 47 -23 85.5t-67.5 62t-106.5 23.5q-15 -4 -39 -10l-48 -12l-96 -24l16 111q168 40 267 104.5t99 172.5q0 63 -42.5 99.5t-137.5 36.5q-84 0 -157 -26.5t-144 -73.5l-35 87q175 121 385 121
q93 0 161 -28t103.5 -76t35.5 -106q0 -106 -74 -184.5t-191 -122.5q96 0 152.5 -39.5t79 -95.5t20.5 -108q-4 -115 -77 -194.5t-186 -119t-236 -39.5q-62 0 -145 18.5t-136 52.5l14 84q49 -27 118.5 -41z" />
    <glyph glyph-name="acute.cap" horiz-adv-x="526" 
d="M360 2000l95 -97q-44 -74 -140.5 -163t-175.5 -137l-57 51z" />
    <glyph glyph-name="breve.cap" horiz-adv-x="715" 
d="M53 1980h103q0 -15 3 -30q10 -84 56 -142.5t138 -58.5q68 0 117 37.5t76 90.5t36 103h101v-8q0 -8 -2 -24q-8 -75 -52 -147t-117.5 -118t-163.5 -46q-99 0 -165.5 45.5t-98.5 119t-32 157.5q0 15 1 21z" />
    <glyph glyph-name="caron.cap" horiz-adv-x="793" 
d="M117 2000l244 -270l321 270l63 -67l-322 -319h-135l-238 319z" />
    <glyph glyph-name="circumflex.cap" horiz-adv-x="795" 
d="M391 2000h136l205 -348l-73 -53l-219 265l-330 -270l-59 59z" />
    <glyph glyph-name="dieresis.cap" horiz-adv-x="807" 
d="M103.5 1874q16.5 28 42 44.5t51.5 16.5q43 0 67.5 -25t24.5 -65q0 -34 -16.5 -62.5t-43.5 -45t-57 -16.5q-36 0 -60.5 26t-24.5 66q0 33 16.5 61zM523 1876q17 27 43 43t52 16q42 0 66.5 -24t24.5 -63q0 -52 -34 -89.5t-83 -37.5q-37 0 -61.5 27t-24.5 69q0 32 17 59z
" />
    <glyph glyph-name="dotaccent.cap" horiz-adv-x="389" 
d="M75 1858.5q16 28.5 41.5 45t52.5 16.5q42 0 66.5 -24t24.5 -64q0 -34 -16 -63t-43 -45.5t-58 -16.5q-36 0 -60 25.5t-24 64.5q0 33 16 61.5z" />
    <glyph glyph-name="grave.cap" horiz-adv-x="522" 
d="M146 2000l273 -349l-56 -50q-76 46 -171 136.5t-140 165.5z" />
    <glyph glyph-name="hungarumlaut.cap" horiz-adv-x="922" 
d="M784 1996l103 -90q-28 -50 -91 -116t-137 -126t-130 -93l-57 50zM371 1994l101 -89q-36 -73 -138.5 -168.5t-202.5 -167.5l-72 50z" />
    <glyph glyph-name="macron.cap" horiz-adv-x="614" 
d="M558 1862l-5 -114h-509l4 114h510z" />
    <glyph glyph-name="ring.cap" horiz-adv-x="723" 
d="M104.5 1878.5q50.5 61.5 129 91.5t162.5 30q125 0 197.5 -67t72.5 -184q0 -89 -45.5 -149t-121.5 -88.5t-166 -28.5q-133 0 -206 64.5t-73 180.5q0 89 50.5 150.5zM510 1873.5q-47 42.5 -126 42.5q-92 0 -157.5 -45t-65.5 -148q0 -45 22.5 -81t63 -56.5t92.5 -20.5
q218 0 218 197q0 69 -47 111.5z" />
    <glyph glyph-name="tilde.cap" horiz-adv-x="813" 
d="M94.5 1878q43.5 38 97.5 62t105 24q53 0 89 -22t78 -63q33 -32 56.5 -47.5t53.5 -15.5q37 0 65.5 19t45 40.5t43.5 61.5l66 -70q-16 -47 -55 -87t-90.5 -63.5t-103.5 -23.5q-56 0 -92 21t-78 61q-35 33 -59.5 48.5t-58.5 16.5q-37 0 -65.5 -16t-43.5 -32t-51 -59l-67 65
q21 42 64.5 80z" />
    <glyph glyph-name="caronvertical" horiz-adv-x="315" 
d="M268 1448q0 59 -8 105.5t-21 66.5l7 25l133 35q29 -57 29 -180q0 -33 -1 -50q-4 -107 -39.5 -221.5t-88.5 -190.5l-78 30l-4 20q71 198 71 360z" />
  </font>
</defs>
</svg>
