<?xml version="1.0" standalone="no"?>
<!DOCTYPE svg PUBLIC "-//W3C//DTD SVG 1.1//EN" "http://www.w3.org/Graphics/SVG/1.1/DTD/svg11.dtd" >
<svg xmlns="http://www.w3.org/2000/svg" xmlns:xlink="http://www.w3.org/1999/xlink" version="1.1">
<metadata>
Created by FontForge 20170731 at Mon Jan 25 11:36:05 2016
 By Aleksey,,,
Copyright (c) 2013-2016, Sorkin Type Co (www.sorkintype.com) with Reserved Font Name 'Merriweather'
</metadata>
<defs>
<font id="MerriweatherSans-ExtraBoldItalic" horiz-adv-x="664" >
  <font-face 
    font-family="Merriweather Sans ExtraBold"
    font-weight="800"
    font-style="italic"
    font-stretch="normal"
    units-per-em="2048"
    panose-1="0 0 9 0 0 0 0 0 0 0"
    ascent="1638"
    descent="-410"
    x-height="1140"
    cap-height="1530"
    bbox="-360 -560 2889 2114"
    underline-thickness="137"
    underline-position="-415"
    slope="-7.5"
    unicode-range="U+000D-FB02"
  />
<missing-glyph horiz-adv-x="1872" 
d="M1629 1416v-1416h-1416v1416h1416zM918 587l362 -368l122 122l-363 368l363 358l-128 124l-352 -366l-357 368l-123 -125l359 -363l-358 -342l128 -144z" />
    <glyph glyph-name="fi" unicode="fi" horiz-adv-x="1429" 
d="M1070.5 1579q26.5 47 74.5 74.5t109 27.5q52 0 92 -22t62.5 -59t22.5 -81q0 -58 -25 -104.5t-74 -74t-119 -27.5q-44 0 -83 22t-62.5 59.5t-23.5 82.5q0 55 26.5 102zM115 924l41 216h111l19 105q18 124 83 220.5t170 150.5t237 54q49 0 90.5 -5.5t78.5 -20.5l-62 -238
q-15 15 -46 31.5t-67 16.5q-33 0 -57.5 -11.5t-44 -45.5t-30.5 -98l-28 -159h189l-27 -216h-187l-127 -924h-348l127 924h-122zM1360 1140l-158 -1140h-357l156 1140h359z" />
    <glyph glyph-name="fl" unicode="fl" horiz-adv-x="1430" 
d="M115 924l41 216h111l19 105q18 124 83 220.5t170 150.5t237 54q115 0 179 -26l-62 -238q-13 13 -49.5 30.5t-73.5 17.5q-33 0 -57.5 -11.5t-44 -45.5t-30.5 -98l-28 -159h189l-27 -216h-187l-127 -924h-348l127 924h-122zM1427 1634l-222 -1634h-357l220 1634h359z" />
    <glyph glyph-name="f_f" unicode="ff" horiz-adv-x="1530" 
d="M115 924l41 216h111l19 105q18 124 83 220.5t170 150.5t237 54q115 0 179 -26l-62 -238q-13 13 -49.5 30.5t-73.5 17.5q-33 0 -57.5 -11.5t-44 -45.5t-30.5 -98l-28 -159h189l-27 -216h-187l-127 -924h-348l127 924h-122zM880 924l41 216h111l19 105q18 124 83 220.5
t170 150.5t237 54q115 0 179 -26l-62 -238q-13 13 -49.5 30.5t-73.5 17.5q-33 0 -57.5 -11.5t-44 -45.5t-30.5 -98l-28 -159h189l-27 -216h-187l-127 -924h-348l127 924h-122z" />
    <glyph glyph-name="f_f_i" unicode="ffi" horiz-adv-x="2194" 
d="M115 924l41 216h111l19 105q18 124 83 220.5t170 150.5t237 54q115 0 179 -26l-62 -238q-13 13 -49.5 30.5t-73.5 17.5q-33 0 -57.5 -11.5t-44 -45.5t-30.5 -98l-28 -159h189l-27 -216h-187l-127 -924h-348l127 924h-122zM880 924l41 216h111l19 105q18 124 83 220.5
t170 150.5t237 54q115 0 179 -26l-62 -238q-13 13 -49.5 30.5t-73.5 17.5q-33 0 -57.5 -11.5t-44 -45.5t-30.5 -98l-28 -159h189l-27 -216h-187l-127 -924h-348l127 924h-122zM2125 1140l-158 -1140h-357l156 1140h359zM1846.5 1579q26.5 47 74.5 74.5t109 27.5q52 0 92 -22
t62.5 -59t22.5 -81q0 -58 -25 -104.5t-74 -74t-119 -27.5q-44 0 -83 22t-62.5 59.5t-23.5 82.5q0 55 26.5 102z" />
    <glyph glyph-name="f_f_l" unicode="ffl" horiz-adv-x="2195" 
d="M115 924l41 216h111l19 105q18 124 83 220.5t170 150.5t237 54q115 0 179 -26l-62 -238q-13 13 -49.5 30.5t-73.5 17.5q-33 0 -57.5 -11.5t-44 -45.5t-30.5 -98l-28 -159h189l-27 -216h-187l-127 -924h-348l127 924h-122zM880 924l41 216h111l19 105q18 124 83 220.5
t170 150.5t237 54q115 0 179 -26l-62 -238q-13 13 -49.5 30.5t-73.5 17.5q-33 0 -57.5 -11.5t-44 -45.5t-30.5 -98l-28 -159h189l-27 -216h-187l-127 -924h-348l127 924h-122zM2192 1634l-222 -1634h-357l220 1634h359z" />
    <glyph glyph-name=".notdef" horiz-adv-x="1872" 
d="M1629 1416v-1416h-1416v1416h1416zM918 587l362 -368l122 122l-363 368l363 358l-128 124l-352 -366l-357 368l-123 -125l359 -363l-358 -342l128 -144z" />
    <glyph glyph-name=".null" horiz-adv-x="0" 
 />
    <glyph glyph-name="nonmarkingreturn" unicode="&#xd;" horiz-adv-x="0" 
 />
    <glyph glyph-name="NULL" horiz-adv-x="0" 
 />
    <glyph glyph-name="NULL" horiz-adv-x="0" 
 />
    <glyph glyph-name="space" unicode=" " horiz-adv-x="485" 
 />
    <glyph glyph-name="exclam" unicode="!" horiz-adv-x="686" 
d="M702 1778l-243 -1290h-258l136 1290h365zM425 296.5q39 -41.5 39 -107.5q0 -65 -26.5 -114.5t-74.5 -76.5t-112 -27q-72 0 -114 42t-42 110q0 57 25.5 106t73 79t109.5 30q83 0 122 -41.5z" />
    <glyph glyph-name="quotedbl" unicode="&#x22;" horiz-adv-x="1133" 
d="M628 1687l-184 -721h-228l85 721h327zM1197 1687l-184 -721h-228l85 721h327z" />
    <glyph glyph-name="numbersign" unicode="#" horiz-adv-x="1405" 
d="M108 321l20 228h186l50 301h-180l19 221h192l47 286h245l-45 -286h231l50 286h245l-48 -286h192l-19 -221h-204l-51 -301h187l-20 -228h-199l-54 -321h-240l48 321h-232l-59 -321h-242l55 321h-174zM842 850h-231l-51 -301h232z" />
    <glyph glyph-name="dollar" unicode="$" horiz-adv-x="1204" 
d="M893.5 763.5q60.5 -58.5 104 -138t44.5 -173.5q3 -194 -103.5 -310.5t-303.5 -146.5l-49 -270h-240l48 265q-100 11 -196.5 38t-125.5 50l115 282q52 -40 131.5 -69.5t151.5 -29.5q215 0 215 140q0 45 -18 83.5t-59.5 80t-114.5 95.5q-269 203 -269 441q0 109 48.5 197.5
t136.5 147.5t205 84l45 263h240l-42 -250q89 -8 156.5 -31.5t106.5 -50.5l-108 -281q-35 35 -117 61t-155 26q-89 0 -138 -35t-49 -90q0 -46 20 -83t59.5 -74t121.5 -103q79 -60 139.5 -118.5z" />
    <glyph glyph-name="percent" unicode="%" horiz-adv-x="2003" 
d="M165.5 1275q63.5 115 174.5 186t246 71q167 0 245.5 -90t78.5 -254q0 -130 -60 -249t-170.5 -192.5t-252.5 -73.5q-158 0 -241.5 95.5t-83.5 266.5q0 125 63.5 240zM1512 1530l-707 -1530h-269l727 1530h249zM632.5 1282.5q-32.5 44.5 -90.5 44.5q-64 0 -111 -44
t-70.5 -108.5t-23.5 -122.5q0 -77 35.5 -124.5t97.5 -47.5q63 0 107 46t66 111.5t22 123.5q0 77 -32.5 121.5zM1902.5 828q78.5 -90 78.5 -254q0 -130 -60 -249t-170.5 -192.5t-252.5 -73.5q-158 0 -241.5 95.5t-83.5 266.5q0 125 63.5 240t174.5 186t246 71
q167 0 245.5 -90zM1648 312q44 46 66 111.5t22 123.5q0 77 -32.5 121.5t-90.5 44.5q-64 0 -111 -44t-70.5 -108.5t-23.5 -122.5q0 -77 35.5 -124.5t97.5 -47.5q63 0 107 46z" />
    <glyph glyph-name="ampersand" unicode="&#x26;" horiz-adv-x="1565" 
d="M1577 594h-156v-8q0 -220 -146 -371q63 -21 144 -26q32 -2 50 -2l38 1l-40 -180q-29 -11 -109.5 -17.5t-144.5 -6.5q-55 0 -122 12.5t-126 37.5q-162 -50 -349 -50q-293 0 -452 93t-159 284q0 96 44.5 173t117.5 135.5t175 115.5q-35 82 -57 168t-22 155
q0 123 57.5 222.5t169 157.5t267.5 58q152 0 242 -46t126 -115t36 -147q0 -113 -56 -203.5t-143 -159t-209 -139.5q141 -225 294 -367q48 65 48 152q0 29 -4 71q-64 -7 -100 -31l10 224q37 45 149 45l447 -1zM638 945q95 57 146.5 117.5t51.5 135.5q0 63 -28.5 95.5
t-90.5 32.5q-55 0 -90 -51t-35 -129q0 -90 46 -201zM428 257.5q76 -39.5 212 -39.5q50 0 89 4q-85 85 -141 160t-122 181q-55 -42 -84.5 -84t-29.5 -88q0 -94 76 -133.5z" />
    <glyph glyph-name="quotesingle" unicode="'" horiz-adv-x="564" 
d="M628 1687l-184 -721h-228l85 721h327z" />
    <glyph glyph-name="parenleft" unicode="(" horiz-adv-x="854" 
d="M302.5 1302q104.5 196 223.5 315.5t219 173.5l179 -119q-175 -178 -288.5 -372.5t-159.5 -448.5q-27 -151 -27 -334q0 -259 67 -441.5t164 -320.5l-176 -106h-17q-74 60 -155 174.5t-141.5 297.5t-60.5 419q0 162 25 310q43 256 147.5 452z" />
    <glyph glyph-name="parenright" unicode=")" horiz-adv-x="854" 
d="M602.5 126q-104.5 -196 -223.5 -315.5t-219 -173.5l-179 119q175 178 288.5 372.5t159.5 448.5q27 152 27 334q0 259 -67 441.5t-164 320.5l176 106h17q74 -60 155 -174.5t141.5 -297.5t60.5 -419q0 -162 -25 -310q-43 -256 -147.5 -452z" />
    <glyph glyph-name="asterisk" unicode="*" horiz-adv-x="1366" 
d="M480 1095l129 55l-118 53l-299 128l130 208l258 -203l98 -81l1 135l-8 331h238l-77 -331l-33 -135l121 81l292 205l97 -210l-327 -128l-129 -55l118 -53l299 -126l-150 -208l-239 203l-103 84l6 -138l12 -331l-244 1l77 330l28 138l-397 -289l-107 210z" />
    <glyph glyph-name="plus" unicode="+" horiz-adv-x="1352" 
d="M555 661l-124 -7h-249l35 263h249l117 -11l9 139l30 279h272l-26 -279l-25 -138l98 10h275l-35 -263h-274l-97 7l-6 -135l-34 -276h-273l33 276z" />
    <glyph glyph-name="comma" unicode="," horiz-adv-x="526" 
d="M46 107l156 188q71 -27 116.5 -83t65 -120.5t19.5 -122.5q0 -111 -41.5 -210.5t-119 -172.5t-181.5 -105l-93 127l3 21q69 36 111.5 108t42.5 145q0 63 -25.5 109.5t-60.5 61.5z" />
    <glyph glyph-name="hyphen" unicode="-" horiz-adv-x="1266" 
d="M1100 896l-37 -248h-840l37 248h840z" />
    <glyph glyph-name="period" unicode="." horiz-adv-x="526" 
d="M360 296.5q39 -41.5 39 -107.5q0 -65 -26.5 -114.5t-74.5 -76.5t-112 -27q-72 0 -114 42t-42 110q0 57 25.5 106t73 79t109.5 30q83 0 122 -41.5z" />
    <glyph glyph-name="slash" unicode="/" horiz-adv-x="854" 
d="M719 1597h274l-863 -1959h-272z" />
    <glyph glyph-name="zero" unicode="0" horiz-adv-x="1278" 
d="M984.5 1096.5q98.5 -59.5 144.5 -164t46 -241.5q0 -187 -83 -349.5t-229 -260t-324 -97.5q-149 0 -249.5 64t-148.5 169.5t-48 232.5q0 197 87 358.5t234.5 254.5t319.5 93q152 0 250.5 -59.5zM727 323.5q58 56.5 86 144t28 182.5q0 106 -33 164.5t-108 59.5
q-97 2 -158.5 -58.5t-88 -149.5t-26.5 -176q0 -97 40.5 -160t116.5 -63q85 0 143 56.5z" />
    <glyph glyph-name="one" unicode="1" horiz-adv-x="1036" 
d="M368 784.5q-28 -5.5 -72 -11.5q-52 -7 -74 -11l-40 198q96 21 208.5 79t207.5 123l240 -10l-170 -1152h-357l120 801q-35 -11 -63 -16.5z" />
    <glyph glyph-name="two" unicode="2" horiz-adv-x="1289" 
d="M377.5 351q150.5 115 239.5 225t89 190q0 51 -31 79.5t-85 28.5q-61 0 -148.5 -37.5t-145.5 -85.5l-119 189q46 48 121 98t170.5 84t194.5 34q141 0 238.5 -46t145.5 -122.5t48 -167.5q0 -134 -70 -239.5t-177.5 -184t-265.5 -165.5l603 22l-45 -253h-1043l-46 142
q176 94 326.5 209z" />
    <glyph glyph-name="three" unicode="3" horiz-adv-x="1168" 
d="M639 170q0 39 -18 74.5t-58.5 60t-104.5 26.5l-187 -38l28 257q95 11 178 42t134 78.5t51 105.5q0 61 -36 90t-120 29q-56 0 -127.5 -26.5t-128.5 -73.5l-98 207q35 35 107 70.5t167.5 59.5t195.5 24q110 0 201 -32.5t145.5 -98.5t54.5 -160q0 -90 -43.5 -171.5
t-125 -143t-192.5 -95.5q108 -3 189 -46t124 -110.5t43 -141.5q0 -151 -101.5 -260t-283.5 -166t-418 -57q-70 0 -168 12l33 247q82 -10 134 -10q425 0 425 247z" />
    <glyph glyph-name="four" unicode="4" horiz-adv-x="1304" 
d="M852 1256l82 -89l-510 -834l-79 -111l365 17l52 375l323 35l-47 -402l201 14l-37 -261h-200l-47 -375h-329l49 375h-596l-78 164q62 125 216 416q136 259 204.5 394t133.5 282h297z" />
    <glyph glyph-name="five" unicode="5" horiz-adv-x="1176" 
d="M379.5 -91.5q117.5 31.5 199.5 104.5t82 188q0 83 -43.5 129.5t-156.5 46.5q-54 0 -121.5 -16t-104.5 -37l-126 135l154 681h587l22 16h208l-82 -291h-468l-78 -295q31 14 91.5 24.5t126.5 10.5q171 0 276.5 -87.5t105.5 -276.5q0 -190 -114 -327t-315 -208.5t-459 -71.5
q-81 0 -130 17l37 232q37 -6 79 -6q112 0 229.5 31.5z" />
    <glyph glyph-name="six" unicode="6" horiz-adv-x="1293" 
d="M1095 1414q-141 -48 -259.5 -135.5t-193.5 -175.5t-89 -133q49 31 132 49t149 18q118 0 200 -59t122 -156.5t40 -214.5q0 -158 -61.5 -299.5t-195 -232.5t-338.5 -91q-167 0 -277 68.5t-161.5 187.5t-51.5 273q0 246 115.5 478t322 401t467.5 233zM763 278q52 56 75 137
t23 159q0 109 -50.5 163t-127.5 54q-66 0 -126 -26t-83 -55q-16 -46 -25.5 -95t-9.5 -88q0 -96 26 -165t69.5 -104.5t95.5 -35.5q81 0 133 56z" />
    <glyph glyph-name="seven" unicode="7" horiz-adv-x="1136" 
d="M76 867l64 273h952l49 -66l-625 -1423l-298 107l511 1109h-653z" />
    <glyph glyph-name="eight" unicode="8" horiz-adv-x="1390" 
d="M368 928.5q-47 82.5 -47 182.5q0 135 63 234t177.5 151.5t265.5 52.5q132 0 237.5 -42.5t165 -120t59.5 -176.5q0 -158 -91 -250t-243 -147q120 -95 189.5 -191.5t69.5 -218.5q0 -130 -74.5 -225.5t-205.5 -146.5t-296 -51q-148 0 -264 44t-182 127.5t-66 198.5
q-1 163 104 266.5t267 153.5q-82 76 -129 158.5zM955.5 1266q-23.5 36 -62 55t-82.5 19q-78 0 -120 -54.5t-42 -145.5q0 -56 44 -108t129 -118q72 48 114.5 112.5t42.5 153.5q0 50 -23.5 86zM811.5 244.5q49.5 48.5 49.5 129.5q0 51 -31.5 98.5t-75.5 86t-131 106.5
q-76 -50 -119 -111.5t-43 -155.5q0 -56 31.5 -102.5t81.5 -73t103 -26.5q85 0 134.5 48.5z" />
    <glyph glyph-name="nine" unicode="9" horiz-adv-x="1293" 
d="M624.5 118q-69.5 -15 -131.5 -15q-120 0 -209 59.5t-136 158t-47 212.5q0 158 61.5 299.5t195 232.5t338.5 91q167 0 277 -68.5t161.5 -187.5t51.5 -273q0 -246 -115.5 -478t-322 -401t-467.5 -233l-79 211q141 47 259.5 132.5t193.5 171.5t89 130q-50 -27 -119.5 -42z
M740 371.5q60 22.5 83 48.5q16 49 25.5 100.5t9.5 92.5q0 96 -26 165t-69.5 104.5t-95.5 35.5q-81 0 -133 -56t-75 -137t-23 -159q0 -109 50.5 -163t127.5 -54q66 0 126 22.5z" />
    <glyph glyph-name="colon" unicode=":" horiz-adv-x="526" 
d="M339 296.5q39 -41.5 39 -107.5q0 -65 -26.5 -114.5t-74.5 -76.5t-112 -27q-72 0 -114 42t-42 110q0 57 25.5 106t73 79t109.5 30q83 0 122 -41.5zM432 1105.5q39 -41.5 39 -107.5q0 -65 -26.5 -114.5t-74.5 -76.5t-112 -27q-72 0 -114 42t-42 110q0 57 25.5 106t73 79
t109.5 30q83 0 122 -41.5z" />
    <glyph glyph-name="semicolon" unicode=";" horiz-adv-x="526" 
d="M46 107l156 188q71 -27 116.5 -83t65 -120.5t19.5 -122.5q0 -111 -41.5 -210.5t-119 -172.5t-181.5 -105l-93 127l3 21q69 36 111.5 108t42.5 145q0 63 -25.5 109.5t-60.5 61.5zM435 1105.5q39 -41.5 39 -107.5q0 -65 -26.5 -114.5t-74.5 -76.5t-112 -27q-72 0 -114 42
t-42 110q0 57 25.5 106t73 79t109.5 30q83 0 122 -41.5z" />
    <glyph glyph-name="less" unicode="&#x3c;" horiz-adv-x="1395" 
d="M1244 1350l-37 -311l-622 -286l548 -290l-26 -283l-908 520l16 130z" />
    <glyph glyph-name="equal" unicode="=" horiz-adv-x="1085" 
d="M1038 1056l-37 -248h-840l37 248h840zM983 563l-37 -248h-840l37 248h840z" />
    <glyph glyph-name="greater" unicode="&#x3e;" horiz-adv-x="1395" 
d="M255 183l37 311l622 286l-548 290l26 283l908 -520l-16 -130z" />
    <glyph glyph-name="question" unicode="?" horiz-adv-x="1060" 
d="M245.5 817q20.5 47 75 92t156.5 96q109 48 173.5 94.5t87.5 83.5q8 22 15.5 58t7.5 69q0 56 -37.5 104t-106.5 76t-160 28q-116 0 -207 -23l56 230q25 22 89.5 37.5t125.5 15.5q188 0 314 -55.5t186.5 -152.5t60.5 -223q0 -132 -53.5 -222.5t-127.5 -144t-190 -114.5
q-78 -41 -120.5 -68.5t-71 -64t-28.5 -83.5q0 -22 7 -41.5t21 -49.5q11 -22 13 -30l-167 -66l-17 1q-30 21 -58.5 61t-46.5 89t-18 93q0 63 20.5 110zM657 296.5q39 -41.5 39 -107.5q0 -65 -26.5 -114.5t-74.5 -76.5t-112 -27q-72 0 -114 42t-42 110q0 57 25.5 106t73 79
t109.5 30q83 0 122 -41.5z" />
    <glyph glyph-name="at" unicode="@" horiz-adv-x="2028" 
d="M1618.5 1467q167.5 -78 258 -222t90.5 -336q0 -271 -96 -475.5t-244.5 -313.5t-298.5 -109q-58 0 -89 42.5t-31 111.5q0 35 3.5 98t8.5 108q-71 -167 -166 -265.5t-202 -98.5q-71 0 -142.5 48t-118.5 143.5t-47 231.5q0 168 66.5 325.5t195.5 257t308 99.5
q51 0 116.5 -14t103.5 -40l195 30q-25 -100 -45.5 -274t-43.5 -414q-5 -48 -12 -94q-5 -40 -5 -57q0 -26 13 -26q72 0 135.5 94.5t102 242.5t38.5 300q0 268 -146 378t-391 110q-246 0 -435 -133t-291.5 -347.5t-102.5 -449.5q0 -226 83.5 -369t222 -206.5t309.5 -63.5
q124 0 203.5 19t141.5 49l59 -171q-70 -53 -184.5 -84.5t-241.5 -31.5q-244 0 -433.5 96.5t-296.5 280.5t-107 437q0 353 149 619t405 409t570 143q225 0 392.5 -78zM1030 394q60 98 108.5 230t59.5 216q-20 22 -55.5 32.5t-69.5 10.5q-73 0 -126 -63.5t-80 -156.5t-27 -179
q0 -91 18.5 -139.5t67.5 -48.5q44 0 104 98z" />
    <glyph glyph-name="A" unicode="A" horiz-adv-x="1345" 
d="M907 286h-523l-117 -286l-390 -1l740 1531h450l227 -1530l-355 -1zM879 527l-76 675l-6 119l-39 -119l-276 -675h397z" />
    <glyph glyph-name="B" unicode="B" horiz-adv-x="1352" 
d="M1199 693.5q73 -82.5 73 -203.5q0 -262 -193 -384t-547 -122q-42 0 -158 8q-112 8 -147 8h-155l219 1530h164q38 0 89 3t69 4q114 8 173 8q508 0 508 -347q0 -153 -76.5 -258t-225.5 -136q134 -28 207 -110.5zM858 965q71 61 71 193q0 82 -52 112t-154 30q-67 0 -111 -3
l-56 -390q45 -3 90 -3q141 0 212 61zM751.5 253q67.5 20 106 72.5t38.5 148.5q0 75 -27.5 117.5t-85.5 60t-155 17.5q-61 0 -107 -4l-61 -425q47 -7 122 -7q102 0 169.5 20z" />
    <glyph glyph-name="C" unicode="C" horiz-adv-x="1192" 
d="M1066.5 1529.5q70.5 -16.5 127.5 -39.5l53 -14l-102 -335q-46 41 -117.5 73.5t-169.5 32.5q-142 0 -235 -88.5t-136 -229.5t-43 -304q0 -182 64.5 -268t210.5 -86q89 0 175.5 28.5t132.5 61.5l46 -249q-27 -21 -94.5 -51t-161 -53.5t-192.5 -23.5q-197 0 -318 89.5
t-172.5 233t-51.5 317.5q0 249 103.5 460.5t289 336.5t419.5 125q101 0 171.5 -16.5z" />
    <glyph glyph-name="D" unicode="D" horiz-adv-x="1423" 
d="M1276 1384q139 -162 139 -452q0 -256 -94.5 -472t-285.5 -346t-466 -130q-46 0 -144 7l-24 1q-124 8 -185 8h-144l219 1530h156q40 0 186 8q154 8 201 8q303 0 442 -162zM858.5 335.5q97.5 92.5 145 249.5t47.5 352q0 137 -30.5 212.5t-93 105.5t-166.5 30
q-34 0 -79 -3.5t-74 -9.5l-144 -1007q63 -22 155 -22q142 0 239.5 92.5z" />
    <glyph glyph-name="E" unicode="E" horiz-adv-x="1204" 
d="M1205 1530l-37 -275l-562 2l-48 -337l419 5l-36 -276l-421 9l-55 -388l633 10l-37 -280h-989l219 1530h914z" />
    <glyph glyph-name="F" unicode="F" horiz-adv-x="1080" 
d="M1148 1530l-42 -275l-500 4l-53 -372l428 6l-36 -291l-432 7l-87 -609h-354l219 1530h857z" />
    <glyph glyph-name="G" unicode="G" horiz-adv-x="1427" 
d="M759 850h576l-107 -771q-46 -5 -109 -23q-115 -32 -218 -52t-224 -20q-215 0 -350 89t-194.5 230t-58.5 304q0 274 107.5 488t293 332.5t409.5 118.5q125 0 211 -16t158 -40l95 -33l-74 -322q-29 22 -89.5 50.5t-142 50t-166.5 21.5q-158 0 -257.5 -94.5t-142.5 -238.5
t-43 -300q0 -183 74 -279t223 -96q47 0 105.5 8t93.5 25l45 288h-248z" />
    <glyph glyph-name="H" unicode="H" horiz-adv-x="1500" 
d="M1473 1530l-219 -1530h-358l89 622h-482l-89 -622h-354l219 1530h354l-95 -664h482l95 664h358z" />
    <glyph glyph-name="I" unicode="I" horiz-adv-x="706" 
d="M671 1530l-219 -1530h-354l219 1530h354z" />
    <glyph glyph-name="J" unicode="J" horiz-adv-x="697" 
d="M667 1530q-27 -182 -60.5 -413.5t-48.5 -338.5q-53 -374 -75 -518.5t-33 -184.5q-58 -235 -218.5 -333.5t-367.5 -98.5l-44 118q82 20 141.5 71t94.5 117.5t47 136.5q38 184 72 420.5t81 604.5q41 320 55 419h356z" />
    <glyph glyph-name="K" unicode="K" horiz-adv-x="1337" 
d="M1040 531l94 -188q110 -218 190 -344l-417 2q-19 28 -140 305l-126 292l-154 -171l-61 -427h-354l219 1530h354l-95 -662l526 662h404l-606 -673q48 -90 166 -326z" />
    <glyph glyph-name="L" unicode="L" horiz-adv-x="1068" 
d="M645 1530l-180 -1253l497 11l-42 -288h-848l219 1530h354z" />
    <glyph glyph-name="M" unicode="M" horiz-adv-x="1988" 
d="M903 1530l68 -1053l6 -225l48 225l355 1053h517l-24 -1530h-353l89 1139l27 234l-74 -234l-437 -1142l-389 -15l-120 1157l-2 234l-48 -234l-248 -1139h-349l419 1530h515z" />
    <glyph glyph-name="N" unicode="N" horiz-adv-x="1500" 
d="M598 1530l356 -792l79 -260l13 260l97 792h342l-219 -1530h-297l-348 833l-99 275l3 -275l-115 -833h-338l219 1530h307z" />
    <glyph glyph-name="O" unicode="O" horiz-adv-x="1394" 
d="M157.5 1063q91.5 221 263 352t400.5 131q175 0 297.5 -80t184 -216.5t61.5 -303.5q0 -263 -90.5 -483t-260 -349.5t-395.5 -129.5q-178 0 -302.5 79t-187 213.5t-62.5 301.5q0 264 91.5 485zM975.5 1140.5q-24.5 75.5 -71.5 107.5t-121 32q-106 0 -186.5 -104
t-123.5 -263t-43 -317q0 -130 24.5 -206t71.5 -108t120 -32q106 0 186.5 102.5t124 261t43.5 321.5q0 130 -24.5 205.5z" />
    <glyph glyph-name="P" unicode="P" horiz-adv-x="1298" 
d="M446 1530q28 0 122 6q122 10 207 10q262 0 400 -111.5t138 -329.5q0 -173 -77 -313.5t-225.5 -222.5t-353.5 -82l-125 1q-17 1 -36 1l-70 -489h-354l218 1530h156zM880 835.5q75 83.5 84 240.5l1 24q0 100 -58.5 150t-195.5 50q-42 0 -100 -10l-77 -526q18 -5 55 -8.5
t74 -3.5q142 0 217 83.5z" />
    <glyph glyph-name="Q" unicode="Q" horiz-adv-x="1395" 
d="M714 -29q0 -46 27.5 -70.5t77 -33t127.5 -8.5q220 0 311 26v-203q-28 -27 -95 -50.5t-146.5 -37.5t-143.5 -14q-171 0 -286 62.5t-115 207.5q0 66 26 144q-140 26 -237 109t-145.5 206t-48.5 269q0 264 91.5 485t263 352t400.5 131q175 0 297.5 -80t184 -216.5
t61.5 -303.5q0 -244 -78 -451.5t-225 -342t-346 -161.5q-1 -7 -1 -20zM596.5 1176q-80.5 -104 -123.5 -263t-43 -317q0 -130 24.5 -206t71.5 -108t120 -32q106 0 186.5 102.5t124 261t43.5 321.5q0 130 -24.5 205.5t-71.5 107.5t-121 32q-106 0 -186.5 -104z" />
    <glyph glyph-name="R" unicode="R" horiz-adv-x="1344" 
d="M1081.5 533.5q36.5 -71.5 61.5 -166.5q3 -9 5.5 -17t4.5 -14q60 -184 81 -240.5t48 -95.5h-392q-12 16 -21 47.5t-27 105.5q-11 47 -39 153q-20 83 -45.5 143.5t-49 92t-40.5 31.5h-157l-85 -573h-354l218 1530h202q57 0 137 8q84 8 152 8q290 0 419 -99t129 -294
q0 -186 -79 -323t-247 -189q42 -36 78.5 -107.5zM883 887.5q54 42.5 77.5 106.5t23.5 130q0 68 -26.5 106.5t-78 54t-132.5 15.5q-34 0 -74 -3t-63 -7l-62 -442q54 -3 195 -3q86 0 140 42.5z" />
    <glyph glyph-name="S" unicode="S" horiz-adv-x="1058" 
d="M250.5 298q85.5 -31 157.5 -31q108 0 156 43t48 115q0 43 -17.5 77.5t-56.5 71.5t-114 94q-110 83 -183 188.5t-73 232.5q0 138 66 241.5t187 159.5t281 56q120 0 217.5 -26t143.5 -59l-112 -281q-35 35 -110 61t-149 26q-92 0 -139 -40.5t-47 -99.5q0 -44 23.5 -84
t62 -75.5t105.5 -88.5q79 -63 136.5 -120.5t99 -134.5t41.5 -166q0 -153 -72.5 -259.5t-204 -160.5t-306.5 -54q-74 0 -157 15.5t-149 38.5t-90 42l120 288q50 -39 135.5 -70z" />
    <glyph glyph-name="T" unicode="T" horiz-adv-x="1153" 
d="M136 1255l44 275h1067l-40 -275l-352 11l-181 -1266h-360l181 1266z" />
    <glyph glyph-name="U" unicode="U" horiz-adv-x="1440" 
d="M261 1530h353l-126 -888q-11 -80 -11 -192q1 -75 20 -117.5t61.5 -60t116.5 -17.5q84 0 138.5 34t89.5 116t57 229l127 896h352l-130 -933q-31 -222 -112 -356t-221 -195.5t-355 -61.5q-255 0 -380 117.5t-126 330.5q-1 71 13 165z" />
    <glyph glyph-name="V" unicode="V" horiz-adv-x="1233" 
d="M457 1530l118 -980l17 -262l77 262l356 980h375l-660 -1530h-412l-225 1530h354z" />
    <glyph glyph-name="W" unicode="W" horiz-adv-x="1803" 
d="M2001 1530l-595 -1530h-413l-57 546l-18 168l-61 -168l-200 -546h-375l-185 1530h357l59 -980l20 -222l68 222l258 641l-37 339h345l60 -980l23 -222l53 222l334 980h364z" />
    <glyph glyph-name="X" unicode="X" horiz-adv-x="1244" 
d="M143 1530h380l177 -493l317 493h386l-544 -795l347 -735l-386 -1l-201 531l-322 -530h-396l563 808z" />
    <glyph glyph-name="Y" unicode="Y" horiz-adv-x="1164" 
d="M83 1530h372l141 -525l25 -134l58 134l284 525h393l-600 -940l-85 -590h-354l85 590z" />
    <glyph glyph-name="Z" unicode="Z" horiz-adv-x="1158" 
d="M706 1188l93 67l-587 -10l46 285h976l23 -86l-742 -1088l-84 -74l618 10l-47 -292h-1043l-27 89z" />
    <glyph glyph-name="bracketleft" unicode="[" horiz-adv-x="854" 
d="M426.5 1731.5q59.5 70.5 175.5 70.5q61 0 134.5 -10.5t127 -21.5t68.5 -15l-26 -175h-255l-214 -1610h255l-22 -173q-72 -20 -111 -30t-98.5 -18t-133.5 -8q-93 0 -145 49t-52 133q0 57 8 110l208 1480q21 148 80.5 218.5z" />
    <glyph glyph-name="backslash" unicode="\" horiz-adv-x="854" 
d="M274 1597h-268l576 -1959h269z" />
    <glyph glyph-name="bracketright" unicode="]" horiz-adv-x="854" 
d="M489.5 -175.5q-59.5 -70.5 -175.5 -70.5q-61 0 -134.5 10.5t-127 21.5t-68.5 15l26 175h255l214 1610h-255l22 173q72 20 111 30t98.5 18t133.5 8q93 0 145 -49t52 -133q0 -57 -8 -110l-208 -1480q-21 -148 -80.5 -218.5z" />
    <glyph glyph-name="asciicircum" unicode="^" horiz-adv-x="1364" 
d="M924 1531l267 -1021h-271l-161 650l-358 -650h-275l531 1021h267z" />
    <glyph glyph-name="underscore" unicode="_" horiz-adv-x="1335" 
d="M1267 -388h-1378l20 201h1378z" />
    <glyph glyph-name="grave" unicode="`" horiz-adv-x="546" 
d="M198 1774l334 -449l-124 -99q-57 22 -149 91.5t-172 146t-98 110.5z" />
    <glyph glyph-name="a" unicode="a" horiz-adv-x="1268" 
d="M1205 1156l-161 -1156h-320l12 248q-50 -110 -133.5 -187t-196.5 -77q-177 0 -256.5 118.5t-79.5 309.5t80.5 361.5t240 276.5t382.5 106q58 0 127 -13.5t121 -31.5zM626 286q48 62 87.5 150.5t62.5 169.5l47 335q-29 5 -75 5q-98 0 -167 -75t-104 -193.5t-35 -244.5
q0 -209 89 -209q47 0 95 62z" />
    <glyph glyph-name="b" unicode="b" horiz-adv-x="1290" 
d="M1140.5 1035.5q79.5 -120.5 79.5 -311.5t-80.5 -360.5t-239.5 -274.5t-383 -105q-61 0 -133.5 14.5t-122.5 33.5l1 2l-186 -34l225 1634h343l-85 -658l-21 -121q47 121 134 211t212 90q177 0 256.5 -120.5zM708 268.5q69 74.5 103.5 191.5t34.5 243q0 209 -88 209
q-52 0 -104 -70.5t-92 -168t-58 -174.5l1 56l-45 -355q30 -6 81 -6q98 0 167 74.5z" />
    <glyph glyph-name="c" unicode="c" horiz-adv-x="956" 
d="M832 1143.5q79 -12.5 121 -30.5l-86 -342q-30 30 -89.5 68.5t-109.5 38.5q-63 0 -115 -42t-83.5 -127.5t-31.5 -210.5q0 -91 13.5 -146.5t45 -83t87.5 -27.5q40 0 86 18t86 45t63 52l89 -171q-52 -80 -158.5 -140.5t-261.5 -60.5q-146 0 -238.5 66t-134 170t-41.5 222
q0 207 80 369.5t221.5 253.5t319.5 91q58 0 137 -12.5z" />
    <glyph glyph-name="d" unicode="d" horiz-adv-x="1274" 
d="M1264 1634l-211 -1634h-319l15 279q-48 -119 -134.5 -207t-208.5 -88q-177 0 -256.5 118.5t-79.5 309.5t80.5 361.5t240 276.5t382.5 106q40 0 80 -6l67 484h344zM629.5 292.5q49.5 64.5 89 155.5t61.5 172l44 317q-33 9 -76 9q-98 0 -167 -75t-104 -193.5t-35 -244.5
q0 -205 89 -205q49 0 98.5 64.5z" />
    <glyph glyph-name="e" unicode="e" horiz-adv-x="1112" 
d="M972 1087q84 -69 84 -194q0 -142 -78.5 -240.5t-210.5 -160.5t-318 -109q0 -79 31 -118t114 -39q60 0 125 26t118.5 64.5t79.5 72.5l92 -171q-34 -49 -105.5 -103t-174.5 -92.5t-223 -38.5q-148 0 -245 63t-142.5 166.5t-45.5 228.5q0 203 85.5 366.5t232.5 255.5t325 92
q172 0 256 -69zM694.5 936q-17.5 24 -57.5 24q-59 0 -102 -66.5t-66 -160.5t-25 -172q60 4 122.5 45.5t104 108.5t41.5 144q0 53 -17.5 77z" />
    <glyph glyph-name="f" unicode="f" horiz-adv-x="765" 
d="M115 924l41 216h111l19 105q18 124 83 220.5t170 150.5t237 54q115 0 179 -26l-62 -238q-13 13 -49.5 30.5t-73.5 17.5q-33 0 -57.5 -11.5t-44 -45.5t-30.5 -98l-28 -159h189l-27 -216h-187l-127 -924h-348l127 924h-122z" />
    <glyph glyph-name="g" unicode="g" horiz-adv-x="1269" 
d="M1208 1156l-164 -1185q-37 -268 -218 -378t-432 -110q-70 0 -154 15t-117 30l52 255q12 -11 60 -33.5t109.5 -40t116.5 -17.5q101 0 148.5 54t66.5 157l63 354q-50 -113 -133.5 -193t-199.5 -80q-177 0 -256.5 118.5t-79.5 309.5t80.5 361.5t240 276.5t382.5 106
q58 0 127 -13.5t120 -31.5zM626.5 289.5q48.5 61.5 87.5 149t62 169.5l46 334q-31 4 -74 4q-98 0 -167 -75t-104 -193.5t-35 -244.5q0 -205 89 -205q47 0 95.5 61.5z" />
    <glyph glyph-name="h" unicode="h" horiz-adv-x="1314" 
d="M1125.5 1085.5q70.5 -70.5 70.5 -231.5q0 -32 -10 -114t-30 -229q-12 -92 -39 -273q-26 -187 -33 -238h-357q46 308 70 510q25 204 28 278q3 53 -17.5 76t-63.5 23q-56 0 -118.5 -52t-105.5 -136l-95 -699h-347l220 1634h348l-75 -562l-29 -150q68 110 165 172t212 62
q136 0 206.5 -70.5z" />
    <glyph glyph-name="i" unicode="i" 
d="M595 1140l-158 -1140h-357l156 1140h359zM316.5 1579q26.5 47 74.5 74.5t109 27.5q52 0 92 -22t62.5 -59t22.5 -81q0 -58 -25 -104.5t-74 -74t-119 -27.5q-44 0 -83 22t-62.5 59.5t-23.5 82.5q0 55 26.5 102z" />
    <glyph glyph-name="j" unicode="j" 
d="M595 1140l-158 -1140q-23 -168 -100.5 -287t-190 -180t-240.5 -61q-61 0 -109.5 8.5t-70.5 25.5l88 181q13 -9 38 -9q84 0 130.5 50.5t66.5 126.5t40 210l147 1075h359zM312.5 1579q26.5 47 74.5 74.5t109 27.5q52 0 92 -22t62.5 -59t22.5 -81q0 -58 -25 -104.5t-74 -74
t-119 -27.5q-44 0 -83 22t-62.5 59.5t-23.5 82.5q0 55 26.5 102z" />
    <glyph glyph-name="k" unicode="k" horiz-adv-x="1226" 
d="M647 1634l-221 -1634h-348l220 1634h349zM1047 760q-86 -91 -172 -138l324 -622h-408l-248 630l3 1h-3q64 35 110.5 83.5t81.5 108t74 145.5q37 86 59 172h353q-4 -83 -40 -171q-48 -118 -134 -209z" />
    <glyph glyph-name="l" unicode="l" horiz-adv-x="665" 
d="M662 1634l-222 -1634h-357l220 1634h359z" />
    <glyph glyph-name="m" unicode="m" horiz-adv-x="1965" 
d="M1783 1085.5q69 -70.5 69 -231.5q0 -51 -40 -344l-51 -361l-21 -149h-356q44 316 69 510q10 83 18.5 159t10.5 119q3 53 -18 76t-63 23q-52 0 -108.5 -46.5t-99.5 -124.5q-15 -113 -17 -127q-7 -55 -10 -78q-12 -92 -39 -273q-26 -187 -33 -238h-357q46 308 70 510
q25 204 28 278q3 53 -17.5 76t-63.5 23q-54 0 -116.5 -50t-106.5 -131l-98 -706h-357l156 1140h344l-14 -203q70 103 166 161t209 58q115 0 182.5 -54t82.5 -175q70 108 167.5 168.5t214.5 60.5q130 0 199 -70.5z" />
    <glyph glyph-name="n" unicode="n" horiz-adv-x="1319" 
d="M1135.5 1085.5q70.5 -70.5 70.5 -231.5q0 -32 -10 -114t-30 -229q-12 -92 -39 -273q-26 -187 -33 -238h-357q46 308 70 510q25 204 28 278q3 53 -17.5 76t-63.5 23q-56 0 -118.5 -52t-105.5 -136l-97 -699h-357l156 1140h341l-13 -206q68 104 162.5 163t206.5 59
q136 0 206.5 -70.5z" />
    <glyph glyph-name="o" unicode="o" horiz-adv-x="1181" 
d="M937 1091q93 -65 136 -174t43 -246q0 -187 -72.5 -343.5t-216 -250t-346.5 -93.5q-143 0 -236 65t-136.5 174t-43.5 246q0 187 73 343.5t216.5 250t346.5 93.5q143 0 236 -65zM658.5 272.5q51.5 74.5 75.5 190t24 242.5q0 126 -27.5 181.5t-82.5 55.5q-76 0 -128 -77.5
t-76.5 -196t-24.5 -239.5q0 -231 110 -231q78 0 129.5 74.5z" />
    <glyph glyph-name="p" unicode="p" horiz-adv-x="1285" 
d="M1135.5 1038.5q79.5 -117.5 79.5 -307.5q0 -192 -80.5 -363t-240 -277.5t-382.5 -106.5q-41 0 -83 6l-69 -482h-352l223 1632h327l-3 -233q51 105 132.5 177t191.5 72q177 0 256.5 -117.5zM703 270q69 76 104 194.5t35 245.5q0 102 -21.5 152t-66.5 50q-50 0 -100.5 -66
t-90.5 -158.5t-60 -171.5l-45 -317q30 -5 78 -5q98 0 167 76z" />
    <glyph glyph-name="q" unicode="q" horiz-adv-x="1278" 
d="M1207 1156l-220 -1648h-350l65 492l45 276q-47 -118 -133.5 -205t-207.5 -87q-177 0 -256.5 118.5t-79.5 309.5t80.5 361.5t240 276.5t382.5 106q61 0 133 -13.5t122 -31.5zM623.5 286q46.5 58 85.5 142t63 165l48 349q-31 4 -72 4q-98 0 -167 -75t-104 -193.5
t-35 -244.5q0 -205 89 -205q46 0 92.5 58z" />
    <glyph glyph-name="r" unicode="r" horiz-adv-x="905" 
d="M897 1152q19 -4 27 -10l-63 -361q-10 12 -40.5 19t-59.5 7q-65 0 -117 -20.5t-106 -67.5l-2 3l-101 -722h-357l156 1140h344l-16 -228l-1 -8l1 1q22 66 65 123.5t101.5 92.5t124.5 35q25 0 44 -4z" />
    <glyph glyph-name="s" unicode="s" horiz-adv-x="977" 
d="M180.5 290q48.5 -24 103.5 -40.5t95 -16.5q67 0 106 18t39 65q0 36 -31 67t-98 81q-51 37 -79 61q-72 61 -112.5 130t-40.5 169q0 101 57 176t162 115.5t244 40.5q74 0 157 -13t110 -24l-38 -299q-31 32 -100 60.5t-136 28.5q-62 0 -93.5 -22.5t-31.5 -56.5
q0 -36 20.5 -60.5t75.5 -67.5q46 -37 70 -58q72 -56 115 -101t64.5 -96t21.5 -116q0 -125 -66 -202.5t-172.5 -111t-235.5 -33.5q-64 0 -134 10.5t-124 27t-73 31.5l56 280q20 -19 68.5 -43z" />
    <glyph glyph-name="t" unicode="t" horiz-adv-x="839" 
d="M218 924h-84l36 216h105l98 276h267l-37 -276h222l-23 -216h-227l-70 -507q-1 -8 -2 -16.5t-3 -17.5q-9 -74 -9 -95q0 -29 14.5 -46.5t55.5 -17.5q33 0 87.5 25.5t87.5 56.5l54 -170q-79 -63 -188 -109.5t-242 -46.5q-109 0 -172 56.5t-63 158.5q0 14 6.5 80t14.5 123z
" />
    <glyph glyph-name="u" unicode="u" horiz-adv-x="1292" 
d="M1223 1140l-156 -1140h-318l7 195q-58 -91 -151 -153t-203 -62q-124 0 -202.5 62t-78.5 200q0 110 36 352l75 546h353l-70 -551q-27 -201 -27 -257q0 -47 20 -72.5t49 -25.5q51 0 107 52.5t101 130.5l101 723h357z" />
    <glyph glyph-name="v" unicode="v" horiz-adv-x="1138" 
d="M93 1140h351l62 -665l14 -199l49 65q60 96 106 220t65 256q9 56 18 154t9 169h329q0 -3 5.5 -32t5.5 -126q0 -171 -74.5 -347.5t-200.5 -336.5t-284 -290l-20 -17l-278 -12l-55 376z" />
    <glyph glyph-name="w" unicode="w" horiz-adv-x="1763" 
d="M1726 1104.5q5 -31.5 5 -122.5q0 -258 -149.5 -502.5t-423.5 -471.5l-20 -17l-259 -12l-54 360q-109 -177 -280 -331l-20 -17l-275 -12l-55 376l-103 785h361l59 -665l13 -209l59 76q63 97 116 221t75 247l-34 330h343l48 -665l13 -209l59 76q60 94 105.5 217.5
t66.5 257.5q9 59 17.5 156t8.5 167h318q1 -4 6 -35.5z" />
    <glyph glyph-name="x" unicode="x" horiz-adv-x="1053" 
d="M711 559l322 -559h-408l-146 332l-216 -332h-368l451 601l-300 539h408l128 -315l195 315h356z" />
    <glyph glyph-name="y" unicode="y" horiz-adv-x="1140" 
d="M1100 987q0 -303 -149 -655q-60 -142 -130 -263.5t-139 -216.5q-15 -20 -43 -60q-80 -111 -135.5 -171.5t-137 -99t-198.5 -38.5q-74 0 -140 21.5t-120 53.5l89 244q36 -25 85.5 -43t88.5 -18q59 0 104.5 22.5t90.5 73t105 143.5h-206l-56 375l-114 785h352l74 -685
l33 -317q66 136 118 300q33 96 50.5 164t28.5 152.5t20 223.5q3 39 3 111v51h320q6 -30 6 -153z" />
    <glyph glyph-name="z" unicode="z" horiz-adv-x="984" 
d="M439 272h456l-28 -272h-877l-35 45l554 790l52 38h-428l37 267h822l35 -44l-545 -793z" />
    <glyph glyph-name="braceleft" unicode="{" horiz-adv-x="1024" 
d="M253.5 585.5q-14.5 22.5 -37.5 37.5q-29 19 -67 31.5t-98 26.5l32 203l47 11q59 14 89 22t56 22t44 34.5t21 38.5l88 538q17 100 49.5 156.5t88.5 81t147 24.5q49 0 122.5 -12.5t132 -26.5t75.5 -18l-31 -176h-276l-94 -619q-6 -39 -26 -63.5t-62 -50.5
q-18 -11 -97.5 -38.5t-107.5 -36.5q19 -10 67 -32t79 -38.5t44 -29.5q24 -25 33.5 -40t9.5 -42q0 -7 -2 -27l-92 -592h275q-5 -32 -12 -86.5t-10 -78.5q-197 -77 -365 -77q-105 0 -150.5 46.5t-44.5 133.5q1 18 37 280t50 358q0 17 -14.5 39.5z" />
    <glyph glyph-name="bar" unicode="|" horiz-adv-x="854" 
d="M573 1780v-1966h-253v1966h253z" />
    <glyph glyph-name="braceright" unicode="}" horiz-adv-x="1024" 
d="M819.5 960.5q14.5 -22.5 37.5 -37.5q29 -19 67 -31.5t98 -26.5l-32 -203l-47 -11q-59 -14 -89 -22t-56 -22t-44 -34.5t-21 -38.5l-88 -538q-17 -100 -49.5 -156.5t-88.5 -81t-147 -24.5q-49 0 -122.5 12.5t-132 26.5t-75.5 18l31 176h276l94 619q6 39 26 63.5t62 50.5
q18 11 97.5 38.5t107.5 36.5q-19 10 -67 32t-79 38.5t-44 29.5q-24 25 -33.5 40t-9.5 42q0 7 2 27l92 592h-275q5 32 12 86.5t10 78.5q197 77 365 77q105 0 150.5 -46.5t44.5 -133.5q-1 -18 -37 -280t-50 -358q0 -17 14.5 -39.5z" />
    <glyph glyph-name="asciitilde" unicode="~" horiz-adv-x="1137" 
d="M145.5 987.5q54.5 51.5 128.5 85t144 33.5q49 0 91.5 -14t75 -33.5t76.5 -51.5q52 -38 86 -55.5t73 -17.5q106 0 182 107l134 -139q-14 -56 -65.5 -109.5t-123.5 -87t-143 -33.5q-51 0 -92 14t-71.5 34t-71.5 53q-52 41 -89 61t-84 20q-87 0 -172 -109l-148 141
q15 50 69.5 101.5z" />
    <glyph glyph-name="uni00A0" unicode="&#xa0;" horiz-adv-x="485" 
 />
    <glyph glyph-name="exclamdown" unicode="&#xa1;" horiz-adv-x="686" 
d="M295 1047.5q-39 41.5 -39 107.5q0 65 26.5 114.5t74.5 76.5t112 27q72 0 114 -42t42 -110q0 -57 -25.5 -106t-73 -79t-109.5 -30q-83 0 -122 41.5zM18 -434l243 1290h258l-136 -1290h-365z" />
    <glyph glyph-name="cent" unicode="&#xa2;" horiz-adv-x="1077" 
d="M687 259q46 18 86 45t63 52l89 -171q-44 -68 -131 -124.5t-212 -71.5l-48 -264h-240l52 285q-131 48 -193 167.5t-62 264.5q0 176 59 321.5t165.5 242.5t245.5 132l66 290h240l-64 -278q111 -13 167 -37l-86 -342q-30 30 -89.5 68.5t-109.5 38.5q-63 0 -115 -42
t-83.5 -127.5t-31.5 -210.5q0 -91 13.5 -146.5t45 -83t87.5 -27.5q40 0 86 18z" />
    <glyph glyph-name="sterling" unicode="&#xa3;" horiz-adv-x="1426" 
d="M1335.5 596q38.5 -49 60 -108.5t21.5 -110.5q0 -159 -100 -278t-382 -119q-111 0 -205 16.5t-217 47.5q-76 19 -117 28t-83 13q-39 -47 -100.5 -76t-114.5 -29q-54 0 -90 19.5t-53 51t-17 66.5q0 58 41.5 103.5t105.5 70.5t127 26q21 27 40 65t29 99l41 238h-169l30 232
h179l26 149q21 118 83 218.5t175 163.5t276 63q169 0 262.5 -37t150.5 -82l-172 -256q-6 20 -37 54.5t-79.5 61.5t-106.5 27q-92 0 -144 -54t-73 -184l-20 -124h305l-30 -232h-314l-28 -173q-16 -94 -45 -160.5t-60 -98.5q52 -17 151 -34.5t169 -17.5q125 0 192.5 39.5
t67.5 105.5q0 25 -13 50t-30 43t-29 25l209 169q49 -22 87.5 -71z" />
    <glyph glyph-name="currency" unicode="&#xa4;" horiz-adv-x="1540" 
d="M1156 459l211 -211l-142 -141l-211 211q-105 -66 -232 -66q-122 0 -225 61l-211 -211l-142 141l209 209q-34 52 -52.5 112.5t-18.5 125.5q0 130 69 235l-210 210l141 142l211 -212q106 63 229 63q129 0 239 -70l207 206l141 -142l-208 -208q61 -103 61 -224
q0 -126 -66 -231zM885.5 503.5q47.5 29.5 75 79t27.5 107.5t-27.5 107.5t-75 79t-103.5 29.5t-103.5 -29.5t-75 -79t-27.5 -107.5t27.5 -107.5t75 -79t103.5 -29.5t103.5 29.5z" />
    <glyph glyph-name="yen" unicode="&#xa5;" horiz-adv-x="1469" 
d="M1056 862h304l-19 -182h-410l-25 -174h411l-16 -182h-420l-46 -324h-367l41 324h-403l19 182h407l22 174h-408l19 182h318l-259 668h355l167 -559l28 -109l46 109l275 559h422z" />
    <glyph glyph-name="brokenbar" unicode="&#xa6;" horiz-adv-x="854" 
d="M573 1780v-864h-253v864h253zM573 678v-864h-253v864h253z" />
    <glyph glyph-name="section" unicode="&#xa7;" horiz-adv-x="1194" 
d="M1059 931.5q98 -117.5 99 -264.5q0 -85 -47 -169.5t-129 -141.5q37 -71 37 -164q0 -99 -58 -185.5t-177.5 -140t-296.5 -53.5q-88 0 -175.5 20t-153 47.5t-91.5 47.5l57 251q33 -37 104.5 -63t147.5 -38.5t124 -12.5q81 0 125.5 15t61 41t16.5 64q0 33 -21.5 58.5
t-58.5 47t-110 56.5l-51 25q-166 84 -264.5 199t-98.5 261q0 88 50 162t138 129q-40 74 -40 171q0 107 61 193t180.5 136t289.5 50q90 0 169 -17.5t133.5 -42t78.5 -45.5l-67 -221q-24 32 -81.5 51.5t-120 27.5t-106.5 8q-110 0 -162.5 -33t-52.5 -88q0 -34 18 -57t49 -41.5
t98 -51.5l62 -31q165 -83 263 -200.5zM704 571q92 -44 138 -73q35 51 35 121q0 49 -21 87t-74 79t-154 97q-21 11 -63 31q-37 18 -75.5 38.5t-67.5 38.5q-34 -59 -34 -120q0 -50 21 -88.5t74 -79.5t155 -98z" />
    <glyph glyph-name="dieresis" unicode="&#xa8;" horiz-adv-x="817" 
d="M15.5 1602.5q22.5 45.5 64.5 72t97 26.5q45 0 80.5 -22.5t55 -58.5t19.5 -76q0 -91 -47.5 -148.5t-141.5 -57.5q-38 0 -73 23.5t-56 62t-21 78.5q0 55 22.5 100.5zM489 1602.5q22 45.5 63 72t96 26.5q46 0 82 -22.5t56 -59t20 -75.5q0 -90 -48.5 -148t-142.5 -58
q-39 0 -73 23.5t-54.5 61.5t-20.5 78q0 56 22 101.5z" />
    <glyph glyph-name="copyright" unicode="&#xa9;" horiz-adv-x="2091" 
d="M1484 1721q200 -117 316 -318t116 -440q0 -240 -116 -441.5t-316 -319.5t-439 -118t-438.5 118t-315.5 319.5t-116 441.5q0 239 116 440t315.5 318t438.5 117t439 -117zM1416.5 313.5q166.5 100.5 261.5 272.5t95 377t-95 376.5t-261.5 272t-371.5 100.5t-371.5 -100.5
t-261.5 -272t-95 -376.5t95 -377t261.5 -272.5t371.5 -100.5t371.5 100.5zM1241 1438q70 -17 107 -38l-37 -205q-32 23 -92.5 39t-120.5 16q-73 0 -129 -33t-87.5 -93t-31.5 -138q0 -155 67 -228.5t182 -73.5q73 0 131.5 19t93.5 44l44 -173q-49 -43 -136 -73t-182 -30
q-134 0 -236.5 66.5t-158.5 178.5t-56 243q0 142 57.5 254.5t169 177t268.5 64.5q77 0 147 -17z" />
    <glyph glyph-name="ordfeminine" unicode="&#xaa;" horiz-adv-x="963" 
d="M1051 1573l-161 -847h-218l-6 154q-68 -70 -147 -112t-164 -42q-125 0 -194 73t-69 199q0 154 78 287t215 212.5t307 79.5q47 0 102.5 -9.5t95.5 -21.5zM558 947q45 31 90 84l87 395q-22 6 -49 6q-98 0 -165 -68t-98.5 -162t-31.5 -172q0 -60 17.5 -87t65.5 -27
q39 0 84 31z" />
    <glyph glyph-name="guillemotleft" unicode="&#xab;" horiz-adv-x="1996" 
d="M948 1116l58 -205l-430 -306l364 -301l-110 -172l-656 398l32 190zM1754 1116l58 -205l-430 -306l364 -301l-110 -172l-656 398l32 190z" />
    <glyph glyph-name="logicalnot" unicode="&#xac;" horiz-adv-x="1370" 
d="M1188 853l-62 -531h-257l36 304h-703l26 227h960z" />
    <glyph glyph-name="registered" unicode="&#xae;" horiz-adv-x="2091" 
d="M1485 1720.5q201 -117.5 318 -318.5t117 -440q0 -240 -117 -441.5t-318 -319.5t-440 -118t-439.5 118t-317.5 319.5t-117 441.5q0 239 117 440t317.5 318.5t439.5 117.5t440 -117.5zM1416.5 313.5q167.5 100.5 264 272t96.5 376.5q0 204 -96.5 375.5t-264 272
t-371.5 100.5t-371.5 -100.5t-264 -272t-96.5 -375.5q0 -205 96.5 -376.5t264 -272t371.5 -100.5t371.5 100.5zM797 1449q51 0 102 3q126 3 162 3q120 0 202.5 -35t123.5 -97.5t41 -143.5q0 -120 -45.5 -204.5t-148.5 -114.5q50 -29 81.5 -74t68.5 -120q30 -60 42 -80
q5 -8 20.5 -35t45.5 -64h-255q-17 18 -34 56l-15 30q-7 12 -14.5 31t-11.5 28q-35 82 -66 132t-80 71q-13 -1 -91 -1v-348h-225v963h97zM1161.5 1031.5q40.5 40.5 40.5 118.5q0 69 -39.5 104.5t-129.5 35.5h-30t-41.5 -2.5t-36.5 -8.5v-281q34 -7 120 -7q76 0 116.5 40.5z
" />
    <glyph glyph-name="macron" unicode="&#xaf;" horiz-adv-x="620" 
d="M631 1614l-18 -219h-597l18 219h597z" />
    <glyph glyph-name="degree" unicode="&#xb0;" horiz-adv-x="957" 
d="M255 1454q49 84 135 132t193 48q100 0 182.5 -47t129.5 -128t47 -177q0 -103 -49.5 -187t-136.5 -132t-195 -48q-99 0 -180.5 47.5t-128 128t-46.5 176.5q0 103 49 187zM716.5 1365q-21.5 39 -58.5 61.5t-81 22.5q-48 0 -86 -23t-59.5 -63.5t-21.5 -90.5q0 -46 21 -85.5
t58 -62.5t81 -23q48 0 86 23.5t60 64.5t22 91q0 46 -21.5 85z" />
    <glyph glyph-name="plusminus" unicode="&#xb1;" horiz-adv-x="1356" 
d="M555 661l-124 -7h-249l35 263h249l117 -11l9 139l30 279h272l-26 -279l-25 -138l98 10h275l-35 -263h-274l-97 7l-6 -135l-34 -276h-273l33 276zM1085 207l-16 -207h-906l17 207h905z" />
    <glyph glyph-name="acute" unicode="&#xb4;" horiz-adv-x="565" 
d="M353 1774l209 -200q-18 -34 -98 -110.5t-172 -146t-149 -91.5l-124 99z" />
    <glyph glyph-name="uni00B5" unicode="&#xb5;" horiz-adv-x="1364" 
d="M51 -372l165 1173q2 13 2 37q0 33 -7.5 52.5t-23.5 19.5q-25 0 -44.5 -11.5t-42.5 -34.5l-48 165q16 16 67 46.5t121 55.5t139 25q94 0 153 -43t59 -129q0 -8 -2 -30l-64 -519q-4 -28 -4 -57q0 -137 105 -137q28 0 67.5 21.5t71 61t37.5 89.5l94 727h352l-109 -862
q-1 -7 -1 -21q0 -28 10 -45t24 -17q27 0 59 21.5t51 49.5l78 -133q-47 -47 -82.5 -76t-94.5 -52t-139 -23q-83 0 -131.5 30.5t-64.5 109.5q-42 -70 -96.5 -104t-124.5 -34q-47 0 -101 17t-76 59l-64 -432h-335z" />
    <glyph glyph-name="paragraph" unicode="&#xb6;" horiz-adv-x="1364" 
d="M253 734.5q-82 54.5 -127.5 146.5t-45.5 204q0 139 64.5 248t206.5 173.5t365 64.5q58 0 117.5 -3.5t110.5 -7.5q114 -8 166 -8h348l-25 -192l-167 -33l-175 -1327h-279l171 1322h-194l-173 -1322h-276l102 678q-107 2 -189 56.5z" />
    <glyph glyph-name="periodcentered" unicode="&#xb7;" horiz-adv-x="686" 
d="M479 942.5q39 -41.5 39 -107.5q0 -65 -26.5 -114.5t-74.5 -76.5t-112 -27q-72 0 -114 42t-42 110q0 57 25.5 106t73 79t109.5 30q83 0 122 -41.5z" />
    <glyph glyph-name="cedilla" unicode="&#xb8;" horiz-adv-x="484" 
d="M416 30q21 -27 41.5 -116.5t20.5 -151.5q0 -107 -72 -170t-229 -63q-45 0 -134.5 12t-105.5 23l36 203q14 -7 35.5 -11.5t43.5 -4.5q86 0 132 26t50 99q2 38 2 53q0 67 -9 101l100 4z" />
    <glyph glyph-name="ordmasculine" unicode="&#xba;" horiz-adv-x="946" 
d="M173.5 1347.5q73.5 117.5 194.5 179.5t259 62q112 0 197 -41.5t132 -121.5t47 -192q0 -164 -72.5 -281.5t-195 -177t-269.5 -59.5q-101 0 -184.5 42.5t-132.5 123t-49 189.5q0 159 73.5 276.5zM686 1385q-24 43 -86 43q-76 0 -123 -59t-67 -140.5t-20 -152.5
q0 -92 25.5 -142t79.5 -50q122 0 168.5 111.5t46.5 250.5q0 96 -24 139z" />
    <glyph glyph-name="guillemotright" unicode="&#xbb;" horiz-adv-x="1996" 
d="M271 122l-58 205l430 306l-364 301l110 172l656 -398l-32 -190zM1077 122l-58 205l430 306l-364 301l110 172l656 -398l-32 -190z" />
    <glyph glyph-name="onequarter" unicode="&#xbc;" horiz-adv-x="2560" 
d="M444 546l112 814l-231 -52l-13 158q66 17 154 51.5t162 70.5t100 57l169 -21l-148 -1078h-305zM1668 1530l-681 -1530h-259l681 1530h259zM2366 56h-194l-35 -293h-278l41 293h-533l-61 128l550 926l68 1l213 -104l-445 -669l-66 -86l302 11l35 248l267 23l-32 -262
l192 7z" />
    <glyph glyph-name="onehalf" unicode="&#xbd;" horiz-adv-x="2560" 
d="M325 1308l-13 158q66 17 154 51.5t162 70.5t100 57l169 -21l-148 -1078h-305l112 814zM1668 1530l-681 -1530h-259l681 1530h259zM1617 163.5q140 109.5 244 227t104 194.5q0 56 -28.5 83.5t-83.5 27.5q-91 0 -162 -28.5t-117 -69.5l-112 145q31 42 101.5 86t165.5 73.5
t194 29.5q120 0 207 -35t133 -100t46 -154t-56 -199.5t-158.5 -215.5t-236.5 -177l465 26l-17 -246h-848l-73 175q92 48 232 157.5z" />
    <glyph glyph-name="threequarters" unicode="&#xbe;" horiz-adv-x="2560" 
d="M888 723q-69 -88 -186.5 -135t-260.5 -47q-103 0 -210 22.5t-163 58.5l44 191q40 -26 109 -43t144 -17q73 0 136.5 19.5t103 61.5t39.5 105q0 50 -29.5 76.5t-79.5 29.5l-238 -59l35 209q105 26 165.5 53t86 57t25.5 68q0 20 -12 42.5t-39.5 38.5t-71.5 16
q-135 0 -227 -67l-75 180q83 58 191.5 88t219.5 30q129 0 203.5 -37.5t103 -90.5t28.5 -108q0 -106 -46.5 -180t-140.5 -111q116 -20 165 -89t49 -158q0 -116 -69 -204zM1668 1530l-681 -1530h-259l681 1530h259zM2366 56h-194l-35 -293h-278l41 293h-533l-61 128l550 926
l68 1l213 -104l-445 -669l-66 -86l302 11l35 248l267 23l-32 -262l192 7z" />
    <glyph glyph-name="questiondown" unicode="&#xbf;" horiz-adv-x="1068" 
d="M458.5 1359.5q26.5 49.5 74.5 76.5t112 27q72 0 114 -42t42 -110q0 -57 -25.5 -106t-73 -79t-109.5 -30q-83 0 -122 41.5t-39 107.5q0 65 26.5 114.5zM878 -61l-56 -230q-25 -22 -89.5 -37.5t-125.5 -15.5q-188 0 -314 55.5t-186.5 152.5t-60.5 223q0 132 53.5 222.5
t127.5 144t190 114.5q78 41 120.5 68.5t71 64t28.5 83.5q0 22 -7 41.5t-21 49.5q-11 22 -13 30l167 66l17 -1q30 -21 58.5 -61t46.5 -89t18 -93q0 -63 -20.5 -110t-75 -92t-156.5 -96q-109 -48 -173.5 -94.5t-87.5 -83.5q-8 -22 -15.5 -58t-7.5 -69q0 -56 37.5 -104
t106.5 -76t160 -28q116 0 207 23z" />
    <glyph glyph-name="Agrave" unicode="&#xc0;" horiz-adv-x="1345" 
d="M907 286h-523l-117 -286l-390 -1l740 1531h450l227 -1530l-355 -1zM879 527l-76 675l-6 119l-39 -119l-276 -675h397zM671 2014l279 -342l-143 -122q-50 18 -122.5 66t-135.5 105.5t-88 105.5z" />
    <glyph glyph-name="Aacute" unicode="&#xc1;" horiz-adv-x="1345" 
d="M907 286h-523l-117 -286l-390 -1l740 1531h450l227 -1530l-355 -1zM879 527l-76 675l-6 119l-39 -119l-276 -675h397zM1002 2014l210 -187q-25 -48 -88 -105.5t-135.5 -105.5t-122.5 -66l-143 122z" />
    <glyph glyph-name="Acircumflex" unicode="&#xc2;" horiz-adv-x="1345" 
d="M907 286h-523l-117 -286l-390 -1l740 1531h450l227 -1530l-355 -1zM879 527l-76 675l-6 119l-39 -119l-276 -675h397zM828 2014h180l212 -337l-145 -78l-183 167l-287 -167l-148 67z" />
    <glyph glyph-name="Atilde" unicode="&#xc3;" horiz-adv-x="1345" 
d="M907 286h-523l-117 -286l-390 -1l740 1531h450l227 -1530l-355 -1zM879 527l-76 675l-6 119l-39 -119l-276 -675h397zM514.5 1874q52.5 46 115.5 76t116 30q45 0 79 -12t58 -28.5t55 -43.5q35 -31 59.5 -45.5t57.5 -14.5q39 0 69 15.5t50.5 36.5t50.5 58l119 -145
q-20 -48 -69.5 -96.5t-112 -80.5t-118.5 -32q-50 0 -87 11.5t-61.5 28t-54.5 42.5q-38 32 -65 47t-68 15q-45 0 -84 -24.5t-78 -64.5l-106 136q22 45 74.5 91z" />
    <glyph glyph-name="Adieresis" unicode="&#xc4;" horiz-adv-x="1345" 
d="M907 286h-523l-117 -286l-390 -1l740 1531h450l227 -1530l-355 -1zM879 527l-76 675l-6 119l-39 -119l-276 -675h397zM456.5 1896.5q22.5 45.5 64.5 72t97 26.5q45 0 80.5 -22.5t55 -58.5t19.5 -76q0 -91 -47.5 -148.5t-141.5 -57.5q-38 0 -73 23.5t-56 62t-21 78.5
q0 55 22.5 100.5zM930 1896.5q22 45.5 63 72t96 26.5q46 0 82 -22.5t56 -59t20 -75.5q0 -90 -48.5 -148t-142.5 -58q-39 0 -73 23.5t-54.5 61.5t-20.5 78q0 56 22 101.5z" />
    <glyph glyph-name="Aring" unicode="&#xc5;" horiz-adv-x="1345" 
d="M907 286h-523l-117 -286l-390 -1l736 1522q-51 31 -79 79t-28 111q0 109 61 177t150.5 97t178.5 29q139 0 222.5 -59t83.5 -174q0 -85 -38 -148t-104 -103h7l227 -1530l-355 -1zM752.5 1843q-50.5 -35 -50.5 -109q0 -34 20 -62.5t52.5 -45t66.5 -16.5q70 0 118 32.5
t48 110.5q0 35 -19 64t-50.5 45t-66.5 16q-68 0 -118.5 -35zM879 527l-76 675l-6 119l-39 -119l-276 -675h397z" />
    <glyph glyph-name="AE" unicode="&#xc6;" horiz-adv-x="1984" 
d="M1386 1257l-48 -337l419 5l-36 -276l-421 9l-55 -388l633 10l-37 -280h-989l42 296h-465l-158 -296h-392l763 1328l-242 32l28 170h1557l-37 -275zM930 547l104 723l-80 8l-391 -731h367z" />
    <glyph glyph-name="Ccedilla" unicode="&#xc7;" horiz-adv-x="1192" 
d="M623 1158.5q-93 -88.5 -136 -229.5t-43 -304q0 -182 64.5 -268t210.5 -86q89 0 175.5 28.5t132.5 61.5l46 -249q-22 -17 -74 -41.5t-125 -47.5t-153 -33q17 -47 29.5 -113.5t12.5 -112.5q0 -107 -72 -170t-229 -63q-45 0 -134.5 12t-105.5 23l36 203q14 -7 35.5 -11.5
t43.5 -4.5q86 0 132 26t50 99q2 36 2 52q0 36 -3 62q-158 24 -255 116.5t-138.5 226t-41.5 289.5q0 249 103.5 460.5t289 336.5t419.5 125q101 0 171.5 -16.5t127.5 -39.5l53 -14l-102 -335q-46 41 -117.5 73.5t-169.5 32.5q-142 0 -235 -88.5z" />
    <glyph glyph-name="Egrave" unicode="&#xc8;" horiz-adv-x="1204" 
d="M609 2014l279 -342l-143 -122q-50 18 -122.5 66t-135.5 105.5t-88 105.5zM1205 1530l-37 -275l-562 2l-48 -337l419 5l-36 -276l-421 9l-55 -388l633 10l-37 -280h-989l219 1530h914z" />
    <glyph glyph-name="Eacute" unicode="&#xc9;" horiz-adv-x="1204" 
d="M940 2014l210 -187q-25 -48 -88 -105.5t-135.5 -105.5t-122.5 -66l-143 122zM1205 1530l-37 -275l-562 2l-48 -337l419 5l-36 -276l-421 9l-55 -388l633 10l-37 -280h-989l219 1530h914z" />
    <glyph glyph-name="Ecircumflex" unicode="&#xca;" horiz-adv-x="1204" 
d="M1205 1530l-37 -275l-562 2l-48 -337l419 5l-36 -276l-421 9l-55 -388l633 10l-37 -280h-989l219 1530h914zM766 2014h180l212 -337l-145 -78l-183 167l-287 -167l-148 67z" />
    <glyph glyph-name="Edieresis" unicode="&#xcb;" horiz-adv-x="1204" 
d="M394.5 1896.5q22.5 45.5 64.5 72t97 26.5q45 0 80.5 -22.5t55 -58.5t19.5 -76q0 -91 -47.5 -148.5t-141.5 -57.5q-38 0 -73 23.5t-56 62t-21 78.5q0 55 22.5 100.5zM868 1896.5q22 45.5 63 72t96 26.5q46 0 82 -22.5t56 -59t20 -75.5q0 -90 -48.5 -148t-142.5 -58
q-39 0 -73 23.5t-54.5 61.5t-20.5 78q0 56 22 101.5zM1205 1530l-37 -275l-562 2l-48 -337l419 5l-36 -276l-421 9l-55 -388l633 10l-37 -280h-989l219 1530h914z" />
    <glyph glyph-name="Igrave" unicode="&#xcc;" horiz-adv-x="706" 
d="M671 1530l-219 -1530h-354l219 1530h354zM350 2014l279 -342l-143 -122q-50 18 -122.5 66t-135.5 105.5t-88 105.5z" />
    <glyph glyph-name="Iacute" unicode="&#xcd;" horiz-adv-x="706" 
d="M671 1530l-219 -1530h-354l219 1530h354zM681 2014l210 -187q-25 -48 -88 -105.5t-135.5 -105.5t-122.5 -66l-143 122z" />
    <glyph glyph-name="Icircumflex" unicode="&#xce;" horiz-adv-x="706" 
d="M671 1530l-219 -1530h-354l219 1530h354zM507 2014h180l212 -337l-145 -78l-183 167l-287 -167l-148 67z" />
    <glyph glyph-name="Idieresis" unicode="&#xcf;" horiz-adv-x="706" 
d="M671 1530l-219 -1530h-354l219 1530h354zM135.5 1896.5q22.5 45.5 64.5 72t97 26.5q45 0 80.5 -22.5t55 -58.5t19.5 -76q0 -91 -47.5 -148.5t-141.5 -57.5q-38 0 -73 23.5t-56 62t-21 78.5q0 55 22.5 100.5zM609 1896.5q22 45.5 63 72t96 26.5q46 0 82 -22.5t56 -59
t20 -75.5q0 -90 -48.5 -148t-142.5 -58q-39 0 -73 23.5t-54.5 61.5t-20.5 78q0 56 22 101.5z" />
    <glyph glyph-name="Eth" unicode="&#xd0;" horiz-adv-x="1438" 
d="M1289 1386q139 -162 139 -452q0 -256 -94.5 -472t-285.5 -346t-466 -130q-46 0 -144 7l-24 1q-124 8 -185 8h-144l96 671h-152l25 251h163l87 608h156q40 0 186 8q154 8 201 8q303 0 442 -162zM871.5 337.5q97.5 92.5 145 249.5t47.5 352q0 137 -30.5 212.5t-93 105.5
t-166.5 30q-34 0 -79 -3.5t-74 -9.5l-50 -350h294l-26 -251h-304l-58 -406q63 -22 155 -22q142 0 239.5 92.5z" />
    <glyph glyph-name="Ntilde" unicode="&#xd1;" horiz-adv-x="1512" 
d="M569.5 1874q52.5 46 115.5 76t116 30q45 0 79 -12t58 -28.5t55 -43.5q35 -31 59.5 -45.5t57.5 -14.5q39 0 69 15.5t50.5 36.5t50.5 58l119 -145q-20 -48 -69.5 -96.5t-112 -80.5t-118.5 -32q-50 0 -87 11.5t-61.5 28t-54.5 42.5q-38 32 -65 47t-68 15q-45 0 -84 -24.5
t-78 -64.5l-106 136q22 45 74.5 91zM610 1530l356 -792l79 -260l13 260l97 792h342l-219 -1530h-297l-348 833l-99 275l3 -275l-115 -833h-338l219 1530h307z" />
    <glyph glyph-name="Ograve" unicode="&#xd2;" horiz-adv-x="1394" 
d="M717 2014l279 -342l-143 -122q-50 18 -122.5 66t-135.5 105.5t-88 105.5zM157.5 1063q91.5 221 263 352t400.5 131q175 0 297.5 -80t184 -216.5t61.5 -303.5q0 -263 -90.5 -483t-260 -349.5t-395.5 -129.5q-178 0 -302.5 79t-187 213.5t-62.5 301.5q0 264 91.5 485z
M975.5 1140.5q-24.5 75.5 -71.5 107.5t-121 32q-106 0 -186.5 -104t-123.5 -263t-43 -317q0 -130 24.5 -206t71.5 -108t120 -32q106 0 186.5 102.5t124 261t43.5 321.5q0 130 -24.5 205.5z" />
    <glyph glyph-name="Oacute" unicode="&#xd3;" horiz-adv-x="1394" 
d="M1048 2014l210 -187q-25 -48 -88 -105.5t-135.5 -105.5t-122.5 -66l-143 122zM157.5 1063q91.5 221 263 352t400.5 131q175 0 297.5 -80t184 -216.5t61.5 -303.5q0 -263 -90.5 -483t-260 -349.5t-395.5 -129.5q-178 0 -302.5 79t-187 213.5t-62.5 301.5q0 264 91.5 485z
M975.5 1140.5q-24.5 75.5 -71.5 107.5t-121 32q-106 0 -186.5 -104t-123.5 -263t-43 -317q0 -130 24.5 -206t71.5 -108t120 -32q106 0 186.5 102.5t124 261t43.5 321.5q0 130 -24.5 205.5z" />
    <glyph glyph-name="Ocircumflex" unicode="&#xd4;" horiz-adv-x="1394" 
d="M157.5 1063q91.5 221 263 352t400.5 131q175 0 297.5 -80t184 -216.5t61.5 -303.5q0 -263 -90.5 -483t-260 -349.5t-395.5 -129.5q-178 0 -302.5 79t-187 213.5t-62.5 301.5q0 264 91.5 485zM975.5 1140.5q-24.5 75.5 -71.5 107.5t-121 32q-106 0 -186.5 -104
t-123.5 -263t-43 -317q0 -130 24.5 -206t71.5 -108t120 -32q106 0 186.5 102.5t124 261t43.5 321.5q0 130 -24.5 205.5zM874 2014h180l212 -337l-145 -78l-183 167l-287 -167l-148 67z" />
    <glyph glyph-name="Otilde" unicode="&#xd5;" horiz-adv-x="1394" 
d="M560.5 1874q52.5 46 115.5 76t116 30q45 0 79 -12t58 -28.5t55 -43.5q35 -31 59.5 -45.5t57.5 -14.5q39 0 69 15.5t50.5 36.5t50.5 58l119 -145q-20 -48 -69.5 -96.5t-112 -80.5t-118.5 -32q-50 0 -87 11.5t-61.5 28t-54.5 42.5q-38 32 -65 47t-68 15q-45 0 -84 -24.5
t-78 -64.5l-106 136q22 45 74.5 91zM157.5 1063q91.5 221 263 352t400.5 131q175 0 297.5 -80t184 -216.5t61.5 -303.5q0 -263 -90.5 -483t-260 -349.5t-395.5 -129.5q-178 0 -302.5 79t-187 213.5t-62.5 301.5q0 264 91.5 485zM975.5 1140.5q-24.5 75.5 -71.5 107.5
t-121 32q-106 0 -186.5 -104t-123.5 -263t-43 -317q0 -130 24.5 -206t71.5 -108t120 -32q106 0 186.5 102.5t124 261t43.5 321.5q0 130 -24.5 205.5z" />
    <glyph glyph-name="Odieresis" unicode="&#xd6;" horiz-adv-x="1394" 
d="M502.5 1896.5q22.5 45.5 64.5 72t97 26.5q45 0 80.5 -22.5t55 -58.5t19.5 -76q0 -91 -47.5 -148.5t-141.5 -57.5q-38 0 -73 23.5t-56 62t-21 78.5q0 55 22.5 100.5zM976 1896.5q22 45.5 63 72t96 26.5q46 0 82 -22.5t56 -59t20 -75.5q0 -90 -48.5 -148t-142.5 -58
q-39 0 -73 23.5t-54.5 61.5t-20.5 78q0 56 22 101.5zM157.5 1063q91.5 221 263 352t400.5 131q175 0 297.5 -80t184 -216.5t61.5 -303.5q0 -263 -90.5 -483t-260 -349.5t-395.5 -129.5q-178 0 -302.5 79t-187 213.5t-62.5 301.5q0 264 91.5 485zM975.5 1140.5
q-24.5 75.5 -71.5 107.5t-121 32q-106 0 -186.5 -104t-123.5 -263t-43 -317q0 -130 24.5 -206t71.5 -108t120 -32q106 0 186.5 102.5t124 261t43.5 321.5q0 130 -24.5 205.5z" />
    <glyph glyph-name="multiply" unicode="&#xd7;" horiz-adv-x="1397" 
d="M551 790l-313 337l209 185l291 -361l379 361l173 -207l-393 -336l321 -337l-209 -185l-299 361l-371 -360l-173 206z" />
    <glyph glyph-name="Oslash" unicode="&#xd8;" horiz-adv-x="1393" 
d="M1318 1214q46 -122 46 -266q0 -263 -90.5 -483t-260 -349.5t-395.5 -129.5q-155 0 -275 63l-113 -181l-89 49l119 188q-96 80 -145 203.5t-49 271.5q0 264 91.5 485t263 352t400.5 131q162 0 280 -70l110 192l89 -49l-117 -203q89 -82 135 -204zM596.5 1178
q-80.5 -104 -123.5 -263t-43 -317q0 -126 24 -203l473 835q-49 52 -144 52q-106 0 -186.5 -104zM832.5 354.5q80.5 102.5 124 261t43.5 321.5q0 113 -18 185l-471 -826q48 -44 135 -44q106 0 186.5 102.5z" />
    <glyph glyph-name="Ugrave" unicode="&#xd9;" horiz-adv-x="1440" 
d="M697 2014l279 -342l-143 -122q-50 18 -122.5 66t-135.5 105.5t-88 105.5zM261 1530h353l-126 -888q-11 -80 -11 -192q1 -75 20 -117.5t61.5 -60t116.5 -17.5q84 0 138.5 34t89.5 116t57 229l127 896h352l-130 -933q-31 -222 -112 -356t-221 -195.5t-355 -61.5
q-255 0 -380 117.5t-126 330.5q-1 71 13 165z" />
    <glyph glyph-name="Uacute" unicode="&#xda;" horiz-adv-x="1440" 
d="M1028 2014l210 -187q-25 -48 -88 -105.5t-135.5 -105.5t-122.5 -66l-143 122zM261 1530h353l-126 -888q-11 -80 -11 -192q1 -75 20 -117.5t61.5 -60t116.5 -17.5q84 0 138.5 34t89.5 116t57 229l127 896h352l-130 -933q-31 -222 -112 -356t-221 -195.5t-355 -61.5
q-255 0 -380 117.5t-126 330.5q-1 71 13 165z" />
    <glyph glyph-name="Ucircumflex" unicode="&#xdb;" horiz-adv-x="1440" 
d="M261 1530h353l-126 -888q-11 -80 -11 -192q1 -75 20 -117.5t61.5 -60t116.5 -17.5q84 0 138.5 34t89.5 116t57 229l127 896h352l-130 -933q-31 -222 -112 -356t-221 -195.5t-355 -61.5q-255 0 -380 117.5t-126 330.5q-1 71 13 165zM854 2014h180l212 -337l-145 -78
l-183 167l-287 -167l-148 67z" />
    <glyph glyph-name="Udieresis" unicode="&#xdc;" horiz-adv-x="1440" 
d="M482.5 1896.5q22.5 45.5 64.5 72t97 26.5q45 0 80.5 -22.5t55 -58.5t19.5 -76q0 -91 -47.5 -148.5t-141.5 -57.5q-38 0 -73 23.5t-56 62t-21 78.5q0 55 22.5 100.5zM956 1896.5q22 45.5 63 72t96 26.5q46 0 82 -22.5t56 -59t20 -75.5q0 -90 -48.5 -148t-142.5 -58
q-39 0 -73 23.5t-54.5 61.5t-20.5 78q0 56 22 101.5zM261 1530h353l-126 -888q-11 -80 -11 -192q1 -75 20 -117.5t61.5 -60t116.5 -17.5q84 0 138.5 34t89.5 116t57 229l127 896h352l-130 -933q-31 -222 -112 -356t-221 -195.5t-355 -61.5q-255 0 -380 117.5t-126 330.5
q-1 71 13 165z" />
    <glyph glyph-name="Yacute" unicode="&#xdd;" horiz-adv-x="1164" 
d="M83 1530h372l141 -525l25 -134l58 134l284 525h393l-600 -940l-85 -590h-354l85 590zM872 2014l210 -187q-25 -48 -88 -105.5t-135.5 -105.5t-122.5 -66l-143 122z" />
    <glyph glyph-name="Thorn" unicode="&#xde;" horiz-adv-x="1306" 
d="M1210 556.5q-77 -137.5 -225.5 -218t-353.5 -80.5q-41 0 -82.5 4t-49.5 5q-15 3 -24 3l-38 -270h-361l215 1530h360l-35 -247q70 5 133 5q261 0 399.5 -109t138.5 -318q0 -167 -77 -304.5zM941 853q0 93 -60 141t-196 48q-71 0 -100 -5l-2 3l-71 -506q18 -5 53.5 -8
t71.5 -3q141 0 217.5 80.5t85.5 228.5z" />
    <glyph glyph-name="germandbls" unicode="&#xdf;" horiz-adv-x="1329" 
d="M337.5 1351q107.5 145 239.5 189.5t296 44.5q122 0 215 -35.5t144.5 -103.5t51.5 -163q0 -83 -22 -142t-52 -95.5t-77 -78.5q-45 -42 -65.5 -70.5t-20.5 -67.5q0 -35 19 -76t67 -105q59 -80 92 -151t33 -165q0 -112 -53.5 -190t-152.5 -118t-235 -40q-187 0 -272 47
l24 264q23 -27 78.5 -48t103.5 -21q73 0 115.5 28t42.5 91q0 39 -18.5 71t-54.5 74q-26 31 -30 37q-51 71 -82.5 133t-31.5 120q0 44 18 83.5t43.5 70.5t68.5 75q67 58 100.5 113.5t33.5 124.5q0 50 -36.5 83.5t-97.5 33.5q-105 0 -183 -119.5t-109 -377.5l-118 -867h-347
l124 927q41 279 148.5 424z" />
    <glyph glyph-name="agrave" unicode="&#xe0;" horiz-adv-x="1268" 
d="M1205 1156l-161 -1156h-320l12 248q-50 -110 -133.5 -187t-196.5 -77q-177 0 -256.5 118.5t-79.5 309.5t80.5 361.5t240 276.5t382.5 106q58 0 127 -13.5t121 -31.5zM626 286q48 62 87.5 150.5t62.5 169.5l47 335q-29 5 -75 5q-98 0 -167 -75t-104 -193.5t-35 -244.5
q0 -209 89 -209q47 0 95 62zM564 1774l334 -449l-124 -99q-57 22 -149 91.5t-172 146t-98 110.5z" />
    <glyph glyph-name="aacute" unicode="&#xe1;" horiz-adv-x="1268" 
d="M1205 1156l-161 -1156h-320l12 248q-50 -110 -133.5 -187t-196.5 -77q-177 0 -256.5 118.5t-79.5 309.5t80.5 361.5t240 276.5t382.5 106q58 0 127 -13.5t121 -31.5zM626 286q48 62 87.5 150.5t62.5 169.5l47 335q-29 5 -75 5q-98 0 -167 -75t-104 -193.5t-35 -244.5
q0 -209 89 -209q47 0 95 62zM1000 1774l209 -200q-18 -34 -98 -110.5t-172 -146t-149 -91.5l-124 99z" />
    <glyph glyph-name="acircumflex" unicode="&#xe2;" horiz-adv-x="1268" 
d="M1205 1156l-161 -1156h-320l12 248q-50 -110 -133.5 -187t-196.5 -77q-177 0 -256.5 118.5t-79.5 309.5t80.5 361.5t240 276.5t382.5 106q58 0 127 -13.5t121 -31.5zM626 286q48 62 87.5 150.5t62.5 169.5l47 335q-29 5 -75 5q-98 0 -167 -75t-104 -193.5t-35 -244.5
q0 -209 89 -209q47 0 95 62zM795 1670h180l212 -374l-155 -68l-180 174l-290 -173l-138 67z" />
    <glyph glyph-name="atilde" unicode="&#xe3;" horiz-adv-x="1268" 
d="M1205 1156l-161 -1156h-320l12 248q-50 -110 -133.5 -187t-196.5 -77q-177 0 -256.5 118.5t-79.5 309.5t80.5 361.5t240 276.5t382.5 106q58 0 127 -13.5t121 -31.5zM626 286q48 62 87.5 150.5t62.5 169.5l47 335q-29 5 -75 5q-98 0 -167 -75t-104 -193.5t-35 -244.5
q0 -209 89 -209q47 0 95 62zM458.5 1593q49.5 46 110 75.5t113.5 29.5q45 0 77.5 -12.5t53.5 -30.5t49 -47q31 -33 53.5 -48.5t55.5 -15.5q35 0 60.5 12.5t43.5 31t42 49.5q-1 -1 14 17l119 -145q-20 -48 -67 -97t-107 -80.5t-116 -31.5q-50 0 -85.5 12.5t-57.5 30t-49 45.5
q-33 34 -58 50t-66 16q-45 0 -77.5 -22.5t-74.5 -66.5l-106 136q23 46 72.5 92z" />
    <glyph glyph-name="adieresis" unicode="&#xe4;" horiz-adv-x="1268" 
d="M1205 1156l-161 -1156h-320l12 248q-50 -110 -133.5 -187t-196.5 -77q-177 0 -256.5 118.5t-79.5 309.5t80.5 361.5t240 276.5t382.5 106q58 0 127 -13.5t121 -31.5zM626 286q48 62 87.5 150.5t62.5 169.5l47 335q-29 5 -75 5q-98 0 -167 -75t-104 -193.5t-35 -244.5
q0 -209 89 -209q47 0 95 62zM438.5 1602.5q22.5 45.5 64.5 72t97 26.5q45 0 80.5 -22.5t55 -58.5t19.5 -76q0 -91 -47.5 -148.5t-141.5 -57.5q-38 0 -73 23.5t-56 62t-21 78.5q0 55 22.5 100.5zM912 1602.5q22 45.5 63 72t96 26.5q46 0 82 -22.5t56 -59t20 -75.5
q0 -90 -48.5 -148t-142.5 -58q-39 0 -73 23.5t-54.5 61.5t-20.5 78q0 56 22 101.5z" />
    <glyph glyph-name="aring" unicode="&#xe5;" horiz-adv-x="1268" 
d="M1205 1156l-161 -1156h-320l12 248q-50 -110 -133.5 -187t-196.5 -77q-177 0 -256.5 118.5t-79.5 309.5t80.5 361.5t240 276.5t382.5 106q58 0 127 -13.5t121 -31.5zM626 286q48 62 87.5 150.5t62.5 169.5l47 335q-29 5 -75 5q-98 0 -167 -75t-104 -193.5t-35 -244.5
q0 -209 89 -209q47 0 95 62zM561.5 1675q61.5 69 150.5 99t178 30q139 0 222.5 -60t83.5 -177q0 -101 -55.5 -172t-143.5 -106.5t-184 -35.5q-145 0 -229 63.5t-84 180.5q0 109 61.5 178zM982 1603q-19 29 -50.5 45t-66.5 16q-68 0 -118.5 -35t-50.5 -109q0 -34 20 -62.5
t52.5 -45t66.5 -16.5q70 0 118 32.5t48 110.5q0 35 -19 64z" />
    <glyph glyph-name="ae" unicode="&#xe6;" horiz-adv-x="1770" 
d="M1377 252q65 26 118.5 64.5t79.5 72.5l92 -171q-34 -49 -105.5 -103t-174.5 -92.5t-223 -38.5q-173 0 -276.5 85.5t-138.5 224.5q-57 -130 -147 -220t-208 -90q-176 0 -251 117.5t-75 310.5q0 192 86 362.5t256.5 276t410.5 105.5q75 0 145 -18.5t119 -47.5
q132 66 289 66q172 0 256 -69t84 -194q0 -142 -78.5 -240.5t-210.5 -160.5t-318 -109q0 -79 31 -118t114 -39q60 0 125 26zM1193 893.5q-43 -66.5 -66 -160.5t-25 -172q60 4 122.5 45.5t104 108.5t41.5 144q0 53 -17.5 77t-57.5 24q-59 0 -102 -66.5zM890 934q-45 12 -94 12
q-114 0 -194.5 -75t-121 -193t-40.5 -245q0 -70 7.5 -110t24.5 -58.5t47 -18.5q34 0 79.5 48t85 125t56.5 159q31 210 150 356z" />
    <glyph glyph-name="ccedilla" unicode="&#xe7;" horiz-adv-x="956" 
d="M670 259q46 18 86 45t63 52l89 -171q-38 -58 -108.5 -109.5t-170.5 -75.5q18 -45 32 -117t14 -121q0 -107 -72 -170t-229 -63q-45 0 -134.5 12t-105.5 23l36 203q14 -7 35.5 -11.5t43.5 -4.5q86 0 132 26t50 99q1 19 1 54q0 40 -2 57q-125 13 -204.5 81t-115.5 166
t-36 208q0 207 80 369.5t221.5 253.5t319.5 91q58 0 137 -12.5t121 -30.5l-86 -342q-30 30 -89.5 68.5t-109.5 38.5q-63 0 -115 -42t-83.5 -127.5t-31.5 -210.5q0 -91 13.5 -146.5t45 -83t87.5 -27.5q40 0 86 18z" />
    <glyph glyph-name="egrave" unicode="&#xe8;" horiz-adv-x="1112" 
d="M972 1087q84 -69 84 -194q0 -142 -78.5 -240.5t-210.5 -160.5t-318 -109q0 -79 31 -118t114 -39q60 0 125 26t118.5 64.5t79.5 72.5l92 -171q-34 -49 -105.5 -103t-174.5 -92.5t-223 -38.5q-148 0 -245 63t-142.5 166.5t-45.5 228.5q0 203 85.5 366.5t232.5 255.5t325 92
q172 0 256 -69zM694.5 936q-17.5 24 -57.5 24q-59 0 -102 -66.5t-66 -160.5t-25 -172q60 4 122.5 45.5t104 108.5t41.5 144q0 53 -17.5 77zM484 1774l334 -449l-124 -99q-57 22 -149 91.5t-172 146t-98 110.5z" />
    <glyph glyph-name="eacute" unicode="&#xe9;" horiz-adv-x="1112" 
d="M920 1774l209 -200q-18 -34 -98 -110.5t-172 -146t-149 -91.5l-124 99zM972 1087q84 -69 84 -194q0 -142 -78.5 -240.5t-210.5 -160.5t-318 -109q0 -79 31 -118t114 -39q60 0 125 26t118.5 64.5t79.5 72.5l92 -171q-34 -49 -105.5 -103t-174.5 -92.5t-223 -38.5
q-148 0 -245 63t-142.5 166.5t-45.5 228.5q0 203 85.5 366.5t232.5 255.5t325 92q172 0 256 -69zM694.5 936q-17.5 24 -57.5 24q-59 0 -102 -66.5t-66 -160.5t-25 -172q60 4 122.5 45.5t104 108.5t41.5 144q0 53 -17.5 77z" />
    <glyph glyph-name="ecircumflex" unicode="&#xea;" horiz-adv-x="1112" 
d="M715 1670h180l212 -374l-155 -68l-180 174l-290 -173l-138 67zM972 1087q84 -69 84 -194q0 -142 -78.5 -240.5t-210.5 -160.5t-318 -109q0 -79 31 -118t114 -39q60 0 125 26t118.5 64.5t79.5 72.5l92 -171q-34 -49 -105.5 -103t-174.5 -92.5t-223 -38.5q-148 0 -245 63
t-142.5 166.5t-45.5 228.5q0 203 85.5 366.5t232.5 255.5t325 92q172 0 256 -69zM694.5 936q-17.5 24 -57.5 24q-59 0 -102 -66.5t-66 -160.5t-25 -172q60 4 122.5 45.5t104 108.5t41.5 144q0 53 -17.5 77z" />
    <glyph glyph-name="edieresis" unicode="&#xeb;" horiz-adv-x="1112" 
d="M358.5 1602.5q22.5 45.5 64.5 72t97 26.5q45 0 80.5 -22.5t55 -58.5t19.5 -76q0 -91 -47.5 -148.5t-141.5 -57.5q-38 0 -73 23.5t-56 62t-21 78.5q0 55 22.5 100.5zM832 1602.5q22 45.5 63 72t96 26.5q46 0 82 -22.5t56 -59t20 -75.5q0 -90 -48.5 -148t-142.5 -58
q-39 0 -73 23.5t-54.5 61.5t-20.5 78q0 56 22 101.5zM972 1087q84 -69 84 -194q0 -142 -78.5 -240.5t-210.5 -160.5t-318 -109q0 -79 31 -118t114 -39q60 0 125 26t118.5 64.5t79.5 72.5l92 -171q-34 -49 -105.5 -103t-174.5 -92.5t-223 -38.5q-148 0 -245 63t-142.5 166.5
t-45.5 228.5q0 203 85.5 366.5t232.5 255.5t325 92q172 0 256 -69zM694.5 936q-17.5 24 -57.5 24q-59 0 -102 -66.5t-66 -160.5t-25 -172q60 4 122.5 45.5t104 108.5t41.5 144q0 53 -17.5 77z" />
    <glyph glyph-name="igrave" unicode="&#xec;" 
d="M595 1140l-158 -1140h-357l156 1140h359zM213 1774l334 -449l-124 -99q-57 22 -149 91.5t-172 146t-98 110.5z" />
    <glyph glyph-name="iacute" unicode="&#xed;" 
d="M649 1774l209 -200q-18 -34 -98 -110.5t-172 -146t-149 -91.5l-124 99zM595 1140l-158 -1140h-357l156 1140h359z" />
    <glyph glyph-name="icircumflex" unicode="&#xee;" 
d="M444 1670h180l212 -374l-155 -68l-180 174l-290 -173l-138 67zM595 1140l-158 -1140h-357l156 1140h359z" />
    <glyph glyph-name="idieresis" unicode="&#xef;" 
d="M87.5 1602.5q22.5 45.5 64.5 72t97 26.5q45 0 80.5 -22.5t55 -58.5t19.5 -76q0 -91 -47.5 -148.5t-141.5 -57.5q-38 0 -73 23.5t-56 62t-21 78.5q0 55 22.5 100.5zM561 1602.5q22 45.5 63 72t96 26.5q46 0 82 -22.5t56 -59t20 -75.5q0 -90 -48.5 -148t-142.5 -58
q-39 0 -73 23.5t-54.5 61.5t-20.5 78q0 56 22 101.5zM595 1140l-158 -1140h-357l156 1140h359z" />
    <glyph glyph-name="eth" unicode="&#xf0;" horiz-adv-x="1212" 
d="M1078 1220.5q68 -202.5 68 -418.5q0 -235 -71.5 -420t-213.5 -291.5t-345 -106.5q-146 0 -247.5 63t-152 163.5t-50.5 212.5q0 226 68.5 392t194 254.5t292.5 88.5q129 0 181 -47q-3 85 -29 150t-69 128l-102 -114l-126 114l119 121q-50 44 -104.5 74.5t-122.5 50.5
l60 179q161 -41 309 -145q48 54 85 96t49 56l118 -115l-125 -140q146 -143 214 -345.5zM765 918q-18 25 -51 41t-74 16q-65 0 -110 -85.5t-67.5 -216t-22.5 -262.5q0 -100 28 -164.5t78 -64.5q48 0 90.5 49t73 133t44.5 187q7 45 17 161.5t10 156.5q2 24 -16 49z" />
    <glyph glyph-name="ntilde" unicode="&#xf1;" horiz-adv-x="1319" 
d="M1135.5 1085.5q70.5 -70.5 70.5 -231.5q0 -32 -10 -114t-30 -229q-12 -92 -39 -273q-26 -187 -33 -238h-357q46 308 70 510q25 204 28 278q3 53 -17.5 76t-63.5 23q-56 0 -118.5 -52t-105.5 -136l-97 -699h-357l156 1140h341l-13 -206q68 104 162.5 163t206.5 59
q136 0 206.5 -70.5zM511.5 1593q49.5 46 110 75.5t113.5 29.5q45 0 77.5 -12.5t53.5 -30.5t49 -47q31 -33 53.5 -48.5t55.5 -15.5q35 0 60.5 12.5t43.5 31t42 49.5q-1 -1 14 17l119 -145q-20 -48 -67 -97t-107 -80.5t-116 -31.5q-50 0 -85.5 12.5t-57.5 30t-49 45.5
q-33 34 -58 50t-66 16q-45 0 -77.5 -22.5t-74.5 -66.5l-106 136q23 46 72.5 92z" />
    <glyph glyph-name="ograve" unicode="&#xf2;" horiz-adv-x="1181" 
d="M937 1091q93 -65 136 -174t43 -246q0 -187 -72.5 -343.5t-216 -250t-346.5 -93.5q-143 0 -236 65t-136.5 174t-43.5 246q0 187 73 343.5t216.5 250t346.5 93.5q143 0 236 -65zM658.5 272.5q51.5 74.5 75.5 190t24 242.5q0 126 -27.5 181.5t-82.5 55.5q-76 0 -128 -77.5
t-76.5 -196t-24.5 -239.5q0 -231 110 -231q78 0 129.5 74.5zM492 1774l334 -449l-124 -99q-57 22 -149 91.5t-172 146t-98 110.5z" />
    <glyph glyph-name="oacute" unicode="&#xf3;" horiz-adv-x="1181" 
d="M928 1774l209 -200q-18 -34 -98 -110.5t-172 -146t-149 -91.5l-124 99zM937 1091q93 -65 136 -174t43 -246q0 -187 -72.5 -343.5t-216 -250t-346.5 -93.5q-143 0 -236 65t-136.5 174t-43.5 246q0 187 73 343.5t216.5 250t346.5 93.5q143 0 236 -65zM658.5 272.5
q51.5 74.5 75.5 190t24 242.5q0 126 -27.5 181.5t-82.5 55.5q-76 0 -128 -77.5t-76.5 -196t-24.5 -239.5q0 -231 110 -231q78 0 129.5 74.5z" />
    <glyph glyph-name="ocircumflex" unicode="&#xf4;" horiz-adv-x="1181" 
d="M723 1670h180l212 -374l-155 -68l-180 174l-290 -173l-138 67zM937 1091q93 -65 136 -174t43 -246q0 -187 -72.5 -343.5t-216 -250t-346.5 -93.5q-143 0 -236 65t-136.5 174t-43.5 246q0 187 73 343.5t216.5 250t346.5 93.5q143 0 236 -65zM658.5 272.5
q51.5 74.5 75.5 190t24 242.5q0 126 -27.5 181.5t-82.5 55.5q-76 0 -128 -77.5t-76.5 -196t-24.5 -239.5q0 -231 110 -231q78 0 129.5 74.5z" />
    <glyph glyph-name="otilde" unicode="&#xf5;" horiz-adv-x="1181" 
d="M937 1091q93 -65 136 -174t43 -246q0 -187 -72.5 -343.5t-216 -250t-346.5 -93.5q-143 0 -236 65t-136.5 174t-43.5 246q0 187 73 343.5t216.5 250t346.5 93.5q143 0 236 -65zM658.5 272.5q51.5 74.5 75.5 190t24 242.5q0 126 -27.5 181.5t-82.5 55.5q-76 0 -128 -77.5
t-76.5 -196t-24.5 -239.5q0 -231 110 -231q78 0 129.5 74.5zM386.5 1593q49.5 46 110 75.5t113.5 29.5q45 0 77.5 -12.5t53.5 -30.5t49 -47q31 -33 53.5 -48.5t55.5 -15.5q35 0 60.5 12.5t43.5 31t42 49.5q-1 -1 14 17l119 -145q-20 -48 -67 -97t-107 -80.5t-116 -31.5
q-50 0 -85.5 12.5t-57.5 30t-49 45.5q-33 34 -58 50t-66 16q-45 0 -77.5 -22.5t-74.5 -66.5l-106 136q23 46 72.5 92z" />
    <glyph glyph-name="odieresis" unicode="&#xf6;" horiz-adv-x="1181" 
d="M366.5 1602.5q22.5 45.5 64.5 72t97 26.5q45 0 80.5 -22.5t55 -58.5t19.5 -76q0 -91 -47.5 -148.5t-141.5 -57.5q-38 0 -73 23.5t-56 62t-21 78.5q0 55 22.5 100.5zM840 1602.5q22 45.5 63 72t96 26.5q46 0 82 -22.5t56 -59t20 -75.5q0 -90 -48.5 -148t-142.5 -58
q-39 0 -73 23.5t-54.5 61.5t-20.5 78q0 56 22 101.5zM937 1091q93 -65 136 -174t43 -246q0 -187 -72.5 -343.5t-216 -250t-346.5 -93.5q-143 0 -236 65t-136.5 174t-43.5 246q0 187 73 343.5t216.5 250t346.5 93.5q143 0 236 -65zM658.5 272.5q51.5 74.5 75.5 190t24 242.5
q0 126 -27.5 181.5t-82.5 55.5q-76 0 -128 -77.5t-76.5 -196t-24.5 -239.5q0 -231 110 -231q78 0 129.5 74.5z" />
    <glyph glyph-name="divide" unicode="&#xf7;" horiz-adv-x="1397" 
d="M629.5 1313q25.5 49 73 79t109.5 30q83 0 122 -41.5t39 -107.5q0 -65 -26.5 -114.5t-74.5 -76.5t-112 -27q-72 0 -114 42t-42 110q0 57 25.5 106zM1220 916l-34 -263h-962l36 265zM517.5 401q25.5 49 73 79t109.5 30q83 0 122 -41.5t39 -107.5q0 -65 -26.5 -114.5
t-74.5 -76.5t-112 -27q-72 0 -114 42t-42 110q0 57 25.5 106z" />
    <glyph glyph-name="oslash" unicode="&#xf8;" horiz-adv-x="1180" 
d="M1075 914q41 -107 41 -241q0 -187 -72.5 -343.5t-216 -250t-346.5 -93.5q-91 0 -164 28l-91 -146l-89 49l92 145q-83 64 -123.5 170.5t-40.5 238.5q0 187 73 343.5t216.5 250t346.5 93.5q90 0 160 -26l98 171l89 -49l-98 -170q84 -63 125 -170zM520 866.5
q-52 -77.5 -76.5 -196t-24.5 -239.5q0 -40 3 -73l288 561q-25 25 -62 25q-76 0 -128 -77.5zM658.5 274.5q51.5 74.5 75.5 190t24 242.5q0 50 -4 81l-289 -559q25 -29 64 -29q78 0 129.5 74.5z" />
    <glyph glyph-name="ugrave" unicode="&#xf9;" horiz-adv-x="1292" 
d="M1223 1140l-156 -1140h-318l7 195q-58 -91 -151 -153t-203 -62q-124 0 -202.5 62t-78.5 200q0 110 36 352l75 546h353l-70 -551q-27 -201 -27 -257q0 -47 20 -72.5t49 -25.5q51 0 107 52.5t101 130.5l101 723h357zM533 1774l334 -449l-124 -99q-57 22 -149 91.5t-172 146
t-98 110.5z" />
    <glyph glyph-name="uacute" unicode="&#xfa;" horiz-adv-x="1292" 
d="M969 1774l209 -200q-18 -34 -98 -110.5t-172 -146t-149 -91.5l-124 99zM1223 1140l-156 -1140h-318l7 195q-58 -91 -151 -153t-203 -62q-124 0 -202.5 62t-78.5 200q0 110 36 352l75 546h353l-70 -551q-27 -201 -27 -257q0 -47 20 -72.5t49 -25.5q51 0 107 52.5
t101 130.5l101 723h357z" />
    <glyph glyph-name="ucircumflex" unicode="&#xfb;" horiz-adv-x="1292" 
d="M764 1670h180l212 -374l-155 -68l-180 174l-290 -173l-138 67zM1223 1140l-156 -1140h-318l7 195q-58 -91 -151 -153t-203 -62q-124 0 -202.5 62t-78.5 200q0 110 36 352l75 546h353l-70 -551q-27 -201 -27 -257q0 -47 20 -72.5t49 -25.5q51 0 107 52.5t101 130.5
l101 723h357z" />
    <glyph glyph-name="udieresis" unicode="&#xfc;" horiz-adv-x="1292" 
d="M407.5 1602.5q22.5 45.5 64.5 72t97 26.5q45 0 80.5 -22.5t55 -58.5t19.5 -76q0 -91 -47.5 -148.5t-141.5 -57.5q-38 0 -73 23.5t-56 62t-21 78.5q0 55 22.5 100.5zM881 1602.5q22 45.5 63 72t96 26.5q46 0 82 -22.5t56 -59t20 -75.5q0 -90 -48.5 -148t-142.5 -58
q-39 0 -73 23.5t-54.5 61.5t-20.5 78q0 56 22 101.5zM1223 1140l-156 -1140h-318l7 195q-58 -91 -151 -153t-203 -62q-124 0 -202.5 62t-78.5 200q0 110 36 352l75 546h353l-70 -551q-27 -201 -27 -257q0 -47 20 -72.5t49 -25.5q51 0 107 52.5t101 130.5l101 723h357z" />
    <glyph glyph-name="yacute" unicode="&#xfd;" horiz-adv-x="1140" 
d="M1100 987q0 -303 -149 -655q-60 -142 -130 -263.5t-139 -216.5q-15 -20 -43 -60q-80 -111 -135.5 -171.5t-137 -99t-198.5 -38.5q-74 0 -140 21.5t-120 53.5l89 244q36 -25 85.5 -43t88.5 -18q59 0 104.5 22.5t90.5 73t105 143.5h-206l-56 375l-114 785h352l74 -685
l33 -317q66 136 118 300q33 96 50.5 164t28.5 152.5t20 223.5q3 39 3 111v51h320q6 -30 6 -153zM805 1774l209 -200q-18 -34 -98 -110.5t-172 -146t-149 -91.5l-124 99z" />
    <glyph glyph-name="thorn" unicode="&#xfe;" horiz-adv-x="1290" 
d="M1140.5 1035.5q79.5 -120.5 79.5 -311.5t-80.5 -360.5t-239.5 -274.5t-383 -105q-45 0 -105 10l-10 -136l-40 -350h-354l68 492l225 1634h343l-85 -658l-21 -121q47 121 134 211t212 90q177 0 256.5 -120.5zM708 268.5q69 74.5 103.5 191.5t34.5 243q0 209 -88 209
q-52 0 -104 -70.5t-92 -168t-58 -174.5l1 56l-45 -355q30 -6 81 -6q98 0 167 74.5z" />
    <glyph glyph-name="ydieresis" unicode="&#xff;" horiz-adv-x="1140" 
d="M1100 987q0 -303 -149 -655q-60 -142 -130 -263.5t-139 -216.5q-15 -20 -43 -60q-80 -111 -135.5 -171.5t-137 -99t-198.5 -38.5q-74 0 -140 21.5t-120 53.5l89 244q36 -25 85.5 -43t88.5 -18q59 0 104.5 22.5t90.5 73t105 143.5h-206l-56 375l-114 785h352l74 -685
l33 -317q66 136 118 300q33 96 50.5 164t28.5 152.5t20 223.5q3 39 3 111v51h320q6 -30 6 -153zM243.5 1602.5q22.5 45.5 64.5 72t97 26.5q45 0 80.5 -22.5t55 -58.5t19.5 -76q0 -91 -47.5 -148.5t-141.5 -57.5q-38 0 -73 23.5t-56 62t-21 78.5q0 55 22.5 100.5zM717 1602.5
q22 45.5 63 72t96 26.5q46 0 82 -22.5t56 -59t20 -75.5q0 -90 -48.5 -148t-142.5 -58q-39 0 -73 23.5t-54.5 61.5t-20.5 78q0 56 22 101.5z" />
    <glyph glyph-name="Amacron" unicode="&#x100;" horiz-adv-x="1345" 
d="M907 286h-523l-117 -286l-390 -1l740 1531h450l227 -1530l-355 -1zM879 527l-76 675l-6 119l-39 -119l-276 -675h397zM1146 1916l-20 -209h-577l20 209h577z" />
    <glyph glyph-name="amacron" unicode="&#x101;" horiz-adv-x="1268" 
d="M1205 1156l-161 -1156h-320l12 248q-50 -110 -133.5 -187t-196.5 -77q-177 0 -256.5 118.5t-79.5 309.5t80.5 361.5t240 276.5t382.5 106q58 0 127 -13.5t121 -31.5zM626 286q48 62 87.5 150.5t62.5 169.5l47 335q-29 5 -75 5q-98 0 -167 -75t-104 -193.5t-35 -244.5
q0 -209 89 -209q47 0 95 62zM1121 1614l-18 -219h-597l18 219h597z" />
    <glyph glyph-name="Abreve" unicode="&#x102;" horiz-adv-x="1345" 
d="M907 286h-523l-117 -286l-390 -1l740 1531h450l227 -1530l-355 -1zM879 527l-76 675l-6 119l-39 -119l-276 -675h397zM525 1972.5q4 27.5 8 41.5h188q-4 -28 -4 -45q0 -43 12 -68t43 -38t89 -13q80 0 115.5 45t47.5 119h184q1 -11 1 -34q0 -85 -39.5 -164.5t-122 -131
t-202.5 -51.5q-172 0 -248 76.5t-76 219.5q0 16 4 43.5z" />
    <glyph glyph-name="abreve" unicode="&#x103;" horiz-adv-x="1268" 
d="M1205 1156l-161 -1156h-320l12 248q-50 -110 -133.5 -187t-196.5 -77q-177 0 -256.5 118.5t-79.5 309.5t80.5 361.5t240 276.5t382.5 106q58 0 127 -13.5t121 -31.5zM626 286q48 62 87.5 150.5t62.5 169.5l47 335q-29 5 -75 5q-98 0 -167 -75t-104 -193.5t-35 -244.5
q0 -209 89 -209q47 0 95 62zM500 1639.5q4 27.5 8 41.5h188q-4 -28 -4 -45q0 -43 12 -68t43 -38t89 -13q80 0 115.5 45t47.5 119h184q1 -11 1 -34q0 -85 -39.5 -164.5t-122 -131t-202.5 -51.5q-172 0 -248 76.5t-76 219.5q0 16 4 43.5z" />
    <glyph glyph-name="Aogonek" unicode="&#x104;" horiz-adv-x="1357" 
d="M1145.5 -261.5q34.5 15.5 78.5 49.5l41 -175q-61 -63 -141 -93t-188 -30q-63 0 -111.5 26.5t-75 70.5t-26.5 97q0 66 45.5 130t109.5 112.5t119 72.5h-46l-32 287h-523l-117 -286l-390 -1l740 1531h450l227 -1530h-56q-105 -43 -175.5 -100.5t-70.5 -104.5
q0 -40 17.5 -56t49.5 -16q40 0 74.5 15.5zM891 527l-76 675l-6 119l-39 -119l-276 -675h397z" />
    <glyph glyph-name="aogonek" unicode="&#x105;" horiz-adv-x="1268" 
d="M939.5 -261.5q34.5 15.5 78.5 49.5l41 -175q-61 -63 -141 -93t-188 -30q-63 0 -111.5 26.5t-75 70.5t-26.5 97q0 67 46 131t110.5 113t119.5 72h-69l12 248q-50 -110 -133.5 -187t-196.5 -77q-177 0 -256.5 118.5t-79.5 309.5t80.5 361.5t240 276.5t382.5 106
q58 0 127 -13.5t121 -31.5l184 45l-161 -1156q-105 -43 -175.5 -100.5t-70.5 -104.5q0 -40 17.5 -56t49.5 -16q40 0 74.5 15.5zM626 286q48 62 87.5 150.5t62.5 169.5l47 335q-29 5 -75 5q-98 0 -167 -75t-104 -193.5t-35 -244.5q0 -209 89 -209q47 0 95 62z" />
    <glyph glyph-name="Cacute" unicode="&#x106;" horiz-adv-x="1192" 
d="M1066.5 1529.5q70.5 -16.5 127.5 -39.5l53 -14l-102 -335q-46 41 -117.5 73.5t-169.5 32.5q-142 0 -235 -88.5t-136 -229.5t-43 -304q0 -182 64.5 -268t210.5 -86q89 0 175.5 28.5t132.5 61.5l46 -249q-27 -21 -94.5 -51t-161 -53.5t-192.5 -23.5q-197 0 -318 89.5
t-172.5 233t-51.5 317.5q0 249 103.5 460.5t289 336.5t419.5 125q101 0 171.5 -16.5zM1039 2014l210 -187q-25 -48 -88 -105.5t-135.5 -105.5t-122.5 -66l-143 122z" />
    <glyph glyph-name="cacute" unicode="&#x107;" horiz-adv-x="956" 
d="M935 1774l209 -200q-18 -34 -98 -110.5t-172 -146t-149 -91.5l-124 99zM832 1143.5q79 -12.5 121 -30.5l-86 -342q-30 30 -89.5 68.5t-109.5 38.5q-63 0 -115 -42t-83.5 -127.5t-31.5 -210.5q0 -91 13.5 -146.5t45 -83t87.5 -27.5q40 0 86 18t86 45t63 52l89 -171
q-52 -80 -158.5 -140.5t-261.5 -60.5q-146 0 -238.5 66t-134 170t-41.5 222q0 207 80 369.5t221.5 253.5t319.5 91q58 0 137 -12.5z" />
    <glyph glyph-name="Ccircumflex" unicode="&#x108;" horiz-adv-x="1192" 
d="M1066.5 1529.5q70.5 -16.5 127.5 -39.5l53 -14l-102 -335q-46 41 -117.5 73.5t-169.5 32.5q-142 0 -235 -88.5t-136 -229.5t-43 -304q0 -182 64.5 -268t210.5 -86q89 0 175.5 28.5t132.5 61.5l46 -249q-27 -21 -94.5 -51t-161 -53.5t-192.5 -23.5q-197 0 -318 89.5
t-172.5 233t-51.5 317.5q0 249 103.5 460.5t289 336.5t419.5 125q101 0 171.5 -16.5zM865 2014h180l212 -337l-145 -78l-183 167l-287 -167l-148 67z" />
    <glyph glyph-name="ccircumflex" unicode="&#x109;" horiz-adv-x="956" 
d="M730 1670h180l212 -374l-155 -68l-180 174l-290 -173l-138 67zM832 1143.5q79 -12.5 121 -30.5l-86 -342q-30 30 -89.5 68.5t-109.5 38.5q-63 0 -115 -42t-83.5 -127.5t-31.5 -210.5q0 -91 13.5 -146.5t45 -83t87.5 -27.5q40 0 86 18t86 45t63 52l89 -171
q-52 -80 -158.5 -140.5t-261.5 -60.5q-146 0 -238.5 66t-134 170t-41.5 222q0 207 80 369.5t221.5 253.5t319.5 91q58 0 137 -12.5z" />
    <glyph glyph-name="Cdotaccent" unicode="&#x10a;" horiz-adv-x="1204" 
d="M726.5 1876q26.5 46 74 72.5t109.5 26.5q56 0 97 -21t63 -57t22 -79q0 -58 -25 -104.5t-74 -74t-119 -27.5q-49 0 -88.5 21.5t-62.5 59t-23 82.5q0 55 26.5 101zM1078.5 1529.5q70.5 -16.5 127.5 -39.5l53 -14l-102 -335q-46 41 -117.5 73.5t-169.5 32.5
q-142 0 -235 -88.5t-136 -229.5t-43 -304q0 -182 64.5 -268t210.5 -86q89 0 175.5 28.5t132.5 61.5l46 -249q-27 -21 -94.5 -51t-161 -53.5t-192.5 -23.5q-197 0 -318 89.5t-172.5 233t-51.5 317.5q0 249 103.5 460.5t289 336.5t419.5 125q101 0 171.5 -16.5z" />
    <glyph glyph-name="cdotaccent" unicode="&#x10b;" horiz-adv-x="956" 
d="M832 1143.5q79 -12.5 121 -30.5l-86 -342q-30 30 -89.5 68.5t-109.5 38.5q-63 0 -115 -42t-83.5 -127.5t-31.5 -210.5q0 -91 13.5 -146.5t45 -83t87.5 -27.5q40 0 86 18t86 45t63 52l89 -171q-52 -80 -158.5 -140.5t-261.5 -60.5q-146 0 -238.5 66t-134 170t-41.5 222
q0 207 80 369.5t221.5 253.5t319.5 91q58 0 137 -12.5zM602.5 1579q26.5 47 74.5 74.5t109 27.5q52 0 92 -22t62.5 -59t22.5 -81q0 -58 -25 -104.5t-74 -74t-119 -27.5q-44 0 -83 22t-62.5 59.5t-23.5 82.5q0 55 26.5 102z" />
    <glyph glyph-name="Ccaron" unicode="&#x10c;" horiz-adv-x="1192" 
d="M1066.5 1529.5q70.5 -16.5 127.5 -39.5l53 -14l-102 -335q-46 41 -117.5 73.5t-169.5 32.5q-142 0 -235 -88.5t-136 -229.5t-43 -304q0 -182 64.5 -268t210.5 -86q89 0 175.5 28.5t132.5 61.5l46 -249q-27 -21 -94.5 -51t-161 -53.5t-192.5 -23.5q-197 0 -318 89.5
t-172.5 233t-51.5 317.5q0 249 103.5 460.5t289 336.5t419.5 125q101 0 171.5 -16.5zM675 2014l183 -177l287 177l148 -67l-371 -348h-180l-212 337z" />
    <glyph glyph-name="ccaron" unicode="&#x10d;" horiz-adv-x="956" 
d="M543 1700l213 -190l276 189l148 -67l-372 -374h-179l-212 374zM832 1143.5q79 -12.5 121 -30.5l-86 -342q-30 30 -89.5 68.5t-109.5 38.5q-63 0 -115 -42t-83.5 -127.5t-31.5 -210.5q0 -91 13.5 -146.5t45 -83t87.5 -27.5q40 0 86 18t86 45t63 52l89 -171
q-52 -80 -158.5 -140.5t-261.5 -60.5q-146 0 -238.5 66t-134 170t-41.5 222q0 207 80 369.5t221.5 253.5t319.5 91q58 0 137 -12.5z" />
    <glyph glyph-name="Dcaron" unicode="&#x10e;" horiz-adv-x="1435" 
d="M706 2014l183 -177l287 177l148 -67l-371 -348h-180l-212 337zM1288 1384q139 -162 139 -452q0 -256 -94.5 -472t-285.5 -346t-466 -130q-46 0 -144 7l-24 1q-124 8 -185 8h-144l219 1530h156q40 0 186 8q154 8 201 8q303 0 442 -162zM870.5 335.5q97.5 92.5 145 249.5
t47.5 352q0 137 -30.5 212.5t-93 105.5t-166.5 30q-34 0 -79 -3.5t-74 -9.5l-144 -1007q63 -22 155 -22q142 0 239.5 92.5z" />
    <glyph glyph-name="dcaron" unicode="&#x10f;" horiz-adv-x="1600" 
d="M1264 1634l-211 -1634h-319l15 279q-48 -119 -134.5 -207t-208.5 -88q-177 0 -256.5 118.5t-79.5 309.5t80.5 361.5t240 276.5t382.5 106q40 0 80 -6l67 484h344zM629.5 292.5q49.5 64.5 89 155.5t61.5 172l44 317q-33 9 -76 9q-98 0 -167 -75t-104 -193.5t-35 -244.5
q0 -205 89 -205q49 0 98.5 64.5zM1413.5 1222q11.5 84 11.5 169q0 165 -24 201l19 42l229 48q19 -19 29 -72t10 -117q0 -125 -39 -254.5t-108 -201.5l-151 28l-6 25q18 48 29.5 132z" />
    <glyph glyph-name="Dcroat" unicode="&#x110;" horiz-adv-x="1438" 
d="M1289 1386q139 -162 139 -452q0 -256 -94.5 -472t-285.5 -346t-466 -130q-46 0 -144 7l-24 1q-124 8 -185 8h-144l96 671h-152l25 251h163l87 608h156q40 0 186 8q154 8 201 8q303 0 442 -162zM871.5 337.5q97.5 92.5 145 249.5t47.5 352q0 137 -30.5 212.5t-93 105.5
t-166.5 30q-34 0 -79 -3.5t-74 -9.5l-50 -350h294l-26 -251h-304l-58 -406q63 -22 155 -22q142 0 239.5 92.5z" />
    <glyph glyph-name="dcroat" unicode="&#x111;" horiz-adv-x="1274" 
d="M1384 1262h-168l-163 -1262h-319l15 279q-48 -119 -134.5 -207t-208.5 -88q-177 0 -256.5 118.5t-79.5 309.5t80.5 361.5t240 276.5t382.5 106q40 0 80 -6l16 112h-227l16 130h229l33 242h344l-31 -242h167zM629.5 292.5q49.5 64.5 89 155.5t61.5 172l44 317q-33 9 -76 9
q-98 0 -167 -75t-104 -193.5t-35 -244.5q0 -205 89 -205q49 0 98.5 64.5z" />
    <glyph glyph-name="Emacron" unicode="&#x112;" horiz-adv-x="1204" 
d="M1084 1916l-20 -209h-577l20 209h577zM1205 1530l-37 -275l-562 2l-48 -337l419 5l-36 -276l-421 9l-55 -388l633 10l-37 -280h-989l219 1530h914z" />
    <glyph glyph-name="emacron" unicode="&#x113;" horiz-adv-x="1112" 
d="M972 1087q84 -69 84 -194q0 -142 -78.5 -240.5t-210.5 -160.5t-318 -109q0 -79 31 -118t114 -39q60 0 125 26t118.5 64.5t79.5 72.5l92 -171q-34 -49 -105.5 -103t-174.5 -92.5t-223 -38.5q-148 0 -245 63t-142.5 166.5t-45.5 228.5q0 203 85.5 366.5t232.5 255.5t325 92
q172 0 256 -69zM694.5 936q-17.5 24 -57.5 24q-59 0 -102 -66.5t-66 -160.5t-25 -172q60 4 122.5 45.5t104 108.5t41.5 144q0 53 -17.5 77zM1041 1614l-18 -219h-597l18 219h597z" />
    <glyph glyph-name="Ebreve" unicode="&#x114;" horiz-adv-x="1204" 
d="M463 1972.5q4 27.5 8 41.5h188q-4 -28 -4 -45q0 -43 12 -68t43 -38t89 -13q80 0 115.5 45t47.5 119h184q1 -11 1 -34q0 -85 -39.5 -164.5t-122 -131t-202.5 -51.5q-172 0 -248 76.5t-76 219.5q0 16 4 43.5zM1205 1530l-37 -275l-562 2l-48 -337l419 5l-36 -276l-421 9
l-55 -388l633 10l-37 -280h-989l219 1530h914z" />
    <glyph glyph-name="ebreve" unicode="&#x115;" horiz-adv-x="1112" 
d="M972 1087q84 -69 84 -194q0 -142 -78.5 -240.5t-210.5 -160.5t-318 -109q0 -79 31 -118t114 -39q60 0 125 26t118.5 64.5t79.5 72.5l92 -171q-34 -49 -105.5 -103t-174.5 -92.5t-223 -38.5q-148 0 -245 63t-142.5 166.5t-45.5 228.5q0 203 85.5 366.5t232.5 255.5t325 92
q172 0 256 -69zM694.5 936q-17.5 24 -57.5 24q-59 0 -102 -66.5t-66 -160.5t-25 -172q60 4 122.5 45.5t104 108.5t41.5 144q0 53 -17.5 77zM420 1639.5q4 27.5 8 41.5h188q-4 -28 -4 -45q0 -43 12 -68t43 -38t89 -13q80 0 115.5 45t47.5 119h184q1 -11 1 -34
q0 -85 -39.5 -164.5t-122 -131t-202.5 -51.5q-172 0 -248 76.5t-76 219.5q0 16 4 43.5z" />
    <glyph glyph-name="Edotaccent" unicode="&#x116;" horiz-adv-x="1204" 
d="M615.5 1876q26.5 46 74 72.5t109.5 26.5q56 0 97 -21t63 -57t22 -79q0 -58 -25 -104.5t-74 -74t-119 -27.5q-49 0 -88.5 21.5t-62.5 59t-23 82.5q0 55 26.5 101zM1205 1530l-37 -275l-562 2l-48 -337l419 5l-36 -276l-421 9l-55 -388l633 10l-37 -280h-989l219 1530h914z
" />
    <glyph glyph-name="edotaccent" unicode="&#x117;" horiz-adv-x="1112" 
d="M972 1087q84 -69 84 -194q0 -142 -78.5 -240.5t-210.5 -160.5t-318 -109q0 -79 31 -118t114 -39q60 0 125 26t118.5 64.5t79.5 72.5l92 -171q-34 -49 -105.5 -103t-174.5 -92.5t-223 -38.5q-148 0 -245 63t-142.5 166.5t-45.5 228.5q0 203 85.5 366.5t232.5 255.5t325 92
q172 0 256 -69zM694.5 936q-17.5 24 -57.5 24q-59 0 -102 -66.5t-66 -160.5t-25 -172q60 4 122.5 45.5t104 108.5t41.5 144q0 53 -17.5 77zM587.5 1579q26.5 47 74.5 74.5t109 27.5q52 0 92 -22t62.5 -59t22.5 -81q0 -58 -25 -104.5t-74 -74t-119 -27.5q-44 0 -83 22
t-62.5 59.5t-23.5 82.5q0 55 26.5 102z" />
    <glyph glyph-name="Eogonek" unicode="&#x118;" horiz-adv-x="1216" 
d="M618 1257l-48 -337l419 5l-36 -276l-421 9l-55 -388l633 10l-37 -279l7 -1q-105 -43 -175.5 -100.5t-70.5 -104.5q0 -40 17.5 -56t49.5 -16q40 0 74.5 15.5t78.5 49.5l41 -175q-61 -63 -141 -93t-188 -30q-63 0 -111.5 26.5t-75 70.5t-26.5 97q0 67 46 131t110.5 113
t119.5 72h-745l219 1530h914l-37 -275z" />
    <glyph glyph-name="eogonek" unicode="&#x119;" horiz-adv-x="1112" 
d="M719 252q65 26 118.5 64.5t79.5 72.5l92 -171q-26 -37 -74.5 -79t-112.5 -76q-61 -37 -123 -88.5t-102.5 -100.5t-40.5 -79q0 -40 17.5 -56t49.5 -16q40 0 74.5 15.5t78.5 49.5l41 -175q-61 -63 -141 -93t-188 -30q-63 0 -111.5 26.5t-75 70.5t-26.5 97q0 60 38 118.5
t93.5 105t111.5 76.5h-12q-148 0 -245 63t-142.5 166.5t-45.5 228.5q0 203 85.5 366.5t232.5 255.5t325 92q172 0 256 -69t84 -194q0 -142 -78.5 -240.5t-210.5 -160.5t-318 -109q0 -79 31 -118t114 -39q60 0 125 26zM535 893.5q-43 -66.5 -66 -160.5t-25 -172
q60 4 122.5 45.5t104 108.5t41.5 144q0 53 -17.5 77t-57.5 24q-59 0 -102 -66.5z" />
    <glyph glyph-name="Ecaron" unicode="&#x11a;" horiz-adv-x="1204" 
d="M576 2014l183 -177l287 177l148 -67l-371 -348h-180l-212 337zM1205 1530l-37 -275l-562 2l-48 -337l419 5l-36 -276l-421 9l-55 -388l633 10l-37 -280h-989l219 1530h914z" />
    <glyph glyph-name="ecaron" unicode="&#x11b;" horiz-adv-x="1112" 
d="M528 1700l213 -190l276 189l148 -67l-372 -374h-179l-212 374zM972 1087q84 -69 84 -194q0 -142 -78.5 -240.5t-210.5 -160.5t-318 -109q0 -79 31 -118t114 -39q60 0 125 26t118.5 64.5t79.5 72.5l92 -171q-34 -49 -105.5 -103t-174.5 -92.5t-223 -38.5q-148 0 -245 63
t-142.5 166.5t-45.5 228.5q0 203 85.5 366.5t232.5 255.5t325 92q172 0 256 -69zM694.5 936q-17.5 24 -57.5 24q-59 0 -102 -66.5t-66 -160.5t-25 -172q60 4 122.5 45.5t104 108.5t41.5 144q0 53 -17.5 77z" />
    <glyph glyph-name="Gcircumflex" unicode="&#x11c;" horiz-adv-x="1427" 
d="M759 850h576l-107 -771q-46 -5 -109 -23q-115 -32 -218 -52t-224 -20q-215 0 -350 89t-194.5 230t-58.5 304q0 274 107.5 488t293 332.5t409.5 118.5q125 0 211 -16t158 -40l95 -33l-74 -322q-29 22 -89.5 50.5t-142 50t-166.5 21.5q-158 0 -257.5 -94.5t-142.5 -238.5
t-43 -300q0 -183 74 -279t223 -96q47 0 105.5 8t93.5 25l45 288h-248zM923 2014h180l212 -337l-145 -78l-183 167l-287 -167l-148 67z" />
    <glyph glyph-name="gcircumflex" unicode="&#x11d;" horiz-adv-x="1269" 
d="M798 1670h180l212 -374l-155 -68l-180 174l-290 -173l-138 67zM1208 1156l-164 -1185q-37 -268 -218 -378t-432 -110q-70 0 -154 15t-117 30l52 255q12 -11 60 -33.5t109.5 -40t116.5 -17.5q101 0 148.5 54t66.5 157l63 354q-50 -113 -133.5 -193t-199.5 -80
q-177 0 -256.5 118.5t-79.5 309.5t80.5 361.5t240 276.5t382.5 106q58 0 127 -13.5t120 -31.5zM626.5 289.5q48.5 61.5 87.5 149t62 169.5l46 334q-31 4 -74 4q-98 0 -167 -75t-104 -193.5t-35 -244.5q0 -205 89 -205q47 0 95.5 61.5z" />
    <glyph glyph-name="Gbreve" unicode="&#x11e;" horiz-adv-x="1439" 
d="M632 1972.5q4 27.5 8 41.5h188q-4 -28 -4 -45q0 -43 12 -68t43 -38t89 -13q80 0 115.5 45t47.5 119h184q1 -11 1 -34q0 -85 -39.5 -164.5t-122 -131t-202.5 -51.5q-172 0 -248 76.5t-76 219.5q0 16 4 43.5zM771 850h576l-107 -771q-46 -5 -109 -23q-115 -32 -218 -52
t-224 -20q-215 0 -350 89t-194.5 230t-58.5 304q0 274 107.5 488t293 332.5t409.5 118.5q125 0 211 -16t158 -40l95 -33l-74 -322q-29 22 -89.5 50.5t-142 50t-166.5 21.5q-158 0 -257.5 -94.5t-142.5 -238.5t-43 -300q0 -183 74 -279t223 -96q47 0 105.5 8t93.5 25l45 288
h-248z" />
    <glyph glyph-name="gbreve" unicode="&#x11f;" horiz-adv-x="1269" 
d="M1208 1156l-164 -1185q-37 -268 -218 -378t-432 -110q-70 0 -154 15t-117 30l52 255q12 -11 60 -33.5t109.5 -40t116.5 -17.5q101 0 148.5 54t66.5 157l63 354q-50 -113 -133.5 -193t-199.5 -80q-177 0 -256.5 118.5t-79.5 309.5t80.5 361.5t240 276.5t382.5 106
q58 0 127 -13.5t120 -31.5zM626.5 289.5q48.5 61.5 87.5 149t62 169.5l46 334q-31 4 -74 4q-98 0 -167 -75t-104 -193.5t-35 -244.5q0 -205 89 -205q47 0 95.5 61.5zM503 1639.5q4 27.5 8 41.5h188q-4 -28 -4 -45q0 -43 12 -68t43 -38t89 -13q80 0 115.5 45t47.5 119h184
q1 -11 1 -34q0 -85 -39.5 -164.5t-122 -131t-202.5 -51.5q-172 0 -248 76.5t-76 219.5q0 16 4 43.5z" />
    <glyph glyph-name="Gdotaccent" unicode="&#x120;" horiz-adv-x="1439" 
d="M784.5 1876q26.5 46 74 72.5t109.5 26.5q56 0 97 -21t63 -57t22 -79q0 -58 -25 -104.5t-74 -74t-119 -27.5q-49 0 -88.5 21.5t-62.5 59t-23 82.5q0 55 26.5 101zM771 850h576l-107 -771q-46 -5 -109 -23q-115 -32 -218 -52t-224 -20q-215 0 -350 89t-194.5 230t-58.5 304
q0 274 107.5 488t293 332.5t409.5 118.5q125 0 211 -16t158 -40l95 -33l-74 -322q-29 22 -89.5 50.5t-142 50t-166.5 21.5q-158 0 -257.5 -94.5t-142.5 -238.5t-43 -300q0 -183 74 -279t223 -96q47 0 105.5 8t93.5 25l45 288h-248z" />
    <glyph glyph-name="gdotaccent" unicode="&#x121;" horiz-adv-x="1269" 
d="M1208 1156l-164 -1185q-37 -268 -218 -378t-432 -110q-70 0 -154 15t-117 30l52 255q12 -11 60 -33.5t109.5 -40t116.5 -17.5q101 0 148.5 54t66.5 157l63 354q-50 -113 -133.5 -193t-199.5 -80q-177 0 -256.5 118.5t-79.5 309.5t80.5 361.5t240 276.5t382.5 106
q58 0 127 -13.5t120 -31.5zM626.5 289.5q48.5 61.5 87.5 149t62 169.5l46 334q-31 4 -74 4q-98 0 -167 -75t-104 -193.5t-35 -244.5q0 -205 89 -205q47 0 95.5 61.5zM670.5 1579q26.5 47 74.5 74.5t109 27.5q52 0 92 -22t62.5 -59t22.5 -81q0 -58 -25 -104.5t-74 -74
t-119 -27.5q-44 0 -83 22t-62.5 59.5t-23.5 82.5q0 55 26.5 102z" />
    <glyph glyph-name="Gcommaaccent" unicode="&#x122;" horiz-adv-x="1439" 
d="M598 -141l156 104q45 -9 81.5 -39.5t57 -75.5t20.5 -97q0 -81 -34.5 -148.5t-87.5 -110t-107 -52.5l-101 70l3 26q24 14 46.5 47.5t22.5 81.5q0 38 -19.5 68t-48.5 33zM771 850h576l-107 -771q-46 -5 -109 -23q-115 -32 -218 -52t-224 -20q-215 0 -350 89t-194.5 230
t-58.5 304q0 274 107.5 488t293 332.5t409.5 118.5q125 0 211 -16t158 -40l95 -33l-74 -322q-29 22 -89.5 50.5t-142 50t-166.5 21.5q-158 0 -257.5 -94.5t-142.5 -238.5t-43 -300q0 -183 74 -279t223 -96q47 0 105.5 8t93.5 25l45 288h-248z" />
    <glyph glyph-name="gcommaaccent" unicode="&#x123;" horiz-adv-x="1269" 
d="M697.5 1288.5q-36.5 30.5 -57 75.5t-20.5 97q0 81 34.5 148.5t87.5 110t107 52.5l101 -70l-3 -26q-24 -14 -46.5 -47.5t-22.5 -81.5q0 -38 19.5 -68t48.5 -33l-11 -93l-156 -104q-45 9 -81.5 39.5zM1208 1156l-164 -1185q-37 -268 -218 -378t-432 -110q-70 0 -154 15
t-117 30l52 255q12 -11 60 -33.5t109.5 -40t116.5 -17.5q101 0 148.5 54t66.5 157l63 354q-50 -113 -133.5 -193t-199.5 -80q-177 0 -256.5 118.5t-79.5 309.5t80.5 361.5t240 276.5t382.5 106q58 0 127 -13.5t120 -31.5zM626.5 289.5q48.5 61.5 87.5 149t62 169.5l46 334
q-31 4 -74 4q-98 0 -167 -75t-104 -193.5t-35 -244.5q0 -205 89 -205q47 0 95.5 61.5z" />
    <glyph glyph-name="Hcircumflex" unicode="&#x124;" horiz-adv-x="1500" 
d="M1473 1530l-219 -1530h-358l89 622h-482l-89 -622h-354l219 1530h354l-95 -664h482l95 664h358zM874 2014h180l212 -337l-145 -78l-183 167l-287 -167l-148 67z" />
    <glyph glyph-name="hcircumflex" unicode="&#x125;" horiz-adv-x="1314" 
d="M1125.5 1085.5q70.5 -70.5 70.5 -231.5q0 -32 -10 -114t-30 -229q-12 -92 -39 -273q-26 -187 -33 -238h-357q46 308 70 510q25 204 28 278q3 53 -17.5 76t-63.5 23q-56 0 -118.5 -52t-105.5 -136l-95 -699h-347l220 1634h348l-5 -41l231 217h180l212 -337l-145 -78
l-183 167l-287 -167l-33 15l-45 -338l-29 -150q68 110 165 172t212 62q136 0 206.5 -70.5z" />
    <glyph glyph-name="Hbar" unicode="&#x126;" horiz-adv-x="1512" 
d="M1613 917h-204l-131 -917h-358l63 441h-482l-63 -441h-354l131 917h-216l25 251h227l52 362h354l-52 -362h482l52 362h358l-52 -362h194zM1051 917h-482l-32 -225h482z" />
    <glyph glyph-name="hbar" unicode="&#x127;" horiz-adv-x="1314" 
d="M1125.5 1085.5q70.5 -70.5 70.5 -231.5q0 -32 -10 -114t-30 -229q-12 -92 -39 -273q-26 -187 -33 -238h-357q46 308 70 510q25 204 28 278q3 53 -17.5 76t-63.5 23q-56 0 -118.5 -52t-105.5 -136l-95 -699h-347l170 1262h-122l16 130h123l33 242h348l-32 -242h210
l-16 -130h-212l-25 -190l-29 -150q68 110 165 172t212 62q136 0 206.5 -70.5z" />
    <glyph glyph-name="Itilde" unicode="&#x128;" horiz-adv-x="706" 
d="M671 1530l-219 -1530h-354l219 1530h354zM193.5 1874q52.5 46 115.5 76t116 30q45 0 79 -12t58 -28.5t55 -43.5q35 -31 59.5 -45.5t57.5 -14.5q39 0 69 15.5t50.5 36.5t50.5 58l119 -145q-20 -48 -69.5 -96.5t-112 -80.5t-118.5 -32q-50 0 -87 11.5t-61.5 28t-54.5 42.5
q-38 32 -65 47t-68 15q-45 0 -84 -24.5t-78 -64.5l-106 136q22 45 74.5 91z" />
    <glyph glyph-name="itilde" unicode="&#x129;" 
d="M595 1140l-158 -1140h-357l156 1140h359zM107.5 1593q49.5 46 110 75.5t113.5 29.5q45 0 77.5 -12.5t53.5 -30.5t49 -47q31 -33 53.5 -48.5t55.5 -15.5q35 0 60.5 12.5t43.5 31t42 49.5q-1 -1 14 17l119 -145q-20 -48 -67 -97t-107 -80.5t-116 -31.5q-50 0 -85.5 12.5
t-57.5 30t-49 45.5q-33 34 -58 50t-66 16q-45 0 -77.5 -22.5t-74.5 -66.5l-106 136q23 46 72.5 92z" />
    <glyph glyph-name="Imacron" unicode="&#x12a;" horiz-adv-x="706" 
d="M671 1530l-219 -1530h-354l219 1530h354zM825 1916l-20 -209h-577l20 209h577z" />
    <glyph glyph-name="imacron" unicode="&#x12b;" 
d="M595 1140l-158 -1140h-357l156 1140h359zM770 1614l-18 -219h-597l18 219h597z" />
    <glyph glyph-name="Ibreve" unicode="&#x12c;" horiz-adv-x="706" 
d="M671 1530l-219 -1530h-354l219 1530h354zM204 1972.5q4 27.5 8 41.5h188q-4 -28 -4 -45q0 -43 12 -68t43 -38t89 -13q80 0 115.5 45t47.5 119h184q1 -11 1 -34q0 -85 -39.5 -164.5t-122 -131t-202.5 -51.5q-172 0 -248 76.5t-76 219.5q0 16 4 43.5z" />
    <glyph glyph-name="ibreve" unicode="&#x12d;" 
d="M595 1140l-158 -1140h-357l156 1140h359zM149 1639.5q4 27.5 8 41.5h188q-4 -28 -4 -45q0 -43 12 -68t43 -38t89 -13q80 0 115.5 45t47.5 119h184q1 -11 1 -34q0 -85 -39.5 -164.5t-122 -131t-202.5 -51.5q-172 0 -248 76.5t-76 219.5q0 16 4 43.5z" />
    <glyph glyph-name="Iogonek" unicode="&#x12e;" horiz-adv-x="706" 
d="M185.5 -100.5q-70.5 -57.5 -70.5 -104.5q0 -40 17.5 -56t49.5 -16q40 0 74.5 15.5t78.5 49.5l41 -175q-61 -63 -141 -93t-188 -30q-63 0 -111.5 26.5t-75 70.5t-26.5 97q0 67 46 131t110.5 113t119.5 72h-12l219 1530h354l-219 -1530h-91q-105 -43 -175.5 -100.5z" />
    <glyph glyph-name="iogonek" unicode="&#x12f;" 
d="M638 1659q40 -22 62.5 -59t22.5 -81q0 -58 -25 -104.5t-74 -74t-119 -27.5q-44 0 -83 22t-62.5 59.5t-23.5 82.5q0 55 26.5 102t74.5 74.5t109 27.5q52 0 92 -22zM261.5 -100.5q-70.5 -57.5 -70.5 -104.5q0 -40 17.5 -56t49.5 -16q40 0 74.5 15.5t78.5 49.5l41 -175
q-61 -63 -141 -93t-188 -30q-63 0 -111.5 26.5t-75 70.5t-26.5 97q0 67 46 131t110.5 113t119.5 72h-106l156 1140h359l-158 -1140q-105 -43 -175.5 -100.5z" />
    <glyph glyph-name="Idotaccent" unicode="&#x130;" horiz-adv-x="706" 
d="M671 1530l-219 -1530h-354l219 1530h354zM356.5 1876q26.5 46 74 72.5t109.5 26.5q56 0 97 -21t63 -57t22 -79q0 -58 -25 -104.5t-74 -74t-119 -27.5q-49 0 -88.5 21.5t-62.5 59t-23 82.5q0 55 26.5 101z" />
    <glyph glyph-name="dotlessi" unicode="&#x131;" 
d="M595 1140l-158 -1140h-357l156 1140h359z" />
    <glyph glyph-name="IJ" unicode="&#x132;" horiz-adv-x="1403" 
d="M671 1530l-219 -1530h-354l219 1530h354zM1373 1530q-27 -182 -60.5 -413.5t-48.5 -338.5q-53 -374 -75 -518.5t-33 -184.5q-58 -235 -218.5 -333.5t-367.5 -98.5l-44 118q82 20 141.5 71t94.5 117.5t47 136.5q38 184 72 420.5t81 604.5q41 320 55 419h356z" />
    <glyph glyph-name="ij" unicode="&#x133;" horiz-adv-x="1328" 
d="M595 1140l-158 -1140h-357l156 1140h359zM316.5 1579q26.5 47 74.5 74.5t109 27.5q52 0 92 -22t62.5 -59t22.5 -81q0 -58 -25 -104.5t-74 -74t-119 -27.5q-44 0 -83 22t-62.5 59.5t-23.5 82.5q0 55 26.5 102zM1259 1140l-158 -1140q-23 -168 -100.5 -287t-190 -180
t-240.5 -61q-61 0 -109.5 8.5t-70.5 25.5l88 181q13 -9 38 -9q84 0 130.5 50.5t66.5 126.5t40 210l147 1075h359zM976.5 1579q26.5 47 74.5 74.5t109 27.5q52 0 92 -22t62.5 -59t22.5 -81q0 -58 -25 -104.5t-74 -74t-119 -27.5q-44 0 -83 22t-62.5 59.5t-23.5 82.5
q0 55 26.5 102z" />
    <glyph glyph-name="Jcircumflex" unicode="&#x134;" horiz-adv-x="697" 
d="M667 1530q-27 -182 -60.5 -413.5t-48.5 -338.5q-53 -374 -75 -518.5t-33 -184.5q-58 -235 -218.5 -333.5t-367.5 -98.5l-44 118q82 20 141.5 71t94.5 117.5t47 136.5q38 184 72 420.5t81 604.5q41 320 55 419h356zM485 2014h180l212 -337l-145 -78l-183 167l-287 -167
l-148 67z" />
    <glyph glyph-name="jcircumflex" unicode="&#x135;" 
d="M595 1140l-158 -1140q-23 -168 -100.5 -287t-190 -180t-240.5 -61q-61 0 -109.5 8.5t-70.5 25.5l88 181q13 -9 38 -9q84 0 130.5 50.5t66.5 126.5t40 210l147 1075h359zM440 1670h180l212 -374l-155 -68l-180 174l-290 -173l-138 67z" />
    <glyph glyph-name="Kcommaaccent" unicode="&#x136;" horiz-adv-x="1349" 
d="M495 -139l156 104q45 -9 81.5 -39.5t57 -75.5t20.5 -97q0 -81 -34.5 -148.5t-87.5 -110t-107 -52.5l-101 70l3 26q24 14 46.5 47.5t22.5 81.5q0 38 -19.5 68t-48.5 33zM1052 531l94 -188q110 -218 190 -344l-417 2q-19 28 -140 305l-126 292l-154 -171l-61 -427h-354
l219 1530h354l-95 -662l526 662h404l-606 -673q48 -90 166 -326z" />
    <glyph glyph-name="kcommaaccent" unicode="&#x137;" horiz-adv-x="1226" 
d="M470 -141l156 104q45 -9 81.5 -39.5t57 -75.5t20.5 -97q0 -81 -34.5 -148.5t-87.5 -110t-107 -52.5l-101 70l3 26q24 14 46.5 47.5t22.5 81.5q0 38 -19.5 68t-48.5 33zM647 1634l-221 -1634h-348l220 1634h349zM1047 760q-86 -91 -172 -138l324 -622h-408l-248 630l3 1
h-3q64 35 110.5 83.5t81.5 108t74 145.5q37 86 59 172h353q-4 -83 -40 -171q-48 -118 -134 -209z" />
    <glyph glyph-name="kgreenlandic" unicode="&#x138;" horiz-adv-x="1225" 
d="M588 1140l-155 -1140h-357l155 1140h357zM1046 760.5q-85 -91.5 -171 -138.5l321 -622h-385l-268 630l3 1h-3q64 35 110 83.5t80 107.5t74 146q37 86 59 172h353q-4 -83 -40 -171q-48 -117 -133 -208.5z" />
    <glyph glyph-name="Lacute" unicode="&#x139;" horiz-adv-x="1080" 
d="M700 2016l210 -187q-25 -48 -88 -105.5t-135.5 -105.5t-122.5 -66l-143 122zM657 1530l-180 -1253l497 11l-42 -288h-848l219 1530h354z" />
    <glyph glyph-name="lacute" unicode="&#x13a;" horiz-adv-x="665" 
d="M613 2014l210 -187q-25 -48 -88 -105.5t-135.5 -105.5t-122.5 -66l-143 122zM648 1530l-208 -1530h-357l206 1530h359z" />
    <glyph glyph-name="Lcommaaccent" unicode="&#x13b;" horiz-adv-x="1080" 
d="M307 -139l156 104q45 -9 81.5 -39.5t57 -75.5t20.5 -97q0 -81 -34.5 -148.5t-87.5 -110t-107 -52.5l-101 70l3 26q24 14 46.5 47.5t22.5 81.5q0 38 -19.5 68t-48.5 33zM657 1530l-180 -1253l497 11l-42 -288h-848l219 1530h354z" />
    <glyph glyph-name="lcommaaccent" unicode="&#x13c;" horiz-adv-x="665" 
d="M65 -141l156 104q45 -9 81.5 -39.5t57 -75.5t20.5 -97q0 -81 -34.5 -148.5t-87.5 -110t-107 -52.5l-101 70l3 26q24 14 46.5 47.5t22.5 81.5q0 38 -19.5 68t-48.5 33zM662 1634l-222 -1634h-357l220 1634h359z" />
    <glyph glyph-name="Lcaron" unicode="&#x13d;" horiz-adv-x="1080" 
d="M645 1530l-180 -1253l497 11l-42 -288h-848l219 1530h354zM871.5 1192q11.5 84 11.5 169q0 165 -24 201l19 42l229 48q19 -19 29 -72t10 -117q0 -125 -39 -254.5t-108 -201.5l-151 28l-6 25q18 48 29.5 132z" />
    <glyph glyph-name="lcaron" unicode="&#x13e;" horiz-adv-x="842" 
d="M662 1634l-222 -1634h-357l220 1634h359zM786.5 1192q11.5 84 11.5 169q0 165 -24 201l19 42l229 48q19 -19 29 -72t10 -117q0 -125 -39 -254.5t-108 -201.5l-151 28l-6 25q18 48 29.5 132z" />
    <glyph glyph-name="Ldot" unicode="&#x13f;" horiz-adv-x="1176" 
d="M645 1530l-180 -1253l497 11l-42 -288h-848l219 1530h354zM1134 1072.5q39 -41.5 39 -107.5q0 -65 -26.5 -114.5t-74.5 -76.5t-112 -27q-72 0 -114 42t-42 110q0 57 25.5 106t73 79t109.5 30q83 0 122 -41.5z" />
    <glyph glyph-name="ldot" unicode="&#x140;" horiz-adv-x="895" 
d="M662 1634l-222 -1634h-357l220 1634h359zM964 949.5q39 -41.5 39 -107.5q0 -65 -26.5 -114.5t-74.5 -76.5t-112 -27q-72 0 -114 42t-42 110q0 57 25.5 106t73 79t109.5 30q83 0 122 -41.5z" />
    <glyph glyph-name="Lslash" unicode="&#x141;" horiz-adv-x="1080" 
d="M477 279l497 11l-42 -288h-848l77 537l-134 -46l-58 184l223 78l111 777h354l-93 -646l363 127l57 -193l-451 -154z" />
    <glyph glyph-name="lslash" unicode="&#x142;" horiz-adv-x="665" 
d="M761 939l-204 -81l-117 -858h-357l95 708l-167 -66v197l196 80l96 715h359l-76 -560l175 72v-207z" />
    <glyph glyph-name="Nacute" unicode="&#x143;" horiz-adv-x="1512" 
d="M1037 2014l210 -187q-25 -48 -88 -105.5t-135.5 -105.5t-122.5 -66l-143 122zM610 1530l356 -792l79 -260l13 260l97 792h342l-219 -1530h-297l-348 833l-99 275l3 -275l-115 -833h-338l219 1530h307z" />
    <glyph glyph-name="nacute" unicode="&#x144;" horiz-adv-x="1319" 
d="M1053 1774l209 -200q-18 -34 -98 -110.5t-172 -146t-149 -91.5l-124 99zM1135.5 1085.5q70.5 -70.5 70.5 -231.5q0 -32 -10 -114t-30 -229q-12 -92 -39 -273q-26 -187 -33 -238h-357q46 308 70 510q25 204 28 278q3 53 -17.5 76t-63.5 23q-56 0 -118.5 -52t-105.5 -136
l-97 -699h-357l156 1140h341l-13 -206q68 104 162.5 163t206.5 59q136 0 206.5 -70.5z" />
    <glyph glyph-name="Ncommaaccent" unicode="&#x145;" horiz-adv-x="1512" 
d="M552 -141l156 104q45 -9 81.5 -39.5t57 -75.5t20.5 -97q0 -81 -34.5 -148.5t-87.5 -110t-107 -52.5l-101 70l3 26q24 14 46.5 47.5t22.5 81.5q0 38 -19.5 68t-48.5 33zM610 1530l356 -792l79 -260l13 260l97 792h342l-219 -1530h-297l-348 833l-99 275l3 -275l-115 -833
h-338l219 1530h307z" />
    <glyph glyph-name="ncommaaccent" unicode="&#x146;" horiz-adv-x="1319" 
d="M425 -141l156 104q45 -9 81.5 -39.5t57 -75.5t20.5 -97q0 -81 -34.5 -148.5t-87.5 -110t-107 -52.5l-101 70l3 26q24 14 46.5 47.5t22.5 81.5q0 38 -19.5 68t-48.5 33zM1135.5 1085.5q70.5 -70.5 70.5 -231.5q0 -32 -10 -114t-30 -229q-12 -92 -39 -273
q-26 -187 -33 -238h-357q46 308 70 510q25 204 28 278q3 53 -17.5 76t-63.5 23q-56 0 -118.5 -52t-105.5 -136l-97 -699h-357l156 1140h341l-13 -206q68 104 162.5 163t206.5 59q136 0 206.5 -70.5z" />
    <glyph glyph-name="Ncaron" unicode="&#x147;" horiz-adv-x="1512" 
d="M693 2014l183 -177l287 177l148 -67l-371 -348h-180l-212 337zM610 1530l356 -792l79 -260l13 260l97 792h342l-219 -1530h-297l-348 833l-99 275l3 -275l-115 -833h-338l219 1530h307z" />
    <glyph glyph-name="ncaron" unicode="&#x148;" horiz-adv-x="1319" 
d="M661 1700l213 -190l276 189l148 -67l-372 -374h-179l-212 374zM1135.5 1085.5q70.5 -70.5 70.5 -231.5q0 -32 -10 -114t-30 -229q-12 -92 -39 -273q-26 -187 -33 -238h-357q46 308 70 510q25 204 28 278q3 53 -17.5 76t-63.5 23q-56 0 -118.5 -52t-105.5 -136l-97 -699
h-357l156 1140h341l-13 -206q68 104 162.5 163t206.5 59q136 0 206.5 -70.5z" />
    <glyph glyph-name="Eng" unicode="&#x14a;" horiz-adv-x="1512" 
d="M1497 1530l-219 -1530q-18 -101 -91.5 -191t-199 -150.5t-292.5 -72.5l-57 128q114 46 180.5 94t98.5 104.5t44 134.5l-328 786l-99 275l3 -275l-115 -833h-338l219 1530h307l356 -792l79 -260l13 260l97 792h342z" />
    <glyph glyph-name="eng" unicode="&#x14b;" horiz-adv-x="1322" 
d="M1135.5 1085.5q70.5 -70.5 70.5 -231.5q0 -69 -40 -365t-72 -489q-36 -213 -99.5 -327t-162 -157.5t-256.5 -43.5q-61 0 -121 10t-75 27l38 121q12 -5 37 -8.5t37 -3.5q76 0 123.5 42t75 123.5t46.5 216.5l5 34q41 289 64.5 471t28.5 283q3 53 -17.5 76t-63.5 23
q-56 0 -118.5 -52t-105.5 -136l-97 -699h-357l156 1140h341l-13 -206q68 104 162.5 163t206.5 59q136 0 206.5 -70.5z" />
    <glyph glyph-name="Omacron" unicode="&#x14c;" horiz-adv-x="1394" 
d="M1192 1916l-20 -209h-577l20 209h577zM157.5 1063q91.5 221 263 352t400.5 131q175 0 297.5 -80t184 -216.5t61.5 -303.5q0 -263 -90.5 -483t-260 -349.5t-395.5 -129.5q-178 0 -302.5 79t-187 213.5t-62.5 301.5q0 264 91.5 485zM975.5 1140.5q-24.5 75.5 -71.5 107.5
t-121 32q-106 0 -186.5 -104t-123.5 -263t-43 -317q0 -130 24.5 -206t71.5 -108t120 -32q106 0 186.5 102.5t124 261t43.5 321.5q0 130 -24.5 205.5z" />
    <glyph glyph-name="omacron" unicode="&#x14d;" horiz-adv-x="1181" 
d="M1049 1614l-18 -219h-597l18 219h597zM937 1091q93 -65 136 -174t43 -246q0 -187 -72.5 -343.5t-216 -250t-346.5 -93.5q-143 0 -236 65t-136.5 174t-43.5 246q0 187 73 343.5t216.5 250t346.5 93.5q143 0 236 -65zM658.5 272.5q51.5 74.5 75.5 190t24 242.5
q0 126 -27.5 181.5t-82.5 55.5q-76 0 -128 -77.5t-76.5 -196t-24.5 -239.5q0 -231 110 -231q78 0 129.5 74.5z" />
    <glyph glyph-name="Obreve" unicode="&#x14e;" horiz-adv-x="1394" 
d="M571 1972.5q4 27.5 8 41.5h188q-4 -28 -4 -45q0 -43 12 -68t43 -38t89 -13q80 0 115.5 45t47.5 119h184q1 -11 1 -34q0 -85 -39.5 -164.5t-122 -131t-202.5 -51.5q-172 0 -248 76.5t-76 219.5q0 16 4 43.5zM157.5 1063q91.5 221 263 352t400.5 131q175 0 297.5 -80
t184 -216.5t61.5 -303.5q0 -263 -90.5 -483t-260 -349.5t-395.5 -129.5q-178 0 -302.5 79t-187 213.5t-62.5 301.5q0 264 91.5 485zM975.5 1140.5q-24.5 75.5 -71.5 107.5t-121 32q-106 0 -186.5 -104t-123.5 -263t-43 -317q0 -130 24.5 -206t71.5 -108t120 -32
q106 0 186.5 102.5t124 261t43.5 321.5q0 130 -24.5 205.5z" />
    <glyph glyph-name="obreve" unicode="&#x14f;" horiz-adv-x="1181" 
d="M937 1091q93 -65 136 -174t43 -246q0 -187 -72.5 -343.5t-216 -250t-346.5 -93.5q-143 0 -236 65t-136.5 174t-43.5 246q0 187 73 343.5t216.5 250t346.5 93.5q143 0 236 -65zM658.5 272.5q51.5 74.5 75.5 190t24 242.5q0 126 -27.5 181.5t-82.5 55.5q-76 0 -128 -77.5
t-76.5 -196t-24.5 -239.5q0 -231 110 -231q78 0 129.5 74.5zM428 1639.5q4 27.5 8 41.5h188q-4 -28 -4 -45q0 -43 12 -68t43 -38t89 -13q80 0 115.5 45t47.5 119h184q1 -11 1 -34q0 -85 -39.5 -164.5t-122 -131t-202.5 -51.5q-172 0 -248 76.5t-76 219.5q0 16 4 43.5z" />
    <glyph glyph-name="Ohungarumlaut" unicode="&#x150;" horiz-adv-x="1394" 
d="M157.5 1063q91.5 221 263 352t400.5 131q175 0 297.5 -80t184 -216.5t61.5 -303.5q0 -263 -90.5 -483t-260 -349.5t-395.5 -129.5q-178 0 -302.5 79t-187 213.5t-62.5 301.5q0 264 91.5 485zM975.5 1140.5q-24.5 75.5 -71.5 107.5t-121 32q-106 0 -186.5 -104
t-123.5 -263t-43 -317q0 -130 24.5 -206t71.5 -108t120 -32q106 0 186.5 102.5t124 261t43.5 321.5q0 130 -24.5 205.5zM764 2014l183 -143q-25 -56 -85 -122.5t-131.5 -119t-127.5 -70.5l-123 86zM1259 2014l180 -144q-36 -60 -94.5 -125.5t-126 -116.5t-126.5 -69l-118 86
z" />
    <glyph glyph-name="ohungarumlaut" unicode="&#x151;" horiz-adv-x="1181" 
d="M596 1753l210 -137q-13 -51 -74.5 -135t-136 -159t-124.5 -99l-139 83zM1089 1753l216 -143q-13 -51 -78.5 -134t-145.5 -156t-131 -97l-130 83zM937 1091q93 -65 136 -174t43 -246q0 -187 -72.5 -343.5t-216 -250t-346.5 -93.5q-143 0 -236 65t-136.5 174t-43.5 246
q0 187 73 343.5t216.5 250t346.5 93.5q143 0 236 -65zM658.5 272.5q51.5 74.5 75.5 190t24 242.5q0 126 -27.5 181.5t-82.5 55.5q-76 0 -128 -77.5t-76.5 -196t-24.5 -239.5q0 -231 110 -231q78 0 129.5 74.5z" />
    <glyph glyph-name="OE" unicode="&#x152;" horiz-adv-x="2211" 
d="M1613 1257l-48 -337l419 5l-36 -276l-421 9l-55 -388l633 10l-37 -280h-989l28 199q-96 -103 -219 -159t-270 -56q-178 0 -302.5 79t-187 213.5t-62.5 301.5q0 264 91.5 485t263 352t400.5 131q152 0 265 -61t181 -171l31 216h914l-37 -275zM832.5 352.5
q80.5 102.5 124 261t43.5 321.5q0 130 -24.5 205.5t-71.5 107.5t-121 32q-106 0 -186.5 -104t-123.5 -263t-43 -317q0 -130 24.5 -206t71.5 -108t120 -32q106 0 186.5 102.5z" />
    <glyph glyph-name="oe" unicode="&#x153;" horiz-adv-x="1775" 
d="M1382 252q65 26 118.5 64.5t79.5 72.5l92 -171q-34 -49 -105.5 -103t-174.5 -92.5t-223 -38.5q-202 0 -317 123q-153 -123 -371 -123q-143 0 -236 62.5t-136.5 170t-43.5 243.5q0 187 73 345.5t216.5 254.5t346.5 96q195 0 299 -130q81 63 177 96.5t202 33.5
q172 0 256 -69t84 -194q0 -142 -78.5 -240.5t-210.5 -160.5t-318 -109q0 -79 31 -118t114 -39q60 0 125 26zM1198 893.5q-43 -66.5 -66 -160.5t-25 -172q60 4 122.5 45.5t104 108.5t41.5 144q0 53 -17.5 77t-57.5 24q-59 0 -102 -66.5zM661 276.5q52 78.5 76 207.5
q3 67 17 136q4 44 4 97q0 124 -27.5 174.5t-82.5 50.5q-76 0 -127.5 -79.5t-76.5 -200t-25 -242.5q0 -118 28 -170t82 -52q80 0 132 78.5z" />
    <glyph glyph-name="Racute" unicode="&#x154;" horiz-adv-x="1344" 
d="M1081.5 533.5q36.5 -71.5 61.5 -166.5q3 -9 5.5 -17t4.5 -14q60 -184 81 -240.5t48 -95.5h-392q-12 16 -21 47.5t-27 105.5q-11 47 -39 153q-20 83 -45.5 143.5t-49 92t-40.5 31.5h-157l-85 -573h-354l218 1530h202q57 0 137 8q84 8 152 8q290 0 419 -99t129 -294
q0 -186 -79 -323t-247 -189q42 -36 78.5 -107.5zM883 887.5q54 42.5 77.5 106.5t23.5 130q0 68 -26.5 106.5t-78 54t-132.5 15.5q-34 0 -74 -3t-63 -7l-62 -442q54 -3 195 -3q86 0 140 42.5zM983 2014l210 -187q-25 -48 -88 -105.5t-135.5 -105.5t-122.5 -66l-143 122z" />
    <glyph glyph-name="racute" unicode="&#x155;" horiz-adv-x="905" 
d="M826 1774l209 -200q-18 -34 -98 -110.5t-172 -146t-149 -91.5l-124 99zM897 1152q19 -4 27 -10l-63 -361q-10 12 -40.5 19t-59.5 7q-65 0 -117 -20.5t-106 -67.5l-2 3l-101 -722h-357l156 1140h344l-16 -228l-1 -8l1 1q22 66 65 123.5t101.5 92.5t124.5 35q25 0 44 -4z
" />
    <glyph glyph-name="Rcommaaccent" unicode="&#x156;" horiz-adv-x="1356" 
d="M486 -141l156 104q45 -9 81.5 -39.5t57 -75.5t20.5 -97q0 -81 -34.5 -148.5t-87.5 -110t-107 -52.5l-101 70l3 26q24 14 46.5 47.5t22.5 81.5q0 38 -19.5 68t-48.5 33zM1093.5 533.5q36.5 -71.5 61.5 -166.5q3 -9 5.5 -17t4.5 -14q60 -184 81 -240.5t48 -95.5h-392
q-12 16 -21 47.5t-27 105.5q-11 47 -39 153q-20 83 -45.5 143.5t-49 92t-40.5 31.5h-157l-85 -573h-354l218 1530h202q57 0 137 8q84 8 152 8q290 0 419 -99t129 -294q0 -186 -79 -323t-247 -189q42 -36 78.5 -107.5zM895 887.5q54 42.5 77.5 106.5t23.5 130
q0 68 -26.5 106.5t-78 54t-132.5 15.5q-34 0 -74 -3t-63 -7l-62 -442q54 -3 195 -3q86 0 140 42.5z" />
    <glyph glyph-name="rcommaaccent" unicode="&#x157;" horiz-adv-x="905" 
d="M107 -141l156 104q45 -9 81.5 -39.5t57 -75.5t20.5 -97q0 -81 -34.5 -148.5t-87.5 -110t-107 -52.5l-101 70l3 26q24 14 46.5 47.5t22.5 81.5q0 38 -19.5 68t-48.5 33zM897 1152q19 -4 27 -10l-63 -361q-10 12 -40.5 19t-59.5 7q-65 0 -117 -20.5t-106 -67.5l-2 3
l-101 -722h-357l156 1140h344l-16 -228l-1 -8l1 1q22 66 65 123.5t101.5 92.5t124.5 35q25 0 44 -4z" />
    <glyph glyph-name="Rcaron" unicode="&#x158;" horiz-adv-x="1356" 
d="M631 2014l183 -177l287 177l148 -67l-371 -348h-180l-212 337zM1093.5 533.5q36.5 -71.5 61.5 -166.5q3 -9 5.5 -17t4.5 -14q60 -184 81 -240.5t48 -95.5h-392q-12 16 -21 47.5t-27 105.5q-11 47 -39 153q-20 83 -45.5 143.5t-49 92t-40.5 31.5h-157l-85 -573h-354
l218 1530h202q57 0 137 8q84 8 152 8q290 0 419 -99t129 -294q0 -186 -79 -323t-247 -189q42 -36 78.5 -107.5zM895 887.5q54 42.5 77.5 106.5t23.5 130q0 68 -26.5 106.5t-78 54t-132.5 15.5q-34 0 -74 -3t-63 -7l-62 -442q54 -3 195 -3q86 0 140 42.5z" />
    <glyph glyph-name="rcaron" unicode="&#x159;" horiz-adv-x="905" 
d="M434 1700l213 -190l276 189l148 -67l-372 -374h-179l-212 374zM897 1152q19 -4 27 -10l-63 -361q-10 12 -40.5 19t-59.5 7q-65 0 -117 -20.5t-106 -67.5l-2 3l-101 -722h-357l156 1140h344l-16 -228l-1 -8l1 1q22 66 65 123.5t101.5 92.5t124.5 35q25 0 44 -4z" />
    <glyph glyph-name="Sacute" unicode="&#x15a;" horiz-adv-x="1058" 
d="M250.5 298q85.5 -31 157.5 -31q108 0 156 43t48 115q0 43 -17.5 77.5t-56.5 71.5t-114 94q-110 83 -183 188.5t-73 232.5q0 138 66 241.5t187 159.5t281 56q120 0 217.5 -26t143.5 -59l-112 -281q-35 35 -110 61t-149 26q-92 0 -139 -40.5t-47 -99.5q0 -44 23.5 -84
t62 -75.5t105.5 -88.5q79 -63 136.5 -120.5t99 -134.5t41.5 -166q0 -153 -72.5 -259.5t-204 -160.5t-306.5 -54q-74 0 -157 15.5t-149 38.5t-90 42l120 288q50 -39 135.5 -70zM848 2014l210 -187q-25 -48 -88 -105.5t-135.5 -105.5t-122.5 -66l-143 122z" />
    <glyph glyph-name="sacute" unicode="&#x15b;" horiz-adv-x="977" 
d="M836 1774l209 -200q-18 -34 -98 -110.5t-172 -146t-149 -91.5l-124 99zM180.5 290q48.5 -24 103.5 -40.5t95 -16.5q67 0 106 18t39 65q0 36 -31 67t-98 81q-51 37 -79 61q-72 61 -112.5 130t-40.5 169q0 101 57 176t162 115.5t244 40.5q74 0 157 -13t110 -24l-38 -299
q-31 32 -100 60.5t-136 28.5q-62 0 -93.5 -22.5t-31.5 -56.5q0 -36 20.5 -60.5t75.5 -67.5q46 -37 70 -58q72 -56 115 -101t64.5 -96t21.5 -116q0 -125 -66 -202.5t-172.5 -111t-235.5 -33.5q-64 0 -134 10.5t-124 27t-73 31.5l56 280q20 -19 68.5 -43z" />
    <glyph glyph-name="Scircumflex" unicode="&#x15c;" horiz-adv-x="1058" 
d="M250.5 298q85.5 -31 157.5 -31q108 0 156 43t48 115q0 43 -17.5 77.5t-56.5 71.5t-114 94q-110 83 -183 188.5t-73 232.5q0 138 66 241.5t187 159.5t281 56q120 0 217.5 -26t143.5 -59l-112 -281q-35 35 -110 61t-149 26q-92 0 -139 -40.5t-47 -99.5q0 -44 23.5 -84
t62 -75.5t105.5 -88.5q79 -63 136.5 -120.5t99 -134.5t41.5 -166q0 -153 -72.5 -259.5t-204 -160.5t-306.5 -54q-74 0 -157 15.5t-149 38.5t-90 42l120 288q50 -39 135.5 -70zM674 2014h180l212 -337l-145 -78l-183 167l-287 -167l-148 67z" />
    <glyph glyph-name="scircumflex" unicode="&#x15d;" horiz-adv-x="977" 
d="M631 1670h180l212 -374l-155 -68l-180 174l-290 -173l-138 67zM180.5 290q48.5 -24 103.5 -40.5t95 -16.5q67 0 106 18t39 65q0 36 -31 67t-98 81q-51 37 -79 61q-72 61 -112.5 130t-40.5 169q0 101 57 176t162 115.5t244 40.5q74 0 157 -13t110 -24l-38 -299
q-31 32 -100 60.5t-136 28.5q-62 0 -93.5 -22.5t-31.5 -56.5q0 -36 20.5 -60.5t75.5 -67.5q46 -37 70 -58q72 -56 115 -101t64.5 -96t21.5 -116q0 -125 -66 -202.5t-172.5 -111t-235.5 -33.5q-64 0 -134 10.5t-124 27t-73 31.5l56 280q20 -19 68.5 -43z" />
    <glyph glyph-name="Scedilla" unicode="&#x15e;" horiz-adv-x="1058" 
d="M833.5 758.5q57.5 -57.5 99 -134.5t41.5 -166q0 -183 -102.5 -298.5t-284.5 -155.5q18 -44 33 -117.5t15 -124.5q0 -107 -72 -170t-229 -63q-45 0 -134.5 12t-105.5 23l36 203q14 -7 35.5 -11.5t43.5 -4.5q86 0 132 26t50 99q2 40 2 58q0 20 -2 50q-74 0 -157 15.5
t-149 38.5t-90 42l120 288q50 -39 135.5 -70t157.5 -31q108 0 156 43t48 115q0 43 -17.5 77.5t-56.5 71.5t-114 94q-110 83 -183 188.5t-73 232.5q0 138 66 241.5t187 159.5t281 56q120 0 217.5 -26t143.5 -59l-112 -281q-35 35 -110 61t-149 26q-92 0 -139 -40.5t-47 -99.5
q0 -44 23.5 -84t62 -75.5t105.5 -88.5q79 -63 136.5 -120.5z" />
    <glyph glyph-name="scedilla" unicode="&#x15f;" horiz-adv-x="977" 
d="M775 543q43 -45 64.5 -96t21.5 -116q0 -152 -96.5 -234.5t-252.5 -104.5q17 -46 30 -114.5t13 -115.5q0 -107 -72 -170t-229 -63q-45 0 -134.5 12t-105.5 23l36 203q14 -7 35.5 -11.5t43.5 -4.5q86 0 132 26t50 99q1 19 1 55q0 40 -2 57q-81 7 -155.5 26.5t-98.5 38.5
l56 280q20 -19 68.5 -43t103.5 -40.5t95 -16.5q67 0 106 18t39 65q0 36 -31 67t-98 81q-51 37 -79 61q-72 61 -112.5 130t-40.5 169q0 101 57 176t162 115.5t244 40.5q74 0 157 -13t110 -24l-38 -299q-31 32 -100 60.5t-136 28.5q-62 0 -93.5 -22.5t-31.5 -56.5
q0 -36 20.5 -60.5t75.5 -67.5q46 -37 70 -58q72 -56 115 -101z" />
    <glyph glyph-name="Scaron" unicode="&#x160;" horiz-adv-x="1058" 
d="M250.5 298q85.5 -31 157.5 -31q108 0 156 43t48 115q0 43 -17.5 77.5t-56.5 71.5t-114 94q-110 83 -183 188.5t-73 232.5q0 138 66 241.5t187 159.5t281 56q120 0 217.5 -26t143.5 -59l-112 -281q-35 35 -110 61t-149 26q-92 0 -139 -40.5t-47 -99.5q0 -44 23.5 -84
t62 -75.5t105.5 -88.5q79 -63 136.5 -120.5t99 -134.5t41.5 -166q0 -153 -72.5 -259.5t-204 -160.5t-306.5 -54q-74 0 -157 15.5t-149 38.5t-90 42l120 288q50 -39 135.5 -70zM484 2014l183 -177l287 177l148 -67l-371 -348h-180l-212 337z" />
    <glyph glyph-name="scaron" unicode="&#x161;" horiz-adv-x="977" 
d="M444 1700l213 -190l276 189l148 -67l-372 -374h-179l-212 374zM180.5 290q48.5 -24 103.5 -40.5t95 -16.5q67 0 106 18t39 65q0 36 -31 67t-98 81q-51 37 -79 61q-72 61 -112.5 130t-40.5 169q0 101 57 176t162 115.5t244 40.5q74 0 157 -13t110 -24l-38 -299
q-31 32 -100 60.5t-136 28.5q-62 0 -93.5 -22.5t-31.5 -56.5q0 -36 20.5 -60.5t75.5 -67.5q46 -37 70 -58q72 -56 115 -101t64.5 -96t21.5 -116q0 -125 -66 -202.5t-172.5 -111t-235.5 -33.5q-64 0 -134 10.5t-124 27t-73 31.5l56 280q20 -19 68.5 -43z" />
    <glyph glyph-name="uni0162" unicode="&#x162;" horiz-adv-x="1153" 
d="M1247 1530l-40 -275l-352 11l-181 -1266h-100q18 -44 32 -116.5t14 -121.5q0 -107 -72 -170t-229 -63q-45 0 -134.5 12t-105.5 23l36 203q14 -7 35.5 -11.5t43.5 -4.5q86 0 132 26t50 99q2 38 2 55q0 31 -4 69h-60l181 1266l-359 -11l44 275h1067z" />
    <glyph glyph-name="uni0163" unicode="&#x163;" horiz-adv-x="839" 
d="M505 417q-1 -8 -2 -16.5t-3 -17.5q-9 -74 -9 -95q0 -29 14.5 -46.5t55.5 -17.5q33 0 87.5 25.5t87.5 56.5l54 -170q-62 -50 -146.5 -91.5t-186.5 -57.5q17 -47 29.5 -113t12.5 -112q0 -107 -72 -170t-229 -63q-45 0 -134.5 12t-105.5 23l36 203q14 -7 35.5 -11.5
t43.5 -4.5q86 0 132 26t50 99q2 38 2 54q0 30 -4 68q-61 23 -94.5 73.5t-33.5 123.5q0 14 6.5 80t14.5 123l72 526h-84l36 216h105l98 276h267l-37 -276h222l-23 -216h-227z" />
    <glyph glyph-name="Tcaron" unicode="&#x164;" horiz-adv-x="1165" 
d="M540 2014l183 -177l287 177l148 -67l-371 -348h-180l-212 337zM148 1255l44 275h1067l-40 -275l-352 11l-181 -1266h-360l181 1266z" />
    <glyph glyph-name="tcaron" unicode="&#x165;" horiz-adv-x="839" 
d="M218 924h-84l36 216h105l98 276h267l-37 -276h222l-23 -216h-227l-70 -507q-1 -8 -2 -16.5t-3 -17.5q-9 -74 -9 -95q0 -29 14.5 -46.5t55.5 -17.5q33 0 87.5 25.5t87.5 56.5l54 -170q-79 -63 -188 -109.5t-242 -46.5q-109 0 -172 56.5t-63 158.5q0 14 6.5 80t14.5 123z
M805.5 1432q11.5 84 11.5 169q0 165 -24 201l19 42l229 48q19 -19 29 -72t10 -117q0 -125 -39 -254.5t-108 -201.5l-151 28l-6 25q18 48 29.5 132z" />
    <glyph glyph-name="Tbar" unicode="&#x166;" horiz-adv-x="1165" 
d="M867 1266l-54 -380h245l-31 -251h-250l-91 -635h-360l91 635h-229l30 251h235l54 380l-359 -11l44 275h1067l-40 -275z" />
    <glyph glyph-name="tbar" unicode="&#x167;" horiz-adv-x="839" 
d="M575 924l-24 -173h163l-16 -130h-165l-28 -204q-1 -8 -2 -16.5t-3 -17.5q-9 -74 -9 -95q0 -29 14.5 -46.5t55.5 -17.5q33 0 87.5 25.5t87.5 56.5l54 -170q-79 -63 -188 -109.5t-242 -46.5q-109 0 -172 56.5t-63 158.5q0 14 6.5 80t14.5 123l31 223h-61l16 130h62l24 173
h-84l36 216h105l98 276h267l-37 -276h222l-23 -216h-227z" />
    <glyph glyph-name="Utilde" unicode="&#x168;" horiz-adv-x="1440" 
d="M540.5 1874q52.5 46 115.5 76t116 30q45 0 79 -12t58 -28.5t55 -43.5q35 -31 59.5 -45.5t57.5 -14.5q39 0 69 15.5t50.5 36.5t50.5 58l119 -145q-20 -48 -69.5 -96.5t-112 -80.5t-118.5 -32q-50 0 -87 11.5t-61.5 28t-54.5 42.5q-38 32 -65 47t-68 15q-45 0 -84 -24.5
t-78 -64.5l-106 136q22 45 74.5 91zM261 1530h353l-126 -888q-11 -80 -11 -192q1 -75 20 -117.5t61.5 -60t116.5 -17.5q84 0 138.5 34t89.5 116t57 229l127 896h352l-130 -933q-31 -222 -112 -356t-221 -195.5t-355 -61.5q-255 0 -380 117.5t-126 330.5q-1 71 13 165z" />
    <glyph glyph-name="utilde" unicode="&#x169;" horiz-adv-x="1292" 
d="M1223 1140l-156 -1140h-318l7 195q-58 -91 -151 -153t-203 -62q-124 0 -202.5 62t-78.5 200q0 110 36 352l75 546h353l-70 -551q-27 -201 -27 -257q0 -47 20 -72.5t49 -25.5q51 0 107 52.5t101 130.5l101 723h357zM427.5 1593q49.5 46 110 75.5t113.5 29.5
q45 0 77.5 -12.5t53.5 -30.5t49 -47q31 -33 53.5 -48.5t55.5 -15.5q35 0 60.5 12.5t43.5 31t42 49.5q-1 -1 14 17l119 -145q-20 -48 -67 -97t-107 -80.5t-116 -31.5q-50 0 -85.5 12.5t-57.5 30t-49 45.5q-33 34 -58 50t-66 16q-45 0 -77.5 -22.5t-74.5 -66.5l-106 136
q23 46 72.5 92z" />
    <glyph glyph-name="Umacron" unicode="&#x16a;" horiz-adv-x="1440" 
d="M1172 1916l-20 -209h-577l20 209h577zM261 1530h353l-126 -888q-11 -80 -11 -192q1 -75 20 -117.5t61.5 -60t116.5 -17.5q84 0 138.5 34t89.5 116t57 229l127 896h352l-130 -933q-31 -222 -112 -356t-221 -195.5t-355 -61.5q-255 0 -380 117.5t-126 330.5q-1 71 13 165z
" />
    <glyph glyph-name="umacron" unicode="&#x16b;" horiz-adv-x="1292" 
d="M1223 1140l-156 -1140h-318l7 195q-58 -91 -151 -153t-203 -62q-124 0 -202.5 62t-78.5 200q0 110 36 352l75 546h353l-70 -551q-27 -201 -27 -257q0 -47 20 -72.5t49 -25.5q51 0 107 52.5t101 130.5l101 723h357zM1090 1614l-18 -219h-597l18 219h597z" />
    <glyph glyph-name="Ubreve" unicode="&#x16c;" horiz-adv-x="1440" 
d="M551 1972.5q4 27.5 8 41.5h188q-4 -28 -4 -45q0 -43 12 -68t43 -38t89 -13q80 0 115.5 45t47.5 119h184q1 -11 1 -34q0 -85 -39.5 -164.5t-122 -131t-202.5 -51.5q-172 0 -248 76.5t-76 219.5q0 16 4 43.5zM261 1530h353l-126 -888q-11 -80 -11 -192q1 -75 20 -117.5
t61.5 -60t116.5 -17.5q84 0 138.5 34t89.5 116t57 229l127 896h352l-130 -933q-31 -222 -112 -356t-221 -195.5t-355 -61.5q-255 0 -380 117.5t-126 330.5q-1 71 13 165z" />
    <glyph glyph-name="ubreve" unicode="&#x16d;" horiz-adv-x="1292" 
d="M1223 1140l-156 -1140h-318l7 195q-58 -91 -151 -153t-203 -62q-124 0 -202.5 62t-78.5 200q0 110 36 352l75 546h353l-70 -551q-27 -201 -27 -257q0 -47 20 -72.5t49 -25.5q51 0 107 52.5t101 130.5l101 723h357zM469 1639.5q4 27.5 8 41.5h188q-4 -28 -4 -45
q0 -43 12 -68t43 -38t89 -13q80 0 115.5 45t47.5 119h184q1 -11 1 -34q0 -85 -39.5 -164.5t-122 -131t-202.5 -51.5q-172 0 -248 76.5t-76 219.5q0 16 4 43.5z" />
    <glyph glyph-name="Uring" unicode="&#x16e;" horiz-adv-x="1440" 
d="M261 1530h353l-126 -888q-11 -80 -11 -192q1 -75 20 -117.5t61.5 -60t116.5 -17.5q84 0 138.5 34t89.5 116t57 229l127 896h352l-130 -933q-31 -222 -112 -356t-221 -195.5t-355 -61.5q-255 0 -380 117.5t-126 330.5q-1 71 13 165zM593 1988q61 68 150.5 97t178.5 29
q139 0 222.5 -59t83.5 -174q0 -101 -53 -171t-138.5 -104.5t-181.5 -34.5q-147 0 -235 62t-88 178q0 109 61 177zM1014 1917q-19 29 -50.5 45t-66.5 16q-68 0 -118.5 -35t-50.5 -109q0 -34 20 -62.5t52.5 -45t66.5 -16.5q70 0 118 32.5t48 110.5q0 35 -19 64z" />
    <glyph glyph-name="uring" unicode="&#x16f;" horiz-adv-x="1292" 
d="M530.5 1675q61.5 69 150.5 99t178 30q139 0 222.5 -60t83.5 -177q0 -101 -55.5 -172t-143.5 -106.5t-184 -35.5q-145 0 -229 63.5t-84 180.5q0 109 61.5 178zM951 1603q-19 29 -50.5 45t-66.5 16q-68 0 -118.5 -35t-50.5 -109q0 -34 20 -62.5t52.5 -45t66.5 -16.5
q70 0 118 32.5t48 110.5q0 35 -19 64zM1223 1140l-156 -1140h-318l7 195q-58 -91 -151 -153t-203 -62q-124 0 -202.5 62t-78.5 200q0 110 36 352l75 546h353l-70 -551q-27 -201 -27 -257q0 -47 20 -72.5t49 -25.5q51 0 107 52.5t101 130.5l101 723h357z" />
    <glyph glyph-name="Uhungarumlaut" unicode="&#x170;" horiz-adv-x="1440" 
d="M261 1530h353l-126 -888q-11 -80 -11 -192q1 -75 20 -117.5t61.5 -60t116.5 -17.5q84 0 138.5 34t89.5 116t57 229l127 896h352l-130 -933q-31 -222 -112 -356t-221 -195.5t-355 -61.5q-255 0 -380 117.5t-126 330.5q-1 71 13 165zM744 2014l183 -143q-25 -56 -85 -122.5
t-131.5 -119t-127.5 -70.5l-123 86zM1239 2014l180 -144q-36 -60 -94.5 -125.5t-126 -116.5t-126.5 -69l-118 86z" />
    <glyph glyph-name="uhungarumlaut" unicode="&#x171;" horiz-adv-x="1292" 
d="M1223 1140l-156 -1140h-318l7 195q-58 -91 -151 -153t-203 -62q-124 0 -202.5 62t-78.5 200q0 110 36 352l75 546h353l-70 -551q-27 -201 -27 -257q0 -47 20 -72.5t49 -25.5q51 0 107 52.5t101 130.5l101 723h357zM637 1753l210 -137q-13 -51 -74.5 -135t-136 -159
t-124.5 -99l-139 83zM1130 1753l216 -143q-13 -51 -78.5 -134t-145.5 -156t-131 -97l-130 83z" />
    <glyph glyph-name="Uogonek" unicode="&#x172;" horiz-adv-x="1452" 
d="M1451 1530l-130 -933q-29 -203 -97.5 -331.5t-187.5 -196.5l9 -1q-62 -37 -126 -89.5t-106 -103t-42 -80.5q0 -40 17.5 -56t49.5 -16q40 0 74.5 15.5t78.5 49.5l41 -175q-61 -63 -141 -93t-188 -30q-63 0 -111.5 26.5t-75 70.5t-26.5 97q0 61 39.5 121t97 107t113.5 76
q-45 -4 -107 -4q-255 0 -380 117.5t-126 330.5q-1 71 13 165l133 933h353l-126 -888q-11 -80 -11 -192q1 -75 20 -117.5t61.5 -60t116.5 -17.5q84 0 138.5 34t89.5 116t57 229l127 896h352z" />
    <glyph glyph-name="uogonek" unicode="&#x173;" horiz-adv-x="1292" 
d="M962.5 -261.5q34.5 15.5 78.5 49.5l41 -175q-61 -63 -141 -93t-188 -30q-63 0 -111.5 26.5t-75 70.5t-26.5 97q0 67 46 131t110.5 113t119.5 72h-67l7 195q-58 -91 -151 -153t-203 -62q-124 0 -202.5 62t-78.5 200q0 110 36 352l75 546h353l-70 -551q-27 -201 -27 -257
q0 -47 20 -72.5t49 -25.5q51 0 107 52.5t101 130.5l101 723h357l-156 -1140q-105 -43 -175.5 -100.5t-70.5 -104.5q0 -40 17.5 -56t49.5 -16q40 0 74.5 15.5z" />
    <glyph glyph-name="Wcircumflex" unicode="&#x174;" horiz-adv-x="1803" 
d="M2001 1530l-595 -1530h-413l-57 546l-18 168l-61 -168l-200 -546h-375l-185 1530h357l59 -980l20 -222l68 222l258 641l-37 339h345l60 -980l23 -222l53 222l334 980h364zM1024 2014h180l212 -337l-145 -78l-183 167l-287 -167l-148 67z" />
    <glyph glyph-name="wcircumflex" unicode="&#x175;" horiz-adv-x="1763" 
d="M942 1670h180l212 -374l-155 -68l-180 174l-290 -173l-138 67zM1726 1104.5q5 -31.5 5 -122.5q0 -258 -149.5 -502.5t-423.5 -471.5l-20 -17l-259 -12l-54 360q-109 -177 -280 -331l-20 -17l-275 -12l-55 376l-103 785h361l59 -665l13 -209l59 76q63 97 116 221t75 247
l-34 330h343l48 -665l13 -209l59 76q60 94 105.5 217.5t66.5 257.5q9 59 17.5 156t8.5 167h318q1 -4 6 -35.5z" />
    <glyph glyph-name="Ycircumflex" unicode="&#x176;" horiz-adv-x="1164" 
d="M83 1530h372l141 -525l25 -134l58 134l284 525h393l-600 -940l-85 -590h-354l85 590zM698 2014h180l212 -337l-145 -78l-183 167l-287 -167l-148 67z" />
    <glyph glyph-name="ycircumflex" unicode="&#x177;" horiz-adv-x="1140" 
d="M1100 987q0 -303 -149 -655q-60 -142 -130 -263.5t-139 -216.5q-15 -20 -43 -60q-80 -111 -135.5 -171.5t-137 -99t-198.5 -38.5q-74 0 -140 21.5t-120 53.5l89 244q36 -25 85.5 -43t88.5 -18q59 0 104.5 22.5t90.5 73t105 143.5h-206l-56 375l-114 785h352l74 -685
l33 -317q66 136 118 300q33 96 50.5 164t28.5 152.5t20 223.5q3 39 3 111v51h320q6 -30 6 -153zM600 1670h180l212 -374l-155 -68l-180 174l-290 -173l-138 67z" />
    <glyph glyph-name="Ydieresis" unicode="&#x178;" horiz-adv-x="1164" 
d="M83 1530h372l141 -525l25 -134l58 134l284 525h393l-600 -940l-85 -590h-354l85 590zM326.5 1896.5q22.5 45.5 64.5 72t97 26.5q45 0 80.5 -22.5t55 -58.5t19.5 -76q0 -91 -47.5 -148.5t-141.5 -57.5q-38 0 -73 23.5t-56 62t-21 78.5q0 55 22.5 100.5zM800 1896.5
q22 45.5 63 72t96 26.5q46 0 82 -22.5t56 -59t20 -75.5q0 -90 -48.5 -148t-142.5 -58q-39 0 -73 23.5t-54.5 61.5t-20.5 78q0 56 22 101.5z" />
    <glyph glyph-name="Zacute" unicode="&#x179;" horiz-adv-x="1158" 
d="M706 1188l93 67l-587 -10l46 285h976l23 -86l-742 -1088l-84 -74l618 10l-47 -292h-1043l-27 89zM932 2014l210 -187q-25 -48 -88 -105.5t-135.5 -105.5t-122.5 -66l-143 122z" />
    <glyph glyph-name="zacute" unicode="&#x17a;" horiz-adv-x="984" 
d="M855 1774l209 -200q-18 -34 -98 -110.5t-172 -146t-149 -91.5l-124 99zM439 272h456l-28 -272h-877l-35 45l554 790l52 38h-428l37 267h822l35 -44l-545 -793z" />
    <glyph glyph-name="Zdotaccent" unicode="&#x17b;" horiz-adv-x="1158" 
d="M607.5 1876q26.5 46 74 72.5t109.5 26.5q56 0 97 -21t63 -57t22 -79q0 -58 -25 -104.5t-74 -74t-119 -27.5q-49 0 -88.5 21.5t-62.5 59t-23 82.5q0 55 26.5 101zM706 1188l93 67l-587 -10l46 285h976l23 -86l-742 -1088l-84 -74l618 10l-47 -292h-1043l-27 89z" />
    <glyph glyph-name="zdotaccent" unicode="&#x17c;" horiz-adv-x="984" 
d="M439 272h456l-28 -272h-877l-35 45l554 790l52 38h-428l37 267h822l35 -44l-545 -793zM522.5 1579q26.5 47 74.5 74.5t109 27.5q52 0 92 -22t62.5 -59t22.5 -81q0 -58 -25 -104.5t-74 -74t-119 -27.5q-44 0 -83 22t-62.5 59.5t-23.5 82.5q0 55 26.5 102z" />
    <glyph glyph-name="Zcaron" unicode="&#x17d;" horiz-adv-x="1158" 
d="M568 2014l183 -177l287 177l148 -67l-371 -348h-180l-212 337zM706 1188l93 67l-587 -10l46 285h976l23 -86l-742 -1088l-84 -74l618 10l-47 -292h-1043l-27 89z" />
    <glyph glyph-name="zcaron" unicode="&#x17e;" horiz-adv-x="984" 
d="M463 1700l213 -190l276 189l148 -67l-372 -374h-179l-212 374zM439 272h456l-28 -272h-877l-35 45l554 790l52 38h-428l37 267h822l35 -44l-545 -793z" />
    <glyph glyph-name="florin" unicode="&#x192;" horiz-adv-x="1059" 
d="M187 939l21 186l161 30l17 90q18 124 83 220.5t170 150.5t237 54q115 0 179 -26l-62 -238q-15 15 -46 31.5t-67 16.5q-58 0 -90.5 -35t-51.5 -120l-26 -144h189l-24 -216h-190l-177 -1294h-348l177 1294h-152z" />
    <glyph glyph-name="uni01C4" unicode="&#x1c4;" horiz-adv-x="2581" 
d="M1276 1384q139 -162 139 -452q0 -256 -94.5 -472t-285.5 -346t-466 -130q-46 0 -144 7l-24 1q-124 8 -185 8h-144l219 1530h156q40 0 186 8q154 8 201 8q303 0 442 -162zM858.5 335.5q97.5 92.5 145 249.5t47.5 352q0 137 -30.5 212.5t-93 105.5t-166.5 30
q-34 0 -79 -3.5t-74 -9.5l-144 -1007q63 -22 155 -22q142 0 239.5 92.5zM2129 1188l93 67l-587 -10l46 285h976l23 -86l-742 -1088l-84 -74l618 10l-47 -292h-1043l-27 89zM1991 2014l183 -177l287 177l148 -67l-371 -348h-180l-212 337z" />
    <glyph glyph-name="uni01C5" unicode="&#x1c5;" horiz-adv-x="2407" 
d="M1276 1384q139 -162 139 -452q0 -256 -94.5 -472t-285.5 -346t-466 -130q-46 0 -144 7l-24 1q-124 8 -185 8h-144l219 1530h156q40 0 186 8q154 8 201 8q303 0 442 -162zM858.5 335.5q97.5 92.5 145 249.5t47.5 352q0 137 -30.5 212.5t-93 105.5t-166.5 30
q-34 0 -79 -3.5t-74 -9.5l-144 -1007q63 -22 155 -22q142 0 239.5 92.5zM1862 272h456l-28 -272h-877l-35 45l554 790l52 38h-428l37 267h822l35 -44l-545 -793zM1886 1700l213 -190l276 189l148 -67l-372 -374h-179l-212 374z" />
    <glyph glyph-name="uni01C6" unicode="&#x1c6;" horiz-adv-x="2258" 
d="M1264 1634l-211 -1634h-319l15 279q-48 -119 -134.5 -207t-208.5 -88q-177 0 -256.5 118.5t-79.5 309.5t80.5 361.5t240 276.5t382.5 106q40 0 80 -6l67 484h344zM629.5 292.5q49.5 64.5 89 155.5t61.5 172l44 317q-33 9 -76 9q-98 0 -167 -75t-104 -193.5t-35 -244.5
q0 -205 89 -205q49 0 98.5 64.5zM1713 272h456l-28 -272h-877l-35 45l554 790l52 38h-428l37 267h822l35 -44l-545 -793zM1737 1700l213 -190l276 189l148 -67l-372 -374h-179l-212 374z" />
    <glyph glyph-name="uni01C7" unicode="&#x1c7;" horiz-adv-x="1765" 
d="M645 1530l-180 -1253l497 11l-42 -288h-848l219 1530h354zM1735 1530q-27 -182 -60.5 -413.5t-48.5 -338.5q-53 -374 -75 -518.5t-33 -184.5q-58 -235 -218.5 -333.5t-367.5 -98.5l-44 118q82 20 141.5 71t94.5 117.5t47 136.5q38 184 72 420.5t81 604.5q41 320 55 419
h356z" />
    <glyph glyph-name="uni01C8" unicode="&#x1c8;" horiz-adv-x="1732" 
d="M645 1530l-180 -1253l497 11l-42 -288h-848l219 1530h354zM1663 1140l-158 -1140q-23 -168 -100.5 -287t-190 -180t-240.5 -61q-61 0 -109.5 8.5t-70.5 25.5l88 181q13 -9 38 -9q84 0 130.5 50.5t66.5 126.5t40 210l147 1075h359zM1380.5 1579q26.5 47 74.5 74.5
t109 27.5q52 0 92 -22t62.5 -59t22.5 -81q0 -58 -25 -104.5t-74 -74t-119 -27.5q-44 0 -83 22t-62.5 59.5t-23.5 82.5q0 55 26.5 102z" />
    <glyph glyph-name="uni01C9" unicode="&#x1c9;" horiz-adv-x="1329" 
d="M662 1634l-222 -1634h-357l220 1634h359zM1260 1140l-158 -1140q-23 -168 -100.5 -287t-190 -180t-240.5 -61q-61 0 -109.5 8.5t-70.5 25.5l88 181q13 -9 38 -9q84 0 130.5 50.5t66.5 126.5t40 210l147 1075h359zM977.5 1579q26.5 47 74.5 74.5t109 27.5q52 0 92 -22
t62.5 -59t22.5 -81q0 -58 -25 -104.5t-74 -74t-119 -27.5q-44 0 -83 22t-62.5 59.5t-23.5 82.5q0 55 26.5 102z" />
    <glyph glyph-name="uni01CA" unicode="&#x1ca;" horiz-adv-x="2197" 
d="M598 1530l356 -792l79 -260l13 260l97 792h342l-219 -1530h-297l-348 833l-99 275l3 -275l-115 -833h-338l219 1530h307zM2167 1530q-27 -182 -60.5 -413.5t-48.5 -338.5q-53 -374 -75 -518.5t-33 -184.5q-58 -235 -218.5 -333.5t-367.5 -98.5l-44 118q82 20 141.5 71
t94.5 117.5t47 136.5q38 184 72 420.5t81 604.5q41 320 55 419h356z" />
    <glyph glyph-name="uni01CB" unicode="&#x1cb;" horiz-adv-x="2164" 
d="M598 1530l356 -792l79 -260l13 260l97 792h342l-219 -1530h-297l-348 833l-99 275l3 -275l-115 -833h-338l219 1530h307zM2095 1140l-158 -1140q-23 -168 -100.5 -287t-190 -180t-240.5 -61q-61 0 -109.5 8.5t-70.5 25.5l88 181q13 -9 38 -9q84 0 130.5 50.5t66.5 126.5
t40 210l147 1075h359zM1812.5 1579q26.5 47 74.5 74.5t109 27.5q52 0 92 -22t62.5 -59t22.5 -81q0 -58 -25 -104.5t-74 -74t-119 -27.5q-44 0 -83 22t-62.5 59.5t-23.5 82.5q0 55 26.5 102z" />
    <glyph glyph-name="uni01CC" unicode="&#x1cc;" horiz-adv-x="1983" 
d="M1135.5 1085.5q70.5 -70.5 70.5 -231.5q0 -32 -10 -114t-30 -229q-12 -92 -39 -273q-26 -187 -33 -238h-357q46 308 70 510q25 204 28 278q3 53 -17.5 76t-63.5 23q-56 0 -118.5 -52t-105.5 -136l-97 -699h-357l156 1140h341l-13 -206q68 104 162.5 163t206.5 59
q136 0 206.5 -70.5zM1914 1140l-158 -1140q-23 -168 -100.5 -287t-190 -180t-240.5 -61q-61 0 -109.5 8.5t-70.5 25.5l88 181q13 -9 38 -9q84 0 130.5 50.5t66.5 126.5t40 210l147 1075h359zM1631.5 1579q26.5 47 74.5 74.5t109 27.5q52 0 92 -22t62.5 -59t22.5 -81
q0 -58 -25 -104.5t-74 -74t-119 -27.5q-44 0 -83 22t-62.5 59.5t-23.5 82.5q0 55 26.5 102z" />
    <glyph glyph-name="uni01CD" unicode="&#x1cd;" horiz-adv-x="1345" 
d="M907 286h-523l-117 -286l-390 -1l740 1531h450l227 -1530l-355 -1zM879 527l-76 675l-6 119l-39 -119l-276 -675h397zM828 2014h180l212 -337l-145 -78l-183 167l-287 -167l-148 67z" />
    <glyph glyph-name="uni01CE" unicode="&#x1ce;" horiz-adv-x="1268" 
d="M1205 1156l-161 -1156h-320l12 248q-50 -110 -133.5 -187t-196.5 -77q-177 0 -256.5 118.5t-79.5 309.5t80.5 361.5t240 276.5t382.5 106q58 0 127 -13.5t121 -31.5zM626 286q48 62 87.5 150.5t62.5 169.5l47 335q-29 5 -75 5q-98 0 -167 -75t-104 -193.5t-35 -244.5
q0 -209 89 -209q47 0 95 62zM608 1700l213 -190l276 189l148 -67l-372 -374h-179l-212 374z" />
    <glyph glyph-name="uni01CF" unicode="&#x1cf;" horiz-adv-x="706" 
d="M671 1530l-219 -1530h-354l219 1530h354zM317 2014l183 -177l287 177l148 -67l-371 -348h-180l-212 337z" />
    <glyph glyph-name="uni01D0" unicode="&#x1d0;" 
d="M595 1140l-158 -1140h-357l156 1140h359zM257 1700l213 -190l276 189l148 -67l-372 -374h-179l-212 374z" />
    <glyph glyph-name="uni01D1" unicode="&#x1d1;" horiz-adv-x="1394" 
d="M157.5 1063q91.5 221 263 352t400.5 131q175 0 297.5 -80t184 -216.5t61.5 -303.5q0 -263 -90.5 -483t-260 -349.5t-395.5 -129.5q-178 0 -302.5 79t-187 213.5t-62.5 301.5q0 264 91.5 485zM975.5 1140.5q-24.5 75.5 -71.5 107.5t-121 32q-106 0 -186.5 -104
t-123.5 -263t-43 -317q0 -130 24.5 -206t71.5 -108t120 -32q106 0 186.5 102.5t124 261t43.5 321.5q0 130 -24.5 205.5zM684 2014l183 -177l287 177l148 -67l-371 -348h-180l-212 337z" />
    <glyph glyph-name="uni01D2" unicode="&#x1d2;" horiz-adv-x="1181" 
d="M937 1091q93 -65 136 -174t43 -246q0 -187 -72.5 -343.5t-216 -250t-346.5 -93.5q-143 0 -236 65t-136.5 174t-43.5 246q0 187 73 343.5t216.5 250t346.5 93.5q143 0 236 -65zM658.5 272.5q51.5 74.5 75.5 190t24 242.5q0 126 -27.5 181.5t-82.5 55.5q-76 0 -128 -77.5
t-76.5 -196t-24.5 -239.5q0 -231 110 -231q78 0 129.5 74.5zM536 1700l213 -190l276 189l148 -67l-372 -374h-179l-212 374z" />
    <glyph glyph-name="uni01D3" unicode="&#x1d3;" horiz-adv-x="1440" 
d="M261 1530h353l-126 -888q-11 -80 -11 -192q1 -75 20 -117.5t61.5 -60t116.5 -17.5q84 0 138.5 34t89.5 116t57 229l127 896h352l-130 -933q-31 -222 -112 -356t-221 -195.5t-355 -61.5q-255 0 -380 117.5t-126 330.5q-1 71 13 165zM664 2014l183 -177l287 177l148 -67
l-371 -348h-180l-212 337z" />
    <glyph glyph-name="uni01D4" unicode="&#x1d4;" horiz-adv-x="1292" 
d="M1223 1140l-156 -1140h-318l7 195q-58 -91 -151 -153t-203 -62q-124 0 -202.5 62t-78.5 200q0 110 36 352l75 546h353l-70 -551q-27 -201 -27 -257q0 -47 20 -72.5t49 -25.5q51 0 107 52.5t101 130.5l101 723h357zM577 1700l213 -190l276 189l148 -67l-372 -374h-179
l-212 374z" />
    <glyph glyph-name="Gcaron" unicode="&#x1e6;" horiz-adv-x="1427" 
d="M759 850h576l-107 -771q-46 -5 -109 -23q-115 -32 -218 -52t-224 -20q-215 0 -350 89t-194.5 230t-58.5 304q0 274 107.5 488t293 332.5t409.5 118.5q125 0 211 -16t158 -40l95 -33l-74 -322q-29 22 -89.5 50.5t-142 50t-166.5 21.5q-158 0 -257.5 -94.5t-142.5 -238.5
t-43 -300q0 -183 74 -279t223 -96q47 0 105.5 8t93.5 25l45 288h-248zM733 2014l183 -177l287 177l148 -67l-371 -348h-180l-212 337z" />
    <glyph glyph-name="gcaron" unicode="&#x1e7;" horiz-adv-x="1269" 
d="M1208 1156l-164 -1185q-37 -268 -218 -378t-432 -110q-70 0 -154 15t-117 30l52 255q12 -11 60 -33.5t109.5 -40t116.5 -17.5q101 0 148.5 54t66.5 157l63 354q-50 -113 -133.5 -193t-199.5 -80q-177 0 -256.5 118.5t-79.5 309.5t80.5 361.5t240 276.5t382.5 106
q58 0 127 -13.5t120 -31.5zM626.5 289.5q48.5 61.5 87.5 149t62 169.5l46 334q-31 4 -74 4q-98 0 -167 -75t-104 -193.5t-35 -244.5q0 -205 89 -205q47 0 95.5 61.5zM611 1700l213 -190l276 189l148 -67l-372 -374h-179l-212 374z" />
    <glyph glyph-name="uni01F1" unicode="&#x1f1;" horiz-adv-x="2581" 
d="M1276 1384q139 -162 139 -452q0 -256 -94.5 -472t-285.5 -346t-466 -130q-46 0 -144 7l-24 1q-124 8 -185 8h-144l219 1530h156q40 0 186 8q154 8 201 8q303 0 442 -162zM858.5 335.5q97.5 92.5 145 249.5t47.5 352q0 137 -30.5 212.5t-93 105.5t-166.5 30
q-34 0 -79 -3.5t-74 -9.5l-144 -1007q63 -22 155 -22q142 0 239.5 92.5zM2129 1188l93 67l-587 -10l46 285h976l23 -86l-742 -1088l-84 -74l618 10l-47 -292h-1043l-27 89z" />
    <glyph glyph-name="uni01F2" unicode="&#x1f2;" horiz-adv-x="2407" 
d="M1276 1384q139 -162 139 -452q0 -256 -94.5 -472t-285.5 -346t-466 -130q-46 0 -144 7l-24 1q-124 8 -185 8h-144l219 1530h156q40 0 186 8q154 8 201 8q303 0 442 -162zM858.5 335.5q97.5 92.5 145 249.5t47.5 352q0 137 -30.5 212.5t-93 105.5t-166.5 30
q-34 0 -79 -3.5t-74 -9.5l-144 -1007q63 -22 155 -22q142 0 239.5 92.5zM1862 272h456l-28 -272h-877l-35 45l554 790l52 38h-428l37 267h822l35 -44l-545 -793z" />
    <glyph glyph-name="uni01F3" unicode="&#x1f3;" horiz-adv-x="2258" 
d="M1264 1634l-211 -1634h-319l15 279q-48 -119 -134.5 -207t-208.5 -88q-177 0 -256.5 118.5t-79.5 309.5t80.5 361.5t240 276.5t382.5 106q40 0 80 -6l67 484h344zM629.5 292.5q49.5 64.5 89 155.5t61.5 172l44 317q-33 9 -76 9q-98 0 -167 -75t-104 -193.5t-35 -244.5
q0 -205 89 -205q49 0 98.5 64.5zM1713 272h456l-28 -272h-877l-35 45l554 790l52 38h-428l37 267h822l35 -44l-545 -793z" />
    <glyph glyph-name="uni01F4" unicode="&#x1f4;" horiz-adv-x="1427" 
d="M759 850h576l-107 -771q-46 -5 -109 -23q-115 -32 -218 -52t-224 -20q-215 0 -350 89t-194.5 230t-58.5 304q0 274 107.5 488t293 332.5t409.5 118.5q125 0 211 -16t158 -40l95 -33l-74 -322q-29 22 -89.5 50.5t-142 50t-166.5 21.5q-158 0 -257.5 -94.5t-142.5 -238.5
t-43 -300q0 -183 74 -279t223 -96q47 0 105.5 8t93.5 25l45 288h-248zM1097 2014l210 -187q-25 -48 -88 -105.5t-135.5 -105.5t-122.5 -66l-143 122z" />
    <glyph glyph-name="AEacute" unicode="&#x1fc;" horiz-adv-x="1996" 
d="M1358 2014l210 -187q-25 -48 -88 -105.5t-135.5 -105.5t-122.5 -66l-143 122zM1398 1257l-48 -337l419 5l-36 -276l-421 9l-55 -388l633 10l-37 -280h-989l42 296h-465l-158 -296h-392l763 1328l-242 32l28 170h1557l-37 -275zM942 547l104 723l-80 8l-391 -731h367z" />
    <glyph glyph-name="aeacute" unicode="&#x1fd;" horiz-adv-x="1770" 
d="M1213 1774l209 -200q-18 -34 -98 -110.5t-172 -146t-149 -91.5l-124 99zM1377 252q65 26 118.5 64.5t79.5 72.5l92 -171q-34 -49 -105.5 -103t-174.5 -92.5t-223 -38.5q-173 0 -276.5 85.5t-138.5 224.5q-57 -130 -147 -220t-208 -90q-176 0 -251 117.5t-75 310.5
q0 192 86 362.5t256.5 276t410.5 105.5q75 0 145 -18.5t119 -47.5q132 66 289 66q172 0 256 -69t84 -194q0 -142 -78.5 -240.5t-210.5 -160.5t-318 -109q0 -79 31 -118t114 -39q60 0 125 26zM1193 893.5q-43 -66.5 -66 -160.5t-25 -172q60 4 122.5 45.5t104 108.5t41.5 144
q0 53 -17.5 77t-57.5 24q-59 0 -102 -66.5zM890 934q-45 12 -94 12q-114 0 -194.5 -75t-121 -193t-40.5 -245q0 -70 7.5 -110t24.5 -58.5t47 -18.5q34 0 79.5 48t85 125t56.5 159q31 210 150 356z" />
    <glyph glyph-name="Oslashacute" unicode="&#x1fe;" horiz-adv-x="1393" 
d="M1318 1214q46 -122 46 -266q0 -263 -90.5 -483t-260 -349.5t-395.5 -129.5q-155 0 -275 63l-113 -181l-89 49l119 188q-96 80 -145 203.5t-49 271.5q0 264 91.5 485t263 352t400.5 131q162 0 280 -70l110 192l89 -49l-117 -203q89 -82 135 -204zM596.5 1178
q-80.5 -104 -123.5 -263t-43 -317q0 -126 24 -203l473 835q-49 52 -144 52q-106 0 -186.5 -104zM832.5 354.5q80.5 102.5 124 261t43.5 321.5q0 113 -18 185l-471 -826q48 -44 135 -44q106 0 186.5 102.5zM937 2014l210 -187q-25 -48 -88 -105.5t-135.5 -105.5t-122.5 -66
l-143 122z" />
    <glyph glyph-name="oslashacute" unicode="&#x1ff;" horiz-adv-x="1180" 
d="M1075 914q41 -107 41 -241q0 -187 -72.5 -343.5t-216 -250t-346.5 -93.5q-91 0 -164 28l-91 -146l-89 49l92 145q-83 64 -123.5 170.5t-40.5 238.5q0 187 73 343.5t216.5 250t346.5 93.5q90 0 160 -26l98 171l89 -49l-98 -170q84 -63 125 -170zM520 866.5
q-52 -77.5 -76.5 -196t-24.5 -239.5q0 -40 3 -73l288 561q-25 25 -62 25q-76 0 -128 -77.5zM658.5 274.5q51.5 74.5 75.5 190t24 242.5q0 50 -4 81l-289 -559q25 -29 64 -29q78 0 129.5 74.5zM829 1774l209 -200q-18 -34 -98 -110.5t-172 -146t-149 -91.5l-124 99z" />
    <glyph glyph-name="Scommaaccent" unicode="&#x218;" horiz-adv-x="1070" 
d="M353 -141l156 104q45 -9 81.5 -39.5t57 -75.5t20.5 -97q0 -81 -34.5 -148.5t-87.5 -110t-107 -52.5l-101 70l3 26q24 14 46.5 47.5t22.5 81.5q0 38 -19.5 68t-48.5 33zM262.5 298q85.5 -31 157.5 -31q108 0 156 43t48 115q0 43 -17.5 77.5t-56.5 71.5t-114 94
q-110 83 -183 188.5t-73 232.5q0 138 66 241.5t187 159.5t281 56q120 0 217.5 -26t143.5 -59l-112 -281q-35 35 -110 61t-149 26q-92 0 -139 -40.5t-47 -99.5q0 -44 23.5 -84t62 -75.5t105.5 -88.5q79 -63 136.5 -120.5t99 -134.5t41.5 -166q0 -153 -72.5 -259.5
t-204 -160.5t-306.5 -54q-74 0 -157 15.5t-149 38.5t-90 42l120 288q50 -39 135.5 -70z" />
    <glyph glyph-name="scommaaccent" unicode="&#x219;" horiz-adv-x="977" 
d="M261 -141l156 104q45 -9 81.5 -39.5t57 -75.5t20.5 -97q0 -81 -34.5 -148.5t-87.5 -110t-107 -52.5l-101 70l3 26q24 14 46.5 47.5t22.5 81.5q0 38 -19.5 68t-48.5 33zM180.5 290q48.5 -24 103.5 -40.5t95 -16.5q67 0 106 18t39 65q0 36 -31 67t-98 81q-51 37 -79 61
q-72 61 -112.5 130t-40.5 169q0 101 57 176t162 115.5t244 40.5q74 0 157 -13t110 -24l-38 -299q-31 32 -100 60.5t-136 28.5q-62 0 -93.5 -22.5t-31.5 -56.5q0 -36 20.5 -60.5t75.5 -67.5q46 -37 70 -58q72 -56 115 -101t64.5 -96t21.5 -116q0 -125 -66 -202.5t-172.5 -111
t-235.5 -33.5q-64 0 -134 10.5t-124 27t-73 31.5l56 280q20 -19 68.5 -43z" />
    <glyph glyph-name="uni021A" unicode="&#x21a;" horiz-adv-x="1165" 
d="M338 -141l156 104q45 -9 81.5 -39.5t57 -75.5t20.5 -97q0 -81 -34.5 -148.5t-87.5 -110t-107 -52.5l-101 70l3 26q24 14 46.5 47.5t22.5 81.5q0 38 -19.5 68t-48.5 33zM148 1255l44 275h1067l-40 -275l-352 11l-181 -1266h-360l181 1266z" />
    <glyph glyph-name="uni021B" unicode="&#x21b;" horiz-adv-x="839" 
d="M205 -141l156 104q45 -9 81.5 -39.5t57 -75.5t20.5 -97q0 -81 -34.5 -148.5t-87.5 -110t-107 -52.5l-101 70l3 26q24 14 46.5 47.5t22.5 81.5q0 38 -19.5 68t-48.5 33zM218 924h-84l36 216h105l98 276h267l-37 -276h222l-23 -216h-227l-70 -507q-1 -8 -2 -16.5t-3 -17.5
q-9 -74 -9 -95q0 -29 14.5 -46.5t55.5 -17.5q33 0 87.5 25.5t87.5 56.5l54 -170q-79 -63 -188 -109.5t-242 -46.5q-109 0 -172 56.5t-63 158.5q0 14 6.5 80t14.5 123z" />
    <glyph glyph-name="uni0237" unicode="&#x237;" 
d="M595 1140l-158 -1140q-23 -168 -100.5 -287t-190 -180t-240.5 -61q-61 0 -109.5 8.5t-70.5 25.5l88 181q13 -9 38 -9q84 0 130.5 50.5t66.5 126.5t40 210l147 1075h359z" />
    <glyph glyph-name="circumflex" unicode="&#x2c6;" horiz-adv-x="803" 
d="M406 1670h180l212 -374l-155 -68l-180 174l-290 -173l-138 67z" />
    <glyph glyph-name="caron" unicode="&#x2c7;" horiz-adv-x="802" 
d="M191 1700l213 -190l276 189l148 -67l-372 -374h-179l-212 374z" />
    <glyph glyph-name="uni02C9" unicode="&#x2c9;" horiz-adv-x="620" 
d="M633 1916v-209h-577v209h577z" />
    <glyph glyph-name="breve" unicode="&#x2d8;" horiz-adv-x="724" 
d="M41 1639.5q4 27.5 8 41.5h188q-4 -28 -4 -45q0 -43 12 -68t43 -38t89 -13q80 0 115.5 45t47.5 119h184q1 -11 1 -34q0 -85 -39.5 -164.5t-122 -131t-202.5 -51.5q-172 0 -248 76.5t-76 219.5q0 16 4 43.5z" />
    <glyph glyph-name="dotaccent" unicode="&#x2d9;" horiz-adv-x="392" 
d="M27.5 1579q26.5 47 74.5 74.5t109 27.5q52 0 92 -22t62.5 -59t22.5 -81q0 -58 -25 -104.5t-74 -74t-119 -27.5q-44 0 -83 22t-62.5 59.5t-23.5 82.5q0 55 26.5 102z" />
    <glyph glyph-name="ring" unicode="&#x2da;" horiz-adv-x="729" 
d="M113.5 1675q61.5 69 150.5 99t178 30q139 0 222.5 -60t83.5 -177q0 -101 -55.5 -172t-143.5 -106.5t-184 -35.5q-145 0 -229 63.5t-84 180.5q0 109 61.5 178zM534 1603q-19 29 -50.5 45t-66.5 16q-68 0 -118.5 -35t-50.5 -109q0 -34 20 -62.5t52.5 -45t66.5 -16.5
q70 0 118 32.5t48 110.5q0 35 -19 64z" />
    <glyph glyph-name="ogonek" unicode="&#x2db;" horiz-adv-x="651" 
d="M407 59l122 -21q-254 -159 -254 -253q0 -40 17.5 -56t49.5 -16q38 0 70.5 17.5t84.5 57.5l36 -114q-68 -69 -156.5 -111.5t-190.5 -42.5q-95 0 -145 46.5t-50 127.5q0 84 64.5 157t145.5 121.5t143 72.5z" />
    <glyph glyph-name="tilde" unicode="&#x2dc;" horiz-adv-x="824" 
d="M48.5 1593q49.5 46 110 75.5t113.5 29.5q45 0 77.5 -12.5t53.5 -30.5t49 -47q31 -33 53.5 -48.5t55.5 -15.5q35 0 60.5 12.5t43.5 31t42 49.5q-1 -1 14 17l119 -145q-20 -48 -67 -97t-107 -80.5t-116 -31.5q-50 0 -85.5 12.5t-57.5 30t-49 45.5q-33 34 -58 50t-66 16
q-45 0 -77.5 -22.5t-74.5 -66.5l-106 136q23 46 72.5 92z" />
    <glyph glyph-name="hungarumlaut" unicode="&#x2dd;" horiz-adv-x="926" 
d="M405 1753l210 -137q-13 -51 -74.5 -135t-136 -159t-124.5 -99l-139 83zM898 1753l216 -143q-13 -51 -78.5 -134t-145.5 -156t-131 -97l-130 83z" />
    <glyph glyph-name="uni0326" unicode="&#x326;" horiz-adv-x="0" 
d="M-345 -141l156 104q45 -9 81.5 -39.5t57 -75.5t20.5 -97q0 -81 -34.5 -148.5t-87.5 -110t-107 -52.5l-101 70l3 26q24 14 46.5 47.5t22.5 81.5q0 38 -19.5 68t-48.5 33z" />
    <glyph glyph-name="uni0394" unicode="&#x394;" horiz-adv-x="1407" 
d="M742 1508l569 -1481l-17 -27h-1336l-12 22l764 1486h32zM688 896l-296 -608h516z" />
    <glyph glyph-name="uni03A9" unicode="&#x3a9;" horiz-adv-x="1659" 
d="M1508 724q-37 -127 -110 -250t-178 -222h310l-27 -252h-566l-70 189q96 50 174 163.5t122.5 256.5t44.5 278q0 134 -47.5 220t-121.5 124t-157 38q-172 0 -277 -111t-105 -364q0 -112 30.5 -239.5t79.5 -228t103 -137.5l-90 -189h-555l33 252h304q-106 124 -167.5 279.5
t-61.5 307.5q0 353 189 529.5t554 176.5q183 0 324 -63t221.5 -192.5t80.5 -322.5q0 -116 -37 -243z" />
    <glyph glyph-name="uni03BC" unicode="&#x3bc;" horiz-adv-x="1364" 
d="M51 -372l165 1173q2 13 2 37q0 33 -7.5 52.5t-23.5 19.5q-25 0 -44.5 -11.5t-42.5 -34.5l-48 165q16 16 67 46.5t121 55.5t139 25q94 0 153 -43t59 -129q0 -8 -2 -30l-64 -519q-4 -28 -4 -57q0 -137 105 -137q28 0 67.5 21.5t71 61t37.5 89.5l94 727h352l-109 -862
q-1 -7 -1 -21q0 -28 10 -45t24 -17q27 0 59 21.5t51 49.5l78 -133q-47 -47 -82.5 -76t-94.5 -52t-139 -23q-83 0 -131.5 30.5t-64.5 109.5q-42 -70 -96.5 -104t-124.5 -34q-47 0 -101 17t-76 59l-64 -432h-335z" />
    <glyph glyph-name="pi" unicode="&#x3c0;" horiz-adv-x="1603" 
d="M1327 256q32 19 55.5 42t57.5 60l110 -131q-31 -61 -93 -116.5t-151 -91t-194 -35.5q-115 0 -175 64t-60 186q0 26 3 56l64 561l-240 -1l-30 -442q-6 -105 -23 -168.5t-45.5 -103.5t-78.5 -84q-36 -27 -87 -46t-114 -22l-204 151q16 3 40 14.5t46 28.5q72 58 102 133.5
t42 183.5l50 355h-66q-50 0 -84.5 -11t-55.5 -26.5t-49 -42.5l-147 63q7 96 57 165.5t131.5 105.5t182.5 36h881q61 0 91 17t44 58h196q-4 -132 -39 -211.5t-106 -116t-186 -36.5h-24l-23 -495q-6 -119 57 -119q33 0 65 19z" />
    <glyph glyph-name="uni1E02" unicode="&#x1e02;" horiz-adv-x="1379" 
d="M687.5 1876q26.5 46 74 72.5t109.5 26.5q56 0 97 -21t63 -57t22 -79q0 -58 -25 -104.5t-74 -74t-119 -27.5q-49 0 -88.5 21.5t-62.5 59t-23 82.5q0 55 26.5 101zM1211 693.5q73 -82.5 73 -203.5q0 -262 -193 -384t-547 -122q-42 0 -158 8q-112 8 -147 8h-155l219 1530
h164q38 0 89 3t69 4q114 8 173 8q508 0 508 -347q0 -153 -76.5 -258t-225.5 -136q134 -28 207 -110.5zM870 965q71 61 71 193q0 82 -52 112t-154 30q-67 0 -111 -3l-56 -390q45 -3 90 -3q141 0 212 61zM763.5 253q67.5 20 106 72.5t38.5 148.5q0 75 -27.5 117.5t-85.5 60
t-155 17.5q-61 0 -107 -4l-61 -425q47 -7 122 -7q102 0 169.5 20z" />
    <glyph glyph-name="uni1E03" unicode="&#x1e03;" horiz-adv-x="1290" 
d="M1140.5 1035.5q79.5 -120.5 79.5 -311.5t-80.5 -360.5t-239.5 -274.5t-383 -105q-61 0 -133.5 14.5t-122.5 33.5l1 2l-186 -34l225 1634h343l-85 -658l-21 -121q47 121 134 211t212 90q177 0 256.5 -120.5zM708 268.5q69 74.5 103.5 191.5t34.5 243q0 209 -88 209
q-52 0 -104 -70.5t-92 -168t-58 -174.5l1 56l-45 -355q30 -6 81 -6q98 0 167 74.5zM787.5 1579q26.5 47 74.5 74.5t109 27.5q52 0 92 -22t62.5 -59t22.5 -81q0 -58 -25 -104.5t-74 -74t-119 -27.5q-44 0 -83 22t-62.5 59.5t-23.5 82.5q0 55 26.5 102z" />
    <glyph glyph-name="uni1E0A" unicode="&#x1e0a;" horiz-adv-x="1435" 
d="M725.5 1876q26.5 46 74 72.5t109.5 26.5q56 0 97 -21t63 -57t22 -79q0 -58 -25 -104.5t-74 -74t-119 -27.5q-49 0 -88.5 21.5t-62.5 59t-23 82.5q0 55 26.5 101zM1288 1384q139 -162 139 -452q0 -256 -94.5 -472t-285.5 -346t-466 -130q-46 0 -144 7l-24 1q-124 8 -185 8
h-144l219 1530h156q40 0 186 8q154 8 201 8q303 0 442 -162zM870.5 335.5q97.5 92.5 145 249.5t47.5 352q0 137 -30.5 212.5t-93 105.5t-166.5 30q-34 0 -79 -3.5t-74 -9.5l-144 -1007q63 -22 155 -22q142 0 239.5 92.5z" />
    <glyph glyph-name="uni1E0B" unicode="&#x1e0b;" horiz-adv-x="1274" 
d="M1264 1634l-211 -1634h-319l15 279q-48 -119 -134.5 -207t-208.5 -88q-177 0 -256.5 118.5t-79.5 309.5t80.5 361.5t240 276.5t382.5 106q40 0 80 -6l67 484h344zM629.5 292.5q49.5 64.5 89 155.5t61.5 172l44 317q-33 9 -76 9q-98 0 -167 -75t-104 -193.5t-35 -244.5
q0 -205 89 -205q49 0 98.5 64.5zM372.5 1579q26.5 47 74.5 74.5t109 27.5q52 0 92 -22t62.5 -59t22.5 -81q0 -58 -25 -104.5t-74 -74t-119 -27.5q-44 0 -83 22t-62.5 59.5t-23.5 82.5q0 55 26.5 102z" />
    <glyph glyph-name="uni1E1E" unicode="&#x1e1e;" horiz-adv-x="1080" 
d="M569.5 1876q26.5 46 74 72.5t109.5 26.5q56 0 97 -21t63 -57t22 -79q0 -58 -25 -104.5t-74 -74t-119 -27.5q-49 0 -88.5 21.5t-62.5 59t-23 82.5q0 55 26.5 101zM1148 1530l-42 -275l-500 4l-53 -372l428 6l-36 -291l-432 7l-87 -609h-354l219 1530h857z" />
    <glyph glyph-name="uni1E1F" unicode="&#x1e1f;" horiz-adv-x="765" 
d="M352.5 1892q26.5 47 74.5 74.5t109 27.5q52 0 92 -22t62.5 -59t22.5 -81q0 -58 -25 -104.5t-74 -74t-119 -27.5q-44 0 -83 22t-62.5 59.5t-23.5 82.5q0 55 26.5 102zM115 924l41 216h111l19 105q18 124 83 220.5t170 150.5t237 54q115 0 179 -26l-62 -238
q-13 13 -49.5 30.5t-73.5 17.5q-33 0 -57.5 -11.5t-44 -45.5t-30.5 -98l-28 -159h189l-27 -216h-187l-127 -924h-348l127 924h-122z" />
    <glyph glyph-name="uni1E20" unicode="&#x1e20;" horiz-adv-x="1427" 
d="M759 850h576l-107 -771q-46 -5 -109 -23q-115 -32 -218 -52t-224 -20q-215 0 -350 89t-194.5 230t-58.5 304q0 274 107.5 488t293 332.5t409.5 118.5q125 0 211 -16t158 -40l95 -33l-74 -322q-29 22 -89.5 50.5t-142 50t-166.5 21.5q-158 0 -257.5 -94.5t-142.5 -238.5
t-43 -300q0 -183 74 -279t223 -96q47 0 105.5 8t93.5 25l45 288h-248zM1241 1916l-20 -209h-577l20 209h577z" />
    <glyph glyph-name="uni1E21" unicode="&#x1e21;" horiz-adv-x="1269" 
d="M1208 1156l-164 -1185q-37 -268 -218 -378t-432 -110q-70 0 -154 15t-117 30l52 255q12 -11 60 -33.5t109.5 -40t116.5 -17.5q101 0 148.5 54t66.5 157l63 354q-50 -113 -133.5 -193t-199.5 -80q-177 0 -256.5 118.5t-79.5 309.5t80.5 361.5t240 276.5t382.5 106
q58 0 127 -13.5t120 -31.5zM626.5 289.5q48.5 61.5 87.5 149t62 169.5l46 334q-31 4 -74 4q-98 0 -167 -75t-104 -193.5t-35 -244.5q0 -205 89 -205q47 0 95.5 61.5zM1124 1614l-18 -219h-597l18 219h597z" />
    <glyph glyph-name="uni1E40" unicode="&#x1e40;" horiz-adv-x="1988" 
d="M976.5 1876q26.5 46 74 72.5t109.5 26.5q56 0 97 -21t63 -57t22 -79q0 -58 -25 -104.5t-74 -74t-119 -27.5q-49 0 -88.5 21.5t-62.5 59t-23 82.5q0 55 26.5 101zM903 1530l68 -1053l6 -225l48 225l355 1053h517l-24 -1530h-353l89 1139l27 234l-74 -234l-437 -1142
l-389 -15l-120 1157l-2 234l-48 -234l-248 -1139h-349l419 1530h515z" />
    <glyph glyph-name="uni1E41" unicode="&#x1e41;" horiz-adv-x="1965" 
d="M1783 1085.5q69 -70.5 69 -231.5q0 -51 -40 -344l-51 -361l-21 -149h-356q44 316 69 510q10 83 18.5 159t10.5 119q3 53 -18 76t-63 23q-52 0 -108.5 -46.5t-99.5 -124.5q-15 -113 -17 -127q-7 -55 -10 -78q-12 -92 -39 -273q-26 -187 -33 -238h-357q46 308 70 510
q25 204 28 278q3 53 -17.5 76t-63.5 23q-54 0 -116.5 -50t-106.5 -131l-98 -706h-357l156 1140h344l-14 -203q70 103 166 161t209 58q115 0 182.5 -54t82.5 -175q70 108 167.5 168.5t214.5 60.5q130 0 199 -70.5zM1052.5 1579q26.5 47 74.5 74.5t109 27.5q52 0 92 -22
t62.5 -59t22.5 -81q0 -58 -25 -104.5t-74 -74t-119 -27.5q-44 0 -83 22t-62.5 59.5t-23.5 82.5q0 55 26.5 102z" />
    <glyph glyph-name="uni1E44" unicode="&#x1e44;" horiz-adv-x="1500" 
d="M598 1530l356 -792l79 -260l13 260l97 792h342l-219 -1530h-297l-348 833l-99 275l3 -275l-115 -833h-338l219 1530h307zM720.5 1876q26.5 46 74 72.5t109.5 26.5q56 0 97 -21t63 -57t22 -79q0 -58 -25 -104.5t-74 -74t-119 -27.5q-49 0 -88.5 21.5t-62.5 59t-23 82.5
q0 55 26.5 101z" />
    <glyph glyph-name="uni1E45" unicode="&#x1e45;" horiz-adv-x="1319" 
d="M1135.5 1085.5q70.5 -70.5 70.5 -231.5q0 -32 -10 -114t-30 -229q-12 -92 -39 -273q-26 -187 -33 -238h-357q46 308 70 510q25 204 28 278q3 53 -17.5 76t-63.5 23q-56 0 -118.5 -52t-105.5 -136l-97 -699h-357l156 1140h341l-13 -206q68 104 162.5 163t206.5 59
q136 0 206.5 -70.5zM720.5 1579q26.5 47 74.5 74.5t109 27.5q52 0 92 -22t62.5 -59t22.5 -81q0 -58 -25 -104.5t-74 -74t-119 -27.5q-44 0 -83 22t-62.5 59.5t-23.5 82.5q0 55 26.5 102z" />
    <glyph glyph-name="uni1E56" unicode="&#x1e56;" horiz-adv-x="1310" 
d="M674.5 1876q26.5 46 74 72.5t109.5 26.5q56 0 97 -21t63 -57t22 -79q0 -58 -25 -104.5t-74 -74t-119 -27.5q-49 0 -88.5 21.5t-62.5 59t-23 82.5q0 55 26.5 101zM458 1530q28 0 122 6q122 10 207 10q262 0 400 -111.5t138 -329.5q0 -173 -77 -313.5t-225.5 -222.5
t-353.5 -82l-125 1q-17 1 -36 1l-70 -489h-354l218 1530h156zM892 835.5q75 83.5 84 240.5l1 24q0 100 -58.5 150t-195.5 50q-42 0 -100 -10l-77 -526q18 -5 55 -8.5t74 -3.5q142 0 217 83.5z" />
    <glyph glyph-name="uni1E57" unicode="&#x1e57;" horiz-adv-x="1285" 
d="M1135.5 1038.5q79.5 -117.5 79.5 -307.5q0 -192 -80.5 -363t-240 -277.5t-382.5 -106.5q-41 0 -83 6l-69 -482h-352l223 1632h327l-3 -233q51 105 132.5 177t191.5 72q177 0 256.5 -117.5zM703 270q69 76 104 194.5t35 245.5q0 102 -21.5 152t-66.5 50q-50 0 -100.5 -66
t-90.5 -158.5t-60 -171.5l-45 -317q30 -5 78 -5q98 0 167 76zM734.5 1579q26.5 47 74.5 74.5t109 27.5q52 0 92 -22t62.5 -59t22.5 -81q0 -58 -25 -104.5t-74 -74t-119 -27.5q-44 0 -83 22t-62.5 59.5t-23.5 82.5q0 55 26.5 102z" />
    <glyph glyph-name="uni1E60" unicode="&#x1e60;" horiz-adv-x="1070" 
d="M535.5 1876q26.5 46 74 72.5t109.5 26.5q56 0 97 -21t63 -57t22 -79q0 -58 -25 -104.5t-74 -74t-119 -27.5q-49 0 -88.5 21.5t-62.5 59t-23 82.5q0 55 26.5 101zM262.5 298q85.5 -31 157.5 -31q108 0 156 43t48 115q0 43 -17.5 77.5t-56.5 71.5t-114 94
q-110 83 -183 188.5t-73 232.5q0 138 66 241.5t187 159.5t281 56q120 0 217.5 -26t143.5 -59l-112 -281q-35 35 -110 61t-149 26q-92 0 -139 -40.5t-47 -99.5q0 -44 23.5 -84t62 -75.5t105.5 -88.5q79 -63 136.5 -120.5t99 -134.5t41.5 -166q0 -153 -72.5 -259.5
t-204 -160.5t-306.5 -54q-74 0 -157 15.5t-149 38.5t-90 42l120 288q50 -39 135.5 -70z" />
    <glyph glyph-name="uni1E61" unicode="&#x1e61;" horiz-adv-x="977" 
d="M180.5 290q48.5 -24 103.5 -40.5t95 -16.5q67 0 106 18t39 65q0 36 -31 67t-98 81q-51 37 -79 61q-72 61 -112.5 130t-40.5 169q0 101 57 176t162 115.5t244 40.5q74 0 157 -13t110 -24l-38 -299q-31 32 -100 60.5t-136 28.5q-62 0 -93.5 -22.5t-31.5 -56.5
q0 -36 20.5 -60.5t75.5 -67.5q46 -37 70 -58q72 -56 115 -101t64.5 -96t21.5 -116q0 -125 -66 -202.5t-172.5 -111t-235.5 -33.5q-64 0 -134 10.5t-124 27t-73 31.5l56 280q20 -19 68.5 -43zM503.5 1579q26.5 47 74.5 74.5t109 27.5q52 0 92 -22t62.5 -59t22.5 -81
q0 -58 -25 -104.5t-74 -74t-119 -27.5q-44 0 -83 22t-62.5 59.5t-23.5 82.5q0 55 26.5 102z" />
    <glyph glyph-name="uni1E6A" unicode="&#x1e6a;" horiz-adv-x="1165" 
d="M579.5 1876q26.5 46 74 72.5t109.5 26.5q56 0 97 -21t63 -57t22 -79q0 -58 -25 -104.5t-74 -74t-119 -27.5q-49 0 -88.5 21.5t-62.5 59t-23 82.5q0 55 26.5 101zM148 1255l44 275h1067l-40 -275l-352 11l-181 -1266h-360l181 1266z" />
    <glyph glyph-name="uni1E6B" unicode="&#x1e6b;" horiz-adv-x="839" 
d="M218 924h-84l36 216h105l98 276h267l-37 -276h222l-23 -216h-227l-70 -507q-1 -8 -2 -16.5t-3 -17.5q-9 -74 -9 -95q0 -29 14.5 -46.5t55.5 -17.5q33 0 87.5 25.5t87.5 56.5l54 -170q-79 -63 -188 -109.5t-242 -46.5q-109 0 -172 56.5t-63 158.5q0 14 6.5 80t14.5 123z
M406.5 1718q26.5 47 74.5 74.5t109 27.5q52 0 92 -22t62.5 -59t22.5 -81q0 -58 -25 -104.5t-74 -74t-119 -27.5q-44 0 -83 22t-62.5 59.5t-23.5 82.5q0 55 26.5 102z" />
    <glyph glyph-name="Wgrave" unicode="&#x1e80;" horiz-adv-x="1815" 
d="M879 2014l279 -342l-143 -122q-50 18 -122.5 66t-135.5 105.5t-88 105.5zM2013 1530l-595 -1530h-413l-57 546l-18 168l-61 -168l-200 -546h-375l-185 1530h357l59 -980l20 -222l68 222l258 641l-37 339h345l60 -980l23 -222l53 222l334 980h364z" />
    <glyph glyph-name="wgrave" unicode="&#x1e81;" horiz-adv-x="1763" 
d="M1726 1104.5q5 -31.5 5 -122.5q0 -258 -149.5 -502.5t-423.5 -471.5l-20 -17l-259 -12l-54 360q-109 -177 -280 -331l-20 -17l-275 -12l-55 376l-103 785h361l59 -665l13 -209l59 76q63 97 116 221t75 247l-34 330h343l48 -665l13 -209l59 76q60 94 105.5 217.5
t66.5 257.5q9 59 17.5 156t8.5 167h318q1 -4 6 -35.5zM711 1774l334 -449l-124 -99q-57 22 -149 91.5t-172 146t-98 110.5z" />
    <glyph glyph-name="Wacute" unicode="&#x1e82;" horiz-adv-x="1815" 
d="M1210 2014l210 -187q-25 -48 -88 -105.5t-135.5 -105.5t-122.5 -66l-143 122zM2013 1530l-595 -1530h-413l-57 546l-18 168l-61 -168l-200 -546h-375l-185 1530h357l59 -980l20 -222l68 222l258 641l-37 339h345l60 -980l23 -222l53 222l334 980h364z" />
    <glyph glyph-name="wacute" unicode="&#x1e83;" horiz-adv-x="1763" 
d="M1147 1774l209 -200q-18 -34 -98 -110.5t-172 -146t-149 -91.5l-124 99zM1726 1104.5q5 -31.5 5 -122.5q0 -258 -149.5 -502.5t-423.5 -471.5l-20 -17l-259 -12l-54 360q-109 -177 -280 -331l-20 -17l-275 -12l-55 376l-103 785h361l59 -665l13 -209l59 76q63 97 116 221
t75 247l-34 330h343l48 -665l13 -209l59 76q60 94 105.5 217.5t66.5 257.5q9 59 17.5 156t8.5 167h318q1 -4 6 -35.5z" />
    <glyph glyph-name="Wdieresis" unicode="&#x1e84;" horiz-adv-x="1815" 
d="M664.5 1896.5q22.5 45.5 64.5 72t97 26.5q45 0 80.5 -22.5t55 -58.5t19.5 -76q0 -91 -47.5 -148.5t-141.5 -57.5q-38 0 -73 23.5t-56 62t-21 78.5q0 55 22.5 100.5zM1138 1896.5q22 45.5 63 72t96 26.5q46 0 82 -22.5t56 -59t20 -75.5q0 -90 -48.5 -148t-142.5 -58
q-39 0 -73 23.5t-54.5 61.5t-20.5 78q0 56 22 101.5zM2013 1530l-595 -1530h-413l-57 546l-18 168l-61 -168l-200 -546h-375l-185 1530h357l59 -980l20 -222l68 222l258 641l-37 339h345l60 -980l23 -222l53 222l334 980h364z" />
    <glyph glyph-name="wdieresis" unicode="&#x1e85;" horiz-adv-x="1763" 
d="M585.5 1602.5q22.5 45.5 64.5 72t97 26.5q45 0 80.5 -22.5t55 -58.5t19.5 -76q0 -91 -47.5 -148.5t-141.5 -57.5q-38 0 -73 23.5t-56 62t-21 78.5q0 55 22.5 100.5zM1059 1602.5q22 45.5 63 72t96 26.5q46 0 82 -22.5t56 -59t20 -75.5q0 -90 -48.5 -148t-142.5 -58
q-39 0 -73 23.5t-54.5 61.5t-20.5 78q0 56 22 101.5zM1726 1104.5q5 -31.5 5 -122.5q0 -258 -149.5 -502.5t-423.5 -471.5l-20 -17l-259 -12l-54 360q-109 -177 -280 -331l-20 -17l-275 -12l-55 376l-103 785h361l59 -665l13 -209l59 76q63 97 116 221t75 247l-34 330h343
l48 -665l13 -209l59 76q60 94 105.5 217.5t66.5 257.5q9 59 17.5 156t8.5 167h318q1 -4 6 -35.5z" />
    <glyph glyph-name="uni1E8E" unicode="&#x1e8e;" horiz-adv-x="1164" 
d="M83 1530h372l141 -525l25 -134l58 134l284 525h393l-600 -940l-85 -590h-354l85 590zM547.5 1876q26.5 46 74 72.5t109.5 26.5q56 0 97 -21t63 -57t22 -79q0 -58 -25 -104.5t-74 -74t-119 -27.5q-49 0 -88.5 21.5t-62.5 59t-23 82.5q0 55 26.5 101z" />
    <glyph glyph-name="uni1E8F" unicode="&#x1e8f;" horiz-adv-x="1140" 
d="M1100 987q0 -303 -149 -655q-60 -142 -130 -263.5t-139 -216.5q-15 -20 -43 -60q-80 -111 -135.5 -171.5t-137 -99t-198.5 -38.5q-74 0 -140 21.5t-120 53.5l89 244q36 -25 85.5 -43t88.5 -18q59 0 104.5 22.5t90.5 73t105 143.5h-206l-56 375l-114 785h352l74 -685
l33 -317q66 136 118 300q33 96 50.5 164t28.5 152.5t20 223.5q3 39 3 111v51h320q6 -30 6 -153zM472.5 1579q26.5 47 74.5 74.5t109 27.5q52 0 92 -22t62.5 -59t22.5 -81q0 -58 -25 -104.5t-74 -74t-119 -27.5q-44 0 -83 22t-62.5 59.5t-23.5 82.5q0 55 26.5 102z" />
    <glyph glyph-name="uni1E9E" unicode="&#x1e9e;" horiz-adv-x="1512" 
d="M1393 725.5q-53 83.5 -131.5 127t-152.5 43.5l304 334l31 213q-25 0 -53.5 7t-81.5 24q-100 30 -181.5 47t-190.5 17q-216 0 -377.5 -94t-260 -270t-129.5 -421l-105 -753h310l121 868q27 223 137.5 338.5t279.5 115.5q56 0 105 -12.5t82 -33.5l-338 -397l-21 -142
q202 0 296 -60.5t94 -180.5q0 -103 -40.5 -171t-100.5 -99t-122 -31q-71 0 -137 24t-101 54l-117 -215q66 -38 149.5 -59.5t228.5 -21.5q158 0 284.5 71.5t198.5 198t72 284.5q0 111 -53 194.5z" />
    <glyph glyph-name="Ygrave" unicode="&#x1ef2;" horiz-adv-x="1164" 
d="M83 1530h372l141 -525l25 -134l58 134l284 525h393l-600 -940l-85 -590h-354l85 590zM541 2014l279 -342l-143 -122q-50 18 -122.5 66t-135.5 105.5t-88 105.5z" />
    <glyph glyph-name="ygrave" unicode="&#x1ef3;" horiz-adv-x="1140" 
d="M1100 987q0 -303 -149 -655q-60 -142 -130 -263.5t-139 -216.5q-15 -20 -43 -60q-80 -111 -135.5 -171.5t-137 -99t-198.5 -38.5q-74 0 -140 21.5t-120 53.5l89 244q36 -25 85.5 -43t88.5 -18q59 0 104.5 22.5t90.5 73t105 143.5h-206l-56 375l-114 785h352l74 -685
l33 -317q66 136 118 300q33 96 50.5 164t28.5 152.5t20 223.5q3 39 3 111v51h320q6 -30 6 -153zM369 1774l334 -449l-124 -99q-57 22 -149 91.5t-172 146t-98 110.5z" />
    <glyph glyph-name="endash" unicode="&#x2013;" horiz-adv-x="1538" 
d="M1359 896l-37 -248h-1099l37 248h1099z" />
    <glyph glyph-name="emdash" unicode="&#x2014;" horiz-adv-x="2031" 
d="M1832 896l-37 -248h-1572l37 248h1572z" />
    <glyph glyph-name="quoteleft" unicode="&#x2018;" horiz-adv-x="709" 
d="M261.5 1481.5q55.5 109.5 137 183t161.5 106.5l115 -141l-2 -22q-37 -19 -71.5 -62t-56.5 -106t-22 -139q0 -59 19 -126t43 -91l-5 -41l-192 -156q-45 25 -86 72.5t-68.5 119.5t-27.5 161q0 132 55.5 241.5z" />
    <glyph glyph-name="quoteright" unicode="&#x2019;" horiz-adv-x="709" 
d="M583.5 1175.5q-55.5 -109.5 -137 -183t-161.5 -106.5l-115 141l2 22q37 19 71.5 62t56.5 106t22 139q0 59 -19 126t-43 91l5 41l192 156q45 -25 86 -72.5t68.5 -119.5t27.5 -161q0 -132 -55.5 -241.5z" />
    <glyph glyph-name="quotesinglbase" unicode="&#x201a;" horiz-adv-x="709" 
d="M427.5 -263.5q-55.5 -109.5 -137 -183t-161.5 -106.5l-115 141l2 22q37 19 71.5 62t56.5 106t22 139q0 59 -19 126t-43 91l5 41l192 156q45 -25 86 -72.5t68.5 -119.5t27.5 -161q0 -132 -55.5 -241.5z" />
    <glyph glyph-name="quotereversed" unicode="&#x201b;" horiz-adv-x="688" 
d="M249.5 1564q43.5 89 111 143.5t136.5 63.5l137 -204l-6 -41q-65 -23 -106 -92.5t-41 -153.5q0 -78 33 -149t72 -106l-4 -22l-132 -117q-109 87 -176.5 210.5t-67.5 272.5q0 106 43.5 195z" />
    <glyph glyph-name="quotedblleft" unicode="&#x201c;" horiz-adv-x="1248" 
d="M800.5 1481.5q55.5 109.5 137 183t161.5 106.5l115 -141l-2 -22q-37 -19 -71.5 -62t-56.5 -106t-22 -139q0 -59 19 -126t43 -91l-5 -41l-192 -156q-45 25 -86 72.5t-68.5 119.5t-27.5 161q0 132 55.5 241.5zM261.5 1481.5q55.5 109.5 137 183t161.5 106.5l115 -141
l-2 -22q-37 -19 -71.5 -62t-56.5 -106t-22 -139q0 -59 19 -126t43 -91l-5 -41l-192 -156q-45 25 -86 72.5t-68.5 119.5t-27.5 161q0 132 55.5 241.5z" />
    <glyph glyph-name="quotedblright" unicode="&#x201d;" horiz-adv-x="1247" 
d="M613.5 1175.5q-55.5 -109.5 -137 -183t-161.5 -106.5l-115 141l2 22q37 19 71.5 62t56.5 106t22 139q0 59 -19 126t-43 91l5 41l192 156q45 -25 86 -72.5t68.5 -119.5t27.5 -161q0 -132 -55.5 -241.5zM1158.5 1175.5q-55.5 -109.5 -137 -183t-161.5 -106.5l-115 141l2 22
q37 19 71.5 62t56.5 106t22 139q0 59 -19 126t-43 91l5 41l192 156q45 -25 86 -72.5t68.5 -119.5t27.5 -161q0 -132 -55.5 -241.5z" />
    <glyph glyph-name="quotedblbase" unicode="&#x201e;" horiz-adv-x="1247" 
d="M427.5 -263.5q-55.5 -109.5 -137 -183t-161.5 -106.5l-115 141l2 22q37 19 71.5 62t56.5 106t22 139q0 59 -19 126t-43 91l5 41l192 156q45 -25 86 -72.5t68.5 -119.5t27.5 -161q0 -132 -55.5 -241.5zM965.5 -263.5q-55.5 -109.5 -137 -183t-161.5 -106.5l-115 141l2 22
q37 19 71.5 62t56.5 106t22 139q0 59 -19 126t-43 91l5 41l192 156q45 -25 86 -72.5t68.5 -119.5t27.5 -161q0 -132 -55.5 -241.5z" />
    <glyph glyph-name="dagger" unicode="&#x2020;" horiz-adv-x="815" 
d="M362 1063h-239l34 214h250l22 192l24 177h250l-30 -177l-41 -192h253l-33 -214h-241l-16 -119l-133 -793h-217l101 793z" />
    <glyph glyph-name="daggerdbl" unicode="&#x2021;" horiz-adv-x="815" 
d="M299 576h-241l31 203h236l21 165l16 119h-236l32 214h249l22 192l24 177h250l-30 -177l-39 -192h251l-33 -214h-241l-16 -119l-28 -165h258l-28 -203h-264l-23 -224l-100 -403h-172l21 391z" />
    <glyph glyph-name="bullet" unicode="&#x2022;" horiz-adv-x="858" 
d="M266.5 803q33.5 60 91.5 98t126 38q50 0 90 -22.5t63 -61.5t23 -88q0 -61 -31.5 -121.5t-89 -99.5t-130.5 -39q-49 0 -89.5 23.5t-63.5 64t-23 88.5q0 60 33.5 120z" />
    <glyph glyph-name="ellipsis" unicode="&#x2026;" horiz-adv-x="1578" 
d="M360 296.5q39 -41.5 39 -107.5q0 -65 -26.5 -114.5t-74.5 -76.5t-112 -27q-72 0 -114 42t-42 110q0 57 25.5 106t73 79t109.5 30q83 0 122 -41.5zM886 296.5q39 -41.5 39 -107.5q0 -65 -26.5 -114.5t-74.5 -76.5t-112 -27q-72 0 -114 42t-42 110q0 57 25.5 106t73 79
t109.5 30q83 0 122 -41.5zM1412 296.5q39 -41.5 39 -107.5q0 -65 -26.5 -114.5t-74.5 -76.5t-112 -27q-72 0 -114 42t-42 110q0 57 25.5 106t73 79t109.5 30q83 0 122 -41.5z" />
    <glyph glyph-name="perthousand" unicode="&#x2030;" horiz-adv-x="2910" 
d="M165.5 1275q63.5 115 174.5 186t246 71q167 0 245.5 -90t78.5 -254q0 -130 -60 -249t-170.5 -192.5t-252.5 -73.5q-158 0 -241.5 95.5t-83.5 266.5q0 125 63.5 240zM1512 1530l-707 -1530h-269l727 1530h249zM632.5 1282.5q-32.5 44.5 -90.5 44.5q-64 0 -111 -44
t-70.5 -108.5t-23.5 -122.5q0 -77 35.5 -124.5t97.5 -47.5q63 0 107 46t66 111.5t22 123.5q0 77 -32.5 121.5zM1902.5 828q78.5 -90 78.5 -254q0 -130 -60 -249t-170.5 -192.5t-252.5 -73.5q-158 0 -241.5 95.5t-83.5 266.5q0 125 63.5 240t174.5 186t246 71
q167 0 245.5 -90zM2810.5 828q78.5 -90 78.5 -254q0 -130 -60 -249t-170.5 -192.5t-252.5 -73.5q-158 0 -241.5 95.5t-83.5 266.5q0 125 63.5 240t174.5 186t246 71q167 0 245.5 -90zM1648 312q44 46 66 111.5t22 123.5q0 77 -32.5 121.5t-90.5 44.5q-64 0 -111 -44
t-70.5 -108.5t-23.5 -122.5q0 -77 35.5 -124.5t97.5 -47.5q63 0 107 46zM2556 312q44 46 66 111.5t22 123.5q0 77 -32.5 121.5t-90.5 44.5q-64 0 -111 -44t-70.5 -108.5t-23.5 -122.5q0 -77 35.5 -124.5t97.5 -47.5q63 0 107 46z" />
    <glyph glyph-name="minute" unicode="&#x2032;" horiz-adv-x="623" 
d="M654 1782l-191 -592h-238l124 592h305z" />
    <glyph glyph-name="second" unicode="&#x2033;" horiz-adv-x="1091" 
d="M654 1782l-191 -592h-238l124 592h305zM1122 1782l-191 -592h-238l124 592h305z" />
    <glyph glyph-name="guilsinglleft" unicode="&#x2039;" horiz-adv-x="1190" 
d="M948 1116l58 -205l-430 -306l364 -301l-110 -172l-656 398l32 190z" />
    <glyph glyph-name="guilsinglright" unicode="&#x203a;" horiz-adv-x="1190" 
d="M271 122l-58 205l430 306l-364 301l110 172l656 -398l-32 -190z" />
    <glyph glyph-name="exclamdbl" unicode="&#x203c;" horiz-adv-x="1303" 
d="M1320 1778l-243 -1290h-258l136 1290h365zM1043 296.5q39 -41.5 39 -107.5q0 -65 -26.5 -114.5t-74.5 -76.5t-112 -27q-72 0 -114 42t-42 110q0 57 25.5 106t73 79t109.5 30q83 0 122 -41.5zM702 1778l-243 -1290h-258l136 1290h365zM425 296.5q39 -41.5 39 -107.5
q0 -65 -26.5 -114.5t-74.5 -76.5t-112 -27q-72 0 -114 42t-42 110q0 57 25.5 106t73 79t109.5 30q83 0 122 -41.5z" />
    <glyph glyph-name="fraction" unicode="&#x2044;" horiz-adv-x="1026" 
d="M1019 1530l-681 -1530h-259l681 1530h259z" />
    <glyph glyph-name="colonmonetary" unicode="&#x20a1;" horiz-adv-x="1414" 
d="M757 -16q20 0 58 2l-50 -329h110l51 340q112 17 198.5 53t133.5 83l-66 184q-60 -38 -115 -64t-118 -40l164 1089q59 -11 101 -26t57 -29l72 245q-16 4 -24 7q-50 13 -86.5 21.5t-83.5 14.5l42 278h-109l-41 -269q-40 2 -64 2q-16 0 -50 -2l41 269h-109l-43 -284
q-183 -39 -324 -159.5t-220 -308t-79 -419.5q0 -146 39 -276.5t126.5 -227.5t226.5 -134l-52 -347h109l50 329q38 -2 55 -2zM901 1307q40 8 76 8l39 -1l-169 -1116q-11 -1 -33 -1q-43 0 -79 9zM634 262q-107 103 -107 360q0 225 68 394t190 245z" />
    <glyph glyph-name="franc" unicode="&#x20a3;" horiz-adv-x="1268" 
d="M155 0h320l28 205h299l33 228h-300l28 198l441 -9l31 264l-437 -6l56 406l521 -5l36 249h-842l-154 -1097h-219l-33 -228h220z" />
    <glyph glyph-name="lira" unicode="&#x20a4;" horiz-adv-x="1506" 
d="M371 736h-186l-15 -154h175l-17 -98q-11 -65 -31.5 -113t-44.5 -72q-68 -4 -130 -30t-100.5 -69t-38.5 -96q0 -52 37 -88t106 -36q55 0 116.5 30.5t101.5 78.5q62 -8 189 -42q124 -33 214 -50t198 -17q286 0 385.5 116t99.5 272q0 52 -21 109t-58 104.5t-84 72.5
l-197 -158q14 -7 32 -27.5t31 -47t13 -52.5q0 -73 -68.5 -116t-204.5 -43q-77 0 -174.5 19t-160.5 40q41 52 70 123t48 187v3h278l15 154h-267l26 153h285l14 154h-274l2 8q18 107 50 169t78.5 87.5t111.5 25.5q56 0 103.5 -24t78.5 -55t37 -49l153 230q-51 42 -143.5 76
t-236.5 34q-163 0 -277 -67t-177.5 -174.5t-83.5 -232.5l-5 -28h-180l-15 -154h169z" />
    <glyph glyph-name="uni20A6" unicode="&#x20a6;" horiz-adv-x="1898" 
d="M304 545h-254l-21 -147h254l-55 -398h312l55 398h423l190 -398h304l55 398h225l21 147h-225l60 428h247l20 147h-247l57 402h-312l-57 -402h-428l-196 402h-291l-57 -402h-241l-20 -147h241zM663 1146l13 -26h-14zM744 973l49 -105l154 -323h-331l31 220l9 208h88z
M1167 632l-167 341h336l-33 -233l-10 -195h-87zM1285 367l-14 31h15z" />
    <glyph glyph-name="peseta" unicode="&#x20a7;" horiz-adv-x="1604" 
d="M193 0h330l64 476q48 -4 188 -4q267 0 436 116.5t224 338.5h180l20 147h-177q3 32 3 61q0 213 -129 309t-378 96q-73 0 -145 -4t-83 -5q-103 -7 -164 -7h-161l-62 -450h-171l-20 -147h171zM1082.5 1252q59.5 -62 55.5 -178h-469l31 225q44 7 99 11t98 4q126 0 185.5 -62z
M1114 927q-67 -224 -309 -224q-112 -1 -185 9l29 215h465z" />
    <glyph glyph-name="uni20A9" unicode="&#x20a9;" horiz-adv-x="2217" 
d="M363 782h-277l-19 -171h318l79 -613h337l228 613h78l65 -613h367l241 613h347l17 171h-297l72 185h250l19 171h-201l154 392h-308l-145 -392h-362l-36 392h-291l34 -312l-32 -80h-393l-38 392h-302l50 -392h-191l-18 -171h231zM859 782h-217l-18 185h309zM1556 782h-198
l-17 185h284zM659 611h131l-34 -86l-66 -221l-23 221zM1374 611h119l-32 -86l-58 -221l-21 221z" />
    <glyph glyph-name="uni20AA" unicode="&#x20aa;" horiz-adv-x="1989" 
d="M945 1317q82 0 130.5 -19.5t70 -60.5t21.5 -107q0 -28 -5 -71l-123 -692h291l125 735q5 45 5 82q0 150 -78.5 244t-262.5 94h-864l-236 -1522h282l220 1317h424zM1156 204q-116 0 -183 13t-98.5 45.5t-31.5 91.5q0 10 2 32l123 780h-292l-131 -840q-2 -14 -2 -40
q0 -98 56 -162t149 -94t206 -30h807l216 1522h-290l-189 -1318h-342z" />
    <glyph glyph-name="dong" unicode="&#x20ab;" horiz-adv-x="1390" 
d="M1231 1357h214l23 164h-214l25 173h-297l-25 -173h-266l-23 -164h265l-15 -131q-70 22 -167 22q-171 0 -306 -75t-211.5 -212t-76.5 -315q0 -117 46.5 -196.5t126.5 -119t182 -39.5q119 0 192.5 32t127.5 77l-9 -72l-1 -11q0 -26 18 -26h241zM489.5 865.5
q29.5 81.5 90 129t149.5 47.5q115 0 152 -37l-60 -431q-3 -2 -29.5 -21.5t-77 -33t-112.5 -13.5q-64 0 -103 44t-39 133q0 101 29.5 182.5zM1160 193h-1085l-27 -193h1085z" />
    <glyph glyph-name="Euro" unicode="&#x20ac;" horiz-adv-x="1389" 
d="M1146 1535.5q57 -10.5 129 -32.5q19 -7 34 -11l-74 -269q-13 15 -50.5 31t-89 27t-104.5 11q-108 0 -192.5 -66t-140.5 -184h464l-19 -182h-504q-15 -74 -21 -154h505l-15 -182h-489q14 -150 79 -229t185 -79q89 0 161 33.5t146 90.5l70 -201q-37 -41 -102.5 -76.5
t-153 -57t-186.5 -21.5q-178 0 -296.5 74t-179.5 195t-77 271h-202l19 182h179q3 70 18 154h-171l19 182h203q60 155 165 268.5t243.5 174.5t296.5 61q94 0 151 -10.5z" />
    <glyph glyph-name="uni20B1" unicode="&#x20b1;" horiz-adv-x="1527" 
d="M295 901h-142l-15 -107h142l-110 -794h320l60 433q28 -4 170 -4q136 0 249.5 46.5t197.5 128.5t136 190h176l15 107h-149q29 95 30 193h135l15 107h-156q-26 173 -156 259t-357 86q-65 0 -198 -9q-84 -7 -128 -7h-147l-46 -329h-153l-15 -107h153zM963.5 1292
q59.5 -30 81.5 -91h-389l16 108q27 6 64 9.5t63 3.5q105 0 164.5 -30zM641 1094h418v-4q-5 -104 -36 -189h-409zM967 794q-44 -59 -104.5 -91.5t-136.5 -32.5q-40 0 -82 3t-60 9l15 112h368z" />
    <glyph glyph-name="uni20B2" unicode="&#x20b2;" horiz-adv-x="1517" 
d="M842 -7q79 9 149 25t146 39q72 21 115 25l102 741h-544l-30 -253h245l-46 -303q-42 -22 -107.5 -32t-118.5 -10q-154 0 -229.5 108t-75.5 299q0 159 46 308t149.5 247t266.5 98q85 0 163.5 -19.5t136 -46t86.5 -48.5l71 291l-82 28q-125 39 -258 51l34 233h-200l-35 -234
q-200 -24 -360.5 -147t-251.5 -325.5t-90 -456.5q0 -155 51.5 -291t167.5 -227.5t299 -105.5l-32 -245h200z" />
    <glyph glyph-name="uni20B5" unicode="&#x20b5;" horiz-adv-x="1451" 
d="M1010 30.5q116 41.5 170 102.5l-66 184q-79 -57 -155 -88.5t-176 -31.5h-4l156 1117l11 1q59 0 113 -10.5t92 -26.5t52 -31l72 245l-27 8q-66 21 -127 32.5t-153 13.5l37 267h-123l-39 -275q-195 -28 -347.5 -147.5t-238.5 -313.5t-86 -435q0 -156 45.5 -294.5
t147.5 -235.5t263 -121l-47 -335h124l46 329q144 4 260 45.5zM659 223q-83 41 -123.5 143.5t-40.5 256.5q0 164 37.5 300.5t108 231t167.5 134.5z" />
    <glyph glyph-name="uni20B9" unicode="&#x20b9;" horiz-adv-x="1463" 
d="M1051 746.5q85 96.5 119 229.5h173l27 168h-178v8q0 115 -72 201h286l26 171h-1137l-25 -171h462q111 -38 111 -172l-1 -37h-581l-27 -168h577q-76 -212 -341 -212q-190 0 -259 8l-35 -189q29 -2 123.5 -5t147.5 -3h42q40 -37 71.5 -112t75.5 -205q42 -130 72 -194
t65 -64h391q-54 53 -95 131.5t-94 204.5q-43 102 -73 162.5t-65 99.5q129 52 214 148.5z" />
    <glyph glyph-name="uni20BA" unicode="&#x20ba;" horiz-adv-x="1452" 
d="M621 253l-2 10l61 452l411 177l17 182l-403 -173l24 178l431 186l17 185l-423 -183l35 259h-336l-52 -411l-324 -140l-18 -185l318 137l-23 -176l-313 -134l-17 -183l307 131l-72 -565h336q231 0 397 80t262 228.5t123 355.5l7 55h-328q-19 -152 -62.5 -250.5
t-132.5 -152.5t-239 -54z" />
    <glyph glyph-name="uni2113" unicode="&#x2113;" horiz-adv-x="1387" 
d="M1285 383q-59 -113 -118 -194t-177 -148.5t-295 -67.5q-75 0 -159 38t-150 116q-64 -42 -152 -94l-274 159q148 79 306 193q-18 83 -18 185q0 239 79 490t233 420t364 169q157 0 241.5 -92.5t84.5 -267.5q0 -254 -168.5 -508.5t-457.5 -483.5q44 -56 120 -56
q90 0 156.5 66t123.5 177zM743 1252.5q-65 -108.5 -113 -278t-60 -340.5q163 155 259.5 312t96.5 302q0 50 -12 81.5t-47 31.5q-59 0 -124 -108.5z" />
    <glyph glyph-name="uni2116" unicode="&#x2116;" horiz-adv-x="2512" 
d="M2351 1474q84 -58 123 -151.5t39 -204.5q0 -161 -65.5 -299.5t-195 -222.5t-310.5 -84q-129 0 -213 58t-123 151.5t-39 204.5q0 161 65.5 299.5t195 222.5t310.5 84q129 0 213 -58zM611 1530l319 -762l88 -258l21 262l87 758h328l-193 -1530h-303l-315 776l-105 299
l-17 -297l-104 -778h-325l193 1530h326zM2146.5 824.5q49.5 127.5 49.5 310.5q0 213 -106 213q-73 0 -120.5 -65t-69 -166.5t-21.5 -215.5q0 -98 27 -151t81 -53q110 0 159.5 127.5zM2389 207l-18 -207h-853l18 207h853z" />
    <glyph glyph-name="trademark" unicode="&#x2122;" horiz-adv-x="2120" 
d="M179 1360l28 170h666l-22 -170h-240l-94 -646l-191 -1l94 647h-241zM1356 1530l87 -396l25 -183l240 579h318l-37 -816h-194l41 541l17 185l-38 -90l-277 -644h-177l-121 549l-34 185l-30 -185l-82 -541h-201l150 816h313z" />
    <glyph glyph-name="uni2126" unicode="&#x2126;" horiz-adv-x="1659" 
d="M1508 724q-37 -127 -110 -250t-178 -222h310l-27 -252h-566l-70 189q96 50 174 163.5t122.5 256.5t44.5 278q0 134 -47.5 220t-121.5 124t-157 38q-172 0 -277 -111t-105 -364q0 -112 30.5 -239.5t79.5 -228t103 -137.5l-90 -189h-555l33 252h304q-106 124 -167.5 279.5
t-61.5 307.5q0 353 189 529.5t554 176.5q183 0 324 -63t221.5 -192.5t80.5 -322.5q0 -116 -37 -243z" />
    <glyph glyph-name="estimated" unicode="&#x212e;" horiz-adv-x="1442" 
d="M500 612v-390q104 -75 280 -75q117 0 220.5 35.5t165.5 83.5l73 -151q-75 -52 -202.5 -91.5t-265.5 -39.5q-202 0 -347.5 82t-222 236.5t-76.5 368.5q0 200 70.5 353t214 241t355.5 91q151 3 275 -60.5t197.5 -183t78.5 -280.5q0 -85 -1.5 -135.5t-8.5 -84.5h-806z
M751 1193q-156 0 -251 -72v-353h454v385q-80 40 -203 40z" />
    <glyph glyph-name="partialdiff" unicode="&#x2202;" horiz-adv-x="1354" 
d="M820.5 1084.5q52.5 -13.5 99.5 -38.5q-35 195 -147 308t-284 113q-64 0 -134 -22t-119 -58l-112 200q84 69 191.5 107t218.5 38q247 0 414.5 -130.5t248.5 -343t81 -461.5q0 -409 -156.5 -611t-476.5 -202q-141 0 -261.5 76t-191.5 205.5t-71 282.5q0 199 81 322
t210.5 175.5t284.5 52.5q71 0 123.5 -13.5zM830.5 854.5q-52.5 19.5 -117.5 19.5q-122 0 -180.5 -74.5t-58.5 -234.5q0 -156 53 -245.5t182 -89.5q98 0 147.5 78.5t63.5 182.5t14 226v79q-51 39 -103.5 58.5z" />
    <glyph glyph-name="uni2206" unicode="&#x2206;" horiz-adv-x="1407" 
d="M742 1508l569 -1481l-17 -27h-1336l-12 22l764 1486h32zM688 896l-296 -608h516z" />
    <glyph glyph-name="product" unicode="&#x220f;" horiz-adv-x="1716" 
d="M168 1246v276h1577v-276l-231 -1v-1417h-376v1417h-368v-1417h-377v1417z" />
    <glyph glyph-name="summation" unicode="&#x2211;" horiz-adv-x="1503" 
d="M163 1442l30 80h1098v-279h-604l391 -554l-389 -592h660v-267h-1160l-26 71l547 782z" />
    <glyph glyph-name="minus" unicode="&#x2212;" horiz-adv-x="1266" 
d="M1100 896l-37 -248h-840l37 248h840z" />
    <glyph glyph-name="uni2215" unicode="&#x2215;" horiz-adv-x="854" 
d="M719 1597h274l-863 -1959h-272z" />
    <glyph glyph-name="uni2219" unicode="&#x2219;" horiz-adv-x="686" 
d="M479 942.5q39 -41.5 39 -107.5q0 -65 -26.5 -114.5t-74.5 -76.5t-112 -27q-72 0 -114 42t-42 110q0 57 25.5 106t73 79t109.5 30q83 0 122 -41.5z" />
    <glyph glyph-name="radical" unicode="&#x221a;" horiz-adv-x="1647" 
d="M382 716h262l214 -640l480 1794h367l-685 -2224h-317l-311 732l-167 -84l-126 281z" />
    <glyph glyph-name="infinity" unicode="&#x221e;" horiz-adv-x="2101" 
d="M149 857q62 105 177.5 166t268.5 61q175 0 293.5 -62t202.5 -171q91 103 203.5 165.5t243.5 62.5q168 0 281 -62.5t167.5 -168t54.5 -235.5t-62 -236.5t-178.5 -169t-271.5 -62.5q-178 0 -294.5 60t-197.5 167q-189 -219 -426 -222q-172 -2 -290 62t-176 173t-58 239
q0 128 62 233zM1634 427.5q45 27.5 70.5 78.5t25.5 119q0 58 -27 105t-81 74t-132 27q-146 0 -275 -161q63 -116 143 -193t172 -77q59 0 104 27.5zM766 748.5q-83 76.5 -174 76.5q-57 0 -101.5 -26t-69.5 -73.5t-25 -111.5q0 -58 26.5 -107.5t79.5 -79t130 -29.5
q147 0 280 160q-63 114 -146 190.5z" />
    <glyph glyph-name="integral" unicode="&#x222b;" horiz-adv-x="1087" 
d="M571.5 -208.5q43.5 65.5 41.5 183.5q-1 89 -29 183t-69 181t-108 214q-71 136 -114 228.5t-73.5 195.5t-31.5 204q-3 144 52 257.5t171 179.5t290 66q104 0 196.5 -37.5t129.5 -99.5l-131 -183q-8 16 -34 36t-64 34t-78 14q-102 0 -156.5 -63t-54.5 -180
q0 -90 27.5 -183.5t68 -179t109.5 -214.5q73 -137 117 -231t74.5 -199.5t30.5 -209.5q0 -133 -53 -248t-165 -186.5t-279 -71.5q-61 0 -129.5 17.5t-124 47.5t-79.5 66l103 212q13 -20 48 -43.5t78.5 -39.5t83.5 -16q109 0 152.5 65.5z" />
    <glyph glyph-name="approxequal" unicode="&#x2248;" horiz-adv-x="1063" 
d="M63.5 552.5q54.5 51.5 128.5 85t144 33.5q49 0 91.5 -14t75 -33.5t76.5 -51.5q52 -38 86 -55.5t73 -17.5q106 0 182 107l134 -139q-14 -56 -65.5 -109.5t-123.5 -87t-143 -33.5q-51 0 -92 14t-71.5 34t-71.5 53q-52 41 -89 61t-84 20q-87 0 -172 -109l-148 141
q15 50 69.5 101.5zM133.5 1048.5q54.5 51.5 128.5 85t144 33.5q49 0 91.5 -14t75 -33.5t76.5 -51.5q52 -38 86 -55.5t73 -17.5q106 0 182 107l134 -139q-14 -56 -65.5 -109.5t-123.5 -87t-143 -33.5q-51 0 -92 14t-71.5 34t-71.5 53q-52 41 -89 61t-84 20q-87 0 -172 -109
l-148 141q15 50 69.5 101.5z" />
    <glyph glyph-name="notequal" unicode="&#x2260;" horiz-adv-x="1084" 
d="M731 808l-113 -245h365l-37 -248h-442l-146 -315h-222l145 315h-175l37 248h253l113 245h-348l37 248h425l136 294h223l-136 -294h192l-37 -248h-270z" />
    <glyph glyph-name="lessequal" unicode="&#x2264;" horiz-adv-x="1391" 
d="M1229 1228l-39 -289l-513 -206l468 -211l-30 -271l-908 452l5 79zM1114 207l-16 -207h-945l17 207h944z" />
    <glyph glyph-name="greaterequal" unicode="&#x2265;" horiz-adv-x="1391" 
d="M1223 768l-911 487l-31 -279l446 -226l-503 -198l-36 -301l1019 418zM1124 207h-944l-17 -207h945z" />
    <glyph glyph-name="lozenge" unicode="&#x25ca;" horiz-adv-x="1375" 
d="M85 781l615 768h4l615 -768v-13l-615 -770h-5l-614 770v13zM976 773v3l-273 340h-3l-272 -340v-5l272 -356h3z" />
    <glyph glyph-name="i.cy" 
d="M595 1140l-158 -1140h-357l156 1140h359zM316.5 1579q26.5 47 74.5 74.5t109 27.5q52 0 92 -22t62.5 -59t22.5 -81q0 -58 -25 -104.5t-74 -74t-119 -27.5q-44 0 -83 22t-62.5 59.5t-23.5 82.5q0 55 26.5 102z" />
    <glyph glyph-name="IJ_acutecomb" horiz-adv-x="1403" 
d="M681 2014l210 -187q-25 -48 -88 -105.5t-135.5 -105.5t-122.5 -66l-143 122zM1358 2014l210 -187q-25 -48 -88 -105.5t-135.5 -105.5t-122.5 -66l-143 122zM671 1530l-219 -1530h-354l219 1530h354zM1373 1530q-27 -182 -60.5 -413.5t-48.5 -338.5q-53 -374 -75 -518.5
t-33 -184.5q-58 -235 -218.5 -333.5t-367.5 -98.5l-44 118q82 20 141.5 71t94.5 117.5t47 136.5q38 184 72 420.5t81 604.5q41 320 55 419h356z" />
    <glyph glyph-name="ij_acutecomb" horiz-adv-x="1328" 
d="M649 1774l209 -200q-18 -34 -98 -110.5t-172 -146t-149 -91.5l-124 99zM1298 1774l209 -200q-18 -34 -98 -110.5t-172 -146t-149 -91.5l-124 99zM595 1140l-158 -1140h-357l156 1140h359zM1259 1140l-158 -1140q-23 -168 -100.5 -287t-190 -180t-240.5 -61
q-61 0 -109.5 8.5t-70.5 25.5l88 181q13 -9 38 -9q84 0 130.5 50.5t66.5 126.5t40 210l147 1075h359z" />
    <glyph glyph-name="one.numr" horiz-adv-x="1020" 
d="M295 1308l-13 158q66 17 154 51.5t162 70.5t100 57l169 -21l-148 -1078h-305l112 814z" />
    <glyph glyph-name="two.numr" horiz-adv-x="1163" 
d="M383 878.5q140 109.5 244 227t104 194.5q0 56 -28.5 83.5t-83.5 27.5q-91 0 -162 -28.5t-117 -69.5l-112 145q31 42 101.5 86t165.5 73.5t194 29.5q120 0 207 -35t133 -100t46 -154t-56 -199.5t-158.5 -215.5t-236.5 -177l465 26l-17 -246h-848l-73 175q92 48 232 157.5z
" />
    <glyph glyph-name="three.numr" horiz-adv-x="1071" 
d="M264 713q69 -17 144 -17q73 0 136.5 19.5t103 61.5t39.5 105q0 50 -29.5 76.5t-79.5 29.5l-238 -59l35 209q105 26 165.5 53t86 57t25.5 68q0 20 -12 42.5t-39.5 38.5t-71.5 16q-135 0 -227 -67l-75 180q83 58 191.5 88t219.5 30q129 0 203.5 -37.5t103 -90.5t28.5 -108
q0 -106 -46.5 -180t-140.5 -111q116 -20 165 -89t49 -158q0 -116 -69 -204t-186.5 -135t-260.5 -47q-103 0 -210 22.5t-163 58.5l44 191q40 -26 109 -43z" />
    <glyph glyph-name="acute.cap" horiz-adv-x="532" 
d="M300 2014l210 -187q-25 -48 -88 -105.5t-135.5 -105.5t-122.5 -66l-143 122z" />
    <glyph glyph-name="breve.cap" horiz-adv-x="722" 
d="M41 1972.5q4 27.5 8 41.5h188q-4 -28 -4 -45q0 -43 12 -68t43 -38t89 -13q80 0 115.5 45t47.5 119h184q1 -11 1 -34q0 -85 -39.5 -164.5t-122 -131t-202.5 -51.5q-172 0 -248 76.5t-76 219.5q0 16 4 43.5z" />
    <glyph glyph-name="caron.cap" horiz-adv-x="800" 
d="M200 2014l183 -177l287 177l148 -67l-371 -348h-180l-212 337z" />
    <glyph glyph-name="circumflex.cap" horiz-adv-x="802" 
d="M390 2014h180l212 -337l-145 -78l-183 167l-287 -167l-148 67z" />
    <glyph glyph-name="dieresis.cap" horiz-adv-x="814" 
d="M194.5 1896.5q22.5 45.5 64.5 72t97 26.5q45 0 80.5 -22.5t55 -58.5t19.5 -76q0 -91 -47.5 -148.5t-141.5 -57.5q-38 0 -73 23.5t-56 62t-21 78.5q0 55 22.5 100.5zM668 1896.5q22 45.5 63 72t96 26.5q46 0 82 -22.5t56 -59t20 -75.5q0 -90 -48.5 -148t-142.5 -58
q-39 0 -73 23.5t-54.5 61.5t-20.5 78q0 56 22 101.5z" />
    <glyph glyph-name="dotaccent.cap" horiz-adv-x="393" 
d="M22.5 1876q26.5 46 74 72.5t109.5 26.5q56 0 97 -21t63 -57t22 -79q0 -58 -25 -104.5t-74 -74t-119 -27.5q-49 0 -88.5 21.5t-62.5 59t-23 82.5q0 55 26.5 101z" />
    <glyph glyph-name="grave.cap" horiz-adv-x="527" 
d="M211 2014l279 -342l-143 -122q-50 18 -122.5 66t-135.5 105.5t-88 105.5z" />
    <glyph glyph-name="hungarumlaut.cap" horiz-adv-x="931" 
d="M234 2014l183 -143q-25 -56 -85 -122.5t-131.5 -119t-127.5 -70.5l-123 86zM729 2014l180 -144q-36 -60 -94.5 -125.5t-126 -116.5t-126.5 -69l-118 86z" />
    <glyph glyph-name="macron.cap" horiz-adv-x="620" 
d="M633 1916l-20 -209h-577l20 209h577z" />
    <glyph glyph-name="ring.cap" horiz-adv-x="729" 
d="M96 1888q61 68 150.5 97t178.5 29q139 0 222.5 -59t83.5 -174q0 -101 -53 -171t-138.5 -104.5t-181.5 -34.5q-147 0 -235 62t-88 178q0 109 61 177zM517 1817q-19 29 -50.5 45t-66.5 16q-68 0 -118.5 -35t-50.5 -109q0 -34 20 -62.5t52.5 -45t66.5 -16.5q70 0 118 32.5
t48 110.5q0 35 -19 64z" />
    <glyph glyph-name="tilde.cap" horiz-adv-x="821" 
d="M67.5 1874q52.5 46 115.5 76t116 30q45 0 79 -12t58 -28.5t55 -43.5q35 -31 59.5 -45.5t57.5 -14.5q39 0 69 15.5t50.5 36.5t50.5 58l119 -145q-20 -48 -69.5 -96.5t-112 -80.5t-118.5 -32q-50 0 -87 11.5t-61.5 28t-54.5 42.5q-38 32 -65 47t-68 15q-45 0 -84 -24.5
t-78 -64.5l-106 136q22 45 74.5 91z" />
    <glyph glyph-name="caronvertical" horiz-adv-x="318" 
d="M223.5 1222q11.5 84 11.5 169q0 165 -24 201l19 42l229 48q19 -19 29 -72t10 -117q0 -125 -39 -254.5t-108 -201.5l-151 28l-6 25q18 48 29.5 132z" />
  </font>
</defs>
</svg>
