<?xml version="1.0" standalone="no"?>
<!DOCTYPE svg PUBLIC "-//W3C//DTD SVG 1.1//EN" "http://www.w3.org/Graphics/SVG/1.1/DTD/svg11.dtd" >
<svg xmlns="http://www.w3.org/2000/svg" xmlns:xlink="http://www.w3.org/1999/xlink" version="1.1">
<metadata>
Created by FontForge 20170731 at Mon Jan 25 11:36:03 2016
 By Aleksey,,,
Copyright (c) 2013-2016, Sorkin Type Co (www.sorkintype.com) with Reserved Font Name 'Merriweather'
</metadata>
<defs>
<font id="MerriweatherSans-Bold" horiz-adv-x="1595" >
  <font-face 
    font-family="Merriweather Sans"
    font-weight="700"
    font-stretch="normal"
    units-per-em="2048"
    panose-1="0 0 8 0 0 0 0 0 0 0"
    ascent="1638"
    descent="-410"
    x-height="1140"
    cap-height="1522"
    bbox="-360 -560 3008 2070"
    underline-thickness="137"
    underline-position="-415"
    unicode-range="U+000D-FB02"
  />
<missing-glyph horiz-adv-x="1882" 
d="M1649 1416v-1416h-1416v1416h1416zM1300 219l122 122l-363 368l363 358l-128 124l-352 -366l-357 368l-123 -125l359 -363l-358 -342l128 -144l347 368z" />
    <glyph glyph-name="fi" unicode="fi" horiz-adv-x="1518" 
d="M82 924v182l155 34v109q0 157 62 254t158.5 138.5t205.5 41.5q59 0 119.5 -7.5t82.5 -14.5v-222q-50 24 -156 24q-73 0 -116.5 -53t-43.5 -154v-116h266v-216h-266v-924h-312v924h-155zM1344 1140v-1140h-312v1140h312zM1022 1570q28 43 74 68.5t97 25.5q82 0 131 -47.5
t49 -122.5q0 -50 -27.5 -93.5t-73 -69t-97.5 -25.5q-51 0 -92 22t-65 61t-24 88q0 50 28 93z" />
    <glyph glyph-name="fl" unicode="fl" horiz-adv-x="1530" 
d="M82 924v182l155 34v109q0 157 62 254t158.5 138.5t205.5 41.5q59 0 119.5 -7.5t82.5 -14.5v-222q-50 24 -156 24q-73 0 -116.5 -53t-43.5 -154v-116h266v-216h-266v-924h-312v924h-155zM1350 1662v-1662h-312v1662h312z" />
    <glyph glyph-name="f_f" unicode="ff" horiz-adv-x="1716" 
d="M82 924v182l155 34v109q0 157 62 254t158.5 138.5t205.5 41.5q59 0 119.5 -7.5t82.5 -14.5v-222q-50 24 -156 24q-73 0 -116.5 -53t-43.5 -154v-116h266v-216h-266v-924h-312v924h-155zM940 924v182l155 34v109q0 157 62 254t158.5 138.5t205.5 41.5q59 0 119.5 -7.5
t82.5 -14.5v-222q-50 24 -156 24q-73 0 -116.5 -53t-43.5 -154v-116h266v-216h-266v-924h-312v924h-155z" />
    <glyph glyph-name="f_f_i" unicode="ffi" horiz-adv-x="2376" 
d="M82 924v182l155 34v109q0 157 62 254t158.5 138.5t205.5 41.5q59 0 119.5 -7.5t82.5 -14.5v-222q-50 24 -156 24q-73 0 -116.5 -53t-43.5 -154v-116h266v-216h-266v-924h-312v924h-155zM940 924v182l155 34v109q0 157 62 254t158.5 138.5t205.5 41.5q59 0 119.5 -7.5
t82.5 -14.5v-222q-50 24 -156 24q-73 0 -116.5 -53t-43.5 -154v-116h266v-216h-266v-924h-312v924h-155zM2202 1140v-1140h-312v1140h312zM1880 1570q28 43 74 68.5t97 25.5q82 0 131 -47.5t49 -122.5q0 -50 -27.5 -93.5t-73 -69t-97.5 -25.5q-51 0 -92 22t-65 61t-24 88
q0 50 28 93z" />
    <glyph glyph-name="f_f_l" unicode="ffl" horiz-adv-x="2388" 
d="M82 924v182l155 34v109q0 157 62 254t158.5 138.5t205.5 41.5q59 0 119.5 -7.5t82.5 -14.5v-222q-50 24 -156 24q-73 0 -116.5 -53t-43.5 -154v-116h266v-216h-266v-924h-312v924h-155zM940 924v182l155 34v109q0 157 62 254t158.5 138.5t205.5 41.5q59 0 119.5 -7.5
t82.5 -14.5v-222q-50 24 -156 24q-73 0 -116.5 -53t-43.5 -154v-116h266v-216h-266v-924h-312v924h-155zM2208 1662v-1662h-312v1662h312z" />
    <glyph glyph-name=".notdef" horiz-adv-x="1882" 
d="M1649 1416v-1416h-1416v1416h1416zM1300 219l122 122l-363 368l363 358l-128 124l-352 -366l-357 368l-123 -125l359 -363l-358 -342l128 -144l347 368z" />
    <glyph glyph-name=".null" horiz-adv-x="0" 
 />
    <glyph glyph-name="nonmarkingreturn" unicode="&#xd;" horiz-adv-x="0" 
 />
    <glyph glyph-name="NULL" horiz-adv-x="0" 
 />
    <glyph glyph-name="NULL" horiz-adv-x="0" 
 />
    <glyph glyph-name="space" unicode=" " horiz-adv-x="669" 
 />
    <glyph glyph-name="exclam" unicode="!" horiz-adv-x="641" 
d="M498 1780l-34 -1225h-267l-46 1225h347zM154 278q28 48 74.5 76.5t100.5 28.5q57 0 99.5 -25.5t64.5 -69.5t22 -99q0 -56 -27 -104.5t-74 -77.5t-102 -29q-53 0 -95.5 26t-66.5 71t-24 100t28 103z" />
    <glyph glyph-name="quotedbl" unicode="&#x22;" horiz-adv-x="1245" 
d="M521 1685l-36 -719h-231l-38 719h305zM1029 1685l-36 -719h-231l-38 719h305z" />
    <glyph glyph-name="numbersign" unicode="#" horiz-adv-x="1645" 
d="M1226 856l-30 -320h209v-210h-229l-31 -326h-254l30 326h-280l-31 -326h-258l31 326h-187v210h206l30 320h-198v202h217l30 315h261l-30 -315h275l29 315h259l-30 -315h204v-202h-223zM969 856h-277l-30 -320h278z" />
    <glyph glyph-name="dollar" unicode="$" horiz-adv-x="1410" 
d="M1159 190.5q-57 -91.5 -161 -143t-244 -61.5l-5 -211h-184l6 215q-109 11 -203.5 36t-131.5 48l45 255q73 -40 176 -68t216 -28q123 0 173 37.5t50 117.5q0 54 -25 91.5t-84.5 75.5t-185.5 100q-168 83 -273 194t-105 279q0 178 106.5 276t286.5 125l7 234h183l-6 -226
q115 -5 208 -31.5t139 -55.5l-52 -247q-68 43 -148.5 70t-183.5 27q-121 0 -174.5 -40.5t-53.5 -115.5q0 -53 26.5 -91t78.5 -72.5t158 -90.5q144 -76 229.5 -136.5t137 -144.5t51.5 -201q0 -126 -57 -217.5z" />
    <glyph glyph-name="percent" unicode="%" horiz-adv-x="2188" 
d="M1514 1530l-593 -1530h-246l592 1530h247zM163 1313.5q60 102.5 159.5 156t214.5 53.5q131 0 218.5 -58.5t129 -158.5t41.5 -228q0 -140 -60 -242t-158.5 -155.5t-213.5 -53.5q-127 0 -215 59t-132 159.5t-44 225.5q0 140 60 242.5zM634.5 1257.5q-42.5 69.5 -118.5 69.5
q-79 0 -121.5 -65.5t-42.5 -181.5q0 -115 42.5 -185.5t117.5 -70.5q79 0 122 65t43 181q0 118 -42.5 187.5zM1321 699.5q60 102.5 159.5 156t215.5 53.5q131 0 218 -58.5t129 -159t42 -227.5q0 -140 -60 -242.5t-158.5 -156t-212.5 -53.5q-127 0 -216 59t-133 159.5
t-44 225.5q0 141 60 243.5zM1792.5 643q-42.5 70 -117.5 70q-79 0 -122 -65.5t-43 -181.5q0 -115 43 -185.5t118 -70.5q79 0 121.5 65t42.5 181q0 117 -42.5 187z" />
    <glyph glyph-name="ampersand" unicode="&#x26;" horiz-adv-x="1542" 
d="M1354 178.5q46 -10.5 112 -12.5v-167q-60 -15 -143 -15q-87 0 -154 18.5t-125 54.5q-75 -33 -154.5 -53t-154.5 -20q-320 0 -483.5 107t-163.5 308q0 128 84 225.5t227 164.5q-68 92 -105.5 178t-37.5 201q0 117 54.5 202.5t154.5 130.5t234 45q124 0 218.5 -49t145 -132
t50.5 -183q0 -121 -38.5 -207t-107.5 -146t-175 -115q58 -75 138 -170t148 -167q35 39 53.5 91t18.5 109q0 48 -5 83t-14 76l-5 21h258q20 -83 20 -181q0 -228 -137 -363q41 -24 87 -34.5zM580 1292.5q-45 -44.5 -45 -119.5q0 -53 13 -93t35.5 -76t78.5 -113
q95 49 144 117.5t49 170.5q0 36 -16 72.5t-51 61t-88 24.5q-75 0 -120 -44.5zM845 233q-78 85 -164.5 188.5t-151.5 188.5q-72 -38 -109 -85.5t-37 -108.5q0 -96 71.5 -147.5t233.5 -51.5q90 0 157 16z" />
    <glyph glyph-name="quotesingle" unicode="'" horiz-adv-x="737" 
d="M521 1685l-36 -719h-231l-38 719h305z" />
    <glyph glyph-name="parenleft" unicode="(" horiz-adv-x="835" 
d="M215.5 1220q85.5 224 196 363t187.5 184l181 -116q-57 -42 -144.5 -165t-158 -324.5t-70.5 -454.5q0 -266 66.5 -466.5t152 -317.5t154.5 -167l-181 -116q-75 45 -182.5 171t-197 357t-89.5 549q0 279 85.5 503z" />
    <glyph glyph-name="parenright" unicode=")" horiz-adv-x="835" 
d="M609.5 204q-85.5 -224 -196 -363t-187.5 -184l-181 116q57 42 144.5 165t158 324.5t70.5 454.5q0 266 -66.5 466.5t-152 317.5t-154.5 167l181 116q75 -45 182.5 -171t197 -357t89.5 -549q0 -279 -85.5 -503z" />
    <glyph glyph-name="asterisk" unicode="*" horiz-adv-x="1348" 
d="M623 1080l-135 -138l-235 -166l-117 207l252 135l181 53q-6 3 -79 21q-85 20 -103 27l-257 128l110 208l243 -164l137 -130q-1 7 -8 33t-11 41q-25 89 -27 108l-26 293h236l-17 -288l-43 -184q7 6 55 56q64 67 78 78l242 166l112 -206l-253 -131l-181 -55l183 -49
l258 -123l-119 -214l-233 162l-141 130q2 -9 19 -72q24 -86 28 -110l27 -293l-236 -1l17 293z" />
    <glyph glyph-name="plus" unicode="+" horiz-adv-x="1403" 
d="M584 662l-162 -6h-209v237h209l162 -7l-6 187v217h246v-217l-7 -187l151 7h222v-237h-222l-151 6l7 -188v-214h-246v214z" />
    <glyph glyph-name="comma" unicode="," horiz-adv-x="693" 
d="M227 -327.5q24 38.5 38.5 89t14.5 102.5q0 45 -18.5 93.5t-46 81.5t-52.5 34v87l222 136q59 -22 100.5 -74.5t62.5 -117.5t21 -126q0 -111 -38.5 -212t-104 -173t-144.5 -99l-106 98v26q27 16 51 54.5z" />
    <glyph glyph-name="hyphen" unicode="-" horiz-adv-x="1360" 
d="M1105 889v-245h-850v245h850z" />
    <glyph glyph-name="period" unicode="." horiz-adv-x="641" 
d="M154 276.5q28 48.5 75 77.5t101 29q57 0 99 -25.5t64 -70.5t22 -100q0 -56 -27 -104t-73.5 -76.5t-101.5 -28.5q-53 0 -96 25.5t-67 70t-24 99.5t28 103.5z" />
    <glyph glyph-name="slash" unicode="/" horiz-adv-x="864" 
d="M840 1599l-561 -1962h-255l561 1962h255z" />
    <glyph glyph-name="zero" unicode="0" horiz-adv-x="1409" 
d="M200 969q76 146 211.5 224.5t310.5 78.5q568 0 563 -637q-1 -192 -73.5 -339.5t-205 -229.5t-309.5 -82q-201 0 -329 88t-186 233t-58 324q0 194 76 340zM903.5 936q-66.5 119 -199.5 119q-128 0 -196.5 -107.5t-68.5 -296.5q0 -121 30 -223t92 -164.5t152 -62.5
q128 0 192.5 110.5t64.5 314.5q0 191 -66.5 310z" />
    <glyph glyph-name="one" unicode="1" horiz-adv-x="1004" 
d="M153 882l-26 185q64 17 151 55t165.5 81.5t116.5 74.5l154 -25l-2 -1253h-321v929q-76 -18 -238 -47z" />
    <glyph glyph-name="two" unicode="2" horiz-adv-x="1361" 
d="M1209 264v-264h-1023l-43 155q260 145 464 326t204 356q0 93 -53.5 150t-159.5 57q-93 0 -184 -39.5t-146 -94.5l-117 183q46 48 118 93t170 75.5t210 30.5q172 0 281.5 -55t158.5 -144t49 -198q0 -180 -126.5 -344t-359.5 -308z" />
    <glyph glyph-name="three" unicode="3" horiz-adv-x="1170" 
d="M931 466q79 -55 116 -134t37 -162q0 -142 -85.5 -257.5t-240 -181.5t-354.5 -66q-70 0 -125.5 8t-80.5 15t-75 23l-1 204q107 -23 188 -23q128 0 228 31.5t157 93.5t57 150q0 114 -68.5 182.5t-217.5 62.5l-139 -36l-42 198q69 15 134.5 36t109.5 44q154 87 154 225
q0 80 -56.5 118t-150.5 38q-100 0 -170 -28t-136 -73l-93 195q31 33 100.5 68.5t160.5 59.5t181 24q159 0 267.5 -45t163 -127t54.5 -192q0 -133 -74.5 -231t-195.5 -155q118 -10 197 -65z" />
    <glyph glyph-name="four" unicode="4" horiz-adv-x="1412" 
d="M1361 0h-233v-376h-300v376h-652l-76 133l560 1201h73l244 -123l-461 -850l-76 -127h388l38 410h262v-410h233v-234z" />
    <glyph glyph-name="five" unicode="5" horiz-adv-x="1293" 
d="M193 -123q54 -2 79 -2q163 0 290.5 45t198.5 126.5t71 187.5q0 111 -66 163.5t-220 53.5q-58 0 -129 -17t-168 -49l-50 30l66 837h847l-28 -267h-593l-33 -335q80 18 138.5 26.5t113.5 8.5q138 0 237.5 -54t151.5 -153.5t52 -232.5q0 -167 -101.5 -303t-288.5 -215.5
t-434 -80.5q-90 0 -135 13z" />
    <glyph glyph-name="six" unicode="6" horiz-adv-x="1414" 
d="M1077 1433q-182 -47 -321.5 -169.5t-215.5 -280.5t-79 -308q-3 -216 58 -344.5t200 -128.5q124 0 187 75.5t63 205.5q0 157 -52.5 226t-137.5 69q-86 0 -156 -36l-63 181q34 35 111.5 64.5t180.5 29.5q134 0 232 -62t149.5 -168t51.5 -233q0 -157 -65.5 -286
t-199.5 -206.5t-330 -77.5q-172 0 -299.5 81t-195.5 218.5t-68 302.5q0 277 136 502t339.5 363t398.5 169z" />
    <glyph glyph-name="seven" unicode="7" horiz-adv-x="1286" 
d="M106 997v274h1001l77 -117l-602 -1548l-318 92q145 303 298 653t274 645z" />
    <glyph glyph-name="eight" unicode="8" horiz-adv-x="1356" 
d="M1163.5 176q-71.5 -95 -194.5 -143.5t-277 -48.5q-165 0 -292 45t-199 135.5t-72 220.5q0 111 69 214t217 180q-110 75 -172.5 169.5t-62.5 225.5q0 116 61 204.5t175 137.5t266 49q151 0 262 -44.5t169.5 -124t58.5 -184.5q0 -72 -29.5 -147t-90 -140.5t-148.5 -108.5
q100 -57 171.5 -113.5t115.5 -131t44 -166.5q0 -134 -71.5 -229zM572 1335q-48 -20 -76 -57t-28 -85q0 -80 63.5 -142.5t183.5 -130.5q92 38 137.5 110t42.5 157q0 48 -26 86.5t-75 60t-116 21.5q-58 0 -106 -20zM808 225q53 21 84.5 60t31.5 93q0 60 -39 108t-98 84.5
t-162 89.5l-22 11q-179 -95 -179 -268q0 -89 66.5 -144t202.5 -55q62 0 115 21z" />
    <glyph glyph-name="nine" unicode="9" horiz-adv-x="1427" 
d="M1029.5 1191q126.5 -81 192.5 -218t66 -303q0 -284 -138.5 -515.5t-345 -374t-401.5 -174.5l-83 184q188 47 332 178t223 297t81 314q3 219 -59 346t-199 127q-118 0 -183.5 -71.5t-65.5 -190.5q0 -161 54.5 -239t145.5 -78q57 0 87.5 8t66.5 25l60 -178
q-32 -36 -108 -65t-185 -29q-135 0 -233.5 64t-150 172.5t-51.5 237.5q0 162 67 289.5t201 201t326 73.5q174 0 300.5 -81z" />
    <glyph glyph-name="colon" unicode=":" horiz-adv-x="641" 
d="M154 276.5q28 48.5 75 77.5t101 29q57 0 99 -25.5t64 -70.5t22 -100q0 -56 -27 -104t-73.5 -76.5t-101.5 -28.5q-53 0 -96 25.5t-67 70t-24 99.5t28 103.5zM154 1035.5q28 48.5 75 77.5t101 29q57 0 99 -25.5t64 -70.5t22 -100q0 -56 -27 -104t-73.5 -76.5t-101.5 -28.5
q-53 0 -96 25.5t-67 70t-24 99.5t28 103.5z" />
    <glyph glyph-name="semicolon" unicode=";" horiz-adv-x="641" 
d="M201 -327.5q24 38.5 38.5 89t14.5 102.5q0 45 -18.5 93.5t-46 81.5t-52.5 34v87l222 136q59 -22 100.5 -74.5t62.5 -117.5t21 -126q0 -111 -38.5 -212t-104 -173t-144.5 -99l-106 98v26q27 16 51 54.5zM154 1035.5q28 48.5 75 77.5t101 29q57 0 99 -25.5t64 -70.5
t22 -100q0 -56 -27 -104t-73.5 -76.5t-101.5 -28.5q-53 0 -96 25.5t-67 70t-24 99.5t28 103.5z" />
    <glyph glyph-name="less" unicode="&#x3c;" horiz-adv-x="1378" 
d="M1149 1057l-597 -283l597 -263v-282l-952 469v154l952 479v-274z" />
    <glyph glyph-name="equal" unicode="=" horiz-adv-x="1423" 
d="M1172 1139v-216h-921v216h921zM1172 627v-216h-921v216h921z" />
    <glyph glyph-name="greater" unicode="&#x3e;" horiz-adv-x="1377" 
d="M1170 852v-154l-952 -469v282l597 263l-597 283v274z" />
    <glyph glyph-name="question" unicode="?" horiz-adv-x="1057" 
d="M288 911q29 57 70.5 98t110.5 96q63 50 100.5 85.5t62.5 83t25 106.5q0 106 -79.5 158.5t-245.5 52.5q-68 0 -110.5 -6t-65.5 -12t-30 -8v232q33 20 106.5 34.5t162.5 14.5q213 0 346 -62.5t190.5 -164t54.5 -224.5q0 -95 -34.5 -168.5t-84 -124t-130.5 -116.5
q-66 -55 -103 -91t-64 -82.5t-31 -102.5q-1 -10 -1 -28q0 -32 6 -59.5t20 -76.5q2 -8 11 -40h-238q-34 52 -56 117.5t-22 156.5q0 74 29 131zM332.5 251q26.5 44 71 70t93.5 26q53 0 93 -23t61.5 -63.5t21.5 -90.5q0 -51 -26.5 -95t-70.5 -70.5t-94 -26.5q-49 0 -89 23.5
t-63.5 64.5t-23.5 91t26.5 94z" />
    <glyph glyph-name="at" unicode="@" horiz-adv-x="2228" 
d="M1267 258q-71 -121 -161.5 -192t-201.5 -71q-69 0 -135 49t-109 146t-43 234q0 151 64.5 302.5t198 252.5t329.5 101q69 0 130.5 -13.5t101.5 -41.5l185 31q-25 -108 -63.5 -297t-64.5 -331q-17 -95 -17 -151q0 -44 11.5 -62.5t36.5 -18.5q75 0 149 73.5t121.5 206
t47.5 299.5q0 330 -169 460.5t-442 130.5q-228 0 -424 -112.5t-313 -321t-117 -484.5q0 -264 98.5 -429.5t254.5 -237.5t338 -72q118 0 203 16.5t135 37.5t111 54l43 -159q-210 -126 -512 -126q-249 0 -448.5 99t-316.5 303t-117 506q0 324 145 575t392.5 389.5t545.5 138.5
q235 0 416 -85t283.5 -251t102.5 -402q0 -256 -85.5 -439.5t-223 -277t-290.5 -93.5q-90 0 -136 47t-53 140q-2 43 -1 76zM1118 324q79 102 140 247t77 258q-19 25 -60.5 39.5t-97.5 14.5q-88 0 -160.5 -62t-113.5 -159t-43 -196q-3 -244 114 -244q65 0 144 102z" />
    <glyph glyph-name="A" unicode="A" horiz-adv-x="1421" 
d="M987 322h-559l-101 -322h-342l562 1538h322l567 -1538h-347zM914 551l-165 522l-43 157l-44 -157l-163 -522h415z" />
    <glyph glyph-name="B" unicode="B" horiz-adv-x="1422" 
d="M342 1522q41 0 143 6q139 9 215 9q188 0 312.5 -48t184.5 -134.5t60 -202.5q0 -83 -27 -154t-78.5 -120.5t-122.5 -68.5q90 -10 160 -55.5t109.5 -121t39.5 -171.5q0 -225 -142 -350t-481 -125q-145 0 -366 14h-161v1523zM893 940q61 56 61 185q0 93 -73.5 136t-214.5 43
q-40 0 -94 -3t-69 -10v-398q27 -5 87 -7t104 -2q138 0 199 56zM944.5 261q71.5 55 71.5 186q0 117 -70.5 170.5t-222.5 53.5q-58 0 -129 -2t-91 -5v-432q19 -15 84.5 -20.5t136.5 -5.5q149 0 220.5 55z" />
    <glyph glyph-name="C" unicode="C" horiz-adv-x="1299" 
d="M1030.5 1527q73.5 -11 157.5 -32q61 -14 72 -16l-46 -280q-6 3 -52 28.5t-124 42t-172 16.5q-124 0 -223.5 -61t-157 -176.5t-57.5 -271.5q0 -158 55.5 -282.5t160 -194.5t246.5 -70q65 0 136.5 15.5t130 38t86.5 42.5l1 -262q-63 -25 -111.5 -41t-117.5 -27.5
t-155 -11.5q-231 0 -403 96.5t-264.5 271.5t-92.5 405q0 245 98.5 421.5t268 268t379.5 91.5q111 0 184.5 -11z" />
    <glyph glyph-name="D" unicode="D" horiz-adv-x="1554" 
d="M339 1522q32 0 128 6q134 10 241 10q375 0 560.5 -190t185.5 -547q0 -255 -93 -439t-264.5 -281t-403.5 -97q-72 0 -214 9q-87 7 -137 7h-154v1522h151zM1010.5 361.5q107.5 131.5 107.5 405.5q0 196 -47.5 312.5t-143.5 167.5t-249 51q-53 0 -129 -10l-40 -4v-1038
q68 -18 204 -18q190 2 297.5 133.5z" />
    <glyph glyph-name="E" unicode="E" horiz-adv-x="1254" 
d="M1116 1522v-244h-610v-378h468v-241h-468v-408h675v-251h-993v1522h928z" />
    <glyph glyph-name="F" unicode="F" horiz-adv-x="1145" 
d="M1111 1522v-244h-601v-399h442v-245h-442v-634h-322v1522h923z" />
    <glyph glyph-name="G" unicode="G" horiz-adv-x="1494" 
d="M1372 820v-730q-20 -1 -43 -8t-64 -21q-101 -35 -197.5 -56t-240.5 -21q-228 0 -392 94.5t-249.5 268t-85.5 406.5q0 264 98.5 440t269.5 260.5t391 84.5q116 0 186 -10t153 -30q51 -13 91 -20l-10 -273q-84 40 -175 60.5t-244 20.5q-132 0 -228.5 -60.5t-148.5 -174
t-52 -271.5t42 -282.5t128 -197t214 -72.5q153 0 255 38v305l-233 12v237h535z" />
    <glyph glyph-name="H" unicode="H" horiz-adv-x="1601" 
d="M506 1522v-632h593v632h314v-1522h-314v651h-593v-651h-318v1522h318z" />
    <glyph glyph-name="I" unicode="I" horiz-adv-x="722" 
d="M521 1522v-1522h-320v1522h320z" />
    <glyph glyph-name="J" unicode="J" horiz-adv-x="798" 
d="M151 -62q70 68 96 179q19 79 25.5 195.5t6.5 295.5v914h320v-909l1 -223q0 -95 -4 -166.5t-16 -132.5q-25 -131 -112 -226t-197.5 -144.5t-203.5 -52.5l-77 168q91 34 161 102z" />
    <glyph glyph-name="K" unicode="K" horiz-adv-x="1444" 
d="M1411 0h-354q-11 16 -29 51q-5 10 -13 25t-21 37q-75 135 -163.5 277t-167.5 256l-157 -177v-469h-318v1522h318v-674l535 674h350l-514 -644q66 -98 218 -347.5t251 -420.5z" />
    <glyph glyph-name="L" unicode="L" horiz-adv-x="1120" 
d="M506 1522v-1280h548v-242h-866v1522h318z" />
    <glyph glyph-name="M" unicode="M" horiz-adv-x="1886" 
d="M679 1522l203 -800l77 -336l58 336l183 800h434l182 -1522h-312l-75 816l-27 466l-112 -466l-218 -831h-252l-241 831l-113 466l-36 -466l-65 -816l-295 -1l162 1523h447z" />
    <glyph glyph-name="N" unicode="N" horiz-adv-x="1620" 
d="M1432 1522v-1522h-319l-543 861l-120 243l34 -363v-741h-296v1522h295l567 -895l115 -228l-29 366v757h296z" />
    <glyph glyph-name="O" unicode="O" 
d="M195.5 1194.5q92.5 169.5 253 253.5t372.5 90q207 6 362 -90t236.5 -274t77.5 -411q-5 -260 -97 -434.5t-253 -259.5t-374 -85q-210 0 -364.5 99.5t-234.5 277.5t-76 408q5 256 97.5 425.5zM1128.5 1044q-39.5 118 -119 185t-195.5 67q-111 0 -198 -55t-138 -175
t-51 -308q0 -153 41.5 -275t125 -192t204.5 -70q175 0 272.5 137t97.5 415q0 153 -39.5 271z" />
    <glyph glyph-name="P" unicode="P" horiz-adv-x="1359" 
d="M284 1522q91 0 241 8q140 8 208 8q271 0 413.5 -126t142.5 -399q0 -174 -70.5 -298t-207 -189t-331.5 -65q-104 0 -174 2v-463h-318v1522h96zM889.5 773q83.5 71 83.5 244q0 145 -78 220.5t-226 69.5q-58 -2 -94.5 -4.5t-68.5 -9.5v-583q65 -8 166 -8q134 0 217.5 71z
" />
    <glyph glyph-name="Q" unicode="Q" 
d="M1455 -74q63 7 95 18v-219q-24 -17 -98.5 -34t-141.5 -17q-240 0 -390 70.5t-205 241.5q-193 14 -334 116.5t-214 275t-69 391.5q5 256 97.5 425.5t253 253.5t372.5 90q204 6 357 -87t236 -265.5t83 -399.5q0 -220 -63 -381t-177 -259.5t-270 -136.5q30 -39 81.5 -58.5
t116.5 -25.5t163 -6q44 0 107 7zM468.5 483q41.5 -122 125 -192t204.5 -70q175 0 272.5 137t97.5 415q0 153 -39.5 271t-119 185t-195.5 67q-111 0 -198 -55t-138 -175t-51 -308q0 -153 41.5 -275z" />
    <glyph glyph-name="R" unicode="R" horiz-adv-x="1435" 
d="M1381 0h-354q-10 14 -20 33.5t-22 46.5l-14 30q-17 36 -31.5 75.5t-36.5 105.5q-31 95 -54.5 152.5t-58.5 96.5t-83 39q-102 -4 -201 -4v-575h-318v1522h147q51 0 117 6q55 4 128 7t159 3q243 0 395.5 -105.5t152.5 -354.5q0 -179 -64.5 -286t-188.5 -156
q53 -45 92.5 -118t93.5 -199q58 -140 98 -209zM506 804q50 -6 209 -6q135 0 199 77t64 194q0 68 -21.5 118.5t-82.5 82t-173 31.5q-119 0 -195 -18v-479z" />
    <glyph glyph-name="S" unicode="S" horiz-adv-x="1207" 
d="M197 329q73 -40 176 -68t216 -28q123 0 173 37.5t50 117.5q0 54 -25 91.5t-84.5 75.5t-185.5 100q-168 83 -273 194t-105 279q0 144 70.5 235.5t190 133t270.5 41.5q130 0 236.5 -28t156.5 -60l-52 -247q-68 43 -148.5 70t-183.5 27q-121 0 -174.5 -40.5t-53.5 -115.5
q0 -53 26.5 -91t78.5 -72.5t158 -90.5q144 -76 229.5 -136.5t137 -144.5t51.5 -201q0 -134 -65 -229.5t-183.5 -145t-274.5 -49.5q-93 0 -187.5 14.5t-167 35.5t-102.5 40z" />
    <glyph glyph-name="T" unicode="T" horiz-adv-x="1250" 
d="M30 1278v244h1190v-244h-434v-1278h-320v1278h-436z" />
    <glyph glyph-name="U" unicode="U" horiz-adv-x="1525" 
d="M152 1522h315l-2 -852q0 -173 33.5 -267t98.5 -129.5t170 -35.5q101 0 165 38.5t97.5 133t33.5 260.5v852h313v-882q0 -321 -156 -488.5t-462 -167.5q-326 0 -467.5 173.5t-140.5 495.5z" />
    <glyph glyph-name="V" unicode="V" horiz-adv-x="1386" 
d="M336 1522l284 -831l81 -290l82 290l269 831h339l-560 -1528h-270l-566 1528h341z" />
    <glyph glyph-name="W" unicode="W" horiz-adv-x="1973" 
d="M1968 1522l-398 -1538h-326l-214 850l-49 328l-45 -329l-219 -849h-304l-408 1538h319l188 -894l53 -370l61 370l220 894h284l234 -894l62 -354l51 354l173 894h318z" />
    <glyph glyph-name="X" unicode="X" horiz-adv-x="1376" 
d="M1344 0h-353l-244 425l-74 131l-309 -556h-332l459 786l-448 736l348 1l313 -539l74 136l220 402h336l-454 -770z" />
    <glyph glyph-name="Y" unicode="Y" horiz-adv-x="1241" 
d="M780 533v-533h-319v535l-511 987h350l280 -590l44 -113l38 113l288 590h341z" />
    <glyph glyph-name="Z" unicode="Z" horiz-adv-x="1306" 
d="M740 1210l58 81h-668v231h1067l38 -81l-672 -1106l-73 -93h706v-242h-1102l-40 84z" />
    <glyph glyph-name="bracketleft" unicode="[" horiz-adv-x="799" 
d="M161 1640.5q16 52.5 56 74.5t118 22q81 0 136 -3.5t132 -11.5l93 -9v-163h-268v-1570l268 -2v-145l-44 -5q-97 -10 -158 -14.5t-159 -4.5q-79 0 -119 22t-55.5 74.5t-15.5 154.5v1426q0 102 16 154.5z" />
    <glyph glyph-name="backslash" unicode="\" horiz-adv-x="864" 
d="M830 -363h-255l-561 1962h255z" />
    <glyph glyph-name="bracketright" unicode="]" horiz-adv-x="799" 
d="M644 60q0 -102 -15.5 -154.5t-55.5 -74.5t-119 -22q-98 0 -159 4.5t-158 14.5l-44 5v145l268 2v1570h-268v163l93 9q77 8 132 11.5t136 3.5q78 0 118 -22t56 -74.5t16 -154.5v-1426z" />
    <glyph glyph-name="asciicircum" unicode="^" horiz-adv-x="1373" 
d="M939 490l-252 674l-253 -674h-281l420 1041h227l420 -1041h-281z" />
    <glyph glyph-name="underscore" unicode="_" horiz-adv-x="1702" 
d="M1737 -241v-168h-1772v168h1772z" />
    <glyph glyph-name="grave" unicode="`" horiz-adv-x="666" 
d="M330 1339q-86 66 -165 147t-110 148l215 174q61 -104 156 -220t185 -199l-149 -137q-46 21 -132 87z" />
    <glyph glyph-name="a" unicode="a" horiz-adv-x="1223" 
d="M872.5 1125.5q99.5 -36.5 148.5 -127t49 -253.5v-761h-182q-45 0 -68 6t-36 28t-13 70v8q-52 -48 -128 -80t-169 -32q-110 0 -194.5 47.5t-131 132t-46.5 191.5q0 100 51.5 171t147.5 114q149 66 457 66v72q0 64 -16.5 94t-63 41t-146.5 11q-48 0 -146 -24.5t-168 -56.5
l-69 200q40 24 116 52t167 47.5t175 19.5q166 0 265.5 -36.5zM686 215.5q55 20.5 72 42.5v272q-57 0 -128.5 -12.5t-106.5 -28.5q-45 -17 -72 -46t-27 -86q0 -80 43.5 -121t113.5 -41q50 0 105 20.5z" />
    <glyph glyph-name="b" unicode="b" horiz-adv-x="1340" 
d="M1019 1095.5q103 -60.5 164.5 -183t61.5 -300.5q0 -187 -75 -331.5t-210.5 -224t-310.5 -79.5q-96 0 -200.5 15.5t-183.5 36.5t-97 35v1597h312v-437l-8 -188q54 51 130 85.5t189 34.5q125 0 228 -60.5zM861 849.5q-57 73.5 -166 73.5q-62 0 -119.5 -20t-95.5 -51v-620
q36 -39 176 -39q76 0 135 47.5t93 138.5t34 216q0 181 -57 254.5z" />
    <glyph glyph-name="c" unicode="c" horiz-adv-x="1048" 
d="M847 1138.5q82 -17.5 113 -40.5l-39 -241q-43 23 -95.5 33.5t-129.5 10.5q-72 0 -137 -30.5t-108 -99t-46 -176.5q-3 -119 32 -200t99.5 -120.5t147.5 -39.5q75 0 143.5 13.5t104.5 33.5l45 -185q-53 -51 -148 -82t-202 -31q-172 0 -292 73.5t-180 203t-60 295.5
q0 172 63 308t191 214t315 78q101 0 183 -17.5z" />
    <glyph glyph-name="d" unicode="d" horiz-adv-x="1339" 
d="M1171 1662v-1678h-212q-38 0 -56.5 11.5t-18.5 46.5v77q-55 -56 -133.5 -95.5t-201.5 -39.5q-125 0 -228 61.5t-164.5 185.5t-61.5 302q0 187 72.5 328t204 218t303.5 77q102 0 187 -32l-3 100v438h312zM479.5 301q57.5 -74 165.5 -74q61 0 118.5 17t95.5 43v615
q-28 19 -71 25.5t-104 6.5q-77 0 -136 -43t-92.5 -129t-33.5 -211q0 -176 57.5 -250z" />
    <glyph glyph-name="e" unicode="e" horiz-adv-x="1190" 
d="M1082 495h-674q9 -141 88.5 -210t215.5 -69q65 0 157.5 17.5t135.5 41.5l51 -177q-59 -48 -177 -81t-246 -33q-172 0 -293 70t-183 202.5t-62 317.5q0 168 65 300t189.5 207t296.5 75q124 0 224 -45t160.5 -145t62.5 -257q0 -144 -11 -214zM804 712q0 109 -41 165.5
t-133 56.5t-146.5 -60.5t-70.5 -205.5h390q1 15 1 44z" />
    <glyph glyph-name="f" unicode="f" horiz-adv-x="858" 
d="M82 924v182l155 34v109q0 157 62 254t158.5 138.5t205.5 41.5q59 0 119.5 -7.5t82.5 -14.5v-222q-50 24 -156 24q-73 0 -116.5 -53t-43.5 -154v-116h266v-216h-266v-924h-312v924h-155z" />
    <glyph glyph-name="g" unicode="g" horiz-adv-x="1305" 
d="M1288 914h-189q20 -58 20 -130q0 -183 -132.5 -279t-374.5 -96q-56 0 -99 7q-21 -17 -32 -41.5t-11 -51.5q0 -48 30 -64t105 -16h190q252 0 345.5 -97.5t93.5 -247.5q0 -128 -81.5 -222t-216.5 -143t-291 -49q-265 0 -409.5 85.5t-144.5 247.5q0 79 48.5 140.5
t127.5 96.5q-48 25 -70.5 71t-22.5 99q0 68 42 131t140 103q-109 47 -171.5 130.5t-62.5 186.5q0 196 134 288.5t376 92.5q221 0 345 -83q33 29 79 48t105 19h127v-226zM769.5 638q54.5 38 54.5 137q0 93 -48.5 140.5t-144.5 47.5q-97 0 -152.5 -41.5t-55.5 -142.5
q0 -84 50 -131.5t144 -47.5q98 0 152.5 38zM505 0q-22 0 -62 2q-42 -38 -42 -116q0 -94 58.5 -156t185.5 -62q132 0 206.5 40.5t74.5 127.5q0 59 -18 93.5t-74 52.5t-166 18h-163z" />
    <glyph glyph-name="h" unicode="h" horiz-adv-x="1351" 
d="M1022.5 1119q83.5 -44 125 -144t41.5 -265v-710h-312v648q0 92 -15.5 145.5t-50 77.5t-95.5 24q-51 0 -118.5 -21t-117.5 -65v-809h-312v1662h312v-438l-17 -202q64 53 161.5 93.5t186.5 43.5q128 4 211.5 -40z" />
    <glyph glyph-name="i" unicode="i" horiz-adv-x="660" 
d="M486 1140v-1140h-312v1140h312zM164 1570q28 43 74 68.5t97 25.5q82 0 131 -47.5t49 -122.5q0 -50 -27.5 -93.5t-73 -69t-97.5 -25.5q-51 0 -92 22t-65 61t-24 88q0 50 28 93z" />
    <glyph glyph-name="j" unicode="j" horiz-adv-x="644" 
d="M-51 -296.5q39 -7.5 64 -7.5q61 0 95.5 28.5t50 94.5t15.5 182v1139h312v-1058q0 -308 -106.5 -448.5t-308.5 -140.5q-31 0 -94 8.5t-81 15.5v201q14 -7 53 -14.5zM163 1571q28 43 74 68.5t97 25.5q82 0 131 -47.5t49 -122.5q0 -50 -27.5 -93.5t-73 -69t-97.5 -25.5
q-51 0 -92 22t-65 61t-24 88q0 50 28 93z" />
    <glyph glyph-name="k" unicode="k" horiz-adv-x="1238" 
d="M598 475l-122 -133l4 -129v-213h-312v1661h312v-684l-10 -287l385 450h353l-407 -443l447 -697h-355z" />
    <glyph glyph-name="l" unicode="l" horiz-adv-x="672" 
d="M492 1662v-1662h-312v1662h312z" />
    <glyph glyph-name="m" unicode="m" horiz-adv-x="2047" 
d="M1720.5 1117q80.5 -43 122.5 -140.5t42 -259.5v-717h-312v649q0 95 -13 147.5t-46.5 76t-97.5 23.5q-58 0 -122.5 -24t-109.5 -60q4 -44 4 -105v-707h-312v648q0 94 -13.5 147t-47 77t-95.5 24q-49 0 -117 -22t-117 -65v-809h-312v1140h283l6 -122q69 52 172 95.5
t199 46.5q106 4 179 -29.5t115 -108.5q67 52 174 95t218 43q120 0 200.5 -43z" />
    <glyph glyph-name="n" unicode="n" horiz-adv-x="1352" 
d="M457 1140l6 -122q69 52 172 95t199 46q123 4 201 -38.5t116.5 -141t38.5 -264.5v-715h-312v648q0 97 -15 150.5t-51 76.5t-102 21q-50 -1 -113 -23t-111 -64v-809h-312v1140h283z" />
    <glyph glyph-name="o" unicode="o" horiz-adv-x="1302" 
d="M168 893.5q72 129.5 200 196t294 66.5q189 0 311 -79.5t177.5 -213t55.5 -301.5q0 -184 -72 -314t-200 -197t-293 -67q-190 0 -312 80t-177.5 214.5t-55.5 302.5q0 183 72 312.5zM826 827.5q-57 106.5 -173 106.5q-234 0 -234 -348q0 -105 24.5 -191.5t77 -138.5
t131.5 -52q231 0 231 357q0 160 -57 266.5z" />
    <glyph glyph-name="p" unicode="p" horiz-adv-x="1340" 
d="M1019 1095.5q103 -60.5 164.5 -183t61.5 -300.5q0 -187 -72.5 -329.5t-204 -220.5t-303.5 -78q-102 0 -189 32l4 -155v-367h-312v1646h291v-116q55 55 133 93.5t199 38.5q125 0 228 -60.5zM861 849.5q-57 73.5 -166 73.5q-62 0 -119.5 -20t-95.5 -51v-603
q29 -26 73.5 -36t102.5 -10q76 0 135 46t93 135t34 211q0 181 -57 254.5z" />
    <glyph glyph-name="q" unicode="q" horiz-adv-x="1340" 
d="M1172 1140v-1646h-312v367l6 241q-125 -118 -317 -118q-125 0 -228 61.5t-164.5 185.5t-61.5 302q0 187 72.5 328t204 218t303.5 77q74 0 149 -15t123 -35zM479.5 301q57.5 -74 165.5 -74q62 0 119.5 17.5t95.5 43.5v613q-28 20 -71 26.5t-105 6.5q-77 0 -136 -43
t-92.5 -129t-33.5 -211q0 -176 57.5 -250z" />
    <glyph glyph-name="r" unicode="r" horiz-adv-x="926" 
d="M861 1145v-301q-23 13 -52.5 20.5t-84.5 7.5q-144 0 -254 -103v-769h-312v1140h277l14 -156q25 44 74.5 84t115 65.5t133.5 25.5q65 0 89 -14z" />
    <glyph glyph-name="s" unicode="s" horiz-adv-x="1048" 
d="M218 267.5q52 -21.5 120.5 -37.5t135.5 -16q93 -1 136 21t43 74q0 48 -59.5 87t-187.5 81q-152 50 -219.5 136t-67.5 212q0 106 58.5 180.5t162.5 112.5t239 38q109 0 195 -21t126 -44l-34 -240q-34 31 -109.5 54t-146.5 23q-102 0 -147.5 -21.5t-45.5 -70.5
q0 -35 21 -59.5t67.5 -47t134.5 -52.5q117 -40 186.5 -87.5t101.5 -109t32 -146.5q0 -173 -118.5 -261.5t-328.5 -88.5q-79 0 -159 13t-143.5 33.5t-95.5 41.5l32 232q19 -15 71 -36.5z" />
    <glyph glyph-name="t" unicode="t" horiz-adv-x="913" 
d="M211 924h-137v169q66 19 95.5 29.5t52.5 29t36 49.5q21 50 75 199h190v-260h309v-216h-309v-458q0 -114 12 -166t38 -66.5t80 -14.5q42 0 96.5 14.5t80.5 33.5l38 -175q-47 -42 -140.5 -75t-201.5 -33q-115 0 -183.5 35.5t-100 113t-31.5 206.5v585z" />
    <glyph glyph-name="u" unicode="u" horiz-adv-x="1326" 
d="M1152 1140v-1156h-206q-40 0 -58 11.5t-18 46.5v52q-65 -46 -158.5 -78t-174.5 -32q-156 0 -238 59t-109.5 163t-27.5 268v666h312v-663q0 -107 18.5 -161.5t55 -73.5t101.5 -19q50 0 106 21t85 44v852h312z" />
    <glyph glyph-name="v" unicode="v" horiz-adv-x="1191" 
d="M1174 1140l-435 -1156h-289l-433 1156h337l174 -560l73 -278l69 278l174 560h330z" />
    <glyph glyph-name="w" unicode="w" horiz-adv-x="1757" 
d="M1739 1140l-356 -1156h-278l-182 607l-44 218l-45 -218l-179 -607h-289l-348 1156h312l142 -551l52 -276l57 275l165 552h291l165 -551l52 -274l51 271l132 554h302z" />
    <glyph glyph-name="x" unicode="x" horiz-adv-x="1220" 
d="M1199 0h-357l-206 321l-33 52l-26 -54l-184 -319h-357l401 577l-401 563h353l196 -297l36 -60l30 61l188 296h352l-404 -557z" />
    <glyph glyph-name="y" unicode="y" horiz-adv-x="1188" 
d="M1162 1140l-355 -1170q-60 -196 -160 -308t-223 -148q-26 -8 -76.5 -14.5t-75.5 -6.5q-26 0 -85 6.5t-67 12.5v253q18 -6 57.5 -13t55.5 -7q71 0 122.5 13t102 68.5t80.5 173.5h-134l-387 1140h338l173 -609l83 -329l77 329l139 609h335z" />
    <glyph glyph-name="z" unicode="z" horiz-adv-x="1108" 
d="M572 840l58 83h-488l2 217h866l35 -95l-484 -745l-61 -84h529v-216h-911l-42 83z" />
    <glyph glyph-name="braceleft" unicode="{" horiz-adv-x="952" 
d="M474.5 829q-52.5 -26 -125.5 -53q154 -54 206 -112q39 -44 39 -102v-582h262v-156q-62 -17 -144.5 -26t-167.5 -9q-78 0 -126 27t-71 86t-23 158v487q0 34 -41 63t-101 48t-114 24v191q57 6 116 22t99.5 43t40.5 62v486q0 99 23 158t71 86t126 27q124 0 312 -24v-171
h-262v-571q0 -60 -39 -104q-28 -32 -80.5 -58z" />
    <glyph glyph-name="bar" unicode="|" horiz-adv-x="865" 
d="M560 1780v-1967h-255v1967h255z" />
    <glyph glyph-name="braceright" unicode="}" horiz-adv-x="952" 
d="M658.5 938q40.5 -27 99.5 -43t116 -22v-191q-54 -5 -114 -24t-101 -48t-41 -63v-487q0 -99 -23 -158t-71 -86t-126 -27q-85 0 -167.5 9t-144.5 26v156h262v582q0 58 39 102q52 58 206 112q-73 27 -125.5 53t-80.5 58q-39 44 -39 104v571h-262v171q188 24 312 24
q78 0 126 -27t71 -86t23 -158v-486q0 -35 40.5 -62z" />
    <glyph glyph-name="asciitilde" unicode="~" horiz-adv-x="1448" 
d="M269 925q48 52 118 88.5t146 36.5q53 0 94 -12.5t70.5 -30.5t66.5 -46q47 -35 80 -51.5t78 -16.5q64 0 111.5 29.5t89.5 75.5l116 -138q-15 -48 -62.5 -97.5t-118 -81.5t-150.5 -32q-51 0 -90 12t-65.5 30t-59.5 46q-45 36 -77.5 53.5t-81.5 17.5q-63 0 -107 -28.5
t-89 -77.5l-130 128q13 43 61 95z" />
    <glyph glyph-name="uni00A0" unicode="&#xa0;" horiz-adv-x="669" 
 />
    <glyph glyph-name="exclamdown" unicode="&#xa1;" horiz-adv-x="641" 
d="M477 1066q-28 -48 -74.5 -76.5t-100.5 -28.5q-57 0 -99.5 25.5t-64.5 69.5t-22 99q0 56 27 104.5t74 77.5t102 29q53 0 95.5 -26t66.5 -71t24 -100t-28 -103zM133 -436l34 1225h267l46 -1225h-347z" />
    <glyph glyph-name="cent" unicode="&#xa2;" horiz-adv-x="1187" 
d="M905 24.5q-76 -29.5 -166 -37.5l-3 -203h-172l4 208q-138 22 -233.5 100t-143 197t-47.5 267q0 153 50 278t152 207.5t251 105.5l6 230h171l-5 -223q83 -4 148 -20.5t92 -35.5l-39 -241q-43 23 -95.5 33.5t-129.5 10.5q-72 0 -137 -30.5t-108 -99t-46 -176.5
q-3 -119 32 -200t99.5 -120.5t147.5 -39.5q75 0 143.5 13.5t104.5 33.5l45 -185q-45 -43 -121 -72.5z" />
    <glyph glyph-name="sterling" unicode="&#xa3;" horiz-adv-x="1576" 
d="M1411 516q42 -57 42 -168q0 -172 -116.5 -269t-342.5 -97q-115 0 -197.5 19t-177.5 52q-56 20 -89.5 29t-66.5 8q-34 -38 -92.5 -68t-114.5 -30q-34 0 -66.5 13t-54 41t-21.5 70q0 53 35.5 93t96 62.5t135.5 24.5q19 26 27 99.5t8 139.5v182h-176v181h176v127
q0 151 58 267t174.5 181t285.5 65q115 0 208.5 -27.5t158.5 -69.5l-126 -229q-106 82 -212 82q-67 0 -114.5 -20t-80 -92.5t-32.5 -218.5v-65h310v-181h-310v-163q0 -121 -28 -191t-82 -118q34 -7 85 -20q65 -17 113 -25t114 -8q116 0 171 41.5t55 114.5q0 50 -18.5 90
t-44.5 58l211 110q57 -33 99 -90z" />
    <glyph glyph-name="currency" unicode="&#xa4;" horiz-adv-x="1544" 
d="M1193.5 636.5q-20.5 -65.5 -57.5 -121.5l195 -199l-140 -145l-203 206q-104 -60 -224 -60t-221 59l-202 -206l-141 144l195 199q-38 56 -58.5 122t-20.5 138q0 140 77 257l-192 197l139 147l200 -206q103 61 224 61q123 0 226 -61l213 213l141 -147l-206 -207
q76 -116 76 -254q0 -71 -20.5 -136.5zM879 569.5q52 32.5 82.5 87t30.5 116.5t-30.5 116.5t-82.5 87t-113 32.5t-113.5 -32.5t-83.5 -87t-31 -116.5t31 -116.5t83.5 -87t113.5 -32.5t113 32.5z" />
    <glyph glyph-name="yen" unicode="&#xa5;" horiz-adv-x="1576" 
d="M1015 851h266v-192h-347v-198h347v-192h-347v-269h-290v269h-358v192h358v198h-358v192h291l-419 671h323l240 -420l69 -141l67 143l255 418h325z" />
    <glyph glyph-name="brokenbar" unicode="&#xa6;" horiz-adv-x="865" 
d="M560 1780v-816h-255v816h255zM560 620v-806h-255v806h255z" />
    <glyph glyph-name="section" unicode="&#xa7;" horiz-adv-x="1402" 
d="M1083 399q89 -96 89 -239q0 -120 -73.5 -199.5t-186 -116.5t-231.5 -37q-130 0 -242 28.5t-164 64.5l42 225q48 -36 137.5 -65.5t204.5 -29.5q99 0 156.5 31.5t57.5 103.5q0 37 -30.5 66.5t-77.5 52t-131 56.5q-134 53 -220 100.5t-148.5 128t-62.5 198.5q0 82 44 158
t121 139q-114 104 -114 258q0 121 71.5 200t179.5 115t222 36q128 0 221.5 -21.5t144.5 -51.5l-42 -225q-42 30 -115.5 52.5t-184.5 22.5q-91 0 -144.5 -30.5t-53.5 -97.5q0 -41 31.5 -74.5t79 -60t134.5 -67.5q129 -60 211.5 -111t142 -133t59.5 -198q0 -149 -128 -279z
M509 714.5q38 -42.5 94.5 -70t157.5 -65.5q106 -40 160 -66q28 68 28 114q0 66 -39.5 114t-98.5 81.5t-162 79.5q-99 45 -128 60q-50 -85 -50 -144q0 -61 38 -103.5z" />
    <glyph glyph-name="dieresis" unicode="&#xa8;" horiz-adv-x="974" 
d="M95 1569.5q25 42.5 67.5 68t92.5 25.5q80 0 122 -46.5t42 -121.5q0 -50 -24 -92.5t-66 -67.5t-93 -25q-75 0 -120.5 47t-45.5 121q0 49 25 91.5zM580 1569.5q25 42.5 67.5 68t92.5 25.5q80 0 122 -46.5t42 -121.5q0 -50 -24 -92.5t-66 -67.5t-93 -25q-75 0 -120.5 47
t-45.5 121q0 49 25 91.5z" />
    <glyph glyph-name="copyright" unicode="&#xa9;" horiz-adv-x="2093" 
d="M1485 1722.5q200 -117.5 316 -319t116 -440.5q0 -240 -116.5 -442t-316 -320.5t-438.5 -118.5t-438.5 118.5t-315.5 320.5t-116 442q0 239 116 440.5t315.5 319t438.5 117.5t439 -117.5zM1417.5 312q166.5 101 261.5 273.5t95 377.5t-95 377t-261.5 273t-371.5 101
t-371.5 -101t-261.5 -273t-95 -377t95 -377.5t261.5 -273.5t371.5 -101t371.5 101zM1247 1435q68 -14 102 -33l-45 -206q-33 24 -93 41t-119 17q-74 0 -131.5 -31.5t-90 -91t-32.5 -140.5q0 -164 71 -240.5t195 -76.5q118 0 225 64l48 -159q-52 -43 -142.5 -73.5
t-185.5 -30.5q-133 0 -234 64.5t-156 174.5t-55 241q0 142 58 254t169.5 176t267.5 64q80 0 148 -14z" />
    <glyph glyph-name="ordfeminine" unicode="&#xaa;" horiz-adv-x="1067" 
d="M761.5 1586.5q84.5 -29.5 128 -97.5t43.5 -182v-630h-130q-52 0 -72 2.5t-33 18t-13 54.5v13q-21 -22 -64 -44.5t-98 -38t-110 -15.5q-90 0 -156.5 34t-101.5 95.5t-35 143.5q0 100 52 168t140 103q149 55 361 55v35q0 53 -17.5 80t-54.5 36.5t-103 9.5
q-44 0 -104.5 -12.5t-114 -30.5t-76.5 -34l-56 155q20 19 87.5 45.5t152.5 46t159 19.5q131 0 215.5 -29.5zM410 884q35 -26 87 -26q55 0 106 17t70 32v213q-79 0 -130.5 -6t-92.5 -28q-42 -24 -58.5 -54.5t-16.5 -73.5q0 -48 35 -74z" />
    <glyph glyph-name="guillemotleft" unicode="&#xab;" horiz-adv-x="1998" 
d="M535 615l431 -325l-75 -214l-656 416v243l656 422l75 -216zM1318 615l431 -325l-75 -214l-656 416v243l656 422l75 -216z" />
    <glyph glyph-name="logicalnot" unicode="&#xac;" horiz-adv-x="1480" 
d="M1235 852v-529h-244v316h-746v213h990z" />
    <glyph glyph-name="registered" unicode="&#xae;" horiz-adv-x="2093" 
d="M1486 1722q201 -118 318 -319.5t117 -440.5q0 -240 -117 -442t-318 -320.5t-440 -118.5t-439.5 118.5t-317.5 320.5t-117 442q0 239 117 440.5t317.5 319.5t439.5 118t440 -118zM1417.5 312q167.5 101 264 273t96.5 377q0 204 -96.5 376t-264 273t-371.5 101t-371.5 -101
t-264 -273t-96.5 -376q0 -205 96.5 -377t264 -273t371.5 -101t371.5 101zM798 1444q30 0 102 2q123 3 159 3q117 0 196.5 -35t119 -97t39.5 -143q0 -258 -190 -317q49 -25 81.5 -72.5t71.5 -127.5q32 -64 39 -76q5 -8 20.5 -35t45.5 -64h-246q-11 11 -20.5 27.5t-18.5 34.5
l-12 24q-7 14 -29 66q-21 54 -38.5 89t-44 65.5t-63.5 43.5q-13 -1 -89 -1v-350h-212v963h89zM1155.5 1022q39.5 42 39.5 123q0 72 -38.5 108t-129.5 36h-30t-40.5 -2.5t-35.5 -8.5v-291q34 -7 118 -7q77 0 116.5 42z" />
    <glyph glyph-name="macron" unicode="&#xaf;" horiz-adv-x="701" 
d="M646 1626v-206h-591v206h591z" />
    <glyph glyph-name="degree" unicode="&#xb0;" horiz-adv-x="957" 
d="M659.5 1587q82.5 -47 130.5 -129t48 -180q0 -102 -46.5 -183.5t-129 -127.5t-184.5 -46q-99 0 -181.5 47.5t-130.5 129.5t-48 180q0 101 47 182t129 127.5t184 46.5q99 0 181.5 -47zM566 1120.5q40 23.5 62.5 65t22.5 92.5q0 50 -23 91.5t-63 65t-87 23.5
q-48 0 -87.5 -23.5t-62 -64.5t-22.5 -92q0 -50 23 -91.5t62.5 -65.5t86.5 -24q48 0 88 23.5z" />
    <glyph glyph-name="plusminus" unicode="&#xb1;" horiz-adv-x="1403" 
d="M584 662l-162 -6h-209v237h209l162 -7l-6 187v217h246v-217l-7 -187l151 7h222v-237h-222l-151 6l7 -188v-214h-246v214zM1152 198v-198h-909v198h909z" />
    <glyph glyph-name="uni00B2" unicode="&#xb2;" horiz-adv-x="1234" 
d="M1046 921v-241h-817l-43 154q89 46 211 138.5t212.5 199t90.5 194.5q0 153 -165 153q-81 0 -145.5 -37.5t-125.5 -113.5l-108 149q32 50 99 97.5t157.5 78t189.5 30.5q135 0 223 -46t128 -114.5t40 -138.5q0 -147 -102.5 -275t-292.5 -248z" />
    <glyph glyph-name="uni00B3" unicode="&#xb3;" horiz-adv-x="1234" 
d="M400.5 795.5q48.5 -7.5 127.5 -7.5q126 1 183 40t57 115q0 51 -41.5 88.5t-133.5 53.5l-159 -33l1 185q70 10 125 23q72 22 116.5 64t44.5 95q0 50 -41 76t-117 26q-53 0 -120 -20t-129 -58l-66 157q37 31 102 57t136 41t126 15q126 0 208.5 -31.5t121.5 -86.5t39 -125
q0 -83 -41.5 -150.5t-147.5 -124.5q78 -4 134.5 -38.5t86 -87.5t29.5 -113q0 -106 -51 -189t-156.5 -131t-263.5 -48q-69 0 -121.5 9.5t-113.5 25.5q-24 7 -47 12l-6 184q69 -16 117.5 -23.5z" />
    <glyph glyph-name="acute" unicode="&#xb4;" horiz-adv-x="665" 
d="M234 1581q89 108 162 227l214 -174q-27 -63 -106.5 -145t-168 -150t-131.5 -87l-149 137q90 84 179 192z" />
    <glyph glyph-name="uni00B5" unicode="&#xb5;" horiz-adv-x="1404" 
d="M1337 87q-10 -15 -45 -40t-90 -45t-119 -20q-145 0 -151 138q-38 -55 -102.5 -95.5t-161.5 -40.5q-79 0 -136.5 15.5t-97.5 52.5l29 -423h-282v1511h312v-656q0 -92 20 -147t64.5 -80t119.5 -25q43 0 90.5 19.5t81.5 48.5v840h312v-859q0 -76 43 -76q13 0 35 6t47 21z
" />
    <glyph glyph-name="paragraph" unicode="&#xb6;" horiz-adv-x="1410" 
d="M173 891q-111 114 -111 357q0 226 149.5 344.5t446.5 118.5q49 0 161 -5t147 -6q186 -8 236 -9v-1691h-252v1522h-202v-1522h-252v777q-212 0 -323 114z" />
    <glyph glyph-name="periodcentered" unicode="&#xb7;" horiz-adv-x="641" 
d="M154 884.5q28 48.5 75 77.5t101 29q57 0 99 -25.5t64 -70.5t22 -100q0 -56 -27 -104t-73.5 -76.5t-101.5 -28.5q-53 0 -96 25.5t-67 70t-24 99.5t28 103.5z" />
    <glyph glyph-name="cedilla" unicode="&#xb8;" horiz-adv-x="518" 
d="M130 -285q51 0 84.5 38t36.5 112q1 12 1 34q0 44 -8.5 74t-23.5 57l137 4l49 -4q33 -31 49 -102t13 -149q-4 -122 -75.5 -182.5t-179.5 -60.5q-47 0 -104.5 8.5t-75.5 19.5l20 165q22 -14 77 -14z" />
    <glyph glyph-name="uni00B9" unicode="&#xb9;" horiz-adv-x="1066" 
d="M389 1396q-97 -27 -174 -41l-40 161q56 16 133.5 52.5t144.5 75.5t92 60l145 -25v-1006h-279v729z" />
    <glyph glyph-name="ordmasculine" unicode="&#xba;" horiz-adv-x="1065" 
d="M787 1559q97 -59 146 -165t49 -247q0 -164 -62 -271.5t-164.5 -157t-226.5 -49.5q-143 0 -243 59t-151.5 166.5t-51.5 253.5q0 162 67 267.5t173.5 154t228.5 48.5q138 0 235 -59zM672.5 924.5q42.5 64.5 42.5 209.5q0 139 -42.5 216t-128.5 77q-95 0 -144.5 -64
t-49.5 -207q0 -138 47.5 -217t140.5 -79q92 0 134.5 64.5z" />
    <glyph glyph-name="guillemotright" unicode="&#xbb;" horiz-adv-x="1998" 
d="M314 1157l656 -422v-243l-656 -416l-75 214l431 325l-431 326zM1753 735v-243l-656 -416l-75 214l431 325l-431 326l75 216z" />
    <glyph glyph-name="onequarter" unicode="&#xbc;" horiz-adv-x="2559" 
d="M2360 195h-164v-272h-256l1 272h-546l-52 94l498 889h68l187 -92l-440 -699h285l25 260h230v-260h164v-192zM1310 1530h243l-542 -1530h-240zM421 1396q-97 -27 -174 -41l-40 161q56 16 133.5 52.5t144.5 75.5t92 60l145 -25v-1006h-279v729z" />
    <glyph glyph-name="onehalf" unicode="&#xbd;" horiz-adv-x="2559" 
d="M2368 239v-241h-817l-43 154q89 46 211 138.5t212.5 199t90.5 194.5q0 153 -165 153q-81 0 -145.5 -37.5t-125.5 -113.5l-108 149q32 50 99 97.5t157.5 78t189.5 30.5q135 0 223 -46t128 -114.5t40 -138.5q0 -147 -102.5 -275t-292.5 -248zM422 1396q-97 -27 -174 -41
l-40 161q56 16 133.5 52.5t144.5 75.5t92 60l145 -25v-1006h-279v729zM1310 1530h243l-542 -1530h-240z" />
    <glyph glyph-name="threequarters" unicode="&#xbe;" horiz-adv-x="2559" 
d="M2360 195h-164v-272h-256l1 272h-546l-52 94l498 889h68l187 -92l-440 -699h285l25 260h230v-260h164v-192zM266.5 795.5q48.5 -7.5 127.5 -7.5q126 1 183 40t57 115q0 51 -41.5 88.5t-133.5 53.5l-159 -33l1 185q70 10 125 23q72 22 116.5 64t44.5 95q0 50 -41 76
t-117 26q-53 0 -120 -20t-129 -58l-66 157q37 31 102 57t136 41t126 15q126 0 208.5 -31.5t121.5 -86.5t39 -125q0 -83 -41.5 -150.5t-147.5 -124.5q78 -4 134.5 -38.5t86 -87.5t29.5 -113q0 -106 -51 -189t-156.5 -131t-263.5 -48q-69 0 -121.5 9.5t-113.5 25.5
q-24 7 -47 12l-6 184q69 -16 117.5 -23.5zM1310 1530h243l-542 -1530h-240z" />
    <glyph glyph-name="questiondown" unicode="&#xbf;" horiz-adv-x="1057" 
d="M714.5 1273q-26.5 -44 -71 -70t-93.5 -26q-53 0 -93 23t-61.5 63.5t-21.5 90.5q0 51 26.5 95t70.5 70.5t94 26.5q49 0 89 -23.5t63.5 -64.5t23.5 -91t-26.5 -94zM759 613q-29 -57 -70.5 -98t-110.5 -96q-63 -50 -100.5 -85.5t-62.5 -83t-25 -106.5q0 -106 79.5 -158.5
t245.5 -52.5q68 0 110.5 6t65.5 12t30 8v-232q-33 -20 -106.5 -34.5t-162.5 -14.5q-213 0 -346 62.5t-190.5 164t-54.5 224.5q0 95 34.5 168.5t84 124t130.5 116.5q66 55 103 91t64 82.5t31 102.5q1 10 1 28q0 32 -6 59.5t-20 76.5q-2 8 -11 40h238q34 -52 56 -117.5
t22 -156.5q0 -74 -29 -131z" />
    <glyph glyph-name="Agrave" unicode="&#xc0;" horiz-adv-x="1421" 
d="M987 322h-559l-101 -322h-342l562 1538h322l567 -1538h-347zM914 551l-165 522l-43 157l-44 -157l-163 -522h415zM593.5 1610q-71.5 52 -141.5 119t-109 120l217 131q11 -32 94 -115t201 -197l-146 -125q-44 15 -115.5 67z" />
    <glyph glyph-name="Aacute" unicode="&#xc1;" horiz-adv-x="1421" 
d="M987 322h-559l-101 -322h-342l562 1538h322l567 -1538h-347zM914 551l-165 522l-43 157l-44 -157l-163 -522h415zM746.5 1841q106.5 107 117.5 139l217 -131q-44 -57 -112 -122.5t-137.5 -116.5t-116.5 -67l-146 125q71 66 177.5 173z" />
    <glyph glyph-name="Acircumflex" unicode="&#xc2;" horiz-adv-x="1421" 
d="M987 322h-559l-101 -322h-342l562 1538h322l567 -1538h-347zM914 551l-165 522l-43 157l-44 -157l-163 -522h415zM601 1959h220l276 -308l-165 -92l-221 199l-222 -199l-162 90z" />
    <glyph glyph-name="Atilde" unicode="&#xc3;" horiz-adv-x="1421" 
d="M987 322h-559l-101 -322h-342l562 1538h322l567 -1538h-347zM914 551l-165 522l-43 157l-44 -157l-163 -522h415zM390 1894q78 63 188 63q60 0 99 -19.5t84 -56.5q34 -28 57 -41t54 -13q45 0 82 31t73 80l126 -108q-36 -104 -111.5 -166t-186.5 -62q-58 0 -95.5 19
t-81.5 56q-37 30 -62 44t-60 14q-39 0 -79.5 -30t-74.5 -72l-125 98q35 100 113 163z" />
    <glyph glyph-name="Adieresis" unicode="&#xc4;" horiz-adv-x="1421" 
d="M987 322h-559l-101 -322h-342l562 1538h322l567 -1538h-347zM914 551l-165 522l-43 157l-44 -157l-163 -522h415zM297 1870q25 42 68 66t94 24q81 0 124.5 -44.5t43.5 -119.5q0 -51 -24.5 -92.5t-67 -65.5t-94.5 -24q-77 0 -123 45t-46 119q0 50 25 92zM821 1870
q25 42 68 66t94 24q81 0 124 -44.5t43 -119.5q0 -51 -24 -92.5t-66.5 -65.5t-95.5 -24q-76 0 -122 45t-46 119q0 50 25 92z" />
    <glyph glyph-name="Aring" unicode="&#xc5;" horiz-adv-x="1421" 
d="M987 322h-559l-101 -322h-342l530 1451q-72 33 -110 94.5t-38 147.5q0 98 49.5 160t127.5 89t170 27q159 0 247.5 -69t88.5 -203q0 -89 -40 -150t-110 -93l536 -1454h-347zM592 1795.5q-41 -27.5 -41 -97.5q0 -62 43 -96.5t114 -34.5q79 -1 119 25t40 99q0 66 -45 99
t-119 33q-70 0 -111 -27.5zM914 551l-165 522l-43 157l-44 -157l-163 -522h415z" />
    <glyph glyph-name="AE" unicode="&#xc6;" horiz-adv-x="1939" 
d="M1853 251v-251h-993v376h-448l-178 -376h-345l766 1522h1133v-244h-610v-374h468v-241h-468v-412h675zM860 598v726l-343 -726h343z" />
    <glyph glyph-name="Ccedilla" unicode="&#xc7;" horiz-adv-x="1299" 
d="M1244 64q-80 -32 -147 -51t-159 -26q18 -40 26.5 -95.5t6.5 -112.5q-4 -122 -75.5 -182.5t-179.5 -60.5q-47 0 -104.5 8.5t-75.5 19.5l20 165q22 -14 77 -14q51 0 84.5 38t36.5 112q1 12 1 34q0 55 -14 92q-198 24 -342.5 125.5t-221.5 266.5t-77 374q0 245 98.5 421.5
t268 268t379.5 91.5q111 0 184.5 -11t157.5 -32q61 -14 72 -16l-46 -280q-6 3 -52 28.5t-124 42t-172 16.5q-124 0 -223.5 -61t-157 -176.5t-57.5 -271.5q0 -158 55.5 -282.5t160 -194.5t246.5 -70q65 0 136.5 15.5t130 38t86.5 42.5z" />
    <glyph glyph-name="Egrave" unicode="&#xc8;" horiz-adv-x="1254" 
d="M582.5 1610q-71.5 52 -141.5 119t-109 120l217 131q11 -32 94 -115t201 -197l-146 -125q-44 15 -115.5 67zM1116 1522v-244h-610v-378h468v-241h-468v-408h675v-251h-993v1522h928z" />
    <glyph glyph-name="Eacute" unicode="&#xc9;" horiz-adv-x="1254" 
d="M735.5 1841q106.5 107 117.5 139l217 -131q-44 -57 -112 -122.5t-137.5 -116.5t-116.5 -67l-146 125q71 66 177.5 173zM1116 1522v-244h-610v-378h468v-241h-468v-408h675v-251h-993v1522h928z" />
    <glyph glyph-name="Ecircumflex" unicode="&#xca;" horiz-adv-x="1254" 
d="M1116 1522v-244h-610v-378h468v-241h-468v-408h675v-251h-993v1522h928zM590 1959h220l276 -308l-165 -92l-221 199l-222 -199l-162 90z" />
    <glyph glyph-name="Edieresis" unicode="&#xcb;" horiz-adv-x="1254" 
d="M286 1870q25 42 68 66t94 24q81 0 124.5 -44.5t43.5 -119.5q0 -51 -24.5 -92.5t-67 -65.5t-94.5 -24q-77 0 -123 45t-46 119q0 50 25 92zM810 1870q25 42 68 66t94 24q81 0 124 -44.5t43 -119.5q0 -51 -24 -92.5t-66.5 -65.5t-95.5 -24q-76 0 -122 45t-46 119q0 50 25 92
zM1116 1522v-244h-610v-378h468v-241h-468v-408h675v-251h-993v1522h928z" />
    <glyph glyph-name="Igrave" unicode="&#xcc;" horiz-adv-x="722" 
d="M521 1522v-1522h-320v1522h320zM243.5 1610q-71.5 52 -141.5 119t-109 120l217 131q11 -32 94 -115t201 -197l-146 -125q-44 15 -115.5 67z" />
    <glyph glyph-name="Iacute" unicode="&#xcd;" horiz-adv-x="722" 
d="M521 1522v-1522h-320v1522h320zM396.5 1841q106.5 107 117.5 139l217 -131q-44 -57 -112 -122.5t-137.5 -116.5t-116.5 -67l-146 125q71 66 177.5 173z" />
    <glyph glyph-name="Icircumflex" unicode="&#xce;" horiz-adv-x="722" 
d="M521 1522v-1522h-320v1522h320zM251 1959h220l276 -308l-165 -92l-221 199l-222 -199l-162 90z" />
    <glyph glyph-name="Idieresis" unicode="&#xcf;" horiz-adv-x="722" 
d="M521 1522v-1522h-320v1522h320zM-53 1870q25 42 68 66t94 24q81 0 124.5 -44.5t43.5 -119.5q0 -51 -24.5 -92.5t-67 -65.5t-94.5 -24q-77 0 -123 45t-46 119q0 50 25 92zM471 1870q25 42 68 66t94 24q81 0 124 -44.5t43 -119.5q0 -51 -24 -92.5t-66.5 -65.5t-95.5 -24
q-76 0 -122 45t-46 119q0 50 25 92z" />
    <glyph glyph-name="Eth" unicode="&#xd0;" horiz-adv-x="1554" 
d="M1268.5 1348q185.5 -190 185.5 -547q0 -255 -93 -439t-264.5 -281t-403.5 -97q-72 0 -214 9q-87 7 -137 7h-154v694h-119v201h119v627h151q32 0 128 6q134 10 241 10q375 0 560.5 -190zM1010.5 361.5q107.5 131.5 107.5 405.5q0 196 -47.5 312.5t-143.5 167.5t-249 51
q-53 0 -129 -10l-40 -4v-389h337v-201h-337v-448q68 -18 204 -18q190 2 297.5 133.5z" />
    <glyph glyph-name="Ntilde" unicode="&#xd1;" horiz-adv-x="1622" 
d="M489 1894q78 63 188 63q60 0 99 -19.5t84 -56.5q34 -28 57 -41t54 -13q45 0 82 31t73 80l126 -108q-36 -104 -111.5 -166t-186.5 -62q-58 0 -95.5 19t-81.5 56q-37 30 -62 44t-60 14q-39 0 -79.5 -30t-74.5 -72l-125 98q35 100 113 163zM1432 1522v-1522h-319l-543 861
l-120 243l34 -363v-741h-296v1522h295l567 -895l115 -228l-29 366v757h296z" />
    <glyph glyph-name="Ograve" unicode="&#xd2;" 
d="M705.5 1610q-71.5 52 -141.5 119t-109 120l217 131q11 -32 94 -115t201 -197l-146 -125q-44 15 -115.5 67zM195.5 1194.5q92.5 169.5 253 253.5t372.5 90q207 6 362 -90t236.5 -274t77.5 -411q-5 -260 -97 -434.5t-253 -259.5t-374 -85q-210 0 -364.5 99.5t-234.5 277.5
t-76 408q5 256 97.5 425.5zM1128.5 1044q-39.5 118 -119 185t-195.5 67q-111 0 -198 -55t-138 -175t-51 -308q0 -153 41.5 -275t125 -192t204.5 -70q175 0 272.5 137t97.5 415q0 153 -39.5 271z" />
    <glyph glyph-name="Oacute" unicode="&#xd3;" 
d="M858.5 1877q106.5 107 117.5 139l217 -131q-44 -57 -112 -122.5t-137.5 -116.5t-116.5 -67l-146 125q71 66 177.5 173zM195.5 1194.5q92.5 169.5 253 253.5t372.5 90q207 6 362 -90t236.5 -274t77.5 -411q-5 -260 -97 -434.5t-253 -259.5t-374 -85q-210 0 -364.5 99.5
t-234.5 277.5t-76 408q5 256 97.5 425.5zM1128.5 1044q-39.5 118 -119 185t-195.5 67q-111 0 -198 -55t-138 -175t-51 -308q0 -153 41.5 -275t125 -192t204.5 -70q175 0 272.5 137t97.5 415q0 153 -39.5 271z" />
    <glyph glyph-name="Ocircumflex" unicode="&#xd4;" 
d="M195.5 1194.5q92.5 169.5 253 253.5t372.5 90q207 6 362 -90t236.5 -274t77.5 -411q-5 -260 -97 -434.5t-253 -259.5t-374 -85q-210 0 -364.5 99.5t-234.5 277.5t-76 408q5 256 97.5 425.5zM1128.5 1044q-39.5 118 -119 185t-195.5 67q-111 0 -198 -55t-138 -175
t-51 -308q0 -153 41.5 -275t125 -192t204.5 -70q175 0 272.5 137t97.5 415q0 153 -39.5 271zM713 1959h220l276 -308l-165 -92l-221 199l-222 -199l-162 90z" />
    <glyph glyph-name="Otilde" unicode="&#xd5;" 
d="M502 1894q78 63 188 63q60 0 99 -19.5t84 -56.5q34 -28 57 -41t54 -13q45 0 82 31t73 80l126 -108q-36 -104 -111.5 -166t-186.5 -62q-58 0 -95.5 19t-81.5 56q-37 30 -62 44t-60 14q-39 0 -79.5 -30t-74.5 -72l-125 98q35 100 113 163zM195.5 1194.5
q92.5 169.5 253 253.5t372.5 90q207 6 362 -90t236.5 -274t77.5 -411q-5 -260 -97 -434.5t-253 -259.5t-374 -85q-210 0 -364.5 99.5t-234.5 277.5t-76 408q5 256 97.5 425.5zM1128.5 1044q-39.5 118 -119 185t-195.5 67q-111 0 -198 -55t-138 -175t-51 -308
q0 -153 41.5 -275t125 -192t204.5 -70q175 0 272.5 137t97.5 415q0 153 -39.5 271z" />
    <glyph glyph-name="Odieresis" unicode="&#xd6;" 
d="M409 1870q25 42 68 66t94 24q81 0 124.5 -44.5t43.5 -119.5q0 -51 -24.5 -92.5t-67 -65.5t-94.5 -24q-77 0 -123 45t-46 119q0 50 25 92zM933 1870q25 42 68 66t94 24q81 0 124 -44.5t43 -119.5q0 -51 -24 -92.5t-66.5 -65.5t-95.5 -24q-76 0 -122 45t-46 119q0 50 25 92
zM195.5 1194.5q92.5 169.5 253 253.5t372.5 90q207 6 362 -90t236.5 -274t77.5 -411q-5 -260 -97 -434.5t-253 -259.5t-374 -85q-210 0 -364.5 99.5t-234.5 277.5t-76 408q5 256 97.5 425.5zM1128.5 1044q-39.5 118 -119 185t-195.5 67q-111 0 -198 -55t-138 -175t-51 -308
q0 -153 41.5 -275t125 -192t204.5 -70q175 0 272.5 137t97.5 415q0 153 -39.5 271z" />
    <glyph glyph-name="multiply" unicode="&#xd7;" horiz-adv-x="1380" 
d="M168 1160l171 160l354 -378l351 378l171 -160l-359 -383l356 -369l-171 -171l-351 368l-351 -368l-171 171l359 368z" />
    <glyph glyph-name="Oslash" unicode="&#xd8;" 
d="M1323.5 1328q84.5 -100 129 -238t44.5 -303q0 -268 -91.5 -447.5t-255 -267.5t-379.5 -88q-98 0 -187 23l-83 -227l-125 32l88 240q-118 59 -201.5 163.5t-125.5 245.5t-39 308q5 256 97.5 425.5t253 253.5t372.5 90q90 3 178 -16l94 259l125 -32l-97 -268
q118 -53 202.5 -153zM461.5 507q34.5 -113 100.5 -185l349 960q-47 14 -97 14q-111 0 -198 -55t-138 -175t-51 -308q0 -138 34.5 -251zM1070.5 358q97.5 137 97.5 415q0 146 -36.5 261t-107.5 182l-354 -971q57 -24 128 -24q175 0 272.5 137z" />
    <glyph glyph-name="Ugrave" unicode="&#xd9;" horiz-adv-x="1525" 
d="M650.5 1610q-71.5 52 -141.5 119t-109 120l217 131q11 -32 94 -115t201 -197l-146 -125q-44 15 -115.5 67zM152 1522h315l-2 -852q0 -173 33.5 -267t98.5 -129.5t170 -35.5q101 0 165 38.5t97.5 133t33.5 260.5v852h313v-882q0 -321 -156 -488.5t-462 -167.5
q-326 0 -467.5 173.5t-140.5 495.5z" />
    <glyph glyph-name="Uacute" unicode="&#xda;" horiz-adv-x="1525" 
d="M803.5 1841q106.5 107 117.5 139l217 -131q-44 -57 -112 -122.5t-137.5 -116.5t-116.5 -67l-146 125q71 66 177.5 173zM152 1522h315l-2 -852q0 -173 33.5 -267t98.5 -129.5t170 -35.5q101 0 165 38.5t97.5 133t33.5 260.5v852h313v-882q0 -321 -156 -488.5t-462 -167.5
q-326 0 -467.5 173.5t-140.5 495.5z" />
    <glyph glyph-name="Ucircumflex" unicode="&#xdb;" horiz-adv-x="1525" 
d="M152 1522h315l-2 -852q0 -173 33.5 -267t98.5 -129.5t170 -35.5q101 0 165 38.5t97.5 133t33.5 260.5v852h313v-882q0 -321 -156 -488.5t-462 -167.5q-326 0 -467.5 173.5t-140.5 495.5zM658 1959h220l276 -308l-165 -92l-221 199l-222 -199l-162 90z" />
    <glyph glyph-name="Udieresis" unicode="&#xdc;" horiz-adv-x="1525" 
d="M354 1870q25 42 68 66t94 24q81 0 124.5 -44.5t43.5 -119.5q0 -51 -24.5 -92.5t-67 -65.5t-94.5 -24q-77 0 -123 45t-46 119q0 50 25 92zM878 1870q25 42 68 66t94 24q81 0 124 -44.5t43 -119.5q0 -51 -24 -92.5t-66.5 -65.5t-95.5 -24q-76 0 -122 45t-46 119q0 50 25 92
zM152 1522h315l-2 -852q0 -173 33.5 -267t98.5 -129.5t170 -35.5q101 0 165 38.5t97.5 133t33.5 260.5v852h313v-882q0 -321 -156 -488.5t-462 -167.5q-326 0 -467.5 173.5t-140.5 495.5z" />
    <glyph glyph-name="Yacute" unicode="&#xdd;" horiz-adv-x="1241" 
d="M780 533v-533h-319v535l-511 987h350l280 -590l44 -113l38 113l288 590h341zM674.5 1841q106.5 107 117.5 139l217 -131q-44 -57 -112 -122.5t-137.5 -116.5t-116.5 -67l-146 125q71 66 177.5 173z" />
    <glyph glyph-name="Thorn" unicode="&#xde;" horiz-adv-x="1359" 
d="M1141.5 1167q140.5 -120 140.5 -362q0 -172 -67 -295t-197 -188t-316 -65q-82 0 -135 4t-61 5v-266h-318v1522h318v-247l65 4q112 8 178 8q252 0 392.5 -120zM821 523.5q66 23.5 106 90t40 188.5q0 119 -72.5 182t-210.5 63q-102 0 -178 -19v-518q36 -7 72 -8.5t84 -1.5
q93 0 159 23.5z" />
    <glyph glyph-name="germandbls" unicode="&#xdf;" horiz-adv-x="1395" 
d="M1013.5 832.5q15.5 -26.5 39.5 -49t68 -59.5q68 -56 112.5 -102.5t76.5 -117.5t32 -165q0 -190 -121 -272.5t-305 -82.5q-80 0 -145 9.5t-91 23.5v223q25 -16 74 -29.5t107 -13.5q63 0 113.5 30t50.5 97q0 44 -17.5 81t-43.5 66t-72 71q-53 49 -85.5 86t-55 89.5
t-22.5 119.5q0 45 14 81.5t34 63t53 62.5q46 50 68.5 87.5t22.5 90.5q0 73 -42 111.5t-120 38.5q-121 0 -185 -96.5t-64 -324.5v-951h-317v924h-139v195l156 29q46 219 205.5 325t388.5 106q134 0 233.5 -38.5t153.5 -109t54 -163.5q0 -62 -22 -108.5t-52.5 -77t-78.5 -68.5
q-48 -37 -71 -64t-23 -61q0 -30 15.5 -56.5z" />
    <glyph glyph-name="agrave" unicode="&#xe0;" horiz-adv-x="1223" 
d="M872.5 1125.5q99.5 -36.5 148.5 -127t49 -253.5v-761h-182q-45 0 -68 6t-36 28t-13 70v8q-52 -48 -128 -80t-169 -32q-110 0 -194.5 47.5t-131 132t-46.5 191.5q0 100 51.5 171t147.5 114q149 66 457 66v72q0 64 -16.5 94t-63 41t-146.5 11q-48 0 -146 -24.5t-168 -56.5
l-69 200q40 24 116 52t167 47.5t175 19.5q166 0 265.5 -36.5zM686 215.5q55 20.5 72 42.5v272q-57 0 -128.5 -12.5t-106.5 -28.5q-45 -17 -72 -46t-27 -86q0 -80 43.5 -121t113.5 -41q50 0 105 20.5zM466 1338q-86 66 -165 147t-110 148l215 174q61 -104 156 -220t185 -199
l-149 -137q-46 21 -132 87z" />
    <glyph glyph-name="aacute" unicode="&#xe1;" horiz-adv-x="1223" 
d="M872.5 1125.5q99.5 -36.5 148.5 -127t49 -253.5v-761h-182q-45 0 -68 6t-36 28t-13 70v8q-52 -48 -128 -80t-169 -32q-110 0 -194.5 47.5t-131 132t-46.5 191.5q0 100 51.5 171t147.5 114q149 66 457 66v72q0 64 -16.5 94t-63 41t-146.5 11q-48 0 -146 -24.5t-168 -56.5
l-69 200q40 24 116 52t167 47.5t175 19.5q166 0 265.5 -36.5zM686 215.5q55 20.5 72 42.5v272q-57 0 -128.5 -12.5t-106.5 -28.5q-45 -17 -72 -46t-27 -86q0 -80 43.5 -121t113.5 -41q50 0 105 20.5zM672 1580q89 108 162 227l214 -174q-27 -63 -106.5 -145t-168 -150
t-131.5 -87l-149 137q90 84 179 192z" />
    <glyph glyph-name="acircumflex" unicode="&#xe2;" horiz-adv-x="1223" 
d="M872.5 1125.5q99.5 -36.5 148.5 -127t49 -253.5v-761h-182q-45 0 -68 6t-36 28t-13 70v8q-52 -48 -128 -80t-169 -32q-110 0 -194.5 47.5t-131 132t-46.5 191.5q0 100 51.5 171t147.5 114q149 66 457 66v72q0 64 -16.5 94t-63 41t-146.5 11q-48 0 -146 -24.5t-168 -56.5
l-69 200q40 24 116 52t167 47.5t175 19.5q166 0 265.5 -36.5zM686 215.5q55 20.5 72 42.5v272q-57 0 -128.5 -12.5t-106.5 -28.5q-45 -17 -72 -46t-27 -86q0 -80 43.5 -121t113.5 -41q50 0 105 20.5zM517 1698h223l283 -372l-161 -90l-233 246l-242 -246l-156 89z" />
    <glyph glyph-name="atilde" unicode="&#xe3;" horiz-adv-x="1223" 
d="M872.5 1125.5q99.5 -36.5 148.5 -127t49 -253.5v-761h-182q-45 0 -68 6t-36 28t-13 70v8q-52 -48 -128 -80t-169 -32q-110 0 -194.5 47.5t-131 132t-46.5 191.5q0 100 51.5 171t147.5 114q149 66 457 66v72q0 64 -16.5 94t-63 41t-146.5 11q-48 0 -146 -24.5t-168 -56.5
l-69 200q40 24 116 52t167 47.5t175 19.5q166 0 265.5 -36.5zM686 215.5q55 20.5 72 42.5v272q-57 0 -128.5 -12.5t-106.5 -28.5q-45 -17 -72 -46t-27 -86q0 -80 43.5 -121t113.5 -41q50 0 105 20.5zM293 1635q78 63 188 63q64 0 104 -20t83 -57q32 -27 54.5 -40t52.5 -13
q45 0 82 31t73 80l126 -108q-36 -104 -111.5 -166t-186.5 -62q-58 0 -95.5 19t-81.5 56q-37 30 -62 44t-60 14q-39 0 -79.5 -30t-74.5 -72l-125 98q35 100 113 163z" />
    <glyph glyph-name="adieresis" unicode="&#xe4;" horiz-adv-x="1223" 
d="M872.5 1125.5q99.5 -36.5 148.5 -127t49 -253.5v-761h-182q-45 0 -68 6t-36 28t-13 70v8q-52 -48 -128 -80t-169 -32q-110 0 -194.5 47.5t-131 132t-46.5 191.5q0 100 51.5 171t147.5 114q149 66 457 66v72q0 64 -16.5 94t-63 41t-146.5 11q-48 0 -146 -24.5t-168 -56.5
l-69 200q40 24 116 52t167 47.5t175 19.5q166 0 265.5 -36.5zM686 215.5q55 20.5 72 42.5v272q-57 0 -128.5 -12.5t-106.5 -28.5q-45 -17 -72 -46t-27 -86q0 -80 43.5 -121t113.5 -41q50 0 105 20.5zM234 1568.5q25 42.5 67.5 68t92.5 25.5q80 0 122 -46.5t42 -121.5
q0 -50 -24 -92.5t-66 -67.5t-93 -25q-75 0 -120.5 47t-45.5 121q0 49 25 91.5zM719 1568.5q25 42.5 67.5 68t92.5 25.5q80 0 122 -46.5t42 -121.5q0 -50 -24 -92.5t-66 -67.5t-93 -25q-75 0 -120.5 47t-45.5 121q0 49 25 91.5z" />
    <glyph glyph-name="aring" unicode="&#xe5;" horiz-adv-x="1223" 
d="M872.5 1125.5q99.5 -36.5 148.5 -127t49 -253.5v-761h-182q-45 0 -68 6t-36 28t-13 70v8q-52 -48 -128 -80t-169 -32q-110 0 -194.5 47.5t-131 132t-46.5 191.5q0 100 51.5 171t147.5 114q149 66 457 66v72q0 64 -16.5 94t-63 41t-146.5 11q-48 0 -146 -24.5t-168 -56.5
l-69 200q40 24 116 52t167 47.5t175 19.5q166 0 265.5 -36.5zM686 215.5q55 20.5 72 42.5v272q-57 0 -128.5 -12.5t-106.5 -28.5q-45 -17 -72 -46t-27 -86q0 -80 43.5 -121t113.5 -41q50 0 105 20.5zM333.5 1764q49.5 64 128 93.5t169.5 29.5q157 0 246.5 -73t89.5 -209
q0 -98 -47.5 -163.5t-126 -97t-171.5 -31.5q-105 0 -181 35t-116.5 99.5t-40.5 153.5q0 99 49.5 163zM738.5 1703q-45.5 38 -117.5 38q-67 0 -110 -32t-43 -103q0 -63 44 -102t113 -39q77 -1 118 29.5t41 104.5q0 66 -45.5 104z" />
    <glyph glyph-name="ae" unicode="&#xe6;" horiz-adv-x="1851" 
d="M1743 495h-674q9 -141 88.5 -210t215.5 -69q65 0 157.5 17.5t135.5 41.5l51 -177q-59 -48 -177 -81t-246 -33q-137 0 -242 45t-173 130q-82 -94 -184 -134.5t-220 -40.5q-104 0 -189 39.5t-134.5 117.5t-49.5 189q0 104 57 183.5t156 123.5q81 36 201 52.5t235 16.5v61
q0 59 -19.5 93t-62 49t-115.5 15q-55 0 -120 -13t-121.5 -32t-84.5 -36l-69 200q35 20 102.5 47t164.5 49.5t201 22.5q125 0 206 -26t127 -88q139 108 347 108q124 0 224 -45t160.5 -145t62.5 -257q0 -144 -11 -214zM1465 712q0 109 -41 165.5t-133 56.5t-146.5 -60.5
t-70.5 -205.5h390q1 15 1 44zM706.5 226.5q62.5 31.5 94.5 71.5q-38 99 -44 232q-68 1 -128.5 -11t-100.5 -30q-33 -14 -54 -28t-36.5 -41.5t-15.5 -72.5q0 -75 44 -113.5t115 -38.5q63 0 125.5 31.5z" />
    <glyph glyph-name="ccedilla" unicode="&#xe7;" horiz-adv-x="1048" 
d="M867 29q-69 -28 -152 -39q19 -39 27.5 -96t6.5 -115q-4 -122 -75.5 -182.5t-179.5 -60.5q-47 0 -104.5 8.5t-75.5 19.5l20 165q22 -14 77 -14q51 0 84.5 38t36.5 112q1 12 1 35q0 56 -14 92q-138 22 -233.5 100t-143 197t-47.5 267q0 172 63 308t191 214t315 78
q101 0 183 -17.5t113 -40.5l-39 -241q-43 23 -95.5 33.5t-129.5 10.5q-72 0 -137 -30.5t-108 -99t-46 -176.5q-3 -119 32 -200t99.5 -120.5t147.5 -39.5q75 0 143.5 13.5t104.5 33.5l45 -185q-41 -40 -110 -68z" />
    <glyph glyph-name="egrave" unicode="&#xe8;" horiz-adv-x="1190" 
d="M1082 495h-674q9 -141 88.5 -210t215.5 -69q65 0 157.5 17.5t135.5 41.5l51 -177q-59 -48 -177 -81t-246 -33q-172 0 -293 70t-183 202.5t-62 317.5q0 168 65 300t189.5 207t296.5 75q124 0 224 -45t160.5 -145t62.5 -257q0 -144 -11 -214zM804 712q0 109 -41 165.5
t-133 56.5t-146.5 -60.5t-70.5 -205.5h390q1 15 1 44zM474 1339q-86 66 -165 147t-110 148l215 174q61 -104 156 -220t185 -199l-149 -137q-46 21 -132 87z" />
    <glyph glyph-name="eacute" unicode="&#xe9;" horiz-adv-x="1190" 
d="M680 1581q89 108 162 227l214 -174q-27 -63 -106.5 -145t-168 -150t-131.5 -87l-149 137q90 84 179 192zM1082 495h-674q9 -141 88.5 -210t215.5 -69q65 0 157.5 17.5t135.5 41.5l51 -177q-59 -48 -177 -81t-246 -33q-172 0 -293 70t-183 202.5t-62 317.5q0 168 65 300
t189.5 207t296.5 75q124 0 224 -45t160.5 -145t62.5 -257q0 -144 -11 -214zM804 712q0 109 -41 165.5t-133 56.5t-146.5 -60.5t-70.5 -205.5h390q1 15 1 44z" />
    <glyph glyph-name="ecircumflex" unicode="&#xea;" horiz-adv-x="1190" 
d="M525 1699h223l283 -372l-161 -90l-233 246l-242 -246l-156 89zM1082 495h-674q9 -141 88.5 -210t215.5 -69q65 0 157.5 17.5t135.5 41.5l51 -177q-59 -48 -177 -81t-246 -33q-172 0 -293 70t-183 202.5t-62 317.5q0 168 65 300t189.5 207t296.5 75q124 0 224 -45
t160.5 -145t62.5 -257q0 -144 -11 -214zM804 712q0 109 -41 165.5t-133 56.5t-146.5 -60.5t-70.5 -205.5h390q1 15 1 44z" />
    <glyph glyph-name="edieresis" unicode="&#xeb;" horiz-adv-x="1190" 
d="M242 1569.5q25 42.5 67.5 68t92.5 25.5q80 0 122 -46.5t42 -121.5q0 -50 -24 -92.5t-66 -67.5t-93 -25q-75 0 -120.5 47t-45.5 121q0 49 25 91.5zM727 1569.5q25 42.5 67.5 68t92.5 25.5q80 0 122 -46.5t42 -121.5q0 -50 -24 -92.5t-66 -67.5t-93 -25q-75 0 -120.5 47
t-45.5 121q0 49 25 91.5zM1082 495h-674q9 -141 88.5 -210t215.5 -69q65 0 157.5 17.5t135.5 41.5l51 -177q-59 -48 -177 -81t-246 -33q-172 0 -293 70t-183 202.5t-62 317.5q0 168 65 300t189.5 207t296.5 75q124 0 224 -45t160.5 -145t62.5 -257q0 -144 -11 -214zM804 712
q0 109 -41 165.5t-133 56.5t-146.5 -60.5t-70.5 -205.5h390q1 15 1 44z" />
    <glyph glyph-name="igrave" unicode="&#xec;" horiz-adv-x="660" 
d="M486 1140v-1140h-312v1140h312zM170 1338q-86 66 -165 147t-110 148l215 174q61 -104 156 -220t185 -199l-149 -137q-46 21 -132 87z" />
    <glyph glyph-name="iacute" unicode="&#xed;" horiz-adv-x="660" 
d="M376 1580q89 108 162 227l214 -174q-27 -63 -106.5 -145t-168 -150t-131.5 -87l-149 137q90 84 179 192zM486 1140v-1140h-312v1140h312z" />
    <glyph glyph-name="icircumflex" unicode="&#xee;" horiz-adv-x="660" 
d="M221 1698h223l283 -372l-161 -90l-233 246l-242 -246l-156 89zM486 1140v-1140h-312v1140h312z" />
    <glyph glyph-name="idieresis" unicode="&#xef;" horiz-adv-x="660" 
d="M-50 1568.5q25 42.5 67.5 68t92.5 25.5q80 0 122 -46.5t42 -121.5q0 -50 -24 -92.5t-66 -67.5t-93 -25q-75 0 -120.5 47t-45.5 121q0 49 25 91.5zM411 1568.5q25 42.5 67.5 68t92.5 25.5q80 0 122 -46.5t42 -121.5q0 -50 -24 -92.5t-66 -67.5t-93 -25q-75 0 -120.5 47
t-45.5 121q0 49 25 91.5zM486 1140v-1140h-312v1140h312z" />
    <glyph glyph-name="eth" unicode="&#xf0;" horiz-adv-x="1294" 
d="M973 1360.5q116 -147.5 179 -331.5t63 -378q0 -218 -74.5 -371t-203 -230t-287.5 -77q-167 0 -293 72.5t-194 203t-68 301.5q0 182 62 317t181 208.5t286 73.5q108 0 192 -52q-31 92 -96.5 176.5t-151.5 146.5l-117 -158l-149 99l122 158q-101 62 -204 92l53 176
q90 -26 154.5 -51t121.5 -56q35 46 74 100.5t51 71.5l152 -100q-11 -15 -49 -64t-74 -93q154 -87 270 -234.5zM778.5 245.5q52.5 43.5 83 127.5t30.5 201q0 166 -6 242q-27 46 -87 81t-139 35q-75 0 -129 -45.5t-83 -132t-29 -207.5q0 -168 63.5 -256.5t177.5 -88.5
q66 0 118.5 43.5z" />
    <glyph glyph-name="ntilde" unicode="&#xf1;" horiz-adv-x="1352" 
d="M457 1140l6 -122q69 52 172 95t199 46q123 4 201 -38.5t116.5 -141t38.5 -264.5v-715h-312v648q0 97 -15 150.5t-51 76.5t-102 21q-50 -1 -113 -23t-111 -64v-809h-312v1140h283zM428 1635q78 63 188 63q64 0 104 -20t83 -57q32 -27 54.5 -40t52.5 -13q45 0 82 31t73 80
l126 -108q-36 -104 -111.5 -166t-186.5 -62q-58 0 -95.5 19t-81.5 56q-37 30 -62 44t-60 14q-39 0 -79.5 -30t-74.5 -72l-125 98q35 100 113 163z" />
    <glyph glyph-name="ograve" unicode="&#xf2;" horiz-adv-x="1302" 
d="M168 893.5q72 129.5 200 196t294 66.5q189 0 311 -79.5t177.5 -213t55.5 -301.5q0 -184 -72 -314t-200 -197t-293 -67q-190 0 -312 80t-177.5 214.5t-55.5 302.5q0 183 72 312.5zM826 827.5q-57 106.5 -173 106.5q-234 0 -234 -348q0 -105 24.5 -191.5t77 -138.5
t131.5 -52q231 0 231 357q0 160 -57 266.5zM500 1338q-86 66 -165 147t-110 148l215 174q61 -104 156 -220t185 -199l-149 -137q-46 21 -132 87z" />
    <glyph glyph-name="oacute" unicode="&#xf3;" horiz-adv-x="1302" 
d="M706 1580q89 108 162 227l214 -174q-27 -63 -106.5 -145t-168 -150t-131.5 -87l-149 137q90 84 179 192zM168 893.5q72 129.5 200 196t294 66.5q189 0 311 -79.5t177.5 -213t55.5 -301.5q0 -184 -72 -314t-200 -197t-293 -67q-190 0 -312 80t-177.5 214.5t-55.5 302.5
q0 183 72 312.5zM826 827.5q-57 106.5 -173 106.5q-234 0 -234 -348q0 -105 24.5 -191.5t77 -138.5t131.5 -52q231 0 231 357q0 160 -57 266.5z" />
    <glyph glyph-name="ocircumflex" unicode="&#xf4;" horiz-adv-x="1302" 
d="M551 1698h223l283 -372l-161 -90l-233 246l-242 -246l-156 89zM168 893.5q72 129.5 200 196t294 66.5q189 0 311 -79.5t177.5 -213t55.5 -301.5q0 -184 -72 -314t-200 -197t-293 -67q-190 0 -312 80t-177.5 214.5t-55.5 302.5q0 183 72 312.5zM826 827.5
q-57 106.5 -173 106.5q-234 0 -234 -348q0 -105 24.5 -191.5t77 -138.5t131.5 -52q231 0 231 357q0 160 -57 266.5z" />
    <glyph glyph-name="otilde" unicode="&#xf5;" horiz-adv-x="1302" 
d="M168 893.5q72 129.5 200 196t294 66.5q189 0 311 -79.5t177.5 -213t55.5 -301.5q0 -184 -72 -314t-200 -197t-293 -67q-190 0 -312 80t-177.5 214.5t-55.5 302.5q0 183 72 312.5zM826 827.5q-57 106.5 -173 106.5q-234 0 -234 -348q0 -105 24.5 -191.5t77 -138.5
t131.5 -52q231 0 231 357q0 160 -57 266.5zM327 1635q78 63 188 63q64 0 104 -20t83 -57q32 -27 54.5 -40t52.5 -13q45 0 82 31t73 80l126 -108q-36 -104 -111.5 -166t-186.5 -62q-58 0 -95.5 19t-81.5 56q-37 30 -62 44t-60 14q-39 0 -79.5 -30t-74.5 -72l-125 98
q35 100 113 163z" />
    <glyph glyph-name="odieresis" unicode="&#xf6;" horiz-adv-x="1302" 
d="M268 1568.5q25 42.5 67.5 68t92.5 25.5q80 0 122 -46.5t42 -121.5q0 -50 -24 -92.5t-66 -67.5t-93 -25q-75 0 -120.5 47t-45.5 121q0 49 25 91.5zM753 1568.5q25 42.5 67.5 68t92.5 25.5q80 0 122 -46.5t42 -121.5q0 -50 -24 -92.5t-66 -67.5t-93 -25q-75 0 -120.5 47
t-45.5 121q0 49 25 91.5zM168 893.5q72 129.5 200 196t294 66.5q189 0 311 -79.5t177.5 -213t55.5 -301.5q0 -184 -72 -314t-200 -197t-293 -67q-190 0 -312 80t-177.5 214.5t-55.5 302.5q0 183 72 312.5zM826 827.5q-57 106.5 -173 106.5q-234 0 -234 -348
q0 -105 24.5 -191.5t77 -138.5t131.5 -52q231 0 231 357q0 160 -57 266.5z" />
    <glyph glyph-name="divide" unicode="&#xf7;" horiz-adv-x="1403" 
d="M555 1315q28 47 75.5 75.5t101.5 28.5q86 0 135 -52.5t49 -134.5q0 -56 -27.5 -103.5t-74.5 -75.5t-102 -28q-53 0 -95 24t-66 67t-24 97q0 55 28 102zM1200 889v-234h-997v234h997zM551.5 427q28.5 47 75.5 75.5t102 28.5q85 0 134 -52.5t49 -134.5q0 -56 -27.5 -103.5
t-74.5 -75.5t-102 -28q-53 0 -95 24t-66 67t-24 97q0 55 28.5 102z" />
    <glyph glyph-name="oslash" unicode="&#xf8;" horiz-adv-x="1302" 
d="M1136.5 894q72.5 -150 69.5 -348q-2 -179 -75 -305.5t-200 -191.5t-290 -65q-65 0 -128 11l-76 -215l-125 32l78 220q-150 66 -222 211.5t-72 337.5q0 183 72 312.5t200 196t294 66.5q69 0 123 -10l78 221l125 -32l-80 -225q156 -66 228.5 -216zM435.5 425.5
q16.5 -74.5 49.5 -125.5l222 627q-30 7 -54 7q-234 0 -234 -348q0 -86 16.5 -160.5zM883 561q0 86 -17 160t-51 125l-225 -633q28 -9 62 -9q231 0 231 357z" />
    <glyph glyph-name="ugrave" unicode="&#xf9;" horiz-adv-x="1326" 
d="M1152 1140v-1156h-206q-40 0 -58 11.5t-18 46.5v52q-65 -46 -158.5 -78t-174.5 -32q-156 0 -238 59t-109.5 163t-27.5 268v666h312v-663q0 -107 18.5 -161.5t55 -73.5t101.5 -19q50 0 106 21t85 44v852h312zM514 1338q-86 66 -165 147t-110 148l215 174q61 -104 156 -220
t185 -199l-149 -137q-46 21 -132 87z" />
    <glyph glyph-name="uacute" unicode="&#xfa;" horiz-adv-x="1326" 
d="M720 1580q89 108 162 227l214 -174q-27 -63 -106.5 -145t-168 -150t-131.5 -87l-149 137q90 84 179 192zM1152 1140v-1156h-206q-40 0 -58 11.5t-18 46.5v52q-65 -46 -158.5 -78t-174.5 -32q-156 0 -238 59t-109.5 163t-27.5 268v666h312v-663q0 -107 18.5 -161.5
t55 -73.5t101.5 -19q50 0 106 21t85 44v852h312z" />
    <glyph glyph-name="ucircumflex" unicode="&#xfb;" horiz-adv-x="1326" 
d="M565 1698h223l283 -372l-161 -90l-233 246l-242 -246l-156 89zM1152 1140v-1156h-206q-40 0 -58 11.5t-18 46.5v52q-65 -46 -158.5 -78t-174.5 -32q-156 0 -238 59t-109.5 163t-27.5 268v666h312v-663q0 -107 18.5 -161.5t55 -73.5t101.5 -19q50 0 106 21t85 44v852h312z
" />
    <glyph glyph-name="udieresis" unicode="&#xfc;" horiz-adv-x="1326" 
d="M282 1568.5q25 42.5 67.5 68t92.5 25.5q80 0 122 -46.5t42 -121.5q0 -50 -24 -92.5t-66 -67.5t-93 -25q-75 0 -120.5 47t-45.5 121q0 49 25 91.5zM767 1568.5q25 42.5 67.5 68t92.5 25.5q80 0 122 -46.5t42 -121.5q0 -50 -24 -92.5t-66 -67.5t-93 -25q-75 0 -120.5 47
t-45.5 121q0 49 25 91.5zM1152 1140v-1156h-206q-40 0 -58 11.5t-18 46.5v52q-65 -46 -158.5 -78t-174.5 -32q-156 0 -238 59t-109.5 163t-27.5 268v666h312v-663q0 -107 18.5 -161.5t55 -73.5t101.5 -19q50 0 106 21t85 44v852h312z" />
    <glyph glyph-name="yacute" unicode="&#xfd;" horiz-adv-x="1188" 
d="M1162 1140l-355 -1170q-60 -196 -160 -308t-223 -148q-26 -8 -76.5 -14.5t-75.5 -6.5q-26 0 -85 6.5t-67 12.5v253q18 -6 57.5 -13t55.5 -7q71 0 122.5 13t102 68.5t80.5 173.5h-134l-387 1140h338l173 -609l83 -329l77 329l139 609h335zM658 1580q89 108 162 227
l214 -174q-27 -63 -106.5 -145t-168 -150t-131.5 -87l-149 137q90 84 179 192z" />
    <glyph glyph-name="thorn" unicode="&#xfe;" horiz-adv-x="1340" 
d="M1019 1095.5q103 -60.5 164.5 -183t61.5 -300.5q0 -187 -75 -331.5t-210.5 -224t-310.5 -79.5q-81 0 -167 11l4 -157v-338h-318v2168h312v-437l-8 -188q54 51 130 85.5t189 34.5q125 0 228 -60.5zM861 849.5q-57 73.5 -166 73.5q-62 0 -119.5 -20t-95.5 -51v-620
q36 -39 176 -39q76 0 135 47.5t93 138.5t34 216q0 181 -57 254.5z" />
    <glyph glyph-name="ydieresis" unicode="&#xff;" horiz-adv-x="1188" 
d="M1162 1140l-355 -1170q-60 -196 -160 -308t-223 -148q-26 -8 -76.5 -14.5t-75.5 -6.5q-26 0 -85 6.5t-67 12.5v253q18 -6 57.5 -13t55.5 -7q71 0 122.5 13t102 68.5t80.5 173.5h-134l-387 1140h338l173 -609l83 -329l77 329l139 609h335zM220 1568.5q25 42.5 67.5 68
t92.5 25.5q80 0 122 -46.5t42 -121.5q0 -50 -24 -92.5t-66 -67.5t-93 -25q-75 0 -120.5 47t-45.5 121q0 49 25 91.5zM705 1568.5q25 42.5 67.5 68t92.5 25.5q80 0 122 -46.5t42 -121.5q0 -50 -24 -92.5t-66 -67.5t-93 -25q-75 0 -120.5 47t-45.5 121q0 49 25 91.5z" />
    <glyph glyph-name="Amacron" unicode="&#x100;" horiz-adv-x="1421" 
d="M987 322h-559l-101 -322h-342l562 1538h322l567 -1538h-347zM914 551l-165 522l-43 157l-44 -157l-163 -522h415zM1010 1892v-206h-591v206h591z" />
    <glyph glyph-name="amacron" unicode="&#x101;" horiz-adv-x="1223" 
d="M872.5 1125.5q99.5 -36.5 148.5 -127t49 -253.5v-761h-182q-45 0 -68 6t-36 28t-13 70v8q-52 -48 -128 -80t-169 -32q-110 0 -194.5 47.5t-131 132t-46.5 191.5q0 100 51.5 171t147.5 114q149 66 457 66v72q0 64 -16.5 94t-63 41t-146.5 11q-48 0 -146 -24.5t-168 -56.5
l-69 200q40 24 116 52t167 47.5t175 19.5q166 0 265.5 -36.5zM686 215.5q55 20.5 72 42.5v272q-57 0 -128.5 -12.5t-106.5 -28.5q-45 -17 -72 -46t-27 -86q0 -80 43.5 -121t113.5 -41q50 0 105 20.5zM922 1625v-206h-591v206h591z" />
    <glyph glyph-name="Abreve" unicode="&#x102;" horiz-adv-x="1421" 
d="M987 322h-559l-101 -322h-342l562 1538h322l567 -1538h-347zM914 551l-165 522l-43 157l-44 -157l-163 -522h415zM537 1959q3 -35 15 -65.5t49.5 -54t108.5 -23.5q164 0 176 143h187q4 -102 -38 -180t-125.5 -122t-199.5 -44q-121 0 -204.5 43.5t-123.5 121.5t-36 181
h191z" />
    <glyph glyph-name="abreve" unicode="&#x103;" horiz-adv-x="1223" 
d="M872.5 1125.5q99.5 -36.5 148.5 -127t49 -253.5v-761h-182q-45 0 -68 6t-36 28t-13 70v8q-52 -48 -128 -80t-169 -32q-110 0 -194.5 47.5t-131 132t-46.5 191.5q0 100 51.5 171t147.5 114q149 66 457 66v72q0 64 -16.5 94t-63 41t-146.5 11q-48 0 -146 -24.5t-168 -56.5
l-69 200q40 24 116 52t167 47.5t175 19.5q166 0 265.5 -36.5zM686 215.5q55 20.5 72 42.5v272q-57 0 -128.5 -12.5t-106.5 -28.5q-45 -17 -72 -46t-27 -86q0 -80 43.5 -121t113.5 -41q50 0 105 20.5zM459 1684q4 -40 14 -74.5t47 -64.5t108 -30q69 0 106 30t48.5 65t15.5 74
h193q4 -105 -40.5 -194t-129 -141t-194.5 -52q-115 0 -199 52t-126.5 140.5t-38.5 194.5h196z" />
    <glyph glyph-name="Aogonek" unicode="&#x104;" horiz-adv-x="1421" 
d="M1308 -311q55 0 125 20v-157q-43 -32 -104.5 -50t-125.5 -18t-123 24t-97 69.5t-41 106.5q-6 102 58 183t158 133h-69l-102 322h-559l-101 -322h-342l562 1538h322l567 -1538h-70q-88 -57 -133.5 -104.5t-45.5 -107.5q0 -99 121 -99zM914 551l-165 522l-43 157l-44 -157
l-163 -522h415z" />
    <glyph glyph-name="aogonek" unicode="&#x105;" horiz-adv-x="1223" 
d="M1083 -291v-157q-43 -32 -104.5 -50t-125.5 -18t-123 24t-97 69.5t-41 106.5q-6 101 56 180.5t155 132.5q-32 20 -32 91v8q-52 -48 -128 -80t-169 -32q-110 0 -194.5 47.5t-131 132t-46.5 191.5q0 100 51.5 171t147.5 114q149 66 457 66v72q0 64 -16.5 94t-63 41
t-146.5 11q-48 0 -146 -24.5t-168 -56.5l-69 200q40 24 116 52t167 47.5t175 19.5q166 0 265.5 -36.5t148.5 -127t49 -253.5v-761h-78q-76 -52 -115.5 -97t-39.5 -100q0 -98 121 -98q55 0 125 20zM686 215.5q55 20.5 72 42.5v272q-57 0 -128.5 -12.5t-106.5 -28.5
q-45 -17 -72 -46t-27 -86q0 -80 43.5 -121t113.5 -41q50 0 105 20.5z" />
    <glyph glyph-name="Cacute" unicode="&#x106;" horiz-adv-x="1299" 
d="M1030.5 1527q73.5 -11 157.5 -32q61 -14 72 -16l-46 -280q-6 3 -52 28.5t-124 42t-172 16.5q-124 0 -223.5 -61t-157 -176.5t-57.5 -271.5q0 -158 55.5 -282.5t160 -194.5t246.5 -70q65 0 136.5 15.5t130 38t86.5 42.5l1 -262q-63 -25 -111.5 -41t-117.5 -27.5
t-155 -11.5q-231 0 -403 96.5t-264.5 271.5t-92.5 405q0 245 98.5 421.5t268 268t379.5 91.5q111 0 184.5 -11zM867.5 1841q106.5 107 117.5 139l217 -131q-44 -57 -112 -122.5t-137.5 -116.5t-116.5 -67l-146 125q71 66 177.5 173z" />
    <glyph glyph-name="cacute" unicode="&#x107;" horiz-adv-x="1048" 
d="M683 1581q89 108 162 227l214 -174q-27 -63 -106.5 -145t-168 -150t-131.5 -87l-149 137q90 84 179 192zM847 1138.5q82 -17.5 113 -40.5l-39 -241q-43 23 -95.5 33.5t-129.5 10.5q-72 0 -137 -30.5t-108 -99t-46 -176.5q-3 -119 32 -200t99.5 -120.5t147.5 -39.5
q75 0 143.5 13.5t104.5 33.5l45 -185q-53 -51 -148 -82t-202 -31q-172 0 -292 73.5t-180 203t-60 295.5q0 172 63 308t191 214t315 78q101 0 183 -17.5z" />
    <glyph glyph-name="Ccircumflex" unicode="&#x108;" horiz-adv-x="1299" 
d="M1030.5 1527q73.5 -11 157.5 -32q61 -14 72 -16l-46 -280q-6 3 -52 28.5t-124 42t-172 16.5q-124 0 -223.5 -61t-157 -176.5t-57.5 -271.5q0 -158 55.5 -282.5t160 -194.5t246.5 -70q65 0 136.5 15.5t130 38t86.5 42.5l1 -262q-63 -25 -111.5 -41t-117.5 -27.5
t-155 -11.5q-231 0 -403 96.5t-264.5 271.5t-92.5 405q0 245 98.5 421.5t268 268t379.5 91.5q111 0 184.5 -11zM722 1959h220l276 -308l-165 -92l-221 199l-222 -199l-162 90z" />
    <glyph glyph-name="ccircumflex" unicode="&#x109;" horiz-adv-x="1048" 
d="M528 1699h223l283 -372l-161 -90l-233 246l-242 -246l-156 89zM847 1138.5q82 -17.5 113 -40.5l-39 -241q-43 23 -95.5 33.5t-129.5 10.5q-72 0 -137 -30.5t-108 -99t-46 -176.5q-3 -119 32 -200t99.5 -120.5t147.5 -39.5q75 0 143.5 13.5t104.5 33.5l45 -185
q-53 -51 -148 -82t-202 -31q-172 0 -292 73.5t-180 203t-60 295.5q0 172 63 308t191 214t315 78q101 0 183 -17.5z" />
    <glyph glyph-name="Cdotaccent" unicode="&#x10a;" horiz-adv-x="1299" 
d="M682.5 1868.5q25.5 41.5 69.5 65.5t95 24q82 0 126.5 -44.5t44.5 -119.5q0 -51 -25 -92t-68.5 -65t-95.5 -24q-77 0 -124.5 44.5t-47.5 119.5q0 50 25.5 91.5zM1030.5 1527q73.5 -11 157.5 -32q61 -14 72 -16l-46 -280q-6 3 -52 28.5t-124 42t-172 16.5
q-124 0 -223.5 -61t-157 -176.5t-57.5 -271.5q0 -158 55.5 -282.5t160 -194.5t246.5 -70q65 0 136.5 15.5t130 38t86.5 42.5l1 -262q-63 -25 -111.5 -41t-117.5 -27.5t-155 -11.5q-231 0 -403 96.5t-264.5 271.5t-92.5 405q0 245 98.5 421.5t268 268t379.5 91.5
q111 0 184.5 -11z" />
    <glyph glyph-name="cdotaccent" unicode="&#x10b;" horiz-adv-x="1048" 
d="M847 1138.5q82 -17.5 113 -40.5l-39 -241q-43 23 -95.5 33.5t-129.5 10.5q-72 0 -137 -30.5t-108 -99t-46 -176.5q-3 -119 32 -200t99.5 -120.5t147.5 -39.5q75 0 143.5 13.5t104.5 33.5l45 -185q-53 -51 -148 -82t-202 -31q-172 0 -292 73.5t-180 203t-60 295.5
q0 172 63 308t191 214t315 78q101 0 183 -17.5zM471 1571q28 43 74 68.5t97 25.5q82 0 131 -47.5t49 -122.5q0 -50 -27.5 -93.5t-73 -69t-97.5 -25.5q-51 0 -92 22t-65 61t-24 88q0 50 28 93z" />
    <glyph glyph-name="Ccaron" unicode="&#x10c;" horiz-adv-x="1299" 
d="M1030.5 1527q73.5 -11 157.5 -32q61 -14 72 -16l-46 -280q-6 3 -52 28.5t-124 42t-172 16.5q-124 0 -223.5 -61t-157 -176.5t-57.5 -271.5q0 -158 55.5 -282.5t160 -194.5t246.5 -70q65 0 136.5 15.5t130 38t86.5 42.5l1 -262q-63 -25 -111.5 -41t-117.5 -27.5
t-155 -11.5q-231 0 -403 96.5t-264.5 271.5t-92.5 405q0 245 98.5 421.5t268 268t379.5 91.5q111 0 184.5 -11zM613 1960l220 -181l223 181l154 -91l-267 -293h-219l-268 292z" />
    <glyph glyph-name="ccaron" unicode="&#x10d;" horiz-adv-x="1048" 
d="M636 1467l233 246l161 -90l-283 -372h-223l-286 373l156 89zM847 1138.5q82 -17.5 113 -40.5l-39 -241q-43 23 -95.5 33.5t-129.5 10.5q-72 0 -137 -30.5t-108 -99t-46 -176.5q-3 -119 32 -200t99.5 -120.5t147.5 -39.5q75 0 143.5 13.5t104.5 33.5l45 -185
q-53 -51 -148 -82t-202 -31q-172 0 -292 73.5t-180 203t-60 295.5q0 172 63 308t191 214t315 78q101 0 183 -17.5z" />
    <glyph glyph-name="Dcaron" unicode="&#x10e;" horiz-adv-x="1554" 
d="M547 1960l220 -181l223 181l154 -91l-267 -293h-219l-268 292zM339 1522q32 0 128 6q134 10 241 10q375 0 560.5 -190t185.5 -547q0 -255 -93 -439t-264.5 -281t-403.5 -97q-72 0 -214 9q-87 7 -137 7h-154v1522h151zM1010.5 361.5q107.5 131.5 107.5 405.5
q0 196 -47.5 312.5t-143.5 167.5t-249 51q-53 0 -129 -10l-40 -4v-1038q68 -18 204 -18q190 2 297.5 133.5z" />
    <glyph glyph-name="dcaron" unicode="&#x10f;" horiz-adv-x="1647" 
d="M1171 1662v-1678h-212q-38 0 -56.5 11.5t-18.5 46.5v77q-55 -56 -133.5 -95.5t-201.5 -39.5q-125 0 -228 61.5t-164.5 185.5t-61.5 302q0 187 72.5 328t204 218t303.5 77q102 0 187 -32l-3 100v438h312zM479.5 301q57.5 -74 165.5 -74q61 0 118.5 17t95.5 43v615
q-28 19 -71 25.5t-104 6.5q-77 0 -136 -43t-92.5 -129t-33.5 -211q0 -176 57.5 -250zM1389 1061q10 47 16.5 131t5.5 165q0 67 -17.5 129.5t-41.5 87.5l12 64l215 70q71 -67 71 -268q0 -82 -18.5 -170.5t-46.5 -158.5t-55 -101l-133 28z" />
    <glyph glyph-name="Dcroat" unicode="&#x110;" horiz-adv-x="1554" 
d="M1268.5 1348q185.5 -190 185.5 -547q0 -255 -93 -439t-264.5 -281t-403.5 -97q-72 0 -214 9q-87 7 -137 7h-154v694h-119v201h119v627h151q32 0 128 6q134 10 241 10q375 0 560.5 -190zM1010.5 361.5q107.5 131.5 107.5 405.5q0 196 -47.5 312.5t-143.5 167.5t-249 51
q-53 0 -129 -10l-40 -4v-389h337v-201h-337v-448q68 -18 204 -18q190 2 297.5 133.5z" />
    <glyph glyph-name="dcroat" unicode="&#x111;" horiz-adv-x="1339" 
d="M1299 1293h-128v-1309h-212q-38 0 -56.5 11.5t-18.5 46.5v77q-55 -56 -133.5 -95.5t-201.5 -39.5q-125 0 -228 61.5t-164.5 185.5t-61.5 302q0 187 72.5 328t204 218t303.5 77q102 0 187 -32l-3 100v69h-227v180h227v189h312v-189h128v-180zM479.5 301
q57.5 -74 165.5 -74q61 0 118.5 17t95.5 43v615q-28 19 -71 25.5t-104 6.5q-77 0 -136 -43t-92.5 -129t-33.5 -211q0 -176 57.5 -250z" />
    <glyph glyph-name="Emacron" unicode="&#x112;" horiz-adv-x="1254" 
d="M999 1892v-206h-591v206h591zM1116 1522v-244h-610v-378h468v-241h-468v-408h675v-251h-993v1522h928z" />
    <glyph glyph-name="emacron" unicode="&#x113;" horiz-adv-x="1190" 
d="M1082 495h-674q9 -141 88.5 -210t215.5 -69q65 0 157.5 17.5t135.5 41.5l51 -177q-59 -48 -177 -81t-246 -33q-172 0 -293 70t-183 202.5t-62 317.5q0 168 65 300t189.5 207t296.5 75q124 0 224 -45t160.5 -145t62.5 -257q0 -144 -11 -214zM804 712q0 109 -41 165.5
t-133 56.5t-146.5 -60.5t-70.5 -205.5h390q1 15 1 44zM930 1626v-206h-591v206h591z" />
    <glyph glyph-name="Ebreve" unicode="&#x114;" horiz-adv-x="1254" 
d="M526 1959q3 -35 15 -65.5t49.5 -54t108.5 -23.5q164 0 176 143h187q4 -102 -38 -180t-125.5 -122t-199.5 -44q-121 0 -204.5 43.5t-123.5 121.5t-36 181h191zM1116 1522v-244h-610v-378h468v-241h-468v-408h675v-251h-993v1522h928z" />
    <glyph glyph-name="ebreve" unicode="&#x115;" horiz-adv-x="1190" 
d="M1082 495h-674q9 -141 88.5 -210t215.5 -69q65 0 157.5 17.5t135.5 41.5l51 -177q-59 -48 -177 -81t-246 -33q-172 0 -293 70t-183 202.5t-62 317.5q0 168 65 300t189.5 207t296.5 75q124 0 224 -45t160.5 -145t62.5 -257q0 -144 -11 -214zM804 712q0 109 -41 165.5
t-133 56.5t-146.5 -60.5t-70.5 -205.5h390q1 15 1 44zM467 1685q4 -40 14 -74.5t47 -64.5t108 -30q69 0 106 30t48.5 65t15.5 74h193q4 -105 -40.5 -194t-129 -141t-194.5 -52q-115 0 -199 52t-126.5 140.5t-38.5 194.5h196z" />
    <glyph glyph-name="Edotaccent" unicode="&#x116;" horiz-adv-x="1254" 
d="M550.5 1868.5q25.5 41.5 69.5 65.5t95 24q82 0 126.5 -44.5t44.5 -119.5q0 -51 -25 -92t-68.5 -65t-95.5 -24q-77 0 -124.5 44.5t-47.5 119.5q0 50 25.5 91.5zM1116 1522v-244h-610v-378h468v-241h-468v-408h675v-251h-993v1522h928z" />
    <glyph glyph-name="edotaccent" unicode="&#x117;" horiz-adv-x="1190" 
d="M1082 495h-674q9 -141 88.5 -210t215.5 -69q65 0 157.5 17.5t135.5 41.5l51 -177q-59 -48 -177 -81t-246 -33q-172 0 -293 70t-183 202.5t-62 317.5q0 168 65 300t189.5 207t296.5 75q124 0 224 -45t160.5 -145t62.5 -257q0 -144 -11 -214zM804 712q0 109 -41 165.5
t-133 56.5t-146.5 -60.5t-70.5 -205.5h390q1 15 1 44zM468 1571q28 43 74 68.5t97 25.5q82 0 131 -47.5t49 -122.5q0 -50 -27.5 -93.5t-73 -69t-97.5 -25.5q-51 0 -92 22t-65 61t-24 88q0 50 28 93z" />
    <glyph glyph-name="Eogonek" unicode="&#x118;" horiz-adv-x="1254" 
d="M1187 -291v-157q-43 -32 -104.5 -50t-125.5 -18t-123 24t-97 69.5t-41 106.5q-6 102 58 183t158 133h-724v1522h928v-244h-610v-378h468v-241h-468v-408h675v-251h-61q-88 -57 -133.5 -104.5t-45.5 -107.5q0 -99 121 -99q55 0 125 20z" />
    <glyph glyph-name="eogonek" unicode="&#x119;" horiz-adv-x="1190" 
d="M1082 495h-674q9 -141 88.5 -210t215.5 -69q65 0 157.5 17.5t135.5 41.5l51 -177q-3 -3 -6 -4.5t-5 -3.5h1q-92 -68 -155.5 -144.5t-63.5 -168.5q2 -46 34.5 -67t86.5 -21q55 0 125 20v-157q-43 -32 -104.5 -50t-125.5 -18t-123 24t-97 69.5t-41 106.5q-6 96 42 175.5
t125 131.5q-66 -7 -116 -7q-172 0 -293 70t-183 202.5t-62 317.5q0 168 65 300t189.5 207t296.5 75q124 0 224 -45t160.5 -145t62.5 -257q0 -144 -11 -214zM804 712q0 109 -41 165.5t-133 56.5t-146.5 -60.5t-70.5 -205.5h390q1 15 1 44z" />
    <glyph glyph-name="Ecaron" unicode="&#x11a;" horiz-adv-x="1254" 
d="M481 1960l220 -181l223 181l154 -91l-267 -293h-219l-268 292zM1116 1522v-244h-610v-378h468v-241h-468v-408h675v-251h-993v1522h928z" />
    <glyph glyph-name="ecaron" unicode="&#x11b;" horiz-adv-x="1190" 
d="M633 1467l233 246l161 -90l-283 -372h-223l-286 373l156 89zM1082 495h-674q9 -141 88.5 -210t215.5 -69q65 0 157.5 17.5t135.5 41.5l51 -177q-59 -48 -177 -81t-246 -33q-172 0 -293 70t-183 202.5t-62 317.5q0 168 65 300t189.5 207t296.5 75q124 0 224 -45
t160.5 -145t62.5 -257q0 -144 -11 -214zM804 712q0 109 -41 165.5t-133 56.5t-146.5 -60.5t-70.5 -205.5h390q1 15 1 44z" />
    <glyph glyph-name="Gcircumflex" unicode="&#x11c;" horiz-adv-x="1494" 
d="M1372 820v-730q-20 -1 -43 -8t-64 -21q-101 -35 -197.5 -56t-240.5 -21q-228 0 -392 94.5t-249.5 268t-85.5 406.5q0 264 98.5 440t269.5 260.5t391 84.5q116 0 186 -10t153 -30q51 -13 91 -20l-10 -273q-84 40 -175 60.5t-244 20.5q-132 0 -228.5 -60.5t-148.5 -174
t-52 -271.5t42 -282.5t128 -197t214 -72.5q153 0 255 38v305l-233 12v237h535zM731 1960h220l276 -308l-165 -92l-221 199l-222 -199l-162 90z" />
    <glyph glyph-name="gcircumflex" unicode="&#x11d;" horiz-adv-x="1305" 
d="M524 1699h223l283 -372l-161 -90l-233 246l-242 -246l-156 89zM1288 914h-189q20 -58 20 -130q0 -183 -132.5 -279t-374.5 -96q-56 0 -99 7q-21 -17 -32 -41.5t-11 -51.5q0 -48 30 -64t105 -16h190q252 0 345.5 -97.5t93.5 -247.5q0 -128 -81.5 -222t-216.5 -143
t-291 -49q-265 0 -409.5 85.5t-144.5 247.5q0 79 48.5 140.5t127.5 96.5q-48 25 -70.5 71t-22.5 99q0 68 42 131t140 103q-109 47 -171.5 130.5t-62.5 186.5q0 196 134 288.5t376 92.5q221 0 345 -83q33 29 79 48t105 19h127v-226zM769.5 638q54.5 38 54.5 137
q0 93 -48.5 140.5t-144.5 47.5q-97 0 -152.5 -41.5t-55.5 -142.5q0 -84 50 -131.5t144 -47.5q98 0 152.5 38zM505 0q-22 0 -62 2q-42 -38 -42 -116q0 -94 58.5 -156t185.5 -62q132 0 206.5 40.5t74.5 127.5q0 59 -18 93.5t-74 52.5t-166 18h-163z" />
    <glyph glyph-name="Gbreve" unicode="&#x11e;" horiz-adv-x="1494" 
d="M667 1960q3 -35 15 -65.5t49.5 -54t108.5 -23.5q164 0 176 143h187q4 -102 -38 -180t-125.5 -122t-199.5 -44q-121 0 -204.5 43.5t-123.5 121.5t-36 181h191zM1372 820v-730q-20 -1 -43 -8t-64 -21q-101 -35 -197.5 -56t-240.5 -21q-228 0 -392 94.5t-249.5 268
t-85.5 406.5q0 264 98.5 440t269.5 260.5t391 84.5q116 0 186 -10t153 -30q51 -13 91 -20l-10 -273q-84 40 -175 60.5t-244 20.5q-132 0 -228.5 -60.5t-148.5 -174t-52 -271.5t42 -282.5t128 -197t214 -72.5q153 0 255 38v305l-233 12v237h535z" />
    <glyph glyph-name="gbreve" unicode="&#x11f;" horiz-adv-x="1305" 
d="M1288 914h-189q20 -58 20 -130q0 -183 -132.5 -279t-374.5 -96q-56 0 -99 7q-21 -17 -32 -41.5t-11 -51.5q0 -48 30 -64t105 -16h190q252 0 345.5 -97.5t93.5 -247.5q0 -128 -81.5 -222t-216.5 -143t-291 -49q-265 0 -409.5 85.5t-144.5 247.5q0 79 48.5 140.5
t127.5 96.5q-48 25 -70.5 71t-22.5 99q0 68 42 131t140 103q-109 47 -171.5 130.5t-62.5 186.5q0 196 134 288.5t376 92.5q221 0 345 -83q33 29 79 48t105 19h127v-226zM769.5 638q54.5 38 54.5 137q0 93 -48.5 140.5t-144.5 47.5q-97 0 -152.5 -41.5t-55.5 -142.5
q0 -84 50 -131.5t144 -47.5q98 0 152.5 38zM505 0q-22 0 -62 2q-42 -38 -42 -116q0 -94 58.5 -156t185.5 -62q132 0 206.5 40.5t74.5 127.5q0 59 -18 93.5t-74 52.5t-166 18h-163zM466 1685q4 -40 14 -74.5t47 -64.5t108 -30q69 0 106 30t48.5 65t15.5 74h193
q4 -105 -40.5 -194t-129 -141t-194.5 -52q-115 0 -199 52t-126.5 140.5t-38.5 194.5h196z" />
    <glyph glyph-name="Gdotaccent" unicode="&#x120;" horiz-adv-x="1494" 
d="M691.5 1869.5q25.5 41.5 69.5 65.5t95 24q82 0 126.5 -44.5t44.5 -119.5q0 -51 -25 -92t-68.5 -65t-95.5 -24q-77 0 -124.5 44.5t-47.5 119.5q0 50 25.5 91.5zM1372 820v-730q-20 -1 -43 -8t-64 -21q-101 -35 -197.5 -56t-240.5 -21q-228 0 -392 94.5t-249.5 268
t-85.5 406.5q0 264 98.5 440t269.5 260.5t391 84.5q116 0 186 -10t153 -30q51 -13 91 -20l-10 -273q-84 40 -175 60.5t-244 20.5q-132 0 -228.5 -60.5t-148.5 -174t-52 -271.5t42 -282.5t128 -197t214 -72.5q153 0 255 38v305l-233 12v237h535z" />
    <glyph glyph-name="gdotaccent" unicode="&#x121;" horiz-adv-x="1305" 
d="M1288 914h-189q20 -58 20 -130q0 -183 -132.5 -279t-374.5 -96q-56 0 -99 7q-21 -17 -32 -41.5t-11 -51.5q0 -48 30 -64t105 -16h190q252 0 345.5 -97.5t93.5 -247.5q0 -128 -81.5 -222t-216.5 -143t-291 -49q-265 0 -409.5 85.5t-144.5 247.5q0 79 48.5 140.5
t127.5 96.5q-48 25 -70.5 71t-22.5 99q0 68 42 131t140 103q-109 47 -171.5 130.5t-62.5 186.5q0 196 134 288.5t376 92.5q221 0 345 -83q33 29 79 48t105 19h127v-226zM769.5 638q54.5 38 54.5 137q0 93 -48.5 140.5t-144.5 47.5q-97 0 -152.5 -41.5t-55.5 -142.5
q0 -84 50 -131.5t144 -47.5q98 0 152.5 38zM505 0q-22 0 -62 2q-42 -38 -42 -116q0 -94 58.5 -156t185.5 -62q132 0 206.5 40.5t74.5 127.5q0 59 -18 93.5t-74 52.5t-166 18h-163zM467 1571q28 43 74 68.5t97 25.5q82 0 131 -47.5t49 -122.5q0 -50 -27.5 -93.5t-73 -69
t-97.5 -25.5q-51 0 -92 22t-65 61t-24 88q0 50 28 93z" />
    <glyph glyph-name="Gcommaaccent" unicode="&#x122;" horiz-adv-x="1494" 
d="M727 -490q30 33 30 136q0 38 -20 74t-42 46v50l184 98q23 -5 48.5 -30.5t43 -68t17.5 -96.5q0 -74 -27 -134.5t-62.5 -98t-60.5 -46.5l-111 44v26zM1372 820v-730q-20 -1 -43 -8t-64 -21q-101 -35 -197.5 -56t-240.5 -21q-228 0 -392 94.5t-249.5 268t-85.5 406.5
q0 264 98.5 440t269.5 260.5t391 84.5q116 0 186 -10t153 -30q51 -13 91 -20l-10 -273q-84 40 -175 60.5t-244 20.5q-132 0 -228.5 -60.5t-148.5 -174t-52 -271.5t42 -282.5t128 -197t214 -72.5q153 0 255 38v305l-233 12v237h535z" />
    <glyph glyph-name="gcommaaccent" unicode="&#x123;" horiz-adv-x="1305" 
d="M555 1328q-47 34 -76 91.5t-29 129.5q0 77 30.5 143t75.5 109t86 55l118 -51v-23q-27 -32 -40 -64.5t-13 -88.5q0 -50 24.5 -97t60.5 -54v-69l-139 -121q-51 6 -98 40zM1288 914h-189q20 -58 20 -130q0 -183 -132.5 -279t-374.5 -96q-56 0 -99 7q-21 -17 -32 -41.5
t-11 -51.5q0 -48 30 -64t105 -16h190q252 0 345.5 -97.5t93.5 -247.5q0 -128 -81.5 -222t-216.5 -143t-291 -49q-265 0 -409.5 85.5t-144.5 247.5q0 79 48.5 140.5t127.5 96.5q-48 25 -70.5 71t-22.5 99q0 68 42 131t140 103q-109 47 -171.5 130.5t-62.5 186.5
q0 196 134 288.5t376 92.5q221 0 345 -83q33 29 79 48t105 19h127v-226zM769.5 638q54.5 38 54.5 137q0 93 -48.5 140.5t-144.5 47.5q-97 0 -152.5 -41.5t-55.5 -142.5q0 -84 50 -131.5t144 -47.5q98 0 152.5 38zM505 0q-22 0 -62 2q-42 -38 -42 -116q0 -94 58.5 -156
t185.5 -62q132 0 206.5 40.5t74.5 127.5q0 59 -18 93.5t-74 52.5t-166 18h-163z" />
    <glyph glyph-name="Hcircumflex" unicode="&#x124;" horiz-adv-x="1601" 
d="M506 1522v-632h593v632h314v-1522h-314v651h-593v-651h-318v1522h318zM690 1959h220l276 -308l-165 -92l-221 199l-222 -199l-162 90z" />
    <glyph glyph-name="hcircumflex" unicode="&#x125;" horiz-adv-x="1351" 
d="M1022.5 1119q83.5 -44 125 -144t41.5 -265v-710h-312v648q0 92 -15.5 145.5t-50 77.5t-95.5 24q-51 0 -118.5 -21t-117.5 -65v-809h-312v1662h248l263 298h220l276 -308l-165 -92l-221 199l-222 -199l-87 48v-384l-17 -202q64 53 161.5 93.5t186.5 43.5q128 4 211.5 -40z
" />
    <glyph glyph-name="Hbar" unicode="&#x126;" horiz-adv-x="1621" 
d="M1599 1045h-166v-1045h-322v621h-601v-621h-322v1045h-164v192h164v285h322v-285h601v285h322v-285h166v-192zM1111 1045h-601v-191h601v191z" />
    <glyph glyph-name="hbar" unicode="&#x127;" horiz-adv-x="1351" 
d="M1022.5 1119q83.5 -44 125 -144t41.5 -265v-710h-312v648q0 92 -15.5 145.5t-50 77.5t-95.5 24q-51 0 -118.5 -21t-117.5 -65v-809h-312v1293h-132v180h132v189h312v-189h223v-180h-223v-69l-17 -202q64 53 161.5 93.5t186.5 43.5q128 4 211.5 -40z" />
    <glyph glyph-name="Itilde" unicode="&#x128;" horiz-adv-x="722" 
d="M521 1522v-1522h-320v1522h320zM40 1894q78 63 188 63q60 0 99 -19.5t84 -56.5q34 -28 57 -41t54 -13q45 0 82 31t73 80l126 -108q-36 -104 -111.5 -166t-186.5 -62q-58 0 -95.5 19t-81.5 56q-37 30 -62 44t-60 14q-39 0 -79.5 -30t-74.5 -72l-125 98q35 100 113 163z
" />
    <glyph glyph-name="itilde" unicode="&#x129;" horiz-adv-x="660" 
d="M486 1140v-1140h-312v1140h312zM-3 1635q78 63 188 63q64 0 104 -20t83 -57q32 -27 54.5 -40t52.5 -13q45 0 82 31t73 80l126 -108q-36 -104 -111.5 -166t-186.5 -62q-58 0 -95.5 19t-81.5 56q-37 30 -62 44t-60 14q-39 0 -79.5 -30t-74.5 -72l-125 98q35 100 113 163z
" />
    <glyph glyph-name="Imacron" unicode="&#x12a;" horiz-adv-x="722" 
d="M521 1522v-1522h-320v1522h320zM660 1892v-206h-591v206h591z" />
    <glyph glyph-name="imacron" unicode="&#x12b;" horiz-adv-x="660" 
d="M486 1140v-1140h-312v1140h312zM626 1625v-206h-591v206h591z" />
    <glyph glyph-name="Ibreve" unicode="&#x12c;" horiz-adv-x="722" 
d="M521 1522v-1522h-320v1522h320zM187 1959q3 -35 15 -65.5t49.5 -54t108.5 -23.5q164 0 176 143h187q4 -102 -38 -180t-125.5 -122t-199.5 -44q-121 0 -204.5 43.5t-123.5 121.5t-36 181h191z" />
    <glyph glyph-name="ibreve" unicode="&#x12d;" horiz-adv-x="660" 
d="M486 1140v-1140h-312v1140h312zM163 1684q4 -40 14 -74.5t47 -64.5t108 -30q69 0 106 30t48.5 65t15.5 74h193q4 -105 -40.5 -194t-129 -141t-194.5 -52q-115 0 -199 52t-126.5 140.5t-38.5 194.5h196z" />
    <glyph glyph-name="Iogonek" unicode="&#x12e;" horiz-adv-x="731" 
d="M532 -291v-157q-43 -32 -104.5 -50t-125.5 -18t-123 24t-97 69.5t-41 106.5q-6 102 58 183t158 133h-56v1522h320v-1522h-56q-88 -57 -133.5 -104.5t-45.5 -107.5q0 -99 121 -99q55 0 125 20z" />
    <glyph glyph-name="iogonek" unicode="&#x12f;" horiz-adv-x="660" 
d="M237 1329q-41 22 -65 61t-24 88q0 50 28 93t74 68.5t97 25.5q82 0 131 -47.5t49 -122.5q0 -50 -27.5 -93.5t-73 -69t-97.5 -25.5q-51 0 -92 22zM376 -311q55 0 125 20v-157q-43 -32 -104.5 -50t-125.5 -18t-123 24t-97 69.5t-41 106.5q-6 102 58 183t158 133h-52v1140
h312v-1140h-52q-88 -57 -133.5 -104.5t-45.5 -107.5q0 -99 121 -99z" />
    <glyph glyph-name="Idotaccent" unicode="&#x130;" horiz-adv-x="722" 
d="M521 1522v-1522h-320v1522h320zM211.5 1868.5q25.5 41.5 69.5 65.5t95 24q82 0 126.5 -44.5t44.5 -119.5q0 -51 -25 -92t-68.5 -65t-95.5 -24q-77 0 -124.5 44.5t-47.5 119.5q0 50 25.5 91.5z" />
    <glyph glyph-name="dotlessi" unicode="&#x131;" horiz-adv-x="660" 
d="M486 1140v-1140h-312v1140h312z" />
    <glyph glyph-name="IJ" unicode="&#x132;" horiz-adv-x="1520" 
d="M521 1522v-1522h-320v1522h320zM873 -62q70 68 96 179q19 79 25.5 195.5t6.5 295.5v914h320v-909l1 -223q0 -95 -4 -166.5t-16 -132.5q-25 -131 -112 -226t-197.5 -144.5t-203.5 -52.5l-77 168q91 34 161 102z" />
    <glyph glyph-name="ij" unicode="&#x133;" horiz-adv-x="1304" 
d="M486 1140v-1140h-312v1140h312zM164 1570q28 43 74 68.5t97 25.5q82 0 131 -47.5t49 -122.5q0 -50 -27.5 -93.5t-73 -69t-97.5 -25.5q-51 0 -92 22t-65 61t-24 88q0 50 28 93zM609 -296.5q39 -7.5 64 -7.5q61 0 95.5 28.5t50 94.5t15.5 182v1139h312v-1058
q0 -308 -106.5 -448.5t-308.5 -140.5q-31 0 -94 8.5t-81 15.5v201q14 -7 53 -14.5zM823 1571q28 43 74 68.5t97 25.5q82 0 131 -47.5t49 -122.5q0 -50 -27.5 -93.5t-73 -69t-97.5 -25.5q-51 0 -92 22t-65 61t-24 88q0 50 28 93z" />
    <glyph glyph-name="Jcircumflex" unicode="&#x134;" horiz-adv-x="798" 
d="M151 -62q70 68 96 179q19 79 25.5 195.5t6.5 295.5v914h320v-909l1 -223q0 -95 -4 -166.5t-16 -132.5q-25 -131 -112 -226t-197.5 -144.5t-203.5 -52.5l-77 168q91 34 161 102zM322 1960h220l276 -308l-165 -92l-221 199l-222 -199l-162 90z" />
    <glyph glyph-name="jcircumflex" unicode="&#x135;" horiz-adv-x="644" 
d="M-51 -296.5q39 -7.5 64 -7.5q61 0 95.5 28.5t50 94.5t15.5 182v1139h312v-1058q0 -308 -106.5 -448.5t-308.5 -140.5q-31 0 -94 8.5t-81 15.5v201q14 -7 53 -14.5zM220 1699h223l283 -372l-161 -90l-233 246l-242 -246l-156 89z" />
    <glyph glyph-name="Kcommaaccent" unicode="&#x136;" horiz-adv-x="1444" 
d="M654 -490q30 33 30 136q0 38 -20 74t-42 46v50l184 98q23 -5 48.5 -30.5t43 -68t17.5 -96.5q0 -74 -27 -134.5t-62.5 -98t-60.5 -46.5l-111 44v26zM1411 0h-354q-11 16 -29 51q-5 10 -13 25t-21 37q-75 135 -163.5 277t-167.5 256l-157 -177v-469h-318v1522h318v-674
l535 674h350l-514 -644q66 -98 218 -347.5t251 -420.5z" />
    <glyph glyph-name="kcommaaccent" unicode="&#x137;" horiz-adv-x="1238" 
d="M561 -490q30 33 30 136q0 38 -20 74t-42 46v50l184 98q23 -5 48.5 -30.5t43 -68t17.5 -96.5q0 -74 -27 -134.5t-62.5 -98t-60.5 -46.5l-111 44v26zM598 475l-122 -133l4 -129v-213h-312v1661h312v-684l-10 -287l385 450h353l-407 -443l447 -697h-355z" />
    <glyph glyph-name="kgreenlandic" unicode="&#x138;" horiz-adv-x="1241" 
d="M615 437l-131 -153l2 -124v-160h-312v1140h312v-361l-7 -155l396 516h349l-410 -474l443 -666h-355z" />
    <glyph glyph-name="Lacute" unicode="&#x139;" horiz-adv-x="1120" 
d="M384.5 1841q106.5 107 117.5 139l217 -131q-44 -57 -112 -122.5t-137.5 -116.5t-116.5 -67l-146 125q71 66 177.5 173zM506 1522v-1280h548v-242h-866v1522h318z" />
    <glyph glyph-name="lacute" unicode="&#x13a;" horiz-adv-x="672" 
d="M359.5 1841q106.5 107 117.5 139l217 -131q-44 -57 -112 -122.5t-137.5 -116.5t-116.5 -67l-146 125q71 66 177.5 173zM492 1527v-1527h-312v1527h312z" />
    <glyph glyph-name="Lcommaaccent" unicode="&#x13b;" horiz-adv-x="1120" 
d="M520 -490q30 33 30 136q0 38 -20 74t-42 46v50l184 98q23 -5 48.5 -30.5t43 -68t17.5 -96.5q0 -74 -27 -134.5t-62.5 -98t-60.5 -46.5l-111 44v26zM506 1522v-1280h548v-242h-866v1522h318z" />
    <glyph glyph-name="lcommaaccent" unicode="&#x13c;" horiz-adv-x="672" 
d="M242 -490q30 33 30 136q0 38 -20 74t-42 46v50l184 98q23 -5 48.5 -30.5t43 -68t17.5 -96.5q0 -74 -27 -134.5t-62.5 -98t-60.5 -46.5l-111 44v26zM492 1662v-1662h-312v1662h312z" />
    <glyph glyph-name="Lcaron" unicode="&#x13d;" horiz-adv-x="1120" 
d="M506 1522v-1280h548v-242h-866v1522h318zM838 1061q10 47 16.5 131t5.5 165q0 67 -17.5 129.5t-41.5 87.5l12 64l215 70q71 -67 71 -268q0 -82 -18.5 -170.5t-46.5 -158.5t-55 -101l-133 28z" />
    <glyph glyph-name="lcaron" unicode="&#x13e;" horiz-adv-x="956" 
d="M492 1662v-1662h-312v1662h312zM691 1061q10 47 16.5 131t5.5 165q0 67 -17.5 129.5t-41.5 87.5l12 64l215 70q71 -67 71 -268q0 -82 -18.5 -170.5t-46.5 -158.5t-55 -101l-133 28z" />
    <glyph glyph-name="Ldot" unicode="&#x13f;" horiz-adv-x="1410" 
d="M911 950.5q28 48.5 75 77.5t101 29q57 0 99 -25.5t64 -70.5t22 -100q0 -56 -27 -104t-73.5 -76.5t-101.5 -28.5q-53 0 -96 25.5t-67 70t-24 99.5t28 103.5zM506 1522v-1280h548v-242h-866v1522h318z" />
    <glyph glyph-name="ldot" unicode="&#x140;" horiz-adv-x="1071" 
d="M492 1662v-1662h-312v1662h312zM694 958.5q28 48.5 75 77.5t101 29q57 0 99 -25.5t64 -70.5t22 -100q0 -56 -27 -104t-73.5 -76.5t-101.5 -28.5q-53 0 -96 25.5t-67 70t-24 99.5t28 103.5z" />
    <glyph glyph-name="Lslash" unicode="&#x141;" horiz-adv-x="1120" 
d="M1054 242v-242h-866v604l-98 -36l-65 170l163 60v724h318v-607l313 116l65 -172l-378 -139v-478h548z" />
    <glyph glyph-name="lslash" unicode="&#x142;" horiz-adv-x="672" 
d="M672 951l-180 -66v-885h-312v770l-162 -60v195l162 62v695h312v-574l180 69v-206z" />
    <glyph glyph-name="Nacute" unicode="&#x143;" horiz-adv-x="1622" 
d="M845.5 1841q106.5 107 117.5 139l217 -131q-44 -57 -112 -122.5t-137.5 -116.5t-116.5 -67l-146 125q71 66 177.5 173zM1432 1522v-1522h-319l-543 861l-120 243l34 -363v-741h-296v1522h295l567 -895l115 -228l-29 366v757h296z" />
    <glyph glyph-name="nacute" unicode="&#x144;" horiz-adv-x="1352" 
d="M807 1580q89 108 162 227l214 -174q-27 -63 -106.5 -145t-168 -150t-131.5 -87l-149 137q90 84 179 192zM457 1140l6 -122q69 52 172 95t199 46q123 4 201 -38.5t116.5 -141t38.5 -264.5v-715h-312v648q0 97 -15 150.5t-51 76.5t-102 21q-50 -1 -113 -23t-111 -64v-809
h-312v1140h283z" />
    <glyph glyph-name="Ncommaaccent" unicode="&#x145;" horiz-adv-x="1622" 
d="M685 -490q30 33 30 136q0 38 -20 74t-42 46v50l184 98q23 -5 48.5 -30.5t43 -68t17.5 -96.5q0 -74 -27 -134.5t-62.5 -98t-60.5 -46.5l-111 44v26zM1432 1522v-1522h-319l-543 861l-120 243l34 -363v-741h-296v1522h295l567 -895l115 -228l-29 366v757h296z" />
    <glyph glyph-name="ncommaaccent" unicode="&#x146;" horiz-adv-x="1352" 
d="M586 -490q30 33 30 136q0 38 -20 74t-42 46v50l184 98q23 -5 48.5 -30.5t43 -68t17.5 -96.5q0 -74 -27 -134.5t-62.5 -98t-60.5 -46.5l-111 44v26zM457 1140l6 -122q69 52 172 95t199 46q123 4 201 -38.5t116.5 -141t38.5 -264.5v-715h-312v648q0 97 -15 150.5t-51 76.5
t-102 21q-50 -1 -113 -23t-111 -64v-809h-312v1140h283z" />
    <glyph glyph-name="Ncaron" unicode="&#x147;" horiz-adv-x="1622" 
d="M591 1960l220 -181l223 181l154 -91l-267 -293h-219l-268 292zM1432 1522v-1522h-319l-543 861l-120 243l34 -363v-741h-296v1522h295l567 -895l115 -228l-29 366v757h296z" />
    <glyph glyph-name="ncaron" unicode="&#x148;" horiz-adv-x="1352" 
d="M760 1466l233 246l161 -90l-283 -372h-223l-286 373l156 89zM457 1140l6 -122q69 52 172 95t199 46q123 4 201 -38.5t116.5 -141t38.5 -264.5v-715h-312v648q0 97 -15 150.5t-51 76.5t-102 21q-50 -1 -113 -23t-111 -64v-809h-312v1140h283z" />
    <glyph glyph-name="napostrophe" unicode="&#x149;" horiz-adv-x="1352" 
d="M586 -490q30 33 30 136q0 38 -20 74t-42 46v50l184 98q23 -5 48.5 -30.5t43 -68t17.5 -96.5q0 -74 -27 -134.5t-62.5 -98t-60.5 -46.5l-111 44v26zM457 1140l6 -122q69 52 172 95t199 46q123 4 201 -38.5t116.5 -141t38.5 -264.5v-715h-312v648q0 97 -15 150.5t-51 76.5
t-102 21q-50 -1 -113 -23t-111 -64v-809h-312v1140h283z" />
    <glyph glyph-name="Eng" unicode="&#x14a;" horiz-adv-x="1620" 
d="M1432 270q0 -99 -6.5 -169t-25.5 -138q-31 -112 -119 -202t-212 -143t-258 -59l-70 125q87 25 171.5 78.5t138.5 121.5t54 135l-526 842l-115 231l38 -351v-741h-314l-1 1522h308l544 -895l112 -222l-35 360v757h315v-1113z" />
    <glyph glyph-name="eng" unicode="&#x14b;" horiz-adv-x="1352" 
d="M457 1138l6 -120q69 52 172 95t199 46q123 4 201 -38t116.5 -140.5t38.5 -264.5v-747q0 -166 -45.5 -272.5t-124 -155t-180.5 -48.5q-52 0 -111.5 4t-87.5 10v196q14 -5 50 -8t58 -3q49 0 76 19t40 75t13 169v703q0 96 -14.5 149.5t-50.5 76.5t-101 21q-48 -1 -113 -25
t-113 -66v-814h-312v1138h283z" />
    <glyph glyph-name="Omacron" unicode="&#x14c;" 
d="M1122 1892v-206h-591v206h591zM195.5 1194.5q92.5 169.5 253 253.5t372.5 90q207 6 362 -90t236.5 -274t77.5 -411q-5 -260 -97 -434.5t-253 -259.5t-374 -85q-210 0 -364.5 99.5t-234.5 277.5t-76 408q5 256 97.5 425.5zM1128.5 1044q-39.5 118 -119 185t-195.5 67
q-111 0 -198 -55t-138 -175t-51 -308q0 -153 41.5 -275t125 -192t204.5 -70q175 0 272.5 137t97.5 415q0 153 -39.5 271z" />
    <glyph glyph-name="omacron" unicode="&#x14d;" horiz-adv-x="1302" 
d="M956 1625v-206h-591v206h591zM168 893.5q72 129.5 200 196t294 66.5q189 0 311 -79.5t177.5 -213t55.5 -301.5q0 -184 -72 -314t-200 -197t-293 -67q-190 0 -312 80t-177.5 214.5t-55.5 302.5q0 183 72 312.5zM826 827.5q-57 106.5 -173 106.5q-234 0 -234 -348
q0 -105 24.5 -191.5t77 -138.5t131.5 -52q231 0 231 357q0 160 -57 266.5z" />
    <glyph glyph-name="Obreve" unicode="&#x14e;" 
d="M649 1959q3 -35 15 -65.5t49.5 -54t108.5 -23.5q164 0 176 143h187q4 -102 -38 -180t-125.5 -122t-199.5 -44q-121 0 -204.5 43.5t-123.5 121.5t-36 181h191zM195.5 1194.5q92.5 169.5 253 253.5t372.5 90q207 6 362 -90t236.5 -274t77.5 -411q-5 -260 -97 -434.5
t-253 -259.5t-374 -85q-210 0 -364.5 99.5t-234.5 277.5t-76 408q5 256 97.5 425.5zM1128.5 1044q-39.5 118 -119 185t-195.5 67q-111 0 -198 -55t-138 -175t-51 -308q0 -153 41.5 -275t125 -192t204.5 -70q175 0 272.5 137t97.5 415q0 153 -39.5 271z" />
    <glyph glyph-name="obreve" unicode="&#x14f;" horiz-adv-x="1302" 
d="M168 893.5q72 129.5 200 196t294 66.5q189 0 311 -79.5t177.5 -213t55.5 -301.5q0 -184 -72 -314t-200 -197t-293 -67q-190 0 -312 80t-177.5 214.5t-55.5 302.5q0 183 72 312.5zM826 827.5q-57 106.5 -173 106.5q-234 0 -234 -348q0 -105 24.5 -191.5t77 -138.5
t131.5 -52q231 0 231 357q0 160 -57 266.5zM493 1684q4 -40 14 -74.5t47 -64.5t108 -30q69 0 106 30t48.5 65t15.5 74h193q4 -105 -40.5 -194t-129 -141t-194.5 -52q-115 0 -199 52t-126.5 140.5t-38.5 194.5h196z" />
    <glyph glyph-name="Ohungarumlaut" unicode="&#x150;" 
d="M195.5 1194.5q92.5 169.5 253 253.5t372.5 90q207 6 362 -90t236.5 -274t77.5 -411q-5 -260 -97 -434.5t-253 -259.5t-374 -85q-210 0 -364.5 99.5t-234.5 277.5t-76 408q5 256 97.5 425.5zM1128.5 1044q-39.5 118 -119 185t-195.5 67q-111 0 -198 -55t-138 -175
t-51 -308q0 -153 41.5 -275t125 -192t204.5 -70q175 0 272.5 137t97.5 415q0 153 -39.5 271zM517 1745q52 64 98.5 127.5t54.5 86.5l230 -112q-66 -96 -149 -183t-139 -112l-162 115q15 14 67 78zM1032 1744.5q53 63.5 100 126t55 85.5l226 -113q-62 -92 -146 -179
t-143 -112l-161 115q16 14 69 77.5z" />
    <glyph glyph-name="ohungarumlaut" unicode="&#x151;" horiz-adv-x="1302" 
d="M567 1834l195 -137q-32 -52 -96 -128.5t-131 -142.5t-111 -92l-127 93zM1088 1830l196 -136q-34 -53 -99.5 -130.5t-133.5 -143t-113 -86.5l-122 93zM168 893.5q72 129.5 200 196t294 66.5q189 0 311 -79.5t177.5 -213t55.5 -301.5q0 -184 -72 -314t-200 -197t-293 -67
q-190 0 -312 80t-177.5 214.5t-55.5 302.5q0 183 72 312.5zM826 827.5q-57 106.5 -173 106.5q-234 0 -234 -348q0 -105 24.5 -191.5t77 -138.5t131.5 -52q231 0 231 357q0 160 -57 266.5z" />
    <glyph glyph-name="OE" unicode="&#x152;" horiz-adv-x="2133" 
d="M2047 251v-251h-993v42q-104 -58 -270 -58q-208 0 -361.5 97.5t-235 270.5t-81.5 394q0 253 93.5 431.5t257 269.5t371.5 91q135 0 226 -46v30h928v-244h-610v-374h450v-241h-450v-412h675zM950 243.5q61 22.5 104 75.5v871q-93 106 -234 106q-105 0 -192 -49t-142 -169
t-55 -320q0 -161 43.5 -282.5t127.5 -188t202 -66.5q85 0 146 22.5z" />
    <glyph glyph-name="oe" unicode="&#x153;" horiz-adv-x="1962" 
d="M1854 495h-674q9 -141 88.5 -210t215.5 -69q65 0 157.5 17.5t135.5 41.5l51 -177q-59 -48 -177 -81t-246 -33q-245 0 -382 142q-70 -70 -168.5 -106t-219.5 -36q-189 0 -309.5 79.5t-175 212.5t-54.5 302q0 184 70.5 314.5t197 197t292.5 66.5q248 0 380 -142
q69 68 165.5 105t216.5 37q124 0 225 -45t161.5 -145t60.5 -257q0 -144 -11 -214zM818.5 294.5q54.5 90.5 54.5 266.5q0 161 -55 267t-171 106q-119 0 -173.5 -88.5t-54.5 -259.5q0 -166 55 -274t172 -108q118 0 172.5 90.5zM1576 712q0 109 -41 165.5t-133 56.5
t-146.5 -60.5t-70.5 -205.5h390q1 15 1 44z" />
    <glyph glyph-name="Racute" unicode="&#x154;" horiz-adv-x="1435" 
d="M1381 0h-354q-10 14 -20 33.5t-22 46.5l-14 30q-17 36 -31.5 75.5t-36.5 105.5q-31 95 -54.5 152.5t-58.5 96.5t-83 39q-102 -4 -201 -4v-575h-318v1522h147q51 0 117 6q55 4 128 7t159 3q243 0 395.5 -105.5t152.5 -354.5q0 -179 -64.5 -286t-188.5 -156
q53 -45 92.5 -118t93.5 -199q58 -140 98 -209zM506 804q50 -6 209 -6q135 0 199 77t64 194q0 68 -21.5 118.5t-82.5 82t-173 31.5q-119 0 -195 -18v-479zM790.5 1841q106.5 107 117.5 139l217 -131q-44 -57 -112 -122.5t-137.5 -116.5t-116.5 -67l-146 125q71 66 177.5 173z
" />
    <glyph glyph-name="racute" unicode="&#x155;" horiz-adv-x="926" 
d="M587 1581q89 108 162 227l214 -174q-27 -63 -106.5 -145t-168 -150t-131.5 -87l-149 137q90 84 179 192zM861 1145v-301q-23 13 -52.5 20.5t-84.5 7.5q-144 0 -254 -103v-769h-312v1140h277l14 -156q25 44 74.5 84t115 65.5t133.5 25.5q65 0 89 -14z" />
    <glyph glyph-name="Rcommaaccent" unicode="&#x156;" horiz-adv-x="1435" 
d="M643 -490q30 33 30 136q0 38 -20 74t-42 46v50l184 98q23 -5 48.5 -30.5t43 -68t17.5 -96.5q0 -74 -27 -134.5t-62.5 -98t-60.5 -46.5l-111 44v26zM1381 0h-354q-10 14 -20 33.5t-22 46.5l-14 30q-17 36 -31.5 75.5t-36.5 105.5q-31 95 -54.5 152.5t-58.5 96.5t-83 39
q-102 -4 -201 -4v-575h-318v1522h147q51 0 117 6q55 4 128 7t159 3q243 0 395.5 -105.5t152.5 -354.5q0 -179 -64.5 -286t-188.5 -156q53 -45 92.5 -118t93.5 -199q58 -140 98 -209zM506 804q50 -6 209 -6q135 0 199 77t64 194q0 68 -21.5 118.5t-82.5 82t-173 31.5
q-119 0 -195 -18v-479z" />
    <glyph glyph-name="rcommaaccent" unicode="&#x157;" horiz-adv-x="926" 
d="M228 -490q30 33 30 136q0 38 -20 74t-42 46v50l184 98q23 -5 48.5 -30.5t43 -68t17.5 -96.5q0 -74 -27 -134.5t-62.5 -98t-60.5 -46.5l-111 44v26zM861 1145v-301q-23 13 -52.5 20.5t-84.5 7.5q-144 0 -254 -103v-769h-312v1140h277l14 -156q25 44 74.5 84t115 65.5
t133.5 25.5q65 0 89 -14z" />
    <glyph glyph-name="Rcaron" unicode="&#x158;" horiz-adv-x="1435" 
d="M536 1960l220 -181l223 181l154 -91l-267 -293h-219l-268 292zM1381 0h-354q-10 14 -20 33.5t-22 46.5l-14 30q-17 36 -31.5 75.5t-36.5 105.5q-31 95 -54.5 152.5t-58.5 96.5t-83 39q-102 -4 -201 -4v-575h-318v1522h147q51 0 117 6q55 4 128 7t159 3
q243 0 395.5 -105.5t152.5 -354.5q0 -179 -64.5 -286t-188.5 -156q53 -45 92.5 -118t93.5 -199q58 -140 98 -209zM506 804q50 -6 209 -6q135 0 199 77t64 194q0 68 -21.5 118.5t-82.5 82t-173 31.5q-119 0 -195 -18v-479z" />
    <glyph glyph-name="rcaron" unicode="&#x159;" horiz-adv-x="926" 
d="M540 1467l233 246l161 -90l-283 -372h-223l-286 373l156 89zM861 1145v-301q-23 13 -52.5 20.5t-84.5 7.5q-144 0 -254 -103v-769h-312v1140h277l14 -156q25 44 74.5 84t115 65.5t133.5 25.5q65 0 89 -14z" />
    <glyph glyph-name="Sacute" unicode="&#x15a;" horiz-adv-x="1207" 
d="M197 329q73 -40 176 -68t216 -28q123 0 173 37.5t50 117.5q0 54 -25 91.5t-84.5 75.5t-185.5 100q-168 83 -273 194t-105 279q0 144 70.5 235.5t190 133t270.5 41.5q130 0 236.5 -28t156.5 -60l-52 -247q-68 43 -148.5 70t-183.5 27q-121 0 -174.5 -40.5t-53.5 -115.5
q0 -53 26.5 -91t78.5 -72.5t158 -90.5q144 -76 229.5 -136.5t137 -144.5t51.5 -201q0 -134 -65 -229.5t-183.5 -145t-274.5 -49.5q-93 0 -187.5 14.5t-167 35.5t-102.5 40zM684.5 1841q106.5 107 117.5 139l217 -131q-44 -57 -112 -122.5t-137.5 -116.5t-116.5 -67l-146 125
q71 66 177.5 173z" />
    <glyph glyph-name="sacute" unicode="&#x15b;" horiz-adv-x="1048" 
d="M584 1580q89 108 162 227l214 -174q-27 -63 -106.5 -145t-168 -150t-131.5 -87l-149 137q90 84 179 192zM218 267.5q52 -21.5 120.5 -37.5t135.5 -16q93 -1 136 21t43 74q0 48 -59.5 87t-187.5 81q-152 50 -219.5 136t-67.5 212q0 106 58.5 180.5t162.5 112.5t239 38
q109 0 195 -21t126 -44l-34 -240q-34 31 -109.5 54t-146.5 23q-102 0 -147.5 -21.5t-45.5 -70.5q0 -35 21 -59.5t67.5 -47t134.5 -52.5q117 -40 186.5 -87.5t101.5 -109t32 -146.5q0 -173 -118.5 -261.5t-328.5 -88.5q-79 0 -159 13t-143.5 33.5t-95.5 41.5l32 232
q19 -15 71 -36.5z" />
    <glyph glyph-name="Scircumflex" unicode="&#x15c;" horiz-adv-x="1207" 
d="M197 329q73 -40 176 -68t216 -28q123 0 173 37.5t50 117.5q0 54 -25 91.5t-84.5 75.5t-185.5 100q-168 83 -273 194t-105 279q0 144 70.5 235.5t190 133t270.5 41.5q130 0 236.5 -28t156.5 -60l-52 -247q-68 43 -148.5 70t-183.5 27q-121 0 -174.5 -40.5t-53.5 -115.5
q0 -53 26.5 -91t78.5 -72.5t158 -90.5q144 -76 229.5 -136.5t137 -144.5t51.5 -201q0 -134 -65 -229.5t-183.5 -145t-274.5 -49.5q-93 0 -187.5 14.5t-167 35.5t-102.5 40zM539 1959h220l276 -308l-165 -92l-221 199l-222 -199l-162 90z" />
    <glyph glyph-name="scircumflex" unicode="&#x15d;" horiz-adv-x="1048" 
d="M429 1698h223l283 -372l-161 -90l-233 246l-242 -246l-156 89zM218 267.5q52 -21.5 120.5 -37.5t135.5 -16q93 -1 136 21t43 74q0 48 -59.5 87t-187.5 81q-152 50 -219.5 136t-67.5 212q0 106 58.5 180.5t162.5 112.5t239 38q109 0 195 -21t126 -44l-34 -240
q-34 31 -109.5 54t-146.5 23q-102 0 -147.5 -21.5t-45.5 -70.5q0 -35 21 -59.5t67.5 -47t134.5 -52.5q117 -40 186.5 -87.5t101.5 -109t32 -146.5q0 -173 -118.5 -261.5t-328.5 -88.5q-79 0 -159 13t-143.5 33.5t-95.5 41.5l32 232q19 -15 71 -36.5z" />
    <glyph glyph-name="Scedilla" unicode="&#x15e;" horiz-adv-x="1207" 
d="M1021.5 123.5q-110.5 -107.5 -301.5 -132.5q20 -39 28.5 -96t6.5 -116q-4 -122 -75.5 -182.5t-179.5 -60.5q-47 0 -104.5 8.5t-75.5 19.5l20 165q22 -14 77 -14q51 0 84.5 38t36.5 112q1 12 1 33q0 50 -12 89q-119 8 -226.5 35t-148.5 52l45 255q73 -40 176 -68t216 -28
q123 0 173 37.5t50 117.5q0 54 -25 91.5t-84.5 75.5t-185.5 100q-168 83 -273 194t-105 279q0 144 70.5 235.5t190 133t270.5 41.5q130 0 236.5 -28t156.5 -60l-52 -247q-68 43 -148.5 70t-183.5 27q-121 0 -174.5 -40.5t-53.5 -115.5q0 -53 26.5 -91t78.5 -72.5t158 -90.5
q144 -76 229.5 -136.5t137 -144.5t51.5 -201q0 -177 -110.5 -284.5z" />
    <glyph glyph-name="scedilla" unicode="&#x15f;" horiz-adv-x="1048" 
d="M874.5 102q-85.5 -86 -241.5 -110q20 -38 28.5 -95.5t6.5 -117.5q-4 -122 -75.5 -182.5t-179.5 -60.5q-47 0 -104.5 8.5t-75.5 19.5l20 165q22 -14 77 -14q51 0 84.5 38t36.5 112q1 12 1 33q0 50 -12 89q-101 8 -192 32.5t-133 52.5l32 232q19 -15 71 -36.5t120.5 -37.5
t135.5 -16q93 -1 136 21t43 74q0 48 -59.5 87t-187.5 81q-152 50 -219.5 136t-67.5 212q0 106 58.5 180.5t162.5 112.5t239 38q109 0 195 -21t126 -44l-34 -240q-34 31 -109.5 54t-146.5 23q-102 0 -147.5 -21.5t-45.5 -70.5q0 -35 21 -59.5t67.5 -47t134.5 -52.5
q117 -40 186.5 -87.5t101.5 -109t32 -146.5q0 -146 -85.5 -232z" />
    <glyph glyph-name="Scaron" unicode="&#x160;" horiz-adv-x="1207" 
d="M197 329q73 -40 176 -68t216 -28q123 0 173 37.5t50 117.5q0 54 -25 91.5t-84.5 75.5t-185.5 100q-168 83 -273 194t-105 279q0 144 70.5 235.5t190 133t270.5 41.5q130 0 236.5 -28t156.5 -60l-52 -247q-68 43 -148.5 70t-183.5 27q-121 0 -174.5 -40.5t-53.5 -115.5
q0 -53 26.5 -91t78.5 -72.5t158 -90.5q144 -76 229.5 -136.5t137 -144.5t51.5 -201q0 -134 -65 -229.5t-183.5 -145t-274.5 -49.5q-93 0 -187.5 14.5t-167 35.5t-102.5 40zM430 1960l220 -181l223 181l154 -91l-267 -293h-219l-268 292z" />
    <glyph glyph-name="scaron" unicode="&#x161;" horiz-adv-x="1048" 
d="M537 1466l233 246l161 -90l-283 -372h-223l-286 373l156 89zM218 267.5q52 -21.5 120.5 -37.5t135.5 -16q93 -1 136 21t43 74q0 48 -59.5 87t-187.5 81q-152 50 -219.5 136t-67.5 212q0 106 58.5 180.5t162.5 112.5t239 38q109 0 195 -21t126 -44l-34 -240
q-34 31 -109.5 54t-146.5 23q-102 0 -147.5 -21.5t-45.5 -70.5q0 -35 21 -59.5t67.5 -47t134.5 -52.5q117 -40 186.5 -87.5t101.5 -109t32 -146.5q0 -173 -118.5 -261.5t-328.5 -88.5q-79 0 -159 13t-143.5 33.5t-95.5 41.5l32 232q19 -15 71 -36.5z" />
    <glyph glyph-name="uni0162" unicode="&#x162;" horiz-adv-x="1250" 
d="M1220 1522v-244h-434v-1278h-54q22 -38 31.5 -98t7.5 -123q-4 -122 -75.5 -182.5t-179.5 -60.5q-47 0 -104.5 8.5t-75.5 19.5l20 165q22 -14 77 -14q51 0 84.5 38t36.5 112q1 11 1 32q0 59 -17 103h-72v1278h-436v244h1190z" />
    <glyph glyph-name="uni0163" unicode="&#x163;" horiz-adv-x="913" 
d="M744 22.5q-82 -31.5 -178 -37.5q18 -38 26 -93.5t6 -112.5q-4 -122 -75.5 -182.5t-179.5 -60.5q-47 0 -104.5 8.5t-75.5 19.5l20 165q22 -14 77 -14q51 0 84.5 38t36.5 112q1 12 1 34q0 62 -22 112q-78 33 -113.5 112.5t-35.5 215.5v585h-137v169q66 19 95.5 29.5
t52.5 29t36 49.5q21 50 75 199h190v-260h309v-216h-309v-458q0 -114 12 -166t38 -66.5t80 -14.5q42 0 96.5 14.5t80.5 33.5l38 -175q-42 -38 -124 -69.5z" />
    <glyph glyph-name="Tcaron" unicode="&#x164;" horiz-adv-x="1250" 
d="M402 1960l220 -181l223 181l154 -91l-267 -293h-219l-268 292zM30 1278v244h1190v-244h-434v-1278h-320v1278h-436z" />
    <glyph glyph-name="tcaron" unicode="&#x165;" horiz-adv-x="1058" 
d="M211 924h-137v169q66 19 95.5 29.5t52.5 29t36 49.5q21 50 75 199h190v-260h309v-216h-309v-458q0 -114 12 -166t38 -66.5t80 -14.5q42 0 96.5 14.5t80.5 33.5l38 -175q-47 -42 -140.5 -75t-201.5 -33q-115 0 -183.5 35.5t-100 113t-31.5 206.5v585zM792 1273
q10 47 16.5 131t5.5 165q0 67 -17.5 129.5t-41.5 87.5l12 64l215 70q71 -67 71 -268q0 -82 -18.5 -170.5t-46.5 -158.5t-55 -101l-133 28z" />
    <glyph glyph-name="Tbar" unicode="&#x166;" horiz-adv-x="1250" 
d="M786 1278v-482h289v-199h-289v-597h-320v597h-273v199h273v482h-436v244h1190v-244h-434z" />
    <glyph glyph-name="tbar" unicode="&#x167;" horiz-adv-x="913" 
d="M868 92q-47 -42 -140.5 -75t-201.5 -33q-115 0 -183.5 35.5t-100 113t-31.5 206.5v184h-130v214h130v187h-137v169q66 19 95.5 29.5t52.5 29t36 49.5q21 50 75 199h190v-260h309v-216h-309v-187h316v-214h-316v-57q0 -114 12 -166t38 -66.5t80 -14.5q42 0 96.5 14.5
t80.5 33.5z" />
    <glyph glyph-name="Utilde" unicode="&#x168;" horiz-adv-x="1525" 
d="M447 1894q78 63 188 63q60 0 99 -19.5t84 -56.5q34 -28 57 -41t54 -13q45 0 82 31t73 80l126 -108q-36 -104 -111.5 -166t-186.5 -62q-58 0 -95.5 19t-81.5 56q-37 30 -62 44t-60 14q-39 0 -79.5 -30t-74.5 -72l-125 98q35 100 113 163zM152 1522h315l-2 -852
q0 -173 33.5 -267t98.5 -129.5t170 -35.5q101 0 165 38.5t97.5 133t33.5 260.5v852h313v-882q0 -321 -156 -488.5t-462 -167.5q-326 0 -467.5 173.5t-140.5 495.5z" />
    <glyph glyph-name="utilde" unicode="&#x169;" horiz-adv-x="1326" 
d="M1152 1140v-1156h-206q-40 0 -58 11.5t-18 46.5v52q-65 -46 -158.5 -78t-174.5 -32q-156 0 -238 59t-109.5 163t-27.5 268v666h312v-663q0 -107 18.5 -161.5t55 -73.5t101.5 -19q50 0 106 21t85 44v852h312zM341 1635q78 63 188 63q64 0 104 -20t83 -57q32 -27 54.5 -40
t52.5 -13q45 0 82 31t73 80l126 -108q-36 -104 -111.5 -166t-186.5 -62q-58 0 -95.5 19t-81.5 56q-37 30 -62 44t-60 14q-39 0 -79.5 -30t-74.5 -72l-125 98q35 100 113 163z" />
    <glyph glyph-name="Umacron" unicode="&#x16a;" horiz-adv-x="1525" 
d="M1067 1892v-206h-591v206h591zM152 1522h315l-2 -852q0 -173 33.5 -267t98.5 -129.5t170 -35.5q101 0 165 38.5t97.5 133t33.5 260.5v852h313v-882q0 -321 -156 -488.5t-462 -167.5q-326 0 -467.5 173.5t-140.5 495.5z" />
    <glyph glyph-name="umacron" unicode="&#x16b;" horiz-adv-x="1326" 
d="M1152 1140v-1156h-206q-40 0 -58 11.5t-18 46.5v52q-65 -46 -158.5 -78t-174.5 -32q-156 0 -238 59t-109.5 163t-27.5 268v666h312v-663q0 -107 18.5 -161.5t55 -73.5t101.5 -19q50 0 106 21t85 44v852h312zM970 1625v-206h-591v206h591z" />
    <glyph glyph-name="Ubreve" unicode="&#x16c;" horiz-adv-x="1525" 
d="M594 1959q3 -35 15 -65.5t49.5 -54t108.5 -23.5q164 0 176 143h187q4 -102 -38 -180t-125.5 -122t-199.5 -44q-121 0 -204.5 43.5t-123.5 121.5t-36 181h191zM152 1522h315l-2 -852q0 -173 33.5 -267t98.5 -129.5t170 -35.5q101 0 165 38.5t97.5 133t33.5 260.5v852h313
v-882q0 -321 -156 -488.5t-462 -167.5q-326 0 -467.5 173.5t-140.5 495.5z" />
    <glyph glyph-name="ubreve" unicode="&#x16d;" horiz-adv-x="1326" 
d="M1152 1140v-1156h-206q-40 0 -58 11.5t-18 46.5v52q-65 -46 -158.5 -78t-174.5 -32q-156 0 -238 59t-109.5 163t-27.5 268v666h312v-663q0 -107 18.5 -161.5t55 -73.5t101.5 -19q50 0 106 21t85 44v852h312zM507 1684q4 -40 14 -74.5t47 -64.5t108 -30q69 0 106 30
t48.5 65t15.5 74h193q4 -105 -40.5 -194t-129 -141t-194.5 -52q-115 0 -199 52t-126.5 140.5t-38.5 194.5h196z" />
    <glyph glyph-name="Uring" unicode="&#x16e;" horiz-adv-x="1525" 
d="M152 1522h315l-2 -852q0 -173 33.5 -267t98.5 -129.5t170 -35.5q101 0 165 38.5t97.5 133t33.5 260.5v852h313v-882q0 -321 -156 -488.5t-462 -167.5q-326 0 -467.5 173.5t-140.5 495.5zM473.5 1954q49.5 62 127.5 89t170 27q159 0 247.5 -69t88.5 -203q0 -98 -47.5 -161
t-125.5 -92t-172 -29q-160 0 -249 73t-89 205q0 98 49.5 160zM879 1891q-45 33 -119 33q-70 0 -111 -27.5t-41 -97.5q0 -62 43 -96.5t114 -34.5q79 -1 119 25t40 99q0 66 -45 99z" />
    <glyph glyph-name="uring" unicode="&#x16f;" horiz-adv-x="1326" 
d="M381.5 1764q49.5 64 128 93.5t169.5 29.5q157 0 246.5 -73t89.5 -209q0 -98 -47.5 -163.5t-126 -97t-171.5 -31.5q-105 0 -181 35t-116.5 99.5t-40.5 153.5q0 99 49.5 163zM786.5 1703q-45.5 38 -117.5 38q-67 0 -110 -32t-43 -103q0 -63 44 -102t113 -39q77 -1 118 29.5
t41 104.5q0 66 -45.5 104zM1152 1140v-1156h-206q-40 0 -58 11.5t-18 46.5v52q-65 -46 -158.5 -78t-174.5 -32q-156 0 -238 59t-109.5 163t-27.5 268v666h312v-663q0 -107 18.5 -161.5t55 -73.5t101.5 -19q50 0 106 21t85 44v852h312z" />
    <glyph glyph-name="Uhungarumlaut" unicode="&#x170;" horiz-adv-x="1525" 
d="M152 1522h315l-2 -852q0 -173 33.5 -267t98.5 -129.5t170 -35.5q101 0 165 38.5t97.5 133t33.5 260.5v852h313v-882q0 -321 -156 -488.5t-462 -167.5q-326 0 -467.5 173.5t-140.5 495.5zM462 1745q52 64 98.5 127.5t54.5 86.5l230 -112q-66 -96 -149 -183t-139 -112
l-162 115q15 14 67 78zM977 1744.5q53 63.5 100 126t55 85.5l226 -113q-62 -92 -146 -179t-143 -112l-161 115q16 14 69 77.5z" />
    <glyph glyph-name="uhungarumlaut" unicode="&#x171;" horiz-adv-x="1326" 
d="M1152 1140v-1156h-206q-40 0 -58 11.5t-18 46.5v52q-65 -46 -158.5 -78t-174.5 -32q-156 0 -238 59t-109.5 163t-27.5 268v666h312v-663q0 -107 18.5 -161.5t55 -73.5t101.5 -19q50 0 106 21t85 44v852h312zM581 1834l195 -137q-32 -52 -96 -128.5t-131 -142.5t-111 -92
l-127 93zM1102 1830l196 -136q-34 -53 -99.5 -130.5t-133.5 -143t-113 -86.5l-122 93z" />
    <glyph glyph-name="Uogonek" unicode="&#x172;" horiz-adv-x="1525" 
d="M1376 1522v-882q0 -252 -96 -409.5t-286 -215.5q-128 -118 -128 -238q2 -46 34.5 -67t86.5 -21q55 0 125 20v-157q-43 -32 -104.5 -50t-125.5 -18q-63 0 -122.5 29t-97.5 79.5t-41 111.5q-6 91 37.5 160t117.5 120h-18q-326 0 -467.5 173.5t-140.5 495.5l2 869h315
l-2 -852q0 -173 33.5 -267t98.5 -129.5t170 -35.5q101 0 165 38.5t97.5 133t33.5 260.5v852h313z" />
    <glyph glyph-name="uogonek" unicode="&#x173;" horiz-adv-x="1326" 
d="M1199 -291v-157q-43 -32 -104.5 -50t-125.5 -18t-123 24t-97 69.5t-41 106.5q-5 97 51.5 174t144.5 130q-17 5 -25.5 18t-8.5 36v52q-65 -46 -158.5 -78t-174.5 -32q-156 0 -238 59t-109.5 163t-27.5 268v666h312v-663q0 -107 18.5 -161.5t55 -73.5t101.5 -19
q50 0 106 21t85 44v852h312v-1156h-44q-76 -52 -115.5 -97t-39.5 -100q0 -98 121 -98q55 0 125 20z" />
    <glyph glyph-name="Wcircumflex" unicode="&#x174;" horiz-adv-x="1973" 
d="M1968 1522l-398 -1538h-326l-214 850l-49 328l-45 -329l-219 -849h-304l-408 1538h319l188 -894l53 -370l61 370l220 894h284l234 -894l62 -354l51 354l173 894h318zM856 1959h220l276 -308l-165 -92l-221 199l-222 -199l-162 90z" />
    <glyph glyph-name="wcircumflex" unicode="&#x175;" horiz-adv-x="1757" 
d="M775 1703h223l283 -372l-161 -90l-233 246l-242 -246l-156 89zM1739 1140l-356 -1156h-278l-182 607l-44 218l-45 -218l-179 -607h-289l-348 1156h312l142 -551l52 -276l57 275l165 552h291l165 -551l52 -274l51 271l132 554h302z" />
    <glyph glyph-name="Ycircumflex" unicode="&#x176;" horiz-adv-x="1241" 
d="M780 533v-533h-319v535l-511 987h350l280 -590l44 -113l38 113l288 590h341zM529 1959h220l276 -308l-165 -92l-221 199l-222 -199l-162 90z" />
    <glyph glyph-name="ycircumflex" unicode="&#x177;" horiz-adv-x="1188" 
d="M1162 1140l-355 -1170q-60 -196 -160 -308t-223 -148q-26 -8 -76.5 -14.5t-75.5 -6.5q-26 0 -85 6.5t-67 12.5v253q18 -6 57.5 -13t55.5 -7q71 0 122.5 13t102 68.5t80.5 173.5h-134l-387 1140h338l173 -609l83 -329l77 329l139 609h335zM503 1698h223l283 -372l-161 -90
l-233 246l-242 -246l-156 89z" />
    <glyph glyph-name="Ydieresis" unicode="&#x178;" horiz-adv-x="1241" 
d="M780 533v-533h-319v535l-511 987h350l280 -590l44 -113l38 113l288 590h341zM225 1870q25 42 68 66t94 24q81 0 124.5 -44.5t43.5 -119.5q0 -51 -24.5 -92.5t-67 -65.5t-94.5 -24q-77 0 -123 45t-46 119q0 50 25 92zM749 1870q25 42 68 66t94 24q81 0 124 -44.5
t43 -119.5q0 -51 -24 -92.5t-66.5 -65.5t-95.5 -24q-76 0 -122 45t-46 119q0 50 25 92z" />
    <glyph glyph-name="Zacute" unicode="&#x179;" horiz-adv-x="1306" 
d="M740 1210l58 81h-668v231h1067l38 -81l-672 -1106l-73 -93h706v-242h-1102l-40 84zM711.5 1841q106.5 107 117.5 139l217 -131q-44 -57 -112 -122.5t-137.5 -116.5t-116.5 -67l-146 125q71 66 177.5 173z" />
    <glyph glyph-name="zacute" unicode="&#x17a;" horiz-adv-x="1108" 
d="M617 1580q89 108 162 227l214 -174q-27 -63 -106.5 -145t-168 -150t-131.5 -87l-149 137q90 84 179 192zM572 840l58 83h-488l2 217h866l35 -95l-484 -745l-61 -84h529v-216h-911l-42 83z" />
    <glyph glyph-name="Zdotaccent" unicode="&#x17b;" horiz-adv-x="1306" 
d="M526.5 1868.5q25.5 41.5 69.5 65.5t95 24q82 0 126.5 -44.5t44.5 -119.5q0 -51 -25 -92t-68.5 -65t-95.5 -24q-77 0 -124.5 44.5t-47.5 119.5q0 50 25.5 91.5zM740 1210l58 81h-668v231h1067l38 -81l-672 -1106l-73 -93h706v-242h-1102l-40 84z" />
    <glyph glyph-name="zdotaccent" unicode="&#x17c;" horiz-adv-x="1108" 
d="M572 840l58 83h-488l2 217h866l35 -95l-484 -745l-61 -84h529v-216h-911l-42 83zM405 1570q28 43 74 68.5t97 25.5q82 0 131 -47.5t49 -122.5q0 -50 -27.5 -93.5t-73 -69t-97.5 -25.5q-51 0 -92 22t-65 61t-24 88q0 50 28 93z" />
    <glyph glyph-name="Zcaron" unicode="&#x17d;" horiz-adv-x="1306" 
d="M457 1960l220 -181l223 181l154 -91l-267 -293h-219l-268 292zM740 1210l58 81h-668v231h1067l38 -81l-672 -1106l-73 -93h706v-242h-1102l-40 84z" />
    <glyph glyph-name="zcaron" unicode="&#x17e;" horiz-adv-x="1108" 
d="M607 1466l233 246l161 -90l-283 -372h-223l-286 373l156 89zM572 840l58 83h-488l2 217h866l35 -95l-484 -745l-61 -84h529v-216h-911l-42 83z" />
    <glyph glyph-name="florin" unicode="&#x192;" horiz-adv-x="1179" 
d="M208 924l14 178l179 38l9 83q17 165 90 268t180 148t233 45q63 0 115 -6.5t69 -14.5l-18 -229q-17 11 -57.5 17t-99.5 6q-81 0 -133 -55t-64 -173l-10 -89h274l-17 -216h-275l-110 -1280h-314l111 1280h-176z" />
    <glyph glyph-name="uni01C4" unicode="&#x1c4;" horiz-adv-x="2860" 
d="M339 1522q32 0 128 6q134 10 241 10q375 0 560.5 -190t185.5 -547q0 -255 -93 -439t-264.5 -281t-403.5 -97q-72 0 -214 9q-87 7 -137 7h-154v1522h151zM1010.5 361.5q107.5 131.5 107.5 405.5q0 196 -47.5 312.5t-143.5 167.5t-249 51q-53 0 -129 -10l-40 -4v-1038
q68 -18 204 -18q190 2 297.5 133.5zM2294 1210l58 81h-668v231h1067l38 -81l-672 -1106l-73 -93h706v-242h-1102l-40 84zM2011 1960l220 -181l223 181l154 -91l-267 -293h-219l-268 292z" />
    <glyph glyph-name="uni01C5" unicode="&#x1c5;" horiz-adv-x="2662" 
d="M339 1522q32 0 128 6q134 10 241 10q375 0 560.5 -190t185.5 -547q0 -255 -93 -439t-264.5 -281t-403.5 -97q-72 0 -214 9q-87 7 -137 7h-154v1522h151zM1010.5 361.5q107.5 131.5 107.5 405.5q0 196 -47.5 312.5t-143.5 167.5t-249 51q-53 0 -129 -10l-40 -4v-1038
q68 -18 204 -18q190 2 297.5 133.5zM2126 840l58 83h-488l2 217h866l35 -95l-484 -745l-61 -84h529v-216h-911l-42 83zM2124 1466l233 246l161 -90l-283 -372h-223l-286 373l156 89z" />
    <glyph glyph-name="uni01C6" unicode="&#x1c6;" horiz-adv-x="2447" 
d="M1171 1662v-1678h-212q-38 0 -56.5 11.5t-18.5 46.5v77q-55 -56 -133.5 -95.5t-201.5 -39.5q-125 0 -228 61.5t-164.5 185.5t-61.5 302q0 187 72.5 328t204 218t303.5 77q102 0 187 -32l-3 100v438h312zM479.5 301q57.5 -74 165.5 -74q61 0 118.5 17t95.5 43v615
q-28 19 -71 25.5t-104 6.5q-77 0 -136 -43t-92.5 -129t-33.5 -211q0 -176 57.5 -250zM1911 840l58 83h-488l2 217h866l35 -95l-484 -745l-61 -84h529v-216h-911l-42 83zM1909 1466l233 246l161 -90l-283 -372h-223l-286 373l156 89z" />
    <glyph glyph-name="uni01C7" unicode="&#x1c7;" horiz-adv-x="1918" 
d="M506 1522v-1280h548v-242h-866v1522h318zM1271 -62q70 68 96 179q19 79 25.5 195.5t6.5 295.5v914h320v-909l1 -223q0 -95 -4 -166.5t-16 -132.5q-25 -131 -112 -226t-197.5 -144.5t-203.5 -52.5l-77 168q91 34 161 102z" />
    <glyph glyph-name="uni01C8" unicode="&#x1c8;" horiz-adv-x="1764" 
d="M506 1522v-1280h548v-242h-866v1522h318zM1069 -296.5q39 -7.5 64 -7.5q61 0 95.5 28.5t50 94.5t15.5 182v1139h312v-1058q0 -308 -106.5 -448.5t-308.5 -140.5q-31 0 -94 8.5t-81 15.5v201q14 -7 53 -14.5zM1283 1571q28 43 74 68.5t97 25.5q82 0 131 -47.5t49 -122.5
q0 -50 -27.5 -93.5t-73 -69t-97.5 -25.5q-51 0 -92 22t-65 61t-24 88q0 50 28 93z" />
    <glyph glyph-name="uni01C9" unicode="&#x1c9;" horiz-adv-x="1316" 
d="M492 1662v-1662h-312v1662h312zM621 -296.5q39 -7.5 64 -7.5q61 0 95.5 28.5t50 94.5t15.5 182v1139h312v-1058q0 -308 -106.5 -448.5t-308.5 -140.5q-31 0 -94 8.5t-81 15.5v201q14 -7 53 -14.5zM835 1571q28 43 74 68.5t97 25.5q82 0 131 -47.5t49 -122.5
q0 -50 -27.5 -93.5t-73 -69t-97.5 -25.5q-51 0 -92 22t-65 61t-24 88q0 50 28 93z" />
    <glyph glyph-name="uni01CA" unicode="&#x1ca;" horiz-adv-x="2418" 
d="M1432 1522v-1522h-319l-543 861l-120 243l34 -363v-741h-296v1522h295l567 -895l115 -228l-29 366v757h296zM1771 -62q70 68 96 179q19 79 25.5 195.5t6.5 295.5v914h320v-909l1 -223q0 -95 -4 -166.5t-16 -132.5q-25 -131 -112 -226t-197.5 -144.5t-203.5 -52.5l-77 168
q91 34 161 102z" />
    <glyph glyph-name="uni01CB" unicode="&#x1cb;" horiz-adv-x="2264" 
d="M1432 1522v-1522h-319l-543 861l-120 243l34 -363v-741h-296v1522h295l567 -895l115 -228l-29 366v757h296zM1569 -296.5q39 -7.5 64 -7.5q61 0 95.5 28.5t50 94.5t15.5 182v1139h312v-1058q0 -308 -106.5 -448.5t-308.5 -140.5q-31 0 -94 8.5t-81 15.5v201
q14 -7 53 -14.5zM1783 1571q28 43 74 68.5t97 25.5q82 0 131 -47.5t49 -122.5q0 -50 -27.5 -93.5t-73 -69t-97.5 -25.5q-51 0 -92 22t-65 61t-24 88q0 50 28 93z" />
    <glyph glyph-name="uni01CC" unicode="&#x1cc;" horiz-adv-x="1996" 
d="M457 1140l6 -122q69 52 172 95t199 46q123 4 201 -38.5t116.5 -141t38.5 -264.5v-715h-312v648q0 97 -15 150.5t-51 76.5t-102 21q-50 -1 -113 -23t-111 -64v-809h-312v1140h283zM1301 -296.5q39 -7.5 64 -7.5q61 0 95.5 28.5t50 94.5t15.5 182v1139h312v-1058
q0 -308 -106.5 -448.5t-308.5 -140.5q-31 0 -94 8.5t-81 15.5v201q14 -7 53 -14.5zM1515 1571q28 43 74 68.5t97 25.5q82 0 131 -47.5t49 -122.5q0 -50 -27.5 -93.5t-73 -69t-97.5 -25.5q-51 0 -92 22t-65 61t-24 88q0 50 28 93z" />
    <glyph glyph-name="uni01CD" unicode="&#x1cd;" horiz-adv-x="1421" 
d="M987 322h-559l-101 -322h-342l562 1538h322l567 -1538h-347zM914 551l-165 522l-43 157l-44 -157l-163 -522h415zM492 1960l220 -181l223 181l154 -91l-267 -293h-219l-268 292z" />
    <glyph glyph-name="uni01CE" unicode="&#x1ce;" horiz-adv-x="1223" 
d="M872.5 1125.5q99.5 -36.5 148.5 -127t49 -253.5v-761h-182q-45 0 -68 6t-36 28t-13 70v8q-52 -48 -128 -80t-169 -32q-110 0 -194.5 47.5t-131 132t-46.5 191.5q0 100 51.5 171t147.5 114q149 66 457 66v72q0 64 -16.5 94t-63 41t-146.5 11q-48 0 -146 -24.5t-168 -56.5
l-69 200q40 24 116 52t167 47.5t175 19.5q166 0 265.5 -36.5zM686 215.5q55 20.5 72 42.5v272q-57 0 -128.5 -12.5t-106.5 -28.5q-45 -17 -72 -46t-27 -86q0 -80 43.5 -121t113.5 -41q50 0 105 20.5zM625 1466l233 246l161 -90l-283 -372h-223l-286 373l156 89z" />
    <glyph glyph-name="uni01CF" unicode="&#x1cf;" horiz-adv-x="722" 
d="M521 1522v-1522h-320v1522h320zM142 1960l220 -181l223 181l154 -91l-267 -293h-219l-268 292z" />
    <glyph glyph-name="uni01D0" unicode="&#x1d0;" horiz-adv-x="660" 
d="M486 1140v-1140h-312v1140h312zM329 1466l233 246l161 -90l-283 -372h-223l-286 373l156 89z" />
    <glyph glyph-name="uni01D1" unicode="&#x1d1;" 
d="M195.5 1194.5q92.5 169.5 253 253.5t372.5 90q207 6 362 -90t236.5 -274t77.5 -411q-5 -260 -97 -434.5t-253 -259.5t-374 -85q-210 0 -364.5 99.5t-234.5 277.5t-76 408q5 256 97.5 425.5zM1128.5 1044q-39.5 118 -119 185t-195.5 67q-111 0 -198 -55t-138 -175
t-51 -308q0 -153 41.5 -275t125 -192t204.5 -70q175 0 272.5 137t97.5 415q0 153 -39.5 271zM604 1960l220 -181l223 181l154 -91l-267 -293h-219l-268 292z" />
    <glyph glyph-name="uni01D2" unicode="&#x1d2;" horiz-adv-x="1302" 
d="M168 893.5q72 129.5 200 196t294 66.5q189 0 311 -79.5t177.5 -213t55.5 -301.5q0 -184 -72 -314t-200 -197t-293 -67q-190 0 -312 80t-177.5 214.5t-55.5 302.5q0 183 72 312.5zM826 827.5q-57 106.5 -173 106.5q-234 0 -234 -348q0 -105 24.5 -191.5t77 -138.5
t131.5 -52q231 0 231 357q0 160 -57 266.5zM659 1466l233 246l161 -90l-283 -372h-223l-286 373l156 89z" />
    <glyph glyph-name="uni01D3" unicode="&#x1d3;" horiz-adv-x="1525" 
d="M152 1522h315l-2 -852q0 -173 33.5 -267t98.5 -129.5t170 -35.5q101 0 165 38.5t97.5 133t33.5 260.5v852h313v-882q0 -321 -156 -488.5t-462 -167.5q-326 0 -467.5 173.5t-140.5 495.5zM549 1960l220 -181l223 181l154 -91l-267 -293h-219l-268 292z" />
    <glyph glyph-name="uni01D4" unicode="&#x1d4;" horiz-adv-x="1326" 
d="M1152 1140v-1156h-206q-40 0 -58 11.5t-18 46.5v52q-65 -46 -158.5 -78t-174.5 -32q-156 0 -238 59t-109.5 163t-27.5 268v666h312v-663q0 -107 18.5 -161.5t55 -73.5t101.5 -19q50 0 106 21t85 44v852h312zM673 1466l233 246l161 -90l-283 -372h-223l-286 373l156 89z
" />
    <glyph glyph-name="Gcaron" unicode="&#x1e6;" horiz-adv-x="1494" 
d="M1372 820v-730q-20 -1 -43 -8t-64 -21q-101 -35 -197.5 -56t-240.5 -21q-228 0 -392 94.5t-249.5 268t-85.5 406.5q0 264 98.5 440t269.5 260.5t391 84.5q116 0 186 -10t153 -30q51 -13 91 -20l-10 -273q-84 40 -175 60.5t-244 20.5q-132 0 -228.5 -60.5t-148.5 -174
t-52 -271.5t42 -282.5t128 -197t214 -72.5q153 0 255 38v305l-233 12v237h535zM622 1961l220 -181l223 181l154 -91l-267 -293h-219l-268 292z" />
    <glyph glyph-name="gcaron" unicode="&#x1e7;" horiz-adv-x="1305" 
d="M1288 914h-189q20 -58 20 -130q0 -183 -132.5 -279t-374.5 -96q-56 0 -99 7q-21 -17 -32 -41.5t-11 -51.5q0 -48 30 -64t105 -16h190q252 0 345.5 -97.5t93.5 -247.5q0 -128 -81.5 -222t-216.5 -143t-291 -49q-265 0 -409.5 85.5t-144.5 247.5q0 79 48.5 140.5
t127.5 96.5q-48 25 -70.5 71t-22.5 99q0 68 42 131t140 103q-109 47 -171.5 130.5t-62.5 186.5q0 196 134 288.5t376 92.5q221 0 345 -83q33 29 79 48t105 19h127v-226zM769.5 638q54.5 38 54.5 137q0 93 -48.5 140.5t-144.5 47.5q-97 0 -152.5 -41.5t-55.5 -142.5
q0 -84 50 -131.5t144 -47.5q98 0 152.5 38zM505 0q-22 0 -62 2q-42 -38 -42 -116q0 -94 58.5 -156t185.5 -62q132 0 206.5 40.5t74.5 127.5q0 59 -18 93.5t-74 52.5t-166 18h-163zM632 1467l233 246l161 -90l-283 -372h-223l-286 373l156 89z" />
    <glyph glyph-name="uni01F1" unicode="&#x1f1;" horiz-adv-x="2860" 
d="M339 1522q32 0 128 6q134 10 241 10q375 0 560.5 -190t185.5 -547q0 -255 -93 -439t-264.5 -281t-403.5 -97q-72 0 -214 9q-87 7 -137 7h-154v1522h151zM1010.5 361.5q107.5 131.5 107.5 405.5q0 196 -47.5 312.5t-143.5 167.5t-249 51q-53 0 -129 -10l-40 -4v-1038
q68 -18 204 -18q190 2 297.5 133.5zM2294 1210l58 81h-668v231h1067l38 -81l-672 -1106l-73 -93h706v-242h-1102l-40 84z" />
    <glyph glyph-name="uni01F2" unicode="&#x1f2;" horiz-adv-x="2662" 
d="M339 1522q32 0 128 6q134 10 241 10q375 0 560.5 -190t185.5 -547q0 -255 -93 -439t-264.5 -281t-403.5 -97q-72 0 -214 9q-87 7 -137 7h-154v1522h151zM1010.5 361.5q107.5 131.5 107.5 405.5q0 196 -47.5 312.5t-143.5 167.5t-249 51q-53 0 -129 -10l-40 -4v-1038
q68 -18 204 -18q190 2 297.5 133.5zM2126 840l58 83h-488l2 217h866l35 -95l-484 -745l-61 -84h529v-216h-911l-42 83z" />
    <glyph glyph-name="uni01F3" unicode="&#x1f3;" horiz-adv-x="2447" 
d="M1171 1662v-1678h-212q-38 0 -56.5 11.5t-18.5 46.5v77q-55 -56 -133.5 -95.5t-201.5 -39.5q-125 0 -228 61.5t-164.5 185.5t-61.5 302q0 187 72.5 328t204 218t303.5 77q102 0 187 -32l-3 100v438h312zM479.5 301q57.5 -74 165.5 -74q61 0 118.5 17t95.5 43v615
q-28 19 -71 25.5t-104 6.5q-77 0 -136 -43t-92.5 -129t-33.5 -211q0 -176 57.5 -250zM1911 840l58 83h-488l2 217h866l35 -95l-484 -745l-61 -84h529v-216h-911l-42 83z" />
    <glyph glyph-name="uni01F4" unicode="&#x1f4;" horiz-adv-x="1494" 
d="M1372 820v-730q-20 -1 -43 -8t-64 -21q-101 -35 -197.5 -56t-240.5 -21q-228 0 -392 94.5t-249.5 268t-85.5 406.5q0 264 98.5 440t269.5 260.5t391 84.5q116 0 186 -10t153 -30q51 -13 91 -20l-10 -273q-84 40 -175 60.5t-244 20.5q-132 0 -228.5 -60.5t-148.5 -174
t-52 -271.5t42 -282.5t128 -197t214 -72.5q153 0 255 38v305l-233 12v237h535zM876.5 1842q106.5 107 117.5 139l217 -131q-44 -57 -112 -122.5t-137.5 -116.5t-116.5 -67l-146 125q71 66 177.5 173z" />
    <glyph glyph-name="AEacute" unicode="&#x1fc;" horiz-adv-x="1939" 
d="M1082.5 1841q106.5 107 117.5 139l217 -131q-44 -57 -112 -122.5t-137.5 -116.5t-116.5 -67l-146 125q71 66 177.5 173zM1853 251v-251h-993v376h-448l-178 -376h-345l766 1522h1133v-244h-610v-374h468v-241h-468v-412h675zM860 598v726l-343 -726h343z" />
    <glyph glyph-name="aeacute" unicode="&#x1fd;" horiz-adv-x="1851" 
d="M986 1580q89 108 162 227l214 -174q-27 -63 -106.5 -145t-168 -150t-131.5 -87l-149 137q90 84 179 192zM1743 495h-674q9 -141 88.5 -210t215.5 -69q65 0 157.5 17.5t135.5 41.5l51 -177q-59 -48 -177 -81t-246 -33q-137 0 -242 45t-173 130q-82 -94 -184 -134.5
t-220 -40.5q-104 0 -189 39.5t-134.5 117.5t-49.5 189q0 104 57 183.5t156 123.5q81 36 201 52.5t235 16.5v61q0 59 -19.5 93t-62 49t-115.5 15q-55 0 -120 -13t-121.5 -32t-84.5 -36l-69 200q35 20 102.5 47t164.5 49.5t201 22.5q125 0 206 -26t127 -88q139 108 347 108
q124 0 224 -45t160.5 -145t62.5 -257q0 -144 -11 -214zM1465 712q0 109 -41 165.5t-133 56.5t-146.5 -60.5t-70.5 -205.5h390q1 15 1 44zM706.5 226.5q62.5 31.5 94.5 71.5q-38 99 -44 232q-68 1 -128.5 -11t-100.5 -30q-33 -14 -54 -28t-36.5 -41.5t-15.5 -72.5
q0 -75 44 -113.5t115 -38.5q63 0 125.5 31.5z" />
    <glyph glyph-name="Oslashacute" unicode="&#x1fe;" 
d="M776.5 1877q106.5 107 117.5 139l217 -131q-44 -57 -112 -122.5t-137.5 -116.5t-116.5 -67l-146 125q71 66 177.5 173zM1323.5 1328q84.5 -100 129 -238t44.5 -303q0 -268 -91.5 -447.5t-255 -267.5t-379.5 -88q-98 0 -187 23l-83 -227l-125 32l88 240
q-118 59 -201.5 163.5t-125.5 245.5t-39 308q5 256 97.5 425.5t253 253.5t372.5 90q90 3 178 -16l94 259l125 -32l-97 -268q118 -53 202.5 -153zM461.5 507q34.5 -113 100.5 -185l349 960q-47 14 -97 14q-111 0 -198 -55t-138 -175t-51 -308q0 -138 34.5 -251zM1070.5 358
q97.5 137 97.5 415q0 146 -36.5 261t-107.5 182l-354 -971q57 -24 128 -24q175 0 272.5 137z" />
    <glyph glyph-name="oslashacute" unicode="&#x1ff;" horiz-adv-x="1302" 
d="M1136.5 894q72.5 -150 69.5 -348q-2 -179 -75 -305.5t-200 -191.5t-290 -65q-65 0 -128 11l-76 -215l-125 32l78 220q-150 66 -222 211.5t-72 337.5q0 183 72 312.5t200 196t294 66.5q69 0 123 -10l78 221l125 -32l-80 -225q156 -66 228.5 -216zM435.5 425.5
q16.5 -74.5 49.5 -125.5l222 627q-30 7 -54 7q-234 0 -234 -348q0 -86 16.5 -160.5zM883 561q0 86 -17 160t-51 125l-225 -633q28 -9 62 -9q231 0 231 357zM552 1581q89 108 162 227l214 -174q-27 -63 -106.5 -145t-168 -150t-131.5 -87l-149 137q90 84 179 192z" />
    <glyph glyph-name="Scommaaccent" unicode="&#x218;" horiz-adv-x="1207" 
d="M514 -490q30 33 30 136q0 38 -20 74t-42 46v50l184 98q23 -5 48.5 -30.5t43 -68t17.5 -96.5q0 -74 -27 -134.5t-62.5 -98t-60.5 -46.5l-111 44v26zM197 329q73 -40 176 -68t216 -28q123 0 173 37.5t50 117.5q0 54 -25 91.5t-84.5 75.5t-185.5 100q-168 83 -273 194
t-105 279q0 144 70.5 235.5t190 133t270.5 41.5q130 0 236.5 -28t156.5 -60l-52 -247q-68 43 -148.5 70t-183.5 27q-121 0 -174.5 -40.5t-53.5 -115.5q0 -53 26.5 -91t78.5 -72.5t158 -90.5q144 -76 229.5 -136.5t137 -144.5t51.5 -201q0 -134 -65 -229.5t-183.5 -145
t-274.5 -49.5q-93 0 -187.5 14.5t-167 35.5t-102.5 40z" />
    <glyph glyph-name="scommaaccent" unicode="&#x219;" horiz-adv-x="1048" 
d="M427 -490q30 33 30 136q0 38 -20 74t-42 46v50l184 98q23 -5 48.5 -30.5t43 -68t17.5 -96.5q0 -74 -27 -134.5t-62.5 -98t-60.5 -46.5l-111 44v26zM218 267.5q52 -21.5 120.5 -37.5t135.5 -16q93 -1 136 21t43 74q0 48 -59.5 87t-187.5 81q-152 50 -219.5 136t-67.5 212
q0 106 58.5 180.5t162.5 112.5t239 38q109 0 195 -21t126 -44l-34 -240q-34 31 -109.5 54t-146.5 23q-102 0 -147.5 -21.5t-45.5 -70.5q0 -35 21 -59.5t67.5 -47t134.5 -52.5q117 -40 186.5 -87.5t101.5 -109t32 -146.5q0 -173 -118.5 -261.5t-328.5 -88.5q-79 0 -159 13
t-143.5 33.5t-95.5 41.5l32 232q19 -15 71 -36.5z" />
    <glyph glyph-name="uni021A" unicode="&#x21a;" horiz-adv-x="1250" 
d="M530 -490q30 33 30 136q0 38 -20 74t-42 46v50l184 98q23 -5 48.5 -30.5t43 -68t17.5 -96.5q0 -74 -27 -134.5t-62.5 -98t-60.5 -46.5l-111 44v26zM30 1278v244h1190v-244h-434v-1278h-320v1278h-436z" />
    <glyph glyph-name="uni021B" unicode="&#x21b;" horiz-adv-x="913" 
d="M357 -490q30 33 30 136q0 38 -20 74t-42 46v50l184 98q23 -5 48.5 -30.5t43 -68t17.5 -96.5q0 -74 -27 -134.5t-62.5 -98t-60.5 -46.5l-111 44v26zM211 924h-137v169q66 19 95.5 29.5t52.5 29t36 49.5q21 50 75 199h190v-260h309v-216h-309v-458q0 -114 12 -166t38 -66.5
t80 -14.5q42 0 96.5 14.5t80.5 33.5l38 -175q-47 -42 -140.5 -75t-201.5 -33q-115 0 -183.5 35.5t-100 113t-31.5 206.5v585z" />
    <glyph glyph-name="uni0237" unicode="&#x237;" horiz-adv-x="644" 
d="M-51 -296.5q39 -7.5 64 -7.5q61 0 95.5 28.5t50 94.5t15.5 182v1139h312v-1058q0 -308 -106.5 -448.5t-308.5 -140.5q-31 0 -94 8.5t-81 15.5v201q14 -7 53 -14.5z" />
    <glyph glyph-name="circumflex" unicode="&#x2c6;" horiz-adv-x="878" 
d="M329 1699h223l283 -372l-161 -90l-233 246l-242 -246l-156 89z" />
    <glyph glyph-name="caron" unicode="&#x2c7;" horiz-adv-x="834" 
d="M441 1453l233 246l161 -90l-283 -372h-223l-286 373l156 89z" />
    <glyph glyph-name="uni02C9" unicode="&#x2c9;" horiz-adv-x="701" 
d="M646 1973v-206h-591v206h591z" />
    <glyph glyph-name="breve" unicode="&#x2d8;" horiz-adv-x="815" 
d="M240 1685q4 -40 14 -74.5t47 -64.5t108 -30q69 0 106 30t48.5 65t15.5 74h193q4 -105 -40.5 -194t-129 -141t-194.5 -52q-115 0 -199 52t-126.5 140.5t-38.5 194.5h196z" />
    <glyph glyph-name="dotaccent" unicode="&#x2d9;" horiz-adv-x="489" 
d="M83 1571q28 43 74 68.5t97 25.5q82 0 131 -47.5t49 -122.5q0 -50 -27.5 -93.5t-73 -69t-97.5 -25.5q-51 0 -92 22t-65 61t-24 88q0 50 28 93z" />
    <glyph glyph-name="ring" unicode="&#x2da;" horiz-adv-x="767" 
d="M91.5 1765q49.5 64 128 93.5t169.5 29.5q157 0 246.5 -73t89.5 -209q0 -98 -47.5 -163.5t-126 -97t-171.5 -31.5q-105 0 -181 35t-116.5 99.5t-40.5 153.5q0 99 49.5 163zM496.5 1704q-45.5 38 -117.5 38q-67 0 -110 -32t-43 -103q0 -63 44 -102t113 -39q77 -1 118 29.5
t41 104.5q0 66 -45.5 104z" />
    <glyph glyph-name="ogonek" unicode="&#x2db;" horiz-adv-x="652" 
d="M124.5 -142q68.5 82 169.5 135l119 16l119 10q-98 -53 -166.5 -122.5t-68.5 -141.5q0 -48 30.5 -70.5t90.5 -22.5q31 0 63.5 6.5t56 13t29.5 8.5l9 -135q-45 -31 -112 -50.5t-146 -19.5q-66 0 -123 21.5t-93.5 64t-39.5 102.5q-6 103 62.5 185z" />
    <glyph glyph-name="tilde" unicode="&#x2dc;" horiz-adv-x="937" 
d="M145 1636q78 63 188 63q64 0 104 -20t83 -57q32 -27 54.5 -40t52.5 -13q45 0 82 31t73 80l126 -108q-36 -104 -111.5 -166t-186.5 -62q-58 0 -95.5 19t-81.5 56q-37 30 -62 44t-60 14q-39 0 -79.5 -30t-74.5 -72l-125 98q35 100 113 163z" />
    <glyph glyph-name="hungarumlaut" unicode="&#x2dd;" horiz-adv-x="1045" 
d="M327 1821l195 -137q-32 -52 -96 -128.5t-131 -142.5t-111 -92l-127 93zM848 1817l196 -136q-34 -53 -99.5 -130.5t-133.5 -143t-113 -86.5l-122 93z" />
    <glyph glyph-name="uni0326" unicode="&#x326;" horiz-adv-x="0" 
d="M-328 -490q30 33 30 136q0 38 -20 74t-42 46v50l184 98q23 -5 48.5 -30.5t43 -68t17.5 -96.5q0 -74 -27 -134.5t-62.5 -98t-60.5 -46.5l-111 44v26z" />
    <glyph glyph-name="uni0394" unicode="&#x394;" horiz-adv-x="1622" 
d="M765 1508h32l747 -1481l-16 -27h-1436l-14 22zM785 986l-332 -734h684z" />
    <glyph glyph-name="uni03A9" unicode="&#x3a9;" horiz-adv-x="1834" 
d="M1665 218v-218h-606v179q63 38 118.5 126.5t90.5 220.5t35 291q0 172 -53 286t-140 167.5t-192 53.5q-112 0 -203 -53t-145.5 -167t-54.5 -287q0 -157 41.5 -288.5t104 -221t127.5 -128.5v-179h-619v218h305q-77 66 -143.5 166t-106.5 220t-38 240q5 243 104.5 399.5
t263 229t364.5 72.5q216 0 376 -74t249 -226t89 -380q0 -127 -36 -250t-99.5 -226t-144.5 -171h313z" />
    <glyph glyph-name="uni03BC" unicode="&#x3bc;" horiz-adv-x="1404" 
d="M1337 87q-10 -15 -45 -40t-90 -45t-119 -20q-145 0 -151 138q-38 -55 -102.5 -95.5t-161.5 -40.5q-79 0 -136.5 15.5t-97.5 52.5l29 -423h-282v1511h312v-656q0 -92 20 -147t64.5 -80t119.5 -25q43 0 90.5 19.5t81.5 48.5v840h312v-859q0 -76 43 -76q13 0 35 6t47 21z
" />
    <glyph glyph-name="pi" unicode="&#x3c0;" horiz-adv-x="1600" 
d="M1308.5 224.5q32.5 22.5 53.5 46.5t55 70l115 -122q-23 -62 -77.5 -117.5t-137.5 -90.5t-185 -35q-114 0 -168.5 69.5t-54.5 186.5q0 15 2 47l54 608h-272l-25 -459q-6 -110 -24 -177.5t-47.5 -109.5t-80.5 -89q-33 -29 -79.5 -49.5t-102.5 -26.5l-176 138q15 4 43.5 18
t55.5 34q70 54 99 128.5t41 192.5l42 400h-65q-47 0 -81.5 -12.5t-54 -27.5t-51.5 -43l-120 77q2 27 16 69.5t36 73.5q44 58 110 87t180 29h809q60 0 86.5 16.5t40.5 58.5h194q-6 -118 -41 -190t-102.5 -105t-173.5 -33h-16l-25 -558q-3 -62 13 -94.5t46 -32.5
q36 0 68.5 22.5z" />
    <glyph glyph-name="uni1E02" unicode="&#x1e02;" horiz-adv-x="1422" 
d="M556.5 1869.5q25.5 41.5 69.5 65.5t95 24q82 0 126.5 -44.5t44.5 -119.5q0 -51 -25 -92t-68.5 -65t-95.5 -24q-77 0 -124.5 44.5t-47.5 119.5q0 50 25.5 91.5zM342 1522q41 0 143 6q139 9 215 9q188 0 312.5 -48t184.5 -134.5t60 -202.5q0 -83 -27 -154t-78.5 -120.5
t-122.5 -68.5q90 -10 160 -55.5t109.5 -121t39.5 -171.5q0 -225 -142 -350t-481 -125q-145 0 -366 14h-161v1523zM893 940q61 56 61 185q0 93 -73.5 136t-214.5 43q-40 0 -94 -3t-69 -10v-398q27 -5 87 -7t104 -2q138 0 199 56zM944.5 261q71.5 55 71.5 186
q0 117 -70.5 170.5t-222.5 53.5q-58 0 -129 -2t-91 -5v-432q19 -15 84.5 -20.5t136.5 -5.5q149 0 220.5 55z" />
    <glyph glyph-name="uni1E03" unicode="&#x1e03;" horiz-adv-x="1340" 
d="M1019 1095.5q103 -60.5 164.5 -183t61.5 -300.5q0 -187 -75 -331.5t-210.5 -224t-310.5 -79.5q-96 0 -200.5 15.5t-183.5 36.5t-97 35v1597h312v-437l-8 -188q54 51 130 85.5t189 34.5q125 0 228 -60.5zM861 849.5q-57 73.5 -166 73.5q-62 0 -119.5 -20t-95.5 -51v-620
q36 -39 176 -39q76 0 135 47.5t93 138.5t34 216q0 181 -57 254.5zM672 1571q28 43 74 68.5t97 25.5q82 0 131 -47.5t49 -122.5q0 -50 -27.5 -93.5t-73 -69t-97.5 -25.5q-51 0 -92 22t-65 61t-24 88q0 50 28 93z" />
    <glyph glyph-name="uni1E0A" unicode="&#x1e0a;" horiz-adv-x="1554" 
d="M616.5 1868.5q25.5 41.5 69.5 65.5t95 24q82 0 126.5 -44.5t44.5 -119.5q0 -51 -25 -92t-68.5 -65t-95.5 -24q-77 0 -124.5 44.5t-47.5 119.5q0 50 25.5 91.5zM339 1522q32 0 128 6q134 10 241 10q375 0 560.5 -190t185.5 -547q0 -255 -93 -439t-264.5 -281t-403.5 -97
q-72 0 -214 9q-87 7 -137 7h-154v1522h151zM1010.5 361.5q107.5 131.5 107.5 405.5q0 196 -47.5 312.5t-143.5 167.5t-249 51q-53 0 -129 -10l-40 -4v-1038q68 -18 204 -18q190 2 297.5 133.5z" />
    <glyph glyph-name="uni1E0B" unicode="&#x1e0b;" horiz-adv-x="1339" 
d="M1171 1662v-1678h-212q-38 0 -56.5 11.5t-18.5 46.5v77q-55 -56 -133.5 -95.5t-201.5 -39.5q-125 0 -228 61.5t-164.5 185.5t-61.5 302q0 187 72.5 328t204 218t303.5 77q102 0 187 -32l-3 100v438h312zM479.5 301q57.5 -74 165.5 -74q61 0 118.5 17t95.5 43v615
q-28 19 -71 25.5t-104 6.5q-77 0 -136 -43t-92.5 -129t-33.5 -211q0 -176 57.5 -250zM256 1571q28 43 74 68.5t97 25.5q82 0 131 -47.5t49 -122.5q0 -50 -27.5 -93.5t-73 -69t-97.5 -25.5q-51 0 -92 22t-65 61t-24 88q0 50 28 93z" />
    <glyph glyph-name="uni1E1E" unicode="&#x1e1e;" horiz-adv-x="1145" 
d="M530.5 1869.5q25.5 41.5 69.5 65.5t95 24q82 0 126.5 -44.5t44.5 -119.5q0 -51 -25 -92t-68.5 -65t-95.5 -24q-77 0 -124.5 44.5t-47.5 119.5q0 50 25.5 91.5zM1111 1522v-244h-601v-399h442v-245h-442v-634h-322v1522h923z" />
    <glyph glyph-name="uni1E1F" unicode="&#x1e1f;" horiz-adv-x="858" 
d="M157 1905q28 43 74 68.5t97 25.5q82 0 131 -47.5t49 -122.5q0 -50 -27.5 -93.5t-73 -69t-97.5 -25.5q-51 0 -92 22t-65 61t-24 88q0 50 28 93zM82 924v182l155 34v109q0 157 62 254t158.5 138.5t205.5 41.5q59 0 119.5 -7.5t82.5 -14.5v-222q-50 24 -156 24
q-73 0 -116.5 -53t-43.5 -154v-116h266v-216h-266v-924h-312v924h-155z" />
    <glyph glyph-name="uni1E20" unicode="&#x1e20;" horiz-adv-x="1494" 
d="M1372 820v-730q-20 -1 -43 -8t-64 -21q-101 -35 -197.5 -56t-240.5 -21q-228 0 -392 94.5t-249.5 268t-85.5 406.5q0 264 98.5 440t269.5 260.5t391 84.5q116 0 186 -10t153 -30q51 -13 91 -20l-10 -273q-84 40 -175 60.5t-244 20.5q-132 0 -228.5 -60.5t-148.5 -174
t-52 -271.5t42 -282.5t128 -197t214 -72.5q153 0 255 38v305l-233 12v237h535zM1140 1893v-206h-591v206h591z" />
    <glyph glyph-name="uni1E21" unicode="&#x1e21;" horiz-adv-x="1305" 
d="M1288 914h-189q20 -58 20 -130q0 -183 -132.5 -279t-374.5 -96q-56 0 -99 7q-21 -17 -32 -41.5t-11 -51.5q0 -48 30 -64t105 -16h190q252 0 345.5 -97.5t93.5 -247.5q0 -128 -81.5 -222t-216.5 -143t-291 -49q-265 0 -409.5 85.5t-144.5 247.5q0 79 48.5 140.5
t127.5 96.5q-48 25 -70.5 71t-22.5 99q0 68 42 131t140 103q-109 47 -171.5 130.5t-62.5 186.5q0 196 134 288.5t376 92.5q221 0 345 -83q33 29 79 48t105 19h127v-226zM769.5 638q54.5 38 54.5 137q0 93 -48.5 140.5t-144.5 47.5q-97 0 -152.5 -41.5t-55.5 -142.5
q0 -84 50 -131.5t144 -47.5q98 0 152.5 38zM505 0q-22 0 -62 2q-42 -38 -42 -116q0 -94 58.5 -156t185.5 -62q132 0 206.5 40.5t74.5 127.5q0 59 -18 93.5t-74 52.5t-166 18h-163zM929 1626v-206h-591v206h591z" />
    <glyph glyph-name="uni1E40" unicode="&#x1e40;" horiz-adv-x="1886" 
d="M809.5 1868.5q25.5 41.5 69.5 65.5t95 24q82 0 126.5 -44.5t44.5 -119.5q0 -51 -25 -92t-68.5 -65t-95.5 -24q-77 0 -124.5 44.5t-47.5 119.5q0 50 25.5 91.5zM679 1522l203 -800l77 -336l58 336l183 800h434l182 -1522h-312l-75 816l-27 466l-112 -466l-218 -831h-252
l-241 831l-113 466l-36 -466l-65 -816l-295 -1l162 1523h447z" />
    <glyph glyph-name="uni1E41" unicode="&#x1e41;" horiz-adv-x="2047" 
d="M1720.5 1117q80.5 -43 122.5 -140.5t42 -259.5v-717h-312v649q0 95 -13 147.5t-46.5 76t-97.5 23.5q-58 0 -122.5 -24t-109.5 -60q4 -44 4 -105v-707h-312v648q0 94 -13.5 147t-47 77t-95.5 24q-49 0 -117 -22t-117 -65v-809h-312v1140h283l6 -122q69 52 172 95.5
t199 46.5q106 4 179 -29.5t115 -108.5q67 52 174 95t218 43q120 0 200.5 -43zM859 1570q28 43 74 68.5t97 25.5q82 0 131 -47.5t49 -122.5q0 -50 -27.5 -93.5t-73 -69t-97.5 -25.5q-51 0 -92 22t-65 61t-24 88q0 50 28 93z" />
    <glyph glyph-name="uni1E44" unicode="&#x1e44;" horiz-adv-x="1620" 
d="M1432 1522v-1522h-319l-543 861l-120 243l34 -363v-741h-296v1522h295l567 -895l115 -228l-29 366v757h296zM660.5 1868.5q25.5 41.5 69.5 65.5t95 24q82 0 126.5 -44.5t44.5 -119.5q0 -51 -25 -92t-68.5 -65t-95.5 -24q-77 0 -124.5 44.5t-47.5 119.5q0 50 25.5 91.5z
" />
    <glyph glyph-name="uni1E56" unicode="&#x1e56;" horiz-adv-x="1359" 
d="M597.5 1869.5q25.5 41.5 69.5 65.5t95 24q82 0 126.5 -44.5t44.5 -119.5q0 -51 -25 -92t-68.5 -65t-95.5 -24q-77 0 -124.5 44.5t-47.5 119.5q0 50 25.5 91.5zM284 1522q91 0 241 8q140 8 208 8q271 0 413.5 -126t142.5 -399q0 -174 -70.5 -298t-207 -189t-331.5 -65
q-104 0 -174 2v-463h-318v1522h96zM889.5 773q83.5 71 83.5 244q0 145 -78 220.5t-226 69.5q-58 -2 -94.5 -4.5t-68.5 -9.5v-583q65 -8 166 -8q134 0 217.5 71z" />
    <glyph glyph-name="uni1E57" unicode="&#x1e57;" horiz-adv-x="1340" 
d="M1019 1095.5q103 -60.5 164.5 -183t61.5 -300.5q0 -187 -72.5 -329.5t-204 -220.5t-303.5 -78q-102 0 -189 32l4 -155v-367h-312v1646h291v-116q55 55 133 93.5t199 38.5q125 0 228 -60.5zM861 849.5q-57 73.5 -166 73.5q-62 0 -119.5 -20t-95.5 -51v-603
q29 -26 73.5 -36t102.5 -10q76 0 135 46t93 135t34 211q0 181 -57 254.5zM620 1570q28 43 74 68.5t97 25.5q82 0 131 -47.5t49 -122.5q0 -50 -27.5 -93.5t-73 -69t-97.5 -25.5q-51 0 -92 22t-65 61t-24 88q0 50 28 93z" />
    <glyph glyph-name="uni1E60" unicode="&#x1e60;" horiz-adv-x="1207" 
d="M499.5 1868.5q25.5 41.5 69.5 65.5t95 24q82 0 126.5 -44.5t44.5 -119.5q0 -51 -25 -92t-68.5 -65t-95.5 -24q-77 0 -124.5 44.5t-47.5 119.5q0 50 25.5 91.5zM197 329q73 -40 176 -68t216 -28q123 0 173 37.5t50 117.5q0 54 -25 91.5t-84.5 75.5t-185.5 100
q-168 83 -273 194t-105 279q0 144 70.5 235.5t190 133t270.5 41.5q130 0 236.5 -28t156.5 -60l-52 -247q-68 43 -148.5 70t-183.5 27q-121 0 -174.5 -40.5t-53.5 -115.5q0 -53 26.5 -91t78.5 -72.5t158 -90.5q144 -76 229.5 -136.5t137 -144.5t51.5 -201q0 -134 -65 -229.5
t-183.5 -145t-274.5 -49.5q-93 0 -187.5 14.5t-167 35.5t-102.5 40z" />
    <glyph glyph-name="uni1E61" unicode="&#x1e61;" horiz-adv-x="1048" 
d="M218 267.5q52 -21.5 120.5 -37.5t135.5 -16q93 -1 136 21t43 74q0 48 -59.5 87t-187.5 81q-152 50 -219.5 136t-67.5 212q0 106 58.5 180.5t162.5 112.5t239 38q109 0 195 -21t126 -44l-34 -240q-34 31 -109.5 54t-146.5 23q-102 0 -147.5 -21.5t-45.5 -70.5
q0 -35 21 -59.5t67.5 -47t134.5 -52.5q117 -40 186.5 -87.5t101.5 -109t32 -146.5q0 -173 -118.5 -261.5t-328.5 -88.5q-79 0 -159 13t-143.5 33.5t-95.5 41.5l32 232q19 -15 71 -36.5zM372 1570q28 43 74 68.5t97 25.5q82 0 131 -47.5t49 -122.5q0 -50 -27.5 -93.5t-73 -69
t-97.5 -25.5q-51 0 -92 22t-65 61t-24 88q0 50 28 93z" />
    <glyph glyph-name="uni1E6A" unicode="&#x1e6a;" horiz-adv-x="1250" 
d="M471.5 1868.5q25.5 41.5 69.5 65.5t95 24q82 0 126.5 -44.5t44.5 -119.5q0 -51 -25 -92t-68.5 -65t-95.5 -24q-77 0 -124.5 44.5t-47.5 119.5q0 50 25.5 91.5zM30 1278v244h1190v-244h-434v-1278h-320v1278h-436z" />
    <glyph glyph-name="uni1E6B" unicode="&#x1e6b;" horiz-adv-x="913" 
d="M211 924h-137v169q66 19 95.5 29.5t52.5 29t36 49.5q21 50 75 199h190v-260h309v-216h-309v-458q0 -114 12 -166t38 -66.5t80 -14.5q42 0 96.5 14.5t80.5 33.5l38 -175q-47 -42 -140.5 -75t-201.5 -33q-115 0 -183.5 35.5t-100 113t-31.5 206.5v585zM267 1740
q28 43 74 68.5t97 25.5q82 0 131 -47.5t49 -122.5q0 -50 -27.5 -93.5t-73 -69t-97.5 -25.5q-51 0 -92 22t-65 61t-24 88q0 50 28 93z" />
    <glyph glyph-name="Wgrave" unicode="&#x1e80;" horiz-adv-x="1973" 
d="M848.5 1610q-71.5 52 -141.5 119t-109 120l217 131q11 -32 94 -115t201 -197l-146 -125q-44 15 -115.5 67zM1968 1522l-398 -1538h-326l-214 850l-49 328l-45 -329l-219 -849h-304l-408 1538h319l188 -894l53 -370l61 370l220 894h284l234 -894l62 -354l51 354l173 894
h318z" />
    <glyph glyph-name="wgrave" unicode="&#x1e81;" horiz-adv-x="1757" 
d="M1739 1140l-356 -1156h-278l-182 607l-44 218l-45 -218l-179 -607h-289l-348 1156h312l142 -551l52 -276l57 275l165 552h291l165 -551l52 -274l51 271l132 554h302zM724 1343q-86 66 -165 147t-110 148l215 174q61 -104 156 -220t185 -199l-149 -137q-46 21 -132 87z
" />
    <glyph glyph-name="Wacute" unicode="&#x1e82;" horiz-adv-x="1973" 
d="M1001.5 1841q106.5 107 117.5 139l217 -131q-44 -57 -112 -122.5t-137.5 -116.5t-116.5 -67l-146 125q71 66 177.5 173zM1968 1522l-398 -1538h-326l-214 850l-49 328l-45 -329l-219 -849h-304l-408 1538h319l188 -894l53 -370l61 370l220 894h284l234 -894l62 -354
l51 354l173 894h318z" />
    <glyph glyph-name="wacute" unicode="&#x1e83;" horiz-adv-x="1757" 
d="M930 1585q89 108 162 227l214 -174q-27 -63 -106.5 -145t-168 -150t-131.5 -87l-149 137q90 84 179 192zM1739 1140l-356 -1156h-278l-182 607l-44 218l-45 -218l-179 -607h-289l-348 1156h312l142 -551l52 -276l57 275l165 552h291l165 -551l52 -274l51 271l132 554h302
z" />
    <glyph glyph-name="Wdieresis" unicode="&#x1e84;" horiz-adv-x="1973" 
d="M552 1870q25 42 68 66t94 24q81 0 124.5 -44.5t43.5 -119.5q0 -51 -24.5 -92.5t-67 -65.5t-94.5 -24q-77 0 -123 45t-46 119q0 50 25 92zM1076 1870q25 42 68 66t94 24q81 0 124 -44.5t43 -119.5q0 -51 -24 -92.5t-66.5 -65.5t-95.5 -24q-76 0 -122 45t-46 119
q0 50 25 92zM1968 1522l-398 -1538h-326l-214 850l-49 328l-45 -329l-219 -849h-304l-408 1538h319l188 -894l53 -370l61 370l220 894h284l234 -894l62 -354l51 354l173 894h318z" />
    <glyph glyph-name="wdieresis" unicode="&#x1e85;" horiz-adv-x="1757" 
d="M492 1573.5q25 42.5 67.5 68t92.5 25.5q80 0 122 -46.5t42 -121.5q0 -50 -24 -92.5t-66 -67.5t-93 -25q-75 0 -120.5 47t-45.5 121q0 49 25 91.5zM977 1573.5q25 42.5 67.5 68t92.5 25.5q80 0 122 -46.5t42 -121.5q0 -50 -24 -92.5t-66 -67.5t-93 -25q-75 0 -120.5 47
t-45.5 121q0 49 25 91.5zM1739 1140l-356 -1156h-278l-182 607l-44 218l-45 -218l-179 -607h-289l-348 1156h312l142 -551l52 -276l57 275l165 552h291l165 -551l52 -274l51 271l132 554h302z" />
    <glyph glyph-name="uni1E8E" unicode="&#x1e8e;" horiz-adv-x="1241" 
d="M780 533v-533h-319v535l-511 987h350l280 -590l44 -113l38 113l288 590h341zM489.5 1868.5q25.5 41.5 69.5 65.5t95 24q82 0 126.5 -44.5t44.5 -119.5q0 -51 -25 -92t-68.5 -65t-95.5 -24q-77 0 -124.5 44.5t-47.5 119.5q0 50 25.5 91.5z" />
    <glyph glyph-name="uni1E8F" unicode="&#x1e8f;" horiz-adv-x="1188" 
d="M1162 1140l-355 -1170q-60 -196 -160 -308t-223 -148q-26 -8 -76.5 -14.5t-75.5 -6.5q-26 0 -85 6.5t-67 12.5v253q18 -6 57.5 -13t55.5 -7q71 0 122.5 13t102 68.5t80.5 173.5h-134l-387 1140h338l173 -609l83 -329l77 329l139 609h335zM446 1570q28 43 74 68.5t97 25.5
q82 0 131 -47.5t49 -122.5q0 -50 -27.5 -93.5t-73 -69t-97.5 -25.5q-51 0 -92 22t-65 61t-24 88q0 50 28 93z" />
    <glyph glyph-name="uni1E9E" unicode="&#x1e9e;" horiz-adv-x="1517" 
d="M1294.5 850q85.5 -48 144.5 -143t59 -227q0 -148 -64 -262t-181.5 -177.5t-274.5 -63.5q-145 0 -233 21.5t-156 58.5l87 229q40 -29 105 -52t136 -23q61 0 115.5 26.5t89.5 82t35 137.5q0 96 -40.5 155.5t-128.5 87.5t-234 28l5 166l283 370q-34 20 -83.5 31t-110.5 11
q-195 0 -300 -110.5t-105 -327.5v-868h-340v753q0 244 84.5 420.5t250.5 270.5t404 94q111 0 199.5 -17.5t195.5 -47.5q59 -17 90 -24t57 -7l-1 -245l-253 -299q79 0 164.5 -48z" />
    <glyph glyph-name="Ygrave" unicode="&#x1ef2;" horiz-adv-x="1241" 
d="M780 533v-533h-319v535l-511 987h350l280 -590l44 -113l38 113l288 590h341zM521.5 1610q-71.5 52 -141.5 119t-109 120l217 131q11 -32 94 -115t201 -197l-146 -125q-44 15 -115.5 67z" />
    <glyph glyph-name="ygrave" unicode="&#x1ef3;" horiz-adv-x="1188" 
d="M1162 1140l-355 -1170q-60 -196 -160 -308t-223 -148q-26 -8 -76.5 -14.5t-75.5 -6.5q-26 0 -85 6.5t-67 12.5v253q18 -6 57.5 -13t55.5 -7q71 0 122.5 13t102 68.5t80.5 173.5h-134l-387 1140h338l173 -609l83 -329l77 329l139 609h335zM452 1338q-86 66 -165 147
t-110 148l215 174q61 -104 156 -220t185 -199l-149 -137q-46 21 -132 87z" />
    <glyph glyph-name="endash" unicode="&#x2013;" horiz-adv-x="1702" 
d="M1457 889v-245h-1212v245h1212z" />
    <glyph glyph-name="emdash" unicode="&#x2014;" horiz-adv-x="2413" 
d="M2168 889v-245h-1923v245h1923z" />
    <glyph glyph-name="quoteleft" unicode="&#x2018;" horiz-adv-x="560" 
d="M128.5 1489.5q34.5 92.5 81.5 154t88 92.5l130 -83v-28q-31 -36 -50.5 -115t-19.5 -152q0 -53 13.5 -100.5t34.5 -79.5t42 -43v-71l-169 -124q-50 18 -92.5 65.5t-67.5 119.5t-25 161q0 111 34.5 203.5z" />
    <glyph glyph-name="quoteright" unicode="&#x2019;" horiz-adv-x="560" 
d="M114 1051q31 36 50 115t19 153q0 53 -13.5 100t-34.5 79t-41 43v71l169 124q50 -18 92 -65.5t67.5 -119.5t25.5 -161q0 -111 -34.5 -203t-81.5 -153.5t-88 -93.5l-130 83v28z" />
    <glyph glyph-name="quotesinglbase" unicode="&#x201a;" horiz-adv-x="560" 
d="M114 -422q31 36 50 115t19 153q0 53 -13.5 100t-34.5 79t-41 43v71l169 124q50 -18 92 -65.5t67.5 -119.5t25.5 -161q0 -111 -34.5 -203t-81.5 -153.5t-88 -93.5l-130 83v28z" />
    <glyph glyph-name="quotereversed" unicode="&#x201b;" horiz-adv-x="560" 
d="M448 1541q-21 -11 -42 -43t-34.5 -79t-13.5 -100q0 -74 19.5 -153t50.5 -115v-28l-130 -83q-41 32 -88 93.5t-81.5 153.5t-34.5 203q0 89 25 161.5t67.5 119.5t92.5 65l169 -124v-71z" />
    <glyph glyph-name="quotedblleft" unicode="&#x201c;" horiz-adv-x="1108" 
d="M128.5 1489.5q34.5 92.5 81.5 154t88 92.5l130 -83v-28q-31 -36 -50.5 -115t-19.5 -152q0 -53 13.5 -100.5t34.5 -79.5t42 -43v-71l-169 -124q-50 18 -92.5 65.5t-67.5 119.5t-25 161q0 111 34.5 203.5zM676.5 1489.5q34.5 92.5 81.5 154t88 92.5l130 -83v-28
q-31 -36 -50.5 -115t-19.5 -152q0 -53 13.5 -100.5t34.5 -79.5t42 -43v-71l-169 -124q-50 18 -92.5 65.5t-67.5 119.5t-25 161q0 111 34.5 203.5z" />
    <glyph glyph-name="quotedblright" unicode="&#x201d;" horiz-adv-x="1108" 
d="M114 1051q31 36 50 115t19 153q0 53 -13.5 100t-34.5 79t-41 43v71l169 124q50 -18 92 -65.5t67.5 -119.5t25.5 -161q0 -111 -34.5 -203t-81.5 -153.5t-88 -93.5l-130 83v28zM662 1051q31 36 50 115t19 153q0 53 -13.5 100t-34.5 79t-41 43v71l169 124q50 -18 92 -65.5
t67.5 -119.5t25.5 -161q0 -111 -34.5 -203t-81.5 -153.5t-88 -93.5l-130 83v28z" />
    <glyph glyph-name="quotedblbase" unicode="&#x201e;" horiz-adv-x="1108" 
d="M114 -410q31 36 50 115t19 153q0 53 -13.5 100t-34.5 79t-41 43v71l169 124q50 -18 92 -65.5t67.5 -119.5t25.5 -161q0 -111 -34.5 -203t-81.5 -153.5t-88 -93.5l-130 83v28zM662 -410q31 36 50 115t19 153q0 53 -13.5 100t-34.5 79t-41 43v71l169 124q50 -18 92 -65.5
t67.5 -119.5t25.5 -161q0 -111 -34.5 -203t-81.5 -153.5t-88 -93.5l-130 83v28z" />
    <glyph glyph-name="dagger" unicode="&#x2020;" horiz-adv-x="1036" 
d="M107 1076l1 212l282 -2v372h256v-372l283 2v-212l-283 1l-12 -877h-228l-16 877z" />
    <glyph glyph-name="daggerdbl" unicode="&#x2021;" horiz-adv-x="1036" 
d="M107 427v212h283v438l-283 -1l1 212l282 -1v371h255v-371l284 1v-212l-284 1v-438h283v-212l-283 1l-21 -784h-219l-15 784z" />
    <glyph glyph-name="bullet" unicode="&#x2022;" horiz-adv-x="905" 
d="M225 855.5q38 63.5 102 101.5t137 38q72 0 130 -32.5t91 -90t33 -128.5q0 -73 -37.5 -137t-101 -102t-136.5 -38q-72 0 -130.5 33.5t-92 91t-33.5 127.5q0 73 38 136.5z" />
    <glyph glyph-name="ellipsis" unicode="&#x2026;" horiz-adv-x="1903" 
d="M154 276.5q28 48.5 75 77.5t101 29q57 0 99 -25.5t64 -70.5t22 -100q0 -56 -27 -104t-73.5 -76.5t-101.5 -28.5q-53 0 -96 25.5t-67 70t-24 99.5t28 103.5zM785 276.5q28 48.5 75 77.5t101 29q57 0 99 -25.5t64 -70.5t22 -100q0 -56 -27 -104t-73.5 -76.5t-101.5 -28.5
q-53 0 -96 25.5t-67 70t-24 99.5t28 103.5zM1416 276.5q28 48.5 75 77.5t101 29q57 0 99 -25.5t64 -70.5t22 -100q0 -56 -27 -104t-73.5 -76.5t-101.5 -28.5q-53 0 -96 25.5t-67 70t-24 99.5t28 103.5z" />
    <glyph glyph-name="perthousand" unicode="&#x2030;" horiz-adv-x="3111" 
d="M1514 1530l-593 -1530h-246l592 1530h247zM163 1313.5q60 102.5 159.5 156t214.5 53.5q131 0 218.5 -58.5t129 -158.5t41.5 -228q0 -140 -60 -242t-158.5 -155.5t-213.5 -53.5q-127 0 -215 59t-132 159.5t-44 225.5q0 140 60 242.5zM634.5 1257.5q-42.5 69.5 -118.5 69.5
q-79 0 -121.5 -65.5t-42.5 -181.5q0 -115 42.5 -185.5t117.5 -70.5q79 0 122 65t43 181q0 118 -42.5 187.5zM1321 699.5q60 102.5 159.5 156t215.5 53.5q131 0 218 -58.5t129 -159t42 -227.5q0 -140 -60 -242.5t-158.5 -156t-212.5 -53.5q-127 0 -216 59t-133 159.5
t-44 225.5q0 141 60 243.5zM2244 699.5q60 102.5 159.5 156t215.5 53.5q131 0 218 -58.5t129 -159t42 -227.5q0 -140 -60 -242.5t-158.5 -156t-212.5 -53.5q-127 0 -216 59t-133 159.5t-44 225.5q0 141 60 243.5zM1792.5 643q-42.5 70 -117.5 70q-79 0 -122 -65.5
t-43 -181.5q0 -115 43 -185.5t118 -70.5q79 0 121.5 65t42.5 181q0 117 -42.5 187zM2715.5 643q-42.5 70 -117.5 70q-79 0 -122 -65.5t-43 -181.5q0 -115 43 -185.5t118 -70.5q79 0 121.5 65t42.5 181q0 117 -42.5 187z" />
    <glyph glyph-name="minute" unicode="&#x2032;" horiz-adv-x="692" 
d="M571 1826l-176 -636h-234l109 636h301z" />
    <glyph glyph-name="second" unicode="&#x2033;" horiz-adv-x="1163" 
d="M571 1826l-176 -636h-234l109 636h301zM1042 1826l-176 -636h-234l109 636h301z" />
    <glyph glyph-name="guilsinglleft" unicode="&#x2039;" horiz-adv-x="1214" 
d="M535 615l431 -325l-75 -214l-656 416v243l656 422l75 -216z" />
    <glyph glyph-name="guilsinglright" unicode="&#x203a;" horiz-adv-x="1214" 
d="M969 735v-243l-656 -416l-75 214l431 325l-431 326l75 216z" />
    <glyph glyph-name="exclamdbl" unicode="&#x203c;" horiz-adv-x="1270" 
d="M498 1780l-34 -1225h-267l-46 1225h347zM154 278q28 48 74.5 76.5t100.5 28.5q57 0 99.5 -25.5t64.5 -69.5t22 -99q0 -56 -27 -104.5t-74 -77.5t-102 -29q-53 0 -95.5 26t-66.5 71t-24 100t28 103zM1127 1780l-34 -1225h-267l-46 1225h347zM783 278q28 48 74.5 76.5
t100.5 28.5q57 0 99.5 -25.5t64.5 -69.5t22 -99q0 -56 -27 -104.5t-74 -77.5t-102 -29q-53 0 -95.5 26t-66.5 71t-24 100t28 103z" />
    <glyph glyph-name="fraction" unicode="&#x2044;" horiz-adv-x="1036" 
d="M666 1530h243l-542 -1530h-240z" />
    <glyph glyph-name="uni2074" unicode="&#x2074;" horiz-adv-x="1181" 
d="M1106 858h-164v-272h-256l1 272h-546l-52 94l498 889h68l187 -92l-440 -699h285l25 260h230v-260h164v-192z" />
    <glyph glyph-name="colonmonetary" unicode="&#x20a1;" horiz-adv-x="1438" 
d="M718 1815h117l-19 -282q55 5 101 5q24 0 36 -1l19 278h117l-19 -286q55 -7 94.5 -16t94.5 -24q20 -7 43 -12l-46 -312q-78 58 -205 75l-65 -973q89 5 174 34t122 63v-300q-68 -30 -142.5 -51.5t-172.5 -26.5l-22 -340h-117l22 340q-68 3 -136 14l-23 -354h-117l25 380
q-244 72 -372.5 261t-128.5 470q0 210 76.5 368t211.5 256t312 135zM934 1246q-73 -1 -138 -18l-62 -924q62 -24 135 -33zM675 1179q-96 -58 -149 -160t-53 -240q0 -133 37.5 -236t111.5 -169z" />
    <glyph glyph-name="franc" unicode="&#x20a3;" horiz-adv-x="1266" 
d="M225 438v1084h939v-269h-579v-391h450v-266h-450v-158h270v-221h-270v-217h-360v217h-170v221h170z" />
    <glyph glyph-name="lira" unicode="&#x20a4;" horiz-adv-x="1596" 
d="M408 994v43q0 148 68.5 261.5t197 176.5t304.5 63q236 0 380 -106l-144 -257q-36 34 -99 59.5t-138 25.5q-74 0 -120.5 -22t-71.5 -80t-25 -164h315v-150h-315v-118h293v-150h-294q-3 -114 -20 -190t-59 -114q20 -5 46.5 -12.5t40.5 -11.5q60 -19 105.5 -28.5t101.5 -9.5
q111 0 166 43.5t55 114.5q0 30 -12.5 59t-30.5 50t-32 27l258 116q27 -16 62.5 -53.5t62.5 -95.5t27 -129q0 -167 -117.5 -262.5t-354.5 -95.5q-123 0 -220.5 19t-209.5 51q-56 17 -89.5 24.5t-59.5 7.5q-35 -33 -97.5 -62.5t-116.5 -29.5q-59 0 -105.5 29t-46.5 89
q0 54 37.5 95.5t98 65t128.5 28.5q31 33 31 226v49h-199v150h199v118h-177v150h177z" />
    <glyph glyph-name="uni20A6" unicode="&#x20a6;" horiz-adv-x="1716" 
d="M266 1117v405h292l244 -405h373v405h314v-405h194v-147h-194v-415h165v-147h-165v-408h-309l-240 408h-361v-408h-313v408h-199v147h199v415h-178v147h178zM536 1117h1l-1 1v-1zM853 555l-169 288l-68 127h-64l27 -253v-162h274zM1131 555h67l-23 235v180h-285l185 -308z
M1213 399l-1 9h-3z" />
    <glyph glyph-name="peseta" unicode="&#x20a7;" horiz-adv-x="1519" 
d="M197 1065v457h173q60 0 169 7q164 9 242 9q274 0 423.5 -110.5t163.5 -362.5h143v-147h-146q-26 -225 -183 -342.5t-434 -117.5q-92 0 -164 2q-7 1 -20 1v-461h-367v918h-164v147h164zM1012 1065q-13 109 -78.5 167t-187.5 58q-93 0 -182 -13v-212h448zM922 760
q68 50 87 158h-445v-200q85 -8 185 -8q105 0 173 50z" />
    <glyph glyph-name="uni20A9" unicode="&#x20a9;" horiz-adv-x="2004" 
d="M1546 -7h-330l-85 412h-263l-81 -412h-328l-90 412h-312v194h270l-38 170h-232v194h190l-122 559h294l94 -559h241l121 559h267l120 -559h246l96 559h275l-122 -559h191v-194h-234l-36 -170h270v-194h-313zM1023 963l-26 191l-24 -191h50zM676 599l36 170h-167l28 -170
h103zM1092 599l-35 170h-117l-34 -170h186zM1445 599l30 170h-172l37 -170h105zM645 405h-46l23 -178zM1420 405h-47l27 -165z" />
    <glyph glyph-name="uni20AA" unicode="&#x20aa;" horiz-adv-x="1933" 
d="M197 1522h840q115 0 179.5 -40.5t92.5 -131.5t28 -251v-704h-277v643q0 92 -6 132t-37 64t-104 24h-439v-1258h-277v1522zM1736 0h-751q-190 0 -285 99t-95 325v674h285v-673q0 -74 17 -111.5t65 -53t146 -15.5h341v1277h277v-1522z" />
    <glyph glyph-name="dong" unicode="&#x20ab;" horiz-adv-x="1374" 
d="M829 1521v173h327v-173h182v-168h-182v-1062h-268q-23 0 -23 40v70q-49 -46 -117 -78t-186 -32q-114 0 -207.5 49.5t-148.5 149.5t-55 246q0 160 63 275t180 176t276 61q92 0 162 -16l-3 121h-328v168h328zM829 993q-39 36 -149 36t-155 -74.5t-45 -212.5q0 -112 45 -167
t113 -55q54 0 91.5 10t54 19.5t45.5 29.5v414zM1240 197v-197h-1105v197h1105z" />
    <glyph glyph-name="Euro" unicode="&#x20ac;" horiz-adv-x="1504" 
d="M1380 50q-26 -4 -78 -22q-69 -26 -146 -41t-208 -15q-264 0 -427 130t-216 370h-213v192h189q-1 18 -1 56q0 75 7 137h-158v192h194q68 232 235.5 356.5t410.5 132.5q16 1 46 1q92 0 152 -11.5t125 -32.5q37 -12 62 -18l-53 -243q-62 36 -125.5 52t-180.5 16
q-123 0 -212 -63t-133 -190h496v-192h-532q-2 -44 -2 -68q0 -72 4 -125h481v-192h-452q36 -132 120 -201.5t230 -69.5q96 0 184.5 23.5t140.5 59.5z" />
    <glyph glyph-name="uni20B1" unicode="&#x20b1;" horiz-adv-x="1543" 
d="M209 1138v384h172q61 0 169 7q164 9 242 9q249 0 394.5 -94t182.5 -306h152v-107h-141l1 -44q0 -36 -3 -69h143v-107h-159q-46 -193 -198.5 -293t-403.5 -100q-52 0 -154 3l-31 1v-422h-366v811h-147v107h147v113h-147v107h147zM1002 1138q-59 152 -244 152
q-94 0 -183 -13v-139h427zM575 1031v-113h448q4 28 4 68q0 15 -2 45h-450zM996 811h-421v-132q95 -9 186 -9q174 0 235 141z" />
    <glyph glyph-name="uni20B2" unicode="&#x20b2;" horiz-adv-x="1525" 
d="M719 1762h207v-226q85 -3 150.5 -14t139.5 -29l77 -16l-10 -303q-64 35 -170.5 58.5t-243.5 23.5q-131 0 -226 -57t-145.5 -164t-50.5 -255q0 -155 44.5 -275t128.5 -187t201 -67q164 0 227 38v282l-230 18v252h558v-754q-32 -1 -61.5 -9t-75.5 -24q-82 -29 -158 -46
t-192 -22l-2 -244h-207l2 252q-183 27 -319.5 125.5t-210.5 260.5t-74 373q0 241 82 407t225.5 256.5t333.5 113.5v232z" />
    <glyph glyph-name="uni20B5" unicode="&#x20b5;" horiz-adv-x="1468" 
d="M848 1815h147l-25 -280q78 -5 134 -16t119 -29q37 -11 47 -13l-47 -312q-32 26 -101.5 52t-177.5 29l-87 -977q30 -3 62 -3q65 0 131.5 14.5t119.5 37t79 46.5l1 -300q-81 -35 -167 -57.5t-203 -22.5l-49 1l-30 -339h-147l31 355q-185 34 -314 134.5t-195 258.5t-66 363
q0 239 93.5 410.5t255 264t364.5 104.5zM796 1233q-144 -35 -227.5 -152.5t-83.5 -301.5q0 -174 57.5 -294.5t170.5 -175.5z" />
    <glyph glyph-name="uni20B9" unicode="&#x20b9;" horiz-adv-x="1474" 
d="M878 59q-34 59 -90 183q-58 128 -101 206.5t-87 118.5l-24 -4q-92 -6 -206 -6q-124 0 -187 7v198q24 -3 139 -3h198q96 0 165.5 54.5t96.5 159.5h-599v185h614q-3 62 -23 101t-73 60.5t-151 21.5h-367v181h1201v-181h-274q40 -72 47 -183h195v-185h-208
q-25 -110 -84 -194.5t-146 -134.5q48 -34 86.5 -86t67.5 -107.5t72 -148.5q47 -105 85.5 -175.5t87.5 -126.5h-373q-28 0 -62 59z" />
    <glyph glyph-name="uni20BA" unicode="&#x20ba;" horiz-adv-x="1478" 
d="M1390 664q0 -202 -89 -352t-253 -231t-383 -81h-333v531l-204 -86v167l204 86v200l-214 -91v177l214 91v463h333v-322l429 183v-177l-429 -183v-201l407 171v-167l-407 -171v-415q213 0 316.5 114t108.5 349h300v-55z" />
    <glyph glyph-name="uni2113" unicode="&#x2113;" horiz-adv-x="1387" 
d="M1265 374l-21 -37q-62 -111 -120 -184t-164.5 -126.5t-267.5 -53.5q-76 0 -159 41.5t-147 128.5q-85 -54 -150 -92l-249 123q149 83 300 193q-25 106 -25 235q0 214 73 455t222 408.5t365 167.5q94 0 159.5 -43.5t99 -122t33.5 -182.5q0 -270 -165 -521.5t-456 -474.5
q49 -80 140 -80q93 0 168.5 73t124.5 184zM716 1273.5q-74 -124.5 -123 -316.5t-52 -379q178 167 284.5 342t106.5 343q0 58 -13.5 96.5t-53.5 38.5q-75 0 -149 -124.5z" />
    <glyph glyph-name="uni2116" unicode="&#x2116;" horiz-adv-x="2720" 
d="M2394.5 1455.5q113.5 -74.5 167 -201.5t53.5 -288q0 -175 -65 -303t-184 -196.5t-277 -68.5q-279 0 -400.5 157.5t-121.5 411.5q0 179 66.5 305.5t188.5 192t286 65.5q173 0 286.5 -74.5zM1083 1522h275v-1522h-296l-484 817l-118 267l5 -296v-788h-277v1522h296
l504 -874l99 -232l-4 242v864zM2258.5 694.5q52.5 86.5 52.5 266.5q0 170 -53 263t-159 93q-228 0 -228 -339q0 -176 57 -273t167 -97q111 0 163.5 86.5zM1647 217h907v-217h-907v217z" />
    <glyph glyph-name="trademark" unicode="&#x2122;" horiz-adv-x="2228" 
d="M148 1543h724v-192l-256 1v-585h-219v585l-248 -1zM2059 767h-216l-31 487l-6 121l-44 -153l-168 -458h-148l-182 458l-51 155l-3 -123l-17 -487h-216l43 776h354l114 -341l33 -136l26 136l107 341h337z" />
    <glyph glyph-name="uni2126" unicode="&#x2126;" horiz-adv-x="1834" 
d="M1665 218v-218h-606v179q63 38 118.5 126.5t90.5 220.5t35 291q0 172 -53 286t-140 167.5t-192 53.5q-112 0 -203 -53t-145.5 -167t-54.5 -287q0 -157 41.5 -288.5t104 -221t127.5 -128.5v-179h-619v218h305q-77 66 -143.5 166t-106.5 220t-38 240q5 243 104.5 399.5
t263 229t364.5 72.5q216 0 376 -74t249 -226t89 -380q0 -127 -36 -250t-99.5 -226t-144.5 -171h313z" />
    <glyph glyph-name="estimated" unicode="&#x212e;" horiz-adv-x="1383" 
d="M435 612v-354q107 -111 315 -111q113 0 213.5 35.5t164.5 83.5l70 -151q-45 -32 -118.5 -62t-164.5 -49.5t-183 -19.5q-197 0 -337 82t-213 236t-73 369q0 200 69 353t210 241t348 91q148 3 268.5 -60.5t192.5 -183t77 -280.5q0 -85 -2 -135.5t-9 -84.5h-828zM562 1164.5
q-73 -28.5 -127 -87.5v-309h535v351q-84 74 -248 74q-87 0 -160 -28.5z" />
    <glyph glyph-name="partialdiff" unicode="&#x2202;" horiz-adv-x="1415" 
d="M974 1599.5q170 -126.5 249.5 -332t79.5 -447.5q0 -408 -155 -629t-479 -221q-142 0 -265.5 68t-199 188t-78.5 269q-5 205 77.5 340t221 198t305.5 63q73 0 134 -15.5t117 -43.5q-30 214 -150.5 336t-329.5 122q-67 0 -139 -19.5t-120 -50.5l-103 175q80 61 190 93.5
t218 32.5q257 0 427 -126.5zM933.5 359q56.5 167 56.5 370v89q-60 38 -119.5 55.5t-136.5 17.5q-134 0 -210 -85.5t-76 -263.5q0 -166 60 -258t210 -92q159 0 215.5 167z" />
    <glyph glyph-name="uni2206" unicode="&#x2206;" horiz-adv-x="1622" 
d="M765 1508h32l747 -1481l-16 -27h-1436l-14 22zM785 986l-332 -734h684z" />
    <glyph glyph-name="product" unicode="&#x220f;" horiz-adv-x="1708" 
d="M1604 1292l-227 -1v-1462h-318v1462h-420v-1462h-318v1462l-217 1v230h1500v-230z" />
    <glyph glyph-name="summation" unicode="&#x2211;" horiz-adv-x="1463" 
d="M1296 48v-218h-1118l-26 64l551 786l-551 762l30 80h1073v-229h-678l433 -607l-426 -638h712z" />
    <glyph glyph-name="minus" unicode="&#x2212;" horiz-adv-x="1360" 
d="M1105 889v-245h-850v245h850z" />
    <glyph glyph-name="uni2215" unicode="&#x2215;" horiz-adv-x="854" 
d="M951 1599l-775 -1962h-272l775 1962h272z" />
    <glyph glyph-name="uni2219" unicode="&#x2219;" horiz-adv-x="641" 
d="M133 896.5q31 54.5 84 87t114 32.5q64 0 111 -28.5t72 -78.5t25 -113t-30.5 -117t-82.5 -86t-114 -32q-60 0 -108 28.5t-75 78.5t-27 112t31 116.5z" />
    <glyph glyph-name="radical" unicode="&#x221a;" horiz-adv-x="1642" 
d="M1687 1870l-717 -2224h-261l-335 788l-158 -81l-107 221l275 142h204l249 -696l542 1850h308z" />
    <glyph glyph-name="infinity" unicode="&#x221e;" horiz-adv-x="2006" 
d="M1708 990q109 -61 161.5 -161t52.5 -215q0 -121 -58 -220t-166.5 -157.5t-254.5 -58.5q-165 0 -272 59.5t-185 164.5q-84 -98 -188.5 -158.5t-229.5 -61.5q-154 -2 -263.5 58t-165 160t-55.5 217q0 118 59 218t167.5 159t249.5 59q167 0 275.5 -60.5t188.5 -167.5
q84 100 188.5 161.5t227.5 62.5q159 2 268 -59zM735 440.5q66 44.5 132 132.5q-69 113 -150 188t-170 75q-55 0 -99 -27t-69 -76.5t-25 -114.5q0 -62 26.5 -112t81.5 -80t138 -30q69 0 135 44.5zM1557 418q44 28 68 79.5t24 117.5q0 94 -61 154t-180 60q-69 0 -134 -43.5
t-130 -131.5q69 -116 145.5 -190t165.5 -74q58 0 102 28z" />
    <glyph glyph-name="integral" unicode="&#x222b;" horiz-adv-x="1082" 
d="M196 -193q15 -22 52.5 -49t83.5 -45.5t85 -18.5q103 0 147 62.5t44 184.5q0 97 -27.5 200.5t-68.5 200.5t-107 236q-66 142 -104 232t-66 189.5t-30 192.5q-4 140 43.5 251t153 176.5t268.5 65.5q126 0 205.5 -39t107.5 -98l-124 -163q-9 19 -33.5 39.5t-61.5 34.5
t-81 14q-211 0 -203 -271q2 -93 30 -193t67 -192.5t104 -229.5q66 -139 106.5 -234t67.5 -196.5t27 -196.5q0 -121 -47 -230t-149.5 -178.5t-260.5 -69.5q-53 0 -122 18t-125 48.5t-73 65.5z" />
    <glyph glyph-name="approxequal" unicode="&#x2248;" horiz-adv-x="1448" 
d="M272 497q48 52 118 88.5t146 36.5q53 0 94 -12.5t70.5 -30.5t66.5 -46q47 -35 80 -51.5t78 -16.5q64 0 111.5 29.5t89.5 75.5l116 -138q-15 -48 -62.5 -97.5t-118 -81.5t-150.5 -32q-51 0 -90 12t-65.5 30t-59.5 46q-45 36 -77.5 53.5t-81.5 17.5q-63 0 -107 -28.5
t-89 -77.5l-130 128q13 43 61 95zM267 990q48 52 118 88.5t146 36.5q53 0 94 -12.5t70.5 -30.5t66.5 -46q47 -35 80 -51.5t78 -16.5q64 0 111.5 29.5t89.5 75.5l116 -138q-15 -48 -62.5 -97.5t-118 -81.5t-150.5 -32q-51 0 -90 12t-65.5 30t-59.5 46q-45 36 -77.5 53.5
t-81.5 17.5q-63 0 -107 -28.5t-89 -77.5l-130 128q13 43 61 95z" />
    <glyph glyph-name="notequal" unicode="&#x2260;" horiz-adv-x="1423" 
d="M853 923l-103 -296h422v-216h-500l-74 -208h-192l73 208h-228v216h306l103 296h-409v216h487l65 180h194l-65 -180h240v-216h-319z" />
    <glyph glyph-name="lessequal" unicode="&#x2264;" horiz-adv-x="1378" 
d="M1144 1009l-630 -235l630 -233v-263l-969 418v155l969 420v-262zM175 204h969v-205h-969v205z" />
    <glyph glyph-name="greaterequal" unicode="&#x2265;" horiz-adv-x="1378" 
d="M1193 851v-155l-969 -418v263l630 233l-630 235v262zM224 204h969v-205h-969v205z" />
    <glyph glyph-name="lozenge" unicode="&#x25ca;" horiz-adv-x="1314" 
d="M660 1536l585 -761v-13l-585 -762h-5l-585 762v13l586 761h4zM357 766l299 -403h3l299 406v3l-299 384h-3l-299 -384v-6z" />
    <glyph glyph-name="i.cy" horiz-adv-x="660" 
d="M486 1140v-1140h-312v1140h312zM164 1570q28 43 74 68.5t97 25.5q82 0 131 -47.5t49 -122.5q0 -50 -27.5 -93.5t-73 -69t-97.5 -25.5q-51 0 -92 22t-65 61t-24 88q0 50 28 93z" />
    <glyph glyph-name="IJ_acutecomb" horiz-adv-x="1520" 
d="M1144.5 1861q106.5 107 117.5 139l217 -131q-44 -57 -112 -122.5t-137.5 -116.5t-116.5 -67l-146 125q71 66 177.5 173zM396.5 1860q106.5 107 117.5 139l217 -131q-44 -57 -112 -122.5t-137.5 -116.5t-116.5 -67l-146 125q71 66 177.5 173zM521 1522v-1522h-320v1522
h320zM873 -62q70 68 96 179q19 79 25.5 195.5t6.5 295.5v914h320v-909l1 -223q0 -95 -4 -166.5t-16 -132.5q-25 -131 -112 -226t-197.5 -144.5t-203.5 -52.5l-77 168q91 34 161 102z" />
    <glyph glyph-name="ij_acutecomb" horiz-adv-x="1304" 
d="M985 1581q89 108 162 227l214 -174q-27 -63 -106.5 -145t-168 -150t-131.5 -87l-149 137q90 84 179 192zM376 1580q89 108 162 227l214 -174q-27 -63 -106.5 -145t-168 -150t-131.5 -87l-149 137q90 84 179 192zM486 1140v-1140h-312v1140h312zM609 -296.5
q39 -7.5 64 -7.5q61 0 95.5 28.5t50 94.5t15.5 182v1139h312v-1058q0 -308 -106.5 -448.5t-308.5 -140.5q-31 0 -94 8.5t-81 15.5v201q14 -7 53 -14.5z" />
    <glyph glyph-name="one.numr" horiz-adv-x="1066" 
d="M389 1396q-97 -27 -174 -41l-40 161q56 16 133.5 52.5t144.5 75.5t92 60l145 -25v-1006h-279v729z" />
    <glyph glyph-name="two.numr" horiz-adv-x="1234" 
d="M1046 921v-241h-817l-43 154q89 46 211 138.5t212.5 199t90.5 194.5q0 153 -165 153q-81 0 -145.5 -37.5t-125.5 -113.5l-108 149q32 50 99 97.5t157.5 78t189.5 30.5q135 0 223 -46t128 -114.5t40 -138.5q0 -147 -102.5 -275t-292.5 -248z" />
    <glyph glyph-name="three.numr" horiz-adv-x="1234" 
d="M400.5 795.5q48.5 -7.5 127.5 -7.5q126 1 183 40t57 115q0 51 -41.5 88.5t-133.5 53.5l-159 -33l1 185q70 10 125 23q72 22 116.5 64t44.5 95q0 50 -41 76t-117 26q-53 0 -120 -20t-129 -58l-66 157q37 31 102 57t136 41t126 15q126 0 208.5 -31.5t121.5 -86.5t39 -125
q0 -83 -41.5 -150.5t-147.5 -124.5q78 -4 134.5 -38.5t86 -87.5t29.5 -113q0 -106 -51 -189t-156.5 -131t-263.5 -48q-69 0 -121.5 9.5t-113.5 25.5q-24 7 -47 12l-6 184q69 -16 117.5 -23.5z" />
    <glyph glyph-name="acute.cap" horiz-adv-x="652" 
d="M262.5 1841q106.5 107 117.5 139l217 -131q-44 -57 -112 -122.5t-137.5 -116.5t-116.5 -67l-146 125q71 66 177.5 173z" />
    <glyph glyph-name="breve.cap" horiz-adv-x="815" 
d="M235 1960q3 -35 15 -65.5t49.5 -54t108.5 -23.5q164 0 176 143h187q4 -102 -38 -180t-125.5 -122t-199.5 -44q-121 0 -204.5 43.5t-123.5 121.5t-36 181h191z" />
    <glyph glyph-name="caron.cap" horiz-adv-x="769" 
d="M206 1960l220 -181l223 181l154 -91l-267 -293h-219l-268 292z" />
    <glyph glyph-name="circumflex.cap" horiz-adv-x="868" 
d="M323 1960h220l276 -308l-165 -92l-221 199l-222 -199l-162 90z" />
    <glyph glyph-name="dieresis.cap" horiz-adv-x="988" 
d="M80 1870q25 42 68 66t94 24q81 0 124.5 -44.5t43.5 -119.5q0 -51 -24.5 -92.5t-67 -65.5t-94.5 -24q-77 0 -123 45t-46 119q0 50 25 92zM604 1870q25 42 68 66t94 24q81 0 124 -44.5t43 -119.5q0 -51 -24 -92.5t-66.5 -65.5t-95.5 -24q-76 0 -122 45t-46 119q0 50 25 92z
" />
    <glyph glyph-name="dotaccent.cap" horiz-adv-x="489" 
d="M89.5 1869.5q25.5 41.5 69.5 65.5t95 24q82 0 126.5 -44.5t44.5 -119.5q0 -51 -25 -92t-68.5 -65t-95.5 -24q-77 0 -124.5 44.5t-47.5 119.5q0 50 25.5 91.5z" />
    <glyph glyph-name="grave.cap" horiz-adv-x="652" 
d="M307.5 1610q-71.5 52 -141.5 119t-109 120l217 131q11 -32 94 -115t201 -197l-146 -125q-44 15 -115.5 67z" />
    <glyph glyph-name="hungarumlaut.cap" horiz-adv-x="972" 
d="M114 1746q52 64 98.5 127.5t54.5 86.5l230 -112q-66 -96 -149 -183t-139 -112l-162 115q15 14 67 78zM629 1745.5q53 63.5 100 126t55 85.5l226 -113q-62 -92 -146 -179t-143 -112l-161 115q16 14 69 77.5z" />
    <glyph glyph-name="macron.cap" horiz-adv-x="701" 
d="M646 1893v-206h-591v206h591z" />
    <glyph glyph-name="ring.cap" horiz-adv-x="767" 
d="M91.5 1854q49.5 62 127.5 89t170 27q159 0 247.5 -69t88.5 -203q0 -98 -47.5 -161t-125.5 -92t-172 -29q-160 0 -249 73t-89 205q0 98 49.5 160zM497 1791q-45 33 -119 33q-70 0 -111 -27.5t-41 -97.5q0 -62 43 -96.5t114 -34.5q79 -1 119 25t40 99q0 66 -45 99z" />
    <glyph glyph-name="tilde.cap" horiz-adv-x="937" 
d="M145 1895q78 63 188 63q60 0 99 -19.5t84 -56.5q34 -28 57 -41t54 -13q45 0 82 31t73 80l126 -108q-36 -104 -111.5 -166t-186.5 -62q-58 0 -95.5 19t-81.5 56q-37 30 -62 44t-60 14q-39 0 -79.5 -30t-74.5 -72l-125 98q35 100 113 163z" />
    <glyph glyph-name="caronvertical" horiz-adv-x="413" 
d="M102 1061q10 47 16.5 131t5.5 165q0 67 -17.5 129.5t-41.5 87.5l12 64l215 70q71 -67 71 -268q0 -82 -18.5 -170.5t-46.5 -158.5t-55 -101l-133 28z" />
  </font>
</defs>
</svg>
