<svg version="1.1" xmlns="http://www.w3.org/2000/svg" xmlns:xlink="http://www.w3.org/1999/xlink" viewBox="0 0 32 32" xml:space="preserve">
<path d="M16,4c6.6,0,12,5.4,12,12c0,6.6-5.4,12-12,12C9.4,28,4,22.6,4,16C4,9.4,9.4,4,16,4z M16,5.9
	c5.6,0,10.1,4.5,10.1,10c0,5.6-4.5,10.1-10.1,10.1c-5.6,0-10-4.5-10-10.1C5.9,10.4,10.4,5.9,16,5.9z M19.3,17.1l-2.6-1.3V11
	c0-0.9-1.3-0.9-1.3,0v5.2c0,0.2,0.1,0.5,0.3,0.6l2.9,1.5C19.4,18.7,20.1,17.5,19.3,17.1z M24.7,16.7h-0.4c-0.9,0-0.9-1.4,0-1.4h0.4
	c-0.3-4.3-3.8-7.7-8-8v0.4c0,0.9-1.4,0.9-1.4,0V7.3c-4.3,0.3-7.7,3.7-8,8h0.4c0.9,0,0.9,1.3,0,1.3H7.3c0.3,4.3,3.7,7.7,8,8v-0.4
	c0-0.9,1.3-0.9,1.3,0v0.4C20.9,24.3,24.3,20.9,24.7,16.7z"/>
</svg>