<svg viewBox="0 0 24 18" xmlns="http://www.w3.org/2000/svg">
<path d="M19.3377 4.64962C19.6959 4.29075 20.2687 4.25397 20.646 4.59285C21.8317 5.65813 22.8893 6.9759 23.7579 8.54615C23.9141 8.82858 23.9136 9.17247 23.7573 9.45488C20.548 15.2558 14.7592 17.6105 9.45575 16.5188C8.73116 16.3697 8.51977 15.4863 9.04242 14.9627L9.89194 14.1117C10.1652 13.838 10.5703 13.7553 10.9483 13.8374C11.2872 13.911 11.6391 13.9497 12 13.9497C14.7289 13.9497 16.9412 11.7337 16.9412 9C16.9412 8.41646 16.8404 7.85651 16.6553 7.33667L19.3377 4.64962ZM14.5443 1.48118C15.2688 1.63033 15.4802 2.51373 14.9576 3.03729L14.1081 3.88829C13.8348 4.16205 13.4297 4.2447 13.0517 4.16262C12.7128 4.08902 12.3609 4.05025 12 4.05025C9.27106 4.05025 7.05882 6.26633 7.05882 9C7.05882 9.58354 7.15962 10.1435 7.34474 10.6633L4.66234 13.3504C4.3041 13.7092 3.73125 13.746 3.35404 13.4072C2.16826 12.3419 1.11069 11.0241 0.242112 9.45385C0.085891 9.17142 0.0864429 8.82753 0.242684 8.54512C3.45199 2.74415 9.24084 0.389506 14.5443 1.48118ZM3.51386 17.4991C3.23853 17.2233 3.23853 16.7767 3.51386 16.5009L19.4861 0.500867C19.7621 0.224386 20.2101 0.224386 20.4861 0.500867C20.7615 0.77667 20.7615 1.22333 20.4861 1.49913L4.51385 17.4991C4.23785 17.7756 3.78986 17.7756 3.51386 17.4991Z"/>
</svg>
