<svg version="1.1" xmlns="http://www.w3.org/2000/svg" xmlns:xlink="http://www.w3.org/1999/xlink" viewBox="0 0 135.3 39.6" xml:space="preserve">
<path fill="#A6A6A6" d="M130.3,39.6H5c-2.8,0-5-2.2-5-5V5c0-2.7,2.3-5,5-5h125.3
	c2.8,0,5,2.2,5,5v29.7C135.3,37.4,133.1,39.6,130.3,39.6z"/>
<path fill="#000000" d="M130.3,0.8H5C2.7,0.8,0.8,2.7,0.8,5v29.7c0,2.3,1.9,4.2,4.2,4.2h125.3c2.3,0,4.2-1.9,4.2-4.2V5
	C134.5,2.7,132.6,0.8,130.3,0.8z"/>
<path fill="#FFFFFF" d="M52.9,6.9h4.3v0.9h-1.7V13h-0.9V7.7h-1.7V6.9z M47.5,9.6h-3.1v0.9h2.2c-0.1,0.5-0.2,0.8-0.5,1.1
	c-0.4,0.4-1,0.6-1.6,0.6c-0.6,0-1.1-0.2-1.6-0.6c-0.4-0.4-0.7-1-0.7-1.7c0-0.7,0.2-1.2,0.7-1.7c0.4-0.4,1-0.6,1.6-0.6
	c0.7,0,1.2,0.2,1.6,0.7l0.1,0.1l0.6-0.6l0-0.1c-0.2-0.3-0.6-0.5-1-0.7c-0.4-0.2-0.8-0.3-1.3-0.3c-0.9,0-1.6,0.3-2.3,0.9
	c-0.6,0.6-0.9,1.4-0.9,2.3c0,0.9,0.3,1.7,0.9,2.3c0.6,0.6,1.4,0.9,2.3,0.9c0.9,0,1.7-0.3,2.3-0.9c0.5-0.5,0.8-1.2,0.8-2
	C47.6,10,47.6,9.8,47.5,9.6L47.5,9.6z M48.6,13h3.7v-0.9h-2.7v-1.7H52V9.5h-2.5V7.7h2.7V6.9h-3.7V13z M61.7,7.7h1.7V13h0.9V7.7H66
	V6.9h-4.3V7.7z M60,13h0.9V6.9H60V13z M79.5,6.9v3.6l0,0.9l-2.8-4.5h-1.1V13h0.9V9.2l0-0.9l2.9,4.7l0,0h0.9V6.9H79.5z M73.8,7.7
	c0.6,0.6,0.9,1.4,0.9,2.3c0,0.9-0.3,1.6-0.9,2.3c-0.6,0.6-1.4,0.9-2.3,0.9c-0.9,0-1.7-0.3-2.3-0.9c-0.6-0.6-0.9-1.4-0.9-2.3
	c0-0.9,0.3-1.7,0.9-2.3c0.6-0.6,1.4-0.9,2.3-0.9C72.5,6.7,73.2,7,73.8,7.7z M73.2,8.3c-0.4-0.4-1-0.6-1.6-0.6
	c-0.6,0-1.1,0.2-1.6,0.6c-0.4,0.4-0.6,1-0.6,1.7s0.2,1.2,0.6,1.7c0.4,0.4,1,0.6,1.6,0.6c0.6,0,1.2-0.2,1.6-0.6
	c0.4-0.4,0.6-1,0.6-1.7C73.8,9.2,73.6,8.7,73.2,8.3z"/>
<path fill="#FFFFFF" d="M68.3,21.6c-2.4,0-4.3,1.8-4.3,4.2c0,2.4,1.9,4.2,4.3,4.2
	c2.4,0,4.3-1.8,4.3-4.2C72.6,23.3,70.7,21.6,68.3,21.6z M68.3,28.3c-1.3,0-2.4-1.1-2.4-2.6c0-1.5,1.1-2.6,2.4-2.6s2.4,1,2.4,2.6
	C70.7,27.3,69.6,28.3,68.3,28.3z M59,21.6c-2.4,0-4.3,1.8-4.3,4.2c0,2.4,1.9,4.2,4.3,4.2c2.4,0,4.3-1.8,4.3-4.2
	C63.2,23.3,61.3,21.6,59,21.6z M59,28.3c-1.3,0-2.4-1.1-2.4-2.6c0-1.5,1.1-2.6,2.4-2.6c1.3,0,2.4,1,2.4,2.6
	C61.4,27.3,60.3,28.3,59,28.3z M47.9,22.8v1.8h4.3c-0.1,1-0.5,1.7-1,2.2c-0.6,0.6-1.6,1.3-3.3,1.3c-2.7,0-4.7-2.1-4.7-4.8
	s2.1-4.8,4.7-4.8c1.4,0,2.5,0.6,3.3,1.3l1.3-1.3c-1.1-1-2.5-1.8-4.5-1.8c-3.7,0-6.7,2.9-6.7,6.5s3.1,6.5,6.7,6.5
	c2,0,3.5-0.6,4.6-1.8C53.7,27,54,25.3,54,24c0-0.4,0-0.8-0.1-1.1C53.9,22.8,47.9,22.8,47.9,22.8z M93.3,24.2
	c-0.4-0.9-1.4-2.7-3.7-2.7c-2.2,0-4,1.7-4,4.2c0,2.4,1.8,4.2,4.2,4.2c2,0,3.1-1.2,3.6-1.9l-1.5-1c-0.5,0.7-1.1,1.2-2.1,1.2
	c-0.9,0-1.6-0.4-2.1-1.3l5.7-2.3C93.5,24.7,93.3,24.2,93.3,24.2z M87.5,25.6c0-1.6,1.3-2.5,2.2-2.5c0.7,0,1.4,0.4,1.6,0.9
	C91.3,24.1,87.5,25.6,87.5,25.6z M82.8,29.7h1.9V17.3h-1.9V29.7z M79.8,22.5L79.8,22.5c-0.5-0.5-1.3-0.9-2.3-0.9
	c-2.1,0-4.1,1.9-4.1,4.2c0,2.4,2,4.2,4.1,4.2c1,0,1.8-0.4,2.2-1h0.1v0.6c0,1.6-0.9,2.5-2.3,2.5c-1.1,0-1.9-0.8-2.1-1.5l-1.6,0.7
	c0.5,1.1,1.7,2.5,3.8,2.5c2.2,0,4.1-1.3,4.1-4.4v-7.6h-1.8V22.5z M77.6,28.3c-1.3,0-2.4-1.1-2.4-2.5c0-1.5,1.1-2.6,2.4-2.6
	c1.3,0,2.3,1.1,2.3,2.6C79.9,27.3,78.9,28.3,77.6,28.3z M102,17.3h-4.5v12.4h1.9V25h2.6c2.1,0,4.1-1.5,4.1-3.8
	C106.2,18.8,104.1,17.3,102,17.3z M102.1,23.3h-2.7v-4.2h2.7c1.4,0,2.2,1.1,2.2,2.1C104.3,22.1,103.5,23.3,102.1,23.3z M113.7,21.5
	c-1.4,0-2.8,0.6-3.3,1.9l1.7,0.7c0.4-0.7,1-0.9,1.7-0.9c1,0,2,0.6,2,1.6v0.1c-0.3-0.2-1.1-0.5-2-0.5c-1.8,0-3.6,1-3.6,2.8
	c0,1.7,1.5,2.7,3.1,2.7c1.3,0,2-0.6,2.4-1.2h0.1v1h1.8V25C117.5,22.8,115.8,21.5,113.7,21.5z M113.4,28.3c-0.6,0-1.5-0.3-1.5-1
	c0-1,1.1-1.3,2-1.3c0.8,0,1.2,0.2,1.7,0.4C115.5,27.5,114.5,28.3,113.4,28.3z M124,21.8l-2.1,5.4h-0.1l-2.2-5.4h-2l3.3,7.5l-1.9,4.2
	h2l5.1-11.7C126.1,21.8,124,21.8,124,21.8z M107.2,29.7h1.9V17.3h-1.9V29.7z"/>
<g>
	<linearGradient id="path64_1_" gradientUnits="userSpaceOnUse" x1="31.0048" y1="-145.1139" x2="14.2224" y2="-128.3315" gradientTransform="matrix(1.0024 0 0 -0.9907 -9.2281 -112.7675)">
		<stop  offset="0" style="stop-color:#00A0FF"/>
		<stop  offset="6.599999e-03" style="stop-color:#00A1FF"/>
		<stop  offset="0.2601" style="stop-color:#00BEFF"/>
		<stop  offset="0.5122" style="stop-color:#00D2FF"/>
		<stop  offset="0.7604" style="stop-color:#00DFFF"/>
		<stop  offset="1" style="stop-color:#00E3FF"/>
	</linearGradient>
	<path fill="url(#path64_1_)" d="M10.5,7.5C10.2,7.8,10,8.2,10,8.9v21.9
		c0,0.6,0.2,1.1,0.5,1.4l0.1,0.1L23,20v-0.3L10.5,7.5L10.5,7.5z"/>
	
	<linearGradient id="path78_1_" gradientUnits="userSpaceOnUse" x1="43.0404" y1="-133.8226" x2="18.8435" y2="-133.8226" gradientTransform="matrix(1.0024 0 0 -0.9907 -9.2281 -112.7675)">
		<stop  offset="0" style="stop-color:#FFE000"/>
		<stop  offset="0.4087" style="stop-color:#FFBD00"/>
		<stop  offset="0.7754" style="stop-color:#FFA500"/>
		<stop  offset="1" style="stop-color:#FF9C00"/>
	</linearGradient>
	<path fill="url(#path78_1_)" d="M27.1,24.1L23,20v-0.3l4.1-4.1l0.1,0.1l4.9,2.8
		c1.4,0.8,1.4,2.1,0,2.9L27.1,24.1C27.2,24,27.1,24.1,27.1,24.1z"/>
	
	<linearGradient id="path88_1_" gradientUnits="userSpaceOnUse" x1="25.6885" y1="-139.871" x2="2.9302" y2="-117.1127" gradientTransform="matrix(1.0024 0 0 -0.9907 -9.2281 -112.7675)">
		<stop  offset="0" style="stop-color:#FF3A44"/>
		<stop  offset="1" style="stop-color:#C31162"/>
	</linearGradient>
	<path fill="url(#path88_1_)" d="M27.2,24L23,19.8L10.5,32.2c0.5,0.5,1.2,0.5,2.1,0.1
		L27.2,24"/>
	
	<linearGradient id="path104_1_" gradientUnits="userSpaceOnUse" x1="8.161" y1="-145.3041" x2="18.3236" y2="-135.1416" gradientTransform="matrix(1.0024 0 0 -0.9907 -9.2281 -112.7675)">
		<stop  offset="0" style="stop-color:#32A071"/>
		<stop  offset="6.850000e-02" style="stop-color:#2DA771"/>
		<stop  offset="0.4762" style="stop-color:#15CF74"/>
		<stop  offset="0.8009" style="stop-color:#06E775"/>
		<stop  offset="1" style="stop-color:#00F076"/>
	</linearGradient>
	<path fill="url(#path104_1_)" d="M27.2,15.6L12.5,7.4c-0.9-0.5-1.6-0.4-2.1,0.1
		L23,19.8L27.2,15.6z"/>
</g>
</svg>
