<svg version="1.1" xmlns="http://www.w3.org/2000/svg" xmlns:xlink="http://www.w3.org/1999/xlink" viewBox="0 0 24 24" xml:space="preserve">
<linearGradient id="SVGID_1_" gradientUnits="userSpaceOnUse" x1="12" y1="24" x2="12" y2="-9.094947e-13">
	<stop  offset="0" style="stop-color:#4C68D7"/>
	<stop  offset="0.2637" style="stop-color:#CD486B"/>
	<stop  offset="0.6474" style="stop-color:#FBAD50"/>
	<stop  offset="1" style="stop-color:#8A3AB9"/>
</linearGradient>
<path fill="url(#SVGID_1_)" d="M14.5,12c0,1.4-1.1,2.5-2.5,2.5S9.5,13.4,9.5,12s1.1-2.5,2.5-2.5S14.5,10.6,14.5,12z M17.6,9.2v5.7
	c0,1.5-1.2,2.8-2.8,2.8H9.2c-1.5,0-2.8-1.2-2.8-2.8V9.2c0-1.5,1.2-2.8,2.8-2.8h5.7C16.4,6.4,17.6,7.6,17.6,9.2z M15.8,12
	c0-2.1-1.7-3.8-3.8-3.8S8.3,9.9,8.3,12s1.7,3.8,3.8,3.8S15.8,14.1,15.8,12z M16.3,8.3c0-0.3-0.3-0.6-0.6-0.6S15.1,8,15.1,8.3
	s0.3,0.6,0.6,0.6S16.3,8.6,16.3,8.3z M24,12c0,6.6-5.4,12-12,12S0,18.6,0,12S5.4,0,12,0S24,5.4,24,12z M18.9,9.2c0-2.2-1.8-4-4-4
	H9.2c-2.2,0-4,1.8-4,4v5.7c0,2.2,1.8,4,4,4h5.7c2.2,0,4-1.8,4-4V9.2z"/>
</svg>
