<svg version="1.1" xmlns="http://www.w3.org/2000/svg" xmlns:xlink="http://www.w3.org/1999/xlink" viewBox="0 0 24 24" xml:space="preserve">
<path fill="#ED812B" d="M10.3,8c0-0.9,0.7-1.5,1.5-1.5c0.9,0,1.5,0.7,1.5,1.5c0,0.8-0.7,1.5-1.5,1.5C11,9.5,10.3,8.9,10.3,8z M24,12
	c0,6.6-5.4,12-12,12S0,18.6,0,12S5.4,0,12,0S24,5.4,24,12z M8.1,8c0,2.1,1.7,3.7,3.7,3.7c2.1,0,3.7-1.7,3.7-3.7
	c0-2.1-1.7-3.7-3.7-3.7C9.8,4.3,8.1,6,8.1,8z M15.9,12.4c-0.3-0.5-1-0.7-1.5-0.3c-1.5,1-3.5,1-5,0c-0.5-0.3-1.2-0.2-1.5,0.3
	c-0.3,0.5-0.2,1.2,0.3,1.5c0.7,0.4,1.4,0.7,2.2,0.9l-2.1,2.1c-0.4,0.4-0.4,1.1,0,1.5c0.2,0.2,0.5,0.3,0.8,0.3s0.6-0.1,0.8-0.3l2-2
	l2,2c0.4,0.4,1.1,0.4,1.5,0c0.4-0.4,0.4-1.1,0-1.5l-2.1-2.1c0.8-0.2,1.5-0.5,2.2-0.9C16,13.6,16.2,12.9,15.9,12.4z"/>
</svg>
