<svg version="1.1" xmlns="http://www.w3.org/2000/svg" xmlns:xlink="http://www.w3.org/1999/xlink" viewBox="0 0 32 32" xml:space="preserve">
<path d="M11.9,14.3c1.9,2,3.7,4,5.8,5.8c0.2-0.3,0.4-0.6,0.6-0.9c0.7-0.9,1.7-1.5,2.7-1.9
	c0.2-0.1,0.4-0.1,0.6,0c0.2,0.1,0.4,0.2,0.6,0.3c1.8,1.8,3.6,3.6,5.4,5.4c0.2,0.2,0.3,0.4,0.3,0.6c0,0.2,0,0.5-0.1,0.7
	c-0.5,1.4-1.4,2.5-2.7,3.1c-1.3,0.7-2.8,0.8-4.1,0.4c-2.1-0.6-4.1-1.7-5.9-3c-2.5-1.8-4.6-4.1-6.6-6.5c-1.3-1.6-2.4-3.3-3.4-5.1
	c-0.6-1.1-1-2.3-1.2-3.6c-0.2-2,1.1-4.2,2.9-5.1c0.3-0.1,0.6-0.3,0.9-0.4C8.1,4,8.4,4,8.6,4C8.8,4.1,9,4.2,9.2,4.4
	c1.2,1.2,2.4,2.4,3.5,3.6c0.6,0.6,1.1,1.2,1.7,1.7c0.2,0.2,0.3,0.4,0.4,0.6c0.1,0.2,0,0.5-0.1,0.7c-0.5,1.3-1.4,2.4-2.7,3.1
	C12,14.2,12,14.2,11.9,14.3z"/>
</svg>