<svg version="1.1" xmlns="http://www.w3.org/2000/svg" xmlns:xlink="http://www.w3.org/1999/xlink" viewBox="0 0 24 24" xml:space="preserve">
<path d="M12,0C5.4,0,0,5.4,0,12c0,6.6,5.4,12,12,12c6.6,0,12-5.4,12-12C24,5.4,18.6,0,12,0z M18.6,16.4
	c-0.2,0.6-0.6,1.1-0.9,1.4c-1.4,1.4-5.3,0.2-8.5-3c-3.2-3.2-4.5-7-3-8.5C6.4,6,7,5.6,7.6,5.4C8,5.2,8.4,5.4,8.7,5.7l1.6,2
	c0.3,0.4,0.3,1-0.1,1.4C9.8,9.4,9.5,9.7,9.4,9.8C8.8,10.4,9.7,11.7,11,13c1.3,1.3,2.6,2.2,3.2,1.6c0.1-0.1,0.3-0.4,0.7-0.8
	c0.4-0.4,0.9-0.5,1.4-0.1l2,1.6C18.7,15.5,18.8,16,18.6,16.4z"/>
</svg>