<svg version="1.1" xmlns="http://www.w3.org/2000/svg" xmlns:xlink="http://www.w3.org/1999/xlink" viewBox="0 0 24 24" xml:space="preserve">
<path d="M6.8,10.8c0.1,0.4,0.3,1.2,0.8,1.6c0.4,1.4,1.4,2.9,3.1,3.5c0.4,0.1,0.8,0.2,1.3,0.2c0.4,0,0.9-0.1,1.3-0.2
	c1.7-0.6,2.8-2.1,3.1-3.5c0.5-0.5,0.7-1.2,0.8-1.6c0.2-0.6,0.4-1.5-0.1-2.2c0,0,0-0.1-0.1-0.1c0.3-1.7,0.1-3-0.6-3.8
	c-0.3-0.4-0.7-0.6-0.9-0.7c-0.2-0.3-0.6-0.6-1.2-1c-0.7-0.4-1.4-0.6-2.3-0.6c-0.1,0-0.3,0-0.4,0c-0.4,0-0.7,0.1-1.1,0.2
	c-0.4,0.1-0.8,0.3-1.1,0.6C9,3.6,8.7,3.9,8.3,4.2C7.7,4.9,7.2,5.7,7,6.5C6.9,7.1,6.9,7.7,7,8.5c0,0,0,0-0.1,0.1
	C6.4,9.2,6.6,10.2,6.8,10.8z M8,9C8,9,8.1,9,8,9c0.1,0,0.4-3.9,3.5-2.5c1.7,0.7,2.9,0.7,3.7,0.5c1,0.7,0.7,1.8,0.7,2v0
	c0,0,0,0,0.1,0c0.3,0,0.7,0.3,0.3,1.5c-0.3,1-0.5,1.3-0.7,1.3c-0.2,1.2-1.1,2.6-2.6,3.2c-0.3,0.1-0.6,0.2-0.9,0.2
	c-0.3,0-0.6-0.1-0.9-0.2c-1.5-0.5-2.4-2-2.6-3.2c-0.2,0-0.5-0.3-0.7-1.3C7.4,9.3,7.7,9,8,9z"/>
<path d="M16,15c-0.6,0.7-1.4,1.4-2.4,1.7c-0.5,0.2-1,0.3-1.6,0.3c-0.5,0-1.1-0.1-1.6-0.3c-1-0.4-1.9-1-2.5-1.7
	c-0.9,0.4-2.4,1.3-4,2.4c1.8,2.5,4.7,4.1,8,4.1c3.3,0,6.2-1.6,8-4.1C18.4,16.3,16.9,15.5,16,15z"/>
</svg>