<svg version="1.1" xmlns="http://www.w3.org/2000/svg" xmlns:xlink="http://www.w3.org/1999/xlink" viewBox="0 0 24 23.9" xml:space="preserve">
<path fill="#4C75A3" d="M12,0C5.4,0,0,5.4,0,12c0,6.6,5.4,12,12,12s12-5.4,12-12C24,5.4,18.6,0,12,0z M17.4,13.5
	c0.1,0.1,0.3,0.3,0.7,0.7h0l0,0l0,0l0,0c0.8,0.7,1.4,1.3,1.7,1.8c0,0,0,0.1,0.1,0.1c0,0,0,0.1,0.1,0.2c0,0.1,0,0.2,0,0.3
	s-0.1,0.2-0.2,0.2c-0.1,0.1-0.3,0.1-0.5,0.1l-2.3,0c-0.1,0-0.3,0-0.5,0c-0.2-0.1-0.3-0.1-0.5-0.2l-0.2-0.1c-0.2-0.1-0.4-0.3-0.6-0.5
	c-0.2-0.2-0.4-0.4-0.6-0.6c-0.2-0.2-0.3-0.3-0.5-0.5c-0.2-0.1-0.4-0.2-0.5-0.1c0,0,0,0-0.1,0c0,0-0.1,0.1-0.2,0.1
	c-0.1,0.1-0.1,0.1-0.2,0.2c-0.1,0.1-0.1,0.2-0.2,0.4c0,0.2-0.1,0.4-0.1,0.6c0,0.1,0,0.2,0,0.2c0,0.1,0,0.1-0.1,0.2l0,0
	c-0.1,0.1-0.3,0.2-0.5,0.2h-1c-0.4,0-0.8,0-1.3-0.1c-0.4-0.1-0.8-0.3-1.2-0.4C8.5,16.2,8.2,16,8,15.8c-0.3-0.2-0.5-0.3-0.6-0.5
	l-0.2-0.2C7,15.1,7,15,6.9,14.9c-0.1-0.1-0.3-0.4-0.6-0.7c-0.3-0.4-0.6-0.8-0.9-1.2c-0.3-0.4-0.7-1-1.1-1.7C3.8,10.5,3.4,9.7,3.1,9
	C3,8.9,3,8.8,3,8.7c0-0.1,0-0.1,0-0.1l0,0c0.1-0.1,0.3-0.2,0.5-0.2l2.4,0c0.1,0,0.1,0,0.2,0.1c0.1,0,0.1,0,0.1,0.1l0,0
	c0.1,0.1,0.2,0.1,0.2,0.3C6.7,9.1,6.8,9.3,7,9.6c0.2,0.3,0.3,0.5,0.4,0.7l0.1,0.2c0.2,0.3,0.3,0.6,0.5,0.9c0.2,0.2,0.3,0.4,0.4,0.6
	c0.1,0.1,0.2,0.2,0.4,0.3c0.1,0.1,0.2,0.1,0.3,0.1c0.1,0,0.2,0,0.2,0c0,0,0,0,0,0c0,0,0.1-0.1,0.1-0.2c0.1-0.1,0.1-0.2,0.1-0.4
	c0-0.2,0.1-0.4,0.1-0.7c0-0.3,0-0.6,0-1c0-0.2,0-0.4-0.1-0.6c0-0.2-0.1-0.3-0.1-0.4L9.4,9C9.3,8.8,9,8.7,8.7,8.6
	c-0.1,0-0.1-0.1,0-0.2c0.1-0.1,0.2-0.2,0.3-0.2C9.4,8,10.1,8,11.2,8c0.5,0,0.9,0,1.2,0.1c0.1,0,0.2,0.1,0.3,0.1
	c0.1,0,0.1,0.1,0.2,0.2c0,0.1,0.1,0.2,0.1,0.3c0,0.1,0,0.2,0,0.4c0,0.2,0,0.3,0,0.5c0,0.1,0,0.3,0,0.6c0,0.2,0,0.5,0,0.7
	c0,0.1,0,0.2,0,0.3c0,0.2,0,0.3,0,0.4c0,0.1,0,0.2,0,0.3c0,0.1,0.1,0.2,0.1,0.3c0.1,0.1,0.1,0.2,0.2,0.2c0,0,0.1,0,0.2,0
	c0.1,0,0.1,0,0.2-0.1c0.1-0.1,0.2-0.2,0.3-0.3c0.1-0.1,0.3-0.3,0.5-0.5c0.2-0.2,0.4-0.5,0.6-0.9c0.4-0.6,0.7-1.2,0.9-1.8
	c0-0.1,0.1-0.1,0.1-0.1c0,0,0.1-0.1,0.1-0.1l0,0l0,0c0,0,0,0,0.1,0c0.1,0,0.1,0,0.2,0l2.5,0c0.2,0,0.4,0,0.6,0
	c0.1,0,0.2,0.1,0.3,0.1L20,8.6c0.1,0.3-0.3,1.2-1.3,2.4c-0.1,0.2-0.3,0.4-0.6,0.7c-0.5,0.5-0.7,0.9-0.8,1.1
	C17.2,13,17.2,13.3,17.4,13.5z"/>
</svg>