<svg version="1.1" xmlns="http://www.w3.org/2000/svg" xmlns:xlink="http://www.w3.org/1999/xlink" viewBox="0 0 24 24" xml:space="preserve">
<path d="M2,8.1C2,7.5,2,7.3,2.1,7c0.1-0.2,0.2-0.3,0.4-0.4C2.8,6.5,3,6.5,3.6,6.5H4c0.6,0,0.8,0,1.1,0.1
	C5.3,6.7,5.4,6.9,5.5,7c0.1,0.2,0.1,0.5,0.1,1.1v13.3c0,0.6,0,0.8-0.1,1.1c-0.1,0.2-0.2,0.3-0.4,0.4C4.9,23,4.6,23,4,23H3.6
	c-0.6,0-0.8,0-1.1-0.1c-0.2-0.1-0.3-0.2-0.4-0.4C2,22.2,2,22,2,21.4V8.1z"/>
<path d="M18.4,8.1c0-0.6,0-0.8,0.1-1.1c0.1-0.2,0.2-0.3,0.4-0.4c0.2-0.1,0.5-0.1,1.1-0.1h0.4
	c0.6,0,0.8,0,1.1,0.1c0.2,0.1,0.3,0.2,0.4,0.4C22,7.3,22,7.5,22,8.1v13.3c0,0.6,0,0.8-0.1,1.1c-0.1,0.2-0.2,0.3-0.4,0.4
	C21.2,23,21,23,20.4,23H20c-0.6,0-0.8,0-1.1-0.1c-0.2-0.1-0.3-0.2-0.4-0.4c-0.1-0.2-0.1-0.5-0.1-1.1V8.1z"/>
<path d="M7.5,2.6c0-0.6,0-0.8,0.1-1.1C7.7,1.4,7.8,1.2,8,1.1C8.2,1,8.5,1,9.1,1h0.4c0.6,0,0.8,0,1.1,0.1
	c0.2,0.1,0.3,0.2,0.4,0.4c0.1,0.2,0.1,0.5,0.1,1.1v18.8c0,0.6,0,0.8-0.1,1.1c-0.1,0.2-0.2,0.3-0.4,0.4C10.3,23,10.1,23,9.5,23H9.1
	c-0.6,0-0.8,0-1.1-0.1c-0.2-0.1-0.3-0.2-0.4-0.4c-0.1-0.2-0.1-0.5-0.1-1.1V2.6z"/>
<path d="M12.9,10.9c0-0.6,0-0.8,0.1-1.1c0.1-0.2,0.2-0.3,0.4-0.4c0.2-0.1,0.5-0.1,1.1-0.1h0.4
	c0.6,0,0.8,0,1.1,0.1c0.2,0.1,0.3,0.2,0.4,0.4c0.1,0.2,0.1,0.5,0.1,1.1v10.5c0,0.6,0,0.8-0.1,1.1c-0.1,0.2-0.2,0.3-0.4,0.4
	C15.8,23,15.5,23,14.9,23h-0.4c-0.6,0-0.8,0-1.1-0.1c-0.2-0.1-0.3-0.2-0.4-0.4c-0.1-0.2-0.1-0.5-0.1-1.1V10.9z"/>
</svg>
