<svg version="1.1" xmlns="http://www.w3.org/2000/svg" xmlns:xlink="http://www.w3.org/1999/xlink" viewBox="0 0 24 24" xml:space="preserve">
<path d="M5,0h6v3.6c0,0.5,0,0.7-0.1,0.9c-0.1,0.2-0.2,0.3-0.4,0.4C10.3,5,10.1,5,9.6,5H6.4
	C5.9,5,5.7,5,5.5,4.9C5.3,4.8,5.2,4.7,5.1,4.5C5,4.3,5,4.1,5,3.6V0z"/>
<path d="M5,19.9C5,19.4,5.4,19,5.9,19h4.3c0.5,0,0.9,0.4,0.9,0.9V24H5V19.9z"/>
<path d="M5.9,7h4.3C10.6,7,11,7.4,11,7.9v8.3c0,0.5-0.4,0.9-0.9,0.9H5.9C5.4,17,5,16.6,5,16.1V7.9
	C5,7.4,5.4,7,5.9,7z"/>
<path d="M13,0h6v1.6c0,0.5,0,0.7-0.1,0.9c-0.1,0.2-0.2,0.3-0.4,0.4C18.3,3,18.1,3,17.6,3h-3.3
	c-0.5,0-0.7,0-0.9-0.1c-0.2-0.1-0.3-0.2-0.4-0.4C13,2.3,13,2.1,13,1.6V0z"/>
<path d="M13,22.9c0-0.5,0.4-0.9,0.9-0.9h4.3c0.5,0,0.9,0.4,0.9,0.9V24h-6V22.9z"/>
<path d="M13.9,5h4.3C18.6,5,19,5.4,19,5.9v13.3c0,0.5-0.4,0.9-0.9,0.9h-4.3c-0.5,0-0.9-0.4-0.9-0.9V5.9
	C13,5.4,13.4,5,13.9,5z"/>
</svg>
