<svg version="1.1" xmlns="http://www.w3.org/2000/svg" xmlns:xlink="http://www.w3.org/1999/xlink" viewBox="0 0 24 24" xml:space="preserve">
<path d="M2.1,12.2H0.5c-0.4,0-0.7-0.5-0.4-0.9l0.3-0.4C1.2,9.8,2.1,8.7,3,7.8l0,0c0.3-0.4,0.8-0.4,1.1,0
	c0.9,1,1.8,2,2.6,3.1L7,11.3c0.3,0.4,0,0.9-0.4,0.9H5c0.1,4.4,3.7,7.9,8.1,7.9c4.5,0,8.1-3.6,8.1-8.1c0-4.5-3.6-8.1-8.1-8.1
	c-1.5,0-2.9,0.4-4.2,1.2c-0.7,0.4-1.6,0.2-2-0.5C6.5,3.9,6.7,3,7.4,2.6c1.7-1,3.7-1.6,5.7-1.6C19.1,1,24,5.9,24,12
	c0,6-4.9,11-10.9,11C7.1,23,2.2,18.2,2.1,12.2z M13.6,6v4.1c0.9,0.2,1.5,1,1.5,2c0,0.4-0.1,0.7-0.3,1l2,2c0.2,0.2,0.2,0.5,0,0.8
	c-0.2,0.2-0.5,0.2-0.8,0l-2-2c-0.3,0.2-0.6,0.3-1,0.3c-1.1,0-2-0.9-2-2c0-0.9,0.6-1.7,1.5-2V6c0-0.3,0.2-0.5,0.5-0.5
	C13.4,5.4,13.6,5.7,13.6,6z M12.1,12c0-0.5,0.4-1,1-1c0.5,0,1,0.5,0.9,1c0,0.3-0.1,0.5-0.3,0.7c-0.2,0.2-0.4,0.3-0.7,0.3
	C12.5,13,12.1,12.6,12.1,12z"/>
</svg>
