<svg version="1.1" xmlns="http://www.w3.org/2000/svg" xmlns:xlink="http://www.w3.org/1999/xlink" viewBox="0 0 25 25" xml:space="preserve">
<path d="M18.5,19.2c0.4-0.3,0.5-1,0.2-1.4c-0.3-0.4-1-0.5-1.4-0.2L18.5,19.2z M12,20.5v1c0,0,0,0,0,0L12,20.5
	z M6.7,7.4C7.1,7,7.2,6.4,6.9,6c-0.3-0.4-1-0.5-1.4-0.2L6.7,7.4z M9.7,3.8C9.1,3.9,8.8,4.4,8.9,5s0.7,0.9,1.2,0.7L9.7,3.8z M12,4.5
	l0,1h0V4.5z M20.1,15c-0.4,0.4-0.3,1.1,0.1,1.4c0.4,0.4,1.1,0.3,1.4-0.1L20.1,15z M14.9,15.3c0.4-0.4,0.4-1,0-1.4
	c-0.4-0.4-1-0.4-1.4,0L14.9,15.3z M10.6,11.1c0.4-0.4,0.4-1,0-1.4c-0.4-0.4-1-0.4-1.4,0L10.6,11.1z M17.3,17.6
	c-1.5,1.2-3.4,1.8-5.4,1.9l0,2c2.4,0,4.7-0.8,6.5-2.3L17.3,17.6z M12,19.5c-3.3,0-5.8-1.2-7.5-2.6C2.8,15.4,2,13.6,2,12.5H0
	c0,1.9,1.2,4.1,3.2,5.9c2.1,1.8,5,3.1,8.8,3.1V19.5z M2,12.5c0-1.1,0.5-1.9,1.4-2.8C3.9,9.3,4.4,9,5,8.6c0.5-0.4,1.2-0.8,1.7-1.2
	L5.5,5.8C5,6.1,4.4,6.5,3.8,6.9C3.2,7.3,2.6,7.8,2.1,8.3C1,9.3,0,10.6,0,12.5H2z M10.1,5.7c0.6-0.1,1.2-0.2,1.9-0.2l0-2
	c-0.8,0-1.6,0.1-2.3,0.3L10.1,5.7z M12,5.5c3.1,0,5.6,1.6,7.4,3.3c0.9,0.9,1.5,1.8,2,2.5c0.2,0.4,0.4,0.7,0.5,0.9
	c0.1,0.3,0.1,0.4,0.1,0.3l2-0.3c0-0.3-0.2-0.6-0.3-0.9c-0.2-0.3-0.4-0.7-0.6-1.1c-0.5-0.9-1.3-1.9-2.3-2.9c-2-2-4.9-3.9-8.8-3.9V5.5
	z M22,12.6c0,0,0,0-0.1,0.2c-0.1,0.2-0.2,0.4-0.4,0.6c-0.2,0.2-0.4,0.5-0.7,0.8c-0.2,0.3-0.5,0.5-0.7,0.8l1.5,1.3
	c0.2-0.2,0.4-0.5,0.7-0.7c0.2-0.3,0.5-0.6,0.8-0.9c0.2-0.3,0.5-0.6,0.7-1c0.2-0.4,0.3-0.8,0.3-1.3L22,12.6z M13.4,13.9
	c-0.5,0.5-1.2,0.8-2,0.6l-0.5,1.9c1.4,0.4,2.9-0.1,3.9-1.1L13.4,13.9z M11.4,14.5c-0.7-0.2-1.3-0.7-1.4-1.4L8,13.6
	c0.4,1.4,1.5,2.5,2.9,2.9L11.4,14.5z M10,13.1c-0.2-0.7,0-1.5,0.6-2L9.2,9.6c-1.1,1-1.5,2.5-1.1,3.9L10,13.1z"/>
<path d="M23,24.5c-0.3,0-0.5-0.1-0.7-0.3l-22-22c-0.4-0.4-0.4-1,0-1.4s1-0.4,1.4,0l22,22c0.4,0.4,0.4,1,0,1.4
	C23.5,24.4,23.3,24.5,23,24.5z"/>
</svg>
