<svg version="1.1" xmlns="http://www.w3.org/2000/svg" xmlns:xlink="http://www.w3.org/1999/xlink" viewBox="0 0 59 59" xml:space="preserve">
<path d="M21.8,35.7c2.3,3.7,7.5,3.6,7.5,3.6s5.2,0,7.5-3.6c2.3-3.6,5.2-10.1,5.5-14.5
	c0.3-4.4-0.6-10.9-2.4-13.6c-3.5-5.1-10.6-5.1-10.6-5.1s-7.1,0-10.6,5.1c-1.9,2.7-2.7,9.2-2.4,13.6C16.7,25.6,19.6,32.1,21.8,35.7z"
	/>
<path d="M58.6,53.1c-0.2-1.7-0.7-3.8-1.5-6c-1.2-3.3-3.6-6.2-6.9-7.3c-4.2-1.4-8-2.2-10.6-2.6
	c0,0.1-0.1,0.2-0.1,0.2c-3.1,5-9.5,5.1-10.2,5.1c0,0,0,0,0,0s0,0,0,0c-0.7,0-7.1-0.1-10.2-5.1c0-0.1-0.1-0.2-0.1-0.2
	c-2.6,0.4-6.3,1.2-10.6,2.6c-3.2,1.1-5.7,4-6.9,7.3c-0.8,2.2-1.3,4.3-1.5,6C0.1,53.4,0,53.7,0,54c0.1,1.4,1.2,2.5,2.6,2.5h26.7h26.7
	c1.4,0,2.6-1.1,2.6-2.5C58.7,53.7,58.6,53.4,58.6,53.1z"/>
</svg>
