<svg version="1.1" xmlns="http://www.w3.org/2000/svg" xmlns:xlink="http://www.w3.org/1999/xlink" viewBox="0 0 16 16" xml:space="preserve">
<path d="M9.7,0h0.7C10.7,0,11,0.3,11,0.7v13.7c0,0.4-0.3,0.7-0.7,0.7H9.7C9.3,15,9,14.7,9,14.3V0.7
	C9,0.3,9.3,0,9.7,0z"/>
<path d="M5.7,5h0.7C6.7,5,7,5.3,7,5.7v8.7C7,14.7,6.7,15,6.3,15H5.7C5.3,15,5,14.7,5,14.3V5.7
	C5,5.3,5.3,5,5.7,5z"/>
<path d="M1.7,2h0.7C2.7,2,3,2.3,3,2.7v11.7C3,14.7,2.7,15,2.3,15H1.7C1.3,15,1,14.7,1,14.3V2.7
	C1,2.3,1.3,2,1.7,2z"/>
<path d="M13.7,2h0.7C14.7,2,15,2.3,15,2.7v11.7c0,0.4-0.3,0.7-0.7,0.7h-0.7c-0.4,0-0.7-0.3-0.7-0.7V2.7
	C13,2.3,13.3,2,13.7,2z"/>
</svg>
