<svg version="1.1" xmlns="http://www.w3.org/2000/svg" xmlns:xlink="http://www.w3.org/1999/xlink" viewBox="0 0 9 9" xml:space="preserve">
<path d="M1,8.5c0,0-0.1,0-0.1,0C0.6,8.4,0.4,8.1,0.5,7.9L1.2,5C1.3,4.6,1.6,4.2,2,4c0.4-0.2,0.8-0.2,1.2-0.1
	l1.1,0.3c0.1,0,0.3,0,0.4,0S4.8,4,4.8,3.8l0.7-2.9c0.1-0.3,0.3-0.4,0.6-0.4c0.3,0.1,0.4,0.3,0.4,0.6L5.8,4.1C5.7,4.5,5.5,4.8,5.1,5
	C4.7,5.2,4.3,5.3,3.9,5.2L2.8,4.8c-0.1,0-0.3,0-0.4,0C2.3,5,2.2,5.1,2.2,5.2L1.5,8.1C1.4,8.3,1.2,8.5,1,8.5z"/>
<path d="M7,2.9c-0.2,0-0.4-0.1-0.5-0.3L6,1.3L4.7,2.2C4.5,2.4,4.2,2.4,4,2.1C3.8,1.9,3.9,1.6,4.1,1.4l1.8-1.3
	C6,0.1,6.1,0,6.3,0.1c0.1,0,0.3,0.1,0.3,0.3l0.9,1.8c0.1,0.2,0,0.5-0.2,0.7C7.2,2.9,7.1,2.9,7,2.9z"/>
</svg>
