<svg version="1.1" xmlns="http://www.w3.org/2000/svg" xmlns:xlink="http://www.w3.org/1999/xlink" viewBox="0 0 24 24" xml:space="preserve">
<path d="M12,24c6.6,0,12-5.4,12-12c0-6.6-5.4-12-12-12C5.4,0,0,5.4,0,12C0,18.6,5.4,24,12,24z"/>
<path style="fill:#FFFFFF;" d="M19.2,13.6h-7.9c-0.4,0-0.8-0.4-0.8-0.8L10.4,4c0-0.4,0.4-0.8,0.8-0.8c0,0,0,0,0,0
	C11.6,3.2,12,3.6,12,4l0.1,8h7.1c0.4,0,0.8,0.4,0.8,0.8C20,13.2,19.6,13.6,19.2,13.6z"/>
<path style="fill:#FFFFFF;" d="M20,11.2l-0.4,0c0-0.2,0-1.3-0.8-2.9c-0.1-0.2,0-0.4,0.2-0.5c0.2-0.1,0.4,0,0.5,0.2
	c0.8,1.7,0.9,3,0.9,3.2L20,11.2z M19.6,11.2l0.4,0L19.6,11.2z M18.4,7.2c-0.1,0-0.3-0.1-0.3-0.2c-0.2-0.3-0.4-0.6-0.7-0.9
	c-0.5-0.5-0.9-1-1.5-1.4c-0.2-0.1-0.2-0.4-0.1-0.6s0.4-0.2,0.6-0.1C17,4.5,17.5,5,18,5.6c0.3,0.3,0.5,0.6,0.7,0.9
	c0.1,0.2,0.1,0.4-0.1,0.6C18.5,7.1,18.4,7.2,18.4,7.2z M14.8,4.1c-0.1,0-0.1,0-0.2,0c-0.9-0.4-1.6-0.4-1.8-0.4
	c-0.2,0-0.4-0.2-0.4-0.4c0-0.2,0.1-0.4,0.4-0.4c0.3,0,1.1,0,2.2,0.5c0.2,0.1,0.3,0.3,0.2,0.5C15.1,4,14.9,4.1,14.8,4.1z"/>
</svg>
