<svg version="1.1" xmlns="http://www.w3.org/2000/svg" xmlns:xlink="http://www.w3.org/1999/xlink" viewBox="0 0 26 26" xml:space="preserve">
<path d="M1.4,15.2c0-0.3,0-0.5,0.1-0.7c0.1-0.1,0.2-0.2,0.3-0.3c0.1-0.1,0.3-0.1,0.7-0.1h3.1
	c0.3,0,0.5,0,0.7,0.1c0.1,0.1,0.2,0.2,0.3,0.3c0.1,0.1,0.1,0.3,0.1,0.7V22c0,0.3,0,0.5-0.1,0.7c-0.1,0.1-0.2,0.2-0.3,0.3
	C6.1,23,5.9,23,5.6,23H2.4c-0.3,0-0.5,0-0.7-0.1c-0.1-0.1-0.2-0.2-0.3-0.3c-0.1-0.1-0.1-0.3-0.1-0.7V15.2z"/>
<path d="M7.8,8.3c0-0.1-0.1-0.1-0.2-0.1L5.3,7.9L4.2,5.6c0-0.1-0.1-0.1-0.2-0.1c-0.1,0-0.1,0-0.2,0.1L2.7,7.9
	L0.3,8.2c-0.1,0-0.1,0.1-0.2,0.1c0,0.1,0,0.2,0.1,0.2L2,10.3l-0.4,2.5c0,0.1,0,0.2,0.1,0.2c0,0,0.1,0,0.1,0c0,0,0.1,0,0.1,0L4,11.8
	L6.2,13c0.1,0,0.2,0,0.2,0c0.1,0,0.1-0.1,0.1-0.2L6,10.3l1.8-1.7C7.9,8.5,7.9,8.4,7.8,8.3z"/>
<path d="M10.4,12.7c0-0.3,0-0.5,0.1-0.7c0.1-0.1,0.2-0.2,0.3-0.3c0.1-0.1,0.3-0.1,0.7-0.1h3.1
	c0.3,0,0.5,0,0.7,0.1c0.1,0.1,0.2,0.2,0.3,0.3c0.1,0.1,0.1,0.3,0.1,0.7V22c0,0.3,0,0.5-0.1,0.7c-0.1,0.1-0.2,0.2-0.3,0.3
	C15.1,23,14.9,23,14.6,23h-3.1c-0.3,0-0.5,0-0.7-0.1c-0.1-0.1-0.2-0.2-0.3-0.3c-0.1-0.1-0.1-0.3-0.1-0.7V12.7z"/>
<path d="M16.8,5.8c0-0.1-0.1-0.1-0.2-0.1l-2.4-0.4l-1.1-2.2C13.1,3,13.1,3,13,3c-0.1,0-0.1,0-0.2,0.1
	l-1.1,2.2L9.3,5.7c-0.1,0-0.1,0.1-0.2,0.1c0,0.1,0,0.2,0.1,0.2L11,7.8l-0.4,2.5c0,0.1,0,0.2,0.1,0.2c0,0,0.1,0,0.1,0
	c0,0,0.1,0,0.1,0L13,9.3l2.2,1.2c0.1,0,0.2,0,0.2,0c0.1,0,0.1-0.1,0.1-0.2L15,7.8l1.8-1.7C16.9,6,16.9,5.9,16.8,5.8z"/>
<path d="M19.4,17.7c0-0.3,0-0.5,0.1-0.7c0.1-0.1,0.2-0.2,0.3-0.3c0.1-0.1,0.3-0.1,0.7-0.1h3.1
	c0.3,0,0.5,0,0.7,0.1c0.1,0.1,0.2,0.2,0.3,0.3c0.1,0.1,0.1,0.3,0.1,0.7V22c0,0.3,0,0.5-0.1,0.7c-0.1,0.1-0.2,0.2-0.3,0.3
	C24.1,23,23.9,23,23.6,23h-3.1c-0.3,0-0.5,0-0.7-0.1c-0.1-0.1-0.2-0.2-0.3-0.3c-0.1-0.1-0.1-0.3-0.1-0.7V17.7z"/>
<path d="M25.8,10.8c0-0.1-0.1-0.1-0.2-0.1l-2.4-0.4l-1.1-2.2C22.1,8,22.1,8,22,8c-0.1,0-0.1,0-0.2,0.1
	l-1.1,2.2l-2.4,0.4c-0.1,0-0.1,0.1-0.2,0.1c0,0.1,0,0.2,0.1,0.2l1.8,1.7l-0.4,2.5c0,0.1,0,0.2,0.1,0.2c0,0,0.1,0,0.1,0
	c0,0,0.1,0,0.1,0l2.2-1.2l2.2,1.2c0.1,0,0.2,0,0.2,0c0.1,0,0.1-0.1,0.1-0.2L24,12.8l1.8-1.7C25.9,11,25.9,10.9,25.8,10.8z"/>
</svg>
