<svg version="1.1" xmlns="http://www.w3.org/2000/svg" xmlns:xlink="http://www.w3.org/1999/xlink" viewBox="0 0 40 40" xml:space="preserve">
<linearGradient id="SVGID_1_" gradientUnits="userSpaceOnUse" x1="17.4189" y1="31.4457" x2="24.1487" y2="30.9199" gradientTransform="matrix(1 0 0 -1 0 40)">
	<stop  offset="0" style="stop-color:#EEEEEE"/>
	<stop  offset="1" style="stop-color:#D8D8D8"/>
</linearGradient>
<path style="fill:url(#SVGID_1_);" d="M16.8,14.1c-0.2,0.4-0.1,0.9,0.3,1.1c0.4,0.2,0.9,0.1,1.1-0.3l6.7-11.4
	c0.2-0.4,0.1-0.9-0.3-1.1c-0.4-0.2-0.9-0.1-1.1,0.3L16.8,14.1z"/>
<linearGradient id="SVGID_2_" gradientUnits="userSpaceOnUse" x1="18.9007" y1="28.3431" x2="22.721" y2="33.9084" gradientTransform="matrix(1 0 0 -1 0 40)">
	<stop  offset="0" style="stop-color:#EEEEEE"/>
	<stop  offset="1" style="stop-color:#D8D8D8"/>
</linearGradient>
<path style="fill:url(#SVGID_2_);" d="M23.5,14.9c0.2,0.4,0.7,0.5,1.1,0.3c0.4-0.2,0.5-0.7,0.3-1.1L18.2,2.7
	c-0.2-0.4-0.7-0.5-1.1-0.3c-0.4,0.2-0.5,0.7-0.3,1.1L23.5,14.9z"/>
<linearGradient id="SVGID_3_" gradientUnits="userSpaceOnUse" x1="9.5339" y1="1.8319" x2="17.1801" y2="30.643" gradientTransform="matrix(1 0 0 -1 0 40)">
	<stop  offset="0" style="stop-color:#8C8C95"/>
	<stop  offset="1" style="stop-color:#D8D8D8"/>
</linearGradient>
<path style="fill:url(#SVGID_3_);" d="M0,36c-0.2,1,0.6,2,1.7,2h19c0.8,0,1.5-0.6,1.7-1.4l3.8-25.8c0.2-1-0.6-1.9-1.7-1.9H6.2
	c-0.8,0-1.5,0.6-1.7,1.4L0,36z"/>
<linearGradient id="SVGID_4_" gradientUnits="userSpaceOnUse" x1="32.5672" y1="30.7883" x2="24.921" y2="1.9772" gradientTransform="matrix(1 0 0 -1 0 40)">
	<stop  offset="0" style="stop-color:#EEEEEE"/>
	<stop  offset="1" style="stop-color:#D8D8D8"/>
</linearGradient>
<path style="fill:url(#SVGID_4_);" d="M36.1,10.3c-0.1-0.8-0.8-1.4-1.7-1.4H19.3c-0.8,0-1.5,0.6-1.7,1.4l-3.8,25.8
	c-0.2,1,0.6,1.9,1.7,1.9h22.9c1,0,1.8-0.9,1.7-1.9L36.1,10.3z"/>
<path style="fill:#B0B0B0;" d="M33.7,14.1c-0.1-0.8-0.8-1.4-1.7-1.4H21.7c-0.8,0-1.5,0.6-1.7,1.4l-2.7,18.1c-0.2,1,0.6,1.9,1.7,1.9
	h15.8c1,0,1.8-0.9,1.7-1.9L33.7,14.1z"/>
</svg>
