<svg version="1.1" xmlns="http://www.w3.org/2000/svg" xmlns:xlink="http://www.w3.org/1999/xlink" viewBox="0 0 24 24" xml:space="preserve">
<path d="M15.9,5c0,0.4,0.3,0.7,0.7,0.7c0.4,0,0.7-0.3,0.7-0.7c0-0.4-0.3-0.7-0.7-0.7
	C16.2,4.2,15.9,4.5,15.9,5z"/>
<path d="M19.1,8.2c0,0.4,0.3,0.7,0.7,0.7c0.4,0,0.7-0.3,0.7-0.7c0-0.4-0.3-0.7-0.7-0.7
	C19.5,7.5,19.1,7.8,19.1,8.2z"/>
<path d="M21.1,13.5c0.4,0,0.8-0.4,0.8-0.8c0-0.4-0.4-0.8-0.8-0.8c-0.4,0-0.8,0.4-0.8,0.8
	C20.3,13.1,20.6,13.5,21.1,13.5z"/>
<path d="M19.9,18.1c0.5,0,1-0.4,1-1c0-0.5-0.4-1-1-1s-1,0.4-1,1C18.9,17.7,19.3,18.1,19.9,18.1z"/>
<path d="M15.7,20.5c0,0.5,0.4,1,1,1c0.5,0,0.9-0.4,0.9-1c0-0.5-0.4-1-0.9-1C16.1,19.5,15.7,19.9,15.7,20.5z"
	/>
<path d="M11.2,21.7c0,0.6,0.5,1.1,1.1,1.1c0.6,0,1.1-0.5,1.1-1.1c0-0.6-0.5-1.1-1.1-1.1
	C11.6,20.7,11.2,21.1,11.2,21.7z"/>
<path d="M7.8,21.5c0.6,0,1.1-0.5,1.1-1.1c0-0.6-0.5-1.1-1.1-1.1c-0.6,0-1.1,0.5-1.1,1.1
	C6.8,21.1,7.2,21.5,7.8,21.5z"/>
<path d="M3.3,17.2c0,0.7,0.5,1.2,1.2,1.2c0.7,0,1.2-0.5,1.2-1.2c0-0.7-0.5-1.2-1.2-1.2
	C3.9,15.9,3.3,16.5,3.3,17.2z"/>
<path d="M2.1,12.7c0,0.7,0.5,1.2,1.2,1.2c0.7,0,1.2-0.5,1.2-1.2c0-0.7-0.5-1.2-1.2-1.2
	C2.7,11.5,2.1,12,2.1,12.7z"/>
<path d="M3.1,8.2c0,0.8,0.6,1.4,1.4,1.4c0.8,0,1.4-0.6,1.4-1.4c0-0.8-0.6-1.4-1.4-1.4
	C3.8,6.8,3.1,7.4,3.1,8.2z"/>
<path d="M6.4,5c0,0.8,0.6,1.4,1.4,1.4c0.8,0,1.4-0.6,1.4-1.4c0-0.8-0.6-1.4-1.4-1.4C7,3.5,6.4,4.2,6.4,5z"/>
<path d="M10.7,3.7c0,0.8,0.7,1.5,1.5,1.5c0.8,0,1.5-0.7,1.5-1.5c0-0.8-0.7-1.5-1.5-1.5
	C11.4,2.2,10.7,2.9,10.7,3.7z"/>
</svg>
