<svg version="1.1" xmlns="http://www.w3.org/2000/svg" xmlns:xlink="http://www.w3.org/1999/xlink" viewBox="0 0 80 80" xml:space="preserve">
<path d="M43.6,22.7c-1.8-0.7-3.8-0.9-5.7-0.6c-1.9,0.4-3.7,1.3-5.1,2.7c-1.4,1.4-2.3,3.1-2.7,5.1
	s-0.2,3.9,0.6,5.7c0.7,1.8,2,3.4,3.6,4.4c1.6,1.1,3.5,1.7,5.5,1.7c2.6,0,5.1-1,7-2.9c1.9-1.9,2.9-4.4,2.9-7c0-2-0.6-3.9-1.7-5.5
	C46.9,24.7,45.4,23.5,43.6,22.7z M41.9,33.2c-0.1,0.3-0.2,0.6-0.4,0.8c-0.2,0.2-0.5,0.4-0.8,0.6c-0.3,0.1-0.6,0.2-0.9,0.2
	c-0.3,0-0.6-0.1-0.9-0.2c-0.3-0.1-0.5-0.3-0.8-0.6s-0.4-0.5-0.4-0.8c-0.1-0.3-0.1-0.6-0.1-0.9c0-0.3,2.2-7.9,2.2-7.9
	s2.1,7.7,2.1,7.9C42,32.6,42,32.9,41.9,33.2z"/>
<path d="M44.6,47.9h-9.7c-1.7,0-3.1,1-3.1,2.3V52c0,1.3,1.4,2.3,3.1,2.3h9.7c1.7,0,3.1-1,3.1-2.3h0v-1.7
	C47.7,49,46.3,47.9,44.6,47.9z"/>
<path d="M40,0C17.9,0,0,17.9,0,40s17.9,40,40,40s40-17.9,40-40S62.1,0,40,0z M65.6,57.5c0,0.5-0.1,1-0.3,1.5
	c-0.2,0.5-0.5,0.9-0.9,1.3c-0.4,0.4-0.8,0.7-1.3,0.9c-0.5,0.2-1,0.3-1.5,0.3H17.9c-0.5,0-1-0.1-1.5-0.3c-0.5-0.2-0.9-0.5-1.3-0.9
	c-0.4-0.4-0.7-0.8-0.9-1.3c-0.2-0.5-0.3-1-0.3-1.5V25.9c0-0.5,0.1-1,0.3-1.5c0.2-0.5,0.5-0.9,0.9-1.3c0.4-0.4,0.8-0.7,1.3-0.9
	s1-0.3,1.5-0.3h12.2c1.2-1.2,2.7-2.2,4.3-2.9c2.5-1.1,5.3-1.4,8-0.8c2.7,0.5,5.1,1.8,7.1,3.7h12.2c0.5,0,1,0.1,1.5,0.3
	c0.5,0.2,0.9,0.5,1.3,0.9c0.4,0.4,0.7,0.8,0.9,1.3c0.2,0.5,0.3,1,0.3,1.5V57.5z"/>
</svg>