<svg version="1.1" xmlns="http://www.w3.org/2000/svg" xmlns:xlink="http://www.w3.org/1999/xlink" viewBox="0 0 80 80" xml:space="preserve">
<path d="M19.8,35.5c0.3-0.1,0.6-0.1,1-0.2c-0.2-0.4-0.3-0.8-0.5-1.2C20.1,34.5,20,35,19.8,35.5z"/>
<ellipse transform="matrix(0.8868 -0.4622 0.4622 0.8868 -23.0769 29.2467)" cx="48.2" cy="61.7" rx="1.5" ry="1.5"/>
<path d="M40,0C17.9,0,0,17.9,0,40s17.9,40,40,40s40-17.9,40-40S62.1,0,40,0z M45.5,42.4l5.3-2.7l8.4,16.1l-5.3,2.7
	c-0.3,0.1-0.6,0-0.8-0.2l-7.8-15.1C45.2,42.9,45.3,42.6,45.5,42.4z M24.9,13.2c2.6,0.3,11.1,2.2,6,5.1c0.2,0.2,0.4,0.3,0.5,0.5
	c0,0,1.1,1.6,1.5,3.2c-0.6-0.5-1.4-1-2.2-1.4c-0.2-0.1-0.4-0.2-0.6-0.3c-3-1.7-6.5-3.2-6.9-3.4c0,0,0,0,0,0s0,0,0-0.1
	c0-0.2,0-0.8,0.1-1.1C23,14.6,22.9,13,24.9,13.2z M22.4,18.1c0.1-0.4,0.3-0.8,0.6-1.1c0,0.1,0,0.1,0,0.1s0,0,0,0
	c0.4,0.2,4,1.8,6.9,3.4c0.2,0.1,0.4,0.2,0.6,0.3c-0.8,2.2-3.2,3.4-5.4,2.7C22.9,22.8,21.7,20.3,22.4,18.1z M49.9,65.1
	c-1.9,1-4.2,0.2-5.2-1.6c-1-1.9-0.2-4.2,1.6-5.2c1.9-1,4.2-0.2,5.2,1.6C52.5,61.8,51.8,64.1,49.9,65.1z M54.4,62.4l-0.8,0.4L40,36.6
	c-0.2,0.2-0.5,0.3-0.9,0.4c-1.8-0.4-3.6-0.7-5.4-1.1l-1.4,0.3c1.2,2.8,2.5,5.6,3.7,8.5l0,0c1.1,2.5,2.2,5,3.3,7.5h0c1.3,3,2.6,6,4,9
	c0.2,2.3-2.7,3.6-4.2,1.9c-1.3-3-2.7-6.1-4-9.1h0c-1.1-2.5-2.2-4.9-3.2-7.4l-0.5,0.2c0,0,0,0,0,0c0.2,2.9,0.4,5.7,0.6,8.6l0,0
	c0,0,0,0,0,0c0,0,0,0,0,0h0c-1.3,3-2.6,6.1-3.8,9.1c-1.6,1.7-4.4,0.5-4.3-1.8c1.1-2.7,2.3-5.4,3.4-8.1c-0.1-2-0.3-3.9-0.4-5.9
	l-0.1,0c-1.5-3.5-3-7-4.6-10.5c-1.5,0.3-3.1,0.6-4.6,0.9c-0.9-0.1-1.4-0.9-1.4-1.7c0-0.1,0-0.2-0.1-0.4c0.9-2.7,1.8-5.5,2.6-8.2
	c0.1-0.8,0.3-1.5,0.7-2.2c0-0.1,0.1-0.2,0.1-0.2c0,0,0,0,0.1,0c1.9-2.8,6.4-3.4,8.7,0.1c1,2.2,1.9,4.4,2.9,6.6l2.7-0.5l0,0
	c0,0,0,0,0,0l0.1,0l0,0.1c2,0.4,3.9,0.8,5.9,1.2c0.7,0.4,0.9,1.1,0.8,1.7l12.6,24.2l10.3-5.3l0.4,0.8l-10.3,5.3L54.4,62.4z
	 M65.8,52.3l-5.5,2.9l-8.4-16.1l5.5-2.9c0.3-0.1,0.6,0,0.8,0.2l7.8,15.1C66.2,51.8,66.1,52.2,65.8,52.3z"/>
</svg>