<svg version="1.1" xmlns="http://www.w3.org/2000/svg" xmlns:xlink="http://www.w3.org/1999/xlink" viewBox="0 0 80 80" xml:space="preserve">
<path d="M40,0C17.9,0,0,17.9,0,40s17.9,40,40,40s40-17.9,40-40S62.1,0,40,0z M36.6,32.1
	c-0.7,0.7-1.3,1.5-1.7,2.4c-0.4,0.9-0.6,1.9-0.6,2.9c0.1,7.9,2.3,16.5,1,25.7c-0.4,2.4-1.4,3.2-2.8,3.2c-1.5,0-2.5-0.8-2.8-3.2
	c-1.4-9.2,0.9-17.8,1-25.7c0-1-0.2-2-0.6-2.9c-0.4-0.9-1-1.7-1.7-2.4c-2.3-2.3-2.6-4.7-2.1-10.6l0.6-5.7c0-0.2,0.1-0.4,0.3-0.5
	c0.2-0.1,0.4-0.2,0.6-0.2h0c0.1,0,0.2,0,0.3,0.1c0.1,0,0.2,0.1,0.3,0.2s0.1,0.2,0.2,0.3c0,0.1,0.1,0.2,0.1,0.3v10.3
	c0,0.2,0,0.5,0.2,0.6c0.1,0.2,0.4,0.3,0.6,0.3c0.2,0,0.4-0.1,0.6-0.3c0.1-0.2,0.2-0.4,0.2-0.6V15.8c0-0.2,0.1-0.4,0.2-0.6
	s0.4-0.2,0.6-0.2c0.2,0,0.4,0.1,0.6,0.2c0.2,0.2,0.2,0.4,0.2,0.6v10.3c0,0.2,0,0.5,0.2,0.6c0.1,0.2,0.4,0.3,0.6,0.3
	c0.2,0,0.4-0.1,0.6-0.3c0.1-0.2,0.2-0.4,0.2-0.6V15.8c0-0.2,0.1-0.4,0.2-0.6c0.2-0.2,0.4-0.2,0.6-0.2c0.2,0,0.4,0.1,0.6,0.2
	s0.2,0.4,0.2,0.6v10.3c0,0.1,0,0.2,0,0.4c0,0.1,0.1,0.2,0.2,0.3c0.1,0.1,0.2,0.2,0.3,0.2c0.1,0.1,0.2,0.1,0.3,0.1
	c0.1,0,0.2,0,0.3-0.1c0.1-0.1,0.2-0.1,0.3-0.2c0.1-0.1,0.1-0.2,0.2-0.3c0-0.1,0-0.2,0-0.4V15.8c0-0.2,0.1-0.4,0.2-0.6
	c0.2-0.2,0.4-0.2,0.6-0.2h0c0.2,0,0.4,0.1,0.6,0.2c0.2,0.1,0.2,0.3,0.3,0.5l0.6,5.7C39.3,27.4,38.9,29.8,36.6,32.1z M53.4,62.9
	c0,2.6-1.1,3.5-2.4,3.5c-0.4,0-0.8-0.1-1.1-0.3c-0.4-0.2-0.7-0.4-0.9-0.8c-2.4-2.8-0.7-10.7,0.5-17.4c0.5-2.9,1-4.2-0.6-5.8
	c-2.1-2.1-4.6-8.4-2.7-17.8c1.2-6,4.6-8.3,5.5-8.9c1.2-0.8,1.8-0.2,1.8,0.6V62.9z"/>
</svg>