<svg version="1.1" xmlns="http://www.w3.org/2000/svg" xmlns:xlink="http://www.w3.org/1999/xlink" viewBox="0 0 80 80" xml:space="preserve">
<path d="M40,0C17.9,0,0,17.9,0,40s17.9,40,40,40s40-17.9,40-40S62.1,0,40,0z M65.3,26.5
	c-6-0.5-5.9,2.7-9.2,7.2c-2.3,3.2-6.5,4-9.7,2.1c-1.8,1.8-3.5,4-4.9,6.7c0.9,2.5,1.4,4.9,1.6,6.8c1.9,1.4,3.4,3.2,4.4,5
	c0.1,0.1,0.2,0.1,0.2-0.1c0.6-2.9,1.4-5.6,2.7-7.6c0.2-0.4,0.8-0.2,0.7,0.2C51,48.7,50.9,51,51,53.5c0,0.1,0.2,0.2,0.2,0.1
	c1.1-1.8,2.4-3.2,3.9-4.2c0.3-0.3,0.8,0.1,0.6,0.5c-1.1,2-1.6,4.6-1.9,7.2c0,0.1,0.2,0.2,0.2,0.1c0.9-1.5,2-2.9,3.3-3.8
	c0.3-0.2,0.8,0.1,0.6,0.5c-0.8,1.6-1.3,4-1.5,6.3c0,0.2-0.2,0.3-0.4,0.3H42.2c-0.3,0-0.5,0-0.7,0H27.6c-0.2,0-0.3-0.2-0.4-0.3
	c-0.5-2.3-1.1-4.7-2.2-6.3c-0.2-0.3,0.2-0.7,0.6-0.6c1.6,0.8,3,2.2,4.1,3.8c0.1,0.1,0.2,0.1,0.2-0.1c-0.3-2.7-1.2-5.6-2.8-8.1
	c-0.2-0.3,0.2-0.7,0.5-0.6c2.8,1.5,4.7,3.7,6,6c0.1,0.1,0.2,0.1,0.2-0.1c0.6-2.8,1.4-5.6,2.7-7.6c0.2-0.4,0.8-0.2,0.7,0.2
	c-0.2,1.9-0.2,4.4-0.1,6.9c0,0,0.7-1.9,2.4-3.3c0.1,0,0.1,0,0.1,0c-0.2-3-1.1-7.9-4.2-11.9c-0.2-0.2-0.3-0.4-0.5-0.6
	c-3.7,2.4-8.9,1.5-11.6-2.3c-3.8-5.3-3.6-8.9-10.6-8.4c-0.7,0.1-1.1-0.8-0.5-1.3c9.3-7.4,19.3-5.4,23.9-1c1.9,1.8,2.8,4.4,2.6,6.8
	c0,0.3-0.4,0.5-0.6,0.3c-4.4-3.6-9.2-4.9-12.3-5.5c3,1,7.8,3.6,12.6,9.8c0.5,0.7,1,1.4,1.4,2C44.5,31,51,27.4,55,25.8
	c-2.7,0.2-7.2,1.2-11.4,4.5C43.4,30.5,43,30.4,43,30c-0.1-2,0.6-4.1,2.2-5.6c4-3.8,12.6-5.5,20.6,0.8C66.2,25.7,65.9,26.5,65.3,26.5
	z"/>
</svg>