<svg width="24" height="24" viewBox="0 0 24 24" fill="none" xmlns="http://www.w3.org/2000/svg">
<path id="Oval" fill-rule="evenodd" clip-rule="evenodd" d="M12 24C18.6274 24 24 18.6274 24 12C24 5.37258 18.6274 0 12 0C5.37258 0 0 5.37258 0 12C0 18.6274 5.37258 24 12 24Z" fill="#383841"/>
<path id="Shape" fill-rule="evenodd" clip-rule="evenodd" d="M13.5 9.06667H17V8H13.5V9.06667ZM15.3125 16C16.8485 16 17.642 15.0917 17.863 14.4H16.279C15.7265 15.0842 14.05 15.0304 13.985 13.3178H17.9985C18.0055 12.8101 17.99 12.4464 17.951 12.1765C17.7455 10.7664 16.8045 9.81598 15.2635 9.81598C13.693 9.81598 12.5305 10.888 12.5305 12.9733C12.5305 15.0778 13.7755 16 15.3125 16ZM14.02 12.2667H16.5025C16.45 11.4416 15.9345 11.0832 15.264 11.0832C14.531 11.0832 14.1255 11.4928 14.02 12.2667ZM6 15.9936H9.233C12.625 15.9936 12.567 12.3664 10.8365 11.6944C12.2665 10.9147 12.2145 8.05443 9.4765 8.01123H6V15.9936ZM7.5 11.2H9.292C10.546 11.2 10.745 9.59998 9.136 9.59998H7.5V11.2ZM7.5 12.8H9.1955C10.6045 12.8 10.698 14.4085 9.1705 14.4085H7.5V12.8Z" fill="white"/>
</svg>
