<svg width="24" height="185" viewBox="0 0 24 185" fill="none" xmlns="http://www.w3.org/2000/svg">
<path d="M6.808 63.192C6.808 61.56 7.31467 60.1893 8.328 59.08C9.34133 57.9707 10.6747 57.416 12.328 57.416C13.9813 57.416 15.3147 57.9707 16.328 59.08C17.3413 60.1893 17.848 61.56 17.848 63.192C17.848 64.3013 17.6027 65.2347 17.112 65.992C16.6213 66.7493 16.0027 67.336 15.256 67.752L14.056 65.448C14.44 65.2347 14.76 64.9253 15.016 64.52C15.2827 64.1253 15.416 63.6827 15.416 63.192C15.416 62.328 15.1173 61.6133 14.52 61.048C13.9333 60.4933 13.2027 60.216 12.328 60.216C11.4533 60.216 10.7173 60.4933 10.12 61.048C9.53333 61.6133 9.24 62.328 9.24 63.192C9.24 63.5653 9.304 63.9333 9.432 64.296C9.56 64.6693 9.70933 64.9573 9.88 65.16H10.712V62.76H13.128V67.912H8.888C7.50133 66.6533 6.808 65.08 6.808 63.192ZM7 77.5465V69.7225H17.672V77.5465H15.272V72.4745H13.608V77.4345H11.208V72.4745H9.4V77.5465H7ZM7 84.4804V81.7284H15.272L15.272 78.7364H17.672L17.672 87.4564H15.272V84.4804H7ZM7 96.012V93.26H17.672V98.604C17.672 99.756 17.3307 100.663 16.648 101.324C15.976 101.985 15.1333 102.316 14.12 102.316C13.1173 102.316 12.2747 101.985 11.592 101.324C10.92 100.663 10.584 99.756 10.584 98.604V96.012H7ZM12.984 98.236C12.984 98.6093 13.0853 98.9133 13.288 99.148C13.4907 99.3933 13.768 99.516 14.12 99.516C14.4827 99.516 14.7653 99.3933 14.968 99.148C15.1707 98.9133 15.272 98.6093 15.272 98.236V96.012H12.984V98.236ZM7 112.845V109.693L10.584 107.901V106.493H7L7 103.741H17.672L17.672 109.085C17.672 110.237 17.336 111.144 16.664 111.805C15.992 112.467 15.144 112.797 14.12 112.797C13.2667 112.797 12.568 112.584 12.024 112.157C11.4907 111.741 11.1227 111.245 10.92 110.669L7 112.845ZM12.984 108.669C12.984 109.043 13.0853 109.357 13.288 109.613C13.4907 109.869 13.7733 109.997 14.136 109.997C14.488 109.997 14.7653 109.869 14.968 109.613C15.1707 109.357 15.272 109.043 15.272 108.669V106.493H12.984V108.669ZM8.36 123.767C7.32533 122.69 6.808 121.33 6.808 119.687C6.808 118.045 7.32533 116.679 8.36 115.591C9.39467 114.514 10.7173 113.975 12.328 113.975C13.9387 113.975 15.2613 114.514 16.296 115.591C17.3307 116.679 17.848 118.045 17.848 119.687C17.848 121.33 17.3307 122.69 16.296 123.767C15.2613 124.845 13.9387 125.383 12.328 125.383C10.7173 125.383 9.39467 124.845 8.36 123.767ZM9.24 119.687C9.24 120.551 9.53333 121.25 10.12 121.783C10.7067 122.317 11.4427 122.583 12.328 122.583C13.2133 122.583 13.9493 122.317 14.536 121.783C15.1227 121.25 15.416 120.551 15.416 119.687C15.416 118.813 15.1227 118.109 14.536 117.575C13.9493 117.042 13.2133 116.775 12.328 116.775C11.4427 116.775 10.7067 117.042 10.12 117.575C9.53333 118.109 9.24 118.813 9.24 119.687ZM7 129.721V126.969H17.672V132.313C17.672 133.465 17.3307 134.372 16.648 135.033C15.976 135.695 15.1333 136.025 14.12 136.025C13.1173 136.025 12.2747 135.695 11.592 135.033C10.92 134.372 10.584 133.465 10.584 132.313V129.721H7ZM12.984 131.945C12.984 132.319 13.0853 132.623 13.288 132.857C13.4907 133.103 13.768 133.225 14.12 133.225C14.4827 133.225 14.7653 133.103 14.968 132.857C15.1707 132.623 15.272 132.319 15.272 131.945V129.721H12.984V131.945ZM8.36 146.699C7.32533 145.621 6.808 144.261 6.808 142.619C6.808 140.976 7.32533 139.611 8.36 138.523C9.39467 137.445 10.7173 136.907 12.328 136.907C13.9387 136.907 15.2613 137.445 16.296 138.523C17.3307 139.611 17.848 140.976 17.848 142.619C17.848 144.261 17.3307 145.621 16.296 146.699C15.2613 147.776 13.9387 148.315 12.328 148.315C10.7173 148.315 9.39467 147.776 8.36 146.699ZM9.24 142.619C9.24 143.483 9.53333 144.181 10.12 144.715C10.7067 145.248 11.4427 145.515 12.328 145.515C13.2133 145.515 13.9493 145.248 14.536 144.715C15.1227 144.181 15.416 143.483 15.416 142.619C15.416 141.744 15.1227 141.04 14.536 140.507C13.9493 139.973 13.2133 139.707 12.328 139.707C11.4427 139.707 10.7067 139.973 10.12 140.507C9.53333 141.04 9.24 141.744 9.24 142.619ZM6.808 153.869C6.808 151.895 7.37333 150.317 8.504 149.133L10.568 150.589C9.62933 151.527 9.16 152.663 9.16 153.997C9.16 154.466 9.24 154.834 9.4 155.101C9.57067 155.378 9.784 155.517 10.04 155.517C10.264 155.517 10.4453 155.367 10.584 155.069C10.7333 154.77 10.84 154.397 10.904 153.949C10.9787 153.501 11.0907 153.015 11.24 152.493C11.4 151.97 11.5813 151.485 11.784 151.037C11.9973 150.589 12.3333 150.215 12.792 149.917C13.2507 149.618 13.8 149.469 14.44 149.469C15.3787 149.469 16.1787 149.847 16.84 150.605C17.5013 151.373 17.832 152.413 17.832 153.725C17.832 155.463 17.336 156.909 16.344 158.061L14.376 156.557C15.112 155.661 15.48 154.621 15.48 153.437C15.48 152.669 15.224 152.285 14.712 152.285C14.5093 152.285 14.3333 152.434 14.184 152.733C14.0453 153.031 13.9387 153.405 13.864 153.853C13.7893 154.301 13.672 154.781 13.512 155.293C13.3627 155.815 13.1813 156.301 12.968 156.749C12.7547 157.197 12.424 157.57 11.976 157.869C11.528 158.167 10.9947 158.317 10.376 158.317C9.288 158.317 8.41867 157.927 7.768 157.149C7.128 156.37 6.808 155.277 6.808 153.869ZM7 170.016V166.896L8.536 166.368V162.16L7 161.632V158.511L17.672 162.528V165.984L7 170.016ZM10.936 165.616L14.952 164.256L10.936 162.896V165.616ZM7 178.044V171.004H17.672V173.756H9.4L9.4 178.044H7Z"/>
<path d="M12 0C12.5523 0 13 0.447715 13 1L13 45H11L11 1C11 0.447715 11.4477 0 12 0Z"/>
<path fill-rule="evenodd" clip-rule="evenodd" d="M15.313 45.6836C15.566 45.4319 15.3878 45 15.0309 45H8.96887C8.61251 45 8.43404 45.4309 8.68603 45.6828L11.7093 48.7061C11.8652 48.862 12.1179 48.8623 12.2742 48.7068L15.313 45.6836Z" />
</svg>
