<svg width="24" height="24" viewBox="0 0 24 24" fill="none" xmlns="http://www.w3.org/2000/svg">
<path fill-rule="evenodd" clip-rule="evenodd" d="M12 24C18.6274 24 24 18.6274 24 12C24 5.37258 18.6274 0 12 0C5.37258 0 0 5.37258 0 12C0 18.6274 5.37258 24 12 24Z" fill="#383841"/>
<path fill-rule="evenodd" clip-rule="evenodd" d="M17.8779 10.7925C17.7996 10.4066 17.6811 10.027 17.528 9.66441C17.3784 9.30884 17.1914 8.96596 16.9748 8.64566C16.7603 8.32818 16.514 8.02904 16.2431 7.75813C15.9714 7.48651 15.673 7.24028 15.3547 7.02581C15.0344 6.80851 14.6915 6.62296 14.3359 6.47199C13.9732 6.3196 13.5936 6.20036 13.2083 6.12276C12.8132 6.04163 12.4068 6 12.0004 6C11.5932 6 11.1868 6.04163 10.7917 6.12276C10.4064 6.20036 10.0268 6.3196 9.66414 6.47199C9.30852 6.62296 8.9656 6.80851 8.64456 7.02581C8.32704 7.24028 8.02858 7.48651 7.75692 7.75813C7.48527 8.02904 7.23972 8.32818 7.02522 8.64566C6.8079 8.96596 6.62163 9.30884 6.47134 9.66441C6.31822 10.027 6.20039 10.4066 6.12136 10.7925C6.04092 11.1862 6 11.5933 6 11.9996C6 12.4067 6.04092 12.8138 6.12136 13.2089C6.20039 13.5934 6.31822 13.9737 6.47134 14.3356C6.62163 14.6912 6.8079 15.0347 7.02522 15.3558C7.23972 15.6732 7.48527 15.971 7.75692 16.2426C8.02858 16.5142 8.32704 16.7597 8.64456 16.9742C8.9656 17.1915 9.30852 17.3777 9.66414 17.528C10.0268 17.6811 10.4064 17.7982 10.7917 17.8772C11.1868 17.9591 11.5932 18 12.0004 18C12.4068 18 12.8132 17.9591 13.2083 17.8772C13.5936 17.7982 13.9732 17.6811 14.3359 17.528C14.6915 17.3777 15.0344 17.1915 15.3547 16.9742C15.673 16.7597 15.9714 16.5142 16.2431 16.2426C16.514 15.971 16.7603 15.6732 16.9748 15.3558C17.1914 15.0347 17.3784 14.6912 17.528 14.3356C17.6811 13.9737 17.7996 13.5934 17.8779 13.2089C17.9591 12.8138 18 12.4067 18 11.9996C18 11.5933 17.9591 11.1862 17.8779 10.7925ZM17.1229 11.9489C17.0489 11.9326 15.3145 11.5594 13.5541 11.7809C13.5174 11.6935 13.4807 11.6053 13.4433 11.5171C13.336 11.2659 13.2217 11.0176 13.1025 10.7735C15.1261 9.94732 15.9474 8.75924 15.9573 8.74513C16.6756 9.61855 17.111 10.7333 17.1229 11.9489ZM15.3844 8.15462C15.3717 8.17438 14.6421 9.28555 12.7074 10.0101C11.8317 8.40085 10.8693 7.12246 10.7924 7.02087C11.1797 6.92704 11.5841 6.87624 12.0004 6.87624C13.2972 6.87624 14.4812 7.36022 15.3844 8.15462ZM10.7726 7.0251C10.7726 7.02581 10.7719 7.02581 10.7719 7.02581C10.7719 7.02581 10.7656 7.02722 10.7564 7.02934C10.7613 7.02793 10.767 7.02722 10.7726 7.0251ZM9.81372 7.36587C9.88146 7.45758 10.8298 8.74161 11.7167 10.3184C9.25631 10.9724 7.12048 10.9463 6.98501 10.9442C7.31805 9.35681 8.38419 8.04104 9.81372 7.36587ZM6.87564 11.9996C6.87564 11.9453 6.87846 11.8917 6.87987 11.8381C6.97019 11.8402 9.50256 11.8973 12.1408 11.1079C12.2875 11.395 12.4279 11.6871 12.5564 11.9785C12.4886 11.9975 12.4216 12.018 12.3546 12.0399C9.58935 12.9337 8.18663 15.4214 8.18663 15.4214C8.18663 15.4214 8.18875 15.4235 8.18875 15.4242C7.37238 14.5162 6.87564 13.3161 6.87564 11.9996ZM12.0004 17.1238C10.7599 17.1238 9.62251 16.6828 8.73558 15.9498C8.80332 16.0041 8.85059 16.0394 8.85059 16.0394C8.85059 16.0394 9.83277 13.8975 12.8718 12.8385C12.883 12.8343 12.8943 12.8307 12.9063 12.8272C13.6274 14.701 13.9245 16.2701 14.0007 16.7181C13.3861 16.9791 12.7095 17.1238 12.0004 17.1238ZM14.8636 16.2496C14.8114 15.9406 14.5384 14.4365 13.8659 12.5902C15.5206 12.3256 16.9536 12.7792 17.0594 12.8138C16.8315 14.241 16.0138 15.4729 14.8636 16.2496Z" fill="white"/>
</svg>
