<svg width="24" height="24" viewBox="0 0 24 24" fill="none" xmlns="http://www.w3.org/2000/svg">
<path fill-rule="evenodd" clip-rule="evenodd" d="M12 24C18.6274 24 24 18.6274 24 12C24 5.37258 18.6274 0 12 0C5.37258 0 0 5.37258 0 12C0 18.6274 5.37258 24 12 24Z" fill="#383841"/>
<path fill-rule="evenodd" clip-rule="evenodd" d="M12 7.0811C13.6021 7.0811 13.7918 7.0872 14.4245 7.11607C15.0095 7.14277 15.3272 7.24051 15.5386 7.32266C15.8187 7.4315 16.0186 7.56154 16.2285 7.77149C16.4385 7.98143 16.5685 8.18133 16.6773 8.46137C16.7595 8.67282 16.8572 8.99051 16.8839 9.57549C16.9128 10.2082 16.9189 10.3979 16.9189 12C16.9189 13.6021 16.9128 13.7918 16.8839 14.4245C16.8572 15.0095 16.7595 15.3272 16.6773 15.5387C16.5685 15.8187 16.4385 16.0186 16.2285 16.2285C16.0186 16.4385 15.8187 16.5685 15.5386 16.6773C15.3272 16.7595 15.0095 16.8573 14.4245 16.884C13.7919 16.9128 13.6022 16.9189 12 16.9189C10.3978 16.9189 10.2081 16.9128 9.57549 16.884C8.99049 16.8573 8.6728 16.7595 8.46137 16.6773C8.18131 16.5685 7.98141 16.4385 7.77146 16.2285C7.56152 16.0186 7.43148 15.8187 7.32266 15.5387C7.24049 15.3272 7.14274 15.0095 7.11604 14.4245C7.08718 13.7918 7.08108 13.6021 7.08108 12C7.08108 10.3979 7.08718 10.2082 7.11604 9.57551C7.14274 8.99051 7.24049 8.67282 7.32266 8.46137C7.43148 8.18133 7.56152 7.98143 7.77146 7.77149C7.98141 7.56154 8.18131 7.4315 8.46137 7.32266C8.6728 7.24051 8.99049 7.14277 9.57546 7.11607C10.2082 7.0872 10.3979 7.0811 12 7.0811ZM12 6C10.3705 6 10.1662 6.00691 9.52621 6.03611C8.88755 6.06526 8.45142 6.16667 8.06975 6.315C7.6752 6.46834 7.34059 6.6735 7.00703 7.00706C6.67347 7.34061 6.46831 7.67522 6.31498 8.06977C6.16665 8.45144 6.06523 8.88758 6.03608 9.52623C6.00688 10.1662 6 10.3705 6 12C6 13.6295 6.00688 13.8339 6.03608 14.4738C6.06523 15.1124 6.16665 15.5486 6.31498 15.9303C6.46831 16.3248 6.67347 16.6594 7.00703 16.993C7.34059 17.3265 7.6752 17.5317 8.06975 17.685C8.45142 17.8334 8.88755 17.9348 9.52621 17.9639C10.1662 17.9931 10.3705 18 12 18C13.6295 18 13.8338 17.9931 14.4738 17.9639C15.1124 17.9348 15.5486 17.8334 15.9302 17.685C16.3248 17.5317 16.6594 17.3265 16.9929 16.993C17.3265 16.6594 17.5317 16.3248 17.685 15.9303C17.8333 15.5486 17.9347 15.1124 17.9639 14.4738C17.9931 13.8339 18 13.6295 18 12C18 10.3705 17.9931 10.1662 17.9639 9.52623C17.9347 8.88758 17.8333 8.45144 17.685 8.06977C17.5317 7.67522 17.3265 7.34061 16.9929 7.00706C16.6594 6.6735 16.3248 6.46834 15.9302 6.315C15.5486 6.16667 15.1124 6.06526 14.4738 6.03611C13.8338 6.00691 13.6295 6 12 6ZM12.0119 8.92857C10.309 8.92857 8.92857 10.309 8.92857 12.0119C8.92857 13.7148 10.309 15.0952 12.0119 15.0952C13.7148 15.0952 15.0952 13.7148 15.0952 12.0119C15.0952 10.309 13.7148 8.92857 12.0119 8.92857ZM12.0119 14.0134C10.9065 14.0134 10.0104 13.1173 10.0104 12.0119C10.0104 10.9065 10.9065 10.0104 12.0119 10.0104C13.1173 10.0104 14.0134 10.9065 14.0134 12.0119C14.0134 13.1173 13.1173 14.0134 12.0119 14.0134ZM15.9048 8.7857C15.9048 9.1802 15.585 9.5 15.1905 9.5C14.796 9.5 14.4762 9.1802 14.4762 8.7857C14.4762 8.39121 14.796 8.07143 15.1905 8.07143C15.585 8.07143 15.9048 8.39121 15.9048 8.7857Z" fill="white"/>
</svg>
