<svg width="24" height="24" viewBox="0 0 24 24" fill="none" xmlns="http://www.w3.org/2000/svg">
<path id="Oval" fill-rule="evenodd" clip-rule="evenodd" d="M12 24C18.6274 24 24 18.6274 24 12C24 5.37258 18.6274 0 12 0C5.37258 0 0 5.37258 0 12C0 18.6274 5.37258 24 12 24Z" fill="#383841"/>
<path id="Shape" fill-rule="evenodd" clip-rule="evenodd" d="M8.5 6H15.5C16.881 6 18 7.1195 18 8.5V15.5C18 16.8805 16.881 18 15.5 18H8.5C7.1195 18 6 16.8805 6 15.5V8.5C6 7.1195 7.1195 6 8.5 6ZM10 15.5V10H8.5V15.5H10ZM9.25 9.36599C8.767 9.36599 8.375 8.97099 8.375 8.48399C8.375 7.99699 8.767 7.60199 9.25 7.60199C9.733 7.60199 10.125 7.99699 10.125 8.48399C10.125 8.97099 9.7335 9.36599 9.25 9.36599ZM14.5 15.5H16V12.1205C16 9.49403 13.198 9.58953 12.5 10.8825V10H11V15.5H12.5V12.698C12.5 11.1415 14.5 11.014 14.5 12.698V15.5Z" fill="white"/>
</svg>
