<svg width="135" height="20" viewBox="0 0 135 20" fill="none" xmlns="http://www.w3.org/2000/svg">
<g id="logo-messapps">
<path id="messapps" fill-rule="evenodd" clip-rule="evenodd" d="M46.7777 15.5965V7.22018C46.7777 4.85088 45.4382 3.75 43.3094 3.75C41.4916 3.75 39.9847 4.80302 39.315 5.80817C38.8366 4.44404 37.6885 3.75 36.0381 3.75C34.2203 3.75 32.7373 4.77909 32.235 5.44919V4.03719H28.5515V15.5965H32.235V8.1296C32.6177 7.65096 33.3114 7.00479 34.292 7.00479C35.4162 7.00479 35.8228 7.67489 35.8228 8.56038V15.5965H39.5063V8.1296C39.8651 7.65096 40.5827 7.00479 41.5873 7.00479C42.6875 7.00479 43.1181 7.67489 43.1181 8.56038V15.5965H46.7777ZM54.7748 15.8837C51.2109 15.8837 48.4602 13.5622 48.4602 9.80486C48.4602 6.45434 50.9956 3.75 54.6074 3.75C58.0277 3.75 60.5153 6.26289 60.5153 10.1878V10.9775H52.2872C52.5025 12.0545 53.5071 13.0357 55.1814 13.0357C55.9946 13.0357 57.4059 12.6767 58.0517 12.0545L59.6064 14.352C58.4583 15.3811 56.5448 15.8837 54.7748 15.8837ZM56.9992 8.58432C56.9036 7.77062 56.3056 6.59794 54.6074 6.59794C53.0048 6.59794 52.3829 7.74669 52.2394 8.58432H56.9992ZM66.5032 15.8837C69.828 15.8837 71.7654 14.2563 71.7654 12.0545C71.7654 7.31591 65.0442 8.63218 65.0442 7.29197C65.0442 6.81333 65.6422 6.45434 66.5032 6.45434C67.8905 6.45434 69.2061 7.05265 69.8997 7.72275L71.3109 5.28166C70.0672 4.37224 68.4168 3.75 66.4793 3.75C63.2742 3.75 61.5281 5.52099 61.5281 7.55523C61.5281 12.1981 68.2493 10.7143 68.2493 12.222C68.2493 12.7485 67.7949 13.1075 66.6946 13.1075C65.3312 13.1075 63.4895 12.3417 62.6284 11.5758L61.0976 14.1127C62.3175 15.1896 64.4462 15.8837 66.5032 15.8837ZM77.8251 15.8837C81.1498 15.8837 83.0872 14.2563 83.0872 12.0545C83.0872 7.31591 76.366 8.63218 76.366 7.29197C76.366 6.81333 76.964 6.45434 77.8251 6.45434C79.2124 6.45434 80.5279 7.05265 81.2216 7.72275L82.6328 5.28166C81.389 4.37224 79.7386 3.75 77.8012 3.75C74.596 3.75 72.85 5.52099 72.85 7.55523C72.85 12.1981 79.5712 10.7143 79.5712 12.222C79.5712 12.7485 79.1167 13.1075 78.0164 13.1075C76.6531 13.1075 74.8113 12.3417 73.9502 11.5758L72.4194 14.1127C73.6393 15.1896 75.7681 15.8837 77.8251 15.8837ZM95.2223 15.5965H91.5388V14.4477C90.8212 15.3093 89.434 15.8837 87.951 15.8837C86.181 15.8837 83.9805 14.687 83.9805 12.0784C83.9805 9.27835 86.181 8.36893 87.951 8.36893C89.4818 8.36893 90.8452 8.84757 91.5388 9.70913V8.32106C91.5388 7.31591 90.6777 6.6458 89.1948 6.6458C88.0467 6.6458 86.8507 7.07658 85.9179 7.86635L84.6024 5.54492C86.0853 4.27651 88.0706 3.75 89.8406 3.75C92.6152 3.75 95.2223 4.77909 95.2223 8.36893V15.5965ZM89.4818 13.4665C90.295 13.4665 91.1561 13.1793 91.5388 12.6289V11.5998C91.1561 11.0733 90.295 10.7861 89.4818 10.7861C88.5011 10.7861 87.64 11.2169 87.64 12.1263C87.64 13.0357 88.5011 13.4665 89.4818 13.4665ZM104.75 15.8837C103.459 15.8837 102.287 15.3811 101.33 14.2323V20H97.6463V4.03719H101.33V5.37739C102.239 4.27651 103.435 3.75 104.75 3.75C107.644 3.75 109.821 5.9039 109.821 9.80486C109.821 13.7297 107.644 15.8837 104.75 15.8837ZM103.53 12.6289C104.966 12.6289 106.066 11.5519 106.066 9.80486C106.066 8.08174 104.966 7.00479 103.53 7.00479C102.741 7.00479 101.784 7.43557 101.33 8.05781V11.5758C101.784 12.1742 102.741 12.6289 103.53 12.6289ZM118.584 15.8837C117.292 15.8837 116.12 15.3811 115.163 14.2323V20H111.48V4.03719H115.163V5.37739C116.072 4.27651 117.268 3.75 118.584 3.75C121.478 3.75 123.654 5.9039 123.654 9.80486C123.654 13.7297 121.478 15.8837 118.584 15.8837ZM117.364 12.6289C118.799 12.6289 119.899 11.5519 119.899 9.80486C119.899 8.08174 118.799 7.00479 117.364 7.00479C116.574 7.00479 115.618 7.43557 115.163 8.05781V11.5758C115.618 12.1742 116.574 12.6289 117.364 12.6289ZM129.738 15.8837C133.063 15.8837 135 14.2563 135 12.0545C135 7.31591 128.279 8.63218 128.279 7.29197C128.279 6.81333 128.877 6.45434 129.738 6.45434C131.125 6.45434 132.441 7.05265 133.134 7.72275L134.546 5.28166C133.302 4.37224 131.651 3.75 129.714 3.75C126.509 3.75 124.763 5.52099 124.763 7.55523C124.763 12.1981 131.484 10.7143 131.484 12.222C131.484 12.7485 131.03 13.1075 129.929 13.1075C128.566 13.1075 126.724 12.3417 125.863 11.5758L124.332 14.1127C125.552 15.1896 127.681 15.8837 129.738 15.8837Z" fill="#383841"/>
<path id="Path" fill-rule="evenodd" clip-rule="evenodd" d="M8.32621 9.99751L5.02456 6.69586C5.00509 6.67639 4.97629 6.66959 4.95016 6.67829L3.03425 7.31634C3.00813 7.32504 2.97932 7.31823 2.95985 7.29876L1.0213 5.36021C1.00183 5.34074 0.995026 5.31193 1.00373 5.2858L1.64467 3.36195C1.65191 3.34024 1.66894 3.3232 1.69064 3.31595L3.62452 2.67048C3.64622 2.66324 3.66325 2.64621 3.67048 2.6245L4.31505 0.691561C4.32229 0.669851 4.33932 0.652816 4.36103 0.645576L6.2858 0.00373722C6.31194 -0.00497758 6.34075 0.00182296 6.36023 0.021303L8.29876 1.95983C8.31824 1.97931 8.32504 2.00812 8.31633 2.03425L7.67739 3.95107C7.66868 3.9772 7.67548 4.00601 7.69496 4.02549L11.0016 7.33211L14.3102 4.03582C14.3298 4.01633 14.3366 3.98744 14.3279 3.96124L13.6887 2.04932C13.68 2.02313 13.6868 1.99424 13.7064 1.97474L15.6486 0.0398137C15.668 0.0204304 15.6967 0.0136605 15.7228 0.0223119L17.6505 0.662144C17.6722 0.669353 17.6893 0.686364 17.6966 0.708063L18.3432 2.63823C18.3505 2.65992 18.3675 2.67693 18.3892 2.68414L20.3259 3.32754C20.3476 3.33475 20.3647 3.35177 20.3719 3.37347L21.0149 5.29439C21.0236 5.32059 21.0168 5.3495 20.9972 5.369L19.0551 7.30391C19.0356 7.32329 19.0069 7.33006 18.9808 7.3214L17.06 6.68352C17.034 6.67486 17.0052 6.68163 16.9858 6.70102L13.672 10.0025L16.9745 13.305C16.994 13.3245 17.0228 13.3313 17.0489 13.3226L18.9657 12.6837C18.9919 12.675 19.0207 12.6818 19.0402 12.7012L20.9787 14.6398C20.9982 14.6592 21.005 14.6881 20.9963 14.7142L20.3546 16.6391C20.3474 16.6609 20.3303 16.6779 20.3086 16.6851L18.3755 17.3295C18.3538 17.3368 18.3368 17.3538 18.3295 17.3755L17.6842 19.3095C17.677 19.3312 17.6599 19.3483 17.6382 19.3555L15.7142 19.9963C15.6881 20.005 15.6593 19.9982 15.6398 19.9787L13.7012 18.0401C13.6818 18.0207 13.675 17.9919 13.6837 17.9657L14.3217 16.0498C14.3304 16.0237 14.3236 15.9949 14.3041 15.9754L10.9966 12.6679L7.68889 15.9633C7.66932 15.9828 7.66249 16.0117 7.67125 16.0378L8.31125 17.9507C8.32001 17.9769 8.31318 18.0058 8.29361 18.0253L6.35145 19.9602C6.332 19.9796 6.30328 19.9863 6.27721 19.9777L4.34839 19.3371C4.32667 19.3299 4.30961 19.3129 4.30235 19.2912L3.6568 17.3618C3.64954 17.3401 3.63249 17.3231 3.61078 17.3159L1.67301 16.6717C1.65129 16.6645 1.63424 16.6475 1.62698 16.6258L0.985113 14.7056C0.976358 14.6794 0.983194 14.6505 1.00276 14.631L2.94493 12.6961C2.96439 12.6767 2.9931 12.6699 3.01916 12.6786L4.93906 13.3156C4.96513 13.3242 4.99384 13.3175 5.01329 13.2981L8.32621 9.99751Z" fill="#383841"/>
</g>
</svg>
