<svg class="about-main__arrow" version="1.1" xmlns="http://www.w3.org/2000/svg" xmlns:xlink="http://www.w3.org/1999/xlink" viewBox="0 0 436.2 215" xml:space="preserve">
<path fill="#2D2D2D" d="M15.6,38.6c0,0.1,0,0.1-0.2,0.1c-0.1,0-0.2,0-0.3,0c-0.1,0-0.2-0.1-0.3-0.2c-0.2-0.3-0.3-0.6-0.4-1l-0.2-1
	c0-3.1,0.1-6.2,0.2-9.3c0.1-0.8,0.1-1.6,0.2-2.4c0-0.8,0.1-1.2,0.1-1.4c0,0-0.1,0-0.1,0.1c-0.1,0.1-0.1,0.2-0.2,0.4
	c-0.1,0.1-0.1,0.2-0.1,0.3l-0.5,1c-0.1,0.1-0.2,0.5-0.5,1.3c-0.2,0.6-0.3,1-0.4,1.3L12.5,29c-0.3,1-0.6,1.6-0.6,1.9
	c-0.1,0.3-0.3,0.7-0.5,1.4c-0.1,0.4-0.3,0.9-0.6,1.6c-0.1,0.2-0.2,0.4-0.3,0.7c-0.1,0.2-0.1,0.4-0.1,0.5c0,0.1-0.1,0.4-0.4,0.9
	c-0.2,0.5-0.5,1-0.7,1.3c-0.3,0.5-0.6,0.8-0.8,1c-0.2,0.2-0.4,0.3-0.6,0.4c-0.3,0-0.6-0.1-1-0.3c-0.3-0.2-0.5-0.4-0.6-0.7
	c-0.1-0.3-0.2-0.7-0.3-1.1c-0.1-0.4-0.1-1.1-0.2-2.1c0-0.1,0-1,0-2.7c0-1.7,0-2.7,0.1-2.9c0-0.1,0-0.2,0-0.3c0-0.1-0.1-0.2-0.1-0.2
	c0,0-0.1,0.1-0.2,0.4c0,0.1-0.3,0.6-0.6,1.5c-0.4,0.9-0.7,2.1-1.1,3.6C3,35.6,2.5,37.1,2.2,38c-0.3,1-0.5,1.6-0.7,2
	c-0.2,0.6-0.3,0.9-0.3,1c-0.2,0-0.6-0.1-1-0.5C0.1,40.5,0,40.4,0,40.3c0-0.1,0-0.3,0-0.6c0.1-0.3,0.2-0.7,0.3-1.1
	c0.3-1.1,0.6-1.7,0.7-1.9c0.2-0.3,0.2-0.6,0.2-0.9c0.2-0.3,0.4-0.9,0.6-1.8c0.2-0.4,0.4-1,0.6-1.6c0.2-0.7,0.4-1.3,0.6-1.9l0.5-1.3
	C4,28,4.4,27.1,4.6,26.4c0.3-0.7,0.5-1.1,0.7-1.4c0.2-0.4,0.3-0.6,0.3-0.8c-0.1-0.3-0.1-0.7,0-1c0.1-0.3,0.2-0.5,0.4-0.5
	c0.2,0,0.4,0,0.5,0c0.1,0,0.3,0.1,0.4,0.2c0,0,0.1,0.1,0.2,0.2c0.1,0.1,0.2,0.2,0.2,0.3c0.1,0.1,0.1,0.2,0.2,0.4
	c0,0.2,0.1,0.4,0.1,0.8c0,0.2,0,0.7,0.1,1.5c0,0.4,0,0.6,0,0.7C7.4,28.3,7.3,30,7.3,32c0,2,0.1,3.4,0.2,4.2c0,0.2,0.1,0.3,0.1,0.4
	c0.1,0.1,0.2,0.1,0.3,0c0.1-0.1,0.2-0.3,0.3-0.7c0.1-0.4,0.4-1,0.8-1.7c0-0.1,0.2-0.7,0.7-1.8c1.1-2.7,2.1-5.5,3.1-8.2l0.5-1.1
	c0.2-0.4,0.4-0.8,0.5-1.2c0.2-0.4,0.3-0.6,0.4-0.8c0.1-0.2,0.3-0.3,0.4-0.3c0.3-0.1,0.6,0.1,0.9,0.4c0.3,0.3,0.5,0.8,0.6,1.4
	c0.1,0.4,0.1,1.1,0.1,2.1c0,0.9-0.1,1.9-0.2,2.9c0,0.5-0.1,1.1-0.1,1.8s-0.1,1.4-0.2,2c0,0.3,0,0.6,0,1.1c0,0.1,0,0.3,0,0.8
	c0,0.4,0,0.7,0.1,0.8c-0.2,0.5-0.1,1.4,0.1,2.7l0,0.6c0,0.5,0.1,0.8,0.1,1c0,0.2,0,0.3-0.1,0.2c0,0-0.1,0-0.2,0
	C15.6,38.4,15.6,38.5,15.6,38.6z M21.2,36c-0.2,0-0.4,0-0.5,0c-0.1,0-0.3-0.1-0.6-0.3c-0.6-0.5-1-1-1.1-1.4c0-0.1,0-0.2,0-0.3
	c0-0.1,0-0.2,0-0.4c0-0.1,0-0.2,0-0.2c-0.1-0.1-0.1-0.1-0.1-0.1c0,0,0-0.1,0-0.1c0,0,0-0.1,0.1-0.1c0.1,0,0.1-0.1,0.1-0.3
	c-0.1-0.1,0-0.4,0-0.9c0.1-0.5,0.2-0.9,0.4-1.4c0.1-0.3,0.3-0.7,0.6-1.2c0.3-0.5,0.5-0.9,0.8-1.2c0.3-0.4,0.6-0.7,0.9-0.9
	c0.3-0.2,0.6-0.4,1-0.6c0.3-0.1,0.5-0.2,0.6-0.2c0.1,0,0.2,0,0.3,0c0.1,0,0.2,0.1,0.4,0.2c0.5,0.1,0.8,0.3,1,0.6
	c0.2,0.3,0.4,0.7,0.5,1.4c0.2,1.1,0,2.3-0.7,3.7c-0.3,0.6-0.6,1.1-0.8,1.4c-0.3,0.3-0.7,0.7-1.1,1.1c-0.3,0.3-0.6,0.5-0.9,0.7
	C21.9,35.8,21.5,35.9,21.2,36z M23.1,32.9c0.3-0.5,0.6-1,0.7-1.4c0.2-0.4,0.3-1,0.4-1.6c0-0.3,0-0.6-0.1-1c-0.1-0.5-0.2-0.8-0.3-0.8
	c-0.2-0.1-0.4-0.1-0.5,0c-0.4,0.1-0.7,0.3-1,0.7c-0.4,0.5-0.7,1.1-1,1.8c-0.3,0.7-0.5,1.5-0.8,2.4c-0.1,0.4-0.1,0.7-0.1,1.1
	c0,0.2,0.1,0.4,0.3,0.6c0.2,0.1,0.3,0.2,0.6,0.1C21.8,34.5,22.4,34,23.1,32.9z M34.3,34c-0.1,0.1-0.3,0.1-0.5,0
	c-0.2-0.1-0.4-0.2-0.6-0.4c-0.2-0.2-0.3-0.4-0.4-0.6c-0.1-0.2-0.1-0.7-0.3-1.4c0-0.2-0.1-0.2-0.1-0.2c0,0-0.1,0.1-0.3,0.3
	c-0.2,0.2-0.3,0.4-0.6,0.7c-0.4,0.5-0.7,0.9-1,1.2c-0.3,0.3-0.6,0.5-0.8,0.5c-0.2,0-0.4-0.1-0.7-0.3c-0.2-0.2-0.4-0.5-0.6-0.8
	c-0.1-0.2-0.1-0.4-0.2-0.7c-0.1-0.7-0.1-1.6,0-2.6c0.1-1,0.3-1.9,0.6-2.7c0.3-0.8,0.5-1.2,0.8-1.3c0.2,0,0.5,0.2,0.8,0.7
	c0.1,0.1,0.1,0.2,0.1,0.2c0,0.1,0,0.2-0.1,0.4c-0.2,0.4-0.4,1-0.6,1.8c-0.2,0.9-0.3,1.7-0.4,2.4c-0.1,0.7,0,1.1,0.1,1.1
	c0.2,0,0.5-0.2,0.8-0.4c0.3-0.2,0.5-0.5,0.8-0.9c0.3-0.4,0.5-0.7,0.7-1.1c0.2-0.4,0.4-0.9,0.7-1.6c0.5-1.2,0.8-1.9,0.8-2.1
	c0.2-0.5,0.3-0.8,0.4-1c0.1-0.2,0.2-0.3,0.4-0.4l0.3-0.1c0.1,0,0.2,0.1,0.4,0.2c0.1,0,0.2,0.1,0.2,0.1c0,0,0.1,0.1,0.1,0.2l-0.2,1
	l-0.1,0.6c0,0.1-0.1,0.3-0.2,0.6c-0.2,0.9-0.4,1.6-0.5,2.2c-0.1,0.5-0.2,1.1-0.2,1.7c0,0.1,0,0.2,0,0.4c0.1,0.5,0.2,0.8,0.3,1
	c0.2,0.3,0.4,0.5,0.6,0.6c0.1,0.1,0.1,0.1,0.2,0.2c0,0.1-0.1,0.2-0.2,0.4C34.5,33.9,34.3,34,34.3,34z M32.1,23.1
	c-0.9,0.2-1.7-0.4-2.3-1.7c-0.1-0.1-0.1-0.2-0.1-0.3c0-0.1,0-0.2,0-0.4c0-0.1,0.1-0.1,0.2-0.2c0.1-0.1,0.2-0.1,0.2-0.1
	c0.2,0,0.4,0.1,0.5,0.2c0.1,0.1,0.2,0.2,0.3,0.4c0.1,0.1,0.1,0.2,0.1,0.3c0.2,0.4,0.4,0.6,0.7,0.5c0,0,0.2-0.1,0.4-0.2
	c0.6-0.4,1.1-0.8,1.4-1.2c0,0,0.3-0.4,0.9-1.1l0,0c0.1,0,0.1-0.1,0.2-0.1c0.1,0,0.2,0,0.3,0c0.1,0.1,0.2,0.2,0.2,0.2
	c0,0.1,0.1,0.2,0.1,0.2c0,0.1,0,0.1,0,0.2l0,0.1c0.1,0.1,0,0.3-0.1,0.6c-0.1,0.3-0.3,0.6-0.5,0.8c-0.3,0.3-0.7,0.7-1.4,1.2
	c-0.1,0.1-0.2,0.2-0.4,0.2C32.5,23,32.3,23,32.1,23.1z M46.2,31.7c-0.1,0.1-0.3,0.2-0.5,0.2c-0.2,0-0.4,0-0.5,0.1
	c-0.1,0-0.3-0.1-0.5-0.2c-0.2-0.2-0.3-0.3-0.4-0.3c0-0.1,0-0.2,0.1-0.3c0.1-0.1,0.1-0.1,0.1-0.2c0-0.1,0.1-0.1,0.3-0.2
	c0.2-0.1,0.3-0.1,0.3-0.2c0.1-0.1,0.2-0.2,0.4-0.4c0.2-0.2,0.4-0.4,0.6-0.7c0.2-0.2,0.3-0.5,0.4-0.7c0.3-0.7,0.6-1.5,1-2.4
	c0.1-0.3,0.2-0.7,0.4-1.2c0.2-0.5,0.2-0.9,0.2-1L47.3,24c0,0-0.1-0.1-0.2-0.2c-0.1-0.1-0.1-0.2-0.2-0.2c0-0.1,0-0.1,0-0.2
	c0-0.2,0-0.3,0-0.4c0-0.1,0.1-0.2,0.2-0.2c0.5-0.2,0.9-0.3,1.2-0.4c0.5-0.2,0.8-0.3,1.1-0.4c0.2-0.1,0.4-0.1,0.7-0.2
	c0.4-0.1,0.8-0.1,1.2,0c0.3,0.1,0.5,0.2,0.7,0.5c0.3,0.3,0.5,0.6,0.5,0.9c0,0.1,0,0.2,0,0.3c0,0.1,0,0.2,0,0.3
	c0,0.1,0.1,0.3,0.2,0.4c-0.1,0.8-0.2,1.6-0.3,2.3c0,0.1-0.1,0.4-0.1,0.7c0,0.3-0.1,0.6-0.1,0.9c0,0.3,0,0.5-0.1,0.7
	c-0.1,0.4-0.1,0.7-0.1,1c0,0.2-0.1,0.3-0.1,0.5c-0.1,0.1-0.2,0.2-0.3,0.3c-0.1,0.1-0.2,0.1-0.2,0.1c-0.1,0-0.2,0-0.4,0
	c-0.2,0-0.3-0.1-0.5-0.2c-0.1-0.1-0.1-0.2-0.1-0.4c0-0.1,0-0.3,0-0.6c0.1-1,0.3-2.5,0.5-4.3l0.1-1c0-0.2,0-0.3,0-0.5
	c0-0.1-0.1-0.3-0.2-0.4c-0.3-0.1-0.5-0.1-0.6,0c-0.1,0-0.2,0-0.3,0.1c-0.1,0.1-0.2,0.1-0.3,0.1c-0.1,0.1-0.2,0.3-0.2,0.5
	c-0.2,0.9-0.4,1.7-0.6,2.3c-0.2,0.7-0.4,1.2-0.5,1.7c0,0.2-0.2,0.5-0.4,1c-0.1,0.3-0.2,0.6-0.3,0.7l-0.2,0.4
	c-0.1,0.1-0.2,0.3-0.3,0.5c-0.2,0.2-0.3,0.4-0.3,0.5L46.2,31.7z M61.1,29.3c-0.5-0.3-0.9-0.8-1.2-1.5c-0.1-0.1-0.1-0.3-0.1-0.5
	c0-0.2-0.1-0.4-0.1-0.5c-0.1,0.3-0.2,0.5-0.4,0.8c-0.3,0.4-0.6,0.8-1,1c-0.5,0.5-0.9,0.8-1.3,0.8c-0.3,0.1-0.7-0.1-1-0.4
	c-0.2-0.1-0.4-0.3-0.6-0.5c-0.1-0.2-0.2-0.4-0.3-0.6c0-0.2,0-0.4,0-0.6C55,26.6,55,26,55,25.5c0-0.6,0.2-1.3,0.4-2.3
	c0.3-1.1,0.6-1.9,0.8-2.3c0.1,0,0.2-0.1,0.3-0.1c0.2,0,0.3,0,0.4,0.1c0.1,0.1,0.2,0.2,0.3,0.4c0.1,0.1,0.1,0.1,0.1,0.3
	c0.1,0.4-0.1,1.1-0.4,2.1c-0.4,1.7-0.5,2.8-0.4,3.4c0.1,0.3,0.2,0.5,0.4,0.6c0.1,0,0.2,0,0.3,0c0.4-0.1,0.9-0.4,1.3-1.1
	c0.5-0.7,0.9-1.7,1.2-3c0.1-0.6,0.2-1.2,0.1-1.8c0,0,0-0.1-0.1-0.2c-0.1-0.3,0.1-0.6,0.3-0.8c0-0.1,0.1-0.2,0.2-0.3
	c0.1-0.1,0.2-0.1,0.2,0l0.4-0.1c0,0,0.1,0,0.2,0.1c0.1,0.1,0.1,0.1,0.2,0.2c0.1,0.1,0.2,0.2,0.3,0.5c0.1,0.5,0,1.4-0.3,2.6
	c-0.2,0.7-0.3,1.3-0.4,1.6c0,0.4,0,0.7,0,1c0.1,0.6,0.4,1.1,1,1.4c0.2,0.1,0.3,0.2,0.4,0.3s0.1,0.3,0.1,0.5c0,0.2-0.1,0.3-0.2,0.4
	c-0.1,0.1-0.3,0.2-0.5,0.2C61.5,29.4,61.3,29.4,61.1,29.3z M68.8,25.2c0,0.1,0,0.2,0,0.3c0,0.1,0,0.2,0,0.4c0,0.1,0.1,0.2,0.1,0.3
	c0.1,0,0.1,0,0.2-0.1c0.1,0,0.1,0,0.2-0.1c0.1,0,0.2,0,0.2,0.1c0.1,0.3,0.2,0.4,0.2,0.5c0,0.2,0,0.4-0.2,0.7
	c-0.1,0.2-0.3,0.3-0.5,0.4c-0.1,0-0.2,0-0.3,0c-0.4-0.1-0.7-0.2-0.9-0.5c-0.2-0.2-0.3-0.5-0.4-0.9c-0.1-0.3-0.1-0.6-0.1-0.7
	c0-0.1,0-0.4,0.1-1c0.1-0.6,0.1-1,0.2-1.2c-0.1,0.1-0.3,0.1-0.4,0.2c-0.1,0.1-0.2,0.2-0.3,0.3c-0.1,0.2-0.3,0.4-0.6,0.6
	c-0.3,0.2-0.5,0.4-0.7,0.5c-0.1,0-0.1,0.1-0.2,0.1c-0.2,0-0.4,0-0.6-0.1c-0.2-0.1-0.4-0.2-0.6-0.4c-0.1-0.2-0.2-0.4-0.3-0.6
	c0-0.1-0.1-0.2-0.1-0.4c-0.1-0.4,0-0.8,0.1-1.3l0.4-1.4c0.1-0.3,0.2-0.8,0.4-1.4c0-0.1,0.1-0.2,0.2-0.4c0.1-0.2,0.1-0.3,0.1-0.4
	c0-0.1,0-0.2,0.1-0.2c0.1-0.1,0.2-0.2,0.2-0.2c0.4,0,0.8,0.1,1,0.3c0.1,0.1,0.2,0.2,0.2,0.3c0,0.2,0,0.3-0.1,0.5
	c-0.4,0.8-0.7,1.8-1.1,3.1c-0.1,0.3-0.1,0.6-0.1,0.8c0,0.1,0,0.1,0.1,0.2c0.3,0,0.6-0.3,1-0.7c0.4-0.4,1-1.1,1.6-1.8l0.5-0.6
	c0.3-0.4,0.6-0.8,0.8-1.3c0.1-0.3,0.3-0.5,0.7-0.6c0.3,0.1,0.4,0.1,0.5,0.1c0.1,0.1,0.2,0.2,0.3,0.4c0.1,0.1,0.2,0.2,0.2,0.3
	c0,0.1-0.1,0.4-0.2,0.7c-0.1,0-0.3,0.3-0.6,0.9c-0.2,0.5-0.4,1-0.5,1.4c0,0.1-0.1,0.2-0.1,0.3c-0.1,0.1-0.1,0.2-0.1,0.3L68.8,25.2z
	 M78.3,17.3c0.2-0.1,0.3-0.2,0.5-0.2c0.2,0,0.4,0,0.6,0.1c0.2,0.1,0.3,0.3,0.4,0.5c0,0,0,0.1,0,0.3c0-0.2-0.1,0.2-0.3,1.1
	c-0.2,1-0.4,1.5-0.4,1.6l0,0.1c0.2,0,0.4,0,0.5,0.1c0.1,0.1,0.2,0.3,0.2,0.5c-0.1,0.1-0.3,0.1-0.4,0.2c-0.1,0.1-0.2,0.2-0.3,0.2
	c0,0-0.1,0-0.2,0.1c-0.1,0.1-0.1,0.1-0.1,0.2c0,0.1,0,0.3,0,0.8l-0.1,1.9c0,0.1-0.1,0.2-0.1,0.3c-0.1,0.1-0.1,0.2-0.2,0.2
	c-0.1,0-0.2,0-0.4-0.1c-0.2-0.1-0.3-0.1-0.4-0.1c-0.1,0-0.1-0.1-0.2-0.1l0-0.1c0-0.2,0-0.5,0-0.7c0.1-0.4,0.1-1,0.1-1.7
	c-0.1,0-0.5,0.1-1,0.2c-0.5,0.2-0.8,0.3-0.8,0.3c-0.1,0.1-0.3,0.1-0.6,0.2c-0.5,0.1-0.8,0.1-1,0.1l-0.1,0.1c0,0.2,0,0.3-0.1,0.5
	c-0.1,0.5-0.1,0.9-0.1,1.2c0,0.2,0,0.4,0,0.6c0,0.2,0,0.4,0,0.8c0.1,0.5-0.1,0.7-0.3,0.8c-0.2,0-0.4,0-0.6-0.1
	c-0.1,0-0.3-0.1-0.5-0.3l0.1-2c0-0.2,0-0.4,0-0.6c0-0.3,0-0.5,0.1-0.7l0.1-0.8c0.1-0.6,0.2-1.1,0.3-1.5c0,0,0.1-0.5,0.3-1.5
	c0-0.1,0.1-0.5,0.2-1c0.1-0.6,0.1-0.9,0.2-1c0-0.2,0.1-0.3,0.3-0.3c0.3-0.1,0.5,0,0.7,0.1c0.2,0.1,0.4,0.2,0.4,0.4c0,0,0,0.1,0,0.3
	c0,0.1,0,0.2,0,0.2l-0.7,3.4l0,0.2c0.1,0,0.2,0,0.4,0c0.1,0,0.3-0.1,0.6-0.2c0.3-0.1,0.4-0.2,0.5-0.2c0.1,0,0.4-0.1,0.7-0.2
	c0.3-0.1,0.6-0.1,0.9-0.2c0.2,0,0.4-0.1,0.4,0l0.1-0.8c0.1-0.9,0.3-1.5,0.5-2.1c0-0.1,0-0.1,0.1-0.3C78.3,17.6,78.3,17.5,78.3,17.3z
	 M83.9,15.7c0.3,0,0.5,0,0.7,0.1c0.2,0.1,0.4,0.2,0.6,0.5c0,0.1-0.2,1.1-0.6,2.8c-0.3,1.1-0.4,1.8-0.4,1.8c0,0,0.1-0.1,0.2-0.4
	c0.2-0.3,0.4-0.6,0.7-0.9c0.3-0.4,0.8-0.9,1.4-1.3c0.2-0.1,0.4-0.2,0.5-0.2c0.2-0.1,0.3-0.1,0.3-0.1c0.4-0.1,0.7,0,1,0.1
	c0.3,0.1,0.5,0.3,0.7,0.6c0.2,0.2,0.3,0.5,0.3,0.7c0.1,0.3,0.2,0.7,0.3,0.9c0,0.2,0,0.4,0,0.6c-0.1,0.3-0.2,0.7-0.4,1.1
	c-0.2,0.4-0.4,0.7-0.6,1c-0.2,0.3-0.5,0.6-0.9,0.9c-0.4,0.3-0.7,0.6-1.1,0.7c-0.5,0.2-0.9,0.4-1.1,0.4c-0.3,0-0.6,0-0.8-0.2
	c-0.1,0-0.1-0.1-0.2-0.2c-0.1-0.1-0.1-0.2-0.2-0.2l0-0.1c0-0.2,0.1-0.3,0.3-0.5c0.2,0.1,0.4,0.1,0.6,0c0.4-0.1,0.8-0.3,1.2-0.6
	c0.4-0.3,0.7-0.7,0.9-1.1c0.5-0.9,0.8-1.7,0.7-2.3c0-0.1-0.1-0.3-0.1-0.3c0-0.1-0.2-0.2-0.3-0.3c-0.6,0.3-1,0.6-1.2,1
	c-0.6,0.8-1.1,1.3-1.3,1.7c-0.2,0.3-0.5,0.9-0.8,1.6c-0.2,0.4-0.4,0.6-0.6,0.6l0.1,0.1c0,0.2-0.1,0.4-0.3,0.5
	c-0.4,0-0.6-0.1-0.8-0.1c-0.2-0.1-0.3-0.3-0.3-0.5c0-0.1,0-0.2,0-0.3c0-0.1,0-0.2,0-0.3c0-0.1,0-0.2,0-0.3c0-0.1,0-0.3,0-0.5
	c0-0.3,0-0.5,0.1-0.6c0.2-0.8,0.2-1.3,0.3-1.4c0.2-1,0.3-1.7,0.4-2.2c0.1-0.5,0.3-0.9,0.4-1.2L83.9,15.7z M91.5,14.9
	c0.1-0.2,0.3-0.3,0.4-0.3c0.2,0,0.6,0.1,1,0.4c0.1,0.2,0.2,0.4,0.2,0.5c0,0.1,0,0.3,0,0.5c-0.1,0.3-0.2,1.1-0.4,2.3
	c0,0.2-0.1,0.7-0.2,1.6c-0.1,0.9-0.2,1.5-0.2,1.8c-0.1,0.4-0.1,1-0.1,1.6l0,0.1c0,0.2,0,0.4-0.3,0.6c-0.6,0-1-0.2-1.3-0.8
	c0-0.2-0.1-0.5,0-0.8c0-0.3,0-0.5,0.1-0.7c0-0.3,0.1-0.9,0.2-1.6c0.1-0.4,0.1-0.7,0.1-0.8c0.1-0.4,0.2-0.8,0.2-1.4
	c0-0.4,0.1-0.9,0.2-1.6C91.5,16,91.5,15.5,91.5,14.9z M101.5,22.1c-0.1,0.1-0.3,0.1-0.5,0c-0.2-0.1-0.4-0.2-0.6-0.4
	c-0.2-0.2-0.3-0.4-0.4-0.6c-0.1-0.2-0.1-0.7-0.3-1.4c0-0.2-0.1-0.2-0.1-0.2c0,0-0.2,0.1-0.3,0.3c-0.2,0.2-0.3,0.4-0.6,0.7
	c-0.4,0.5-0.7,0.9-1,1.2c-0.3,0.3-0.6,0.5-0.8,0.5c-0.2,0-0.4-0.1-0.7-0.3c-0.2-0.2-0.4-0.5-0.6-0.8c-0.1-0.2-0.1-0.4-0.2-0.7
	c-0.1-0.7-0.1-1.6,0-2.6c0.1-1,0.3-1.9,0.6-2.7c0.3-0.8,0.5-1.2,0.8-1.3c0.2,0,0.5,0.2,0.8,0.7c0.1,0.1,0.1,0.2,0.1,0.2
	c0,0.1,0,0.2-0.1,0.4c-0.2,0.4-0.4,1-0.6,1.8c-0.2,0.9-0.3,1.7-0.4,2.4c-0.1,0.7,0,1.1,0.1,1.1c0.2,0,0.5-0.2,0.8-0.4
	c0.3-0.2,0.6-0.5,0.8-0.9c0.3-0.4,0.5-0.7,0.7-1.1c0.2-0.4,0.4-0.9,0.7-1.6c0.5-1.2,0.8-1.9,0.8-2.1c0.2-0.5,0.3-0.8,0.4-1
	c0.1-0.2,0.2-0.3,0.4-0.4l0.3-0.1c0.1,0,0.2,0.1,0.4,0.2c0.1,0,0.2,0.1,0.2,0.1c0,0,0.1,0.1,0.1,0.2l-0.2,1l-0.1,0.6
	c0,0.1-0.1,0.3-0.2,0.6c-0.2,0.9-0.4,1.6-0.5,2.2c-0.1,0.5-0.2,1.1-0.2,1.7c0,0.1,0,0.2,0.1,0.4c0.1,0.5,0.2,0.8,0.3,1
	c0.2,0.3,0.4,0.5,0.6,0.6c0.1,0.1,0.1,0.1,0.2,0.2c0,0.1-0.1,0.2-0.2,0.4C101.7,22,101.6,22.1,101.5,22.1z M99.3,11.2
	c-0.9,0.2-1.7-0.4-2.3-1.7C97,9.4,97,9.3,97,9.3c0-0.1,0-0.2,0-0.4c0-0.1,0.1-0.1,0.2-0.2c0.1-0.1,0.2-0.1,0.2-0.1
	c0.2,0,0.4,0.1,0.5,0.2c0.1,0.1,0.2,0.2,0.3,0.4c0.1,0.1,0.1,0.2,0.1,0.3c0.2,0.4,0.4,0.6,0.7,0.5c0,0,0.2-0.1,0.4-0.2
	c0.6-0.4,1.1-0.8,1.4-1.2c0,0,0.3-0.4,0.9-1.1l0,0c0.1,0,0.1-0.1,0.2-0.1c0.1,0,0.2,0,0.3,0c0.1,0.1,0.2,0.2,0.2,0.2
	c0,0.1,0.1,0.2,0.1,0.2c0,0.1,0,0.1,0,0.2l0,0.1c0.1,0.1,0,0.3-0.1,0.6c-0.1,0.3-0.3,0.6-0.5,0.8c-0.3,0.3-0.7,0.7-1.4,1.2
	c-0.1,0.1-0.2,0.2-0.4,0.2C99.8,11.1,99.6,11.2,99.3,11.2z M112.4,26c-0.1,0-0.3,0-0.4-0.2c-0.1-0.1-0.2-0.2-0.2-0.4
	c0-0.1,0-0.4,0-0.9c0.1-0.7,0.1-1.2,0-1.5c0-0.1,0-0.2,0-0.4c0-0.2,0-0.3,0-0.4c0-0.1,0.1-0.3,0.1-0.6c0-0.2,0-0.5,0-0.6
	c0-0.1,0-0.2,0-0.3c0-0.1,0.1-0.2,0.2-0.3c0-0.1,0-0.3,0-0.5c0-0.2,0-0.4,0-0.5c0-0.5,0.1-1.6,0.4-3.3c0.3-1.8,0.5-3.2,0.7-4.3
	c0.1-0.4,0.2-0.8,0.2-1.2c0-0.4,0-0.6,0-0.8c0-0.1,0-0.1,0-0.2c0-0.1,0.1-0.2,0.2-0.3c0.1-0.1,0.2-0.2,0.3-0.2c0.1,0,0.2,0,0.3,0.1
	s0.2,0.1,0.3,0.2c0.1,0.1,0.2,0.3,0.3,0.4c0.1,0.1,0.1,0.3,0.2,0.4c0,0,0,0.2,0,0.5c0.1,0.3,0,0.6-0.1,0.9c-0.1,0.2-0.2,0.3-0.1,0.3
	c0.7-0.5,1.3-0.8,1.9-0.9c0.7-0.1,1.3,0,1.7,0.4c0.5,0.4,0.8,0.9,0.9,1.6c0.1,0.3,0,0.7-0.1,1.1c-0.1,0.4-0.2,0.7-0.3,0.9
	c-0.1,0-0.2,0.2-0.3,0.6c-0.2,0.3-0.5,0.6-0.9,1c-0.4,0.4-0.8,0.5-1,0.5c0,0,0,0-0.1,0s0,0.1,0,0.1c0,0.1-0.2,0.2-0.8,0.5
	c-0.5,0.3-1,0.5-1.3,0.5c-0.2,0-0.3,0.1-0.4,0.1c-0.1,0-0.2-0.1-0.3-0.1c-0.1,0.1-0.1,0.3-0.1,0.4c0,0.2,0,0.5-0.1,1
	c-0.1,0.5-0.2,0.8-0.3,0.8c0,0,0,0.1-0.1,0.1c0,0.1,0,0.1,0.1,0.2c0,0,0,0.2,0,0.3c0,0.2,0,0.3,0,0.4c0,0.1,0,0.3,0,0.6
	c0,0.3,0,0.5-0.1,0.6c0,0.2,0,0.4,0,0.6c0,0.2-0.1,0.3-0.1,0.3c-0.1,0.1-0.1,0.3,0,0.7c0.1,0.4,0,0.7-0.1,1
	c-0.1,0.3-0.3,0.4-0.5,0.4L112.4,26z M114.1,17.2c0.2,0,0.7-0.3,1.4-0.6c0.7-0.4,1.2-0.7,1.4-1c0.3-0.4,0.5-0.7,0.7-1.1
	c0.2-0.4,0.2-0.7,0.1-1.1c0-0.3-0.2-0.5-0.3-0.7c-0.1-0.2-0.4-0.2-0.6-0.2c-0.3,0.1-0.7,0.2-1.1,0.6c-0.4,0.3-0.8,0.7-1.1,1.1
	c-0.2,0.3-0.4,0.8-0.6,1.4c-0.1,0.6-0.2,1-0.1,1.3C114,17.1,114,17.2,114.1,17.2z M122.2,17.6c-0.1-0.1-0.2-0.2-0.3-0.3
	c-0.1-0.1-0.2-0.2-0.2-0.2c0-0.2-0.1-0.3-0.2-0.4c0,0-0.1-0.1-0.1-0.2c0-0.3,0-0.7,0.1-1.4c0.1-0.7,0.4-1.4,0.6-2.2
	c0.1-0.1,0.2-0.3,0.3-0.6c0.1-0.3,0.2-0.4,0.2-0.5c0-0.1,0-0.1,0-0.2c0-0.1,0.1-0.1,0.2-0.1l0-0.1c0-0.1,0.2-0.5,0.6-1.2
	c0.4-0.7,0.8-1.1,1.1-1.4c0.4-0.4,0.8-0.6,1.2-0.6c0.3-0.1,0.6,0,0.8,0.1c0.1,0.1,0.5,0.4,1.3,0.9l1.1,0.7l-0.2,1.3
	c-0.1,0.5-0.1,0.9,0,1.2c0.1,0.6,0.4,1.2,0.9,1.7c0.1,0.2,0.3,0.3,0.6,0.4c0.3,0.1,0.5,0.2,0.8,0.2c0.4,0,0.6,0.2,0.6,0.4
	c0.1,0.3-0.1,0.6-0.3,0.7c-0.1,0-0.2,0.1-0.3,0.1c-1,0.2-1.9-0.4-2.9-1.6c-0.1-0.1-0.2-0.3-0.4-0.5c-0.1-0.2-0.2-0.4-0.3-0.5
	c-0.1,0.1-0.2,0.3-0.3,0.5c-0.1,0.2-0.2,0.4-0.3,0.5c-1.5,2.1-2.7,3.2-3.8,3.4C122.8,17.8,122.4,17.8,122.2,17.6z M122.8,16.1
	c0,0.1,0.1,0.1,0.3,0c0.2-0.1,0.4-0.2,0.6-0.4c0.2-0.2,0.5-0.4,0.7-0.7c1.2-1.5,2-2.7,2.5-3.7l0.4-1c-0.2-0.3-0.4-0.5-0.6-0.6
	c-0.2-0.1-0.4-0.2-0.5-0.2c-0.3,0.1-0.8,0.6-1.4,1.6c-0.6,1-1.1,2.1-1.5,3.4c-0.1,0.3-0.2,0.6-0.2,0.9
	C122.9,15.8,122.8,16,122.8,16.1z M135.8,15.9c-0.2,0.1-0.4,0.1-0.5,0.1c-0.6,0.1-1.1,0-1.6-0.3c-0.5-0.3-0.8-0.8-0.9-1.5
	c-0.2-0.7-0.2-1.6,0-2.8c0.2-1.1,0.5-2.1,1-2.9c0.3-0.5,0.6-1,0.9-1.3c0.2-0.3,0.5-0.6,0.7-0.7c0.3-0.2,0.7-0.4,1.1-0.4
	c0.3,0,0.6,0.1,0.9,0.2c0.3,0.1,0.5,0.3,0.5,0.5l0.1,0.1c0.1,0,0.2,0.1,0.3,0.3c0.1,0.2,0.2,0.5,0.3,0.7c0,0.2,0,0.4,0,0.6
	c0,0.3-0.1,0.6-0.2,0.9c-0.1,0.3-0.2,0.4-0.4,0.4c-0.2,0-0.3,0.1-0.2,0.2c0,0.1,0,0.1-0.1,0.1c-0.1,0-0.2,0-0.3-0.1
	c-0.1-0.1-0.2-0.2-0.3-0.3c0,0,0-0.2,0-0.4c0-0.2,0-0.5,0.1-0.8c0-0.2,0-0.4,0-0.5c-0.1-0.3-0.2-0.5-0.5-0.4c-0.1,0-0.3,0.1-0.4,0.2
	c-0.6,0.5-1.1,1.2-1.4,2c-0.4,0.9-0.6,2-0.7,3.5c0,0.4,0,0.7,0,0.9c0,0.2,0.1,0.3,0.1,0.4c0.1,0.1,0.1,0.1,0.1,0.2
	c0.1,0,0.3,0,0.5,0c0.6-0.1,1-0.3,1.2-0.4c0.5-0.4,1-0.9,1.5-1.4c0.1-0.1,0.1-0.2,0.3-0.3c0.1-0.2,0.2-0.3,0.3-0.3
	c0.1-0.2,0.2-0.3,0.3-0.4c0.1-0.1,0.2-0.1,0.5-0.2c0.2,0,0.4,0.1,0.6,0.2c0.1,0.1,0.2,0.2,0,0.2c0,0-0.1,0-0.1,0.1c0,0,0,0.1,0,0.1
	c0,0.1,0,0.3-0.3,0.7c-0.2,0.4-0.5,0.8-0.8,1.1c-0.3,0.3-0.5,0.5-0.7,0.5c-0.1,0-0.1,0-0.2,0.1c0,0-0.1,0.1-0.1,0.1
	c0,0.1-0.2,0.3-0.7,0.6C136.4,15.5,136.1,15.7,135.8,15.9z M144.8,14.3c-0.2,0.1-0.4,0.1-0.5,0.1c-0.6,0.1-1.1,0-1.6-0.3
	c-0.5-0.3-0.8-0.8-0.9-1.5c-0.2-0.7-0.2-1.6,0-2.8c0.2-1.1,0.5-2.1,1-2.9c0.3-0.5,0.6-1,0.9-1.3c0.2-0.3,0.5-0.6,0.7-0.7
	c0.3-0.2,0.7-0.4,1.1-0.4c0.3,0,0.6,0.1,0.9,0.2c0.3,0.1,0.5,0.3,0.5,0.5l0.1,0.1c0.1,0,0.2,0.1,0.3,0.3c0.1,0.2,0.2,0.5,0.3,0.7
	c0,0.2,0,0.4,0,0.6c0,0.3-0.1,0.6-0.2,0.9c-0.1,0.3-0.2,0.4-0.4,0.4c-0.2,0-0.3,0.1-0.2,0.2c0,0.1,0,0.1-0.1,0.1
	c-0.1,0-0.2,0-0.3-0.1c-0.1-0.1-0.2-0.2-0.3-0.3c0,0,0-0.2,0-0.4c0-0.2,0-0.5,0.1-0.8c0-0.2,0-0.4,0-0.5c-0.1-0.3-0.2-0.5-0.5-0.4
	c-0.1,0-0.3,0.1-0.4,0.2c-0.6,0.5-1.1,1.2-1.4,2c-0.4,0.9-0.6,2-0.7,3.5c0,0.4,0,0.7,0,0.9c0,0.2,0.1,0.3,0.1,0.4
	c0.1,0.1,0.1,0.1,0.1,0.2c0.1,0,0.3,0,0.5,0c0.6-0.1,1-0.3,1.2-0.4c0.5-0.4,1-0.9,1.5-1.4c0.1-0.1,0.1-0.2,0.3-0.3
	c0.1-0.2,0.2-0.3,0.3-0.3c0.1-0.2,0.2-0.3,0.3-0.4c0.1-0.1,0.2-0.1,0.5-0.2c0.2,0,0.4,0.1,0.6,0.2c0.1,0.1,0.2,0.2,0,0.2
	c-0.1,0-0.1,0-0.1,0.1c0,0,0,0.1,0,0.1c0,0.1,0,0.3-0.3,0.7c-0.2,0.4-0.5,0.8-0.8,1.1c-0.3,0.3-0.5,0.5-0.7,0.5
	c-0.1,0-0.1,0-0.2,0.1c0,0-0.1,0.1-0.1,0.1c0,0.1-0.2,0.3-0.7,0.6C145.4,13.9,145.1,14.2,144.8,14.3z M152.9,3.4c0,0,0.1,0,0.2,0
	c0.1,0,0.1,0,0.2,0.1c0.2,0.1,0.3,0.3,0.3,0.5c0,0.1,0,0.3,0,0.4c-0.1,0.2-0.2,0.5-0.3,0.7c-0.1,0.4-0.3,0.8-0.4,1.1
	c-0.1,0.3-0.2,0.8-0.2,1.3c0.4-0.2,0.7-0.3,0.8-0.4c0.1-0.1,0.3-0.4,0.6-0.8c0.2-0.3,0.5-0.7,0.7-0.9c0.8-1.1,1.3-1.8,1.3-1.9
	c0.1-0.2,0.2-0.4,0.3-0.5c0.1-0.1,0.2-0.2,0.4-0.3c0.2,0,0.4,0,0.5,0c0.1,0,0.3,0.1,0.7,0.3c0.1,0.1,0.1,0.2,0.2,0.3
	c0.1,0.3,0,0.5-0.2,0.7c0,0-0.3,0.4-0.8,0.9c-1,1.2-1.9,2.2-2.6,2.9c0.5,0.5,0.9,1.1,1.4,1.7c0.1,0.4,0.3,0.6,0.6,0.7
	c0.3,0.1,0.6,0.1,1.1,0c0.1,0,0.2,0.1,0.3,0.2c0.1,0.1,0.1,0.2,0.1,0.3c0,0.1,0.1,0.2,0.1,0.3c-0.1,0.1-0.3,0.3-0.4,0.4
	c-0.1,0.2-0.2,0.2-0.3,0.3c-0.1,0-0.3,0-0.6-0.1c-0.2,0-0.5-0.1-0.7-0.2c-0.2-0.1-0.5-0.3-0.7-0.5c-0.2-0.2-0.7-0.7-1.5-1.5
	c-0.7-0.8-1.2-1.3-1.2-1.4c0,0.1-0.1,0.3-0.1,0.5c0,0.2-0.1,0.3-0.1,0.4c0,0.1,0,0.3,0,0.5c-0.1,0.3-0.2,0.6-0.2,1
	c0,0.4,0,0.6-0.1,0.8c0,0.4-0.2,0.7-0.5,1c-0.3,0-0.6-0.1-1-0.4c-0.1-0.1-0.2-0.3-0.2-0.5c0-0.2,0-0.4,0-0.6c0-0.2,0.1-0.5,0.2-1.1
	c0.1-0.6,0.2-1,0.2-1.4c0-0.2,0.1-0.6,0.2-1.2c0.1-0.6,0.2-0.9,0.2-1c0-0.2,0.1-0.6,0.3-1c0.2-0.6,0.3-1.1,0.4-1.5
	c0-0.1,0.1-0.2,0.2-0.4c0.1-0.1,0.3-0.2,0.4-0.3C152.6,3.2,152.8,3.2,152.9,3.4z M160.5,10.9c-0.1-0.1-0.2-0.2-0.3-0.3
	c-0.1-0.1-0.2-0.2-0.2-0.2c0-0.2-0.1-0.3-0.2-0.4c0,0-0.1-0.1-0.1-0.2c0-0.3,0-0.7,0.1-1.4c0.1-0.7,0.4-1.4,0.6-2.2
	c0.1-0.1,0.2-0.3,0.3-0.6c0.1-0.3,0.2-0.4,0.2-0.5c0-0.1,0-0.1,0-0.2c0-0.1,0.1-0.1,0.2-0.1l0-0.1c0-0.1,0.2-0.5,0.6-1.2
	c0.4-0.7,0.8-1.1,1.1-1.4c0.4-0.4,0.8-0.6,1.2-0.6c0.3-0.1,0.6,0,0.8,0.1c0.1,0.1,0.5,0.4,1.3,0.9l1.1,0.7l-0.2,1.3
	c-0.1,0.5-0.1,0.9,0,1.2c0.1,0.6,0.4,1.2,0.9,1.7c0.1,0.2,0.3,0.3,0.6,0.4c0.3,0.1,0.5,0.2,0.8,0.2c0.4,0,0.6,0.2,0.6,0.4
	c0.1,0.3-0.1,0.6-0.3,0.7c-0.1,0-0.2,0.1-0.3,0.1c-1,0.2-1.9-0.4-2.9-1.6c-0.1-0.1-0.2-0.3-0.4-0.5c-0.1-0.2-0.2-0.4-0.3-0.5
	c-0.1,0.1-0.2,0.3-0.3,0.5s-0.2,0.4-0.3,0.5c-1.5,2.1-2.7,3.2-3.8,3.4C161.1,11,160.8,11,160.5,10.9z M161.1,9.3
	c0,0.1,0.1,0.1,0.3,0c0.2-0.1,0.4-0.2,0.6-0.4c0.2-0.2,0.5-0.4,0.7-0.7c1.2-1.5,2-2.7,2.5-3.7l0.4-1c-0.2-0.3-0.4-0.5-0.6-0.6
	c-0.2-0.1-0.4-0.2-0.5-0.2c-0.3,0.1-0.8,0.6-1.4,1.6c-0.6,1-1.1,2.1-1.5,3.4c-0.1,0.3-0.2,0.6-0.2,0.9
	C161.2,9.1,161.2,9.2,161.1,9.3z M173.2,0c0.8-0.1,1.4,0.1,2,0.6c0.5,0.4,0.8,0.9,0.9,1.4c0.1,0.6,0,1.4-0.4,2.4
	c-0.3,0.6-1,1.5-2.3,2.7l-0.5,0.5c0.2,0.2,0.5,0.6,0.8,1.2c0.3,0.6,0.5,1.1,0.6,1.5c0,0.1,0,0.2,0,0.4c0.1,0,0.3,0,0.6-0.2
	c0.3-0.1,0.5-0.2,0.6-0.2c0.1,0.1,0.2,0.1,0.3,0.2c0.2,0.1,0.3,0.2,0.3,0.2c0.1,0.1,0.1,0.2,0.1,0.3l0,0.1c0,0.1,0,0.2-0.1,0.2
	c0,0.1-0.1,0.1-0.2,0.2c-0.1,0-0.2,0.1-0.4,0.1c-0.2,0-0.4,0.1-0.7,0.1c-0.2,0.1-0.5,0.1-0.6,0.3c-0.1,0.2-0.2,0.4-0.2,0.7
	c-0.1,0.3-0.1,0.5-0.1,0.6c-0.1,0.6-0.3,1.1-0.5,1.6c-0.2,0.5-0.5,1-0.9,1.5c-0.2,0.2-0.4,0.4-0.6,0.6c-0.2,0.2-0.3,0.3-0.5,0.3
	c-0.5,0.3-1,0.5-1.4,0.5c-0.8,0.1-1.5,0-2.1-0.5c-0.2-0.3-0.3-0.5-0.4-0.6c-0.1-0.1-0.2-0.2-0.6-0.4c0-0.1,0-0.3,0-0.5
	c0-0.2,0.1-0.4,0.2-0.6c0.6-1,1.4-1.8,2.6-2.4c0,0,0.1-0.1,0.2-0.1c0.1-0.1,0.2-0.1,0.3-0.1c0.1,0,0.1,0,0.1-0.1
	c0-0.1,0.1-0.1,0.1-0.1c0,0,0.1,0,0.2,0c0,0,0.1-0.1,0.2-0.2c0.1-0.1,0.2-0.1,0.3-0.1c0,0,0.3-0.1,0.7-0.4c0.5-0.2,0.8-0.4,1-0.5
	c0-0.4-0.1-0.8-0.1-1c-0.1-0.7-0.4-1.2-0.7-1.4c-0.2-0.1-0.4-0.3-0.6-0.6c-0.2-0.3-0.3-0.5-0.4-0.6c0-0.3,0.2-0.5,0.4-0.7
	c0.5-0.4,1-0.9,1.7-1.6c0.6-0.7,1.2-1.5,1.5-2.3c0.1-0.3,0.2-0.6,0.2-0.8c-0.1-0.4-0.4-0.6-1-0.6c-0.6,0.1-1.3,0.7-2.2,1.7
	c-0.1,0.1-0.2,0.1-0.2,0.1c-0.3,0-0.5-0.1-0.7-0.6c0-0.2,0-0.3,0.1-0.4c0.1-0.1,0.2-0.3,0.3-0.5l0.2-0.5c0.1-0.1,0.2-0.2,0.4-0.3
	c0.2-0.2,0.3-0.3,0.4-0.4c0.1-0.1,0.3-0.1,0.4-0.2c0.1,0,0.2,0,0.3-0.1C173,0.1,173.1,0,173.2,0z M172.4,13c-0.1,0-0.1-0.1-0.2,0
	c-0.1,0-0.2,0.1-0.4,0.2c-0.2,0.1-0.2,0.2-0.3,0.2c-0.1,0-0.1,0.1-0.2,0.1c-0.1,0.1-0.2,0.1-0.3,0.2c-0.4,0.2-0.9,0.5-1.3,0.9
	c-0.5,0.4-0.8,0.7-1,1.1c-0.1,0.3-0.3,0.5-0.5,0.7c0.2,0.2,0.5,0.3,0.7,0.3c0,0,0.1,0,0.3,0c0.3,0,0.6-0.1,0.9-0.3
	c0.3-0.1,0.6-0.3,0.9-0.5c0.4-0.4,0.8-1,1.2-1.8C172.3,13.6,172.4,13.3,172.4,13z M320,209.6c-0.5,0-1-0.4-1-1c0-0.6,0.4-1,1-1
	c3.3,0,6.7-0.1,10-0.2c0.6,0,1,0.4,1,1s-0.4,1-1,1C326.7,209.5,323.3,209.5,320,209.6C320,209.6,320,209.6,320,209.6z M310,209.5
	C310,209.5,310,209.5,310,209.5c-3.4-0.1-6.7-0.2-10-0.3c-0.6,0-1-0.5-1-1s0.5-1,1-1c3.3,0.1,6.6,0.2,10,0.3c0.6,0,1,0.5,1,1
	C311,209.1,310.5,209.5,310,209.5z M340,209c-0.5,0-1-0.4-1-1c0-0.6,0.4-1,1-1c3.3-0.2,6.6-0.3,10-0.6c0.6,0,1,0.4,1.1,0.9
	c0,0.6-0.4,1-0.9,1.1C346.7,208.7,343.3,208.9,340,209C340,209,340,209,340,209z M290,208.7C290,208.7,290,208.7,290,208.7
	c-3.4-0.2-6.8-0.5-10.1-0.8c-0.5,0-1-0.5-0.9-1.1s0.5-1,1.1-0.9c3.3,0.3,6.6,0.6,9.9,0.8c0.6,0,1,0.5,0.9,1.1
	C291,208.3,290.5,208.7,290,208.7z M359.9,207.7c-0.5,0-1-0.4-1-0.9c0-0.5,0.4-1,0.9-1.1c3.3-0.3,6.6-0.6,9.9-0.9
	c0.6,0,1,0.3,1.1,0.9s-0.3,1-0.9,1.1C366.7,207.2,363.3,207.5,359.9,207.7C360,207.7,360,207.7,359.9,207.7z M270.1,206.9
	c0,0-0.1,0-0.1,0c-3.4-0.4-6.7-0.8-9.9-1.3c-0.5-0.1-0.9-0.6-0.8-1.1c0.1-0.5,0.6-0.9,1.1-0.8c3.2,0.5,6.5,0.9,9.9,1.3
	c0.5,0.1,0.9,0.6,0.9,1.1C271,206.5,270.6,206.9,270.1,206.9z M379.8,205.7c-0.5,0-0.9-0.4-1-0.9c-0.1-0.5,0.3-1,0.9-1.1
	c3.3-0.4,6.6-0.8,9.9-1.2c0.5-0.1,1.1,0.3,1.1,0.9s-0.3,1.1-0.9,1.1c-3.3,0.4-6.7,0.9-9.9,1.3C379.9,205.7,379.9,205.7,379.8,205.7z
	 M250.3,204c-0.1,0-0.1,0-0.2,0c-3.3-0.6-6.6-1.2-9.8-1.9c-0.5-0.1-0.9-0.6-0.8-1.2c0.1-0.5,0.6-0.9,1.2-0.8
	c3.2,0.7,6.5,1.3,9.8,1.9c0.5,0.1,0.9,0.6,0.8,1.2C251.2,203.6,250.8,204,250.3,204z M399.7,203.1c-0.5,0-0.9-0.4-1-0.9
	c-0.1-0.5,0.3-1.1,0.8-1.1c3.2-0.5,6.6-1,9.9-1.5c0.6-0.1,1.1,0.3,1.1,0.8c0.1,0.5-0.3,1.1-0.8,1.1c-3.3,0.5-6.6,1.1-9.9,1.6
	C399.8,203.1,399.7,203.1,399.7,203.1z M230.8,199.8c-0.1,0-0.2,0-0.2,0c-3.3-0.8-6.5-1.7-9.7-2.6c-0.5-0.2-0.8-0.7-0.7-1.2
	c0.2-0.5,0.7-0.8,1.2-0.7c3.1,0.9,6.4,1.8,9.6,2.6c0.5,0.1,0.9,0.7,0.7,1.2C231.6,199.5,231.2,199.8,230.8,199.8z M211.6,194.2
	c-0.1,0-0.2,0-0.3-0.1c-3.2-1.1-6.4-2.2-9.5-3.4c-0.5-0.2-0.8-0.8-0.6-1.3c0.2-0.5,0.8-0.8,1.3-0.6c3,1.2,6.2,2.3,9.4,3.4
	c0.5,0.2,0.8,0.7,0.6,1.3C212.4,193.9,212,194.2,211.6,194.2z M192.9,187.1c-0.1,0-0.3,0-0.4-0.1c-3.1-1.3-6.2-2.8-9.1-4.2
	c-0.5-0.2-0.7-0.8-0.5-1.3s0.8-0.7,1.3-0.5c2.9,1.4,6,2.8,9,4.2c0.5,0.2,0.7,0.8,0.5,1.3C193.7,186.8,193.3,187.1,192.9,187.1z
	 M175,178.2c-0.2,0-0.3,0-0.5-0.1c-2.9-1.6-5.8-3.4-8.6-5.1c-0.5-0.3-0.6-0.9-0.3-1.4c0.3-0.5,0.9-0.6,1.4-0.3
	c2.8,1.7,5.6,3.5,8.5,5.1c0.5,0.3,0.7,0.9,0.4,1.4C175.7,178,175.4,178.2,175,178.2z M158.1,167.5c-0.2,0-0.4-0.1-0.6-0.2
	c-2.7-2-5.4-4-8-6.1c-0.4-0.3-0.5-1-0.1-1.4c0.3-0.4,1-0.5,1.4-0.1c2.5,2.1,5.2,4.1,7.9,6c0.4,0.3,0.6,0.9,0.2,1.4
	C158.7,167.4,158.4,167.5,158.1,167.5z M142.6,155c-0.2,0-0.5-0.1-0.7-0.3c-2.5-2.3-4.9-4.6-7.2-7c-0.4-0.4-0.4-1,0-1.4
	c0.4-0.4,1-0.4,1.4,0c2.3,2.4,4.6,4.7,7.1,7c0.4,0.4,0.4,1,0.1,1.4C143.2,154.8,142.9,155,142.6,155z M128.8,140.5
	c-0.3,0-0.6-0.1-0.8-0.4c-2.1-2.6-4.2-5.2-6.2-7.9c-0.3-0.4-0.2-1.1,0.2-1.4c0.4-0.3,1.1-0.2,1.4,0.2c1.9,2.7,4,5.3,6.1,7.8
	c0.4,0.4,0.3,1.1-0.1,1.4C129.3,140.4,129.1,140.5,128.8,140.5z M117.1,124.3c-0.3,0-0.7-0.2-0.8-0.5c-1.8-2.8-3.5-5.8-5-8.7
	c-0.3-0.5-0.1-1.1,0.4-1.4c0.5-0.3,1.1-0.1,1.4,0.4c1.6,2.9,3.2,5.8,5,8.6c0.3,0.5,0.2,1.1-0.3,1.4
	C117.5,124.3,117.3,124.3,117.1,124.3z M107.7,106.7c-0.4,0-0.7-0.2-0.9-0.6c-1.4-3-2.7-6.2-3.8-9.3c-0.2-0.5,0.1-1.1,0.6-1.3
	c0.5-0.2,1.1,0.1,1.3,0.6c1.2,3.1,2.4,6.2,3.8,9.2c0.2,0.5,0,1.1-0.5,1.3C108,106.7,107.9,106.7,107.7,106.7z M100.7,88
	c-0.4,0-0.8-0.3-1-0.7c-1-3.2-1.9-6.4-2.6-9.7c-0.1-0.5,0.2-1.1,0.7-1.2c0.5-0.1,1.1,0.2,1.2,0.7c0.8,3.2,1.7,6.5,2.6,9.6
	c0.2,0.5-0.1,1.1-0.7,1.2C100.9,88,100.8,88,100.7,88z M96,68.6c-0.5,0-0.9-0.3-1-0.8c-0.6-3.3-1.1-6.6-1.5-9.9
	c-0.1-0.5,0.3-1,0.9-1.1c0.5-0.1,1,0.3,1.1,0.9c0.4,3.3,0.9,6.6,1.5,9.8c0.1,0.5-0.3,1.1-0.8,1.2C96.2,68.6,96.1,68.6,96,68.6z
	 M426.1,214.4l9.6-19.8c0.7-1.4,0.7-3.1-0.1-4.5c-0.7-1.4-2.1-2.4-3.6-2.6l-26.1-4.2c-0.6-0.1-1.1,0.3-1.1,0.8
	c-0.1,0.5,0.3,1.1,0.8,1.1l26.1,4.2c0.9,0.2,1.7,0.7,2.2,1.6c0.4,0.8,0.5,1.8,0,2.7l-9.6,19.8c-0.2,0.5,0,1.1,0.5,1.3
	c0.1,0.1,0.3,0.1,0.4,0.1C425.6,215,426,214.8,426.1,214.4z"/>
</svg>
