<svg version="1.1" xmlns="http://www.w3.org/2000/svg" xmlns:xlink="http://www.w3.org/1999/xlink" viewBox="0 0 346.9 74.3" xml:space="preserve">
<path style="fill:#2D2D2D;" d="M334.5,52.1c-0.1,0-0.3,0-0.4-0.1c-0.5-0.2-0.8-0.8-0.5-1.3c0.6-1.4,1.1-2.8,1.6-4.2
	c0.2-0.5,0.8-0.8,1.3-0.6c0.5,0.2,0.8,0.8,0.6,1.3c-0.5,1.4-1.1,2.8-1.7,4.3C335.3,51.8,334.9,52.1,334.5,52.1z M61.6,38.5
	c-1,0-2,0-2.9,0c-0.6,0-1-0.5-1-1c0-0.5,0.5-1,1-1c0,0,0,0,0,0c3.2,0,6.6,0,10-0.1c0.5,0,1,0.4,1,1s-0.4,1-1,1
	C66.3,38.5,63.9,38.5,61.6,38.5z M339.1,38.3c-0.1,0-0.2,0-0.2,0c-0.5-0.1-0.9-0.7-0.7-1.2c0.8-3.5,1.3-6.7,1.4-9.7c0-0.6,0.5-1,1-1
	c0.6,0,1,0.5,1,1c-0.1,3.1-0.6,6.5-1.5,10.1C340,38,339.6,38.3,339.1,38.3z M48.7,38.1C48.6,38.1,48.6,38.1,48.7,38.1
	c-3.5-0.2-6.9-0.5-10.1-0.9c-0.5-0.1-0.9-0.6-0.9-1.1c0.1-0.5,0.6-0.9,1.1-0.9c3.2,0.4,6.5,0.7,9.9,0.9c0.6,0,1,0.5,0.9,1.1
	C49.6,37.7,49.2,38.1,48.7,38.1z M78.6,37.9c-0.5,0-1-0.4-1-0.9c0-0.6,0.4-1,0.9-1.1c3.2-0.2,6.6-0.5,9.9-0.8c0.6,0,1,0.4,1.1,0.9
	c0,0.6-0.4,1-0.9,1.1C85.3,37.5,81.9,37.7,78.6,37.9C78.7,37.9,78.7,37.9,78.6,37.9z M98.6,36.2c-0.5,0-0.9-0.4-1-0.9
	c-0.1-0.5,0.3-1,0.9-1.1c3.2-0.4,6.5-0.8,9.9-1.2c0.6-0.1,1.1,0.3,1.1,0.9c0.1,0.5-0.3,1.1-0.9,1.1c-3.4,0.5-6.7,0.9-10,1.2
	C98.6,36.2,98.6,36.2,98.6,36.2z M28.8,35.6c-0.1,0-0.1,0-0.2,0c-3.4-0.7-6.7-1.5-9.8-2.5c-0.5-0.2-0.8-0.7-0.7-1.3
	c0.2-0.5,0.7-0.8,1.3-0.7c3,0.9,6.2,1.7,9.6,2.4c0.5,0.1,0.9,0.6,0.8,1.2C29.7,35.3,29.3,35.6,28.8,35.6z M118.4,33.5
	c-0.5,0-0.9-0.4-1-0.9c-0.1-0.5,0.3-1.1,0.8-1.1c3.2-0.5,6.5-1,9.9-1.6c0.5-0.1,1.1,0.3,1.1,0.8c0.1,0.5-0.3,1.1-0.8,1.1
	c-3.4,0.6-6.7,1.1-9.9,1.6C118.5,33.5,118.5,33.5,118.4,33.5z M138.2,30.2c-0.5,0-0.9-0.3-1-0.8c-0.1-0.5,0.3-1.1,0.8-1.2
	c3.3-0.6,6.5-1.2,9.8-1.8c0.5-0.1,1.1,0.3,1.2,0.8c0.1,0.5-0.3,1.1-0.8,1.2c-3.3,0.6-6.6,1.2-9.8,1.8
	C138.3,30.2,138.2,30.2,138.2,30.2z M9.8,29.6c-0.1,0-0.3,0-0.4-0.1c-3.2-1.4-6.2-3.1-8.9-4.8c-0.5-0.3-0.6-0.9-0.3-1.4
	c0.3-0.5,0.9-0.6,1.4-0.3c2.7,1.7,5.6,3.3,8.6,4.7c0.5,0.2,0.7,0.8,0.5,1.3C10.5,29.4,10.2,29.6,9.8,29.6z M157.8,26.5
	c-0.5,0-0.9-0.3-1-0.8c-0.1-0.5,0.2-1.1,0.8-1.2c3.3-0.6,6.5-1.3,9.8-2c0.5-0.1,1.1,0.2,1.2,0.8c0.1,0.5-0.2,1.1-0.8,1.2
	c-3.3,0.7-6.5,1.3-9.8,2C157.9,26.5,157.9,26.5,157.8,26.5z M177.4,22.6c-0.5,0-0.9-0.3-1-0.8c-0.1-0.5,0.2-1.1,0.8-1.2
	c3.3-0.7,6.5-1.4,9.8-2c0.5-0.1,1.1,0.2,1.2,0.8c0.1,0.5-0.2,1.1-0.8,1.2c-3.3,0.7-6.5,1.4-9.8,2C177.6,22.6,177.5,22.6,177.4,22.6z
	 M339.3,18.6c-0.4,0-0.8-0.3-0.9-0.7c-1-3-2.8-5.7-5.2-7.8c-0.4-0.4-0.4-1-0.1-1.4s1-0.4,1.4-0.1c2.6,2.4,4.6,5.3,5.7,8.7
	c0.2,0.5-0.1,1.1-0.6,1.3C339.5,18.6,339.4,18.6,339.3,18.6z M197,18.5c-0.5,0-0.9-0.3-1-0.8c-0.1-0.5,0.2-1.1,0.8-1.2l9.8-2.1
	c0.5-0.1,1.1,0.2,1.2,0.8c0.1,0.5-0.2,1.1-0.8,1.2l-9.8,2.1C197.2,18.5,197.1,18.5,197,18.5z M216.6,14.3c-0.5,0-0.9-0.3-1-0.8
	c-0.1-0.5,0.2-1.1,0.8-1.2c3.3-0.7,6.6-1.4,9.8-2c0.5-0.1,1.1,0.2,1.2,0.8c0.1,0.5-0.2,1.1-0.8,1.2c-3.2,0.7-6.5,1.3-9.8,2
	C216.7,14.3,216.7,14.3,216.6,14.3z M236.2,10.4c-0.5,0-0.9-0.3-1-0.8c-0.1-0.5,0.2-1.1,0.8-1.2c3.3-0.6,6.6-1.3,9.8-1.9
	c0.5-0.1,1.1,0.3,1.2,0.8c0.1,0.5-0.3,1.1-0.8,1.2c-3.2,0.6-6.5,1.2-9.8,1.9C236.4,10.4,236.3,10.4,236.2,10.4z M255.9,6.8
	c-0.5,0-0.9-0.3-1-0.8c-0.1-0.5,0.3-1.1,0.8-1.2c3.4-0.6,6.8-1.1,9.9-1.6c0.6-0.1,1.1,0.3,1.1,0.8c0.1,0.5-0.3,1.1-0.8,1.1
	c-3.1,0.5-6.4,1-9.9,1.6C256,6.8,256,6.8,255.9,6.8z M325.3,5.4c-0.1,0-0.2,0-0.3-0.1c-2.7-1-5.9-1.8-9.5-2.4
	c-0.5-0.1-0.9-0.6-0.8-1.1c0.1-0.5,0.6-0.9,1.1-0.8c3.7,0.6,7,1.4,9.9,2.5c0.5,0.2,0.8,0.8,0.6,1.3C326.1,5.1,325.7,5.4,325.3,5.4z
	 M275.7,3.8c-0.5,0-0.9-0.4-1-0.9c-0.1-0.5,0.3-1,0.9-1.1c3.5-0.4,6.8-0.8,10-1.1c0.5,0,1,0.4,1.1,0.9c0,0.5-0.4,1-0.9,1.1
	c-3.1,0.3-6.5,0.6-9.9,1.1C275.8,3.8,275.8,3.8,275.7,3.8z M295.6,2.1c-0.5,0-1-0.4-1-1c0-0.6,0.4-1,1-1c3.6-0.1,7-0.2,10.1,0
	c0.6,0,1,0.5,1,1c0,0.6-0.5,1-1,1C302.6,2,299.2,2,295.6,2.1C295.7,2.1,295.7,2.1,295.6,2.1z M325,74.1l21.3-6.4
	c0.5-0.2,0.8-0.7,0.7-1.2c-0.2-0.5-0.7-0.8-1.2-0.7l-21.3,6.4c-0.9,0.3-1.8,0.1-2.6-0.4c-0.8-0.5-1.2-1.4-1.3-2.3l-1-22.6
	c0-0.6-0.5-1-1-1c-0.6,0-1,0.5-1,1l1,22.6c0.1,1.6,0.8,3,2.1,3.9c0.9,0.6,1.9,0.9,2.9,0.9C324,74.3,324.5,74.2,325,74.1z"/>
</svg>
