<svg class="about-description__arrow-down" version="1.1" xmlns="http://www.w3.org/2000/svg" xmlns:xlink="http://www.w3.org/1999/xlink"
	 viewBox="0 0 300.6 245.7" xml:space="preserve">
<path fill="#2D2D2D" d="M20.4,218.9c-0.1,0-0.2,0-0.3-0.1c-0.5-0.2-0.8-0.8-0.6-1.3c1.1-3.1,2.3-6.3,3.5-9.4
	c0.2-0.5,0.8-0.8,1.3-0.6c0.5,0.2,0.8,0.8,0.6,1.3c-1.2,3.1-2.3,6.2-3.5,9.4C21.2,218.7,20.8,218.9,20.4,218.9z M27.6,200.2
	c-0.1,0-0.2,0-0.4-0.1c-0.5-0.2-0.8-0.8-0.6-1.3c1.2-3.1,2.5-6.2,3.8-9.3c0.2-0.5,0.8-0.7,1.3-0.5c0.5,0.2,0.7,0.8,0.5,1.3
	c-1.3,3-2.5,6.2-3.8,9.2C28.3,200,28,200.2,27.6,200.2z M35.3,181.8c-0.1,0-0.3,0-0.4-0.1c-0.5-0.2-0.7-0.8-0.5-1.3
	c1.3-3.1,2.7-6.1,4.1-9.1c0.2-0.5,0.8-0.7,1.3-0.5c0.5,0.2,0.7,0.8,0.5,1.3c-1.4,3-2.7,6.1-4.1,9.1C36,181.6,35.7,181.8,35.3,181.8z
	 M43.6,163.6c-0.1,0-0.3,0-0.4-0.1c-0.5-0.2-0.7-0.8-0.5-1.3c1.5-3,2.9-6,4.4-9c0.2-0.5,0.9-0.7,1.3-0.4c0.5,0.2,0.7,0.8,0.4,1.3
	c-1.5,2.9-3,5.9-4.4,9C44.4,163.4,44,163.6,43.6,163.6z M52.6,145.8c-0.2,0-0.3,0-0.5-0.1c-0.5-0.3-0.7-0.9-0.4-1.4
	c1.6-3,3.2-5.9,4.8-8.8c0.3-0.5,0.9-0.7,1.4-0.4c0.5,0.3,0.7,0.9,0.4,1.4c-1.6,2.9-3.2,5.8-4.8,8.8C53.3,145.6,53,145.8,52.6,145.8z
	 M62.4,128.3c-0.2,0-0.3,0-0.5-0.1c-0.5-0.3-0.6-0.9-0.4-1.4c1.7-2.9,3.4-5.8,5.2-8.6c0.3-0.5,0.9-0.6,1.4-0.3
	c0.5,0.3,0.6,0.9,0.3,1.4c-1.7,2.8-3.5,5.7-5.1,8.5C63.1,128.1,62.7,128.3,62.4,128.3z M72.9,111.3c-0.2,0-0.4-0.1-0.5-0.2
	c-0.5-0.3-0.6-0.9-0.3-1.4c1.8-2.8,3.7-5.6,5.6-8.3c0.3-0.5,0.9-0.6,1.4-0.3c0.5,0.3,0.6,0.9,0.3,1.4c-1.9,2.7-3.7,5.5-5.6,8.3
	C73.5,111.1,73.2,111.3,72.9,111.3z M84.2,94.8c-0.2,0-0.4-0.1-0.6-0.2c-0.4-0.3-0.5-1-0.2-1.4c2-2.7,4-5.4,6-8
	c0.3-0.4,1-0.5,1.4-0.2c0.4,0.3,0.5,1,0.2,1.4c-2,2.6-4,5.3-6,8C84.9,94.7,84.6,94.8,84.2,94.8z M96.5,79c-0.2,0-0.5-0.1-0.6-0.2
	c-0.4-0.4-0.5-1-0.1-1.4c2.1-2.6,4.3-5.2,6.5-7.6c0.4-0.4,1-0.5,1.4-0.1c0.4,0.4,0.5,1,0.1,1.4c-2.2,2.4-4.3,5-6.5,7.6
	C97.1,78.9,96.8,79,96.5,79z M109.8,64.1c-0.2,0-0.5-0.1-0.7-0.3c-0.4-0.4-0.4-1,0-1.4c2.3-2.4,4.7-4.9,7-7.2c0.4-0.4,1-0.4,1.4,0
	c0.4,0.4,0.4,1,0,1.4c-2.3,2.3-4.7,4.7-7,7.1C110.3,64,110,64.1,109.8,64.1z M124.1,50.1c-0.3,0-0.5-0.1-0.7-0.3
	c-0.4-0.4-0.3-1,0.1-1.4c2.5-2.3,5.1-4.5,7.6-6.6c0.4-0.4,1.1-0.3,1.4,0.1s0.3,1.1-0.1,1.4c-2.5,2.1-5,4.3-7.5,6.5
	C124.5,50,124.3,50.1,124.1,50.1z M139.4,37.4c-0.3,0-0.6-0.1-0.8-0.4c-0.3-0.4-0.2-1.1,0.2-1.4c2.7-2,5.4-4,8.2-5.9
	c0.5-0.3,1.1-0.2,1.4,0.3c0.3,0.5,0.2,1.1-0.3,1.4c-2.7,1.8-5.4,3.8-8.1,5.8C139.9,37.3,139.7,37.4,139.4,37.4z M156,26.1
	c-0.3,0-0.7-0.2-0.9-0.5c-0.3-0.5-0.1-1.1,0.3-1.4c2.9-1.8,5.8-3.4,8.7-5c0.5-0.3,1.1-0.1,1.4,0.4c0.3,0.5,0.1,1.1-0.4,1.4
	c-2.9,1.6-5.8,3.2-8.6,4.9C156.3,26,156.1,26.1,156,26.1z M173.6,16.6c-0.4,0-0.7-0.2-0.9-0.6c-0.2-0.5,0-1.1,0.5-1.3
	c3-1.4,6.2-2.8,9.2-4c0.5-0.2,1.1,0,1.3,0.6c0.2,0.5,0,1.1-0.6,1.3c-3,1.2-6.1,2.5-9.1,3.9C173.8,16.6,173.7,16.6,173.6,16.6z
	 M299.6,14.7c-0.1,0-0.3,0-0.4-0.1c-3.1-1.3-6.2-2.5-9.3-3.5c-0.5-0.2-0.8-0.8-0.6-1.3c0.2-0.5,0.8-0.8,1.3-0.6
	c3.1,1.1,6.3,2.3,9.4,3.6c0.5,0.2,0.8,0.8,0.5,1.3C300.4,14.5,300,14.7,299.6,14.7z M192.1,9.3c-0.4,0-0.8-0.3-1-0.7
	c-0.2-0.5,0.1-1.1,0.6-1.3c3.2-1,6.4-2,9.7-2.8c0.5-0.1,1.1,0.2,1.2,0.7c0.1,0.5-0.2,1.1-0.7,1.2c-3.2,0.8-6.4,1.7-9.5,2.8
	C192.3,9.3,192.2,9.3,192.1,9.3z M280.7,8.1c-0.1,0-0.2,0-0.3,0c-3.2-0.9-6.4-1.7-9.6-2.4c-0.5-0.1-0.9-0.7-0.8-1.2
	c0.1-0.5,0.7-0.9,1.2-0.8c3.2,0.7,6.5,1.5,9.8,2.5c0.5,0.2,0.8,0.7,0.7,1.2C281.6,7.9,281.2,8.1,280.7,8.1z M211.5,4.4
	c-0.5,0-0.9-0.3-1-0.8c-0.1-0.5,0.3-1.1,0.8-1.2c3.3-0.6,6.6-1.1,9.9-1.5c0.6-0.1,1,0.3,1.1,0.9c0.1,0.5-0.3,1-0.9,1.1
	c-3.3,0.4-6.6,0.9-9.8,1.5C211.6,4.4,211.5,4.4,211.5,4.4z M261.2,3.8c-0.1,0-0.1,0-0.2,0c-3.3-0.5-6.6-0.9-9.9-1.2
	c-0.5,0-1-0.5-0.9-1.1c0-0.6,0.5-1,1.1-0.9c3.3,0.3,6.7,0.7,10,1.2c0.5,0.1,0.9,0.6,0.8,1.1C262.1,3.5,261.7,3.8,261.2,3.8z
	 M231.3,2.1c-0.5,0-1-0.4-1-1c0-0.6,0.4-1,1-1C234.6,0,238,0,241.3,0c0.6,0,1,0.5,1,1c0,0.5-0.5,1-1,1c0,0,0,0,0,0
	C238,2,234.7,2,231.3,2.1C231.3,2.1,231.3,2.1,231.3,2.1z M20.7,243.8l16.5-20.7c0.3-0.4,0.3-1.1-0.2-1.4c-0.4-0.3-1.1-0.3-1.4,0.2
	l-16.5,20.7c-0.6,0.8-1.5,1.2-2.4,1.1c-1,0-1.8-0.5-2.4-1.3L1.8,224.3c-0.3-0.5-0.9-0.6-1.4-0.3c-0.5,0.3-0.6,0.9-0.3,1.4l12.5,18.1
	c0.9,1.3,2.3,2.1,3.9,2.1c0.1,0,0.1,0,0.2,0C18.4,245.7,19.8,245,20.7,243.8z"/>
</svg>
