<svg version="1.1" xmlns="http://www.w3.org/2000/svg" xmlns:xlink="http://www.w3.org/1999/xlink" viewBox="0 0 348.5 215.3" xml:space="preserve">
<path fill="#2D2D2D" d="M13.1,13.1c0.2-0.1,0.4,0,0.6,0.2c0.2,0.1,0.3,0.3,0.4,0.6c0,0.1,0,0.2,0,0.3L13.7,16
  c-0.9,4.9-1.3,7.4-1.4,7.4c-0.1,0.6-0.3,1.5-0.6,2.8c-0.3,1.2-0.4,2.2-0.6,3c-0.1,0.5-0.2,0.9-0.3,1.3c-0.1,0.3-0.2,0.8-0.2,1.5
  c0,0.2-0.1,0.4-0.2,0.6c-0.1,0.2-0.2,0.2-0.4,0.2c-0.7-0.1-1-0.4-1.1-0.8c0-0.1,0-0.2,0-0.3c0,0,0.2-0.8,0.6-2.4l0.5-2.4
  c0.7-3.3,1-5,1-5.2c0.1-0.2,0.1-0.4,0.1-0.7c0-0.3,0.1-0.5,0.1-0.6c0.1-0.7,0.2-1.2,0.3-1.4c0.1-0.3,0.2-0.7,0.2-1
  c0.1-0.3,0.1-0.6,0-0.8c-0.8,1.2-2.1,3.2-3.8,5.9c-1.7,2.7-3,4.6-3.8,5.8c-0.1,0.1-0.4,0.5-0.8,1c-0.4,0.5-0.7,0.9-0.9,1.1
  c-0.1,0.1-0.3,0.3-0.7,0.8c-0.3,0.4-0.6,0.6-0.8,0.6c-0.4,0-0.7,0-0.9-0.2c-0.2-0.1-0.3-0.3-0.3-0.5c0-0.2,0-0.4,0-0.7
  c0.1-0.3,0.1-0.6,0.1-0.7c0.1-0.8,0.1-1.4,0.1-1.7c0-0.6,0.1-1.5,0.3-2.7c0-0.1,0-0.5,0.1-1c0.1-0.5,0.1-1,0-1.5
  c0.2-0.6,0.4-1.2,0.5-2l0.2-1.1c0.1-0.3,0.1-0.7,0.2-1.2c0.1-0.6,0.2-1.1,0.3-1.4c0.1-0.3,0.2-0.5,0.2-0.6c0.2-0.6,0.3-1.2,0.4-1.6
  c0.1-0.4,0.1-0.8,0.1-1.1c0-0.2,0-0.3,0.2-0.3c0.2,0,0.4,0,0.7,0.1c0.3,0.1,0.4,0.2,0.4,0.3c0.1,0.2,0.2,0.4,0.2,0.5
  c0,0.1,0,0.3,0,0.4L3,21.1l-1.2,6.3c-0.1,0.8-0.1,1.3-0.1,1.6c0.1,0.3,0.2,0.4,0.4,0.2l4.1-5.9c0.4-0.7,0.9-1.4,1.3-2.2
  c0.1-0.1,0.7-1,1.8-2.7l0.8-1.4l2.5-3.9L13.1,13.1z M18.5,29c-0.2,0.1-0.4,0.1-0.5,0.1c-0.6,0.1-1.1,0-1.6-0.3
  c-0.5-0.3-0.8-0.8-0.9-1.5c-0.2-0.7-0.2-1.6,0-2.8c0.2-1.1,0.5-2.1,1-2.9c0.3-0.5,0.6-1,0.9-1.3c0.2-0.3,0.5-0.6,0.7-0.7
  c0.3-0.2,0.7-0.4,1.1-0.4c0.3,0,0.6,0.1,0.9,0.2c0.3,0.1,0.5,0.3,0.5,0.5l0.1,0.1c0.1,0,0.2,0.1,0.3,0.3c0.1,0.2,0.2,0.5,0.3,0.7
  c0,0.2,0,0.4,0,0.6c0,0.3-0.1,0.6-0.2,0.9c-0.1,0.3-0.2,0.4-0.4,0.4c-0.2,0-0.3,0.1-0.2,0.2c0,0.1,0,0.1-0.1,0.1
  c-0.1,0-0.2,0-0.3-0.1c-0.1-0.1-0.2-0.2-0.3-0.3c0,0,0-0.2,0-0.4c0-0.2,0-0.5,0.1-0.8c0-0.2,0-0.4,0-0.5c-0.1-0.3-0.2-0.5-0.5-0.4
  c-0.1,0-0.3,0.1-0.4,0.2c-0.6,0.5-1.1,1.2-1.4,2c-0.4,0.9-0.6,2-0.7,3.5c0,0.4,0,0.7,0,0.9c0,0.2,0.1,0.3,0.1,0.4
  c0.1,0.1,0.1,0.1,0.1,0.2c0.1,0,0.3,0,0.5,0c0.6-0.1,1-0.3,1.2-0.4c0.5-0.4,1-0.9,1.5-1.4c0.1-0.1,0.1-0.2,0.3-0.3
  c0.1-0.2,0.2-0.3,0.3-0.3c0.1-0.2,0.2-0.3,0.3-0.4c0.1-0.1,0.2-0.1,0.5-0.2c0.2,0,0.4,0.1,0.6,0.2c0.1,0.1,0.2,0.2,0,0.2
  c0,0-0.1,0-0.1,0.1c0,0,0,0.1,0,0.1c0,0.1,0,0.3-0.3,0.7c-0.2,0.4-0.5,0.8-0.8,1.1c-0.3,0.3-0.5,0.5-0.7,0.5c-0.1,0-0.1,0-0.2,0.1
  c0,0-0.1,0.1-0.1,0.1c0,0.1-0.2,0.3-0.7,0.6C19.2,28.6,18.8,28.9,18.5,29z M35.8,24c0.1,0,0.1,0.1,0.1,0.2c0,0.1,0,0.2-0.1,0.4
  c0,0.1-0.1,0.2-0.2,0.2c-0.3,0.1-0.6,0-1-0.1c-0.3-0.1-0.5-0.4-0.6-0.8l-0.3-1.5c-0.1-0.8-0.3-1.2-0.4-1.3c-0.3-0.1-0.6,0.3-1.1,1
  c-0.5,0.8-0.9,1.7-1.3,2.7c-0.1,0.3-0.2,0.6-0.3,0.8c-0.1,0.2-0.2,0.3-0.2,0.3c0,0-0.1,0-0.3-0.1c-0.5-0.1-0.8-0.3-0.9-0.7
  c0,0,0-0.2,0-0.3c0.1-0.6,0.1-1.2,0.2-1.9c0-0.7,0.1-1.3,0.1-1.8C29.5,21,29.5,21,29.3,21c-0.2,0-0.3,0.1-0.5,0.3
  c-0.4,0.4-0.8,1.1-1.2,2.3c-0.6,1.4-1,2.2-1.3,2.5c-0.1,0.2-0.2,0.4-0.2,0.5c-0.1,0.1-0.1,0.2-0.2,0.2c-0.1,0-0.2,0-0.4-0.1
  c-0.5-0.2-0.8-0.5-0.9-1.1c0-0.2-0.1-0.8,0-1.5c0-0.8,0.1-1.5,0.1-2.2c0.1-0.3,0.2-0.6,0.2-0.9c0.1-0.3,0.1-0.5,0.1-0.6
  c0-0.4,0-0.7,0.1-1.2c0-0.4,0.1-0.6,0.1-0.7c0.1-0.1,0.2-0.2,0.4-0.2c0.2,0,0.4,0.1,0.6,0.3c0.2,0.1,0.3,0.4,0.4,0.6
  c0.1,0.3,0,0.7-0.1,1.3c-0.2,0.7-0.3,1.6-0.4,2.8c0.3-0.4,0.5-0.8,0.6-1c0.3-0.6,0.7-1.3,1.2-2.1c0.4-0.6,0.9-1,1.6-1.1
  c0.8,0,1.3,0.6,1.6,1.7c0,0.2,0.1,0.4,0.1,0.7c0,0.3,0,0.5,0,0.6c0-0.1,0.2-0.4,0.4-0.7c0.2-0.4,0.5-0.8,0.8-1.2
  c0.3-0.3,0.6-0.5,0.9-0.6c0.3,0,0.5,0,0.7,0.2c0.4,0.1,0.7,0.4,0.9,0.7c0.2,0.3,0.4,0.7,0.5,1.3c0,0.3,0.1,0.5,0.1,0.7
  c0,0.3,0,0.5,0.1,0.6C35.5,23.4,35.6,23.7,35.8,24z M39.8,25.1c-0.2,0-0.4,0-0.5,0c-0.1,0-0.3-0.1-0.6-0.3c-0.6-0.5-1-1-1.1-1.4
  c0-0.1,0-0.2,0-0.3c0-0.1,0-0.2,0-0.4c0-0.1,0-0.2,0-0.2c-0.1-0.1-0.1-0.1-0.1-0.1c0,0,0-0.1,0-0.1c0,0,0-0.1,0.1-0.1
  c0.1,0,0.1-0.1,0.1-0.3c-0.1-0.1,0-0.4,0-0.9c0.1-0.5,0.2-0.9,0.4-1.4c0.1-0.3,0.3-0.7,0.6-1.2c0.3-0.5,0.5-0.9,0.8-1.2
  c0.3-0.4,0.6-0.7,0.9-0.9c0.3-0.2,0.6-0.4,1-0.6c0.3-0.1,0.5-0.2,0.6-0.2c0.1,0,0.2,0,0.3,0c0.1,0,0.2,0.1,0.4,0.2
  c0.5,0.1,0.8,0.3,1,0.6c0.2,0.3,0.4,0.7,0.5,1.4c0.2,1.1,0,2.3-0.7,3.7c-0.3,0.6-0.6,1.1-0.8,1.4c-0.3,0.3-0.7,0.7-1.1,1.1
  c-0.3,0.3-0.6,0.5-0.9,0.7C40.4,24.9,40.1,25,39.8,25.1z M41.7,22.1c0.3-0.5,0.6-1,0.7-1.4c0.2-0.4,0.3-1,0.4-1.6c0-0.3,0-0.6-0.1-1
  c-0.1-0.5-0.2-0.8-0.3-0.8c-0.2-0.1-0.3-0.1-0.5,0c-0.4,0.1-0.7,0.3-1,0.7c-0.4,0.5-0.7,1.1-1,1.8c-0.3,0.7-0.5,1.5-0.8,2.4
  c-0.1,0.4-0.1,0.7-0.1,1.1c0,0.2,0.1,0.4,0.3,0.6c0.2,0.1,0.3,0.2,0.6,0.1C40.4,23.7,41,23.1,41.7,22.1z M46.9,30
  c-0.1,0-0.3,0-0.4-0.2c-0.1-0.1-0.2-0.2-0.2-0.4c0-0.1,0-0.4,0-0.9c0.1-0.7,0.1-1.2,0-1.5c0-0.1,0-0.2,0-0.4c0-0.2,0-0.3,0-0.4
  c0-0.1,0.1-0.3,0.1-0.6c0-0.2,0-0.5,0-0.6c0-0.1,0-0.2,0-0.3c0-0.1,0.1-0.2,0.2-0.3c0-0.1,0-0.3,0-0.5c0-0.2,0-0.4,0-0.5
  c0-0.5,0.1-1.6,0.4-3.3c0.3-1.8,0.5-3.2,0.7-4.3c0.1-0.4,0.2-0.8,0.2-1.2c0-0.4,0-0.6,0-0.8c0-0.1,0-0.1,0-0.2
  c0-0.1,0.1-0.2,0.2-0.3c0.1-0.1,0.2-0.2,0.3-0.2c0.1,0,0.2,0,0.3,0.1c0.1,0,0.2,0.1,0.3,0.2c0.1,0.1,0.2,0.3,0.3,0.4
  c0.1,0.1,0.1,0.3,0.2,0.4c0,0,0,0.2,0,0.5c0.1,0.3,0,0.6-0.1,0.9c-0.1,0.2-0.2,0.3-0.1,0.3c0.7-0.5,1.3-0.8,1.9-0.9
  c0.7-0.1,1.3,0,1.7,0.4c0.5,0.4,0.8,0.9,0.9,1.6c0.1,0.3,0,0.7-0.1,1.1c-0.1,0.4-0.2,0.7-0.3,0.9c-0.1,0-0.2,0.2-0.3,0.6
  c-0.2,0.3-0.5,0.6-0.9,1c-0.4,0.4-0.8,0.5-1,0.5c0,0,0,0-0.1,0c0,0,0,0.1,0,0.1c0,0.1-0.2,0.2-0.8,0.5c-0.5,0.3-1,0.5-1.3,0.5
  c-0.2,0-0.3,0.1-0.4,0.1c-0.1,0-0.2-0.1-0.3-0.1c-0.1,0.1-0.1,0.3-0.1,0.4c0,0.2,0,0.5-0.1,1c-0.1,0.5-0.2,0.8-0.3,0.8
  c0,0,0,0.1-0.1,0.1c0,0.1,0,0.1,0.1,0.2c0,0,0,0.2,0,0.3c0,0.2,0,0.3,0,0.4c0,0.1,0,0.3,0,0.6c0,0.3,0,0.5-0.1,0.6
  c0,0.2,0,0.4,0,0.6c0,0.2-0.1,0.3-0.1,0.3c-0.1,0.1-0.1,0.3,0,0.7c0.1,0.4,0,0.7-0.1,1c-0.1,0.3-0.3,0.4-0.5,0.4L46.9,30z
   M48.6,21.2c0.2,0,0.7-0.3,1.4-0.6c0.7-0.4,1.2-0.7,1.4-1c0.3-0.4,0.5-0.7,0.7-1.1c0.2-0.4,0.2-0.7,0.1-1.1c0-0.3-0.2-0.5-0.3-0.7
  c-0.1-0.2-0.4-0.2-0.6-0.2c-0.3,0.1-0.7,0.2-1.1,0.6c-0.4,0.3-0.8,0.7-1.1,1.1c-0.2,0.3-0.4,0.8-0.6,1.4c-0.1,0.6-0.2,1-0.1,1.3
  C48.4,21.1,48.5,21.2,48.6,21.2z M62.2,21.5c-0.5-0.3-0.9-0.8-1.2-1.5c-0.1-0.1-0.1-0.3-0.1-0.5c0-0.2-0.1-0.4-0.1-0.5
  c-0.1,0.3-0.2,0.5-0.4,0.8c-0.3,0.4-0.6,0.8-1,1c-0.5,0.5-0.9,0.8-1.3,0.8c-0.3,0.1-0.7-0.1-1-0.4c-0.2-0.1-0.4-0.3-0.6-0.5
  c-0.1-0.2-0.2-0.4-0.3-0.6c0-0.2,0-0.4,0-0.6c-0.1-0.6-0.1-1.2-0.1-1.8c0-0.6,0.2-1.3,0.4-2.3c0.3-1.1,0.6-1.9,0.8-2.3
  c0.1,0,0.2-0.1,0.3-0.1c0.2,0,0.3,0,0.4,0.1c0.1,0.1,0.2,0.2,0.3,0.4c0.1,0.1,0.1,0.1,0.1,0.3c0.1,0.4-0.1,1.1-0.4,2.1
  c-0.4,1.7-0.5,2.8-0.4,3.4c0.1,0.3,0.2,0.5,0.4,0.6c0.1,0,0.2,0,0.3,0c0.4-0.1,0.9-0.4,1.3-1.1c0.5-0.7,0.9-1.7,1.2-3
  c0.1-0.6,0.2-1.2,0.1-1.8c0,0,0-0.1-0.1-0.2c-0.1-0.3,0.1-0.6,0.3-0.8c0-0.1,0.1-0.2,0.2-0.3c0.1-0.1,0.2-0.1,0.2,0l0.4-0.1
  c0,0,0.1,0,0.2,0.1c0.1,0.1,0.1,0.1,0.2,0.2c0.1,0.1,0.2,0.2,0.3,0.5c0.1,0.5,0,1.4-0.3,2.6c-0.2,0.7-0.3,1.3-0.4,1.6
  c0,0.4,0,0.7,0,1c0.1,0.6,0.4,1.1,1,1.4c0.2,0.1,0.3,0.2,0.4,0.3s0.1,0.3,0.1,0.5c0,0.2-0.1,0.3-0.2,0.4c-0.1,0.1-0.3,0.2-0.5,0.2
  C62.6,21.6,62.4,21.6,62.2,21.5z M71.6,19.8c-0.5-0.3-0.9-0.8-1.2-1.5c-0.1-0.1-0.1-0.3-0.1-0.5c0-0.2-0.1-0.4-0.1-0.5
  c-0.1,0.3-0.2,0.5-0.4,0.8c-0.3,0.4-0.6,0.8-1,1c-0.5,0.5-0.9,0.8-1.3,0.8c-0.3,0.1-0.7-0.1-1-0.4c-0.2-0.1-0.4-0.3-0.6-0.5
  c-0.1-0.2-0.2-0.4-0.3-0.6c0-0.2,0-0.4,0-0.6c-0.1-0.6-0.1-1.2-0.1-1.8c0-0.6,0.2-1.3,0.4-2.3c0.3-1.1,0.6-1.9,0.8-2.3
  c0.1,0,0.2-0.1,0.3-0.1c0.2,0,0.3,0,0.4,0.1c0.1,0.1,0.2,0.2,0.3,0.4c0.1,0.1,0.1,0.1,0.1,0.3c0.1,0.4-0.1,1.1-0.4,2.1
  c-0.4,1.7-0.5,2.8-0.4,3.4c0.1,0.3,0.2,0.5,0.4,0.6c0.1,0,0.2,0,0.3,0c0.4-0.1,0.9-0.4,1.3-1.1c0.5-0.7,0.9-1.7,1.2-3
  c0.1-0.6,0.2-1.2,0.1-1.8c0,0,0-0.1-0.1-0.2c-0.1-0.3,0.1-0.6,0.3-0.8c0-0.1,0.1-0.2,0.2-0.3c0.1-0.1,0.2-0.1,0.2,0l0.4-0.1
  c0,0,0.1,0,0.2,0.1c0.1,0.1,0.1,0.1,0.2,0.2c0.1,0.1,0.2,0.2,0.3,0.5c0.1,0.5,0,1.4-0.3,2.6c-0.2,0.7-0.3,1.3-0.4,1.6
  c0,0.4,0,0.7,0,1c0.1,0.6,0.4,1.1,1,1.4c0.2,0.1,0.3,0.2,0.4,0.3c0.1,0.1,0.1,0.3,0.1,0.5c0,0.2-0.1,0.3-0.2,0.4
  c-0.1,0.1-0.3,0.2-0.5,0.2C72,20,71.8,19.9,71.6,19.8z M86.9,7.8c0.3,0.2,0.5,0.5,0.5,0.7c0.1,0.3-0.1,0.8-0.3,1.7
  C87,10.6,87,11,86.8,11.4c-0.1,0.4-0.2,0.6-0.2,0.7l-0.3,1.4c-0.2,0.6-0.3,1.3-0.6,2.1c-0.3,1-0.5,1.7-0.6,2.2l-0.2,0.6
  c-0.6,1.5-1.1,2.5-1.4,3.1c-0.8,1-1.4,1.6-1.8,1.8c-0.2,0.1-0.5,0.2-0.7,0.2c-0.5,0.1-1.1,0.1-1.6-0.1c-0.5-0.1-0.9-0.4-1-0.7
  c0-0.1,0-0.2,0.1-0.4s0.2-0.2,0.3-0.3c0.1,0,0.2,0,0.2,0.1c0.1,0.1,0.4,0.1,0.6,0.2c0.3,0.1,0.6,0.1,0.9,0c0.1,0,0.3-0.1,0.5-0.1
  c0.3-0.1,0.6-0.4,0.9-0.8s0.6-0.8,0.8-1.3c0.4-0.9,0.8-2.1,1.3-3.4c-0.2,0-0.5-0.1-0.7-0.4c-0.3-0.2-0.5-0.5-0.7-0.7
  c-0.2-0.3-0.2-0.5-0.2-0.6l0-0.3c-0.1,0-0.3-0.2-0.5-0.8c-0.2-0.5-0.3-1.2-0.5-1.9c0-0.3-0.1-0.6-0.1-1.1c0-0.3,0-0.6-0.1-1
  c-0.1-0.4-0.1-0.7-0.1-0.8l0-0.1c0-0.2,0-0.3,0-0.4c0-0.1,0.1-0.2,0.2-0.3c0.1-0.1,0.2-0.1,0.4-0.2c0.5-0.1,0.8,0.5,1,1.7
  c0,0.2,0.1,0.5,0.1,1.1c0,0.2,0.1,0.6,0.2,1c0.2,0.9,0.4,1.6,0.6,2.2c0.3,0.6,0.6,1,0.9,1.2l0.1-0.4c0.1-0.5,0.2-0.8,0.3-1
  c0.1-0.5,0.2-0.8,0.2-1c0-0.1,0.1-0.3,0.2-0.6l0.2-0.7c0-0.1,0.1-0.4,0.2-1c0.1-0.6,0.2-1,0.3-1.4c0-0.1,0.1-0.3,0.2-0.6
  c0.1-0.3,0.2-0.5,0.2-0.6C86.1,8.1,86.1,8,86.2,8c0.1-0.1,0.2-0.2,0.3-0.2C86.6,7.7,86.7,7.8,86.9,7.8z M92.6,15.9
  c-0.2,0.1-0.4,0.1-0.5,0.1c-0.6,0.1-1.1,0-1.6-0.3c-0.5-0.3-0.8-0.8-0.9-1.5c-0.2-0.7-0.2-1.6,0-2.8c0.2-1.1,0.5-2.1,1-2.9
  c0.3-0.5,0.6-1,0.9-1.3c0.2-0.3,0.5-0.6,0.7-0.7c0.3-0.2,0.7-0.4,1.1-0.4c0.3,0,0.6,0.1,0.9,0.2c0.3,0.1,0.5,0.3,0.5,0.5l0.1,0.1
  c0.1,0,0.2,0.1,0.3,0.3c0.1,0.2,0.2,0.5,0.3,0.7c0,0.2,0,0.4,0,0.6c0,0.3-0.1,0.6-0.2,0.9c-0.1,0.3-0.2,0.4-0.4,0.4
  c-0.2,0-0.3,0.1-0.2,0.2c0,0.1,0,0.1-0.1,0.1c-0.1,0-0.2,0-0.3-0.1C94.1,10,94,9.9,93.9,9.7c0,0,0-0.2,0-0.4c0-0.2,0-0.5,0.1-0.8
  c0-0.2,0-0.4,0-0.5c-0.1-0.3-0.2-0.5-0.5-0.4c-0.1,0-0.3,0.1-0.4,0.2c-0.6,0.5-1.1,1.2-1.4,2c-0.4,0.9-0.6,2-0.7,3.5
  c0,0.4,0,0.7,0,0.9c0,0.2,0.1,0.3,0.1,0.4c0.1,0.1,0.1,0.1,0.1,0.2c0.1,0,0.3,0,0.5,0c0.6-0.1,1-0.3,1.2-0.4c0.5-0.4,1-0.9,1.5-1.4
  c0.1-0.1,0.1-0.2,0.3-0.3c0.1-0.2,0.2-0.3,0.3-0.3c0.1-0.2,0.2-0.3,0.3-0.4c0.1-0.1,0.2-0.1,0.5-0.2c0.2,0,0.4,0.1,0.6,0.2
  c0.1,0.1,0.2,0.2,0,0.2c0,0-0.1,0-0.1,0.1c0,0,0,0.1,0,0.1c0,0.1,0,0.3-0.3,0.7c-0.2,0.4-0.5,0.8-0.8,1.1c-0.3,0.3-0.5,0.5-0.7,0.5
  c-0.1,0-0.1,0-0.2,0.1c0,0-0.1,0.1-0.1,0.1c0,0.1-0.2,0.3-0.7,0.6C93.2,15.6,92.9,15.8,92.6,15.9z M102.6,4.8c0.2,0,0.4-0.1,0.7,0
  c0.3,0,0.5,0,0.7,0c0.6,0.1,1.1,0.3,1.4,0.5c0.3,0.2,0.5,0.5,0.5,0.9c0,0.2,0,0.4,0,0.7c0,0.3,0,0.6-0.1,0.8c0,0.1,0,0.3-0.1,0.7
  c-0.1,0.3-0.1,0.5-0.1,0.6c-0.2,0.9-0.3,1.5-0.3,1.9c0,0.1,0,0.2-0.1,0.3c0,0.2-0.1,0.3,0,0.4c0,0.2,0,0.4,0,0.6
  c0,0.3-0.1,0.5-0.2,0.6c-0.1,0.2-0.2,0.2-0.4,0.3c-0.2,0-0.4,0-0.7-0.1c-0.2-0.2-0.3-0.3-0.3-0.6c-0.1-0.4-0.1-0.9-0.1-1.5
  c0.1-0.1,0.1-0.3,0.1-0.4c0-0.2,0-0.3,0-0.3c0.1-0.6,0.3-1.3,0.3-2.1c0.1-0.8,0.1-1.4,0-1.8c0-0.1,0-0.2-0.1-0.2
  c-0.4,0.1-0.9,0.2-1.6,0.4c-0.7,0.2-1.1,0.3-1.1,0.3c-0.1,0-0.1,0.1-0.2,0.2c0,0.1-0.1,0.1,0,0.2c0,0.2,0,0.5-0.1,0.7
  C101,8,101,8.2,100.9,8.3c-0.1,0.5-0.2,0.9-0.2,1.3c0,0.2-0.1,0.6-0.2,1.2c-0.2,1.1-0.3,1.8-0.3,2.1c-0.1,0.2-0.1,0.6-0.1,1
  c0,0.1,0,0.2-0.1,0.3c-0.1,0.1-0.3,0.1-0.5,0.2c-0.1,0-0.2,0-0.3-0.1c-0.1-0.1-0.2-0.1-0.3-0.2c-0.1-0.1-0.2-0.2-0.3-0.2
  c0-0.3,0-0.8,0.1-1.5c0.1-0.7,0.2-1.3,0.3-1.6c0-0.5,0.1-1,0.2-1.6c0-0.1,0.1-0.5,0.2-1c0.1-0.7,0.1-1.4,0.2-1.9
  c0-0.2,0.1-0.3,0-0.4c0-0.1,0-0.2,0.1-0.3c0-0.1,0.1-0.2,0.3-0.3c0.2,0,0.4,0.1,0.6,0c0.1,0,0.3-0.1,0.4-0.2c0,0,0.1,0,0.2,0
  c0.1,0,0.2,0,0.3-0.1l0.6-0.1C102.3,4.9,102.5,4.8,102.6,4.8z M112.6,11.8c-0.3,0.4-0.8,0.7-1.4,0.8c-0.4,0.1-0.8,0-1.2-0.1
  c-0.4-0.1-0.7-0.4-1.1-0.7c-0.3-0.2-0.5-0.5-0.6-0.8c-0.2-0.3-0.3-0.7-0.4-1.2c0-0.2-0.1-0.5-0.1-1c-0.1-0.6,0-1.3,0.3-2
  c0.2-0.7,0.6-1.4,1-2c0.4-0.6,0.9-1.1,1.4-1.4c0.2-0.2,0.5-0.3,0.7-0.4c0.1,0,0.2,0,0.3,0c0.1,0,0.2,0,0.4,0c0.4,0,0.7,0,0.9,0.1
  c0.2,0,0.4,0.1,0.6,0.3c0.5,0.3,0.8,0.8,0.9,1.3c0,0.4-0.2,0.9-0.5,1.5c-0.4,0.6-0.8,1.1-1.4,1.5c-0.3,0.2-0.6,0.3-1,0.3
  c-0.5,0.1-0.9,0.1-1.3-0.1c-0.2,0-0.3,0-0.4,0c-0.1,0-0.2,0.1-0.3,0.4c0,0.2,0,0.6,0,1.1c0,0.1,0,0.3,0.1,0.5
  c0.1,0.8,0.5,1.2,1.1,1.2c0.4,0,0.7,0,0.8,0c0.2,0,0.4-0.1,0.6-0.3l0.4-0.4c0.1-0.1,0.2-0.1,0.2-0.2c0.1-0.1,0.1-0.2,0.2-0.3
  c0,0,0.1-0.1,0.1-0.2c0.1-0.1,0.1-0.2,0.1-0.2c0.1,0,0.1-0.1,0.2-0.1c0.1,0,0.1,0,0.2,0.1c0.1,0.1,0.2,0.1,0.2,0.1
	c0.1,0,0.2,0.1,0.2,0.3c0,0.2-0.2,0.5-0.4,0.8C113.2,11.2,112.9,11.5,112.6,11.8z M111.7,6.6c0.3-0.2,0.5-0.4,0.7-0.8
	c0.2-0.3,0.3-0.6,0.3-0.8c0-0.2-0.1-0.3-0.3-0.5c-0.2-0.1-0.4-0.1-0.7-0.1c-0.2,0-0.3,0.1-0.4,0.1c-0.2,0.1-0.5,0.3-0.7,0.7
	c-0.3,0.3-0.5,0.7-0.7,1c-0.2,0.3-0.2,0.5-0.2,0.6c0.1,0.1,0.4,0.2,1,0.1C111.1,6.8,111.4,6.7,111.7,6.6z M123.8,10.6
	c-0.3,0-0.4,0-0.5-0.1c-0.1,0-0.2,0-0.4,0c-0.1,0-0.3-0.1-0.4-0.1c-0.4-0.1-0.9-0.4-1.7-0.8c-0.8-0.5-1.2-0.8-1.2-1c0,0,0-0.1,0-0.1
	c0,0-0.1,0-0.1,0c0,0-0.1,0-0.1-0.1c0,0-0.1-0.1-0.1-0.2c0-0.1,0-0.1-0.1-0.2c-0.1,0-0.1-0.1-0.2,0c-0.1,0.1-0.2,0.3-0.4,0.5
	c-0.2,0.3-0.5,0.6-0.7,0.9c-0.4,0.6-0.7,1-0.9,1.2c-0.2,0.2-0.3,0.3-0.4,0.3c-0.2,0-0.4,0-0.7-0.2c-0.3-0.2-0.4-0.4-0.5-0.6
	c0.1-0.1,0.2-0.4,0.5-0.8c0.3-0.4,0.6-0.8,0.9-1.2l1.3-1.8l-0.4-0.9c-0.4-0.6-0.7-1.1-0.9-1.4c-0.1-0.1-0.2-0.2-0.3-0.3
	c-0.1-0.1-0.1-0.2-0.1-0.2c0-0.1,0-0.2,0.1-0.4c0.1-0.2,0.3-0.3,0.4-0.3c0.1,0,0.2,0,0.4,0.1c0.1,0,0.4,0.2,0.8,0.7
	c0.4,0.5,0.6,0.8,0.6,1.1c0,0.2,0.1,0.3,0.3,0.3c0.2,0,0.5-0.2,0.9-0.6c0.2-0.2,0.3-0.4,0.3-0.5c0.1-0.1,0.2-0.2,0.2-0.3
	c0.2-0.2,0.4-0.5,0.8-0.8c0.4-0.4,0.6-0.6,0.7-0.7c0.1-0.1,0.1-0.1,0.2-0.1c0.2,0,0.4,0,0.6,0.2c0.2,0.2,0.3,0.4,0.4,0.6
	c0,0.2,0,0.4-0.1,0.5c-0.1,0.1-0.3,0.3-0.6,0.6c-0.1,0.1-0.3,0.3-0.7,0.7c-0.4,0.4-0.8,0.9-1.4,1.6l-0.5,0.6l0.5,0.6
	c0.4,0.5,0.6,0.7,0.8,0.8c0.2,0.2,0.5,0.4,1.1,0.7c0.6,0.3,0.9,0.4,1,0.4c0.1,0,0.1,0,0.2,0.1c0.1,0,0.2,0.1,0.3,0.1
	c0.2,0.2,0.4,0.4,0.4,0.6C124.1,10.4,124,10.6,123.8,10.6z M125.4,9.5c-0.1-0.1-0.2-0.2-0.3-0.3c-0.1-0.1-0.2-0.2-0.2-0.2
	c0-0.2-0.1-0.3-0.2-0.4c0,0-0.1-0.1-0.1-0.2c0-0.3,0-0.7,0.1-1.4c0.1-0.7,0.4-1.4,0.6-2.2c0.1-0.1,0.2-0.3,0.3-0.6
	c0.1-0.3,0.2-0.4,0.2-0.5c0-0.1,0-0.1,0-0.2c0-0.1,0.1-0.1,0.2-0.1l0-0.1c0-0.1,0.2-0.5,0.6-1.2c0.4-0.7,0.8-1.1,1.1-1.4
	c0.4-0.4,0.8-0.6,1.2-0.6c0.3-0.1,0.6,0,0.8,0.1c0.1,0.1,0.5,0.4,1.3,0.9l1.1,0.7L132,3c-0.1,0.5-0.1,0.9,0,1.2
	c0.1,0.6,0.4,1.2,0.9,1.7c0.1,0.2,0.3,0.3,0.6,0.4c0.3,0.1,0.5,0.2,0.8,0.2c0.4,0,0.6,0.2,0.6,0.4c0.1,0.3-0.1,0.6-0.3,0.7
	c-0.1,0-0.2,0.1-0.3,0.1c-1,0.2-1.9-0.4-2.9-1.6c-0.1-0.1-0.2-0.3-0.4-0.5c-0.1-0.2-0.2-0.4-0.3-0.5c-0.1,0.1-0.2,0.3-0.3,0.5
	s-0.2,0.4-0.3,0.5c-1.5,2.1-2.7,3.2-3.8,3.4C126,9.6,125.7,9.6,125.4,9.5z M126,8c0,0.1,0.1,0.1,0.3,0c0.2-0.1,0.4-0.2,0.6-0.4
	c0.2-0.2,0.5-0.4,0.7-0.7c1.2-1.5,2-2.7,2.5-3.7l0.4-1c-0.2-0.3-0.4-0.5-0.6-0.6c-0.2-0.1-0.4-0.2-0.5-0.2c-0.3,0.1-0.8,0.6-1.4,1.6
	c-0.6,1-1.1,2.1-1.5,3.4c-0.1,0.3-0.2,0.6-0.2,0.9C126.1,7.7,126.1,7.9,126,8z M326.2,186.6c-0.3,0-0.5-0.1-0.7-0.3
	c-2.3-2.4-4.6-4.9-6.9-7.2c-0.4-0.4-0.4-1,0-1.4c0.4-0.4,1-0.4,1.4,0c2.3,2.3,4.6,4.8,7,7.2c0.4,0.4,0.4,1,0,1.4
	C326.7,186.6,326.5,186.6,326.2,186.6z M312.2,172.4c-0.2,0-0.5-0.1-0.7-0.3c-2.4-2.3-4.9-4.6-7.3-6.8c-0.4-0.4-0.4-1-0.1-1.4
	c0.4-0.4,1-0.4,1.4-0.1c2.4,2.2,4.9,4.5,7.3,6.8c0.4,0.4,0.4,1,0,1.4C312.7,172.3,312.4,172.4,312.2,172.4z M297.4,159
	c-0.2,0-0.5-0.1-0.7-0.2c-2.5-2.2-5.1-4.3-7.7-6.4c-0.4-0.3-0.5-1-0.2-1.4c0.3-0.4,1-0.5,1.4-0.2c2.6,2.1,5.2,4.2,7.7,6.4
	c0.4,0.4,0.5,1,0.1,1.4C297.9,158.9,297.7,159,297.4,159z M281.8,146.5c-0.2,0-0.4-0.1-0.6-0.2c-2.7-2-5.4-4-8.1-5.8
	c-0.5-0.3-0.6-0.9-0.3-1.4c0.3-0.5,0.9-0.6,1.4-0.3c2.7,1.9,5.4,3.8,8.2,5.8c0.4,0.3,0.5,1,0.2,1.4
	C282.4,146.4,282.1,146.5,281.8,146.5z M265.3,135.2c-0.2,0-0.4,0-0.5-0.2c-2.8-1.8-5.7-3.5-8.5-5.1c-0.5-0.3-0.6-0.9-0.4-1.4
	c0.3-0.5,0.9-0.6,1.4-0.4c2.9,1.6,5.8,3.4,8.6,5.2c0.5,0.3,0.6,0.9,0.3,1.4C266,135,265.6,135.2,265.3,135.2z M247.9,125.3
	c-0.2,0-0.3,0-0.5-0.1c-3-1.5-6-3-9-4.3c-0.5-0.2-0.7-0.8-0.5-1.3c0.2-0.5,0.8-0.7,1.3-0.5c3,1.3,6.1,2.8,9.1,4.3
	c0.5,0.3,0.7,0.9,0.4,1.3C248.7,125.1,248.3,125.3,247.9,125.3z M229.7,117.2c-0.1,0-0.2,0-0.4-0.1c-3.1-1.2-6.3-2.3-9.4-3.3
	c-0.5-0.2-0.8-0.7-0.6-1.3s0.7-0.8,1.3-0.6c3.1,1,6.3,2.1,9.5,3.4c0.5,0.2,0.8,0.8,0.6,1.3C230.5,116.9,230.1,117.2,229.7,117.2z
	 M210.7,111c-0.1,0-0.2,0-0.3,0c-3.2-0.8-6.4-1.6-9.7-2.2c-0.5-0.1-0.9-0.6-0.8-1.2c0.1-0.5,0.6-0.9,1.2-0.8
	c3.3,0.7,6.6,1.4,9.8,2.3c0.5,0.1,0.9,0.7,0.7,1.2C211.5,110.7,211.1,111,210.7,111z M191.1,107c0,0-0.1,0-0.1,0
	c-3.2-0.5-6.5-0.9-9.9-1.2c-0.5-0.1-1-0.5-0.9-1.1c0.1-0.5,0.5-1,1.1-0.9c3.4,0.3,6.7,0.7,10,1.2c0.5,0.1,0.9,0.6,0.8,1.1
	C192,106.7,191.6,107,191.1,107z M122.2,106.1l-1,0c-0.6,0-1-0.5-1-1c0-0.5,0.5-1,1-1c0,0,0,0,0,0l1,0c2.6,0,5.4-0.1,9-0.2
	c0.6,0,1,0.4,1,1c0,0.6-0.4,1-1,1C127.7,106,124.8,106.1,122.2,106.1z M111.2,105.6c0,0-0.1,0-0.1,0c-3.7-0.4-7-1-10-1.9
	c-0.5-0.2-0.8-0.7-0.7-1.2c0.2-0.5,0.7-0.8,1.2-0.7c2.8,0.9,6,1.5,9.6,1.9c0.5,0.1,0.9,0.6,0.9,1.1
	C112.2,105.2,111.8,105.6,111.2,105.6z M141.2,105.5c-0.5,0-1-0.4-1-1c0-0.6,0.4-1,1-1c3.1-0.1,6.5-0.3,10-0.4c0.6,0,1,0.4,1,1
	c0,0.6-0.4,1-1,1C147.7,105.2,144.4,105.3,141.2,105.5C141.2,105.5,141.2,105.5,141.2,105.5z M171.2,105.2
	C171.2,105.2,171.2,105.2,171.2,105.2c-3.3-0.1-6.5-0.2-10-0.2c-0.6,0-1-0.5-1-1c0-0.6,0.4-1,1-1c0,0,0,0,0,0c3.5,0,6.8,0.1,10,0.2
	c0.6,0,1,0.5,1,1C172.2,104.8,171.7,105.2,171.2,105.2z M92.5,99.4c-0.2,0-0.4-0.1-0.6-0.2c-2.8-1.9-5.2-4.2-7.4-7.1
	c-0.3-0.4-0.3-1.1,0.2-1.4c0.4-0.3,1.1-0.3,1.4,0.2c2,2.7,4.3,4.9,6.9,6.7c0.5,0.3,0.6,0.9,0.3,1.4C93.1,99.3,92.8,99.4,92.5,99.4z
	 M80.3,83.9c-0.4,0-0.7-0.2-0.9-0.6c-1.3-2.8-2.4-6-3.4-9.5c-0.2-0.5,0.2-1.1,0.7-1.2c0.5-0.2,1.1,0.2,1.2,0.7
	c1,3.4,2.1,6.5,3.3,9.3c0.2,0.5,0,1.1-0.5,1.3C80.5,83.9,80.4,83.9,80.3,83.9z M74.6,64.8c-0.5,0-0.9-0.3-1-0.8
	c-0.6-3.1-1.1-6.4-1.5-9.9c-0.1-0.5,0.3-1,0.9-1.1c0.5-0.1,1,0.3,1.1,0.9c0.4,3.5,0.9,6.8,1.5,9.8c0.1,0.5-0.3,1.1-0.8,1.2
	C74.7,64.8,74.7,64.8,74.6,64.8z M346.7,214.1c1.2-1,1.9-2.5,1.8-4.1l-1.2-26.4c0-0.6-0.5-1-1-1c-0.6,0-1,0.5-1,1l1.2,26.4
	c0,1-0.4,1.9-1.1,2.5c-0.7,0.6-1.7,0.8-2.6,0.6l-21.3-5.4c-0.5-0.1-1.1,0.2-1.2,0.7s0.2,1.1,0.7,1.2l21.3,5.4
	c0.4,0.1,0.8,0.2,1.2,0.2C344.7,215.3,345.8,214.9,346.7,214.1z"/>
</svg>