<svg version="1.1" xmlns="http://www.w3.org/2000/svg" xmlns:xlink="http://www.w3.org/1999/xlink" viewBox="0 0 391 229.5" xml:space="preserve">
<path fill="#2D2D2D" d="M169.8,18.4c0,0-0.1-0.1-0.2-0.1c-0.1-0.1-0.2-0.1-0.3-0.1c-0.2-0.1-0.3-0.2-0.4-0.4
	c-0.1-0.2-0.1-0.4-0.1-0.6c0-0.1,0-0.2,0.1-0.3c0.1,0,0.1-0.2,0.2-0.4c0.1-0.2,0.1-0.4,0.2-0.5c0.1-0.1,0.1-0.2,0.2-0.3
	c0.1-0.1,0.1-0.3,0.2-0.4c0.3-0.7,0.8-1.9,1.6-3.5c0.8-1.6,1.2-2.5,1.4-2.6l0-0.3c0,0,0-0.1,0.1-0.3c0.1-0.1,0.2-0.3,0.3-0.4
	c0.1-0.2,0.2-0.4,0.2-0.5c0.1-0.2,0.1-0.3,0.2-0.4c0.1-0.1,0.2-0.3,0.5-0.7c0.2-0.4,0.4-0.6,0.5-0.8c0.2-0.3,0.4-0.6,0.6-1
	c0.3-0.4,0.4-0.7,0.5-0.8l0-0.1c0,0,0.1-0.2,0.3-0.4c0.2-0.3,0.4-0.5,0.5-0.7c0.2-0.2,0.6-0.9,1.3-1.9c0.1-0.1,0.2-0.2,0.3-0.4
	c0.1-0.2,0.2-0.3,0.2-0.3c0.1-0.1,0.2-0.1,0.4-0.1c0.1,0,0.3,0.1,0.4,0.3c0.1,0.1,0.2,0.3,0.3,0.5l0.2,0.4l-1.2,1.6
	c-0.3,0.4-0.6,0.8-0.9,1.1S177,4.5,177,4.5c-0.1,0.2-0.3,0.5-0.6,0.9c-0.3,0.5-0.5,0.9-0.7,1.2c-0.1,0.2-0.3,0.5-0.4,0.7
	c-0.2,0.2-0.3,0.4-0.3,0.5c-0.2,0.3-0.3,0.4-0.3,0.5c0-0.1,1,0.1,3,0.4c0.3,0.1,0.9,0.1,1.7,0.3c0.8,0.1,1.3,0.2,1.5,0.2l1.3,0.1
	l1.3-2.4c0.3-0.5,0.8-1.6,1.7-3.2c0.4-0.7,0.6-1.1,0.8-1.2c0.2-0.2,0.4-0.3,0.6-0.2c0.1,0,0.2,0.1,0.3,0.2c0.2,0.1,0.2,0.2,0.3,0.3
	c0.1,0.2,0.2,0.4,0.2,0.6c0,0.2-0.2,0.5-0.6,0.9c-0.3,0.3-0.7,0.9-1.2,1.8c-0.2,0.4-0.4,0.7-0.4,0.7c-0.1,0.3-0.2,0.6-0.4,0.7
	c-0.1,0.1-0.2,0.3-0.5,0.7c-0.2,0.4-0.4,0.6-0.4,0.6c0,0.1-0.1,0.3-0.2,0.4c-0.1,0.1-0.2,0.2-0.2,0.3l-0.3,0.6
	c-0.9,2-1.6,3.3-2.1,4.1c0,0.1-0.1,0.2-0.2,0.4c-0.1,0.2-0.2,0.3-0.2,0.4c-0.1,0.1-0.2,0.3-0.3,0.7c-0.2,0.3-0.3,0.5-0.3,0.6
	c-0.1,0.2-0.2,0.5-0.3,0.8c-0.4,1.1-0.7,1.7-0.7,1.8c0,0-0.1,0-0.2,0c-0.1,0-0.2-0.1-0.3-0.1c-0.1-0.1-0.2-0.1-0.3-0.2
	c-0.4-0.3-0.5-0.6-0.5-0.8c0-0.2,0.1-0.4,0.3-0.7c0.1-0.1,0.3-0.6,0.8-1.5l0.4-0.9c0.1-0.2,0.5-1,1.1-2.2c0.5-1,0.7-1.4,0.7-1.5
	l0-0.2c0-0.1-0.6-0.2-1.8-0.4c-1.3-0.2-2.5-0.4-3.6-0.4l-1.2-0.2L174,9.6c-0.1,0.2-0.5,0.9-1.2,2.2c-0.6,1.3-1,2.1-1.1,2.4
	c-0.2,0.5-0.5,1.2-0.9,2.2C170.3,17.3,170,17.9,169.8,18.4z M183.9,17.8c0-0.1-0.1-0.2-0.2-0.3c-0.1-0.1-0.1-0.2-0.1-0.2
	c0-0.2,0-0.3,0-0.4c0,0,0-0.1,0-0.2c0-0.3,0.2-0.7,0.6-1.3c0.4-0.6,0.8-1.2,1.4-1.9c0.1-0.1,0.3-0.2,0.5-0.5
	c0.2-0.2,0.3-0.3,0.4-0.4c0-0.1,0-0.1,0.1-0.2c0.1-0.1,0.1-0.1,0.2-0.1l0-0.1c0-0.1,0.4-0.5,1-0.9c0.6-0.5,1.2-0.8,1.5-0.9
	c0.5-0.2,0.9-0.3,1.3-0.2c0.3,0.1,0.5,0.2,0.7,0.4c0.1,0.1,0.4,0.5,0.9,1.3l0.8,1l-0.7,1.2c-0.2,0.4-0.4,0.8-0.4,1.2
	c-0.1,0.6,0,1.3,0.2,1.9c0.1,0.2,0.2,0.4,0.4,0.6c0.2,0.2,0.4,0.3,0.7,0.4c0.3,0.1,0.5,0.3,0.4,0.6c-0.1,0.3-0.2,0.5-0.5,0.5
	c-0.1,0-0.2,0-0.3,0c-1-0.2-1.7-1-2.2-2.5c0-0.1-0.1-0.3-0.2-0.6c-0.1-0.3-0.1-0.5-0.1-0.6c-0.1,0.1-0.3,0.2-0.5,0.4
	c-0.2,0.2-0.3,0.3-0.5,0.4c-2.1,1.5-3.7,2.1-4.7,1.9C184.4,18.2,184.1,18,183.9,17.8z M185,16.6c0,0.1,0.1,0.1,0.2,0.1
	c0.2,0,0.4,0,0.7-0.1c0.3-0.1,0.6-0.2,0.9-0.4c1.6-1,2.8-1.8,3.6-2.6l0.7-0.8c-0.1-0.4-0.2-0.7-0.4-0.8c-0.2-0.2-0.3-0.3-0.4-0.3
	c-0.3-0.1-1,0.3-1.9,1c-0.9,0.7-1.7,1.6-2.6,2.7c-0.2,0.3-0.4,0.5-0.5,0.8C185.2,16.4,185.1,16.5,185,16.6z M196.7,20.9
	c0,0-0.2,0-0.5-0.1c-0.3,0-0.5-0.1-0.7-0.3c-0.2-0.2-0.4-0.4-0.5-0.7c-0.1-0.2-0.1-0.5-0.2-0.8c0-0.3,0-0.5,0-0.7
	c0-0.1,0-0.2,0.1-0.3c0.6-1.8,1.1-2.8,1.4-3.3l0.6-0.9c0.1-0.2,0.2-0.5,0.2-0.9l0-0.1c0-0.2,0.2-0.4,0.3-0.5
	c0.3-0.2,0.6-0.4,0.8-0.7c0.2-0.3,0.4-0.6,0.7-1c0.3-0.4,0.6-0.7,0.7-0.8c0.2-0.2,0.4-0.4,0.6-0.6c0,0,0.2-0.2,0.4-0.5
	c0.3-0.3,0.6-0.5,0.9-0.7c0.4-0.5,1.1-1,2.2-1.6c0.5-0.3,0.7-0.4,0.9-0.5c0.1,0,0.2-0.1,0.5-0.1c0.3,0,0.4,0,0.5,0
	c0.1,0,0.4,0,0.7-0.1c0.1,0,0.3,0,0.5,0.2c0.3,0.2,0.4,0.3,0.5,0.5c0.2,0.5,0.2,0.9,0.2,1.2c0,0.2-0.1,0.4-0.3,0.7
	c-0.1,0.2-0.4,0.6-0.8,1.2c-0.8,1.1-2.1,2-3.8,2.8c-0.7,0.4-1.4,0.8-2.2,1c-0.6,0.2-1.1,0.3-1.4,0.4c-0.3,0-0.5,0.2-0.7,0.5
	c-0.1,0.1-0.2,0.3-0.3,0.5c-0.1,0.2-0.1,0.3-0.2,0.4c-0.1,0.1-0.4,0.6-0.8,1.6c-0.4,1-0.6,1.6-0.7,2c0,0.1,0,0.2,0,0.4
	c0,0.1,0.1,0.2,0.2,0.3c0.2,0,0.4-0.1,0.6-0.1c0.2-0.1,0.4-0.2,0.6-0.4c0.6-0.5,1-1,1.3-1.5c0.1-0.1,0.2-0.3,0.2-0.5
	c0.1-0.2,0.2-0.4,0.3-0.5c0.1-0.6,0.2-0.9,0.2-1.1c0-0.2,0-0.4-0.1-0.7c0.1,0,0.2-0.1,0.2-0.1c0.1-0.1,0.2-0.1,0.3,0
	c0.4,0.1,0.7,0.4,1,0.9c0.1,0.1,0.1,0.3,0,0.4c-0.2,0.5-0.3,0.9-0.3,1.1c-0.1,0.1-0.2,0.3-0.4,0.7c-0.1,0.2-0.1,0.4-0.3,0.6
	c-0.4,0.6-0.7,0.9-0.9,1.1c-0.5,0.6-1.1,1.1-1.8,1.5L196.7,20.9z M206.2,6.8c-0.5,0.1-0.9,0.3-1.2,0.4c-0.3,0.1-0.7,0.4-1.2,0.7
	c-0.5,0.3-1.1,0.9-2,1.7c-0.8,0.8-1.4,1.5-1.8,2c0.1,0,0.2,0.1,0.3,0.1c0.2,0,0.3,0,0.5-0.2c1.3-0.6,2.3-1.1,3.1-1.6
	c0.8-0.5,1.3-1,1.6-1.5c0.1-0.1,0.2-0.3,0.4-0.4c0.2-0.2,0.3-0.4,0.3-0.6L206.2,6.8z M206.8,21.9c-0.5,0.3-1,0.4-1.6,0.3
	c-0.4-0.1-0.8-0.2-1.1-0.5c-0.3-0.3-0.6-0.6-0.8-1c-0.2-0.3-0.3-0.6-0.3-1c0-0.3,0-0.8,0.1-1.2c0-0.2,0.1-0.5,0.2-1
	c0.2-0.6,0.5-1.2,0.9-1.8c0.5-0.6,1-1.1,1.6-1.5c0.6-0.4,1.2-0.7,1.7-0.8c0.3-0.1,0.5-0.2,0.8-0.1c0.1,0,0.2,0,0.3,0.1
	c0.1,0,0.2,0.1,0.4,0.1c0.4,0.1,0.6,0.2,0.8,0.4c0.2,0.1,0.3,0.3,0.4,0.5c0.3,0.5,0.5,1,0.4,1.5c-0.1,0.4-0.5,0.8-1,1.2
	c-0.5,0.4-1.1,0.7-1.8,0.9c-0.3,0-0.7,0-1,0c-0.5-0.1-0.9-0.3-1.2-0.5c-0.1-0.1-0.3-0.1-0.3-0.1c-0.1,0-0.3,0.1-0.4,0.2
	c-0.1,0.2-0.2,0.5-0.4,1c0,0.1-0.1,0.3-0.1,0.5c-0.1,0.8,0.1,1.3,0.6,1.5c0.4,0.1,0.6,0.2,0.8,0.3c0.2,0,0.4,0,0.7-0.1l0.5-0.2
	c0.1,0,0.2-0.1,0.3-0.1c0.1-0.1,0.2-0.1,0.3-0.2c0,0,0.1-0.1,0.2-0.1c0.1-0.1,0.1-0.1,0.2-0.1c0.1,0,0.1,0,0.2,0
	c0.1,0,0.1,0.1,0.2,0.2c0.1,0.1,0.1,0.1,0.2,0.2c0.1,0,0.2,0.1,0,0.3c-0.1,0.2-0.3,0.4-0.7,0.6C207.5,21.5,207.2,21.7,206.8,21.9z
	 M207.7,16.7c0.3-0.1,0.6-0.2,0.9-0.5c0.3-0.2,0.5-0.5,0.6-0.7c0-0.2,0-0.4-0.1-0.5c-0.1-0.2-0.3-0.3-0.6-0.3c-0.2,0-0.3,0-0.5,0
	c-0.2,0-0.5,0.2-0.9,0.4c-0.4,0.2-0.7,0.5-1,0.7c-0.3,0.3-0.4,0.4-0.4,0.5c0.1,0.2,0.4,0.3,0.9,0.4
	C207.1,16.7,207.4,16.7,207.7,16.7z M216.4,8.2c0.3,0,0.6,0,0.7,0c0.3,0,0.5,0.2,0.7,0.3c0.8,0.4,1.3,0.9,1.7,1.5
	c0.4,0.6,0.6,1.2,0.6,1.9c0.1,0.7,0,1.6-0.1,2.6c0,0.2,0,0.3-0.1,0.6c0,0.2-0.1,0.6-0.3,1.1c-0.1,0.1-0.2,0.3-0.3,0.5
	c-0.1,0.2-0.1,0.3-0.1,0.3c-0.1,0.3-0.1,0.6-0.2,0.7c-0.1,0.2-0.2,0.4-0.3,0.7c-0.2,0.2-0.2,0.4-0.3,0.5c-0.7,1.3-1.6,2.3-2.7,3.3
	c-1.1,0.9-2.2,1.4-3.3,1.5c-0.1,0-0.3-0.1-0.6-0.3c-0.3-0.2-0.5-0.5-0.7-0.7c-0.1-0.2-0.2-0.4-0.3-0.6c-0.1-0.2-0.1-0.4,0-0.6
	c-0.1-0.2-0.1-0.5-0.1-0.7c0-0.2,0.1-0.6,0.1-0.9c0.1-0.3,0.2-0.7,0.4-1c0.2-0.3,0.4-0.7,0.8-1.1c0.2-0.4,0.6-0.8,1.2-1.3
	c0.6-0.5,1.3-0.9,1.9-1c0.5-0.2,0.9-0.2,1.2-0.2c0.2,0,0.4,0.1,0.5,0.2c0.2,0.1,0.3,0.2,0.4,0.3c0.1,0.1,0.1,0.2,0.2,0.2
	c0.2-0.1,0.3-0.4,0.5-0.8c0.2-0.5,0.3-1,0.4-1.5c0.2-1,0.1-1.8-0.1-2.3c-0.4-0.9-1-1.4-1.7-1.5c-0.3,0-0.6,0-1.1,0.1
	c-0.2-0.1-0.3-0.3-0.5-0.6c-0.1-0.3-0.1-0.5,0-0.7C215.6,8.4,216,8.2,216.4,8.2z M217.3,16.9c-0.1-0.2-0.3-0.3-0.5-0.3
	c-0.4-0.1-0.9,0-1.6,0.4c-0.2,0.1-0.5,0.3-0.7,0.5c-0.2,0.2-0.4,0.3-0.4,0.4c-0.2,0.2-0.4,0.4-0.5,0.5l0,0c0,0.1-0.1,0.2-0.2,0.3
	c-0.1,0.1-0.2,0.1-0.2,0.2c-0.2,0.3-0.4,0.6-0.6,1c-0.1,0.3-0.2,0.6-0.3,0.7c-0.1,0.3-0.1,0.6,0,0.9c0.1,0.3,0.2,0.5,0.3,0.6
	c0.2,0.1,0.6,0,1.3-0.3c0.7-0.4,1.2-0.8,1.7-1.3c0.1-0.1,0.3-0.4,0.6-0.8c0.3-0.4,0.5-0.7,0.6-0.9c0.3-0.5,0.4-0.9,0.5-1.3
	C217.4,17.2,217.4,17,217.3,16.9z M224.9,25.9c-0.3-0.4-0.5-1.1-0.6-1.8c0-0.1,0-0.3,0-0.5c0-0.2,0.1-0.4,0.1-0.5
	c-0.1,0.2-0.4,0.4-0.7,0.6c-0.4,0.3-0.9,0.5-1.3,0.6c-0.6,0.3-1.1,0.4-1.5,0.3c-0.3-0.1-0.6-0.3-0.8-0.7c-0.2-0.2-0.3-0.4-0.4-0.6
	c-0.1-0.2-0.1-0.4,0-0.7c0-0.2,0.1-0.4,0.2-0.6c0.1-0.6,0.3-1.2,0.6-1.7c0.2-0.5,0.6-1.2,1.2-2c0.7-0.9,1.2-1.6,1.5-1.9
	c0.1,0,0.2,0,0.3,0c0.2,0,0.3,0.1,0.4,0.2c0.1,0.1,0.1,0.3,0.1,0.4c0,0.1,0,0.2,0,0.3c-0.1,0.4-0.4,1-1.1,1.9
	c-0.9,1.4-1.4,2.4-1.5,3c-0.1,0.3,0,0.6,0.2,0.7c0.1,0.1,0.2,0.1,0.3,0.1c0.4,0.1,1-0.1,1.6-0.6c0.7-0.5,1.4-1.3,2.1-2.4
	c0.3-0.5,0.6-1.1,0.7-1.6c0-0.1,0-0.1,0-0.2c0.1-0.3,0.2-0.5,0.6-0.6c0.1-0.1,0.2-0.1,0.3-0.2c0.1,0,0.2,0,0.2,0l0.4,0
	c0.1,0,0.1,0.1,0.1,0.2c0,0.1,0.1,0.2,0.1,0.2c0.1,0.1,0.1,0.3,0.1,0.6c-0.1,0.5-0.5,1.3-1.2,2.4c-0.4,0.6-0.7,1.1-0.9,1.4
	c-0.2,0.3-0.3,0.7-0.3,1c-0.1,0.6,0,1.2,0.4,1.7c0.1,0.1,0.2,0.3,0.2,0.4c0,0.1,0,0.3-0.1,0.5c-0.1,0.1-0.2,0.2-0.4,0.3
	c-0.2,0.1-0.3,0.1-0.5,0C225.2,26.1,225.1,26.1,224.9,25.9z M240.1,26.4c0.1,0.1,0.1,0.1,0.1,0.2c0,0.1-0.1,0.2-0.2,0.3
	c-0.1,0.1-0.2,0.1-0.2,0.1c-0.3-0.1-0.6-0.2-0.9-0.4c-0.2-0.2-0.3-0.5-0.3-0.9l0.3-1.5c0.1-0.8,0.2-1.2,0.1-1.3
	c-0.2-0.2-0.7,0-1.4,0.6c-0.7,0.6-1.4,1.3-2.1,2.1c-0.2,0.3-0.4,0.5-0.6,0.6c-0.1,0.1-0.2,0.2-0.3,0.2c0,0-0.1-0.1-0.2-0.2
	c-0.5-0.2-0.7-0.6-0.6-1c0,0,0-0.2,0.1-0.3c0.3-0.5,0.5-1.1,0.8-1.7c0.3-0.6,0.5-1.2,0.7-1.6c0-0.1-0.1-0.2-0.2-0.2
	c-0.2,0-0.4,0-0.6,0.1c-0.5,0.2-1.1,0.8-1.9,1.7c-1,1.1-1.7,1.7-2.1,1.9c-0.1,0.2-0.3,0.3-0.4,0.4c-0.1,0.1-0.2,0.1-0.3,0.1
	c-0.1,0-0.2-0.1-0.3-0.2c-0.4-0.4-0.6-0.8-0.5-1.3c0-0.2,0.2-0.7,0.5-1.4c0.3-0.7,0.6-1.4,0.9-2c0.2-0.3,0.4-0.5,0.5-0.8
	c0.2-0.3,0.3-0.5,0.3-0.5c0.1-0.3,0.3-0.7,0.4-1.1c0.2-0.4,0.3-0.6,0.3-0.6c0.1-0.1,0.3-0.1,0.4-0.1c0.2,0,0.4,0.2,0.5,0.5
	c0.1,0.2,0.2,0.5,0.1,0.7c-0.1,0.3-0.2,0.7-0.5,1.2c-0.4,0.6-0.8,1.4-1.4,2.5c0.4-0.3,0.7-0.6,0.9-0.8c0.5-0.5,1.1-1,1.9-1.6
	c0.6-0.5,1.2-0.6,1.9-0.5c0.7,0.3,1.1,1,1,2.1c0,0.2-0.1,0.4-0.2,0.7c-0.1,0.3-0.1,0.4-0.2,0.5c0.1-0.1,0.3-0.3,0.6-0.6
	c0.3-0.3,0.7-0.6,1.2-0.8c0.4-0.2,0.8-0.3,1.1-0.2c0.3,0,0.5,0.2,0.6,0.4c0.3,0.3,0.5,0.6,0.6,1c0.1,0.4,0.1,0.8,0,1.4
	c0,0.3-0.1,0.5-0.1,0.7c-0.1,0.3-0.1,0.5-0.2,0.6C240,25.8,240,26.1,240.1,26.4z M245.6,28.7c-0.5,0.3-1,0.4-1.6,0.3
	c-0.4-0.1-0.8-0.2-1.1-0.5c-0.3-0.3-0.6-0.6-0.8-1c-0.2-0.3-0.3-0.6-0.3-1c0-0.3,0-0.8,0.1-1.2c0-0.2,0.1-0.5,0.2-1
	c0.2-0.6,0.5-1.2,0.9-1.8c0.5-0.6,1-1.1,1.6-1.5c0.6-0.4,1.2-0.7,1.7-0.8c0.3-0.1,0.5-0.2,0.8-0.1c0.1,0,0.2,0,0.3,0.1
	c0.1,0,0.2,0.1,0.4,0.1c0.4,0.1,0.6,0.2,0.8,0.4c0.2,0.1,0.3,0.3,0.4,0.5c0.3,0.5,0.5,1,0.4,1.5c-0.1,0.4-0.5,0.8-1,1.2
	c-0.5,0.4-1.1,0.7-1.8,0.9c-0.3,0-0.7,0-1,0c-0.5-0.1-0.9-0.3-1.2-0.5c-0.1-0.1-0.3-0.1-0.3-0.1c-0.1,0-0.3,0.1-0.4,0.2
	c-0.1,0.2-0.2,0.5-0.4,1c0,0.1-0.1,0.3-0.1,0.5c-0.1,0.8,0,1.3,0.6,1.5c0.4,0.1,0.6,0.2,0.8,0.3c0.2,0,0.4,0,0.7-0.1l0.5-0.2
	c0.1,0,0.2-0.1,0.3-0.1c0.1-0.1,0.2-0.1,0.3-0.2c0,0,0.1-0.1,0.2-0.1c0.1-0.1,0.1-0.1,0.2-0.1c0.1,0,0.1,0,0.2,0
	c0.1,0,0.1,0.1,0.2,0.2c0.1,0.1,0.1,0.1,0.2,0.2c0.1,0,0.2,0.1,0,0.3c-0.1,0.2-0.3,0.4-0.7,0.6C246.4,28.4,246,28.6,245.6,28.7z
	 M246.5,23.5c0.3-0.1,0.6-0.2,0.9-0.5c0.3-0.2,0.5-0.5,0.6-0.7c0-0.2,0-0.4-0.1-0.5c-0.1-0.2-0.3-0.3-0.6-0.3c-0.2,0-0.3,0-0.5,0
	c-0.2,0-0.5,0.2-0.9,0.4c-0.4,0.2-0.7,0.5-1,0.7c-0.3,0.3-0.4,0.4-0.4,0.5c0.1,0.2,0.4,0.3,0.9,0.4C246,23.6,246.3,23.6,246.5,23.5z
	 M264.3,23.9c0.2-0.1,0.4-0.1,0.6-0.1c0.2,0,0.4,0.1,0.6,0.3c0.2,0.2,0.2,0.4,0.2,0.6c0,0,0,0.1-0.1,0.2c0.1-0.2-0.1,0.1-0.7,1
	s-0.9,1.3-0.9,1.4l0,0.1c0.2,0,0.4,0.1,0.4,0.3c0.1,0.1,0.1,0.3,0,0.6c-0.2,0-0.3,0-0.4,0.1c-0.1,0.1-0.3,0.1-0.3,0.1
	c0,0-0.1,0-0.2,0c-0.1,0-0.1,0.1-0.2,0.2c0,0.1-0.1,0.3-0.3,0.7l-0.8,1.7c-0.1,0.1-0.1,0.2-0.2,0.3c-0.1,0.1-0.2,0.1-0.2,0.1
	c-0.1,0-0.2-0.1-0.4-0.2c-0.2-0.1-0.3-0.2-0.3-0.2c-0.1-0.1-0.1-0.1-0.2-0.2l0-0.1c0-0.2,0.1-0.5,0.2-0.7c0.2-0.4,0.4-0.9,0.7-1.6
	c-0.1-0.1-0.5-0.1-1-0.1c-0.5,0-0.8,0-0.9,0c-0.1,0-0.3,0-0.6,0c-0.5-0.1-0.8-0.2-1-0.3l-0.2,0c-0.1,0.1-0.1,0.3-0.2,0.5
	c-0.3,0.5-0.4,0.8-0.5,1.1c-0.1,0.2-0.1,0.4-0.2,0.5c-0.1,0.2-0.1,0.4-0.2,0.7c-0.1,0.5-0.3,0.7-0.6,0.6c-0.2,0-0.4-0.1-0.6-0.3
	c-0.1-0.1-0.2-0.2-0.4-0.5l0.7-1.8c0.1-0.1,0.2-0.3,0.3-0.6c0.1-0.3,0.2-0.5,0.3-0.6l0.4-0.7c0.3-0.5,0.6-1,0.8-1.3
	c0,0,0.3-0.5,0.8-1.4c0.1-0.1,0.2-0.4,0.5-0.9c0.3-0.5,0.4-0.8,0.5-0.9c0.1-0.2,0.2-0.2,0.4-0.2c0.3,0,0.5,0.1,0.6,0.3
	c0.2,0.2,0.3,0.3,0.2,0.5c0,0,0,0.1-0.1,0.2c0,0.1-0.1,0.2-0.1,0.2l-1.8,2.9l0,0.2c0.1,0.1,0.2,0.1,0.3,0.1c0.1,0,0.3,0,0.6,0
	c0.3,0,0.5,0,0.5,0c0.1,0,0.4,0,0.7,0.1c0.3,0,0.6,0.1,0.9,0.1c0.2,0,0.4,0.1,0.4,0.1l0.4-0.7c0.4-0.8,0.8-1.4,1.2-1.8
	c0,0,0.1-0.1,0.1-0.3C264.2,24.2,264.2,24.1,264.3,23.9z M265.7,32.2c0-0.1-0.1-0.2-0.2-0.3c-0.1-0.1-0.1-0.2-0.1-0.2
	c0-0.2,0-0.3,0-0.4c0,0,0-0.1,0-0.2c0-0.3,0.2-0.7,0.6-1.3c0.4-0.6,0.8-1.2,1.4-1.9c0.1-0.1,0.3-0.2,0.5-0.5
	c0.2-0.2,0.3-0.3,0.4-0.4c0-0.1,0-0.1,0.1-0.2c0.1-0.1,0.1-0.1,0.2-0.1l0-0.1c0-0.1,0.4-0.5,1-0.9c0.6-0.5,1.2-0.8,1.5-0.9
	c0.5-0.2,0.9-0.3,1.3-0.2c0.3,0.1,0.5,0.2,0.7,0.4c0.1,0.1,0.4,0.5,0.9,1.3l0.8,1l-0.7,1.2c-0.2,0.4-0.4,0.8-0.4,1.2
	c-0.1,0.6,0,1.3,0.2,1.9c0,0.2,0.2,0.4,0.4,0.6c0.2,0.2,0.4,0.3,0.7,0.4c0.3,0.1,0.5,0.3,0.4,0.6c-0.1,0.3-0.2,0.5-0.5,0.5
	c-0.1,0-0.2,0-0.3,0c-1-0.2-1.7-1-2.2-2.5c0-0.1-0.1-0.3-0.2-0.6c-0.1-0.3-0.1-0.5-0.1-0.6c-0.1,0.1-0.3,0.2-0.5,0.4
	c-0.2,0.2-0.3,0.3-0.5,0.4c-2.1,1.5-3.7,2.1-4.7,1.9C266.2,32.6,265.9,32.5,265.7,32.2z M266.8,31c0,0.1,0.1,0.1,0.2,0.1
	c0.2,0,0.4,0,0.7-0.1c0.3-0.1,0.6-0.2,0.9-0.4c1.6-1,2.8-1.8,3.6-2.6l0.7-0.8c-0.1-0.4-0.2-0.7-0.4-0.8c-0.2-0.2-0.3-0.3-0.4-0.3
	c-0.3-0.1-1,0.3-1.9,1c-0.9,0.7-1.7,1.6-2.6,2.7c-0.2,0.3-0.4,0.5-0.5,0.8C267,30.8,266.9,30.9,266.8,31z M295.9,31.4
	c0.1,0.3,0.1,0.6,0,0.9c-0.1,0.5-0.3,0.9-0.6,1.3c-0.3,0.4-0.8,0.9-1.4,1.6l-1.7,1c0.1,0-0.2,0-0.9,0c-0.5,0-0.9,0-1.1,0
	c-0.3-0.1-0.6-0.2-0.8-0.4c-0.2-0.3-0.5-0.7-0.7-1.3l-0.2,0c-0.1,0.2-0.3,0.4-0.5,0.8l-1.8,3.3c-0.3,0.4-0.5,0.8-0.6,1.2
	c-0.1,0.3-0.4,0.9-0.7,1.7c0,0.2-0.1,0.3-0.2,0.5c-0.1,0.1-0.1,0.3-0.2,0.3c0,0-0.1,0-0.2,0c-0.1,0-0.2,0-0.3-0.1
	c-0.2-0.1-0.4-0.2-0.5-0.4c-0.1-0.2-0.1-0.4-0.1-0.6c0-0.2,0.1-0.4,0.3-0.6c0-0.1,0-0.3,0.1-0.4c0-0.1,0.1-0.3,0.1-0.3
	c0.2-0.2,0.3-0.4,0.3-0.5l0.4-0.8c1.1-1.9,1.8-3.2,2-3.9l-1.1,0.6c-0.1,0-0.2,0.1-0.4,0.3c-0.2,0.1-0.4,0.2-0.5,0.3
	c-0.1,0-0.3,0-0.7,0.1c-0.2,0.1-0.4,0.1-0.6,0.2c-0.2-0.1-0.3-0.2-0.5-0.3c-0.2-0.1-0.3-0.3-0.3-0.5c-0.1-0.3-0.1-0.6,0-1
	c0.1-0.5,0.2-0.9,0.4-1.3c0.5-0.9,0.8-1.5,1-1.8c0.2-0.4,0.5-0.7,0.9-1.1c0.1-0.1,0.2-0.2,0.4-0.5c0.2-0.2,0.5-0.5,0.7-0.6
	c0.2-0.1,0.4-0.2,0.5-0.3c0.2-0.1,0.3-0.2,0.5-0.3c0.7-0.1,1.1-0.1,1.4-0.1c0.2,0,0.4,0.1,0.5,0.2c0.2,0.1,0.3,0.3,0.5,0.6
	c0,0.1,0,0.3-0.1,0.8l-0.1,0.8c0.1,0.1,0.2,0,0.3-0.3c0.1-0.3,0.1-0.4,0.2-0.5c0.4-0.7,0.7-1.2,0.8-1.4c0.4-0.5,0.8-1.2,1.2-1.9
	c0.1-0.2,0.2-0.4,0.5-0.6c0.4,0.2,0.7,0.5,0.8,0.8c-0.1,0.5-0.2,0.9-0.3,1.1c-0.1,0.2-0.3,0.5-0.5,0.7c-0.2,0.2-0.4,0.5-0.5,0.7
	c0,0-0.2,0.3-0.5,0.7c-0.3,0.4-0.5,0.7-0.5,0.7l2-0.8c0.1,0,0.3-0.1,0.5-0.2c0.3-0.1,0.5-0.2,0.7-0.2c0.2,0,0.4,0,0.6,0
	c0.1,0,0.3,0.1,0.3,0.1c0.2,0.1,0.5,0.3,0.8,0.6C295.6,30.8,295.8,31.1,295.9,31.4z M287.8,31.7c0.1-0.2,0.2-0.6,0.3-1.2
	c0.1-0.5,0.1-0.9,0-1c-0.4,0.1-0.7,0.2-0.8,0.3c-0.1,0.1-0.4,0.3-1,0.7c-0.3,0.3-0.6,0.5-0.8,0.9c-0.2,0.3-0.5,0.8-1,1.4
	c-0.2,0.2-0.3,0.4-0.5,0.6c-0.1,0.2-0.2,0.3-0.2,0.5c0,0.1,0,0.2,0.1,0.3c0.2,0.1,0.5,0,0.8-0.2c0.3-0.2,0.9-0.4,1.5-0.8l0.8-0.4
	c0.2-0.1,0.3-0.2,0.4-0.3c0.1-0.1,0.1-0.3,0.2-0.5C287.7,31.9,287.8,31.8,287.8,31.7z M294.1,32.8c0-0.1,0.1-0.2,0.2-0.5
	c0.1-0.2,0.2-0.5,0.2-0.7c0-0.2,0-0.4-0.2-0.4c-0.4,0-0.8,0.1-1.1,0.2c-0.3,0.1-0.6,0.2-1,0.5l-1.6,0.8c-0.4,0.3-0.8,0.4-1.1,0.2
	c-0.1,0-0.3,0.1-0.3,0.2c-0.1,0.1-0.1,0.2-0.2,0.3c0.1,0.1,0.1,0.1,0.2,0.1c0,0,0.1,0,0.1,0c0.1,0.4,0.2,0.7,0.4,0.9
	c0.2,0.2,0.4,0.3,0.8,0.4c0.4,0.1,0.9,0,1.3-0.1s0.7-0.3,1-0.5c0.2-0.1,0.5-0.3,0.8-0.7C293.9,33.2,294.1,32.9,294.1,32.8z
	 M298,38.5c-0.2,0-0.3-0.1-0.5-0.2s-0.2-0.2-0.4-0.5c-0.4-0.7-0.6-1.2-0.5-1.7c0-0.1,0-0.2,0.1-0.2c0.1-0.1,0.1-0.2,0.1-0.3
	c0-0.1,0-0.2,0-0.2c-0.1-0.1-0.1-0.1-0.1-0.1c0,0,0-0.1,0.1-0.1c0,0,0.1-0.1,0.1-0.1c0.1,0,0.1-0.1,0.1-0.3c0-0.1,0.1-0.4,0.3-0.8
	c0.2-0.4,0.5-0.8,0.8-1.1c0.2-0.3,0.6-0.6,1-1c0.4-0.4,0.8-0.7,1.1-0.8c0.5-0.3,0.9-0.5,1.2-0.6c0.3-0.1,0.7-0.2,1.1-0.2
	c0.3,0,0.6,0,0.7,0c0.1,0,0.2,0.1,0.3,0.2c0.1,0.1,0.2,0.2,0.3,0.4c0.4,0.3,0.7,0.6,0.8,0.9c0.1,0.3,0.1,0.8,0,1.5
	c-0.2,1.1-0.8,2.1-1.9,3.2c-0.5,0.5-0.9,0.8-1.3,1.1c-0.4,0.2-0.9,0.4-1.5,0.7c-0.4,0.2-0.7,0.3-1.1,0.4
	C298.7,38.5,298.3,38.5,298,38.5z M300.8,36.3c0.5-0.4,0.9-0.7,1.2-1.1c0.3-0.4,0.6-0.8,1-1.4c0.1-0.3,0.2-0.6,0.3-1
	c0.1-0.5,0.1-0.8,0-0.9c-0.1-0.1-0.3-0.2-0.5-0.2c-0.4-0.1-0.8,0-1.2,0.3c-0.5,0.3-1.1,0.8-1.5,1.3c-0.5,0.5-1,1.2-1.5,2
	c-0.2,0.3-0.4,0.6-0.4,1c0,0.2,0,0.5,0.1,0.6c0.1,0.2,0.3,0.3,0.5,0.3C299,37.3,299.8,37,300.8,36.3z M316.8,40
	c0.1,0.1,0.1,0.1,0.1,0.2c0,0.1-0.1,0.2-0.2,0.3c-0.1,0.1-0.2,0.1-0.2,0.1c-0.3-0.1-0.6-0.2-0.9-0.4c-0.2-0.2-0.3-0.5-0.3-0.9
	l0.3-1.5c0.1-0.8,0.2-1.2,0.1-1.3c-0.2-0.2-0.7,0-1.4,0.6c-0.7,0.6-1.4,1.3-2.1,2.1c-0.2,0.3-0.4,0.5-0.6,0.6
	c-0.1,0.1-0.2,0.2-0.3,0.2c0,0-0.1-0.1-0.2-0.2c-0.5-0.2-0.7-0.6-0.6-1c0,0,0-0.2,0.1-0.3c0.3-0.5,0.5-1.1,0.8-1.7
	c0.3-0.6,0.5-1.2,0.7-1.6c0-0.1-0.1-0.2-0.2-0.2c-0.2,0-0.4,0-0.6,0.1c-0.5,0.2-1.1,0.8-1.9,1.7c-1,1.1-1.7,1.7-2.1,1.9
	c-0.2,0.2-0.3,0.3-0.4,0.4c-0.1,0.1-0.2,0.1-0.3,0.1c-0.1,0-0.2-0.1-0.3-0.2c-0.4-0.4-0.6-0.8-0.5-1.3c0-0.2,0.2-0.7,0.5-1.4
	c0.3-0.7,0.6-1.4,0.9-2c0.2-0.3,0.4-0.5,0.5-0.8c0.2-0.3,0.3-0.5,0.3-0.5c0.1-0.3,0.3-0.7,0.4-1.1c0.2-0.4,0.3-0.6,0.3-0.6
	c0.1-0.1,0.3-0.1,0.4-0.1c0.2,0,0.4,0.2,0.5,0.5c0.1,0.2,0.2,0.5,0.1,0.7c-0.1,0.3-0.2,0.7-0.5,1.2c-0.4,0.6-0.8,1.4-1.4,2.5
	c0.4-0.3,0.7-0.6,0.9-0.8c0.5-0.5,1.1-1,1.9-1.6c0.6-0.5,1.2-0.6,1.9-0.5c0.7,0.3,1.1,1,1,2.1c0,0.2-0.1,0.4-0.2,0.7
	c-0.1,0.3-0.1,0.4-0.2,0.5c0.1-0.1,0.3-0.3,0.6-0.6c0.3-0.3,0.7-0.6,1.2-0.8c0.4-0.2,0.8-0.3,1.1-0.2c0.3,0,0.5,0.2,0.6,0.4
	c0.3,0.3,0.5,0.6,0.6,1c0.1,0.4,0.1,0.8,0,1.4c0,0.3-0.1,0.5-0.1,0.7c-0.1,0.3-0.1,0.5-0.2,0.6C316.7,39.3,316.7,39.6,316.8,40z
	 M320.1,42.4c-0.2,0-0.3-0.1-0.5-0.2c-0.1-0.1-0.2-0.2-0.4-0.5c-0.4-0.7-0.6-1.2-0.5-1.7c0-0.1,0-0.2,0.1-0.2
	c0.1-0.1,0.1-0.2,0.1-0.3c0-0.1,0-0.2,0-0.2c-0.1-0.1-0.1-0.1-0.1-0.1c0,0,0-0.1,0.1-0.1c0,0,0.1-0.1,0.1-0.1c0.1,0,0.1-0.1,0.1-0.3
	c0-0.1,0.1-0.4,0.3-0.8c0.2-0.4,0.5-0.8,0.8-1.1c0.2-0.3,0.6-0.6,1-1c0.4-0.4,0.8-0.7,1.1-0.8c0.5-0.3,0.9-0.5,1.2-0.6
	c0.3-0.1,0.7-0.2,1.1-0.2c0.3,0,0.6,0,0.7,0c0.1,0,0.2,0.1,0.3,0.2c0.1,0.1,0.2,0.2,0.3,0.4c0.4,0.3,0.7,0.6,0.8,0.9
	c0.1,0.3,0.1,0.8,0,1.5c-0.2,1.1-0.8,2.1-1.9,3.2c-0.5,0.5-0.9,0.8-1.3,1.1c-0.4,0.2-0.9,0.4-1.5,0.7c-0.4,0.2-0.7,0.3-1.1,0.4
	C320.8,42.4,320.5,42.4,320.1,42.4z M323,40.2c0.5-0.4,0.9-0.7,1.2-1.1c0.3-0.4,0.6-0.8,1-1.4c0.1-0.3,0.2-0.6,0.3-1
	c0.1-0.5,0.1-0.8,0-0.9c-0.1-0.1-0.3-0.2-0.5-0.2c-0.4-0.1-0.8,0-1.2,0.3c-0.5,0.3-1.1,0.8-1.5,1.3c-0.5,0.5-1,1.2-1.5,2
	c-0.2,0.3-0.4,0.6-0.4,1c0,0.2,0,0.5,0.1,0.6c0.1,0.2,0.3,0.3,0.5,0.3C321.2,41.2,322,40.9,323,40.2z M335.1,35.8
	c0.4,0.1,0.7,0.4,1,1l-0.5,0.6c-1.2-0.2-2.1-0.3-2.5-0.2c-0.1,0-0.3,0-0.6,0c-0.3,0-0.5,0-0.6,0c-0.2,0.1-0.3,0.4-0.5,0.8
	c-0.2,0.4-0.3,0.7-0.4,0.8c-0.1,0.2-0.3,0.5-0.5,0.9c-0.2,0.4-0.4,0.7-0.5,1c0-0.1-0.1,0-0.3,0.5c-0.2,0.5-0.4,0.7-0.4,0.8
	c-0.2,0.4-0.3,0.6-0.3,0.6c-0.3,0.7-0.6,1.2-0.9,1.6l-0.6-0.1c-0.1-0.1-0.3-0.3-0.5-0.6c0-0.3,0.2-0.7,0.4-1.2
	c0.3-0.6,0.5-1,0.7-1.3l2.1-3.8c0-0.1,0.1-0.2,0.1-0.5c0-0.1,0-0.1,0-0.2c0-0.2,0.1-0.3,0.2-0.5c0.1-0.1,0.2-0.3,0.3-0.4l0.2,0.1
	c0.1,0,0.1,0,0.2,0c0.1,0,0.2,0,0.2,0.1c0.1,0.1,0.5,0.1,1.2,0.1c0.6,0,1.1,0,1.3-0.1l0.9,0.1C334.9,35.8,335.1,35.8,335.1,35.8z
	 M332.5,50.6c-0.1,0-0.2-0.1-0.3-0.3c-0.1-0.1-0.1-0.3-0.1-0.4c0-0.1,0.1-0.4,0.3-0.8c0.3-0.7,0.5-1.1,0.5-1.4
	c0-0.1,0.1-0.2,0.1-0.4c0.1-0.1,0.1-0.3,0.1-0.4c0.1-0.1,0.2-0.3,0.3-0.5c0.1-0.2,0.2-0.4,0.2-0.6c0-0.1,0.1-0.2,0.1-0.3
	c0.1-0.1,0.2-0.2,0.3-0.2c0-0.1,0.1-0.2,0.2-0.4c0.1-0.2,0.1-0.3,0.2-0.4c0.2-0.4,0.7-1.4,1.5-3c0.9-1.6,1.6-2.8,2.1-3.8
	c0.3-0.4,0.5-0.7,0.6-1.1c0.1-0.3,0.2-0.6,0.3-0.8c0-0.1,0-0.1,0.1-0.2c0.1-0.1,0.1-0.1,0.3-0.2c0.1-0.1,0.3-0.1,0.4-0.1
	c0.1,0,0.2,0.1,0.3,0.1s0.2,0.2,0.3,0.3c0.1,0.2,0.1,0.3,0.1,0.5c0,0.1,0.1,0.3,0,0.4c0,0-0.1,0.2-0.1,0.5c-0.1,0.3-0.2,0.6-0.4,0.8
	c-0.2,0.2-0.3,0.3-0.2,0.3c0.8-0.2,1.5-0.3,2.1-0.2c0.7,0.1,1.2,0.4,1.5,0.9c0.3,0.5,0.4,1.1,0.3,1.8c-0.1,0.3-0.2,0.6-0.5,1
	c-0.2,0.4-0.4,0.6-0.6,0.8c-0.1,0-0.3,0.1-0.5,0.4c-0.3,0.2-0.7,0.4-1.2,0.7c-0.5,0.2-0.9,0.2-1.1,0.1c0,0,0,0-0.1,0
	c0,0-0.1,0-0.1,0.1c0,0.1-0.3,0.1-0.9,0.2c-0.6,0.1-1.1,0.1-1.4,0c-0.2,0-0.3-0.1-0.4-0.1c-0.1-0.1-0.2-0.1-0.3-0.2
	c-0.1,0.1-0.2,0.2-0.2,0.3c0,0.2-0.2,0.5-0.4,0.9c-0.2,0.4-0.4,0.7-0.5,0.6c0,0,0,0-0.1,0.1c0,0,0,0.1,0,0.2c0,0,0,0.2-0.1,0.3
	c0,0.2-0.1,0.3-0.2,0.4c0,0.1-0.1,0.3-0.2,0.6c-0.1,0.3-0.2,0.4-0.3,0.6c0,0.2-0.1,0.4-0.2,0.5c-0.1,0.2-0.2,0.3-0.2,0.3
	c-0.1,0-0.2,0.2-0.3,0.7c-0.1,0.4-0.2,0.7-0.4,0.9c-0.2,0.2-0.4,0.3-0.6,0.3L332.5,50.6z M337.1,43c0.2,0,0.8,0,1.5-0.1
	c0.8-0.1,1.4-0.3,1.7-0.5c0.4-0.2,0.7-0.5,1-0.8c0.3-0.3,0.4-0.6,0.5-1c0-0.3,0-0.5-0.1-0.8c-0.1-0.2-0.3-0.3-0.5-0.4
	c-0.3-0.1-0.7,0-1.2,0.1c-0.5,0.2-0.9,0.4-1.4,0.7c-0.3,0.2-0.7,0.6-1,1.1c-0.3,0.5-0.5,0.9-0.6,1.2C337,42.8,337,42.9,337.1,43z
	 M344.5,46.1c0-0.1-0.1-0.2-0.2-0.3c-0.1-0.1-0.1-0.2-0.1-0.2c0-0.2,0-0.3,0-0.4c0,0,0-0.1,0-0.2c0-0.3,0.2-0.7,0.6-1.3
	c0.4-0.6,0.8-1.2,1.4-1.9c0.1-0.1,0.3-0.2,0.5-0.5c0.2-0.2,0.3-0.3,0.4-0.4c0-0.1,0-0.1,0.1-0.2c0.1-0.1,0.1-0.1,0.2-0.1l0-0.1
	c0-0.1,0.4-0.5,1-0.9c0.6-0.5,1.2-0.8,1.5-0.9c0.5-0.2,0.9-0.3,1.3-0.2c0.3,0.1,0.5,0.2,0.7,0.4c0.1,0.1,0.4,0.5,0.9,1.3l0.8,1
	l-0.7,1.2c-0.2,0.4-0.4,0.8-0.4,1.2c-0.1,0.6,0,1.3,0.2,1.9c0,0.2,0.2,0.4,0.4,0.6c0.2,0.2,0.4,0.3,0.7,0.4c0.3,0.1,0.5,0.3,0.4,0.6
	c-0.1,0.3-0.2,0.5-0.5,0.5c-0.1,0-0.2,0-0.3,0c-1-0.2-1.7-1-2.2-2.5c0-0.1-0.1-0.3-0.2-0.6c-0.1-0.3-0.1-0.5-0.1-0.6
	c-0.1,0.1-0.3,0.2-0.5,0.4c-0.2,0.2-0.3,0.3-0.5,0.4c-2.1,1.5-3.7,2.1-4.7,1.9C345,46.5,344.8,46.3,344.5,46.1z M345.7,44.9
	c0,0.1,0.1,0.1,0.2,0.1c0.2,0,0.4,0,0.7-0.1c0.3-0.1,0.6-0.2,0.9-0.4c1.6-1,2.8-1.8,3.6-2.6l0.7-0.8c-0.1-0.4-0.2-0.7-0.4-0.8
	c-0.2-0.2-0.3-0.3-0.4-0.3c-0.3-0.1-1,0.3-1.9,1c-0.9,0.7-1.7,1.6-2.6,2.7c-0.2,0.3-0.4,0.5-0.5,0.8
	C345.8,44.7,345.7,44.8,345.7,44.9z M368.5,44.2c0.1,0.3,0.1,0.6,0,0.9c-0.1,0.5-0.3,0.9-0.6,1.3c-0.3,0.4-0.8,0.9-1.4,1.6l-1.7,1
	c0.1,0-0.2,0-0.9,0c-0.5,0-0.9,0-1.1,0c-0.3-0.1-0.6-0.2-0.8-0.4c-0.2-0.3-0.5-0.7-0.7-1.3l-0.2,0c-0.1,0.2-0.3,0.4-0.5,0.8
	l-1.8,3.3c-0.3,0.4-0.5,0.8-0.6,1.2c-0.1,0.3-0.4,0.9-0.7,1.7c0,0.2-0.1,0.3-0.2,0.5c-0.1,0.1-0.1,0.3-0.2,0.3c0,0-0.1,0-0.2,0
	c-0.1,0-0.2,0-0.3-0.1c-0.2-0.1-0.4-0.2-0.5-0.4c-0.1-0.2-0.1-0.4-0.1-0.6c0-0.2,0.1-0.4,0.3-0.6c0-0.1,0-0.3,0.1-0.4
	c0-0.1,0.1-0.3,0.1-0.3c0.2-0.2,0.3-0.4,0.3-0.5l0.4-0.8c1.1-1.9,1.8-3.2,2-3.9l-1.1,0.6c-0.1,0-0.2,0.1-0.4,0.3
	c-0.2,0.1-0.4,0.2-0.5,0.3c-0.1,0-0.3,0-0.7,0.1c-0.2,0.1-0.4,0.1-0.6,0.2c-0.2-0.1-0.3-0.2-0.5-0.3c-0.2-0.1-0.3-0.3-0.3-0.5
	c-0.1-0.3-0.1-0.6,0-1c0.1-0.5,0.2-0.9,0.4-1.3c0.5-0.9,0.8-1.5,1-1.8c0.2-0.4,0.5-0.7,0.9-1.1c0.1-0.1,0.2-0.2,0.4-0.5
	c0.2-0.2,0.5-0.5,0.7-0.6c0.2-0.1,0.4-0.2,0.5-0.3c0.2-0.1,0.3-0.2,0.5-0.3c0.7-0.1,1.1-0.1,1.4-0.1c0.2,0,0.4,0.1,0.5,0.2
	c0.2,0.1,0.3,0.3,0.5,0.6c0,0.1,0,0.3-0.1,0.8l-0.1,0.8c0.1,0.1,0.2,0,0.3-0.3c0.1-0.3,0.1-0.4,0.2-0.5c0.4-0.7,0.7-1.2,0.8-1.4
	c0.4-0.5,0.8-1.2,1.2-1.9c0.1-0.2,0.2-0.4,0.5-0.6c0.4,0.2,0.7,0.5,0.8,0.8c-0.1,0.5-0.2,0.9-0.3,1.1c-0.1,0.2-0.3,0.5-0.5,0.7
	c-0.2,0.2-0.4,0.5-0.5,0.7c0,0-0.2,0.3-0.5,0.7c-0.3,0.4-0.5,0.7-0.5,0.7l2-0.8c0.1,0,0.3-0.1,0.5-0.2c0.3-0.1,0.5-0.2,0.7-0.2
	c0.2,0,0.4,0,0.6,0c0.1,0,0.3,0.1,0.3,0.1c0.2,0.1,0.5,0.3,0.8,0.6C368.2,43.6,368.4,43.9,368.5,44.2z M360.4,44.6
	c0.1-0.2,0.2-0.6,0.3-1.2c0.1-0.5,0.1-0.9,0-1c-0.4,0.1-0.7,0.2-0.8,0.3c-0.1,0.1-0.4,0.3-1,0.7c-0.3,0.3-0.6,0.5-0.8,0.9
	c-0.2,0.3-0.5,0.8-1,1.4c-0.2,0.2-0.3,0.4-0.5,0.6c-0.1,0.2-0.2,0.3-0.2,0.5c0,0.1,0,0.2,0.1,0.3c0.2,0.1,0.5,0,0.8-0.2
	c0.3-0.2,0.9-0.4,1.5-0.8l0.8-0.4c0.2-0.1,0.3-0.2,0.4-0.3c0.1-0.1,0.1-0.3,0.2-0.5C360.3,44.7,360.4,44.6,360.4,44.6z M366.7,45.6
	c0-0.1,0.1-0.2,0.2-0.5c0.1-0.2,0.2-0.5,0.2-0.7c0-0.2,0-0.4-0.2-0.4c-0.4,0-0.8,0.1-1.1,0.2c-0.3,0.1-0.6,0.2-1,0.5l-1.6,0.8
	c-0.4,0.3-0.8,0.4-1.1,0.2c-0.1,0-0.3,0.1-0.3,0.2c-0.1,0.1-0.1,0.2-0.2,0.3c0.1,0.1,0.1,0.1,0.2,0.1c0,0,0.1,0,0.1,0
	c0.1,0.4,0.2,0.7,0.4,0.9c0.2,0.2,0.4,0.3,0.8,0.4c0.4,0.1,0.9,0,1.3-0.1s0.7-0.3,1-0.5c0.2-0.1,0.5-0.3,0.8-0.7
	C366.5,46,366.7,45.7,366.7,45.6z M374.7,52.3c-0.3-0.4-0.5-1.1-0.6-1.8c0-0.1,0-0.3,0-0.5s0.1-0.4,0.1-0.5
	c-0.1,0.2-0.4,0.4-0.7,0.6c-0.4,0.3-0.9,0.5-1.3,0.6c-0.6,0.3-1.1,0.4-1.5,0.3c-0.3-0.1-0.6-0.3-0.8-0.7c-0.2-0.2-0.3-0.4-0.4-0.6
	c-0.1-0.2-0.1-0.4,0-0.7c0-0.2,0.1-0.4,0.2-0.6c0.1-0.6,0.3-1.2,0.6-1.7c0.2-0.5,0.6-1.2,1.2-2c0.7-0.9,1.2-1.6,1.5-1.9
	c0.1,0,0.2,0,0.3,0c0.2,0,0.3,0.1,0.4,0.2c0.1,0.1,0.1,0.3,0.1,0.4c0,0.1,0,0.2,0,0.3c-0.1,0.4-0.4,1-1.1,1.9
	c-0.9,1.4-1.4,2.4-1.5,3c-0.1,0.3,0,0.6,0.2,0.7c0.1,0.1,0.2,0.1,0.3,0.1c0.4,0.1,1-0.1,1.6-0.6c0.7-0.5,1.4-1.3,2.1-2.4
	c0.3-0.5,0.6-1.1,0.7-1.6c0-0.1,0-0.1,0-0.2c0.1-0.3,0.2-0.5,0.6-0.6c0.1-0.1,0.2-0.1,0.3-0.2c0.1,0,0.2,0,0.2,0l0.4,0
	c0.1,0,0.1,0.1,0.1,0.2c0,0.1,0.1,0.2,0.1,0.2c0.1,0.1,0.1,0.3,0.1,0.6c-0.1,0.5-0.5,1.3-1.2,2.4c-0.4,0.6-0.7,1.1-0.9,1.4
	c-0.2,0.3-0.3,0.7-0.3,1c-0.1,0.6,0,1.2,0.4,1.7c0.1,0.1,0.2,0.3,0.2,0.4c0,0.1,0,0.3-0.1,0.5c-0.1,0.1-0.2,0.2-0.4,0.3
	c-0.2,0.1-0.3,0.1-0.5,0C375,52.6,374.8,52.5,374.7,52.3z M390.2,47.6c0,0.1,0.1,0.3,0.1,0.4c0,0.1,0.1,0.3,0.1,0.4
	c0,0,0,0.1-0.1,0.2c-0.1,0.1-0.1,0.2-0.1,0.3c0.1,0.2,0.1,0.3,0,0.5c0,0.1,0,0.2-0.1,0.4c0,0.1-0.1,0.3-0.1,0.4
	c0,0.1-0.1,0.3-0.3,0.7c-0.2,0.3-0.3,0.5-0.4,0.6c-0.1,0.1-0.1,0.3-0.2,0.4c-0.1,0.1-0.2,0.2-0.2,0.2c-0.2,0.2-0.4,0.4-0.4,0.6
	c0,0-0.1,0.1-0.1,0.1c-0.1,0-0.1,0-0.1,0.1c-0.5,0.4-0.9,0.6-1.3,0.8c-0.4,0.2-0.8,0.3-1.1,0.3c-0.3,0-0.7,0-1.3-0.2
	c-0.3-0.2-0.5-0.4-0.6-0.5c-0.1-0.1-0.1-0.2-0.2-0.3c-0.1-0.2-0.2-0.4-0.3-0.5c0-0.2,0-0.4-0.1-0.7c0,0,0-0.1,0.1-0.2
	c0-0.1,0-0.2,0-0.3c0-0.1,0-0.2,0-0.3l0.2-1.4c-0.1-0.1-0.2-0.1-0.2-0.1c-0.1,0-0.1,0-0.2,0c-0.1,0-0.2,0-0.2,0
	c-0.3,0.1-0.5,0.1-0.8,0.1c-0.3,0-0.5,0-0.5,0c-0.2,0-0.3,0.1-0.5,0.1c-0.2,0.1-0.3,0.1-0.4,0.2c-0.2,0.1-0.3,0.3-0.4,0.6
	c0,0.1-0.1,0.3-0.4,0.7c-0.3,0.6-0.4,0.9-0.4,0.9c0,0.1-0.1,0.2-0.2,0.4c-0.1,0.2-0.2,0.3-0.3,0.3c-0.2,0.1-0.3,0.1-0.5,0.1
	c0,0-0.1,0-0.2-0.1c-0.3-0.4-0.5-0.7-0.5-1c0.1-0.1,0.1-0.2,0.2-0.4l0.1-0.6c0-0.1,0.1-0.3,0.1-0.5c0.1-0.2,0.1-0.4,0.1-0.7
	c0-0.5,0.3-0.8,0.8-1c0.2-0.1,0.4-0.2,0.5-0.3c0.1-0.1,0.3-0.3,0.4-0.5l0.7-1.6l-0.1,0.2c0,0.1,0.2-0.4,0.6-1.4l0-0.1
	c0-0.1,0-0.2,0.1-0.3c0.1-0.1,0.1-0.3,0.1-0.3c0.1-0.3,0.3-0.5,0.7-0.5c0.3,0.2,0.5,0.3,0.6,0.4c0.1,0,0.2,0.2,0.4,0.6
	c0,0.1-0.1,0.2-0.1,0.4c-0.1,0.2-0.1,0.3-0.2,0.4c-0.1,0.2-0.3,0.6-0.6,1.3c-0.1,0.2-0.2,0.5-0.3,0.8c0,0,0,0.1-0.1,0.2
	c0,0.1-0.1,0.2-0.1,0.3l1.9,0l0,0c0.1,0,0.1,0.1,0.2,0.1c0.1,0.1,0.2,0.1,0.3,0.1l0.5-0.6c0.7-1,1.2-1.6,1.5-1.8
	c0.3-0.3,0.7-0.6,1.1-0.7c0.3-0.2,0.8-0.3,1.3-0.2l0.7,1c0.3,0,0.5,0,0.6,0.1c0.2,0,0.4,0.1,0.6,0.2c0.2,0.1,0.3,0.2,0.4,0.4
	c0,0.1,0,0.1,0,0.2c0,0.1,0,0.1-0.1,0.1L390.2,47.6z M388.3,46.4c-0.1,0.1-0.3,0.3-0.6,0.5c-0.3,0.2-0.5,0.4-0.7,0.6
	c-0.2,0.2-0.4,0.4-0.6,0.8c0,0.1-0.1,0.2-0.2,0.2c-0.1,0.1-0.1,0.2-0.2,0.3c-0.3,0.4-0.5,0.7-0.7,1c-0.2,0.3-0.3,0.7-0.3,1.1
	c-0.1,0.3-0.1,0.6-0.1,0.8c0,0.2,0,0.4,0,0.5c0,0.2,0.1,0.2,0.4,0.3c0.1,0,0.3,0,0.4,0c0.3-0.1,0.7-0.2,1-0.5
	c0.3-0.2,0.8-0.6,1.3-1.1c0.4-0.5,0.6-0.8,0.6-1c0.1-0.2,0.2-0.6,0.3-1.2c0-0.3,0-0.7-0.1-0.9c-0.1-0.3-0.2-0.5-0.3-0.8
	C388.5,46.7,388.4,46.5,388.3,46.4z M22.3,200.9c-0.2,0-0.5-0.1-0.7-0.3c-0.4-0.4-0.4-1,0-1.4c2.3-2.5,4.7-4.9,7-7.2
	c0.4-0.4,1-0.4,1.4,0c0.4,0.4,0.4,1,0,1.4c-2.3,2.3-4.6,4.7-6.9,7.2C22.8,200.8,22.6,200.9,22.3,200.9z M36.4,186.7
	c-0.3,0-0.5-0.1-0.7-0.3c-0.4-0.4-0.4-1,0-1.4c2.4-2.3,4.9-4.6,7.3-6.8c0.4-0.4,1-0.3,1.4,0.1c0.4,0.4,0.3,1-0.1,1.4
	c-2.4,2.2-4.9,4.5-7.3,6.8C36.9,186.6,36.6,186.7,36.4,186.7z M51.2,173.3c-0.3,0-0.6-0.1-0.8-0.3c-0.4-0.4-0.3-1.1,0.1-1.4
	c2.6-2.2,5.2-4.3,7.7-6.4c0.4-0.3,1.1-0.3,1.4,0.2c0.3,0.4,0.3,1.1-0.2,1.4c-2.5,2-5.1,4.2-7.7,6.4
	C51.6,173.2,51.4,173.3,51.2,173.3z M66.8,160.8c-0.3,0-0.6-0.1-0.8-0.4c-0.3-0.4-0.2-1.1,0.2-1.4c2.7-2,5.5-4,8.2-5.8
	c0.5-0.3,1.1-0.2,1.4,0.3c0.3,0.5,0.2,1.1-0.3,1.4c-2.7,1.8-5.4,3.8-8.1,5.8C67.2,160.7,67,160.8,66.8,160.8z M83.2,149.5
	c-0.3,0-0.7-0.2-0.8-0.5c-0.3-0.5-0.2-1.1,0.3-1.4c2.9-1.8,5.8-3.5,8.6-5.2c0.5-0.3,1.1-0.1,1.4,0.4c0.3,0.5,0.1,1.1-0.4,1.4
	c-2.8,1.6-5.7,3.3-8.5,5.1C83.6,149.4,83.4,149.5,83.2,149.5z M100.6,139.6c-0.4,0-0.7-0.2-0.9-0.5c-0.3-0.5-0.1-1.1,0.4-1.3
	c3-1.5,6-3,9.1-4.3c0.5-0.2,1.1,0,1.3,0.5c0.2,0.5,0,1.1-0.5,1.3c-3,1.3-6,2.8-9,4.3C100.9,139.6,100.7,139.6,100.6,139.6z
	 M118.8,131.4c-0.4,0-0.8-0.2-0.9-0.6c-0.2-0.5,0.1-1.1,0.6-1.3c3.1-1.2,6.3-2.3,9.5-3.4c0.5-0.2,1.1,0.1,1.3,0.6
	c0.2,0.5-0.1,1.1-0.6,1.3c-3.1,1-6.3,2.1-9.4,3.3C119.1,131.4,119,131.4,118.8,131.4z M137.8,125.3c-0.4,0-0.8-0.3-1-0.7
	c-0.1-0.5,0.2-1.1,0.7-1.2c3.2-0.8,6.5-1.6,9.8-2.3c0.5-0.1,1.1,0.2,1.2,0.8c0.1,0.5-0.2,1.1-0.8,1.2c-3.2,0.7-6.5,1.4-9.7,2.3
	C138,125.3,137.9,125.3,137.8,125.3z M157.4,121.3c-0.5,0-0.9-0.4-1-0.9c-0.1-0.5,0.3-1.1,0.8-1.1c3.3-0.5,6.6-0.9,10-1.2
	c0.6,0,1,0.4,1.1,0.9c0.1,0.6-0.4,1-0.9,1.1c-3.3,0.3-6.6,0.7-9.9,1.2C157.5,121.3,157.5,121.3,157.4,121.3z M226.3,120.3
	c-2.6,0-5.5-0.1-9.1-0.2c-0.6,0-1-0.5-1-1c0-0.6,0.5-1,1-1c3.6,0.1,6.4,0.2,9,0.2l1,0c0.5,0,1,0.4,1,1c0,0.6-0.4,1-1,1L226.3,120.3z
	 M237.3,119.9c-0.5,0-0.9-0.4-1-0.9c-0.1-0.5,0.3-1,0.9-1.1c3.6-0.4,6.8-1,9.6-1.9c0.5-0.2,1.1,0.1,1.3,0.7c0.2,0.5-0.1,1.1-0.7,1.2
	c-3,0.9-6.2,1.5-10,1.9C237.4,119.8,237.3,119.9,237.3,119.9z M207.3,119.7C207.3,119.7,207.3,119.7,207.3,119.7
	c-3.1-0.1-6.5-0.3-10-0.4c-0.6,0-1-0.5-1-1c0-0.6,0.5-1,1-1c3.5,0.1,6.9,0.2,10,0.4c0.6,0,1,0.5,1,1
	C208.3,119.3,207.9,119.7,207.3,119.7z M177.3,119.5c-0.5,0-1-0.4-1-1c0-0.6,0.4-1,1-1c3.3-0.1,6.5-0.2,10-0.2c0,0,0,0,0,0
	c0.6,0,1,0.4,1,1c0,0.6-0.4,1-1,1C183.9,119.3,180.6,119.3,177.3,119.5C177.4,119.5,177.3,119.5,177.3,119.5z M256.1,113.7
	c-0.3,0-0.6-0.2-0.8-0.4c-0.3-0.5-0.2-1.1,0.3-1.4c2.6-1.8,4.9-4,6.9-6.7c0.3-0.4,1-0.5,1.4-0.2c0.4,0.3,0.5,1,0.2,1.4
	c-2.2,2.9-4.6,5.2-7.4,7.1C256.5,113.6,256.3,113.7,256.1,113.7z M268.3,98.2c-0.1,0-0.3,0-0.4-0.1c-0.5-0.2-0.7-0.8-0.5-1.3
	c1.2-2.7,2.4-5.9,3.3-9.3c0.2-0.5,0.7-0.8,1.2-0.7c0.5,0.2,0.8,0.7,0.7,1.2c-1,3.5-2.1,6.7-3.4,9.5C269,98,268.7,98.2,268.3,98.2z
	 M273.9,79.1c-0.1,0-0.1,0-0.2,0c-0.5-0.1-0.9-0.6-0.8-1.2c0.6-3,1.1-6.3,1.5-9.8c0.1-0.5,0.6-0.9,1.1-0.9c0.5,0.1,0.9,0.6,0.9,1.1
	c-0.4,3.5-1,6.9-1.5,9.9C274.8,78.8,274.4,79.1,273.9,79.1z M6.2,229.4l21.3-5.4c0.5-0.1,0.9-0.7,0.7-1.2c-0.1-0.5-0.7-0.9-1.2-0.7
	l-21.3,5.4c-0.9,0.2-1.9,0-2.6-0.6S2,225.4,2,224.4L3.2,198c0-0.6-0.4-1-1-1c-0.5,0-1,0.4-1,1L0,224.3c-0.1,1.6,0.6,3.1,1.8,4.1
	c0.9,0.7,2,1.1,3.1,1.1C5.4,229.5,5.8,229.5,6.2,229.4z"/>
</svg>