<svg version="1.1" xmlns="http://www.w3.org/2000/svg" xmlns:xlink="http://www.w3.org/1999/xlink" viewBox="0 0 1921 662" xml:space="preserve">
<path style="fill:#000;" d="M0,658.1V478.6h105.2v15.5H16.1v63.4H92v15.5H16.1v69.2h90.1v15.5H0V658.1z M113.9,647.9c20-5.3,27.3-24.7,27.3-109.4h77.9
	v119.5h-15.6v-106h-46.2c0,80.3-10.2,103.5-39.9,107.4L113.9,647.9z M329.1,641.6l3.4,9.2c0,0-15.6,10.6-38.9,10.6
	c-31.6,0-54-22.3-54-61.5c0-40.2,25.8-64.4,52.6-64.4c34.1,0,42.4,33.9,42.4,62.9l-79.4,1.5c0,33.4,21.9,47.4,40.9,47.4
	C316.4,647.5,329.1,641.6,329.1,641.6z M255.6,589.9c4.9-1,22.4-3.4,62.8-4.4c-0.5-19.4-9.2-37.3-26.8-37.3
	C275.5,548.3,259,563.3,255.6,589.9z M370.5,603.4v54.7h-15.6V538.6h15.6v50.8h58.4v-50.8h15.6v119.5h-15.6v-54.7H370.5z
	 M555.9,622.3c0,22.3-16.1,35.8-44.3,35.8h-41.4V538.6h15.6V586h25.3C540.4,585.5,555.9,599.5,555.9,622.3z M511.6,644.5
	c21.9,0,28.7-11.1,28.7-22.7c0-11.1-6.3-23.2-28.7-23.2h-25.3v46H511.6z M588.6,658.1H573V538.6h15.6V658.1z M678.6,658.1V478.6
	h16.1l66.7,126.8l62.8-126.8h16.6v179.5h-16.6V514.9l-55,109.4h-14.6l-59.4-111.8v145.6H678.6z M955.6,587.5v70.6H943
	c0,0-1.5-9.2-2.4-18.4c-7.8,8.2-23.4,19.4-41.4,19.4c-21.9,0-36-11.6-36-30.5c0-22.3,16.1-39.2,76.4-39.7v-1.5
	c0-29.5-8.3-37.3-30.7-37.3c-16.1,0-35.1,6.8-35.1,6.8l-3.4-9.7c0,0,20-10.6,42.4-10.6C940.5,537.1,955.6,548.7,955.6,587.5z
	 M940,623.7v-22.3c-38,0.5-60.9,6.3-60.9,26.1c0,13.5,9.7,18.4,20.9,18.4C914.2,646.5,928.4,637.8,940,623.7z M968.8,647.9
	c20-5.3,27.3-24.7,27.3-109.4h77.9v119.5h-15.6v-106h-46.2c0,80.3-10.2,103.5-39.9,107.4L968.8,647.9z M1184.9,622.3
	c0,22.3-16.1,35.8-44.3,35.8h-41.4V538.6h15.6V586h25.3C1169.3,585.5,1184.9,599.5,1184.9,622.3z M1140.6,644.5
	c21.9,0,28.7-11.1,28.7-22.7c0-11.1-6.3-23.2-28.7-23.2h-25.8v46H1140.6z M1217.5,658.1h-15.6V538.6h15.6V658.1z M1243.3,658.1
	V538.6h15.6v106h45.3v-106h15.6v106h45.3v-106h15.6v106v13.5H1243.3z M1491.1,641.6l3.4,9.2c0,0-15.6,10.6-38.9,10.6
	c-31.6,0-54-22.3-54-61.5c0-40.2,25.8-64.4,52.6-64.4c34.1,0,42.3,33.9,42.3,62.9l-79.3,1.5c0,33.4,21.9,47.4,40.9,47.4
	C1478.5,647.5,1491.1,641.6,1491.1,641.6z M1417.6,589.9c4.9-1,22.4-3.4,62.8-4.4c-0.5-19.4-9.3-37.3-26.8-37.3
	C1437.6,548.3,1421,563.3,1417.6,589.9z M1516.9,538.6h43.8c20.9,0,37,9.2,37,30c0,20.8-18.5,25.6-18.5,25.6v0.5
	c0,0,26.8,2.9,26.8,29.5c0,22.7-17,33.9-37.5,33.9h-51.6V538.6z M1533,551.2v37.3h28.7c13.6,0,21.9-8.2,21.9-19.8
	c0-12.6-9.3-17.9-26.3-17.9H1533V551.2z M1533,602.5v43.1h31.2c21.9,0,27.3-9.2,27.3-21.8c0-14.5-10.7-20.8-28.7-20.8H1533V602.5z
	 M1726.7,598.1c0,41.1-26.8,62.4-54,62.4s-53.5-21.3-53.5-62.4c0-41.6,26.8-62.9,54-62.9C1700.4,535.2,1726.7,557,1726.7,598.1z
	 M1710.2,598.1c0-33.4-17.5-49.4-37-49.4c-19,0-38,15.5-38,49.4c0,33.4,16.1,48.9,37,48.9C1694.1,647.5,1710.2,631.5,1710.2,598.1z
	 M1763.3,658.1h-15.6V538.6h15.6v91.9l59.9-91.9h15.6v119.5h-15.6v-92.4L1763.3,658.1z M1826.5,497.9c0,14.5-11.2,28.5-33.6,28.5
	c-25.8,0-33.6-14.5-33.6-28.5h13.6c0,7.7,5.4,17.9,20,17.9c14.6,0,20-10.2,20-17.9H1826.5z"/>
<path style="fill:#EE7115;" d="M1471.6,308.7l1.5-1.5l2.9,4.8l-1.5,1.5c0,0-9.7,16.5,8.8,33.4c15.1,14,39.4,18.4,39.4,18.4
	s7.3,1.9,21.4,0c12.2-1.9,19.5-7.7,19.5-7.7s8.8-5.3,6.8-16.5c-2.4-11.6-22.4-21.3-22.4-21.3s-22.4-11.6-41.4-14
	c-25.3-3.4-30.7,6.8-30.7,6.8s-2.9-4.4-2.9-4.8c6.8-6.8,15.1-10.2,26.8-8.7c28.2,3.4,49.2,15,69.6,29.5
	c10.2,7.3,12.7,13.5,28.7,18.4c16.6,4.8,23.9,1.5,35.5,1.9c16.6,1,31.7,1.9,47.2,7.3c35.5,12.6,42.8,30.5,42.8,30.5s1,2.4,1,5.3
	c0,1.9-1.5,4.8-1.5,4.8l-6.8-4.8l-0.5-2.9c0,0-5.3-15-27.3-24.2c-19.5-8.7-45.3-10.6-45.3-10.6s-13.2-1.5-21.9,3.4
	c-8.3,4.8-5.8,16-5.8,16s1,12.6,14.1,23.2c11.7,9.7,31.2,14.5,31.2,14.5s20.9,6.3,37,1c22.4-7.3,19-19.8,19-19.8s7.3,3.9,6.8,4.8
	c-6.3,14-23.9,30.5-66.7,19.4c-53.1-14-45.3-46-48.7-53.2c-2.4-5.3-6.3-8.2-13.1-10.2c-6.3-1.9-11.7-3.4-16.1-1
	c-4.4,2.4-22.9,30-63.3,17.9C1453.1,351.3,1465.3,315,1471.6,308.7z"/>
<path style="fill:#F7A600;" d="M1462.4,227.9c0,0-12.2,11.1-27.3,8.7c-15.1-2.4-24.3-16-24.3-16s-1-0.5-1-1.5
	c-7.3-31.5,9.3-39.2,9.3-39.2s-11.2-25.6,6.8-57.6c20-34.8,48.2-29,48.2-29s1-41.6,44.3-62.4c51.1-24.2,82.8-6.8,82.8-6.8
	s20.9-33.9,75.9-20.3c47.2,11.6,55.5,37.3,55.5,37.3s21.9-10.6,58.9,5.8c40.4,18.4,42.3,43.5,42.3,43.5s31.2-7.3,52.1,15.5
	c22.9,25.2,5.4,52.7,5.4,52.7s21.9,8.2,25.8,31c5.4,34.8-16.1,58.1-16.1,58.1s26.3,23.7,17,63.4c-10.2,46-49.2,62.9-49.2,62.9
	s2.9-30-33.1-39.2c-7.3-1.9-21.4,50.8-21.4,50.8s-5.3,18.9-11.2,19.4c-7.3,1-12.2-14.5-12.2-14.5s-4.9-13.5-7.3-25.6
	c-1.9-8.7-3.4-24.2-3.4-24.2s7.8-16,10.2-25.6c1.9-8.2,3.4-13.1,6.3-31c0,0,18,26.6,44.8,21.3c21.9-4.4,24.3-32.9,24.3-32.9
	s-29.2,11.6-32.1-10.6c-7.3-56.6-19.5-77.9-19.5-77.9s-12.7-22.7-42.3-32.4c-25.8-8.2-51.6-8.2-51.6-8.2s-5.4-15-21.9-21.3
	c-19.5-7.3-29.7-1-29.7-1s34.6-54.7-11.2-46.5c-27.8,4.8-14.1,53.2-14.1,53.2l-18,4.4c0,0-14.1-24.7-38.5-31.5
	c-17-4.8-30.7-4.4-71.1,11.1c-13.6,5.3-16.1-1-16.1-1s-2.9-5.8,1.5-10.6c5.8-5.8,25.3-8.2,25.3-8.2s-29.2-2.9-39.9,10.2
	c-18.5,21.3,9.7,38.2,9.7,38.2s-5.8,6.8-4.9,18.4c1,8.7,9.3,18.4,9.3,18.4s-1.9,4.4-2.9,7.7c-1,3.9-1,8.7-1,8.7s-25.8,12.6-37.5,4.4
	c-11.2-7.7-4.4-27.1-4.4-27.1c-39.4,38.7-6.3,57.6,5.4,56.1C1460.9,227.9,1462.4,227.9,1462.4,227.9z"/>
<path style="fill:#EE7115;" d="M1746.2,224.5c0,0,10.2,16.5-18,46.5c-0.5,0.5-1,0-0.5,0.5c12.2,13.5,27.8,32.4,34.6,44
	c4.4,7.3-11.2,42.6,1.9,58.5c1,1-12.7,6.8-7.3,29c1.9,8.2,9.7,21.8,22.4,18.9c0.5,0,0.5,5.3-2.9,12.6c-3.4,6.8-10.2,15.5-10.2,15.5
	s19-1.9,23.4-2.4c37.5-5.8,65.7-30.5,74-49.8c20.4-48.4-19-61-25.8-62.4c-14.1-2.9-23.4,68.7-34.6,70.2
	c-14.6,2.4-22.9-63.9-22.9-64.4c5.4-6.8,13.2-29.5,16.6-56.6c0-0.5-0.5-0.5-0.5-1c-6.3-10.6-15.1-27.6-20-35.8
	C1764.7,229.9,1746.2,224.5,1746.2,224.5z M1447.8,280.7c21.4-1,25.8-22.7,25.8-22.7s12.7-9.2,19.5-15.5
	c6.8-6.8,16.5-17.9,16.5-17.9s-4.9-7.3-8.8-14.5c-2.4-4.8-3.9-16-3.9-16s-1.5,0.5-1.9,1c-55.5,22.7-39.4-23.7-39.4-23.7
	s-21.4,15-20,36.8c1.9,21.3,23.8,20.8,23.8,20.8s-0.5,1.5-1,1.9c-29.2,18.9-48.7-11.6-48.7-11.6s-12.7,16.9-1.9,33.4
	c3.9,5.8,14.6,12.1,14.6,12.1S1426.9,281.2,1447.8,280.7z M1611.4,183.9c0,0-10.2-29.5-38.5-40.6c-29.2-11.6-57,8.7-76.4-2.4
	c-0.5-0.5-0.5-1-0.5-0.5c-1.5,2.4-2.4,5.3-3.4,8.7c-3.9,13.1,1.9,22.7,8.3,29c0.5,0.5,1-1.5,1.5-1.9c7.3-9.7,29.7-24.7,55-24.2
	C1592.4,152.9,1611.4,183.9,1611.4,183.9z M1636.7,197.5c0,0,0-18.4-0.5-25.2c-0.5-3.4-2.9-16-2.9-16s9.3-6.8,12.2-9.2
	c1.9-1.5,7.8-6.8,7.8-6.8s5.3,2.4,7.3,2.4c4.4,0.5,11.2-1.5,11.2-1.5s-4.9-1.9-6.3-2.9c-1.5-1-5.4-5.3-5.4-5.3l7.8-11.1
	c0,0,9.7-5.3,28.2,0c16.1,4.8,23.9,22.3,23.9,22.3s-23.4-2.4-47.2,13.1C1649.8,171.8,1636.7,197.5,1636.7,197.5z M1540.8,206.2
	c0,0,9.7-16.9,36.5-12.6c25.3,4.4,29.7,25.6,29.7,25.6s-13.2-11.1-33.1-14.5C1553.9,201.8,1540.8,206.2,1540.8,206.2z M1646.9,245.4
	c0,0,20.4-18.4,38-16c32.6,4.4,25.8,25.6,25.8,25.6s-3.4,6.3-35.1-1C1668.3,252.6,1646.9,245.4,1646.9,245.4z"/>
<path style="fill:#E50076;" d="M1230.7,264.2l18.5,53.2h-35.5L1230.7,264.2z M1345.1,310.7c0,61.5-50.1,111.3-112,111.3
	c-61.8,0-112-49.8-112-111.3c0-61.5,50.1-111.3,112-111.3C1294.9,199.4,1345.1,249.2,1345.1,310.7z M1275.9,361l-39.4-112.7h-10.2
	l-36,112.7h10.2l10.7-34.4h41.4l12.2,34.4H1275.9z"/>
<path style="fill:#0BBBEF;" d="M999.4,199.4c-61.8,0-112,49.8-112,111.3c0,61.5,50.1,111.3,112,111.3c61.8,0,112-49.8,112-111.3
	C1111.4,249.2,1061.3,199.4,999.4,199.4z M1037.9,257.5h-34.1v103.1h-10.2V257.9h-34.1v-9.7h78.4V257.5z"/>
<path style="fill:#AFCB37;" d="M763.3,199.4c-61.8,0-112,49.8-112,111.3c0,61.5,50.1,111.3,112,111.3c61.8,0,112-49.8,112-111.3
	C875.3,249.2,825.2,199.4,763.3,199.4z M797.9,360h-66.7V247.8h66.2v9.7h-56v39.7h47.7v9.7h-47.7v43.5h56.5V360z"/>
<path style="fill:#F7A600;" d="M529.7,199.4c-61.8,0-112,49.8-112,111.3c0,61.5,50.1,111.3,112,111.3c61.8,0,112-49.8,112-111.3
	C641.6,249.2,591.5,199.4,529.7,199.4z M570.1,360.5h-10.2v-96.3l-60.4,96.3h-11.7V247.8H498v96.3l60.4-96.3h11.7V360.5z"/>
<path style="fill:#E30613;" d="M270.2,257.9h41.4v92.9H257C267.7,336.3,270.7,303.4,270.2,257.9z M406.5,310.2
	c0,61.5-50.1,111.3-112,111.3c-61.8,0-112-49.8-112-111.3s50.1-111.3,112-111.3C356.3,198.9,406.5,248.7,406.5,310.2z M333.5,350.8
	h-11.2V247.8h-61.8c0,68.2-4.9,93.4-15.6,103.1h-8.3V390h7.3l3.4-29.5h75l3.9,29.5h7.3V350.8z"/>
</svg>
