<svg version="1.1" xmlns="http://www.w3.org/2000/svg" xmlns:xlink="http://www.w3.org/1999/xlink" viewBox="0 0 24 30" xml:space="preserve">
<path style="fill:#EEF4FD;" d="M12,29.6c0,0,11.7-11.1,11.7-17.6S18.5,0.3,12,0.3S0.3,5.5,0.3,12S12,29.6,12,29.6z M12,14.9
	c1.9,0,3.5-1.6,3.5-3.5S13.9,7.9,12,7.9s-3.5,1.6-3.5,3.5S10.1,14.9,12,14.9z"/>
<path style="fill:#96ACCD;" d="M12,29.6l-0.2,0.2L12,30l0.2-0.2L12,29.6z M24,10.8c0-0.2-0.2-0.3-0.3-0.3c-0.2,0-0.3,0.2-0.3,0.3H24
	z M22.9,8.7c0,0.2,0.2,0.2,0.4,0.2c0.2,0,0.2-0.2,0.2-0.4L22.9,8.7z M22.6,6.4c-0.1-0.1-0.3-0.2-0.4-0.1S22,6.6,22.1,6.7L22.6,6.4z
	 M20.8,4.8c0.1,0.1,0.3,0.1,0.4,0s0.1-0.3,0-0.4L20.8,4.8z M19.6,2.7c-0.1-0.1-0.3-0.1-0.4,0s-0.1,0.3,0,0.4L19.6,2.7z M17.4,1.9
	c0.1,0.1,0.3,0,0.4-0.1s0-0.3-0.1-0.4L17.4,1.9z M15.5,0.5c-0.2,0-0.3,0-0.4,0.2c0,0.2,0,0.3,0.2,0.4L15.5,0.5z M13.1,0.6
	c0.2,0,0.3-0.1,0.3-0.3S13.3,0,13.1,0V0.6z M10.8,0.1c-0.2,0-0.3,0.2-0.3,0.3c0,0.2,0.2,0.3,0.3,0.3V0.1z M8.7,1.1
	c0.2,0,0.2-0.2,0.2-0.4S8.7,0.5,8.5,0.5L8.7,1.1z M6.3,1.4C6.2,1.5,6.1,1.7,6.2,1.8C6.3,2,6.5,2,6.6,1.9L6.3,1.4z M4.8,3.2
	c0.1-0.1,0.1-0.3,0-0.4c-0.1-0.1-0.3-0.1-0.4,0L4.8,3.2z M2.7,4.4c-0.1,0.1-0.1,0.3,0,0.4s0.3,0.1,0.4,0L2.7,4.4z M1.9,6.6
	c0.1-0.1,0-0.3-0.1-0.4s-0.3,0-0.4,0.1L1.9,6.6z M0.5,8.5c0,0.2,0,0.3,0.2,0.4c0.2,0,0.3,0,0.4-0.2L0.5,8.5z M0.6,10.9
	c0-0.2-0.1-0.3-0.3-0.3c-0.2,0-0.3,0.1-0.3,0.3H0.6z M0.1,13.1c0,0.2,0.2,0.3,0.3,0.2c0.2,0,0.3-0.2,0.2-0.3L0.1,13.1z M1.3,15
	c-0.1-0.2-0.2-0.2-0.4-0.2c-0.2,0.1-0.2,0.2-0.2,0.4L1.3,15z M1.6,17.2c0.1,0.1,0.3,0.2,0.4,0.1s0.2-0.3,0.1-0.4L1.6,17.2z
	 M3.2,18.8c-0.1-0.1-0.3-0.2-0.4-0.1S2.6,19,2.7,19.1L3.2,18.8z M4,20.9C4.1,21,4.2,21,4.4,21c0.1-0.1,0.2-0.3,0.1-0.4L4,20.9z
	 M5.7,22.2c-0.1-0.1-0.3-0.1-0.4,0c-0.1,0.1-0.1,0.3,0,0.4L5.7,22.2z M6.6,24.3c0.1,0.1,0.3,0.1,0.4,0c0.1-0.1,0.1-0.3,0-0.4
	L6.6,24.3z M8.5,25.5c-0.1-0.1-0.3-0.1-0.4,0c-0.1,0.1-0.1,0.3,0,0.4L8.5,25.5z M9.5,27.5c0.1,0.1,0.3,0.1,0.4,0
	c0.1-0.1,0.1-0.3,0-0.4L9.5,27.5z M11.4,28.6c-0.1-0.1-0.3-0.1-0.4,0c-0.1,0.1-0.1,0.3,0,0.4L11.4,28.6z M13,29
	c0.1-0.1,0.1-0.3,0-0.4s-0.3-0.1-0.4,0L13,29z M14.1,27.1c-0.1,0.1-0.1,0.3,0,0.4s0.3,0.1,0.4,0L14.1,27.1z M15.9,25.9
	c0.1-0.1,0.1-0.3,0-0.4s-0.3-0.1-0.4,0L15.9,25.9z M16.9,23.9c-0.1,0.1-0.1,0.3,0,0.4s0.3,0.1,0.4,0L16.9,23.9z M18.7,22.6
	c0.1-0.1,0.1-0.3,0-0.4s-0.3-0.1-0.4,0L18.7,22.6z M19.6,20.5c-0.1,0.1-0.1,0.3,0.1,0.4c0.1,0.1,0.3,0.1,0.4-0.1L19.6,20.5z
	 M21.3,19.1c0.1-0.1,0-0.3-0.1-0.4s-0.3,0-0.4,0.1L21.3,19.1z M21.8,17c-0.1,0.1,0,0.3,0.1,0.4s0.3,0,0.4-0.1L21.8,17z M23.3,15.3
	c0.1-0.2,0-0.3-0.2-0.4c-0.2-0.1-0.3,0-0.4,0.2L23.3,15.3z M23.3,13c0,0.2,0.1,0.3,0.2,0.3c0.2,0,0.3-0.1,0.3-0.2L23.3,13z M15.5,10
	c-0.1-0.1-0.2-0.2-0.4-0.2C15,9.9,14.9,10,15,10.2L15.5,10z M13.2,8.5c0.1,0.1,0.3,0,0.4-0.2c0.1-0.1,0-0.3-0.2-0.4L13.2,8.5z
	 M10.5,7.9c-0.1,0.1-0.2,0.2-0.2,0.4c0.1,0.1,0.2,0.2,0.4,0.2L10.5,7.9z M9,10.2c0.1-0.1,0-0.3-0.2-0.4s-0.3,0-0.4,0.2L9,10.2z
	 M8.5,12.9c0.1,0.1,0.2,0.2,0.4,0.2C9,13,9.1,12.9,9.1,12.7L8.5,12.9z M10.8,14.4c-0.1-0.1-0.3,0-0.4,0.2c-0.1,0.1,0,0.3,0.2,0.4
	L10.8,14.4z M13.5,14.9c0.1-0.1,0.2-0.2,0.2-0.4c-0.1-0.1-0.2-0.2-0.4-0.2L13.5,14.9z M15,12.7c-0.1,0.1,0,0.3,0.2,0.4
	c0.1,0.1,0.3,0,0.4-0.2L15,12.7z M24,12c0-0.4,0-0.8-0.1-1.2l-0.6,0.1c0,0.4,0.1,0.7,0.1,1.1C23.4,12,24,12,24,12z M23.5,8.5
	C23.3,7.8,23,7,22.6,6.4l-0.5,0.3C22.5,7.4,22.7,8,23,8.8L23.5,8.5z M21.3,4.4c-0.5-0.6-1.1-1.2-1.7-1.7l-0.4,0.5
	c0.6,0.5,1.1,1,1.6,1.6L21.3,4.4z M17.7,1.4C17,1,16.3,0.7,15.5,0.5l-0.2,0.6C16,1.3,16.7,1.6,17.4,2L17.7,1.4z M13.2,0.1
	C12.8,0,12.4,0,12,0v0.6c0.4,0,0.8,0,1.1,0.1L13.2,0.1z M12,0c-0.4,0-0.8,0-1.2,0.1l0.1,0.6c0.4,0,0.7-0.1,1.1-0.1V0z M8.5,0.5
	C7.7,0.7,7,1,6.3,1.4l0.3,0.5C7.3,1.5,7.9,1.3,8.7,1L8.5,0.5z M4.4,2.7C3.8,3.2,3.2,3.8,2.7,4.4l0.5,0.4c0.5-0.6,1-1.1,1.6-1.6
	L4.4,2.7z M1.4,6.4C1,7,0.7,7.8,0.5,8.5l0.6,0.2C1.3,8,1.6,7.3,1.9,6.6L1.4,6.4z M0,10.8c0,0.4,0,0.8,0,1.2h0.6c0-0.4,0-0.8,0.1-1.1
	L0,10.8z M0,12c0,0.4,0,0.7,0.1,1.1L0.7,13c-0.1-0.4-0.1-0.7-0.1-1H0z M0.7,15.3c0.3,0.6,0.6,1.3,0.9,2L2.2,17
	c-0.4-0.7-0.7-1.3-0.9-1.9L0.7,15.3z M2.7,19.1c0.4,0.6,0.8,1.2,1.2,1.8l0.5-0.3C4,20,3.6,19.4,3.2,18.8L2.7,19.1z M5.3,22.6
	c0.5,0.6,0.9,1.1,1.4,1.7l0.4-0.4c-0.5-0.5-0.9-1.1-1.4-1.7L5.3,22.6z M8.1,25.9c0.5,0.6,1,1.1,1.5,1.6l0.4-0.4
	c-0.4-0.5-0.9-1-1.5-1.6L8.1,25.9z M11,29c0.2,0.2,0.4,0.4,0.6,0.6c0.1,0.1,0.1,0.1,0.2,0.1l0,0l0,0l0,0l0,0l0,0l0,0l0,0
	c0,0,0,0,0.2-0.2c0.2-0.2,0.2-0.2,0.2-0.2l0,0l0,0l0,0l0,0l0,0l0,0l0,0l-0.1-0.1c-0.1-0.1-0.3-0.3-0.6-0.6L11,29z M12,29.6
	c0.2,0.2,0.2,0.2,0.2,0.2l0,0l0,0l0,0l0,0l0,0l0,0l0,0c0,0,0.1-0.1,0.2-0.1c0.1-0.1,0.3-0.3,0.6-0.6l-0.4-0.4
	c-0.2,0.2-0.4,0.4-0.6,0.6c-0.1,0.1-0.1,0.1-0.1,0.1l0,0l0,0l0,0l0,0l0,0l0,0l0,0C11.9,29.4,11.8,29.4,12,29.6z M14.5,27.5
	c0.4-0.5,0.9-1,1.5-1.6l-0.4-0.4c-0.5,0.6-1,1.1-1.5,1.6L14.5,27.5z M17.4,24.3c0.5-0.5,0.9-1.1,1.4-1.7l-0.5-0.4
	c-0.5,0.6-0.9,1.1-1.4,1.7L17.4,24.3z M20,20.9c0.4-0.6,0.8-1.2,1.2-1.8l-0.5-0.3c-0.4,0.6-0.8,1.2-1.2,1.8L20,20.9z M22.4,17.2
	c0.4-0.7,0.7-1.3,0.9-2L22.7,15c-0.2,0.6-0.5,1.3-0.9,1.9L22.4,17.2z M23.9,13.1C24,12.8,24,12.4,24,12h-0.6c0,0.3,0,0.7-0.1,1
	L23.9,13.1z M15.8,11.4c0-0.5-0.1-1-0.3-1.5L15,10.2c0.2,0.4,0.2,0.8,0.2,1.2H15.8z M13.5,7.9c-0.5-0.2-1-0.3-1.5-0.3v0.6
	c0.4,0,0.9,0.1,1.2,0.2L13.5,7.9z M12,7.6c-0.5,0-1,0.1-1.5,0.3l0.2,0.5c0.4-0.2,0.8-0.2,1.2-0.2V7.6H12z M8.5,10
	c-0.2,0.4-0.3,0.9-0.3,1.5h0.6c0-0.4,0.1-0.9,0.2-1.2L8.5,10z M8.2,11.4c0,0.5,0.1,1,0.3,1.5L9,12.7c-0.2-0.4-0.2-0.8-0.2-1.2H8.2
	V11.4z M10.5,14.9c0.4,0.2,0.9,0.3,1.5,0.3v-0.6c-0.4,0-0.9-0.1-1.2-0.2L10.5,14.9z M12,15.2c0.5,0,1-0.1,1.5-0.3l-0.2-0.5
	c-0.4,0.2-0.8,0.2-1.2,0.2L12,15.2L12,15.2z M15.5,12.9c0.2-0.4,0.3-0.9,0.3-1.5h-0.6c0,0.4-0.1,0.9-0.2,1.2L15.5,12.9z"/>
</svg>