<svg class="about-description__text-image" version="1.1" xmlns="http://www.w3.org/2000/svg" xmlns:xlink="http://www.w3.org/1999/xlink"
	 viewBox="0 0 265.3 45.8" xml:space="preserve">
<path fill="#2D2D2D" d="M1.4,40.9c-0.6,0-1,0-1.1-0.2C0.1,40.6,0,40.4,0,40.1c0-0.2,0.1-0.4,0.2-0.6c0.2-0.6,0.3-1,0.3-1.2
	c0.1-0.4,0.1-0.9,0.3-1.5c0.7-3,1.2-4.9,1.5-5.7l0.9-3.3L4,24.7c0.4-1.1,0.7-2,0.9-2.8c0,0,0-0.1,0-0.2c0-0.1,0-0.1-0.1-0.3
	c-0.1-0.1-0.1-0.3-0.1-0.4c0-0.2,0-0.4,0.1-0.5c0.2-0.1,0.3-0.2,0.6-0.1c0.5,0.1,1.4,0.1,2.5,0c0.4,0,0.7-0.1,0.8-0.1
	c0.2-0.1,1.1-0.3,2.8-0.7s3.3-0.7,4.9-1l0.3,0c0.2,0,0.3,0,0.5,0c0.2,0,0.4,0,0.5,0.1c0.3,0,0.6,0.2,0.8,0.4
	c0.3,0.2,0.4,0.5,0.3,0.8c-0.1,0.2-0.3,0.4-0.6,0.4c-0.1,0-0.4,0-0.9-0.1c0,0-0.1,0.2-0.2,0.6c-0.1,0.4-0.1,0.7-0.2,0.9
	c-0.2,0.3-0.4,1-0.7,2.2c-0.3,1.1-0.4,1.9-0.4,2.2c-0.3,0.4-0.4,1.1-0.6,1.9c-0.1,0.4-0.1,0.8-0.2,1c-0.2,0.8-0.5,2.2-0.9,4.1
	c-0.4,1.9-0.5,2.9-0.5,2.9l0,1.1c0,0.7-0.1,1.1-0.1,1.4c0,0.1,0,0.1,0,0.2c0,0.1,0,0.1-0.1,0.1c-0.1,0.1-0.4,0.2-0.8,0.3
	c-0.2,0-0.3,0-0.5,0c-0.1,0-0.2-0.1-0.3-0.1c0-0.1-0.1-0.2-0.2-0.3c-0.1-0.2-0.2-0.3-0.1-0.5c0-0.6,0.1-1.8,0.2-3.3
	c0.1-0.5,0.2-1,0.3-1.4c0.1-0.4,0.2-0.7,0.2-0.7l0.4-2.2c0.2-0.6,0.3-1.3,0.4-2c0-0.1,0-0.3,0.1-0.6c0.1-0.4,0.1-0.8,0.3-1.2
	c0.2-0.6,0.3-1.2,0.4-1.8c0.1-0.7,0.2-1.1,0.2-1.3c0-0.2,0.2-0.7,0.4-1.6c0-0.1,0.1-0.3,0.2-0.6c0.1-0.3,0.1-0.6,0.1-0.8l-2,0.4
	l-1.8,0.4l-2,0.4c-1.1,0.2-1.6,0.4-1.7,0.4c-0.3,0.1-0.5,0.2-0.5,0.4c-0.4,1-0.8,1.9-1.1,2.8c-0.3,0.9-0.5,1.7-0.6,2.3
	c-0.1,0.2-0.3,1.1-0.8,2.7c-0.3,0.9-0.4,1.4-0.4,1.4c-0.3,1.4-0.6,2.7-1,3.9c-0.1,0.2-0.2,0.4-0.2,0.6c0,0.2-0.1,0.5-0.1,0.9
	c-0.1,0.4-0.3,1.1-0.4,2c-0.1,0.3-0.1,0.5-0.1,0.6c0,0.1,0,0.3,0,0.5C1.9,40.7,1.7,40.9,1.4,40.9z M18,45.8c-0.2,0-0.3-0.1-0.4-0.2
	c-0.1-0.1-0.2-0.3-0.2-0.5c0-0.1,0-0.5,0.1-1c0.2-0.9,0.2-1.4,0.2-1.8c0-0.1,0-0.3,0-0.5c0-0.2,0-0.4,0.1-0.5
	c0.1-0.1,0.1-0.4,0.2-0.7c0.1-0.3,0.1-0.5,0.1-0.8c0-0.1,0-0.2,0.1-0.4c0.1-0.1,0.2-0.2,0.2-0.3c0-0.1,0-0.3,0.1-0.5
	c0-0.3,0.1-0.4,0.1-0.5c0.1-0.5,0.4-1.8,0.9-3.9c0.5-2.1,1-3.7,1.4-5c0.2-0.5,0.3-1,0.4-1.4c0.1-0.4,0.1-0.8,0.1-1
	c0-0.1,0-0.2,0-0.2c0.1-0.1,0.1-0.2,0.2-0.3c0.1-0.1,0.3-0.2,0.4-0.2c0.1,0,0.2,0,0.3,0.1c0.1,0.1,0.3,0.2,0.4,0.2
	c0.1,0.2,0.2,0.3,0.3,0.5c0.1,0.2,0.1,0.3,0.2,0.5c0,0.1,0,0.3,0,0.6c0,0.4,0,0.8-0.2,1.1c-0.2,0.3-0.2,0.4-0.2,0.4
	c0.9-0.5,1.7-0.7,2.4-0.8c0.8-0.1,1.5,0.2,2,0.7c0.5,0.5,0.8,1.2,0.9,2c0,0.4-0.1,0.8-0.2,1.3c-0.2,0.5-0.3,0.9-0.5,1.1
	c-0.1,0-0.3,0.2-0.4,0.7c-0.2,0.3-0.6,0.7-1.2,1.1c-0.6,0.4-1,0.5-1.2,0.5c0,0,0,0-0.1,0c0,0-0.1,0.1,0,0.2c0,0.1-0.3,0.3-1,0.5
	c-0.7,0.3-1.2,0.4-1.7,0.4c-0.2,0-0.4,0-0.5,0c-0.1,0-0.2-0.1-0.4-0.2c-0.1,0.1-0.2,0.3-0.2,0.4c0,0.2-0.1,0.6-0.2,1.2
	c-0.2,0.6-0.3,0.9-0.4,0.9c0,0,0,0.1-0.1,0.1c0,0.1,0,0.1,0.1,0.2c0,0.1,0,0.2,0,0.4c0,0.2,0,0.4-0.1,0.5c0,0.2,0,0.4,0,0.7
	c0,0.3-0.1,0.6-0.2,0.7c0,0.2,0,0.5-0.1,0.7c0,0.2-0.1,0.4-0.2,0.4c-0.1,0-0.2,0.3-0.1,0.9c0,0.5-0.1,0.9-0.2,1.2
	c-0.2,0.3-0.4,0.4-0.6,0.5L18,45.8z M21.2,35.5c0.3,0,0.9-0.2,1.8-0.6c0.9-0.4,1.5-0.7,1.9-1.1c0.4-0.4,0.7-0.8,0.9-1.2
	c0.2-0.4,0.3-0.9,0.3-1.3c0-0.3-0.1-0.6-0.3-0.8c-0.2-0.2-0.4-0.3-0.7-0.3c-0.4,0-0.9,0.2-1.4,0.5c-0.5,0.3-1,0.7-1.4,1.2
	c-0.3,0.4-0.6,0.9-0.8,1.6c-0.2,0.7-0.3,1.2-0.3,1.6C21,35.4,21.1,35.5,21.2,35.5z M32.6,37.6c-0.2,0-0.4,0-0.6-0.1
	c-0.1-0.1-0.4-0.2-0.6-0.4c-0.7-0.7-1.1-1.3-1.1-1.8c0-0.1,0-0.2,0-0.3c0.1-0.1,0.1-0.3,0-0.4c0-0.1,0-0.2,0-0.3
	c-0.1-0.1-0.1-0.1-0.1-0.1c0,0,0-0.1,0.1-0.1c0,0,0.1-0.1,0.1-0.1c0.1,0,0.2-0.1,0.1-0.3c-0.1-0.2,0-0.5,0.2-1.1
	c0.2-0.6,0.4-1.1,0.6-1.6c0.2-0.4,0.5-0.8,0.9-1.4c0.4-0.6,0.8-1,1.1-1.3c0.4-0.5,0.9-0.8,1.2-1c0.4-0.2,0.8-0.4,1.2-0.5
	c0.4-0.1,0.7-0.2,0.8-0.2c0.1,0,0.3,0,0.4,0.1c0.1,0.1,0.3,0.2,0.5,0.3c0.6,0.2,0.9,0.5,1.2,0.9c0.2,0.3,0.4,0.9,0.4,1.7
	c0.1,1.3-0.3,2.7-1.3,4.3c-0.4,0.7-0.8,1.2-1.2,1.6c-0.4,0.4-0.9,0.8-1.5,1.2c-0.4,0.3-0.8,0.6-1.1,0.7
	C33.4,37.4,33.1,37.5,32.6,37.6z M35.3,34.2c0.4-0.6,0.8-1.1,1-1.6c0.3-0.5,0.5-1.1,0.7-1.9c0.1-0.3,0.1-0.8,0.1-1.2
	c0-0.6-0.1-0.9-0.3-1c-0.2-0.1-0.4-0.1-0.6-0.1c-0.4,0-0.9,0.3-1.3,0.7c-0.5,0.5-1,1.2-1.4,2c-0.4,0.8-0.8,1.7-1.2,2.8
	c-0.2,0.4-0.2,0.8-0.2,1.2c0,0.3,0.1,0.5,0.3,0.7c0.2,0.2,0.4,0.2,0.6,0.2C33.5,36,34.3,35.4,35.3,34.2z M44.7,36.9
	C44.4,36.9,44.2,37,44,37c-0.7,0.1-1.4-0.1-1.9-0.6c-0.5-0.4-0.8-1-0.9-1.9c-0.1-0.9,0-2,0.3-3.3c0.4-1.3,0.9-2.5,1.6-3.4
	c0.5-0.6,0.9-1.1,1.2-1.5c0.3-0.4,0.6-0.6,0.9-0.8c0.4-0.2,0.9-0.3,1.4-0.4c0.4,0.1,0.7,0.2,1.1,0.4c0.4,0.2,0.6,0.4,0.6,0.6
	l0.2,0.1c0.1,0,0.2,0.1,0.4,0.4c0.1,0.3,0.2,0.6,0.2,0.9c0,0.3,0,0.5-0.1,0.7c-0.1,0.4-0.2,0.7-0.3,1c-0.2,0.3-0.3,0.4-0.5,0.5
	c-0.2,0-0.3,0.1-0.3,0.2c0,0.1,0,0.1-0.1,0.1c-0.1,0-0.2,0-0.4-0.2c-0.1-0.1-0.3-0.2-0.3-0.4c0-0.1,0-0.2,0.1-0.5
	c0.1-0.3,0.1-0.6,0.2-0.9c0-0.2,0.1-0.5,0-0.6c0-0.4-0.2-0.6-0.5-0.6c-0.2,0-0.3,0.1-0.5,0.2c-0.8,0.5-1.4,1.2-2,2.2
	c-0.6,1-1,2.4-1.3,4.1c-0.1,0.4-0.1,0.8-0.1,1.1c0,0.2,0,0.4,0.1,0.5c0,0.1,0.1,0.2,0.1,0.2c0.1,0,0.3,0,0.6,0
	c0.7-0.1,1.3-0.2,1.5-0.4c0.6-0.4,1.3-0.9,2-1.5c0.1-0.1,0.2-0.2,0.3-0.3c0.1-0.2,0.3-0.3,0.4-0.4c0.1-0.2,0.2-0.4,0.4-0.4
	c0.1-0.1,0.3-0.1,0.6-0.1c0.3,0.1,0.5,0.2,0.7,0.3c0.2,0.1,0.2,0.2,0,0.3c-0.1,0-0.1,0-0.1,0.1c0,0,0,0.1,0,0.1
	c0,0.1-0.1,0.4-0.4,0.8c-0.3,0.4-0.7,0.8-1.1,1.2c-0.4,0.4-0.7,0.6-0.9,0.6c-0.1,0-0.1,0-0.2,0c-0.1,0-0.1,0.1-0.1,0.2
	s-0.3,0.3-0.9,0.6C45.5,36.6,45,36.8,44.7,36.9z M65.9,33.1c0.1,0.1,0.1,0.1,0.1,0.3c0,0.1,0,0.3-0.1,0.4c-0.1,0.1-0.1,0.2-0.2,0.2
	c-0.4,0-0.8,0-1.1-0.2c-0.4-0.2-0.5-0.5-0.6-1l-0.1-1.9c-0.1-0.9-0.2-1.5-0.3-1.6c-0.3-0.1-0.8,0.2-1.5,1.1c-0.7,0.9-1.3,1.9-1.9,3
	c-0.2,0.4-0.4,0.7-0.5,0.9c-0.1,0.2-0.2,0.3-0.3,0.3c-0.1,0-0.2,0-0.3-0.1c-0.6-0.1-1-0.5-1-1c0-0.1,0-0.2,0-0.4
	c0.2-0.7,0.3-1.4,0.4-2.2c0.1-0.8,0.3-1.5,0.3-2.1c-0.1-0.1-0.2-0.2-0.3-0.2c-0.2,0-0.4,0.1-0.7,0.3c-0.5,0.4-1.1,1.2-1.7,2.6
	c-0.9,1.6-1.5,2.5-1.8,2.9c-0.1,0.2-0.2,0.4-0.3,0.6c-0.1,0.1-0.2,0.2-0.3,0.2c-0.1,0-0.2,0-0.5-0.1c-0.6-0.3-0.9-0.8-1-1.4
	c0-0.3,0-0.9,0.1-1.8c0.1-0.9,0.3-1.8,0.4-2.6c0.2-0.4,0.3-0.7,0.4-1.1c0.1-0.4,0.2-0.6,0.2-0.7c0.1-0.4,0.1-0.9,0.2-1.4
	s0.2-0.8,0.2-0.8c0.1-0.1,0.3-0.2,0.5-0.2c0.3,0,0.5,0.1,0.7,0.4c0.2,0.2,0.4,0.5,0.4,0.8c0,0.4,0,0.9-0.2,1.5
	c-0.3,0.8-0.6,1.9-0.9,3.3c0.4-0.5,0.7-0.9,0.8-1.1c0.4-0.7,1-1.5,1.7-2.4c0.6-0.7,1.2-1.1,2-1.2c0.9,0.1,1.5,0.8,1.7,2.2
	c0,0.2,0,0.5,0,0.9c0,0.3,0,0.6,0,0.7c0.1-0.1,0.3-0.4,0.5-0.8c0.3-0.4,0.7-0.9,1.1-1.3c0.4-0.4,0.8-0.6,1.2-0.6
	c0.3,0,0.6,0.1,0.9,0.3c0.4,0.2,0.8,0.5,1,1c0.2,0.4,0.3,0.9,0.4,1.6c0,0.3,0,0.6,0,0.8c0,0.4,0,0.7,0,0.8
	C65.7,32.4,65.8,32.7,65.9,33.1z M70.5,34.9c-0.2,0-0.4,0-0.6-0.1c-0.1-0.1-0.4-0.2-0.6-0.4c-0.7-0.7-1.1-1.3-1.1-1.8
	c0-0.1,0-0.2,0-0.3c0.1-0.1,0.1-0.3,0-0.4c0-0.1,0-0.2,0-0.3c-0.1-0.1-0.1-0.1-0.1-0.1c0,0,0-0.1,0.1-0.1c0,0,0.1-0.1,0.1-0.1
	c0.1,0,0.2-0.1,0.1-0.3c-0.1-0.2,0-0.5,0.2-1.1c0.2-0.6,0.4-1.1,0.6-1.6c0.2-0.4,0.5-0.8,0.9-1.4c0.4-0.6,0.8-1,1.1-1.3
	c0.4-0.5,0.9-0.8,1.2-1c0.4-0.2,0.8-0.4,1.2-0.5c0.4-0.1,0.7-0.2,0.8-0.2c0.1,0,0.3,0,0.4,0.1c0.1,0.1,0.3,0.2,0.5,0.3
	c0.6,0.2,0.9,0.5,1.2,0.9c0.2,0.3,0.4,0.9,0.4,1.7c0.1,1.3-0.3,2.7-1.3,4.3c-0.4,0.7-0.8,1.2-1.2,1.6c-0.4,0.4-0.9,0.8-1.5,1.2
	c-0.4,0.3-0.8,0.6-1.1,0.7C71.3,34.8,71,34.9,70.5,34.9z M73.2,31.6c0.4-0.6,0.8-1.1,1-1.6c0.3-0.5,0.5-1.1,0.7-1.9
	c0.1-0.3,0.1-0.8,0.1-1.2c0-0.6-0.1-0.9-0.3-1c-0.2-0.1-0.4-0.1-0.6-0.1c-0.4,0-0.9,0.3-1.3,0.7c-0.5,0.5-1,1.2-1.4,2
	c-0.4,0.8-0.8,1.7-1.2,2.8c-0.2,0.4-0.2,0.8-0.2,1.2c0,0.3,0.1,0.5,0.3,0.7c0.2,0.2,0.4,0.2,0.6,0.2C71.4,33.3,72.2,32.7,73.2,31.6z
	 M92.1,32.8c-0.5,0.5-1.1,0.7-1.7,0.8c-0.5,0-1-0.1-1.5-0.3c-0.5-0.2-0.8-0.5-1.2-0.9c-0.3-0.3-0.5-0.6-0.6-1
	c-0.1-0.4-0.2-0.9-0.3-1.5c0-0.2,0-0.6,0-1.2c0-0.7,0.2-1.5,0.6-2.4c0.4-0.8,0.9-1.6,1.5-2.2c0.6-0.7,1.2-1.2,1.8-1.4
	c0.3-0.2,0.6-0.3,0.8-0.4c0.1,0,0.3,0,0.4,0c0.1,0,0.3,0,0.5,0c0.4,0,0.8,0.1,1,0.2c0.2,0.1,0.5,0.2,0.6,0.4c0.5,0.5,0.8,1,0.9,1.7
	c0,0.5-0.3,1.1-0.8,1.7c-0.5,0.7-1.1,1.2-1.8,1.6c-0.4,0.1-0.8,0.2-1.2,0.3c-0.6,0-1.1-0.1-1.5-0.3C89.2,28,89.1,28,89,28
	c-0.2,0-0.3,0.1-0.4,0.4c-0.1,0.2-0.1,0.7-0.1,1.3c0,0.1,0,0.3,0,0.6c0.1,1,0.4,1.6,1.1,1.6c0.5,0.1,0.8,0.1,1,0.1
	c0.2,0,0.5-0.1,0.8-0.3l0.5-0.4c0.1-0.1,0.2-0.2,0.3-0.3c0.1-0.1,0.2-0.2,0.3-0.3c0,0,0.1-0.1,0.2-0.2c0.1-0.1,0.1-0.2,0.2-0.2
	c0.1,0,0.1-0.1,0.2-0.1c0.1,0,0.2,0,0.3,0.1c0.1,0.1,0.2,0.1,0.3,0.2c0.2,0,0.2,0.1,0.1,0.4c-0.1,0.2-0.3,0.6-0.6,0.9
	C92.8,32.2,92.5,32.5,92.1,32.8z M91.6,26.5c0.3-0.2,0.7-0.4,1-0.8c0.3-0.4,0.5-0.7,0.5-0.9c0-0.2-0.1-0.4-0.3-0.6
	C92.5,24,92.3,24,92,24c-0.2,0-0.4,0-0.5,0.1c-0.3,0.1-0.6,0.3-0.9,0.7c-0.4,0.4-0.7,0.7-0.9,1.1c-0.3,0.4-0.3,0.6-0.3,0.7
	c0.1,0.2,0.5,0.2,1.2,0.2C90.9,26.7,91.3,26.6,91.6,26.5z M108.5,25.2c0.1-0.1,0.2-0.2,0.2-0.4c0.1-0.2,0.1-0.3,0.2-0.3
	c0.2-0.3,0.3-0.6,0.4-0.7c0.1-0.2,0.3-0.2,0.4-0.2c0.6,0.2,1.1,0.6,1.3,1.2c0,0.2-0.1,0.6-0.2,1.3c0,0.2-0.1,0.5-0.2,0.9
	c-0.1,0.4-0.1,0.7-0.1,0.9c0,0.5-0.1,0.8,0,1.1c0,0.3,0.1,0.7,0.2,1c0.1,0.1,0.2,0.1,0.4,0.1c0.1,0,0.2,0,0.4-0.1
	c0.2-0.1,0.4-0.1,0.5-0.1c0.2,0.2,0.2,0.4,0.3,0.7c0,0.1,0,0.4,0,0.7c-0.4,0.3-0.8,0.4-1.1,0.4c-0.3,0-0.5-0.1-0.6-0.1
	c-0.1-0.1-0.3-0.2-0.4-0.3c-0.2-0.2-0.3-0.3-0.4-0.4c-0.5-0.4-0.9-1.2-1-2.4c-0.1,0-0.5,0.3-1,1.1c-0.7,0.9-1.2,1.6-1.6,1.9
	c-0.4,0.4-0.8,0.6-1.2,0.6c-0.2,0-0.3,0-0.4,0c-0.1-0.1-0.3-0.2-0.7-0.6c-0.2-0.2-0.4-0.4-0.6-0.6c-0.3-0.6-0.4-1-0.5-1.2
	c-0.1-0.2-0.1-0.4-0.1-0.6c0-0.2,0-0.3,0.1-0.5c-0.1,0-0.2,0-0.3,0.2c-0.1,0.1-0.2,0.3-0.3,0.5c0,0.1-0.1,0.2-0.3,0.4
	c-0.1,0.2-0.3,0.4-0.5,0.6c-0.2,0.2-0.6,0.6-1.1,1.2c-0.5,0.5-0.8,0.9-1,1.1l-1,0.1c-0.1-0.1-0.3-0.2-0.6-0.4
	c-0.3-0.2-0.5-0.5-0.7-0.7c-0.2-0.3-0.3-0.6-0.3-1.1c-0.1-0.6,0-1.3,0.2-2l0.6-1.7l0.4-1c0.5-1.6,1-2.4,1.5-2.5
	c0.2,0,0.4,0.1,0.6,0.2c0.1,0.1,0.3,0.3,0.5,0.4c0.2,0.2,0.3,0.3,0.4,0.5c-0.1,0.4-0.2,0.8-0.5,1.1c-0.4,0.5-0.8,1.1-0.9,1.9
	l-0.3,0.7c-0.2,0.5-0.3,0.9-0.4,1.1c-0.2,0.5-0.4,0.9-0.3,1.1c0,0.1,0.1,0.2,0.2,0.2c0.3,0,0.9-0.5,1.6-1.4c0.3-0.3,0.4-0.5,0.4-0.5
	c0.4-0.4,0.6-0.8,0.9-1.1c0.1-0.1,0.3-0.5,0.7-1c0.4-0.7,0.7-1.2,0.9-1.4c0.3-0.5,0.5-0.9,0.6-1.3c0.1-0.4,0.3-0.5,0.7-0.5
	c0.3,0.1,0.5,0.3,0.7,0.4c0.2,0.1,0.3,0.3,0.5,0.6c0.1,0.2,0.1,0.4,0,0.8c-0.1,0.4-0.3,0.8-0.5,1.4c-0.1,0.3-0.2,0.6-0.3,1
	c-0.1,0.4-0.1,0.6-0.1,0.7l-0.1,0.6l0,0.2c0,0.2,0.1,0.4,0.3,0.7c0.3-0.1,0.5-0.2,0.6-0.4c0.2-0.2,0.3-0.3,0.4-0.5
	c0.1-0.1,0.2-0.2,0.2-0.3c0.3-0.4,0.6-0.7,0.9-0.9c0-0.1,0.1-0.2,0.2-0.3c0.1-0.1,0.2-0.2,0.2-0.3c0.2-0.2,0.4-0.5,0.4-0.7
	L108.5,25.2z M118.6,19.8c0.1,0,0.3,0.1,0.5,0.1c0.2,0,0.4,0.1,0.6,0.3c0.1,0.1,0.2,0.2,0.3,0.3c0.2,0.1,0.3,0.3,0.4,0.5
	c0,0.2-0.1,0.4-0.2,0.6c-0.1,0.2-0.2,0.3-0.3,0.4c-0.2,0.3-0.4,0.5-0.5,0.7c-0.1,0.2-0.2,0.4-0.3,0.5c-0.1,0.2-0.3,0.4-0.4,0.7
	c0.3,0.1,0.6,0.2,0.7,0.2c0.2,0,0.5,0,0.8,0.1c0.3,0.1,0.5,0.2,0.7,0.2c0.3,0.1,0.7,0.4,1.2,0.8c0.5,0.4,0.8,0.7,0.9,1
	c0.3,0.4,0.4,0.8,0.4,1c0,0.1,0,0.2,0,0.2c0,0.2-0.1,0.4-0.1,0.6c-0.1,0.1-0.2,0.3-0.4,0.6c-0.2,0.3-0.3,0.5-0.5,0.7
	c-0.2,0.2-0.4,0.4-0.7,0.6c-1.3,0.9-2.6,1.4-3.8,1.4c-0.1,0-0.2,0-0.3,0.1c-0.1,0-0.2,0-0.3,0c-0.4,0-0.7,0-1-0.2
	c-0.3-0.2-0.6-0.4-0.9-0.8c-0.2-0.3-0.3-0.6-0.4-1c0-0.5,0-1.2,0.2-2c0.2-0.8,0.4-1.5,0.7-2.1c0-0.2,0.1-0.4,0.2-0.7
	c0.1-0.3,0.2-0.5,0.3-0.6c0.1-0.3,0.3-0.8,0.6-1.5c0.4-0.8,0.7-1.3,0.9-1.6c0-0.2,0.1-0.5,0.3-0.7C118.5,20.1,118.6,19.9,118.6,19.8
	z M118.6,25.5c-0.1,0-0.2,0.1-0.3,0.1c-0.1,0-0.2,0.1-0.3,0.2c-0.1,0.1-0.1,0.2-0.1,0.4c0,0,0,0.1-0.1,0.2c-0.1,0.1-0.3,0.7-0.5,1.9
	l-0.2,0.8c0,0,0,0.1,0,0.2l0.1,0.4l0.3,0c0.2,0,0.5-0.1,0.8-0.2c0.3-0.1,0.6-0.2,0.7-0.2c0.5-0.1,1-0.4,1.6-0.9c0.5-0.5,0.9-1,1-1.4
	c0-0.1,0-0.2,0-0.3c0-0.3-0.1-0.5-0.3-0.6c-0.1,0-0.2-0.1-0.4-0.2c-0.2-0.1-0.3-0.2-0.5-0.2c-0.2,0-0.3-0.1-0.5-0.1l-0.1,0
	c0,0-0.2,0-0.3-0.1c-0.1,0-0.3,0-0.5,0C118.8,25.4,118.7,25.5,118.6,25.5z M139.3,28c0.1,0.1,0.1,0.1,0.1,0.3c0,0.1,0,0.3-0.1,0.4
	c-0.1,0.1-0.1,0.2-0.2,0.2c-0.4,0-0.8,0-1.1-0.2c-0.4-0.2-0.5-0.5-0.6-1l-0.1-1.9c-0.1-0.9-0.2-1.5-0.3-1.6
	c-0.3-0.1-0.8,0.2-1.5,1.1c-0.7,0.9-1.3,1.9-1.9,3c-0.2,0.4-0.4,0.7-0.5,0.9c-0.1,0.2-0.2,0.3-0.3,0.3c-0.1,0-0.2,0-0.3-0.1
	c-0.6-0.1-1-0.5-1-1c0-0.1,0-0.2,0-0.4c0.2-0.7,0.3-1.4,0.4-2.2c0.1-0.8,0.3-1.5,0.3-2.1c-0.1-0.1-0.2-0.2-0.3-0.2
	c-0.2,0-0.4,0.1-0.7,0.3c-0.5,0.4-1.1,1.2-1.7,2.6c-0.9,1.6-1.5,2.5-1.8,2.9c-0.1,0.2-0.2,0.4-0.3,0.6c-0.1,0.1-0.2,0.2-0.3,0.2
	c-0.1,0-0.2,0-0.5-0.1c-0.6-0.3-0.9-0.8-1-1.4c0-0.3,0-0.9,0.1-1.8c0.1-0.9,0.3-1.8,0.4-2.6c0.2-0.4,0.3-0.7,0.4-1.1
	c0.1-0.4,0.2-0.6,0.2-0.7c0.1-0.4,0.1-0.9,0.2-1.4c0.1-0.5,0.2-0.8,0.2-0.8c0.1-0.1,0.3-0.2,0.5-0.2c0.3,0,0.5,0.1,0.7,0.4
	c0.2,0.2,0.4,0.5,0.4,0.8c0,0.4,0,0.9-0.2,1.5c-0.3,0.8-0.6,1.9-0.9,3.3c0.4-0.5,0.7-0.9,0.8-1.1c0.4-0.7,1-1.5,1.7-2.4
	c0.6-0.7,1.2-1.1,2-1.2c0.9,0.1,1.5,0.8,1.7,2.2c0,0.2,0,0.5,0,0.9c0,0.3,0,0.6,0,0.7c0.1-0.1,0.3-0.4,0.5-0.8
	c0.3-0.4,0.7-0.9,1.1-1.3c0.4-0.4,0.8-0.6,1.2-0.6c0.3,0,0.6,0.1,0.9,0.3c0.4,0.2,0.8,0.5,1,1c0.2,0.4,0.3,0.9,0.4,1.6
	c0,0.3,0,0.6,0,0.8c0,0.4,0,0.7,0,0.8C139,27.2,139.1,27.6,139.3,28z M146.4,29c-0.5,0.5-1.1,0.7-1.8,0.8c-0.5,0-1-0.1-1.5-0.3
	c-0.5-0.2-0.8-0.5-1.2-0.9c-0.3-0.3-0.5-0.6-0.6-1c-0.1-0.4-0.2-0.9-0.3-1.5c0-0.2,0-0.6,0-1.2c0-0.7,0.2-1.5,0.6-2.4
	c0.4-0.8,0.9-1.6,1.5-2.2c0.6-0.7,1.2-1.2,1.8-1.4c0.3-0.2,0.6-0.3,0.8-0.4c0.1,0,0.3,0,0.4,0c0.1,0,0.3,0,0.5,0
	c0.4,0,0.8,0.1,1,0.2c0.2,0.1,0.5,0.2,0.6,0.4c0.5,0.5,0.8,1,0.9,1.7c0,0.5-0.3,1.1-0.8,1.7c-0.5,0.7-1.1,1.2-1.8,1.6
	c-0.3,0.1-0.8,0.2-1.2,0.3c-0.6,0-1.1-0.1-1.5-0.3c-0.2,0-0.3-0.1-0.4-0.1c-0.2,0-0.3,0.1-0.4,0.4c-0.1,0.2-0.1,0.7-0.1,1.3
	c0,0.1,0,0.3,0,0.6c0.1,1,0.4,1.6,1.1,1.6c0.5,0.1,0.8,0.1,1,0.1c0.2,0,0.5-0.1,0.8-0.3l0.5-0.4c0.1-0.1,0.2-0.2,0.3-0.3
	c0.1-0.1,0.2-0.2,0.3-0.3c0,0,0.1-0.1,0.2-0.2c0.1-0.1,0.1-0.2,0.2-0.2c0.1,0,0.1-0.1,0.2-0.1c0.1,0,0.2,0,0.3,0.1
	c0.1,0.1,0.2,0.1,0.3,0.2c0.2,0,0.2,0.1,0.1,0.4c-0.1,0.2-0.3,0.6-0.6,0.9C147.2,28.4,146.8,28.7,146.4,29z M146,22.7
	c0.3-0.2,0.7-0.4,1-0.8c0.3-0.4,0.5-0.7,0.5-0.9c0-0.2-0.1-0.4-0.3-0.6c-0.2-0.1-0.4-0.2-0.8-0.2c-0.2,0-0.4,0-0.5,0.1
	c-0.3,0.1-0.6,0.3-0.9,0.7c-0.4,0.4-0.7,0.7-0.9,1.1c-0.3,0.4-0.3,0.6-0.3,0.7c0.1,0.2,0.5,0.2,1.2,0.2
	C145.3,22.9,145.7,22.8,146,22.7z M166,28.7c-0.5-0.4-0.9-1.1-1.2-2c0-0.1-0.1-0.3-0.1-0.6c0-0.3,0-0.5,0-0.6
	c-0.1,0.3-0.3,0.6-0.6,0.9c-0.4,0.5-0.9,0.9-1.3,1.1c-0.7,0.5-1.2,0.8-1.7,0.8c-0.4,0-0.8-0.2-1.2-0.6c-0.3-0.2-0.5-0.4-0.6-0.6
	c-0.1-0.2-0.2-0.5-0.2-0.8c0-0.2,0-0.5,0-0.7c0-0.7,0-1.5,0.2-2.1c0.1-0.7,0.4-1.6,0.8-2.7c0.6-1.3,1-2.2,1.2-2.6
	c0.1,0,0.2-0.1,0.4-0.1c0.2,0,0.4,0,0.5,0.1c0.1,0.1,0.2,0.3,0.3,0.5c0.1,0.1,0.1,0.2,0.1,0.3c0,0.5-0.2,1.3-0.7,2.5
	c-0.6,1.9-0.9,3.3-0.9,4c0,0.4,0.2,0.7,0.4,0.7c0.1,0.1,0.2,0.1,0.3,0.1c0.5,0,1.1-0.4,1.7-1.1c0.7-0.7,1.2-1.9,1.8-3.4
	c0.2-0.7,0.4-1.4,0.4-2.1c0-0.1,0-0.1,0-0.3c0-0.4,0.1-0.7,0.5-0.9c0.1-0.1,0.2-0.2,0.3-0.3c0.1-0.1,0.2-0.1,0.3,0l0.5-0.1
	c0.1,0,0.1,0,0.2,0.2c0.1,0.1,0.1,0.2,0.2,0.2c0.1,0.1,0.2,0.3,0.3,0.6c0,0.7-0.2,1.7-0.7,3.1c-0.3,0.8-0.5,1.5-0.6,1.9
	c-0.1,0.4-0.1,0.8-0.1,1.2c0.1,0.8,0.4,1.4,1,1.8c0.2,0.1,0.3,0.3,0.4,0.4c0.1,0.2,0.1,0.4,0.1,0.7c0,0.2-0.1,0.3-0.3,0.5
	c-0.2,0.1-0.4,0.2-0.6,0.2C166.4,28.8,166.2,28.8,166,28.7z M186.4,27.2c-0.3,0-0.5,0-0.6-0.1c-0.1,0-0.3,0-0.5-0.1
	c-0.2,0-0.3-0.1-0.5-0.2c-0.4-0.2-1.1-0.5-1.9-1.2s-1.3-1.1-1.3-1.3c0-0.1,0-0.1,0-0.1c0,0-0.1,0-0.1,0c0,0-0.1-0.1-0.1-0.1
	c0-0.1-0.1-0.1-0.1-0.2c0-0.1,0-0.1-0.1-0.2c-0.1-0.1-0.1-0.1-0.2-0.1c-0.1,0.1-0.3,0.3-0.6,0.6c-0.3,0.3-0.6,0.6-0.9,1
	c-0.6,0.7-1,1.1-1.2,1.4c-0.2,0.2-0.4,0.3-0.5,0.3c-0.2,0-0.5-0.1-0.9-0.3c-0.3-0.2-0.5-0.5-0.5-0.7c0.1-0.1,0.3-0.4,0.7-0.9
	c0.4-0.5,0.8-0.9,1.2-1.3l1.8-2l-0.4-1.1c-0.4-0.8-0.7-1.4-0.9-1.8c-0.1-0.2-0.2-0.3-0.3-0.4c-0.1-0.1-0.1-0.2-0.1-0.3
	c0-0.1,0.1-0.2,0.2-0.5c0.2-0.2,0.4-0.4,0.5-0.4c0.1,0,0.2,0,0.4,0.2c0.2,0,0.4,0.3,0.8,1c0.4,0.6,0.6,1.1,0.6,1.3
	c0,0.3,0.1,0.4,0.3,0.4c0.2,0,0.6-0.2,1.1-0.7c0.2-0.2,0.4-0.4,0.5-0.5c0.1-0.1,0.2-0.2,0.3-0.3c0.2-0.2,0.6-0.5,1.1-0.9
	c0.5-0.4,0.8-0.6,0.9-0.7c0.1-0.1,0.2-0.1,0.2-0.1c0.2,0,0.5,0.1,0.7,0.3c0.2,0.2,0.4,0.5,0.4,0.8c0,0.2,0,0.4-0.1,0.6
	c-0.1,0.1-0.4,0.3-0.7,0.6c-0.1,0.1-0.4,0.3-0.9,0.8c-0.5,0.4-1.1,1-1.8,1.7l-0.7,0.7l0.5,0.8c0.4,0.6,0.6,1,0.9,1.1
	c0.2,0.2,0.6,0.5,1.2,1c0.7,0.4,1,0.6,1.1,0.6c0.1,0,0.2,0,0.3,0.1c0.1,0.1,0.3,0.1,0.4,0.2c0.3,0.2,0.4,0.5,0.4,0.8
	C186.8,27,186.7,27.2,186.4,27.2z M196,15.5c0.3,0.3,0.5,0.6,0.5,1c0,0.4-0.2,1-0.6,1.9c-0.1,0.5-0.3,0.9-0.4,1.3
	c-0.2,0.4-0.3,0.7-0.4,0.8l-0.6,1.6c-0.3,0.7-0.6,1.5-0.9,2.4c-0.5,1.2-0.8,2-1,2.6l-0.3,0.7c-0.9,1.7-1.6,2.8-2.1,3.5
	c-1,1.1-1.8,1.7-2.4,1.9c-0.3,0.1-0.6,0.2-0.9,0.2c-0.7,0-1.3-0.1-1.9-0.3c-0.6-0.2-1-0.5-1.1-0.9c0-0.1,0-0.3,0.1-0.5
	c0.1-0.2,0.2-0.3,0.4-0.3c0.1,0,0.2,0,0.2,0.1c0.2,0.1,0.4,0.2,0.7,0.3c0.3,0.1,0.7,0.1,1,0.1c0.1,0,0.3,0,0.6-0.1
	c0.4-0.1,0.8-0.4,1.2-0.8c0.4-0.4,0.8-0.9,1.1-1.4c0.6-1,1.2-2.3,1.9-3.9c-0.3-0.1-0.6-0.2-0.8-0.5c-0.3-0.3-0.5-0.6-0.7-0.9
	c-0.2-0.3-0.2-0.6-0.2-0.7l0-0.3c-0.2,0-0.4-0.3-0.5-1c-0.1-0.7-0.3-1.5-0.3-2.4c0-0.3,0-0.8,0-1.3c0.1-0.3,0.1-0.7,0-1.2
	c0-0.5,0-0.8,0-0.9l0-0.1c0-0.2,0-0.4,0-0.5c0.1-0.1,0.1-0.2,0.3-0.3c0.2-0.1,0.3-0.1,0.5-0.2c0.6,0,0.9,0.7,1,2.2
	c0,0.2,0,0.6,0,1.3c0,0.3,0,0.7,0.1,1.3c0.1,1,0.2,1.9,0.5,2.7c0.2,0.8,0.5,1.3,0.9,1.6l0.2-0.4c0.2-0.6,0.3-1,0.4-1.1
	c0.2-0.6,0.4-1,0.4-1.1c0-0.1,0.1-0.4,0.3-0.7l0.3-0.8c0-0.1,0.1-0.5,0.3-1.2c0.2-0.7,0.4-1.2,0.5-1.6c0.1-0.2,0.2-0.4,0.3-0.7
	c0.1-0.3,0.3-0.6,0.3-0.7c0.1-0.1,0.2-0.2,0.3-0.3c0.2-0.2,0.3-0.2,0.4-0.2C195.6,15.4,195.8,15.4,196,15.5z M201.4,7
	c0.4-0.1,0.7-0.2,0.9-0.2c0.3,0,0.6,0,0.9,0.2c1,0.2,1.8,0.7,2.4,1.2c0.6,0.6,1,1.2,1.3,2c0.3,0.8,0.5,1.8,0.6,3.1
	c0,0.2,0.1,0.4,0.1,0.7c0,0.3,0,0.7,0,1.4c-0.1,0.2-0.2,0.4-0.2,0.6c0,0.2,0,0.4,0,0.4c0,0.4,0,0.7-0.1,0.9c0,0.3-0.1,0.5-0.2,0.9
	c-0.1,0.3-0.2,0.5-0.2,0.6c-0.5,1.7-1.2,3.2-2.2,4.6s-2.1,2.3-3.4,2.6c-0.1,0-0.4,0-0.8-0.2c-0.4-0.2-0.8-0.4-1-0.6
	c-0.2-0.2-0.4-0.4-0.5-0.6c-0.1-0.2-0.2-0.4-0.2-0.7c-0.1-0.3-0.2-0.5-0.3-0.8c0-0.3-0.1-0.7-0.1-1.1c0-0.4,0-0.8,0.2-1.2
	c0.1-0.4,0.3-0.9,0.6-1.5c0.1-0.5,0.5-1.1,1.1-1.9c0.6-0.8,1.2-1.4,1.9-1.8c0.5-0.3,1-0.5,1.4-0.5c0.2,0,0.5,0,0.7,0.1
	c0.2,0,0.4,0.1,0.6,0.3c0.1,0.1,0.2,0.2,0.3,0.2c0.1-0.2,0.3-0.5,0.3-1.1c0.1-0.6,0.1-1.2,0.1-1.9c-0.1-1.2-0.4-2.1-0.8-2.6
	c-0.7-0.9-1.5-1.3-2.4-1.2c-0.3,0-0.8,0.2-1.2,0.4c-0.3-0.1-0.5-0.3-0.7-0.6c-0.2-0.3-0.3-0.5-0.2-0.8C200.6,7.4,201,7.1,201.4,7z
	 M205,16.8c-0.2-0.1-0.4-0.2-0.6-0.2c-0.5,0-1.1,0.3-1.8,0.9c-0.2,0.2-0.4,0.5-0.7,0.8c-0.2,0.3-0.3,0.5-0.4,0.6
	c-0.2,0.3-0.3,0.6-0.4,0.7l0,0.1c0,0.1,0,0.3-0.2,0.4c-0.1,0.1-0.2,0.2-0.2,0.3c-0.2,0.4-0.3,0.9-0.4,1.3c-0.1,0.4-0.1,0.7-0.1,0.9
	c0,0.4,0.1,0.7,0.2,1c0.1,0.3,0.3,0.5,0.5,0.6c0.3,0.1,0.8-0.2,1.4-0.8c0.7-0.6,1.2-1.3,1.6-2c0.1-0.2,0.3-0.5,0.5-1.1
	c0.2-0.5,0.4-0.9,0.5-1.2c0.2-0.6,0.3-1.2,0.2-1.6C205.2,17.2,205.2,16.9,205,16.8z M214.5,24.3c-0.5,0.5-1.1,0.7-1.7,0.8
	c-0.5,0-1-0.1-1.5-0.3c-0.5-0.2-0.8-0.5-1.2-0.9c-0.3-0.3-0.5-0.6-0.6-1c-0.1-0.4-0.2-0.9-0.3-1.5c0-0.2,0-0.6,0-1.2
	c0-0.7,0.2-1.5,0.6-2.4c0.4-0.8,0.9-1.6,1.5-2.2c0.6-0.7,1.2-1.2,1.8-1.4c0.3-0.2,0.6-0.3,0.8-0.4c0.1,0,0.3,0,0.4,0
	c0.1,0,0.3,0,0.5,0c0.4,0,0.8,0.1,1,0.2c0.2,0.1,0.5,0.2,0.6,0.4c0.5,0.5,0.8,1,0.9,1.7c0,0.5-0.3,1.1-0.8,1.7
	c-0.5,0.7-1.1,1.2-1.8,1.6c-0.4,0.1-0.8,0.2-1.2,0.3c-0.6,0-1.1-0.1-1.5-0.3c-0.2,0-0.3-0.1-0.4-0.1c-0.2,0-0.3,0.1-0.4,0.4
	c-0.1,0.2-0.1,0.7-0.1,1.3c0,0.1,0,0.3,0,0.6c0.1,1,0.4,1.6,1.1,1.6c0.5,0.1,0.8,0.1,1,0.1c0.2,0,0.5-0.1,0.8-0.3l0.5-0.4
	c0.1-0.1,0.2-0.2,0.3-0.3c0.1-0.1,0.2-0.2,0.3-0.3c0,0,0.1-0.1,0.2-0.2c0.1-0.1,0.1-0.2,0.2-0.2c0.1,0,0.1-0.1,0.2-0.1
	c0.1,0,0.2,0,0.3,0.1c0.1,0.1,0.2,0.1,0.3,0.2c0.2,0,0.2,0.1,0.1,0.4c-0.1,0.2-0.3,0.6-0.6,0.9C215.3,23.7,214.9,24,214.5,24.3z
	 M214.1,17.9c0.3-0.2,0.7-0.4,1-0.8c0.3-0.4,0.5-0.7,0.5-0.9c0-0.2-0.1-0.4-0.3-0.6c-0.2-0.1-0.4-0.2-0.8-0.2c-0.2,0-0.4,0-0.5,0.1
	c-0.3,0.1-0.6,0.3-0.9,0.7c-0.4,0.4-0.7,0.7-0.9,1.1c-0.3,0.4-0.3,0.6-0.3,0.7c0.1,0.2,0.5,0.2,1.2,0.2
	C213.4,18.2,213.8,18.1,214.1,17.9z M226.4,24.4c-0.1,0.1-0.3,0.1-0.6-0.1c-0.2-0.1-0.5-0.3-0.7-0.6c-0.2-0.2-0.3-0.5-0.4-0.8
	c0-0.3-0.1-0.9-0.2-1.7c0-0.2-0.1-0.3-0.1-0.3c-0.1,0-0.2,0.1-0.4,0.3c-0.2,0.2-0.5,0.5-0.8,0.8c-0.5,0.5-0.9,1-1.4,1.3
	c-0.4,0.3-0.8,0.5-1.1,0.5c-0.2,0-0.5-0.1-0.8-0.4c-0.3-0.3-0.5-0.6-0.6-1c-0.1-0.2-0.1-0.5-0.1-0.8c-0.1-0.8,0-1.9,0.3-3.1
	c0.3-1.2,0.6-2.3,1-3.2c0.4-0.9,0.8-1.4,1.2-1.4c0.3,0,0.6,0.3,0.9,0.9c0.1,0.1,0.1,0.2,0.1,0.3c0,0.1-0.1,0.3-0.2,0.4
	c-0.3,0.4-0.6,1.1-0.9,2.1c-0.3,1-0.6,1.9-0.8,2.8c-0.2,0.9-0.2,1.3,0,1.3c0.3,0,0.6-0.2,1-0.4c0.4-0.2,0.7-0.6,1.1-0.9
	c0.4-0.4,0.7-0.8,0.9-1.3c0.3-0.5,0.6-1.1,1-1.8c0.7-1.4,1.1-2.2,1.2-2.4c0.3-0.6,0.4-1,0.6-1.1c0.1-0.2,0.3-0.3,0.5-0.4l0.4,0
	c0.1,0,0.3,0.1,0.4,0.2c0.1,0.1,0.2,0.1,0.3,0.2c0,0.1,0.1,0.1,0.1,0.3l-0.4,1.1l-0.2,0.6c0,0.1-0.1,0.3-0.3,0.7
	c-0.4,1-0.7,1.9-0.9,2.5c-0.2,0.6-0.3,1.3-0.4,2c0,0.1,0,0.3,0,0.5c0,0.6,0.1,1,0.3,1.2c0.2,0.3,0.4,0.6,0.6,0.7
	c0.1,0.1,0.2,0.1,0.2,0.2c0,0.1-0.1,0.3-0.3,0.4C226.7,24.3,226.5,24.4,226.4,24.4z M225.2,11.1c-1.1,0.1-1.9-0.7-2.5-2.3
	c-0.1-0.2-0.1-0.3-0.1-0.3c0-0.1,0-0.3,0.1-0.5c0-0.1,0.1-0.1,0.2-0.2c0.1,0,0.2-0.1,0.3-0.1c0.3,0.1,0.5,0.2,0.6,0.3
	c0.1,0.1,0.3,0.3,0.3,0.5c0.1,0.1,0.1,0.3,0.1,0.4c0.2,0.5,0.4,0.7,0.7,0.7c0.1,0,0.2-0.1,0.4-0.2c0.8-0.4,1.4-0.8,1.8-1.3
	c0,0,0.4-0.4,1.2-1.3l0,0c0.1,0,0.1-0.1,0.2-0.1c0.1,0,0.2,0,0.3,0.1c0.1,0.1,0.2,0.2,0.2,0.3c0,0.1,0,0.2,0.1,0.3
	c0,0.1,0,0.2,0,0.2l0,0.1c0,0.1,0,0.4-0.2,0.7c-0.2,0.4-0.5,0.7-0.8,0.9c-0.4,0.3-1,0.7-1.8,1.2c-0.1,0.1-0.3,0.2-0.5,0.2
	C225.7,11.1,225.5,11.1,225.2,11.1z M245.9,20.5c0.1,0.1,0.1,0.1,0.1,0.3c0,0.1,0,0.3-0.1,0.4c-0.1,0.1-0.1,0.2-0.2,0.2
	c-0.4,0-0.8,0-1.1-0.2c-0.4-0.2-0.5-0.5-0.6-1l-0.1-1.9c-0.1-0.9-0.2-1.5-0.3-1.6c-0.3-0.1-0.8,0.2-1.5,1.1c-0.7,0.9-1.3,1.9-1.9,3
	c-0.2,0.4-0.4,0.7-0.5,0.9c-0.1,0.2-0.2,0.3-0.3,0.3c-0.1,0-0.2,0-0.3-0.1c-0.6-0.1-1-0.5-1-1c0-0.1,0-0.2,0-0.4
	c0.2-0.7,0.3-1.4,0.4-2.2c0.1-0.8,0.3-1.5,0.3-2.1c-0.1-0.1-0.2-0.2-0.3-0.2c-0.2,0-0.4,0.1-0.7,0.3c-0.5,0.4-1.1,1.2-1.7,2.6
	c-0.9,1.6-1.5,2.5-1.8,2.9c-0.1,0.2-0.2,0.4-0.3,0.6c-0.1,0.1-0.2,0.2-0.3,0.2c-0.1,0-0.2,0-0.5-0.1c-0.6-0.3-0.9-0.8-1-1.4
	c0-0.3,0-0.9,0.1-1.8c0.1-0.9,0.3-1.8,0.4-2.6c0.2-0.4,0.3-0.7,0.4-1.1c0.1-0.4,0.2-0.6,0.2-0.7c0.1-0.4,0.1-0.9,0.2-1.4
	s0.2-0.8,0.2-0.8c0.1-0.1,0.3-0.2,0.5-0.2c0.3,0,0.5,0.1,0.7,0.4c0.2,0.2,0.4,0.5,0.4,0.8c0,0.4,0,0.9-0.2,1.5
	c-0.3,0.8-0.6,1.9-0.9,3.3c0.4-0.5,0.7-0.9,0.8-1.1c0.4-0.7,1-1.5,1.7-2.4c0.6-0.7,1.2-1.1,2-1.2c0.9,0.1,1.5,0.8,1.7,2.2
	c0,0.2,0,0.5,0,0.9c0,0.3,0,0.6,0,0.7c0.1-0.1,0.3-0.4,0.5-0.8c0.3-0.4,0.7-0.9,1.1-1.3c0.4-0.4,0.8-0.6,1.2-0.6
	c0.3,0,0.6,0.1,0.9,0.3c0.4,0.2,0.8,0.5,1,1c0.2,0.4,0.3,0.9,0.4,1.6c0,0.3,0,0.6,0,0.8c0,0.4,0,0.7,0,0.8
	C245.6,19.8,245.7,20.1,245.9,20.5z M253.1,21.6c-0.5,0.5-1.1,0.7-1.7,0.8c-0.5,0-1-0.1-1.5-0.3c-0.5-0.2-0.8-0.5-1.2-0.9
	c-0.3-0.3-0.5-0.6-0.6-1c-0.1-0.4-0.2-0.9-0.3-1.5c0-0.2,0-0.6,0-1.2c0-0.7,0.2-1.5,0.6-2.4c0.4-0.8,0.9-1.6,1.5-2.2
	c0.6-0.7,1.2-1.2,1.8-1.4c0.3-0.2,0.6-0.3,0.8-0.4c0.1,0,0.3,0,0.4,0c0.1,0,0.3,0,0.5,0c0.4,0,0.8,0.1,1,0.2
	c0.2,0.1,0.5,0.2,0.6,0.4c0.5,0.5,0.8,1,0.9,1.7c0,0.5-0.3,1.1-0.8,1.7c-0.5,0.7-1.1,1.2-1.8,1.6c-0.4,0.1-0.8,0.2-1.2,0.3
	c-0.6,0-1.1-0.1-1.5-0.3c-0.2,0-0.3-0.1-0.4-0.1c-0.2,0-0.3,0.1-0.4,0.4c-0.1,0.2-0.1,0.7-0.1,1.3c0,0.1,0,0.3,0,0.6
	c0.1,1,0.4,1.6,1.1,1.6c0.5,0.1,0.8,0.1,1,0.1c0.2,0,0.5-0.1,0.8-0.3l0.5-0.4c0.1-0.1,0.2-0.2,0.3-0.3c0.1-0.1,0.2-0.2,0.3-0.3
	c0,0,0.1-0.1,0.2-0.2c0.1-0.1,0.1-0.2,0.2-0.2c0.1,0,0.1-0.1,0.2-0.1c0.1,0,0.2,0,0.3,0.1c0.1,0.1,0.2,0.1,0.3,0.2
	c0.2,0,0.2,0.1,0.1,0.4c-0.1,0.2-0.3,0.6-0.6,0.9C253.8,21,253.5,21.3,253.1,21.6z M252.6,15.2c0.3-0.2,0.7-0.4,1-0.8
	c0.3-0.4,0.5-0.7,0.5-0.9s-0.1-0.4-0.3-0.6c-0.2-0.1-0.4-0.2-0.8-0.2c-0.2,0-0.4,0-0.5,0.1c-0.3,0.1-0.6,0.3-0.9,0.7
	c-0.4,0.4-0.7,0.7-0.9,1.1c-0.3,0.4-0.3,0.6-0.3,0.7c0.1,0.2,0.5,0.2,1.2,0.2C251.9,15.5,252.3,15.4,252.6,15.2z M260.4,17
	c-0.4,0.1-0.7,0-0.9-0.3c-0.2-0.3-0.4-0.7-0.4-1.3c0-0.5,0-1.1,0.1-1.8c0.2-0.6,0.4-1,0.3-1.3c0.1-0.3,0.2-0.8,0.4-1.3
	c0.2-0.6,0.3-1,0.5-1.3c0.1,0,0.2-0.1,0.2-0.2c0.1-0.1,0.1-0.3,0.1-0.4c0-0.2,0-0.4,0.1-0.5c0.1-0.2,0.1-0.4,0.2-0.4
	c0-0.1,0-0.2,0.1-0.3c0.1-0.2,0.1-0.3,0.1-0.3c0,0,0-0.1,0-0.2c0.1-0.1,0.1-0.2,0.1-0.2c0.3-0.6,0.8-1.8,1.3-3.5
	c0.6-1.7,0.8-2.7,0.8-2.9c0-0.3,0.2-0.5,0.5-0.5c0.1-0.1,0.3-0.1,0.5-0.2l0.5,0.4c0.1,0.1,0.2,0.3,0.3,0.4c0.1,0.1,0.1,0.4,0.1,0.7
	c0,0.3-0.1,0.6-0.2,1c-0.1,0.4-0.3,0.7-0.5,1.1c-0.2,0.4-0.3,0.7-0.4,0.8l-0.3,0.7c-0.3,0.6-0.4,0.9-0.4,1c0,0.1,0,0.2-0.1,0.5
	c-0.1,0.2-0.2,0.4-0.2,0.5c-0.2,0.3-0.3,0.7-0.5,1.2c-0.2,0.5-0.3,0.7-0.3,0.8c0,0,0,0.1-0.1,0.2c0,0.1-0.1,0.2-0.1,0.3
	c-0.1,0-0.1,0.1-0.1,0.2c0,0.1,0,0.1,0,0.2c0,0.1,0,0.3-0.1,0.6c-0.1,0.3-0.2,0.6-0.4,1c-0.5,2-0.8,3.4-0.8,4.2c0,0.5,0,0.8-0.1,0.8
	C260.7,16.8,260.6,16.9,260.4,17z M259.2,21.9c-0.4,0.2-0.7,0.3-0.9,0.3c-0.3,0-0.6-0.1-0.9-0.3c-0.3-0.3-0.5-0.5-0.5-0.8
	c0-0.4,0.3-0.9,0.9-1.4c0.4-0.3,0.7-0.4,0.8-0.4c0.1,0,0.3,0,0.7,0.2c0.6,0.3,0.9,0.6,0.9,1.1c0,0.2-0.1,0.5-0.3,0.7
	C259.8,21.4,259.5,21.7,259.2,21.9z"/>
</svg>
