<svg version="1.1" xmlns="http://www.w3.org/2000/svg" xmlns:xlink="http://www.w3.org/1999/xlink" viewBox="0 0 366 388.4" xml:space="preserve">
<path fill="#ED5749" d="M189.2,9.7l151.7,87.6c23.9,13.8,32.1,44.4,18.3,68.3L245.1,363.4c-13.8,23.9-44.4,32.1-68.3,18.3L25,294.1
	C1.1,280.3-7.1,249.7,6.7,225.8L120.9,28C134.7,4.1,165.3-4.1,189.2,9.7z"/>
<path fill="#6FA1EC" d="M140.8,14.4l169.2,45.4c26.7,7.1,42.5,34.6,35.4,61.2l-59.1,220.6c-7.1,26.7-34.6,42.5-61.2,35.4L55.9,331.6
	c-26.7-7.1-42.5-34.6-35.4-61.2L79.6,49.8C86.8,23.1,114.2,7.3,140.8,14.4z"/>
<path fill="#FFC328" d="M25,94.3L176.8,6.7c23.9-13.8,54.5-5.6,68.3,18.3l114.2,197.8c13.8,23.9,5.6,54.5-18.3,68.3l-151.7,87.6
	c-23.9,13.8-54.5,5.6-68.3-18.3L6.7,162.6C-7.1,138.7,1.1,108.1,25,94.3z"/>
<path fill="#F8784F" d="M55.9,59.8l169.2-45.4c26.7-7.1,54.1,8.7,61.2,35.4l59.1,220.6c7.1,26.7-8.7,54.1-35.4,61.2L140.8,377
	c-26.7,7.1-54.1-8.7-61.2-35.4L20.5,121C13.4,94.3,29.2,66.9,55.9,59.8z"/>
</svg>
