<?xml version="1.0" standalone="no"?>
<!DOCTYPE svg PUBLIC "-//W3C//DTD SVG 20010904//EN"
 "http://www.w3.org/TR/2001/REC-SVG-20010904/DTD/svg10.dtd">
<svg version="1.0" xmlns="http://www.w3.org/2000/svg"
 width="200.000000pt" height="200.000000pt" viewBox="0 0 200.000000 200.000000"
 preserveAspectRatio="xMidYMid meet">
<metadata>
Created by potrace 1.11, written by Peter Selinger 2001-2013
</metadata>
<g transform="translate(0.000000,200.000000) scale(0.100000,-0.100000)"
fill="#000000" stroke="none">
<path d="M0 1000 l0 -1000 1000 0 1000 0 0 1000 0 1000 -1000 0 -1000 0 0
-1000z m596 232 c149 -77 181 -317 57 -434 -49 -47 -91 -58 -218 -58 l-115 0
0 261 0 261 118 -4 c94 -4 125 -9 158 -26z m816 -69 l3 -98 83 -3 82 -3 0 101
0 101 53 -3 52 -3 3 -257 2 -258 -55 0 -55 0 0 110 0 110 -85 0 -85 0 0 -110
0 -110 -50 0 -50 0 0 260 0 260 50 0 49 0 3 -97z m-388 62 c40 -19 66 -62 66
-108 0 -26 -10 -48 -39 -84 l-38 -49 38 -44 38 -44 24 22 c13 12 26 22 30 22
4 0 20 -15 36 -32 l30 -33 -27 -21 -26 -22 37 -46 38 -46 -57 0 c-37 0 -63 5
-74 15 -15 14 -21 13 -61 -4 -76 -33 -155 -32 -198 4 -63 54 -61 141 4 214
l34 38 -19 39 c-28 55 -26 105 7 144 43 51 97 63 157 35z"/>
<path d="M420 1000 l0 -160 49 0 c69 0 107 16 132 56 27 45 29 134 5 186 -22
45 -83 78 -144 78 l-42 0 0 -160z"/>
<path d="M947 1133 c-11 -10 -8 -51 3 -58 16 -10 40 15 40 41 0 17 -6 24 -18
24 -10 0 -22 -3 -25 -7z"/>
<path d="M905 886 c-16 -30 -17 -37 -5 -51 11 -13 24 -16 53 -12 22 3 43 9 48
14 10 10 -47 83 -65 83 -7 0 -21 -15 -31 -34z"/>
</g>
</svg>
